G04 ================== begin FILE IDENTIFICATION RECORD ==================*
G04 Layout Name:  SHOWERHOST.brd*
G04 Film Name:    BOTTOM*
G04 File Format:  Gerber RS274X*
G04 File Origin:  Cadence Allegro 17.2-S079*
G04 Origin Date:  Thu May 05 20:33:34 2022*
G04 *
G04 Layer:  ETCH/BOTTOM*
G04 Layer:  PIN/BOTTOM*
G04 Layer:  VIA CLASS/BOTTOM*
G04 *
G04 Offset:    (0.00 0.00)*
G04 Mirror:    No*
G04 Mode:      Positive*
G04 Rotation:  0*
G04 FullContactRelief:  No*
G04 UndefLineWidth:     6.00*
G04 ================== end FILE IDENTIFICATION RECORD ====================*
%FSLAX25Y25*MOIN*%
%IR0*IPPOS*OFA0.00000B0.00000*MIA0B0*SFA1.00000B1.00000*%
%ADD25C,.06*%
%ADD14C,.024*%
%ADD30C,.0315*%
%ADD33C,.065*%
%ADD34C,.05512*%
%ADD20C,.05906*%
%ADD12C,.07087*%
%ADD10C,.09842*%
%ADD18C,.06693*%
%ADD36C,.07874*%
%ADD13C,.09449*%
%ADD31R,.08661X.1378*%
%ADD24R,.05906X.05906*%
%ADD17R,.06693X.06693*%
%ADD35R,.07874X.07874*%
%ADD29R,.012X.047*%
%ADD28R,.047X.012*%
%ADD32O,.08024X.0226*%
%ADD15R,.04213X.02362*%
%ADD11C,.14173*%
%ADD37O,.07342X.0248*%
%ADD26R,.05315X.05551*%
%ADD23R,.05551X.05315*%
%ADD27R,.08661X.04331*%
%ADD21R,.05421X.04459*%
%ADD16R,.04459X.05421*%
%ADD19R,.03937X.04921*%
%ADD22R,.06693X.03937*%
%ADD38C,.01*%
%ADD39C,.008*%
%ADD41C,.1109*%
%ADD42C,.13452*%
%ADD40C,.13846*%
G75*
%LPD*%
G75*
G36*
G01X176118Y294488D02*
G03X175656Y293210I1540J-1279D01*
G01Y291096D01*
G02X175017Y290775I-400J0D01*
G03X173820Y291173I-1198J-1603D01*
G01X167126D01*
G03X165125Y289172I1J-2001D01*
G01Y285234D01*
G03X167126Y283233I2002J0D01*
G01X173820D01*
G03X175821Y285234I-1J2001D01*
G01Y285733D01*
G02X176460Y286054I400J0D01*
G03X177658Y285656I1198J1603D01*
G01X182973D01*
G03X184771Y286779I0J2002D01*
G02X185385Y286911I359J-176D01*
G03X186658Y286453I1274J1544D01*
G01X192081D01*
G03X193562Y287109I-1J2001D01*
G02X194258Y286840I296J-269D01*
G01Y285234D01*
G03X196259Y283233I2002J0D01*
G01X202953D01*
G03X204954Y285234I0J2001D01*
G01Y289172D01*
G03X202953Y291173I-2001J0D01*
G01X202003D01*
G02X201721Y291856I1J400D01*
G01X205851Y295986D01*
G03X206554Y297684I-1699J1698D01*
G01Y299372D01*
X215652D01*
X215658Y299371D01*
G03X215807Y299366I155J2397D01*
G01X220285D01*
X220328Y299224D01*
G03X222244Y297798I1917J575D01*
G01X228938D01*
G03X230135Y298196I-1J2001D01*
G02X230774Y297875I239J-321D01*
G01Y295372D01*
G03X231236Y294094I2002J1D01*
G03X230774Y292816I1540J-1279D01*
G01Y291096D01*
G02X230135Y290775I-400J0D01*
G03X228938Y291173I-1198J-1603D01*
G01X222244D01*
G03X220243Y289172I0J-2001D01*
G01Y285234D01*
G03X222244Y283233I2002J0D01*
G01X228938D01*
G03X230939Y285234I0J2001D01*
G01Y285339D01*
G02X231578Y285660I400J0D01*
G03X232776Y285262I1198J1603D01*
G01X238091D01*
G03X240092Y287263I0J2002D01*
G01Y292816D01*
G03X239630Y294094I-2002J-1D01*
G03X240092Y295372I-1540J1279D01*
G01Y300925D01*
G03X238091Y302926I-2001J-1D01*
G01X237697D01*
G03X237131Y303822I-2263J-803D01*
G01X234318Y306635D01*
G03X232620Y307338I-1698J-1699D01*
G01X219804D01*
Y322112D01*
X224154D01*
G03X226156Y324114I-1J2002D01*
G01Y329430D01*
G03X225410Y330988I-2002J-1D01*
G02Y331611I251J311D01*
G03X226156Y333170I-1256J1559D01*
G01Y338484D01*
G03X226050Y339125I-2002J-2D01*
G01X226011Y339242D01*
X230255Y343487D01*
G03X230958Y345185I-1699J1698D01*
G01Y356701D01*
G03X231759Y358819I-2400J2118D01*
G03X225355I-3202J0D01*
G03X226156Y356701I3201J0D01*
G01Y346180D01*
X226041Y346066D01*
G02X225358Y346348I-283J283D01*
G01Y347594D01*
G03X223695Y349566I-2002J-1D01*
G01X223528Y349594D01*
Y351993D01*
G03X222825Y353691I-2402J0D01*
G01X215394Y361122D01*
Y365705D01*
G02X216057Y366006I400J-1D01*
G03X218162Y365217I2105J2414D01*
G03X221364Y368419I0J3202D01*
G03X220611Y370482I-3203J0D01*
G01X220564Y370538D01*
Y371522D01*
X223623D01*
G03X225624Y373523I0J2002D01*
G01Y378445D01*
G03X223623Y380446I-2001J0D01*
G01X219685D01*
G03X217684Y378445I1J-2001D01*
G01Y378248D01*
G03X217265Y378052I803J-2263D01*
G01X217163Y378024D01*
G02X216963Y378224I0J200D01*
G01Y378445D01*
G03X214962Y380446I-2002J0D01*
G01X211024D01*
G03X209023Y378445I1J-2001D01*
G01Y373524D01*
G03X210449Y371607I2001J0D01*
G01X210592Y371564D01*
Y360127D01*
G03X211295Y358429I2402J0D01*
G01X218726Y350998D01*
Y349594D01*
X211288D01*
G03X209286Y347592I0J-2002D01*
G01Y347384D01*
X197800D01*
Y347593D01*
G03X195799Y349594I-2002J0D01*
G01X185125D01*
X184932Y349788D01*
Y371200D01*
X185253Y371522D01*
X187798D01*
G03X187976Y371530I-1J2002D01*
G01X187994Y371531D01*
G02X188194Y371331I0J-200D01*
G01Y360937D01*
G03X187394Y358820I2402J-2117D01*
G01Y358819D01*
G03X193798I3202J0D01*
G01Y358820D01*
G03X192998Y360937I-3202J0D01*
G01Y371522D01*
X196457D01*
G03X198458Y373523I0J2002D01*
G01Y378445D01*
G03X196457Y380446I-2001J0D01*
G01X192519D01*
G03X190518Y378445I0J-2001D01*
G01Y378248D01*
G03X190099Y378052I803J-2263D01*
G01X189997Y378024D01*
G02X189797Y378224I0J200D01*
G01Y378445D01*
G03X187796Y380446I-2002J0D01*
G01X183858D01*
G03X181857Y378445I1J-2001D01*
G01Y374918D01*
X180832Y373893D01*
G03X180128Y372195I1698J-1699D01*
G01Y348793D01*
G03X180832Y347095I2402J1D01*
G01X181728Y346198D01*
Y343443D01*
G02X181161Y343080I-400J0D01*
G03X179821Y343374I-1340J-2908D01*
G01X179820D01*
G03X176618Y340172I0J-3202D01*
G01Y340171D01*
G03X177418Y338054I3202J0D01*
G01Y307338D01*
X175020D01*
G03X173322Y306635I0J-2402D01*
G01X172425Y305738D01*
X167126D01*
G03X165210Y304312I1J-2001D01*
G01X165167Y304170D01*
X150779D01*
G03X150630Y304174I-139J-2397D01*
G01X149794D01*
X149751Y304317D01*
G03X147834Y305743I-1917J-575D01*
G01X141141D01*
G03X139140Y303742I1J-2001D01*
G01Y302531D01*
G02X138444Y302262I-400J0D01*
G03X136963Y302918I-1482J-1345D01*
G01X136754D01*
Y305243D01*
G03X137454Y307241I-2502J1998D01*
G01Y307242D01*
G03X134252Y310444I-3202J0D01*
G01X134251D01*
G03X132253Y309744I0J-3202D01*
G01X112915D01*
X110280Y312378D01*
Y320726D01*
X114392D01*
X114396Y320531D01*
G03X116397Y318568I2002J39D01*
G01X130058D01*
G03X132060Y320570I0J2002D01*
G01Y325886D01*
G03X131315Y327444I-2002J0D01*
G02Y328067I251J311D01*
G03X132060Y329624I-1257J1558D01*
G01Y334942D01*
G03X130938Y336739I-2002J-1D01*
G02X130806Y337353I176J359D01*
G03X131264Y338627I-1544J1274D01*
G01Y338938D01*
X133456D01*
X133774Y338619D01*
X133781Y338547D01*
G03X136971Y335617I3190J272D01*
G03X140173Y338819I0J3202D01*
G03X137243Y342009I-3202J0D01*
G01X137171Y342016D01*
X136715Y342471D01*
X136762Y342592D01*
G03X136974Y343739I-2990J1146D01*
G03X136174Y345857I-3202J1D01*
G01Y371364D01*
G03X135470Y373062I-2402J-1D01*
G01X132425Y376107D01*
G03X131529Y376673I-1699J-1697D01*
G01Y376870D01*
G03X129528Y378871I-2001J0D01*
G01X125590D01*
G03X123589Y376870I1J-2001D01*
G01Y371948D01*
G03X125590Y369947I2001J1D01*
G01X129528D01*
G03X130934Y370525I-1J2001D01*
G01X131075Y370664D01*
X131370Y370369D01*
Y354792D01*
G02X130686Y354511I-400J0D01*
G03X129296Y355106I-1424J-1407D01*
G03X128730Y356003I-2264J-801D01*
G01X121300Y363434D01*
Y369989D01*
X121442Y370032D01*
G03X122868Y371948I-575J1917D01*
G01Y376870D01*
G03X120867Y378871I-2002J0D01*
G01X116929D01*
G03X114928Y376870I1J-2001D01*
G01Y371948D01*
G03X116354Y370032I2001J1D01*
G01X116496Y369989D01*
Y362439D01*
G03X117200Y360741I2402J1D01*
G01X122151Y355789D01*
G02X121869Y355106I-283J-283D01*
G01X117193D01*
G03X115192Y353105I0J-2001D01*
G01Y352896D01*
X107278D01*
G03X105279Y353596I-1998J-2502D01*
G03X105219Y353595I23J-3202D01*
G03X103279Y355106I-1941J-491D01*
G01X92605D01*
X92412Y355300D01*
Y369624D01*
X92734Y369947D01*
X95277D01*
G03X97137Y371210I0J2002D01*
G03X97277Y371207I139J3199D01*
G03X98102Y371315I0J3202D01*
G03X100000Y369947I1899J633D01*
G01X103938D01*
G03X105939Y371948I-1J2002D01*
G01Y376870D01*
G03X103938Y378871I-2002J0D01*
G01X100000D01*
G03X98102Y377503I1J-2001D01*
G03X97277Y377611I-825J-3094D01*
G03X97137Y377608I-1J-3202D01*
G03X95277Y378871I-1860J-739D01*
G01X91339D01*
G03X89338Y376870I0J-2001D01*
G01Y373343D01*
X88312Y372317D01*
G03X87608Y370619I1698J-1699D01*
G01Y354305D01*
G03X88312Y352607I2402J1D01*
G01X89208Y351710D01*
Y347684D01*
G03X89451Y346729I2002J1D01*
G02X89112Y346138I-352J-191D01*
G03X86011Y342938I101J-3200D01*
G03X86812Y340820I3201J0D01*
G01Y333081D01*
G03X87515Y331383I2402J0D01*
G01X88313Y330585D01*
G03X89208Y330020I1698J1698D01*
G01Y329572D01*
G03X91210Y327570I2002J1D01*
G01X102778D01*
Y325726D01*
G03X103510Y323959I2501J1D01*
G01X105278Y322192D01*
Y313844D01*
X87240D01*
G03X85471Y313111I0J-2501D01*
G01X76971Y304611D01*
G03X76252Y303098I1769J-1768D01*
G01X76233Y302918D01*
X76029D01*
G03X74028Y300917I0J-2001D01*
G01Y296458D01*
G03X74519Y295145I2001J0D01*
G02Y294620I-302J-263D01*
G03X74028Y293308I1510J-1313D01*
G01Y288848D01*
G03X76029Y286847I2002J1D01*
G01X81451D01*
G03X82933Y287504I-1J2001D01*
G02X83629Y287235I296J-269D01*
G01Y285234D01*
G03X85630Y283233I2002J0D01*
G01X92324D01*
G03X94325Y285234I-1J2001D01*
G01Y289172D01*
G03X92324Y291173I-2002J0D01*
G01X88890D01*
G02X88608Y291856I1J400D01*
G01X96119Y299366D01*
X107890D01*
X107905Y299182D01*
G03X108601Y297670I2394J186D01*
G01X109032Y297239D01*
G03X110730Y296536I1698J1699D01*
G01X120538D01*
Y296160D01*
G03X121000Y294882I2002J1D01*
G03X120538Y293604I1540J-1279D01*
G01Y290727D01*
G02X119833Y290468I-400J0D01*
G03X118308Y291173I-1525J-1296D01*
G01X111615D01*
G03X109614Y289172I0J-2001D01*
G01Y285234D01*
G03X111615Y283233I2001J0D01*
G01X118309D01*
G03X120310Y285234I0J2001D01*
G01Y286496D01*
G02X121015Y286755I400J0D01*
G03X122540Y286050I1525J1296D01*
G01X127040D01*
Y256044D01*
X124031D01*
X123993Y256196D01*
G03X122052Y257710I-1941J-488D01*
G01X113390D01*
G03X111666Y256724I1J-2001D01*
G03X111351Y256745I-370J-3181D01*
G02X110958Y257144I7J400D01*
G01Y259587D01*
G03X108957Y261588I-2001J-1D01*
G01X108862D01*
G02X108721Y261929I1J200D01*
G01X110254Y263462D01*
X111154D01*
X111389Y263227D01*
Y260432D01*
G03X113390Y258431I2001J0D01*
G01X122052D01*
G03X124053Y260432I-1J2001D01*
G01Y264764D01*
G03X122052Y266765I-2001J0D01*
G01X114927D01*
X113959Y267733D01*
G03X112190Y268466I-1769J-1768D01*
G01X109218D01*
G03X107449Y267733I0J-2501D01*
G01X104486Y264770D01*
X104419Y264761D01*
G03X101639Y261587I422J-3174D01*
G01Y261585D01*
G03X101842Y260464I3202J1D01*
G03X101640Y259589I1800J-876D01*
G01Y254034D01*
G03X102102Y252756I2002J1D01*
G03X101640Y251478I1540J-1279D01*
G01Y245925D01*
G03X103641Y243924I2002J1D01*
G01X108957D01*
G03X110958Y245925I0J2002D01*
G01Y249942D01*
G02X111351Y250341I400J-1D01*
G03X111666Y250362I-55J3202D01*
G03X113390Y249376I1725J1015D01*
G01X122052D01*
G03X123993Y250890I0J2002D01*
G01X124031Y251042D01*
X135789D01*
Y246653D01*
G03X137790Y244652I2001J0D01*
G01X139748D01*
X139798Y244526D01*
G03X140352Y243684I2324J926D01*
G01X140786Y243250D01*
G03X142553Y242518I1768J1769D01*
G01X173590D01*
G03X175357Y243250I-1J2501D01*
G01X177231Y245124D01*
G02X177914Y244841I283J-283D01*
G01Y240447D01*
G02X177226Y240169I-400J0D01*
G03X175788Y240779I-1439J-1391D01*
G01X169094D01*
G03X167093Y238778I0J-2001D01*
G01Y234840D01*
G03X169094Y232839I2001J0D01*
G01X175788D01*
G03X177704Y234265I-1J2001D01*
G01X177747Y234408D01*
X178715D01*
G03X180413Y235111I0J2402D01*
G01X181310Y236008D01*
X188667D01*
X188860Y235814D01*
Y227635D01*
G02X188178Y227353I-400J1D01*
G01X187060Y228470D01*
G03X185362Y229174I-1699J-1698D01*
G01X140320D01*
Y229482D01*
G03X138318Y231484I-2002J0D01*
G01X126249D01*
G03X124248Y229483I0J-2002D01*
G01Y229035D01*
G03X123352Y228470I801J-2264D01*
G01X122554Y227672D01*
G03X121850Y225974I1698J-1699D01*
G01Y212165D01*
G03X121871Y211848I2403J0D01*
G01X121873Y211822D01*
G02X121673Y211622I-200J0D01*
G01X121537Y211675D01*
G03X119356Y212533I-2181J-2343D01*
G03X118736Y212472I2J-3202D01*
G02X118258Y212864I-78J393D01*
G01Y229454D01*
G03X119059Y231572I-2400J2118D01*
G03X115857Y234774I-3202J0D01*
G03X114870Y234618I0J-3202D01*
G02X114364Y235114I-123J381D01*
G03X114414Y235299I-3065J928D01*
G03X116995Y238251I-615J3142D01*
G01X117007Y238440D01*
X126280D01*
G03X128398Y237639I2118J2400D01*
G03Y244043I0J3202D01*
G03X126280Y243242I0J-3201D01*
G01X124053D01*
Y246654D01*
G03X122052Y248655I-2001J-1D01*
G01X113390D01*
G03X111389Y246654I0J-2002D01*
G01Y243242D01*
X109999D01*
G03X108301Y242539I0J-2402D01*
G01X93801Y228039D01*
G03X93098Y226341I1699J-1698D01*
G01Y161171D01*
G03X93801Y159473I2402J0D01*
G01X105638Y147635D01*
X105645Y147563D01*
G03X108835Y144633I3190J272D01*
G03X111994Y147313I0J3202D01*
G02X112672Y147531I395J-65D01*
G01X123909Y136294D01*
G03X125607Y135590I1699J1698D01*
G01X130882D01*
X130885Y135394D01*
G03X130922Y135040I2001J30D01*
G03X130884Y134655I1964J-388D01*
G01Y133455D01*
G03X130922Y133071I2002J4D01*
G03X130884Y132687I1964J-388D01*
G01Y131487D01*
G03X130922Y131102I2002J3D01*
G03X130884Y130718I1964J-388D01*
G01Y129518D01*
G03X132886Y127516I2002J0D01*
G01X135778D01*
G02X136060Y126834I-1J-400D01*
G01X125267Y116041D01*
G02X124588Y116377I-283J283D01*
G03X124639Y117126I-5494J750D01*
G03X119094Y111581I-5545J0D01*
G03X119843Y111632I-1J5545D01*
G02X120179Y110953I53J-396D01*
G01X109995Y100768D01*
G03X109292Y99070I1699J-1698D01*
G01Y86224D01*
G03X107066Y83664I2400J-4335D01*
G02X106320I-373J143D01*
G03X97066I-4627J-1775D01*
G02X96320I-373J143D01*
G03X91693Y86845I-4627J-1775D01*
G03Y76935I0J-4955D01*
G03X96320Y80116I0J4956D01*
G02X97066I373J-143D01*
G03X106320I4627J1775D01*
G02X107066I373J-143D01*
G03X111693Y76935I4627J1775D01*
G03X115992Y79425I0J4956D01*
G02X116738Y79226I346J-199D01*
G01Y78937D01*
G03X118738Y76936I2001J0D01*
G01X124646D01*
G03X126648Y78937I0J2002D01*
G01Y84843D01*
G03X124648Y86844I-2001J0D01*
G01X118740D01*
G03X116738Y84843I0J-2002D01*
G01Y84554D01*
G02X115992Y84355I-400J0D01*
G03X114094Y86224I-4298J-2466D01*
G01Y95643D01*
G02X114804Y95896I400J0D01*
G03X119094Y93864I4290J3513D01*
G03X124639Y99409I0J5545D01*
G03X121293Y104499I-5545J0D01*
G02X121169Y105149I159J367D01*
G01X139825Y123806D01*
G02X140508Y123524I283J-283D01*
G01Y119894D01*
G03X140528Y119612I2002J0D01*
G01X140542Y119513D01*
X135315Y114286D01*
X135248Y114277D01*
G03X132468Y111103I422J-3174D01*
G03X135670Y107901I3202J0D01*
G03X138844Y110681I0J3202D01*
G01X138853Y110748D01*
X144879Y116774D01*
G03X145484Y117755I-1769J1768D01*
G01X145530Y117892D01*
X146614D01*
Y92202D01*
X133798D01*
Y8874D01*
X32040D01*
G02X31838Y9619I0J400D01*
G03X39858Y23622I-8215J14003D01*
G03X23622Y39858I-16236J0D01*
G03X9619Y31838I0J-16235D01*
G02X8874Y32040I-345J202D01*
G01Y110305D01*
G02X9542Y110602I400J0D01*
G03X11772Y109255I4630J5146D01*
G01Y91672D01*
G03X12475Y89974I2402J0D01*
G01X28975Y73474D01*
G03X30163Y72825I1699J1698D01*
G01X30320Y72791D01*
Y58513D01*
G02X29682Y58192I-400J0D01*
G03X26378Y59284I-3304J-4452D01*
G03Y48194I0J-5545D01*
G03X31322Y51228I0J5545D01*
G01X31377Y51338D01*
X31762D01*
G03X33460Y52041I0J2402D01*
G01X35317Y53898D01*
X41050D01*
G03X42636Y53116I1587J1220D01*
G01X46850D01*
G03X48851Y55118I-1J2002D01*
G01Y57480D01*
G03X48848Y57593I-2002J3D01*
G01Y57604D01*
G02X49048Y57804I200J0D01*
G01X49118Y57791D01*
G03X49960Y57638I843J2248D01*
G01X50775D01*
G03X52362Y56856I1587J1220D01*
G01X56574D01*
G03X58576Y58858I0J2002D01*
G01Y61220D01*
G03X57070Y63159I-2001J0D01*
G02X56915Y63855I99J387D01*
G03X57642Y65397I-1275J1543D01*
G01Y70821D01*
G03X57118Y72171I-2002J0D01*
G02Y72711I295J270D01*
G03X57642Y74061I-1478J1350D01*
G01Y74370D01*
X70084D01*
G03X71782Y75074I-1J2402D01*
G01X87782Y91074D01*
G03X88486Y92772I-1698J1699D01*
G01Y95665D01*
G02X89196Y95916I400J-1D01*
G03X93503Y93864I4307J3494D01*
G03Y104954I0J5545D01*
G03X89196Y102902I0J-5546D01*
G02X88486Y103153I-310J252D01*
G01Y113382D01*
G02X89196Y113633I400J-1D01*
G03X93503Y111581I4307J3494D01*
G03Y122671I0J5545D01*
G03X89196Y120619I0J-5546D01*
G02X88486Y120870I-310J252D01*
G01Y199613D01*
G03X89286Y201730I-2402J2117D01*
G01Y201731D01*
G03X86086Y204933I-3202J0D01*
G01Y243318D01*
X89892D01*
G03X91894Y245320I0J2002D01*
G01Y249347D01*
X93056Y250509D01*
G03X93760Y252207I-1698J1699D01*
G01Y254213D01*
G03X93056Y255911I-2402J-1D01*
G01X92159Y256808D01*
Y260335D01*
G03X90158Y262336I-2002J0D01*
G01X86220D01*
G03X84249Y260682I0J-2002D01*
G02X83804Y260355I-394J70D01*
G03X83498Y260375I-316J-2481D01*
G03X81912Y262292I-2001J-41D01*
G03X81297Y263303I-2384J-758D01*
G01X77083Y267517D01*
G03X75314Y268250I-1769J-1768D01*
G01X45782D01*
Y292095D01*
G03X46483Y294094I-2500J1999D01*
G03X40079I-3202J0D01*
G03X40780Y292095I3201J0D01*
G01Y271275D01*
G02X40232Y270903I-400J0D01*
G03X38189Y271293I-2043J-5156D01*
G03X32644Y265748I0J-5545D01*
G03X35078Y261158I5545J0D01*
G02Y260496I-225J-331D01*
G03Y251316I3111J-4590D01*
G02Y250653I-224J-332D01*
G03X32644Y246063I3111J-4590D01*
G03X38189Y240518I5545J0D01*
G03X39919Y240795I-1J5545D01*
G01X43064Y237650D01*
G03X44831Y236918I1768J1769D01*
G01X53782D01*
G03X55549Y237650I-1J2501D01*
G01X60823Y242924D01*
G03X61144Y243318I-1769J1769D01*
G01X65088D01*
G03X67090Y245320I0J2002D01*
G01Y250742D01*
G03X65088Y252744I-2002J0D01*
G01X61556D01*
Y253411D01*
X65355D01*
G03X67357Y255413I-1J2003D01*
G01Y260335D01*
G03X65355Y262337I-2003J0D01*
G01X61417D01*
G03X59415Y260335I0J-2002D01*
G01Y260243D01*
G03X58993Y260055I803J-2369D01*
G01X58947Y260029D01*
X58695D01*
Y260335D01*
G03X56694Y262336I-2002J0D01*
G01X52756D01*
G03X50755Y260335I1J-2002D01*
G01Y256808D01*
X49858Y255911D01*
G03X49154Y254213I1698J-1699D01*
G01Y252206D01*
G03X49858Y250508I2402J1D01*
G01X51018Y249347D01*
Y245320D01*
G03X53020Y243318I2003J1D01*
G01X53176D01*
G02X53459Y242636I0J-400D01*
G01X52744Y241920D01*
X45869D01*
X43458Y244332D01*
X43493Y244446D01*
G03X43734Y246063I-5304J1617D01*
G03X41300Y250653I-5545J0D01*
G02Y251316I224J331D01*
G03Y260496I-3111J4590D01*
G02Y261158I225J331D01*
G03X43138Y263246I-3110J4591D01*
G01X74278D01*
X75972Y261553D01*
G03X75558Y260334I1587J-1219D01*
G01Y255413D01*
G03X77559Y253412I2002J1D01*
G01X81054D01*
G03X81082Y253375I2567J1914D01*
G01Y252744D01*
X77824D01*
G03X75822Y250742I1J-2002D01*
G01Y245320D01*
G03X77824Y243318I2003J1D01*
G01X81082D01*
Y138951D01*
X64213Y122081D01*
G03X61417Y122671I-2797J-6333D01*
G03X68340Y115748I0J-6923D01*
G03X67750Y118544I-6923J-1D01*
G01X83000Y133793D01*
G02X83682Y133510I282J-283D01*
G01Y93767D01*
X77608Y87692D01*
G03X75339Y88635I-2269J-2259D01*
G01X75338D01*
G03X73220Y87834I0J-3201D01*
G01X57642D01*
Y88144D01*
G03X55640Y90146I-2002J0D01*
G01X43572D01*
G03X41570Y88144I0J-2003D01*
G01Y82722D01*
G03X42094Y81372I2002J1D01*
G02Y80833I-295J-270D01*
G03X41570Y79483I1478J-1351D01*
G01Y79174D01*
X34322D01*
G03X32624Y78470I1J-2402D01*
G01X31727Y77574D01*
X31668D01*
X27344Y81897D01*
G02X27543Y82571I283J283D01*
G03X31923Y87992I-1165J5421D01*
G03X26378Y93537I-5545J0D01*
G03X20957Y89157I0J-5545D01*
G02X20283Y88958I-391J84D01*
G01X16574Y92667D01*
Y109255D01*
G03X21096Y115748I-2401J6493D01*
G03X14173Y122671I-6923J0D01*
G03X9542Y120894I0J-6923D01*
G02X8874Y121191I-268J297D01*
G01Y361661D01*
G02X9619Y361863I400J0D01*
G03X23622Y353844I14003J8217D01*
G03X39858Y370079I0J16236D01*
G03X31838Y384082I-16235J0D01*
G02X32040Y384827I202J345D01*
G01X282921D01*
G02X283123Y384082I0J-400D01*
G03X275104Y370079I8217J-14003D01*
G03X291339Y353844I16235J0D01*
G03X305342Y361863I0J16236D01*
G02X306087Y361661I345J-202D01*
G01Y310954D01*
G02X305419Y310657I-400J0D01*
G03X300787Y312435I-4632J-5145D01*
G03X293864Y305512I0J-6923D01*
G03X298386Y299019I6923J0D01*
G01Y249007D01*
X254123Y204744D01*
X242901D01*
Y208003D01*
G03X240900Y210004I-2002J-1D01*
G01X240453D01*
G03X239887Y210901I-2264J-801D01*
G01X238990Y211798D01*
Y214145D01*
G02X239207Y214344I200J0D01*
G03X239370Y214338I155J1995D01*
G01X243584D01*
G03X245584Y216339I-1J2001D01*
G01Y218701D01*
G03X243584Y220702I-2001J0D01*
G01X239370D01*
G03X239207Y220696I-8J-2001D01*
G02X238990Y220895I-17J199D01*
G01Y221625D01*
G02X239207Y221824I200J0D01*
G03X239370Y221818I155J1995D01*
G01X243584D01*
G03X245584Y223819I-1J2001D01*
G01Y226181D01*
G03X243584Y228182I-2001J0D01*
G01X239367D01*
G03X237783Y227402I2J-2001D01*
G01X236348D01*
G03X235002Y226989I1J-2402D01*
G03X233566Y227466I-1437J-1925D01*
G01X227547D01*
X227518Y227632D01*
G03X225546Y229295I-1973J-338D01*
G01X220124D01*
G03X218123Y227294I1J-2001D01*
G01Y222834D01*
G03X218614Y221522I2001J1D01*
G02Y220997I-302J-263D01*
G03X218123Y219684I1510J-1313D01*
G01Y215225D01*
G03X220124Y213224I2001J1D01*
G01X225546D01*
G03X225873Y213251I-1J2001D01*
G02X226338Y212857I65J-394D01*
G01Y210004D01*
X226029D01*
G03X224028Y208003I1J-2001D01*
G01Y203544D01*
G03X224519Y202231I2001J0D01*
G02Y201706I-302J-263D01*
G03X224028Y200394I1510J-1313D01*
G01Y195934D01*
G03X226029Y193933I2001J1D01*
G01X226338D01*
Y188863D01*
G03X225538Y186746I2402J-2117D01*
G01Y186745D01*
G03X231942I3202J0D01*
G01Y186746D01*
G03X231142Y188863I-3202J0D01*
G01Y193933D01*
X231451D01*
G03X233129Y194844I0J2002D01*
G02X233800I335J-217D01*
G03X235478Y193933I1678J1091D01*
G01X235788D01*
Y193444D01*
G03X236491Y191746I2402J0D01*
G01X239388Y188849D01*
Y163382D01*
G02X238712Y163093I-400J1D01*
G03X235433Y164403I-3279J-3449D01*
G03X234334Y164274I1J-4758D01*
G01X234226Y164249D01*
X225702Y172772D01*
G03X224004Y173476I-1699J-1698D01*
G01X212294D01*
G03X210596Y172772I1J-2402D01*
G01X206596Y168772D01*
G03X205892Y167074I1698J-1699D01*
G01Y160861D01*
G03X206596Y159163I2402J1D01*
G01X207222Y158537D01*
G03X207493Y158303I1701J1696D01*
G01Y155596D01*
X206596Y154699D01*
G03X205892Y153001I1698J-1699D01*
G01Y138500D01*
G02X205210Y138218I-400J1D01*
G01X189957Y153470D01*
G03X188933Y154077I-1698J-1698D01*
G02X188762Y154744I112J384D01*
G01X190560Y156542D01*
G03X191264Y158240I-1698J1699D01*
G01Y191943D01*
G03X194464Y195145I-2J3202D01*
G01Y195146D01*
G03X193664Y197263I-3202J0D01*
G01Y232665D01*
G02X194233Y233027I400J0D01*
G03X195080Y232839I847J1813D01*
G01X201773D01*
G03X203774Y234840I-1J2002D01*
G01Y238778D01*
G03X201773Y240779I-2001J-1D01*
G01X195080D01*
G03X193163Y239353I0J-2001D01*
G01X193120Y239210D01*
X192257D01*
X191360Y240107D01*
G03X189662Y240810I-1698J-1699D01*
G01X182716D01*
Y253348D01*
X186299D01*
G03X187997Y254051I0J2402D01*
G01X188894Y254948D01*
X192814D01*
G03X192975Y254954I6J2002D01*
G02X193352Y254354I32J-398D01*
G03X193078Y253344I1728J-1011D01*
G01Y249405D01*
G03X195079Y247404I2002J0D01*
G01X201773D01*
G03X203774Y249405I-1J2001D01*
G01Y253343D01*
G03X201773Y255344I-2001J0D01*
G01X195080D01*
G03X194919Y255338I-6J-2002D01*
G02X194542Y255938I-32J398D01*
G03X194816Y256948I-1728J1011D01*
G01Y262502D01*
G03X194354Y263780I-2002J-1D01*
G03X194816Y265058I-1540J1279D01*
G01Y270611D01*
G03X192815Y272612I-2002J-1D01*
G01X187499D01*
G03X185498Y270611I0J-2001D01*
G01Y265058D01*
G03X185960Y263780I2002J1D01*
G03X185498Y262502I1540J-1279D01*
G01Y258344D01*
X185368Y258215D01*
G02X185027Y258356I-141J141D01*
G01Y262204D01*
G03X184536Y263517I-2001J0D01*
G02Y264042I302J263D01*
G03X185027Y265354I-1510J1313D01*
G01Y269814D01*
G03X183026Y271815I-2001J0D01*
G01X182816D01*
Y278516D01*
G03X183517Y280515I-2500J1999D01*
G03X177113I-3202J0D01*
G03X177814Y278516I3201J0D01*
G01Y271815D01*
X177604D01*
G03X175603Y269814I1J-2001D01*
G01Y266891D01*
X174520Y265808D01*
G03X173788Y264041I1769J-1768D01*
G01Y255349D01*
X169094D01*
G03X167093Y253348I0J-2001D01*
G01Y249410D01*
G03X167525Y248169I2001J1D01*
G02X167212Y247520I-314J-249D01*
G01X157809D01*
Y251872D01*
G03X157347Y253150I-2002J-1D01*
G03X157809Y254428I-1540J1279D01*
G01Y259981D01*
G03X155808Y261982I-2001J-1D01*
G01X150492D01*
G03X148927Y261228I0J-2002D01*
G02X148254Y261303I-313J249D01*
G03X146452Y262434I-1802J-870D01*
G01X137790D01*
G03X135789Y260433I0J-2001D01*
G01Y256044D01*
X132044D01*
Y286847D01*
X136963D01*
G03X138444Y287503I-1J2001D01*
G02X139140Y287234I296J-269D01*
G01Y285234D01*
G03X141141Y283233I2001J0D01*
G01X147835D01*
G03X149836Y285234I0J2001D01*
G01Y289172D01*
G03X147835Y291173I-2001J0D01*
G01X144401D01*
G02X144119Y291856I1J400D01*
G01X151630Y299366D01*
X165167D01*
X165210Y299224D01*
G03X167126Y297798I1917J575D01*
G01X173820D01*
G03X175017Y298196I-1J2001D01*
G02X175656Y297875I239J-321D01*
G01Y295766D01*
G03X176118Y294488I2002J1D01*
G37*
G36*
G01X271382Y90200D02*
X306000D01*
Y32187D01*
G02X305257Y31981I-400J0D01*
G03X291339Y39858I-13919J-8359D01*
G03X275104Y23622I0J-16235D01*
G03X282917Y9742I16236J0D01*
G02X282709Y9000I-208J-342D01*
G01X135800D01*
Y90200D01*
X147785D01*
X149818Y88167D01*
G03X151516Y87464I1698J1699D01*
G01X267651D01*
G03X269349Y88167I0J2402D01*
G01X271382Y90200D01*
G37*
G36*
G01X140320Y224370D02*
X180854D01*
X180866Y224182D01*
G03X181660Y222254I3196J189D01*
G01Y206500D01*
X167793Y192632D01*
G02X167138Y192769I-283J283D01*
G03X164982Y195277I-4658J-1824D01*
G01Y213146D01*
G03X165682Y215145I-2502J1998D01*
G03X159278I-3202J0D01*
G03X159978Y213146I3202J-1D01*
G01Y195277D01*
G03X157850Y192838I2503J-4331D01*
G02X157110I-370J152D01*
G03X152480Y195947I-4630J-1893D01*
G03X147478Y190945I0J-5002D01*
G03X152000Y185966I5002J0D01*
G02X152291Y185340I-38J-398D01*
G03X151874Y184500I2629J-1828D01*
G02X151404Y184233I-381J123D01*
G03X150952Y184304I-722J-3119D01*
G01X150880Y184311D01*
X146878Y188312D01*
G03X145180Y189016I-1699J-1698D01*
G01X140320D01*
Y189324D01*
G03X140090Y190256I-2002J0D01*
G02X140162Y190519I177J93D01*
G03X141116Y192224I-1048J1706D01*
G01Y197540D01*
G03X139114Y199542I-2003J-1D01*
G01X137205D01*
G02X136854Y200133I0J400D01*
G03X137146Y201280I-2110J1148D01*
G01Y206004D01*
G03X136442Y207702I-2402J-1D01*
G01X135464Y208681D01*
X135466Y208766D01*
G03X135467Y208858I-3576J85D01*
G03X131890Y212435I-3577J0D01*
G03X129200Y211216I0J-3578D01*
G02X128617Y211197I-300J264D01*
G01X126654Y213160D01*
Y213450D01*
X139114D01*
G03X141116Y215452I-1J2002D01*
G01Y220768D01*
G03X140161Y222474I-2002J-1D01*
G02X140029Y223022I210J340D01*
G03X140320Y224062I-1711J1040D01*
G01Y224370D01*
G37*
G36*
G01Y184212D02*
X144185D01*
X147483Y180914D01*
X147490Y180842D01*
G03X150680Y177912I3190J272D01*
G03X151960Y178179I0J3202D01*
G02X152520Y177812I160J-367D01*
G01Y171872D01*
X142510D01*
G03X141017Y171203I1J-2002D01*
G02X140435Y171187I-299J267D01*
G01X130404Y181219D01*
G02X130686Y181902I283J283D01*
G01X138318D01*
G03X140320Y183904I0J2002D01*
G01Y184212D01*
G37*
G36*
G01X163983Y107445D02*
X169554Y113016D01*
G02X170236Y112733I282J-283D01*
G01Y100165D01*
G03X170940Y98467I2402J1D01*
G01X176440Y92967D01*
G03X176455Y92952I1705J1691D01*
G02X176175Y92266I-280J-286D01*
G01X155740D01*
X155728Y92455D01*
G03X154934Y94383I-3196J-189D01*
G01Y102337D01*
X158052Y105456D01*
G02X158609Y105465I283J-283D01*
G03X160800Y104598I2191J2335D01*
G03X163974Y107378I0J3202D01*
G01X163983Y107445D01*
G37*
G36*
G01X190664Y102914D02*
Y113621D01*
G02X191387Y113856I400J0D01*
G03X195865Y111581I4478J3270D01*
G03X200863Y114724I0J5545D01*
G01X216458D01*
G03X219085Y112113I4998J2402D01*
G02X219197Y111469I-171J-361D01*
G01X204794Y97066D01*
X201484D01*
G02X201106Y97597I0J400D01*
G03X201410Y99409I-5241J1811D01*
G03X195865Y104954I-5545J0D01*
G03X191387Y102679I0J-5545D01*
G02X190664Y102914I-323J235D01*
G37*
G36*
G01X225525Y153012D02*
Y154759D01*
G02X226208Y155042I400J0D01*
G01X233032Y148218D01*
Y144462D01*
G03X230675Y140355I2400J-4107D01*
G03X235433Y135597I4758J0D01*
G03X238712Y136907I0J4759D01*
G02X239388Y136617I276J-290D01*
G01Y131660D01*
X227113Y119385D01*
G02X226469Y119497I-283J283D01*
G03X221456Y122671I-5013J-2372D01*
G03X216458Y119528I0J-5545D01*
G01X200863D01*
G03X195865Y122671I-4998J-2402D01*
G03X191387Y120396I0J-5545D01*
G02X190664Y120631I-323J235D01*
G01Y137929D01*
G03X189960Y139627I-2402J-1D01*
G01X185960Y143627D01*
G03X185002Y144214I-1699J-1697D01*
G01X184864Y144258D01*
Y144498D01*
G03X184826Y144882I-2002J-4D01*
G03X184864Y145266I-1964J388D01*
G01Y146466D01*
G03X184826Y146850I-2002J-4D01*
G03X184863Y147205I-1964J384D01*
G01X184866Y147402D01*
X186403D01*
X206124Y127681D01*
G03X207822Y126978I1698J1699D01*
G01X215550D01*
G03X217248Y127681I0J2402D01*
G01X217482Y127915D01*
X217598Y127877D01*
G03X218208Y127782I609J1907D01*
G01X223524D01*
G03X225525Y129784I0J2002D01*
G01Y135334D01*
G03X225063Y136614I-2002J1D01*
G03X225525Y137894I-1540J1279D01*
G01Y143444D01*
G03X223524Y145446I-2001J0D01*
G01X218929D01*
Y145653D01*
X218930Y145661D01*
G03X218936Y145838I-2395J170D01*
G01Y151011D01*
X223524D01*
G03X225525Y153012I0J2002D01*
G37*
G36*
G01X305419Y300367D02*
G02X306087Y300070I268J-297D01*
G01Y92202D01*
X274349D01*
G02X274067Y92884I1J400D01*
G01X287354Y106172D01*
G02X288019Y106010I283J-283D01*
G03X293307Y102132I5288J1666D01*
G03X298852Y107677I0J5545D01*
G03X294974Y112965I-5544J0D01*
G02X294812Y113630I121J382D01*
G01X296264Y115082D01*
G03X296968Y116780I-1698J1699D01*
G01Y151319D01*
G03X295650Y153462I-2401J0D01*
G02Y154176I180J357D01*
G03X296264Y154621I-1085J2143D01*
G01X296580Y154937D01*
G03X297284Y156635I-1698J1699D01*
G01Y164478D01*
X297426Y164521D01*
G03X298852Y166438I-575J1917D01*
G01Y171358D01*
G03X296850Y173360I-2001J1D01*
G01X292914D01*
G03X290912Y171358I0J-2001D01*
G01Y166438D01*
G03X292338Y164521I2001J0D01*
G01X292480Y164478D01*
Y159757D01*
G02X292272Y159557I-200J0D01*
G03X292126Y159560I-140J-3238D01*
G01X287264D01*
G03X284022Y156319I0J-3242D01*
G03X284907Y154094I3242J1D01*
G02Y153544I-291J-275D01*
G03X284022Y151319I2357J-2226D01*
G03X284340Y149921I3242J2D01*
G02X283856Y149368I-361J-172D01*
G03X282877Y149521I-978J-3049D01*
G03X280521Y148487I0J-3201D01*
G02X279943Y148475I-295J271D01*
G01X275401Y153017D01*
G03X273703Y153720I-1698J-1699D01*
G01X273272D01*
Y154002D01*
X273329Y154060D01*
G03X274246Y156319I-2324J2259D01*
G03X271004Y159560I-3241J0D01*
G01X266142D01*
G03X262900Y156319I0J-3242D01*
G03X263785Y154094I3242J1D01*
G02Y153544I-291J-275D01*
G03X262900Y151319I2357J-2226D01*
G03X263785Y149094I3242J1D01*
G02Y148544I-291J-275D01*
G03X262923Y146698I2357J-2225D01*
G01X262915Y146629D01*
X262765Y146480D01*
X262478D01*
Y163445D01*
X263218Y164186D01*
X273750D01*
G03X275752Y166188I0J2002D01*
G01Y166496D01*
X282243D01*
X282255Y166309D01*
G03X284252Y164436I1997J129D01*
G01X288190D01*
G03X290191Y166438I-1J2001D01*
G01Y171358D01*
G03X288190Y173360I-2001J1D01*
G01X284252D01*
G03X282255Y171487I0J-2002D01*
G01X282243Y171300D01*
X275752D01*
Y171608D01*
G03X273750Y173610I-2001J1D01*
G01X261682D01*
G03X259680Y171608I0J-2002D01*
G01Y167723D01*
X258207Y166250D01*
G03X257474Y164481I1768J-1769D01*
G01Y145204D01*
G03X258207Y143435I2501J0D01*
G01X258700Y142942D01*
Y124821D01*
G03X259433Y123052I2501J0D01*
G01X273078Y109407D01*
G03X272801Y107677I5268J-1731D01*
G03X276183Y102571I5545J0D01*
G02X276310Y101920I-156J-368D01*
G01X266656Y92266D01*
X207752D01*
G02X207472Y92952I0J400D01*
G03X207487Y92967I-1690J1706D01*
G01X215335Y100815D01*
G02X216011Y100457I283J-283D01*
G03X215911Y99409I5445J-1048D01*
G03X221456Y104954I5545J0D01*
G03X220408Y104854I0J-5545D01*
G02X220050Y105530I-75J393D01*
G01X243487Y128967D01*
G03X244190Y130665I-1699J1698D01*
G01Y189844D01*
G03X243487Y191542I-2402J0D01*
G01X241578Y193451D01*
G02X241701Y194100I283J283D01*
G03X242901Y195934I-802J1834D01*
G01Y199942D01*
X252716D01*
Y194170D01*
G03X249573Y189172I2402J-4998D01*
G03X260663I5545J0D01*
G03X257520Y194170I-5545J0D01*
G01Y201348D01*
X302485Y246314D01*
G03X303188Y248012I-1699J1698D01*
G01Y299019D01*
G03X305419Y300367I-2401J6493D01*
G37*
%LPC*%
G75*
G36*
G01X50360Y51378D02*
Y53740D01*
G02X52362Y55742I2002J0D01*
G01X56574D01*
G02X58576Y53740I0J-2002D01*
G01Y51378D01*
G02X56574Y49376I-2002J0D01*
G01X52362D01*
G02X50360Y51378I0J2002D01*
G37*
G36*
G01X209031Y189052D02*
G03X208291I-370J-152D01*
G02X203661Y185943I-4630J1893D01*
G02Y195947I0J5002D01*
G02X208291Y192838I0J-5002D01*
G03X209031I370J152D01*
G02X213661Y195947I4630J-1893D01*
G02Y185943I0J-5002D01*
G02X209031Y189052I0J5002D01*
G37*
G36*
G01X24016Y188155D02*
G02X30742Y194881I0J6726D01*
G02X30250Y192357I-6726J1D01*
G01X30201Y192234D01*
X39564Y182871D01*
G02X40296Y181104I-1769J-1768D01*
G01Y114329D01*
G02X44718Y107874I-2500J-6455D01*
G02X30872I-6923J0D01*
G02X35294Y114329I6922J0D01*
G01Y180066D01*
X26663Y188696D01*
X26540Y188647D01*
G02X24016Y188155I-2525J6234D01*
G37*
G36*
G01Y207840D02*
G02X30742Y214566I0J6726D01*
G02X30250Y212042I-6726J1D01*
G01X30201Y211919D01*
X63186Y178934D01*
G02X63918Y177167I-1769J-1768D01*
G01Y170234D01*
G02X68340Y163779I-2500J-6455D01*
G02X54494I-6923J0D01*
G02X58916Y170234I6922J0D01*
G01Y176129D01*
X26663Y208381D01*
X26540Y208332D01*
G02X24016Y207840I-2525J6234D01*
G37*
G36*
G01X66497Y194679D02*
X66733D01*
G02X68734Y192678I-1J-2001D01*
G01Y185984D01*
G02X66733Y183983I-2002J1D01*
G01X60039D01*
G02X58038Y185984I1J2001D01*
G01Y192678D01*
G02X60039Y194679I2002J0D01*
G01X60275D01*
Y194979D01*
X60195Y195039D01*
G02X58038Y199331I3192J4292D01*
G02X60748Y203983I5348J0D01*
G03Y204679I-197J348D01*
G02Y213983I2638J4652D01*
G03Y214679I-197J348D01*
G02X58038Y219331I2638J4652D01*
G02X68734I5348J0D01*
G02X66024Y214679I-5348J0D01*
G03Y213983I197J-348D01*
G02Y204679I-2638J-4652D01*
G03Y203983I197J-348D01*
G02X68734Y199331I-2638J-4652D01*
G02X66577Y195039I-5349J0D01*
G01X66497Y194979D01*
Y194679D01*
G37*
G36*
G01X224527Y261621D02*
G03Y262317I-197J348D01*
G02X221817Y266969I2638J4652D01*
G02X232513I5348J0D01*
G02X229803Y262317I-5348J0D01*
G03Y261621I197J-348D01*
G02Y252317I-2638J-4652D01*
G03Y251621I197J-348D01*
G02X232513Y246969I-2638J-4652D01*
G02X230356Y242677I-5349J0D01*
G01X230276Y242617D01*
Y242317D01*
X230512D01*
G02X232513Y240316I-1J-2001D01*
G01Y233622D01*
G02X230512Y231621I-2002J0D01*
G01X223818D01*
G02X221817Y233622I1J2001D01*
G01Y240316D01*
G02X223818Y242317I2001J0D01*
G01X224054D01*
Y242617D01*
X223974Y242677D01*
G02X221817Y246969I3192J4292D01*
G02X224527Y251621I5348J0D01*
G03Y252317I-197J348D01*
G02Y261621I2638J4652D01*
G37*
G36*
G01X259260Y296257D02*
X256340Y299178D01*
X256216Y299126D01*
G02X253543Y298589I-2673J6386D01*
G02X260466Y305512I0J6923D01*
G02X259929Y302839I-6923J0D01*
G01X259877Y302715D01*
X263531Y299062D01*
G02X264264Y297293I-1768J-1769D01*
G01Y230069D01*
G02X263531Y228300I-2501J0D01*
G01X260386Y225155D01*
G02X260663Y223425I-5268J-1731D01*
G02X255118Y228970I-5545J0D01*
G02X256848Y228693I-1J-5545D01*
G01X259260Y231105D01*
Y252446D01*
G03X258570Y252721I-400J0D01*
G02X253543Y250558I-5027J4760D01*
G02Y264404I0J6923D01*
G02X258570Y262241I0J-6923D01*
G03X259260Y262516I290J275D01*
G01Y296257D01*
G37*
G36*
G01X150807Y81904D02*
X166771D01*
G02X168889Y82704I2117J-2402D01*
G02X172091Y79502I0J-3202D01*
G02X171290Y77384I-3201J0D01*
G01Y62064D01*
X173884Y59470D01*
X179383D01*
G02X182514Y56339I0J-3131D01*
G02X182413Y55547I-3131J-3D01*
G01X182384Y55436D01*
X191611Y46209D01*
G03X192293Y46474I283J283D01*
G02X193210Y48556I3129J-135D01*
G03Y49122I-282J283D01*
G02Y53556I2211J2217D01*
G03Y54122I-282J283D01*
G02X192290Y56339I2211J2217D01*
G02X195422Y59470I3132J-1D01*
G01X201186D01*
G02X203196Y58740I0J-3132D01*
G01X208426D01*
X218313Y68627D01*
G02X220011Y69330I1698J-1699D01*
G01X241178D01*
Y69640D01*
G02X241574Y70836I2002J1D01*
G03X241507Y71385I-320J239D01*
G02X240774Y72934I1269J1548D01*
G01Y78248D01*
G02X242776Y80250I2002J0D01*
G01X256436D01*
G02X258372Y78759I1J-2002D01*
G02X258837Y78793I465J-3168D01*
G02Y72389I0J-3202D01*
G02X258372Y72423I0J3202D01*
G02X258313Y72236I-1936J508D01*
G01X258268Y72116D01*
X261512Y68872D01*
G02X262216Y67174I-1698J-1699D01*
G01Y58064D01*
G02X261512Y56366I-2402J1D01*
G01X257250Y52103D01*
Y48076D01*
G02X256656Y46654I-2002J1D01*
G02X257250Y45230I-1408J-1423D01*
G01Y44783D01*
G02X258145Y44218I-803J-2263D01*
G01X259729Y42634D01*
G02X260432Y40936I-1699J-1698D01*
G01Y29842D01*
G02X259729Y28144I-2402J0D01*
G01X258832Y27247D01*
Y23326D01*
G02X257591Y21474I-2002J0D01*
G03X257483Y21211I76J-185D01*
G02X257642Y20428I-1843J-782D01*
G01Y15006D01*
G02X255640Y13004I-2002J0D01*
G01X243572D01*
G02X241570Y15006I1J2003D01*
G01Y15316D01*
X161992D01*
G02X160294Y16019I0J2402D01*
G01X159423Y16890D01*
X158824D01*
Y16580D01*
G02X156822Y14578I-2003J1D01*
G01X144754D01*
G02X142752Y16580I0J2002D01*
G01Y22002D01*
G02X142916Y22797I2002J1D01*
G02X141954Y24508I1040J1711D01*
G01Y29822D01*
G02X142417Y31102I2002J0D01*
G02X141954Y32382I1539J1280D01*
G01Y37696D01*
G02X142916Y39407I2002J0D01*
G02X142752Y40202I1838J794D01*
G01Y45624D01*
G02X143171Y46850I2002J0D01*
G02X142752Y48076I1583J1226D01*
G01Y53498D01*
G02X143171Y54724I2002J0D01*
G02X142752Y55950I1583J1226D01*
G01Y61372D01*
G02X143149Y62568I2002J-1D01*
G03X143082Y63117I-321J239D01*
G02X142348Y64666I1268J1549D01*
G01Y69980D01*
G02X143303Y71686I2002J0D01*
G03X143375Y71950I-105J170D01*
G02X143146Y72880I1773J930D01*
G01Y78302D01*
G02X145148Y80304I2002J0D01*
G01X148212D01*
X149109Y81200D01*
G02X150807Y81904I1699J-1698D01*
G37*
G54D41*
X293307Y73424D03*
X278346D03*
G54D42*
X290945Y194882D03*
Y214567D03*
G54D40*
X277165Y313386D03*
%LPD*%
G75*
G36*
G01X237663Y60564D02*
X241178D01*
Y56344D01*
G03X241772Y54921I2002J0D01*
G03X241178Y53498I1408J-1423D01*
G01Y48076D01*
G03X241771Y46654I2002J0D01*
G03X241178Y45230I1409J-1422D01*
G01Y39810D01*
G03X241668Y38496I2002J-2D01*
G02X241667Y38233I-151J-131D01*
G03X241168Y36910I1503J-1322D01*
G01Y32520D01*
X223760D01*
X220068Y36211D01*
G02X220145Y36837I283J283D01*
G03X222087Y38890I-2704J4502D01*
G02X222795I354J-186D01*
G03X227441Y36087I4646J2449D01*
G03Y46591I0J5252D01*
G03X226395Y46486I-1J-5252D01*
G02X225920Y46818I-80J392D01*
G03X225255Y48338I-3166J-480D01*
G02X225493Y48980I313J249D01*
G03X226739Y49641I-453J2359D01*
G01X227641Y50542D01*
X227713Y50549D01*
G03X230631Y53467I-272J3190D01*
G01X230638Y53539D01*
X237663Y60564D01*
G37*
G54D10*
X14173Y115748D03*
X37795Y107874D03*
X61417Y115748D03*
Y163779D03*
X253543Y257481D03*
Y305512D03*
X277165Y313386D03*
X300787Y305512D03*
G54D11*
X23622Y23622D03*
Y370079D03*
X291339Y23622D03*
Y370079D03*
G54D20*
X91693Y81890D03*
X111693D03*
X101693D03*
G54D21*
X78740Y298687D03*
Y291078D03*
X134252Y298687D03*
Y291078D03*
X180315Y259975D03*
Y267584D03*
X189370Y298293D03*
Y290684D03*
X212205Y132809D03*
Y140418D03*
Y156431D03*
Y164040D03*
X228740Y198164D03*
Y205773D03*
X222835Y217455D03*
Y225064D03*
X238189Y198164D03*
Y205773D03*
G54D12*
X26378Y53739D03*
Y87992D03*
X38189Y246063D03*
Y255906D03*
Y265748D03*
X93503Y99409D03*
Y117126D03*
X119094Y99409D03*
Y117126D03*
X195865Y99409D03*
Y117126D03*
X221456Y99409D03*
Y117126D03*
X255118Y189172D03*
Y223425D03*
X278346Y73424D03*
Y107677D03*
X293307Y73424D03*
Y107677D03*
G54D30*
X131890Y208858D03*
Y204527D03*
G54D22*
X88977Y301773D03*
Y287203D03*
X114962Y301768D03*
Y287203D03*
X144488Y301773D03*
Y287203D03*
X172441Y251379D03*
Y236809D03*
X170473Y301768D03*
Y287203D03*
X198426Y251374D03*
Y236809D03*
X199606Y301773D03*
Y287203D03*
X225591Y301768D03*
Y287203D03*
G54D31*
X142121Y253543D03*
G54D13*
X24016Y194881D03*
Y214566D03*
X290945Y194882D03*
Y214567D03*
G54D23*
X93189Y341339D03*
X119173Y323228D03*
Y332283D03*
X101299Y341339D03*
X146732Y27165D03*
Y35039D03*
X147126Y67323D03*
X128228Y194882D03*
X136338D03*
X128228Y218110D03*
X136338D03*
X127283Y323228D03*
Y332283D03*
X154842Y27165D03*
Y35039D03*
X155236Y67323D03*
X221378Y326772D03*
X213268D03*
X221378Y335827D03*
X213268D03*
X254055Y25984D03*
X245945D03*
X254055Y34252D03*
X245945D03*
X253661Y75591D03*
X245551D03*
G54D32*
X176501Y26339D03*
Y36339D03*
Y41339D03*
Y46339D03*
Y51339D03*
Y56339D03*
Y31339D03*
X198304Y26339D03*
Y56339D03*
Y51339D03*
Y46339D03*
Y41339D03*
Y36339D03*
Y31339D03*
G54D14*
X23562Y294094D03*
X68889Y248031D03*
X68292Y287203D03*
X43281Y294094D03*
X75338Y85433D03*
X86084Y201731D03*
X83584Y255374D03*
X89213Y342938D03*
X108835Y147835D03*
X119356Y209331D03*
X121756Y199331D03*
X111299Y236041D03*
X107900Y225645D03*
X113799Y238441D03*
X115857Y231572D03*
X104841Y261587D03*
X111299Y253543D03*
X110299Y301768D03*
X105279Y332283D03*
Y350394D03*
X97277Y374409D03*
X145079Y104264D03*
X135670Y111103D03*
X147047Y128195D03*
X148268Y139887D03*
X142677Y157677D03*
X150768D03*
X125846Y167886D03*
X124365Y147835D03*
X132558Y179870D03*
X150680Y181114D03*
X128398Y240841D03*
X125197Y286051D03*
X149288Y287203D03*
X131359Y323228D03*
X134252Y307242D03*
X136971Y338819D03*
X133772Y343739D03*
X159618Y27165D03*
X176919Y84249D03*
X164012Y63354D03*
X168889Y79502D03*
X161650Y99606D03*
X160800Y107800D03*
X152532Y92265D03*
X176162Y136024D03*
X178562Y125794D03*
X159851Y117894D03*
X167599Y163170D03*
X163228Y155709D03*
X159228Y163170D03*
X169438Y159371D03*
X154921Y183514D03*
X162480Y215145D03*
X182513Y41339D03*
X184113Y36339D03*
X179419Y97105D03*
X188262Y98665D03*
X185395Y168280D03*
X191262Y195145D03*
X186462Y219245D03*
X184062Y224372D03*
X197554Y294509D03*
X180315Y280515D03*
X179820Y340172D03*
X190596Y358819D03*
X222754Y46339D03*
X227441Y53739D03*
X209009Y123783D03*
X228740Y186745D03*
X231858Y318819D03*
X228557Y358819D03*
X218162Y368419D03*
X258837Y75591D03*
X257248Y59055D03*
X239389Y156319D03*
X241370Y373819D03*
X262682Y156319D03*
X282877Y146319D03*
G54D15*
X54468Y52559D03*
X44743Y56299D03*
X54468Y60039D03*
X231751Y221260D03*
X241476Y217520D03*
Y225000D03*
G54D24*
X121693Y81890D03*
G54D33*
X217441Y41339D03*
X227441D03*
G54D16*
X53411Y76772D03*
X45802D03*
X53411Y85433D03*
X45802D03*
X53411Y68110D03*
X45802D03*
X55250Y248031D03*
X62859D03*
X87663D03*
X80054D03*
X93440Y332283D03*
Y350394D03*
X101049Y332283D03*
X119424Y341339D03*
X119423Y350394D03*
X101049D03*
X146983Y19291D03*
Y50787D03*
Y42913D03*
Y58661D03*
X147377Y75591D03*
X136088Y186614D03*
X128479D03*
X136088Y226772D03*
X128479D03*
X127033Y341339D03*
X127032Y350394D03*
X154592Y19291D03*
Y50787D03*
Y42913D03*
Y58661D03*
X154986Y75591D03*
X193569Y344882D03*
X185960D03*
X213518D03*
X221127D03*
X253411Y17717D03*
X245802D03*
X253018Y50787D03*
X245409D03*
X253018Y42520D03*
X245409D03*
X253018Y59055D03*
X245409D03*
X253018Y66929D03*
X245409D03*
X263912Y168898D03*
X271521D03*
G54D34*
X235433Y140355D03*
Y159645D03*
G54D25*
X101299Y190945D03*
X111299D03*
X152480D03*
X162480D03*
X203661D03*
X213661D03*
G54D26*
X106299Y248701D03*
Y256811D03*
X125197Y298937D03*
Y290827D03*
X153150Y249095D03*
Y257205D03*
X190157Y267835D03*
Y259725D03*
X180315Y298543D03*
Y290433D03*
X220866Y140669D03*
Y132559D03*
Y163898D03*
Y155788D03*
X235433Y298149D03*
Y290039D03*
G54D35*
X283740Y126378D03*
G54D17*
X63386Y189331D03*
X227165Y236969D03*
G54D27*
X117721Y244488D03*
Y253543D03*
Y262598D03*
G54D36*
X273740Y126378D03*
G54D18*
X63386Y199331D03*
Y209331D03*
Y219331D03*
X227165Y246969D03*
Y256969D03*
Y266969D03*
G54D19*
X63386Y257874D03*
X54725D03*
X88189D03*
X79528D03*
X93308Y374409D03*
X101969D03*
X118898D03*
X127559D03*
X194488Y375984D03*
X185827D03*
X221654D03*
X212993D03*
X286221Y168898D03*
X294882D03*
G54D37*
X289695Y156319D03*
Y151319D03*
Y146319D03*
Y141319D03*
X268573D03*
Y146319D03*
Y151319D03*
Y156319D03*
G54D28*
X135236Y137992D03*
Y136024D03*
Y134055D03*
Y132087D03*
Y130118D03*
Y159646D03*
Y157677D03*
Y155709D03*
Y153740D03*
Y151772D03*
Y149803D03*
Y147835D03*
Y145866D03*
Y143898D03*
Y141929D03*
Y139961D03*
X180512Y130118D03*
Y132087D03*
Y134055D03*
Y136024D03*
Y137992D03*
Y139961D03*
Y141929D03*
Y143898D03*
Y145866D03*
Y147835D03*
Y149803D03*
Y151772D03*
Y153740D03*
Y155709D03*
Y157677D03*
Y159646D03*
G54D38*
G01X24016Y194881D02*
X37795Y181102D01*
Y107874D01*
G01X24016Y214566D02*
X61417Y177165D01*
Y163779D01*
G01X63386Y257874D02*
X60218D01*
X59054Y256710D01*
Y244693D01*
X53780Y239419D01*
X44833D01*
X38189Y246063D01*
G01Y255906D02*
X23562Y270533D01*
G01D02*
Y294094D01*
G01X32443Y255906D02*
X38189D01*
G01D02*
X43935D01*
G01X43281Y265748D02*
X38189D01*
G01X57876Y68110D02*
Y52661D01*
X57774Y52559D01*
X54468D01*
G01Y49176D02*
Y52559D01*
G01D02*
Y55942D01*
G01X50159Y52559D02*
X54468D01*
G01X53411Y68110D02*
X57876D01*
G01D02*
X77913D01*
G01X61417Y115748D02*
X83584Y137915D01*
Y255374D01*
G01X63386Y219331D02*
Y224880D01*
G01X57837Y219331D02*
X63386D01*
G01D02*
X68935D01*
G01X68889Y248031D02*
X62859D01*
G01Y243118D02*
Y248031D01*
G01D02*
Y252944D01*
G01X43281Y265748D02*
Y294094D01*
G01X79528Y257874D02*
Y261534D01*
X75314Y265748D01*
X43281D01*
G01X91693Y81890D02*
X93503Y83700D01*
Y99409D01*
G01X77913Y68110D02*
X91693Y81890D01*
G01Y76735D02*
Y81890D01*
G01D02*
Y87045D01*
G01X86538Y81890D02*
X91693D01*
G01X93503Y99409D02*
Y105155D01*
G01Y99409D02*
X99249D01*
G01X80054Y248031D02*
X68889D01*
G01X80054Y243118D02*
Y248031D01*
G01D02*
Y252944D01*
G01X83584Y255374D02*
Y257774D01*
X83484Y257874D01*
X79528D01*
G01X68292Y287203D02*
X88977D01*
G01X102341D02*
X88977D01*
G01Y283032D02*
Y287203D01*
G01D02*
Y291374D01*
G01X78740Y298687D02*
Y302842D01*
X87240Y311342D01*
X107779D01*
G01X119094Y99409D02*
X123949Y104264D01*
G01X119094Y93663D02*
Y99409D01*
G01D02*
X124840D01*
G01X111299Y236041D02*
Y190945D01*
G01X102341Y287203D02*
Y248802D01*
X102442Y248701D01*
X106299D01*
G01D02*
Y244726D01*
X106537Y244488D01*
X117721D01*
G01D02*
X128304D01*
G01X117721Y262598D02*
X115556D01*
X112190Y265964D01*
X109218D01*
X104841Y261587D01*
G01D02*
Y258269D01*
X106299Y256811D01*
G01X129542Y253543D02*
X117721D01*
G01X111299D02*
X117721D01*
G01X114962Y287203D02*
X102341D01*
G01X123181Y284035D02*
X119508D01*
X116340Y287203D01*
X114962D01*
G01Y283032D02*
Y287203D01*
G01D02*
Y291374D01*
G01X107779Y323228D02*
X119173D01*
G01X129542Y307242D02*
X111879D01*
X107779Y311342D01*
G01D02*
Y323228D01*
G01X101049Y332283D02*
X105279D01*
G01D02*
Y325728D01*
X107779Y323228D01*
G01X119173Y332283D02*
X105279D01*
G01X101299Y341339D02*
X119424D01*
G01D02*
X127348Y333415D01*
Y332283D01*
G01X101049Y350394D02*
X105279D01*
G01D02*
X119423D01*
G01X142612Y42475D02*
Y31167D01*
X146614Y27165D01*
X146732D01*
G01X143050Y42913D02*
Y58661D01*
G01X146983Y42913D02*
X143050D01*
G01D02*
X142612Y42475D01*
G01X147126Y67323D02*
X143050D01*
G01Y58661D02*
Y67323D01*
G01X146983Y58661D02*
X143050D01*
G01Y67323D02*
Y78249D01*
G01D02*
X149050Y84249D01*
X176919D01*
G01X145079Y122244D02*
Y104264D01*
G01X123949D02*
X145079D01*
G01X143110Y122244D02*
Y118543D01*
X135670Y111103D01*
G01X135236Y157677D02*
X142677D01*
G01X148268Y160177D02*
Y139887D01*
G01Y160177D02*
X139417D01*
X138886Y159646D01*
X135236D01*
G01X125846Y167886D02*
X128796D01*
X135236Y161446D01*
Y159646D01*
G01X169438Y159371D02*
X168632Y160177D01*
X148268D01*
G01X132558Y179870D02*
X132283Y180145D01*
G01D02*
Y190945D01*
X136220Y194882D01*
X136338D01*
G01Y213250D02*
Y218110D01*
G01X132304Y240488D02*
Y218169D01*
X132363Y218110D01*
X136338D01*
G01D02*
X141316D01*
G01X128304Y244488D02*
X132304Y240488D01*
G01X142121Y253543D02*
Y245453D01*
X142555Y245019D01*
X153150D01*
G01X129542Y253543D02*
X142121D01*
G01X129542D02*
Y307242D01*
G01X125197Y286051D02*
Y290827D01*
G01X144488Y287203D02*
X149288D01*
G01X125197Y286051D02*
X123181Y284035D01*
G01X151688Y287203D02*
X149288D01*
G01X144488Y283032D02*
Y287203D01*
G01D02*
Y291374D01*
G01X138939Y287203D02*
X144488D01*
G01X134252Y298687D02*
Y307242D01*
G01X127283Y332283D02*
X127348D01*
G01X127283Y323228D02*
X131359D01*
G01D02*
Y328272D01*
X127348Y332283D01*
G01X134252Y307242D02*
X129542D01*
G01X198304Y41339D02*
X192943D01*
X180513Y53769D01*
X170512D01*
X164012Y60269D01*
Y63354D01*
G01X176501Y41339D02*
X182513D01*
G01X194592Y78748D02*
X189091Y84249D01*
X176919D01*
G01X164012Y63354D02*
X160043Y67323D01*
X155236D01*
G01X170669Y122244D02*
Y108625D01*
X161650Y99606D01*
G01X168701Y122244D02*
Y115701D01*
X160800Y107800D01*
G01X170669Y167520D02*
Y163840D01*
X169999Y163170D01*
X167599D01*
G01X172638Y167520D02*
Y162571D01*
X169438Y159371D01*
G01X162480Y190945D02*
Y215145D01*
G01X153150Y249095D02*
Y245019D01*
G01X180315Y267584D02*
X179834D01*
X176289Y264039D01*
Y255055D01*
X177088Y254256D01*
Y248519D01*
X173588Y245019D01*
X153150D01*
G01X167794Y280834D02*
Y251480D01*
X167895Y251379D01*
X172441D01*
G01X153150Y257205D02*
Y280834D01*
G01X170473Y287203D02*
X175120D01*
Y286357D01*
G01D02*
X180315D01*
G01X175120D02*
X169597Y280834D01*
G01X154750Y282434D02*
Y284141D01*
X151688Y287203D01*
G01X167794Y280834D02*
X166194Y282434D01*
X154750D01*
G01X153150Y280834D02*
X154750Y282434D01*
G01X169597Y280834D02*
X167794D01*
G01X170473Y283032D02*
Y287203D01*
G01D02*
Y291374D01*
G01X164924Y287203D02*
X170473D01*
G01X192992Y77148D02*
Y49909D01*
X193992Y48909D01*
X235068D01*
G01X239375Y78748D02*
X194592D01*
G01D02*
X192992Y77148D01*
G01X195865Y99409D02*
Y105155D01*
G01Y99409D02*
X201611D01*
G01X180512Y137992D02*
X184062D01*
X184162Y137892D01*
Y101848D01*
X179419Y97105D01*
G01X198426Y247203D02*
Y251374D01*
G01D02*
X217324D01*
G01X190157Y284135D02*
Y267835D01*
G01X185297D02*
X190157D01*
G01D02*
X195017D01*
G01X198426Y251374D02*
Y255545D01*
G01X192877Y251374D02*
X198426D01*
G01X180315Y280515D02*
Y267584D01*
G01Y290433D02*
Y286357D01*
G01X199606Y287203D02*
X218924D01*
G01X190157Y284135D02*
X182537D01*
G01X199606Y287203D02*
X195225D01*
X192157Y284135D01*
G01X182537D02*
X180315Y286357D01*
G01X192157Y284135D02*
X190157D01*
G01X194959Y294509D02*
X197554D01*
G01X194959D02*
Y326232D01*
X197099Y328372D01*
G01X189370Y298293D02*
Y294864D01*
X189725Y294509D01*
X194959D01*
G01X213268Y326772D02*
X198699D01*
X197099Y328372D01*
G01D02*
Y335827D01*
G01X213518Y344882D02*
X193569D01*
G01X197099Y335827D02*
X213268D01*
G01X193569Y344882D02*
Y339357D01*
X197099Y335827D01*
G01X221456Y93663D02*
Y99409D01*
G01D02*
Y105155D01*
G01X215710Y99409D02*
X221456D01*
G01D02*
X227202D01*
G01X227924Y136299D02*
X224184Y132559D01*
X220866D01*
G01X209009Y123783D02*
X216166D01*
G01X227924Y136299D02*
X237489D01*
X239489Y138299D01*
Y156219D01*
X239389Y156319D01*
G01X216166Y123783D02*
X220866Y128483D01*
Y132559D01*
G01X227924Y148612D02*
Y136299D01*
G01X220866Y155788D02*
Y155670D01*
X227924Y148612D01*
G01X239389Y156319D02*
X239489Y156419D01*
Y171924D01*
X220524Y190889D01*
G01D02*
Y212325D01*
G01X218924Y231695D02*
X215324Y228095D01*
Y217525D01*
X220524Y212325D01*
G01D02*
X221134D01*
G01D02*
X222835Y214026D01*
Y217455D01*
G01X218924Y231695D02*
Y249774D01*
X217324Y251374D01*
G01X240383Y231695D02*
X218924D01*
G01X227165Y266969D02*
X220524D01*
G01D02*
Y283934D01*
G01X217324Y251374D02*
Y263769D01*
X220524Y266969D01*
G01X227165D02*
Y272518D01*
G01Y266969D02*
X232714D01*
G01X225591Y287203D02*
X218924D01*
G01X220524Y283934D02*
X233303D01*
G01X218924Y287203D02*
Y285534D01*
X220524Y283934D01*
G01X225591Y283032D02*
Y287203D01*
G01D02*
Y291374D01*
G01X231858Y321601D02*
X239392D01*
G01X231858Y318819D02*
Y321601D01*
G01D02*
X226687Y326772D01*
G01D02*
X221378D01*
G01X237971Y335827D02*
X221378D01*
G01X235068Y48909D02*
Y41154D01*
G01Y48909D02*
X245214Y59055D01*
X245409D01*
G01X235068Y41154D02*
X241970Y34252D01*
X245945D01*
G01X239375Y78748D02*
Y77792D01*
G01D02*
X241576Y75591D01*
X245551D01*
G01X284383Y82348D02*
X242975D01*
X239375Y78748D01*
G01X253661Y75591D02*
X258837D01*
G01X263912Y168898D02*
Y168417D01*
X259976Y164481D01*
Y145204D01*
X261202Y143978D01*
G01X241476Y217520D02*
X244782D01*
X244883Y217621D01*
Y227195D01*
X240383Y231695D01*
G01X241476Y214137D02*
Y217520D01*
G01D02*
Y220903D01*
G01X253543Y305512D02*
X261762Y297293D01*
Y230069D01*
X255118Y223425D01*
G01X239392Y321601D02*
Y290141D01*
X239290Y290039D01*
X235433D01*
G01X233303Y283934D02*
X235433Y286064D01*
Y290039D01*
G01X239392Y321601D02*
Y334048D01*
X239571Y334227D01*
G01X241370Y373819D02*
Y336026D01*
X239571Y334227D01*
G01D02*
X237971Y335827D01*
G01X293307Y73424D02*
X284383Y82348D01*
G01X287561Y73424D02*
X293307D01*
G01X278346Y107677D02*
X261202Y124821D01*
Y143978D01*
G01X268573Y156319D02*
X262682D01*
G01X268573D02*
Y159761D01*
G01Y156319D02*
X274446D01*
G01X261202Y143978D02*
X263801D01*
X266142Y146319D01*
X268573D01*
G01X293307Y67678D02*
Y73424D01*
G01D02*
Y79170D01*
G01Y73424D02*
X299053D01*
G54D29*
X143110Y122244D03*
X145079D03*
X147047D03*
X149016D03*
Y167520D03*
X147047D03*
X145079D03*
X143110D03*
X150984Y122244D03*
X152953D03*
X154921D03*
X156890D03*
X158858D03*
X160827D03*
X162795D03*
X164764D03*
X166732D03*
X168701D03*
X170669D03*
X172638D03*
Y167520D03*
X170669D03*
X168701D03*
X166732D03*
X164764D03*
X162795D03*
X160827D03*
X158858D03*
X156890D03*
X154921D03*
X152953D03*
X150984D03*
G54D39*
G01X44743Y56299D02*
X34322D01*
G01D02*
X32722Y57899D01*
Y75172D01*
G01X26378Y53739D02*
X31762D01*
X34322Y56299D01*
G01X32722Y75172D02*
X30673D01*
X14173Y91672D01*
Y115748D01*
G01X45802Y76772D02*
X34322D01*
X32722Y75172D01*
G01X54468Y60039D02*
X49963D01*
X45802Y64200D01*
Y68110D01*
G01Y85433D02*
X49231D01*
X49606Y85058D01*
Y68485D01*
X49231Y68110D01*
X45802D01*
G01X53411Y76772D02*
X70084D01*
X86084Y92772D01*
Y201731D01*
G01X53411Y85433D02*
X75338D01*
G01X54725Y257874D02*
Y257382D01*
X51556Y254213D01*
Y252206D01*
X55250Y248512D01*
Y248031D01*
G01X87663D02*
Y248512D01*
X91358Y252207D01*
Y254213D01*
X88189Y257382D01*
Y257874D01*
G01X95124Y301768D02*
X95119Y301773D01*
X88977D01*
G01X78740Y291078D02*
X84434D01*
X95124Y301768D01*
G01X89213Y342938D02*
Y333081D01*
X90011Y332283D01*
X93440D01*
G01X93189Y341339D02*
X91590Y342938D01*
X89213D01*
G01X93440Y350394D02*
Y350875D01*
X90010Y354305D01*
Y370619D01*
X93308Y373917D01*
Y374409D01*
G01X180512Y132087D02*
X144710D01*
X111693Y99070D01*
Y81890D01*
G01X135236Y155709D02*
X131356D01*
X119356Y167709D01*
Y209331D01*
G01X135236Y139961D02*
X127239D01*
X107099Y160101D01*
Y222444D01*
X107900Y223245D01*
Y225645D01*
G01X135236Y137992D02*
X125607D01*
X105499Y158100D01*
Y233941D01*
X109999Y238441D01*
X113799D01*
G01X135236Y149803D02*
X131357D01*
X115857Y165303D01*
Y231572D01*
G01X128398Y240841D02*
X109999D01*
X95499Y226341D01*
Y161171D01*
X108835Y147835D01*
G01X143110Y167520D02*
X140706D01*
X121756Y186470D01*
Y199331D01*
G01X125197Y298937D02*
X110730D01*
X110299Y299368D01*
Y301768D01*
G01D02*
X95124D01*
G01X114962D02*
X110299D01*
G01X118898Y374409D02*
Y362439D01*
X127032Y354305D01*
Y350394D01*
G01X101969Y374409D02*
X97277D01*
G01X146983Y19291D02*
X154842Y27150D01*
Y27165D01*
G01X146732Y35039D02*
X150590Y38897D01*
X151162D01*
G01X146983Y50787D02*
X150412D01*
X150787Y51162D01*
Y62224D01*
X151260Y62697D01*
Y62992D01*
G01X147377Y75591D02*
Y76072D01*
X150807Y79502D01*
X168889D01*
G01X289695Y151319D02*
X294566D01*
Y116780D01*
X267651Y89865D01*
X151516D01*
X149016Y92365D01*
Y122244D01*
G01X147047D02*
Y128195D01*
G01X135236Y147835D02*
X124365D01*
G01X128479Y186614D02*
X128228Y186865D01*
Y194882D01*
G01D02*
X128346D01*
X134744Y201280D01*
Y206004D01*
X131890Y208858D01*
G01X136088Y186614D02*
X145180D01*
X150680Y181114D01*
G01X124252Y218110D02*
Y212165D01*
X131890Y204527D01*
G01X128228Y218110D02*
X124252D01*
G01X128479Y226772D02*
X125050D01*
X124252Y225974D01*
Y218110D01*
G01X136088Y226772D02*
X185362D01*
X188862Y223272D01*
Y158240D01*
X184362Y153740D01*
X180512D01*
G01X150635Y301768D02*
X139945Y291078D01*
X134252D01*
G01X144488Y301773D02*
X150630D01*
X150635Y301768D01*
G01X127033Y341339D02*
X134451D01*
X136971Y338819D01*
G01X127559Y374409D02*
X130727D01*
X133772Y371364D01*
Y343739D01*
G01X176289Y31339D02*
Y26551D01*
X176501Y26339D01*
G01X154842Y35039D02*
X158893D01*
X162018Y31914D01*
Y20891D01*
X160418Y19291D01*
G01D02*
X161992Y17717D01*
X245802D01*
G01X154592Y19291D02*
X160418D01*
G01X159618Y27165D02*
X154842D01*
G01X151162Y38897D02*
X163731D01*
X171289Y31339D01*
X176289D01*
G01X176501D02*
X176289D01*
G01X154592Y50787D02*
Y50306D01*
X150787Y46501D01*
Y39272D01*
X151162Y38897D01*
G01X176501Y51339D02*
X168580D01*
X156927Y62992D01*
X151260D01*
G01X176501Y36339D02*
X184113D01*
G01X154592Y42913D02*
X158021D01*
X161222Y46114D01*
Y46339D01*
G01D02*
X159622Y47939D01*
Y53150D01*
X154592Y58180D01*
Y58661D01*
G01X176501Y46339D02*
X161222D01*
G01X168889Y79502D02*
Y61069D01*
X173619Y56339D01*
X176501D01*
G01X151260Y62992D02*
Y75294D01*
X151557Y75591D01*
X154986D01*
G01X152532Y92265D02*
Y103332D01*
X166732Y117532D01*
Y122244D01*
G01X172638D02*
Y100165D01*
X178138Y94665D01*
X205789D01*
X241789Y130665D01*
Y189844D01*
X238189Y193444D01*
Y198164D01*
G01X180512Y136024D02*
X176162D01*
G01X162795Y122244D02*
Y125794D01*
X178562D01*
G01X164764Y122244D02*
Y118676D01*
X163982Y117894D01*
X159851D01*
G01X180512Y147835D02*
X160610D01*
X150768Y157677D01*
G01X180512Y155709D02*
X163228D01*
G01X164764Y167520D02*
Y163952D01*
X163982Y163170D01*
X159228D01*
G01X162795Y167520D02*
Y175870D01*
X186462Y199537D01*
Y219245D01*
G01X160827Y167520D02*
Y182270D01*
X184062Y205505D01*
Y224372D01*
G01X154921Y167520D02*
Y183514D01*
G01X172441Y236809D02*
X178715D01*
X180315Y238409D01*
G01X170473Y301768D02*
X150635D01*
G01X170473D02*
X171851D01*
X175020Y304937D01*
X179820D01*
G01X198304Y31339D02*
X198516Y31127D01*
Y26339D01*
G01D02*
X203516D01*
X208005Y21850D01*
X241693D01*
X245827Y25984D01*
X245945D01*
G01X198304Y26339D02*
X198516D01*
G01X198304Y36339D02*
X216544D01*
X222765Y30118D01*
X253778D01*
X254055Y30395D01*
Y34252D01*
G01X198304Y56339D02*
X209421D01*
X220011Y66929D01*
X245409D01*
G01X198304Y46339D02*
X222754D01*
G01X198304Y51339D02*
X225041D01*
X227441Y53739D01*
G01X180512Y141929D02*
X184262D01*
X188262Y137929D01*
Y98665D01*
G01X180512Y149803D02*
X187398D01*
X207822Y129379D01*
X215550D01*
X216535Y130364D01*
Y135254D01*
X215176Y136613D01*
X208920D01*
X208294Y137239D01*
Y153001D01*
X211724Y156431D01*
X212205D01*
G01X180512Y151772D02*
X188259D01*
X207222Y132809D01*
X212205D01*
G01X195865Y117126D02*
X221456D01*
G01X180512Y159646D02*
X184062D01*
X185395Y160979D01*
Y168280D01*
G01X191262Y236809D02*
Y195145D01*
G01X198426Y236809D02*
X191262D01*
G01X180315Y255749D02*
Y238409D01*
G01D02*
X189662D01*
X191262Y236809D01*
G01X180315Y259975D02*
Y255749D01*
G01X190157Y259725D02*
Y259607D01*
X186299Y255749D01*
X180315D01*
G01X179820Y304937D02*
X180315Y304442D01*
Y298543D01*
G01X179820Y340172D02*
Y304937D01*
G01X189370Y290684D02*
X197153D01*
X204153Y297684D01*
Y301773D01*
G01D02*
X215802D01*
G01X199606D02*
X204153D01*
G01X185960Y344882D02*
Y345363D01*
X182530Y348793D01*
Y372195D01*
X185827Y375492D01*
Y375984D01*
G01X194488D02*
X191320D01*
X190596Y375260D01*
Y358819D01*
G01X227441Y53739D02*
X236668Y62966D01*
X252965D01*
X253018Y63019D01*
Y66929D01*
G01X212205Y164040D02*
X212686D01*
X216520Y167874D01*
X217008D01*
X220866Y164016D01*
Y163898D01*
G01D02*
Y163780D01*
X235433Y149213D01*
Y140355D01*
G01Y159645D02*
X224004Y171074D01*
X212294D01*
X208294Y167074D01*
Y160861D01*
X208920Y160235D01*
X215176D01*
X216535Y158876D01*
Y145838D01*
X216116Y145419D01*
G01D02*
X213777D01*
X212205Y143847D01*
Y140418D01*
G01X220866Y140669D02*
X217009D01*
X216116Y141562D01*
Y145419D01*
G01X228740Y198164D02*
Y186745D01*
G01X255118Y202343D02*
X241649D01*
X241274Y201968D01*
X233026D01*
X229221Y205773D01*
X228740D01*
G01X231751Y221260D02*
Y218879D01*
X228740Y215868D01*
Y205773D01*
G01X222835Y225064D02*
X233566D01*
X234989Y223641D01*
G01X217402Y304937D02*
X232620D01*
X235433Y302124D01*
Y298149D01*
G01X217402Y304937D02*
Y339119D01*
X218637Y340354D01*
X223726D01*
X228557Y345185D01*
Y358819D01*
G01X215802Y301773D02*
Y303337D01*
X217402Y304937D01*
G01X225591Y301768D02*
X215807D01*
X215802Y301773D01*
G01X212993Y375984D02*
Y360127D01*
X221127Y351993D01*
Y344882D01*
G01X221654Y375984D02*
X218486D01*
X218162Y375660D01*
Y368419D01*
G01X253411Y17717D02*
X245945Y25183D01*
Y25984D01*
G01X254055D02*
X254173D01*
X258031Y29842D01*
Y40936D01*
X256447Y42520D01*
X253018D01*
G01X245409Y50787D02*
Y50129D01*
X253018Y42520D01*
G01X245409D02*
X253677Y34252D01*
X254055D01*
G01X245409Y66929D02*
Y70839D01*
X245830Y71260D01*
X255728D01*
X259814Y67174D01*
Y58064D01*
X253018Y51268D01*
Y50787D01*
G01Y59055D02*
X257248D01*
G01X255118Y202343D02*
Y189172D01*
G01X300787Y305512D02*
Y248012D01*
X255118Y202343D01*
G01X238189Y205773D02*
Y209203D01*
X236589Y210803D01*
Y222041D01*
X234989Y223641D01*
G01D02*
X236348Y225000D01*
X241476D01*
G01X268573Y141319D02*
X273444D01*
X273740Y141023D01*
Y126378D01*
G01X268573Y151319D02*
X273703D01*
X283740Y141282D01*
Y126378D01*
G01X289695Y146319D02*
X282877D01*
G01X286221Y168898D02*
X271521D01*
G01X294882D02*
Y156635D01*
X294566Y156319D01*
X289695D01*
M02*
