G04 ================== begin FILE IDENTIFICATION RECORD ==================*
G04 Layout Name:  SHOWERHOST.brd*
G04 Film Name:    Drill_Drawing*
G04 File Format:  Gerber RS274X*
G04 File Origin:  Cadence Allegro 17.2-S079*
G04 Origin Date:  Thu May 05 20:33:34 2022*
G04 *
G04 Layer:  MANUFACTURING/NCLEGEND-1-2*
G04 Layer:  BOARD GEOMETRY/DESIGN_OUTLINE*
G04 *
G04 Offset:    (0.00 0.00)*
G04 Mirror:    No*
G04 Mode:      Positive*
G04 Rotation:  0*
G04 FullContactRelief:  No*
G04 UndefLineWidth:     6.00*
G04 ================== end FILE IDENTIFICATION RECORD ====================*
%FSLAX25Y25*MOIN*%
%IR0*IPPOS*OFA0.00000B0.00000*MIA0B0*SFA1.00000B1.00000*%
%AMMACRO13*
1,1,.006,-.01968,0.0*
20,1,.006,-.01968,0.0,-.019386,.003418,0.0*
1,1,.006,-.019386,.003418*
20,1,.006,-.019386,.003418,-.018498,.006733,0.0*
1,1,.006,-.018498,.006733*
20,1,.006,-.018498,.006733,-.017048,.009842,0.0*
1,1,.006,-.017048,.009842*
20,1,.006,-.017048,.009842,-.01508,.012653,0.0*
1,1,.006,-.01508,.012653*
20,1,.006,-.01508,.012653,-.012653,.01508,0.0*
1,1,.006,-.012653,.01508*
20,1,.006,-.012653,.01508,-.009843,.017048,0.0*
1,1,.006,-.009843,.017048*
20,1,.006,-.009843,.017048,-.006733,.018498,0.0*
1,1,.006,-.006733,.018498*
20,1,.006,-.006733,.018498,-.003418,.019386,0.0*
1,1,.006,-.003418,.019386*
20,1,.006,-.003418,.019386,0.0,.019685,0.0*
1,1,.006,0.0,.019685*
20,1,.006,0.0,.019685,.003418,.019386,0.0*
1,1,.006,.003418,.019386*
20,1,.006,.003418,.019386,.006733,.018498,0.0*
1,1,.006,.006733,.018498*
20,1,.006,.006733,.018498,.009842,.017048,0.0*
1,1,.006,.009842,.017048*
20,1,.006,.009842,.017048,.012653,.01508,0.0*
1,1,.006,.012653,.01508*
20,1,.006,.012653,.01508,.01508,.012653,0.0*
1,1,.006,.01508,.012653*
20,1,.006,.01508,.012653,.017048,.009843,0.0*
1,1,.006,.017048,.009843*
20,1,.006,.017048,.009843,.018498,.006733,0.0*
1,1,.006,.018498,.006733*
20,1,.006,.018498,.006733,.019386,.003418,0.0*
1,1,.006,.019386,.003418*
20,1,.006,.019386,.003418,.01968,0.0,0.0*
1,1,.006,.01968,0.0*
20,1,.006,.01968,0.0,.019386,-.003418,0.0*
1,1,.006,.019386,-.003418*
20,1,.006,.019386,-.003418,.018498,-.006733,0.0*
1,1,.006,.018498,-.006733*
20,1,.006,.018498,-.006733,.017048,-.009842,0.0*
1,1,.006,.017048,-.009842*
20,1,.006,.017048,-.009842,.01508,-.012653,0.0*
1,1,.006,.01508,-.012653*
20,1,.006,.01508,-.012653,.012653,-.01508,0.0*
1,1,.006,.012653,-.01508*
20,1,.006,.012653,-.01508,.009843,-.017048,0.0*
1,1,.006,.009843,-.017048*
20,1,.006,.009843,-.017048,.006733,-.018498,0.0*
1,1,.006,.006733,-.018498*
20,1,.006,.006733,-.018498,.003418,-.019386,0.0*
1,1,.006,.003418,-.019386*
20,1,.006,.003418,-.019386,0.0,-.019685,0.0*
1,1,.006,0.0,-.019685*
20,1,.006,0.0,-.019685,-.003418,-.019386,0.0*
1,1,.006,-.003418,-.019386*
20,1,.006,-.003418,-.019386,-.006733,-.018498,0.0*
1,1,.006,-.006733,-.018498*
20,1,.006,-.006733,-.018498,-.009842,-.017048,0.0*
1,1,.006,-.009842,-.017048*
20,1,.006,-.009842,-.017048,-.012653,-.01508,0.0*
1,1,.006,-.012653,-.01508*
20,1,.006,-.012653,-.01508,-.01508,-.012653,0.0*
1,1,.006,-.01508,-.012653*
20,1,.006,-.01508,-.012653,-.017048,-.009843,0.0*
1,1,.006,-.017048,-.009843*
20,1,.006,-.017048,-.009843,-.018498,-.006733,0.0*
1,1,.006,-.018498,-.006733*
20,1,.006,-.018498,-.006733,-.019386,-.003418,0.0*
1,1,.006,-.019386,-.003418*
20,1,.006,-.019386,-.003418,-.01968,0.0,0.0*
1,1,.006,-.01968,0.0*
1,1,.006,-.00984,-.00984*
20,1,.006,-.00984,-.00984,-.01246,-.00951,0.0*
1,1,.006,-.01246,-.00951*
20,1,.006,-.01246,-.00951,-.01476,-.0082,0.0*
1,1,.006,-.01476,-.0082*
20,1,.006,-.01476,-.0082,-.01673,-.00623,0.0*
1,1,.006,-.01673,-.00623*
20,1,.006,-.01673,-.00623,-.01804,-.00394,0.0*
1,1,.006,-.01804,-.00394*
20,1,.006,-.01804,-.00394,-.0187,-.00131,0.0*
1,1,.006,-.0187,-.00131*
20,1,.006,-.0187,-.00131,-.0187,.00131,0.0*
1,1,.006,-.0187,.00131*
20,1,.006,-.0187,.00131,-.01804,.00394,0.0*
1,1,.006,-.01804,.00394*
20,1,.006,-.01804,.00394,-.01673,.00623,0.0*
1,1,.006,-.01673,.00623*
20,1,.006,-.01673,.00623,-.01476,.0082,0.0*
1,1,.006,-.01476,.0082*
20,1,.006,-.01476,.0082,-.01246,.00951,0.0*
1,1,.006,-.01246,.00951*
20,1,.006,-.01246,.00951,-.00984,.00984,0.0*
1,1,.006,-.00984,.00984*
20,1,.006,-.00984,.00984,-.00722,.00951,0.0*
1,1,.006,-.00722,.00951*
20,1,.006,-.00722,.00951,-.00492,.0082,0.0*
1,1,.006,-.00492,.0082*
20,1,.006,-.00492,.0082,-.00295,.00623,0.0*
1,1,.006,-.00295,.00623*
20,1,.006,-.00295,.00623,-.00164,.00394,0.0*
1,1,.006,-.00164,.00394*
20,1,.006,-.00164,.00394,-.00098,.00131,0.0*
1,1,.006,-.00098,.00131*
20,1,.006,-.00098,.00131,-.00098,-.00131,0.0*
1,1,.006,-.00098,-.00131*
20,1,.006,-.00098,-.00131,-.00164,-.00394,0.0*
1,1,.006,-.00164,-.00394*
20,1,.006,-.00164,-.00394,-.00295,-.00623,0.0*
1,1,.006,-.00295,-.00623*
20,1,.006,-.00295,-.00623,-.00492,-.0082,0.0*
1,1,.006,-.00492,-.0082*
20,1,.006,-.00492,-.0082,-.00722,-.00951,0.0*
1,1,.006,-.00722,-.00951*
20,1,.006,-.00722,-.00951,-.00984,-.00984,0.0*
1,1,.006,-.00984,-.00984*
1,1,.006,.00362,-.00984*
20,1,.006,.00362,-.00984,.00362,.00984,0.0*
1,1,.006,.00362,.00984*
20,1,.006,.00362,.00984,.01608,.00984,0.0*
1,1,.006,.01608,.00984*
1,1,.006,.01149,.00033*
20,1,.006,.01149,.00033,.00362,.00033,0.0*
1,1,.006,.00362,.00033*
%
%ADD13MACRO13*%
%AMMACRO18*
1,1,.006,-.00984,0.0*
20,1,.006,-.00984,0.0,-.009695,.00171,0.0*
1,1,.006,-.009695,.00171*
20,1,.006,-.009695,.00171,-.009251,.003367,0.0*
1,1,.006,-.009251,.003367*
20,1,.006,-.009251,.003367,-.008526,.004922,0.0*
1,1,.006,-.008526,.004922*
20,1,.006,-.008526,.004922,-.007542,.006328,0.0*
1,1,.006,-.007542,.006328*
20,1,.006,-.007542,.006328,-.006328,.007542,0.0*
1,1,.006,-.006328,.007542*
20,1,.006,-.006328,.007542,-.004923,.008526,0.0*
1,1,.006,-.004923,.008526*
20,1,.006,-.004923,.008526,-.003367,.009251,0.0*
1,1,.006,-.003367,.009251*
20,1,.006,-.003367,.009251,-.00171,.009695,0.0*
1,1,.006,-.00171,.009695*
20,1,.006,-.00171,.009695,0.0,.009845,0.0*
1,1,.006,0.0,.009845*
20,1,.006,0.0,.009845,.00171,.009695,0.0*
1,1,.006,.00171,.009695*
20,1,.006,.00171,.009695,.003367,.009251,0.0*
1,1,.006,.003367,.009251*
20,1,.006,.003367,.009251,.004922,.008526,0.0*
1,1,.006,.004922,.008526*
20,1,.006,.004922,.008526,.006328,.007542,0.0*
1,1,.006,.006328,.007542*
20,1,.006,.006328,.007542,.007542,.006328,0.0*
1,1,.006,.007542,.006328*
20,1,.006,.007542,.006328,.008526,.004923,0.0*
1,1,.006,.008526,.004923*
20,1,.006,.008526,.004923,.009251,.003367,0.0*
1,1,.006,.009251,.003367*
20,1,.006,.009251,.003367,.009695,.00171,0.0*
1,1,.006,.009695,.00171*
20,1,.006,.009695,.00171,.00984,0.0,0.0*
1,1,.006,.00984,0.0*
20,1,.006,.00984,0.0,.009695,-.00171,0.0*
1,1,.006,.009695,-.00171*
20,1,.006,.009695,-.00171,.009251,-.003367,0.0*
1,1,.006,.009251,-.003367*
20,1,.006,.009251,-.003367,.008526,-.004922,0.0*
1,1,.006,.008526,-.004922*
20,1,.006,.008526,-.004922,.007542,-.006328,0.0*
1,1,.006,.007542,-.006328*
20,1,.006,.007542,-.006328,.006328,-.007542,0.0*
1,1,.006,.006328,-.007542*
20,1,.006,.006328,-.007542,.004923,-.008526,0.0*
1,1,.006,.004923,-.008526*
20,1,.006,.004923,-.008526,.003367,-.009251,0.0*
1,1,.006,.003367,-.009251*
20,1,.006,.003367,-.009251,.00171,-.009695,0.0*
1,1,.006,.00171,-.009695*
20,1,.006,.00171,-.009695,0.0,-.009845,0.0*
1,1,.006,0.0,-.009845*
20,1,.006,0.0,-.009845,-.00171,-.009695,0.0*
1,1,.006,-.00171,-.009695*
20,1,.006,-.00171,-.009695,-.003367,-.009251,0.0*
1,1,.006,-.003367,-.009251*
20,1,.006,-.003367,-.009251,-.004922,-.008526,0.0*
1,1,.006,-.004922,-.008526*
20,1,.006,-.004922,-.008526,-.006328,-.007542,0.0*
1,1,.006,-.006328,-.007542*
20,1,.006,-.006328,-.007542,-.007542,-.006328,0.0*
1,1,.006,-.007542,-.006328*
20,1,.006,-.007542,-.006328,-.008526,-.004923,0.0*
1,1,.006,-.008526,-.004923*
20,1,.006,-.008526,-.004923,-.009251,-.003367,0.0*
1,1,.006,-.009251,-.003367*
20,1,.006,-.009251,-.003367,-.009695,-.00171,0.0*
1,1,.006,-.009695,-.00171*
20,1,.006,-.009695,-.00171,-.00984,0.0,0.0*
1,1,.006,-.00984,0.0*
1,1,.006,-.00492,-.00492*
20,1,.006,-.00492,-.00492,-.00623,-.00476,0.0*
1,1,.006,-.00623,-.00476*
20,1,.006,-.00623,-.00476,-.00738,-.0041,0.0*
1,1,.006,-.00738,-.0041*
20,1,.006,-.00738,-.0041,-.00836,-.00312,0.0*
1,1,.006,-.00836,-.00312*
20,1,.006,-.00836,-.00312,-.00902,-.00197,0.0*
1,1,.006,-.00902,-.00197*
20,1,.006,-.00902,-.00197,-.00935,-.00066,0.0*
1,1,.006,-.00935,-.00066*
20,1,.006,-.00935,-.00066,-.00935,.00066,0.0*
1,1,.006,-.00935,.00066*
20,1,.006,-.00935,.00066,-.00902,.00197,0.0*
1,1,.006,-.00902,.00197*
20,1,.006,-.00902,.00197,-.00836,.00312,0.0*
1,1,.006,-.00836,.00312*
20,1,.006,-.00836,.00312,-.00738,.0041,0.0*
1,1,.006,-.00738,.0041*
20,1,.006,-.00738,.0041,-.00623,.00476,0.0*
1,1,.006,-.00623,.00476*
20,1,.006,-.00623,.00476,-.00492,.00492,0.0*
1,1,.006,-.00492,.00492*
20,1,.006,-.00492,.00492,-.00361,.00476,0.0*
1,1,.006,-.00361,.00476*
20,1,.006,-.00361,.00476,-.00246,.0041,0.0*
1,1,.006,-.00246,.0041*
20,1,.006,-.00246,.0041,-.00148,.00312,0.0*
1,1,.006,-.00148,.00312*
20,1,.006,-.00148,.00312,-.00082,.00197,0.0*
1,1,.006,-.00082,.00197*
20,1,.006,-.00082,.00197,-.00049,.00066,0.0*
1,1,.006,-.00049,.00066*
20,1,.006,-.00049,.00066,-.00049,-.00066,0.0*
1,1,.006,-.00049,-.00066*
20,1,.006,-.00049,-.00066,-.00082,-.00197,0.0*
1,1,.006,-.00082,-.00197*
20,1,.006,-.00082,-.00197,-.00148,-.00312,0.0*
1,1,.006,-.00148,-.00312*
20,1,.006,-.00148,-.00312,-.00246,-.0041,0.0*
1,1,.006,-.00246,-.0041*
20,1,.006,-.00246,-.0041,-.00361,-.00476,0.0*
1,1,.006,-.00361,-.00476*
20,1,.006,-.00361,-.00476,-.00492,-.00492,0.0*
1,1,.006,-.00492,-.00492*
1,1,.006,.00083,-.00492*
20,1,.006,.00083,-.00492,.00493,.00492,0.0*
1,1,.006,.00493,.00492*
20,1,.006,.00493,.00492,.00903,-.00492,0.0*
1,1,.006,.00903,-.00492*
1,1,.006,.00755,-.00148*
20,1,.006,.00755,-.00148,.00231,-.00148,0.0*
1,1,.006,.00231,-.00148*
%
%ADD18MACRO18*%
%AMMACRO20*
1,1,.006,.0065,0.0*
20,1,.006,.0065,0.0,-.0065,0.0,0.0*
1,1,.006,-.0065,0.0*
1,1,.006,0.0,.0065*
20,1,.006,0.0,.0065,0.0,-.0065,0.0*
1,1,.006,0.0,-.0065*
%
%ADD20MACRO20*%
%AMMACRO10*
1,1,.006,-.0315,0.0*
20,1,.006,-.0315,0.0,-.031017,.005469,0.0*
1,1,.006,-.031017,.005469*
20,1,.006,-.031017,.005469,-.029596,.010772,0.0*
1,1,.006,-.029596,.010772*
20,1,.006,-.029596,.010772,-.027275,.015747,0.0*
1,1,.006,-.027275,.015747*
20,1,.006,-.027275,.015747,-.024127,.020245,0.0*
1,1,.006,-.024127,.020245*
20,1,.006,-.024127,.020245,-.020245,.024127,0.0*
1,1,.006,-.020245,.024127*
20,1,.006,-.020245,.024127,-.015748,.027275,0.0*
1,1,.006,-.015748,.027275*
20,1,.006,-.015748,.027275,-.010772,.029596,0.0*
1,1,.006,-.010772,.029596*
20,1,.006,-.010772,.029596,-.005469,.031017,0.0*
1,1,.006,-.005469,.031017*
20,1,.006,-.005469,.031017,0.0,.031495,0.0*
1,1,.006,0.0,.031495*
20,1,.006,0.0,.031495,.005469,.031017,0.0*
1,1,.006,.005469,.031017*
20,1,.006,.005469,.031017,.010772,.029596,0.0*
1,1,.006,.010772,.029596*
20,1,.006,.010772,.029596,.015747,.027275,0.0*
1,1,.006,.015747,.027275*
20,1,.006,.015747,.027275,.020245,.024127,0.0*
1,1,.006,.020245,.024127*
20,1,.006,.020245,.024127,.024127,.020245,0.0*
1,1,.006,.024127,.020245*
20,1,.006,.024127,.020245,.027275,.015748,0.0*
1,1,.006,.027275,.015748*
20,1,.006,.027275,.015748,.029596,.010772,0.0*
1,1,.006,.029596,.010772*
20,1,.006,.029596,.010772,.031017,.005469,0.0*
1,1,.006,.031017,.005469*
20,1,.006,.031017,.005469,.0315,0.0,0.0*
1,1,.006,.0315,0.0*
20,1,.006,.0315,0.0,.031017,-.005469,0.0*
1,1,.006,.031017,-.005469*
20,1,.006,.031017,-.005469,.029596,-.010772,0.0*
1,1,.006,.029596,-.010772*
20,1,.006,.029596,-.010772,.027275,-.015747,0.0*
1,1,.006,.027275,-.015747*
20,1,.006,.027275,-.015747,.024127,-.020245,0.0*
1,1,.006,.024127,-.020245*
20,1,.006,.024127,-.020245,.020245,-.024127,0.0*
1,1,.006,.020245,-.024127*
20,1,.006,.020245,-.024127,.015748,-.027275,0.0*
1,1,.006,.015748,-.027275*
20,1,.006,.015748,-.027275,.010772,-.029596,0.0*
1,1,.006,.010772,-.029596*
20,1,.006,.010772,-.029596,.005469,-.031017,0.0*
1,1,.006,.005469,-.031017*
20,1,.006,.005469,-.031017,0.0,-.031495,0.0*
1,1,.006,0.0,-.031495*
20,1,.006,0.0,-.031495,-.005469,-.031017,0.0*
1,1,.006,-.005469,-.031017*
20,1,.006,-.005469,-.031017,-.010772,-.029596,0.0*
1,1,.006,-.010772,-.029596*
20,1,.006,-.010772,-.029596,-.015747,-.027275,0.0*
1,1,.006,-.015747,-.027275*
20,1,.006,-.015747,-.027275,-.020245,-.024127,0.0*
1,1,.006,-.020245,-.024127*
20,1,.006,-.020245,-.024127,-.024127,-.020245,0.0*
1,1,.006,-.024127,-.020245*
20,1,.006,-.024127,-.020245,-.027275,-.015748,0.0*
1,1,.006,-.027275,-.015748*
20,1,.006,-.027275,-.015748,-.029596,-.010772,0.0*
1,1,.006,-.029596,-.010772*
20,1,.006,-.029596,-.010772,-.031017,-.005469,0.0*
1,1,.006,-.031017,-.005469*
20,1,.006,-.031017,-.005469,-.0315,0.0,0.0*
1,1,.006,-.0315,0.0*
1,1,.006,-.01575,-.01574*
20,1,.006,-.01575,-.01574,-.01994,-.01522,0.0*
1,1,.006,-.01994,-.01522*
20,1,.006,-.01994,-.01522,-.02362,-.01312,0.0*
1,1,.006,-.02362,-.01312*
20,1,.006,-.02362,-.01312,-.02677,-.00997,0.0*
1,1,.006,-.02677,-.00997*
20,1,.006,-.02677,-.00997,-.02887,-.00629,0.0*
1,1,.006,-.02887,-.00629*
20,1,.006,-.02887,-.00629,-.02992,-.00209,0.0*
1,1,.006,-.02992,-.00209*
20,1,.006,-.02992,-.00209,-.02992,.0021,0.0*
1,1,.006,-.02992,.0021*
20,1,.006,-.02992,.0021,-.02887,.0063,0.0*
1,1,.006,-.02887,.0063*
20,1,.006,-.02887,.0063,-.02677,.00998,0.0*
1,1,.006,-.02677,.00998*
20,1,.006,-.02677,.00998,-.02362,.01313,0.0*
1,1,.006,-.02362,.01313*
20,1,.006,-.02362,.01313,-.01994,.01523,0.0*
1,1,.006,-.01994,.01523*
20,1,.006,-.01994,.01523,-.01575,.01575,0.0*
1,1,.006,-.01575,.01575*
20,1,.006,-.01575,.01575,-.01155,.01523,0.0*
1,1,.006,-.01155,.01523*
20,1,.006,-.01155,.01523,-.00787,.01313,0.0*
1,1,.006,-.00787,.01313*
20,1,.006,-.00787,.01313,-.00472,.00998,0.0*
1,1,.006,-.00472,.00998*
20,1,.006,-.00472,.00998,-.00262,.0063,0.0*
1,1,.006,-.00262,.0063*
20,1,.006,-.00262,.0063,-.00157,.0021,0.0*
1,1,.006,-.00157,.0021*
20,1,.006,-.00157,.0021,-.00157,-.00209,0.0*
1,1,.006,-.00157,-.00209*
20,1,.006,-.00157,-.00209,-.00262,-.00629,0.0*
1,1,.006,-.00262,-.00629*
20,1,.006,-.00262,-.00629,-.00472,-.00997,0.0*
1,1,.006,-.00472,-.00997*
20,1,.006,-.00472,-.00997,-.00787,-.01312,0.0*
1,1,.006,-.00787,-.01312*
20,1,.006,-.00787,-.01312,-.01155,-.01522,0.0*
1,1,.006,-.01155,-.01522*
20,1,.006,-.01155,-.01522,-.01575,-.01574,0.0*
1,1,.006,-.01575,-.01574*
1,1,.006,.00946,.01575*
20,1,.006,.00946,.01575,.02205,.01575,0.0*
1,1,.006,.02205,.01575*
1,1,.006,.01575,.01575*
20,1,.006,.01575,.01575,.01575,-.01574,0.0*
1,1,.006,.01575,-.01574*
1,1,.006,.00946,-.01574*
20,1,.006,.00946,-.01574,.02205,-.01574,0.0*
1,1,.006,.02205,-.01574*
%
%ADD10MACRO10*%
%AMMACRO19*
1,1,.006,.08071,.08071*
20,1,.006,.08071,.08071,.08071,-.08071,0.0*
1,1,.006,.08071,-.08071*
20,1,.006,.08071,-.08071,-.08071,-.08071,0.0*
1,1,.006,-.08071,-.08071*
20,1,.006,-.08071,-.08071,-.08071,.08071,0.0*
1,1,.006,-.08071,.08071*
20,1,.006,-.08071,.08071,.08071,.08071,0.0*
1,1,.006,.08071,.08071*
%
%ADD19MACRO19*%
%AMMACRO14*
1,1,.006,0.0,.018*
20,1,.006,0.0,.018,.003126,.017727,0.0*
1,1,.006,.003126,.017727*
20,1,.006,.003126,.017727,.006156,.016914,0.0*
1,1,.006,.006156,.016914*
20,1,.006,.006156,.016914,.009,.015588,0.0*
1,1,.006,.009,.015588*
20,1,.006,.009,.015588,.01157,.013789,0.0*
1,1,.006,.01157,.013789*
20,1,.006,.01157,.013789,.013789,.01157,0.0*
1,1,.006,.013789,.01157*
20,1,.006,.013789,.01157,.015588,.009,0.0*
1,1,.006,.015588,.009*
20,1,.006,.015588,.009,.016914,.006156,0.0*
1,1,.006,.016914,.006156*
20,1,.006,.016914,.006156,.017727,.003126,0.0*
1,1,.006,.017727,.003126*
20,1,.006,.017727,.003126,.018,0.0,0.0*
1,1,.006,.018,0.0*
20,1,.006,.018,0.0,.017727,-.003126,0.0*
1,1,.006,.017727,-.003126*
20,1,.006,.017727,-.003126,.016914,-.006156,0.0*
1,1,.006,.016914,-.006156*
20,1,.006,.016914,-.006156,.015588,-.009,0.0*
1,1,.006,.015588,-.009*
20,1,.006,.015588,-.009,.013789,-.01157,0.0*
1,1,.006,.013789,-.01157*
20,1,.006,.013789,-.01157,.01157,-.013789,0.0*
1,1,.006,.01157,-.013789*
20,1,.006,.01157,-.013789,.009,-.015588,0.0*
1,1,.006,.009,-.015588*
20,1,.006,.009,-.015588,.006156,-.016914,0.0*
1,1,.006,.006156,-.016914*
20,1,.006,.006156,-.016914,.003126,-.017727,0.0*
1,1,.006,.003126,-.017727*
20,1,.006,.003126,-.017727,0.0,-.018,0.0*
1,1,.006,0.0,-.018*
20,1,.006,0.0,-.018,-.003126,-.017727,0.0*
1,1,.006,-.003126,-.017727*
20,1,.006,-.003126,-.017727,-.006156,-.016914,0.0*
1,1,.006,-.006156,-.016914*
20,1,.006,-.006156,-.016914,-.009,-.015588,0.0*
1,1,.006,-.009,-.015588*
20,1,.006,-.009,-.015588,-.01157,-.013789,0.0*
1,1,.006,-.01157,-.013789*
20,1,.006,-.01157,-.013789,-.013789,-.01157,0.0*
1,1,.006,-.013789,-.01157*
20,1,.006,-.013789,-.01157,-.015588,-.009,0.0*
1,1,.006,-.015588,-.009*
20,1,.006,-.015588,-.009,-.016914,-.006156,0.0*
1,1,.006,-.016914,-.006156*
20,1,.006,-.016914,-.006156,-.017727,-.003126,0.0*
1,1,.006,-.017727,-.003126*
20,1,.006,-.017727,-.003126,-.018,0.0,0.0*
1,1,.006,-.018,0.0*
20,1,.006,-.018,0.0,-.017727,.003126,0.0*
1,1,.006,-.017727,.003126*
20,1,.006,-.017727,.003126,-.016914,.006156,0.0*
1,1,.006,-.016914,.006156*
20,1,.006,-.016914,.006156,-.015588,.009,0.0*
1,1,.006,-.015588,.009*
20,1,.006,-.015588,.009,-.013789,.01157,0.0*
1,1,.006,-.013789,.01157*
20,1,.006,-.013789,.01157,-.01157,.013789,0.0*
1,1,.006,-.01157,.013789*
20,1,.006,-.01157,.013789,-.009,.015588,0.0*
1,1,.006,-.009,.015588*
20,1,.006,-.009,.015588,-.006156,.016914,0.0*
1,1,.006,-.006156,.016914*
20,1,.006,-.006156,.016914,-.003126,.017727,0.0*
1,1,.006,-.003126,.017727*
20,1,.006,-.003126,.017727,0.0,.018,0.0*
1,1,.006,0.0,.018*
1,1,.006,-.009,-.009*
20,1,.006,-.009,-.009,-.0114,-.0087,0.0*
1,1,.006,-.0114,-.0087*
20,1,.006,-.0114,-.0087,-.0135,-.0075,0.0*
1,1,.006,-.0135,-.0075*
20,1,.006,-.0135,-.0075,-.0153,-.0057,0.0*
1,1,.006,-.0153,-.0057*
20,1,.006,-.0153,-.0057,-.0165,-.0036,0.0*
1,1,.006,-.0165,-.0036*
20,1,.006,-.0165,-.0036,-.0171,-.0012,0.0*
1,1,.006,-.0171,-.0012*
20,1,.006,-.0171,-.0012,-.0171,.0012,0.0*
1,1,.006,-.0171,.0012*
20,1,.006,-.0171,.0012,-.0165,.0036,0.0*
1,1,.006,-.0165,.0036*
20,1,.006,-.0165,.0036,-.0153,.0057,0.0*
1,1,.006,-.0153,.0057*
20,1,.006,-.0153,.0057,-.0135,.0075,0.0*
1,1,.006,-.0135,.0075*
20,1,.006,-.0135,.0075,-.0114,.0087,0.0*
1,1,.006,-.0114,.0087*
20,1,.006,-.0114,.0087,-.009,.009,0.0*
1,1,.006,-.009,.009*
20,1,.006,-.009,.009,-.0066,.0087,0.0*
1,1,.006,-.0066,.0087*
20,1,.006,-.0066,.0087,-.0045,.0075,0.0*
1,1,.006,-.0045,.0075*
20,1,.006,-.0045,.0075,-.0027,.0057,0.0*
1,1,.006,-.0027,.0057*
20,1,.006,-.0027,.0057,-.0015,.0036,0.0*
1,1,.006,-.0015,.0036*
20,1,.006,-.0015,.0036,-.0009,.0012,0.0*
1,1,.006,-.0009,.0012*
20,1,.006,-.0009,.0012,-.0009,-.0012,0.0*
1,1,.006,-.0009,-.0012*
20,1,.006,-.0009,-.0012,-.0015,-.0036,0.0*
1,1,.006,-.0015,-.0036*
20,1,.006,-.0015,-.0036,-.0027,-.0057,0.0*
1,1,.006,-.0027,-.0057*
20,1,.006,-.0027,-.0057,-.0045,-.0075,0.0*
1,1,.006,-.0045,-.0075*
20,1,.006,-.0045,-.0075,-.0066,-.0087,0.0*
1,1,.006,-.0066,-.0087*
20,1,.006,-.0066,-.0087,-.009,-.009,0.0*
1,1,.006,-.009,-.009*
1,1,.006,.00241,-.009*
20,1,.006,.00241,-.009,.00241,.009,0.0*
1,1,.006,.00241,.009*
20,1,.006,.00241,.009,.00841,.009,0.0*
1,1,.006,.00841,.009*
20,1,.006,.00841,.009,.01081,.0081,0.0*
1,1,.006,.01081,.0081*
20,1,.006,.01081,.0081,.01261,.0069,0.0*
1,1,.006,.01261,.0069*
20,1,.006,.01261,.0069,.01411,.0051,0.0*
1,1,.006,.01411,.0051*
20,1,.006,.01411,.0051,.01531,.003,0.0*
1,1,.006,.01531,.003*
20,1,.006,.01531,.003,.01561,0.0,0.0*
1,1,.006,.01561,0.0*
20,1,.006,.01561,0.0,.01531,-.003,0.0*
1,1,.006,.01531,-.003*
20,1,.006,.01531,-.003,.01411,-.0051,0.0*
1,1,.006,.01411,-.0051*
20,1,.006,.01411,-.0051,.01261,-.0069,0.0*
1,1,.006,.01261,-.0069*
20,1,.006,.01261,-.0069,.01081,-.0081,0.0*
1,1,.006,.01081,-.0081*
20,1,.006,.01081,-.0081,.00841,-.009,0.0*
1,1,.006,.00841,-.009*
20,1,.006,.00841,-.009,.00241,-.009,0.0*
1,1,.006,.00241,-.009*
%
%ADD14MACRO14*%
%AMMACRO15*
1,1,.006,0.0,.019*
20,1,.006,0.0,.019,.003299,.018711,0.0*
1,1,.006,.003299,.018711*
20,1,.006,.003299,.018711,.006498,.017854,0.0*
1,1,.006,.006498,.017854*
20,1,.006,.006498,.017854,.0095,.016454,0.0*
1,1,.006,.0095,.016454*
20,1,.006,.0095,.016454,.012213,.014555,0.0*
1,1,.006,.012213,.014555*
20,1,.006,.012213,.014555,.014555,.012213,0.0*
1,1,.006,.014555,.012213*
20,1,.006,.014555,.012213,.016454,.0095,0.0*
1,1,.006,.016454,.0095*
20,1,.006,.016454,.0095,.017854,.006498,0.0*
1,1,.006,.017854,.006498*
20,1,.006,.017854,.006498,.018711,.003299,0.0*
1,1,.006,.018711,.003299*
20,1,.006,.018711,.003299,.019,0.0,0.0*
1,1,.006,.019,0.0*
20,1,.006,.019,0.0,.018711,-.003299,0.0*
1,1,.006,.018711,-.003299*
20,1,.006,.018711,-.003299,.017854,-.006498,0.0*
1,1,.006,.017854,-.006498*
20,1,.006,.017854,-.006498,.016454,-.0095,0.0*
1,1,.006,.016454,-.0095*
20,1,.006,.016454,-.0095,.014555,-.012213,0.0*
1,1,.006,.014555,-.012213*
20,1,.006,.014555,-.012213,.012213,-.014555,0.0*
1,1,.006,.012213,-.014555*
20,1,.006,.012213,-.014555,.0095,-.016454,0.0*
1,1,.006,.0095,-.016454*
20,1,.006,.0095,-.016454,.006498,-.017854,0.0*
1,1,.006,.006498,-.017854*
20,1,.006,.006498,-.017854,.003299,-.018711,0.0*
1,1,.006,.003299,-.018711*
20,1,.006,.003299,-.018711,0.0,-.019,0.0*
1,1,.006,0.0,-.019*
20,1,.006,0.0,-.019,-.003299,-.018711,0.0*
1,1,.006,-.003299,-.018711*
20,1,.006,-.003299,-.018711,-.006498,-.017854,0.0*
1,1,.006,-.006498,-.017854*
20,1,.006,-.006498,-.017854,-.0095,-.016454,0.0*
1,1,.006,-.0095,-.016454*
20,1,.006,-.0095,-.016454,-.012213,-.014555,0.0*
1,1,.006,-.012213,-.014555*
20,1,.006,-.012213,-.014555,-.014555,-.012213,0.0*
1,1,.006,-.014555,-.012213*
20,1,.006,-.014555,-.012213,-.016454,-.0095,0.0*
1,1,.006,-.016454,-.0095*
20,1,.006,-.016454,-.0095,-.017854,-.006498,0.0*
1,1,.006,-.017854,-.006498*
20,1,.006,-.017854,-.006498,-.018711,-.003299,0.0*
1,1,.006,-.018711,-.003299*
20,1,.006,-.018711,-.003299,-.019,0.0,0.0*
1,1,.006,-.019,0.0*
20,1,.006,-.019,0.0,-.018711,.003299,0.0*
1,1,.006,-.018711,.003299*
20,1,.006,-.018711,.003299,-.017854,.006498,0.0*
1,1,.006,-.017854,.006498*
20,1,.006,-.017854,.006498,-.016454,.0095,0.0*
1,1,.006,-.016454,.0095*
20,1,.006,-.016454,.0095,-.014555,.012213,0.0*
1,1,.006,-.014555,.012213*
20,1,.006,-.014555,.012213,-.012213,.014555,0.0*
1,1,.006,-.012213,.014555*
20,1,.006,-.012213,.014555,-.0095,.016454,0.0*
1,1,.006,-.0095,.016454*
20,1,.006,-.0095,.016454,-.006498,.017854,0.0*
1,1,.006,-.006498,.017854*
20,1,.006,-.006498,.017854,-.003299,.018711,0.0*
1,1,.006,-.003299,.018711*
20,1,.006,-.003299,.018711,0.0,.019,0.0*
1,1,.006,0.0,.019*
1,1,.006,-.0095,-.0095*
20,1,.006,-.0095,-.0095,-.01203,-.00918,0.0*
1,1,.006,-.01203,-.00918*
20,1,.006,-.01203,-.00918,-.01425,-.00792,0.0*
1,1,.006,-.01425,-.00792*
20,1,.006,-.01425,-.00792,-.01615,-.00602,0.0*
1,1,.006,-.01615,-.00602*
20,1,.006,-.01615,-.00602,-.01742,-.0038,0.0*
1,1,.006,-.01742,-.0038*
20,1,.006,-.01742,-.0038,-.01805,-.00127,0.0*
1,1,.006,-.01805,-.00127*
20,1,.006,-.01805,-.00127,-.01805,.00127,0.0*
1,1,.006,-.01805,.00127*
20,1,.006,-.01805,.00127,-.01742,.0038,0.0*
1,1,.006,-.01742,.0038*
20,1,.006,-.01742,.0038,-.01615,.00602,0.0*
1,1,.006,-.01615,.00602*
20,1,.006,-.01615,.00602,-.01425,.00792,0.0*
1,1,.006,-.01425,.00792*
20,1,.006,-.01425,.00792,-.01203,.00918,0.0*
1,1,.006,-.01203,.00918*
20,1,.006,-.01203,.00918,-.0095,.0095,0.0*
1,1,.006,-.0095,.0095*
20,1,.006,-.0095,.0095,-.00697,.00918,0.0*
1,1,.006,-.00697,.00918*
20,1,.006,-.00697,.00918,-.00475,.00792,0.0*
1,1,.006,-.00475,.00792*
20,1,.006,-.00475,.00792,-.00285,.00602,0.0*
1,1,.006,-.00285,.00602*
20,1,.006,-.00285,.00602,-.00158,.0038,0.0*
1,1,.006,-.00158,.0038*
20,1,.006,-.00158,.0038,-.00095,.00127,0.0*
1,1,.006,-.00095,.00127*
20,1,.006,-.00095,.00127,-.00095,-.00127,0.0*
1,1,.006,-.00095,-.00127*
20,1,.006,-.00095,-.00127,-.00158,-.0038,0.0*
1,1,.006,-.00158,-.0038*
20,1,.006,-.00158,-.0038,-.00285,-.00602,0.0*
1,1,.006,-.00285,-.00602*
20,1,.006,-.00285,-.00602,-.00475,-.00792,0.0*
1,1,.006,-.00475,-.00792*
20,1,.006,-.00475,-.00792,-.00697,-.00918,0.0*
1,1,.006,-.00697,-.00918*
20,1,.006,-.00697,-.00918,-.0095,-.0095,0.0*
1,1,.006,-.0095,-.0095*
1,1,.006,.01584,-.0095*
20,1,.006,.01584,-.0095,.00318,-.0095,0.0*
1,1,.006,.00318,-.0095*
20,1,.006,.00318,-.0095,.00318,.0095,0.0*
1,1,.006,.00318,.0095*
20,1,.006,.00318,.0095,.01584,.0095,0.0*
1,1,.006,.01584,.0095*
1,1,.006,.01078,.00032*
20,1,.006,.01078,.00032,.00318,.00032,0.0*
1,1,.006,.00318,.00032*
%
%ADD15MACRO15*%
%AMMACRO12*
1,1,.006,-.02166,0.0*
20,1,.006,-.02166,0.0,-.021326,.00376,0.0*
1,1,.006,-.021326,.00376*
20,1,.006,-.021326,.00376,-.020349,.007406,0.0*
1,1,.006,-.020349,.007406*
20,1,.006,-.020349,.007406,-.018754,.010827,0.0*
1,1,.006,-.018754,.010827*
20,1,.006,-.018754,.010827,-.016589,.01392,0.0*
1,1,.006,-.016589,.01392*
20,1,.006,-.016589,.01392,-.01392,.016589,0.0*
1,1,.006,-.01392,.016589*
20,1,.006,-.01392,.016589,-.010828,.018754,0.0*
1,1,.006,-.010828,.018754*
20,1,.006,-.010828,.018754,-.007406,.020349,0.0*
1,1,.006,-.007406,.020349*
20,1,.006,-.007406,.020349,-.00376,.021326,0.0*
1,1,.006,-.00376,.021326*
20,1,.006,-.00376,.021326,0.0,.021655,0.0*
1,1,.006,0.0,.021655*
20,1,.006,0.0,.021655,.00376,.021326,0.0*
1,1,.006,.00376,.021326*
20,1,.006,.00376,.021326,.007406,.020349,0.0*
1,1,.006,.007406,.020349*
20,1,.006,.007406,.020349,.010827,.018754,0.0*
1,1,.006,.010827,.018754*
20,1,.006,.010827,.018754,.01392,.016589,0.0*
1,1,.006,.01392,.016589*
20,1,.006,.01392,.016589,.016589,.01392,0.0*
1,1,.006,.016589,.01392*
20,1,.006,.016589,.01392,.018754,.010828,0.0*
1,1,.006,.018754,.010828*
20,1,.006,.018754,.010828,.020349,.007406,0.0*
1,1,.006,.020349,.007406*
20,1,.006,.020349,.007406,.021326,.00376,0.0*
1,1,.006,.021326,.00376*
20,1,.006,.021326,.00376,.02166,0.0,0.0*
1,1,.006,.02166,0.0*
20,1,.006,.02166,0.0,.021326,-.00376,0.0*
1,1,.006,.021326,-.00376*
20,1,.006,.021326,-.00376,.020349,-.007406,0.0*
1,1,.006,.020349,-.007406*
20,1,.006,.020349,-.007406,.018754,-.010827,0.0*
1,1,.006,.018754,-.010827*
20,1,.006,.018754,-.010827,.016589,-.01392,0.0*
1,1,.006,.016589,-.01392*
20,1,.006,.016589,-.01392,.01392,-.016589,0.0*
1,1,.006,.01392,-.016589*
20,1,.006,.01392,-.016589,.010828,-.018754,0.0*
1,1,.006,.010828,-.018754*
20,1,.006,.010828,-.018754,.007406,-.020349,0.0*
1,1,.006,.007406,-.020349*
20,1,.006,.007406,-.020349,.00376,-.021326,0.0*
1,1,.006,.00376,-.021326*
20,1,.006,.00376,-.021326,0.0,-.021655,0.0*
1,1,.006,0.0,-.021655*
20,1,.006,0.0,-.021655,-.00376,-.021326,0.0*
1,1,.006,-.00376,-.021326*
20,1,.006,-.00376,-.021326,-.007406,-.020349,0.0*
1,1,.006,-.007406,-.020349*
20,1,.006,-.007406,-.020349,-.010827,-.018754,0.0*
1,1,.006,-.010827,-.018754*
20,1,.006,-.010827,-.018754,-.01392,-.016589,0.0*
1,1,.006,-.01392,-.016589*
20,1,.006,-.01392,-.016589,-.016589,-.01392,0.0*
1,1,.006,-.016589,-.01392*
20,1,.006,-.016589,-.01392,-.018754,-.010828,0.0*
1,1,.006,-.018754,-.010828*
20,1,.006,-.018754,-.010828,-.020349,-.007406,0.0*
1,1,.006,-.020349,-.007406*
20,1,.006,-.020349,-.007406,-.021326,-.00376,0.0*
1,1,.006,-.021326,-.00376*
20,1,.006,-.021326,-.00376,-.02166,0.0,0.0*
1,1,.006,-.02166,0.0*
1,1,.006,-.01083,-.01082*
20,1,.006,-.01083,-.01082,-.01371,-.01046,0.0*
1,1,.006,-.01371,-.01046*
20,1,.006,-.01371,-.01046,-.01624,-.00902,0.0*
1,1,.006,-.01624,-.00902*
20,1,.006,-.01624,-.00902,-.0184,-.00685,0.0*
1,1,.006,-.0184,-.00685*
20,1,.006,-.0184,-.00685,-.01985,-.00433,0.0*
1,1,.006,-.01985,-.00433*
20,1,.006,-.01985,-.00433,-.02057,-.00144,0.0*
1,1,.006,-.02057,-.00144*
20,1,.006,-.02057,-.00144,-.02057,.00145,0.0*
1,1,.006,-.02057,.00145*
20,1,.006,-.02057,.00145,-.01985,.00434,0.0*
1,1,.006,-.01985,.00434*
20,1,.006,-.01985,.00434,-.0184,.00686,0.0*
1,1,.006,-.0184,.00686*
20,1,.006,-.0184,.00686,-.01624,.00903,0.0*
1,1,.006,-.01624,.00903*
20,1,.006,-.01624,.00903,-.01371,.01047,0.0*
1,1,.006,-.01371,.01047*
20,1,.006,-.01371,.01047,-.01083,.01083,0.0*
1,1,.006,-.01083,.01083*
20,1,.006,-.01083,.01083,-.00794,.01047,0.0*
1,1,.006,-.00794,.01047*
20,1,.006,-.00794,.01047,-.00541,.00903,0.0*
1,1,.006,-.00541,.00903*
20,1,.006,-.00541,.00903,-.00325,.00686,0.0*
1,1,.006,-.00325,.00686*
20,1,.006,-.00325,.00686,-.0018,.00434,0.0*
1,1,.006,-.0018,.00434*
20,1,.006,-.0018,.00434,-.00108,.00145,0.0*
1,1,.006,-.00108,.00145*
20,1,.006,-.00108,.00145,-.00108,-.00144,0.0*
1,1,.006,-.00108,-.00144*
20,1,.006,-.00108,-.00144,-.0018,-.00433,0.0*
1,1,.006,-.0018,-.00433*
20,1,.006,-.0018,-.00433,-.00325,-.00685,0.0*
1,1,.006,-.00325,-.00685*
20,1,.006,-.00325,-.00685,-.00541,-.00902,0.0*
1,1,.006,-.00541,-.00902*
20,1,.006,-.00541,-.00902,-.00794,-.01046,0.0*
1,1,.006,-.00794,-.01046*
20,1,.006,-.00794,-.01046,-.01083,-.01082,0.0*
1,1,.006,-.01083,-.01082*
1,1,.006,.013,0.0*
20,1,.006,.013,0.0,.02022,0.0,0.0*
1,1,.006,.02022,0.0*
20,1,.006,.02022,0.0,.02022,-.00649,0.0*
1,1,.006,.02022,-.00649*
20,1,.006,.02022,-.00649,.01805,-.00866,0.0*
1,1,.006,.01805,-.00866*
20,1,.006,.01805,-.00866,.01553,-.0101,0.0*
1,1,.006,.01553,-.0101*
20,1,.006,.01553,-.0101,.01192,-.01082,0.0*
1,1,.006,.01192,-.01082*
20,1,.006,.01192,-.01082,.00831,-.0101,0.0*
1,1,.006,.00831,-.0101*
20,1,.006,.00831,-.0101,.00578,-.00866,0.0*
1,1,.006,.00578,-.00866*
20,1,.006,.00578,-.00866,.00362,-.00649,0.0*
1,1,.006,.00362,-.00649*
20,1,.006,.00362,-.00649,.00217,-.00396,0.0*
1,1,.006,.00217,-.00396*
20,1,.006,.00217,-.00396,.00145,-.00108,0.0*
1,1,.006,.00145,-.00108*
20,1,.006,.00145,-.00108,.00145,.00145,0.0*
1,1,.006,.00145,.00145*
20,1,.006,.00145,.00145,.00217,.00361,0.0*
1,1,.006,.00217,.00361*
20,1,.006,.00217,.00361,.00362,.00614,0.0*
1,1,.006,.00362,.00614*
20,1,.006,.00362,.00614,.00578,.0083,0.0*
1,1,.006,.00578,.0083*
20,1,.006,.00578,.0083,.00795,.00975,0.0*
1,1,.006,.00795,.00975*
20,1,.006,.00795,.00975,.01083,.01083,0.0*
1,1,.006,.01083,.01083*
20,1,.006,.01083,.01083,.01336,.01083,0.0*
1,1,.006,.01336,.01083*
20,1,.006,.01336,.01083,.01625,.01011,0.0*
1,1,.006,.01625,.01011*
20,1,.006,.01625,.01011,.01841,.00866,0.0*
1,1,.006,.01841,.00866*
%
%ADD12MACRO12*%
%AMMACRO16*
1,1,.006,0.0,.017715*
20,1,.006,0.0,.017715,.003076,.017446,0.0*
1,1,.006,.003076,.017446*
20,1,.006,.003076,.017446,.006059,.016647,0.0*
1,1,.006,.006059,.016647*
20,1,.006,.006059,.016647,.008857,.015342,0.0*
1,1,.006,.008857,.015342*
20,1,.006,.008857,.015342,.011387,.01357,0.0*
1,1,.006,.011387,.01357*
20,1,.006,.011387,.01357,.01357,.011387,0.0*
1,1,.006,.01357,.011387*
20,1,.006,.01357,.011387,.015342,.008858,0.0*
1,1,.006,.015342,.008858*
20,1,.006,.015342,.008858,.016647,.006059,0.0*
1,1,.006,.016647,.006059*
20,1,.006,.016647,.006059,.017446,.003076,0.0*
1,1,.006,.017446,.003076*
20,1,.006,.017446,.003076,.017715,0.0,0.0*
1,1,.006,.017715,0.0*
20,1,.006,.017715,0.0,.017446,-.003076,0.0*
1,1,.006,.017446,-.003076*
20,1,.006,.017446,-.003076,.016647,-.006059,0.0*
1,1,.006,.016647,-.006059*
20,1,.006,.016647,-.006059,.015342,-.008857,0.0*
1,1,.006,.015342,-.008857*
20,1,.006,.015342,-.008857,.01357,-.011387,0.0*
1,1,.006,.01357,-.011387*
20,1,.006,.01357,-.011387,.011387,-.01357,0.0*
1,1,.006,.011387,-.01357*
20,1,.006,.011387,-.01357,.008858,-.015342,0.0*
1,1,.006,.008858,-.015342*
20,1,.006,.008858,-.015342,.006059,-.016647,0.0*
1,1,.006,.006059,-.016647*
20,1,.006,.006059,-.016647,.003076,-.017446,0.0*
1,1,.006,.003076,-.017446*
20,1,.006,.003076,-.017446,0.0,-.017715,0.0*
1,1,.006,0.0,-.017715*
20,1,.006,0.0,-.017715,-.003076,-.017446,0.0*
1,1,.006,-.003076,-.017446*
20,1,.006,-.003076,-.017446,-.006059,-.016647,0.0*
1,1,.006,-.006059,-.016647*
20,1,.006,-.006059,-.016647,-.008857,-.015342,0.0*
1,1,.006,-.008857,-.015342*
20,1,.006,-.008857,-.015342,-.011387,-.01357,0.0*
1,1,.006,-.011387,-.01357*
20,1,.006,-.011387,-.01357,-.01357,-.011387,0.0*
1,1,.006,-.01357,-.011387*
20,1,.006,-.01357,-.011387,-.015342,-.008858,0.0*
1,1,.006,-.015342,-.008858*
20,1,.006,-.015342,-.008858,-.016647,-.006059,0.0*
1,1,.006,-.016647,-.006059*
20,1,.006,-.016647,-.006059,-.017446,-.003076,0.0*
1,1,.006,-.017446,-.003076*
20,1,.006,-.017446,-.003076,-.017715,0.0,0.0*
1,1,.006,-.017715,0.0*
20,1,.006,-.017715,0.0,-.017446,.003076,0.0*
1,1,.006,-.017446,.003076*
20,1,.006,-.017446,.003076,-.016647,.006059,0.0*
1,1,.006,-.016647,.006059*
20,1,.006,-.016647,.006059,-.015342,.008857,0.0*
1,1,.006,-.015342,.008857*
20,1,.006,-.015342,.008857,-.01357,.011387,0.0*
1,1,.006,-.01357,.011387*
20,1,.006,-.01357,.011387,-.011387,.01357,0.0*
1,1,.006,-.011387,.01357*
20,1,.006,-.011387,.01357,-.008858,.015342,0.0*
1,1,.006,-.008858,.015342*
20,1,.006,-.008858,.015342,-.006059,.016647,0.0*
1,1,.006,-.006059,.016647*
20,1,.006,-.006059,.016647,-.003076,.017446,0.0*
1,1,.006,-.003076,.017446*
20,1,.006,-.003076,.017446,0.0,.017715,0.0*
1,1,.006,0.0,.017715*
1,1,.006,-.00886,-.00885*
20,1,.006,-.00886,-.00885,-.01122,-.00855,0.0*
1,1,.006,-.01122,-.00855*
20,1,.006,-.01122,-.00855,-.01328,-.00737,0.0*
1,1,.006,-.01328,-.00737*
20,1,.006,-.01328,-.00737,-.01505,-.0056,0.0*
1,1,.006,-.01505,-.0056*
20,1,.006,-.01505,-.0056,-.01623,-.00354,0.0*
1,1,.006,-.01623,-.00354*
20,1,.006,-.01623,-.00354,-.01682,-.00118,0.0*
1,1,.006,-.01682,-.00118*
20,1,.006,-.01682,-.00118,-.01682,.00119,0.0*
1,1,.006,-.01682,.00119*
20,1,.006,-.01682,.00119,-.01623,.00355,0.0*
1,1,.006,-.01623,.00355*
20,1,.006,-.01623,.00355,-.01505,.00561,0.0*
1,1,.006,-.01505,.00561*
20,1,.006,-.01505,.00561,-.01328,.00738,0.0*
1,1,.006,-.01328,.00738*
20,1,.006,-.01328,.00738,-.01122,.00856,0.0*
1,1,.006,-.01122,.00856*
20,1,.006,-.01122,.00856,-.00886,.00886,0.0*
1,1,.006,-.00886,.00886*
20,1,.006,-.00886,.00886,-.00649,.00856,0.0*
1,1,.006,-.00649,.00856*
20,1,.006,-.00649,.00856,-.00443,.00738,0.0*
1,1,.006,-.00443,.00738*
20,1,.006,-.00443,.00738,-.00266,.00561,0.0*
1,1,.006,-.00266,.00561*
20,1,.006,-.00266,.00561,-.00148,.00355,0.0*
1,1,.006,-.00148,.00355*
20,1,.006,-.00148,.00355,-.00089,.00119,0.0*
1,1,.006,-.00089,.00119*
20,1,.006,-.00089,.00119,-.00089,-.00118,0.0*
1,1,.006,-.00089,-.00118*
20,1,.006,-.00089,-.00118,-.00148,-.00354,0.0*
1,1,.006,-.00148,-.00354*
20,1,.006,-.00148,-.00354,-.00266,-.0056,0.0*
1,1,.006,-.00266,-.0056*
20,1,.006,-.00266,-.0056,-.00443,-.00737,0.0*
1,1,.006,-.00443,-.00737*
20,1,.006,-.00443,-.00737,-.00649,-.00855,0.0*
1,1,.006,-.00649,-.00855*
20,1,.006,-.00649,-.00855,-.00886,-.00885,0.0*
1,1,.006,-.00886,-.00885*
1,1,.006,.01536,.00738*
20,1,.006,.01536,.00738,.01359,.00827,0.0*
1,1,.006,.01359,.00827*
20,1,.006,.01359,.00827,.01152,.00886,0.0*
1,1,.006,.01152,.00886*
20,1,.006,.01152,.00886,.00916,.00886,0.0*
1,1,.006,.00916,.00886*
20,1,.006,.00916,.00886,.0065,.00797,0.0*
1,1,.006,.0065,.00797*
20,1,.006,.0065,.00797,.00444,.0065,0.0*
1,1,.006,.00444,.0065*
20,1,.006,.00444,.0065,.00296,.00473,0.0*
1,1,.006,.00296,.00473*
20,1,.006,.00296,.00473,.00178,.00178,0.0*
1,1,.006,.00178,.00178*
20,1,.006,.00178,.00178,.00149,-.00088,0.0*
1,1,.006,.00149,-.00088*
20,1,.006,.00149,-.00088,.00208,-.00354,0.0*
1,1,.006,.00208,-.00354*
20,1,.006,.00208,-.00354,.00296,-.00531,0.0*
1,1,.006,.00296,-.00531*
20,1,.006,.00296,-.00531,.00473,-.00708,0.0*
1,1,.006,.00473,-.00708*
20,1,.006,.00473,-.00708,.0068,-.00826,0.0*
1,1,.006,.0068,-.00826*
20,1,.006,.0068,-.00826,.00886,-.00885,0.0*
1,1,.006,.00886,-.00885*
20,1,.006,.00886,-.00885,.01093,-.00885,0.0*
1,1,.006,.01093,-.00885*
20,1,.006,.01093,-.00885,.013,-.00826,0.0*
1,1,.006,.013,-.00826*
20,1,.006,.013,-.00826,.01477,-.00737,0.0*
1,1,.006,.01477,-.00737*
20,1,.006,.01477,-.00737,.01624,-.00619,0.0*
1,1,.006,.01624,-.00619*
%
%ADD16MACRO16*%
%AMMACRO17*
1,1,.006,-.01378,0.0*
20,1,.006,-.01378,0.0,-.013571,.002393,0.0*
1,1,.006,-.013571,.002393*
20,1,.006,-.013571,.002393,-.012949,.004713,0.0*
1,1,.006,-.012949,.004713*
20,1,.006,-.012949,.004713,-.011934,.00689,0.0*
1,1,.006,-.011934,.00689*
20,1,.006,-.011934,.00689,-.010556,.008858,0.0*
1,1,.006,-.010556,.008858*
20,1,.006,-.010556,.008858,-.008858,.010556,0.0*
1,1,.006,-.008858,.010556*
20,1,.006,-.008858,.010556,-.00689,.011934,0.0*
1,1,.006,-.00689,.011934*
20,1,.006,-.00689,.011934,-.004713,.012949,0.0*
1,1,.006,-.004713,.012949*
20,1,.006,-.004713,.012949,-.002393,.013571,0.0*
1,1,.006,-.002393,.013571*
20,1,.006,-.002393,.013571,0.0,.01378,0.0*
1,1,.006,0.0,.01378*
20,1,.006,0.0,.01378,.002393,.013571,0.0*
1,1,.006,.002393,.013571*
20,1,.006,.002393,.013571,.004713,.012949,0.0*
1,1,.006,.004713,.012949*
20,1,.006,.004713,.012949,.00689,.011934,0.0*
1,1,.006,.00689,.011934*
20,1,.006,.00689,.011934,.008858,.010556,0.0*
1,1,.006,.008858,.010556*
20,1,.006,.008858,.010556,.010556,.008858,0.0*
1,1,.006,.010556,.008858*
20,1,.006,.010556,.008858,.011934,.00689,0.0*
1,1,.006,.011934,.00689*
20,1,.006,.011934,.00689,.012949,.004713,0.0*
1,1,.006,.012949,.004713*
20,1,.006,.012949,.004713,.013571,.002393,0.0*
1,1,.006,.013571,.002393*
20,1,.006,.013571,.002393,.01378,0.0,0.0*
1,1,.006,.01378,0.0*
20,1,.006,.01378,0.0,.013571,-.002393,0.0*
1,1,.006,.013571,-.002393*
20,1,.006,.013571,-.002393,.012949,-.004713,0.0*
1,1,.006,.012949,-.004713*
20,1,.006,.012949,-.004713,.011934,-.00689,0.0*
1,1,.006,.011934,-.00689*
20,1,.006,.011934,-.00689,.010556,-.008858,0.0*
1,1,.006,.010556,-.008858*
20,1,.006,.010556,-.008858,.008858,-.010556,0.0*
1,1,.006,.008858,-.010556*
20,1,.006,.008858,-.010556,.00689,-.011934,0.0*
1,1,.006,.00689,-.011934*
20,1,.006,.00689,-.011934,.004713,-.012949,0.0*
1,1,.006,.004713,-.012949*
20,1,.006,.004713,-.012949,.002393,-.013571,0.0*
1,1,.006,.002393,-.013571*
20,1,.006,.002393,-.013571,0.0,-.01378,0.0*
1,1,.006,0.0,-.01378*
20,1,.006,0.0,-.01378,-.002393,-.013571,0.0*
1,1,.006,-.002393,-.013571*
20,1,.006,-.002393,-.013571,-.004713,-.012949,0.0*
1,1,.006,-.004713,-.012949*
20,1,.006,-.004713,-.012949,-.00689,-.011934,0.0*
1,1,.006,-.00689,-.011934*
20,1,.006,-.00689,-.011934,-.008858,-.010556,0.0*
1,1,.006,-.008858,-.010556*
20,1,.006,-.008858,-.010556,-.010556,-.008858,0.0*
1,1,.006,-.010556,-.008858*
20,1,.006,-.010556,-.008858,-.011934,-.00689,0.0*
1,1,.006,-.011934,-.00689*
20,1,.006,-.011934,-.00689,-.012949,-.004713,0.0*
1,1,.006,-.012949,-.004713*
20,1,.006,-.012949,-.004713,-.013571,-.002393,0.0*
1,1,.006,-.013571,-.002393*
20,1,.006,-.013571,-.002393,-.01378,0.0,0.0*
1,1,.006,-.01378,0.0*
1,1,.006,-.00689,-.00689*
20,1,.006,-.00689,-.00689,-.00873,-.00666,0.0*
1,1,.006,-.00873,-.00666*
20,1,.006,-.00873,-.00666,-.01033,-.00574,0.0*
1,1,.006,-.01033,-.00574*
20,1,.006,-.01033,-.00574,-.01171,-.00436,0.0*
1,1,.006,-.01171,-.00436*
20,1,.006,-.01171,-.00436,-.01263,-.00276,0.0*
1,1,.006,-.01263,-.00276*
20,1,.006,-.01263,-.00276,-.01309,-.00092,0.0*
1,1,.006,-.01309,-.00092*
20,1,.006,-.01309,-.00092,-.01309,.00092,0.0*
1,1,.006,-.01309,.00092*
20,1,.006,-.01309,.00092,-.01263,.00276,0.0*
1,1,.006,-.01263,.00276*
20,1,.006,-.01263,.00276,-.01171,.00436,0.0*
1,1,.006,-.01171,.00436*
20,1,.006,-.01171,.00436,-.01033,.00574,0.0*
1,1,.006,-.01033,.00574*
20,1,.006,-.01033,.00574,-.00873,.00666,0.0*
1,1,.006,-.00873,.00666*
20,1,.006,-.00873,.00666,-.00689,.00689,0.0*
1,1,.006,-.00689,.00689*
20,1,.006,-.00689,.00689,-.00505,.00666,0.0*
1,1,.006,-.00505,.00666*
20,1,.006,-.00505,.00666,-.00345,.00574,0.0*
1,1,.006,-.00345,.00574*
20,1,.006,-.00345,.00574,-.00207,.00436,0.0*
1,1,.006,-.00207,.00436*
20,1,.006,-.00207,.00436,-.00115,.00276,0.0*
1,1,.006,-.00115,.00276*
20,1,.006,-.00115,.00276,-.00069,.00092,0.0*
1,1,.006,-.00069,.00092*
20,1,.006,-.00069,.00092,-.00069,-.00092,0.0*
1,1,.006,-.00069,-.00092*
20,1,.006,-.00069,-.00092,-.00115,-.00276,0.0*
1,1,.006,-.00115,-.00276*
20,1,.006,-.00115,-.00276,-.00207,-.00436,0.0*
1,1,.006,-.00207,-.00436*
20,1,.006,-.00207,-.00436,-.00345,-.00574,0.0*
1,1,.006,-.00345,-.00574*
20,1,.006,-.00345,-.00574,-.00505,-.00666,0.0*
1,1,.006,-.00505,-.00666*
20,1,.006,-.00505,-.00666,-.00689,-.00689,0.0*
1,1,.006,-.00689,-.00689*
1,1,.006,.00874,.00046*
20,1,.006,.00874,.00046,.00966,.00115,0.0*
1,1,.006,.00966,.00115*
20,1,.006,.00966,.00115,.01034,.0023,0.0*
1,1,.006,.01034,.0023*
20,1,.006,.01034,.0023,.0108,.0039,0.0*
1,1,.006,.0108,.0039*
20,1,.006,.0108,.0039,.01034,.00528,0.0*
1,1,.006,.01034,.00528*
20,1,.006,.01034,.00528,.00943,.0062,0.0*
1,1,.006,.00943,.0062*
20,1,.006,.00943,.0062,.00782,.00689,0.0*
1,1,.006,.00782,.00689*
20,1,.006,.00782,.00689,.00162,.00689,0.0*
1,1,.006,.00162,.00689*
20,1,.006,.00162,.00689,.00162,-.00689,0.0*
1,1,.006,.00162,-.00689*
20,1,.006,.00162,-.00689,.0092,-.00689,0.0*
1,1,.006,.0092,-.00689*
20,1,.006,.0092,-.00689,.0108,-.00597,0.0*
1,1,.006,.0108,-.00597*
20,1,.006,.0108,-.00597,.01172,-.00459,0.0*
1,1,.006,.01172,-.00459*
20,1,.006,.01172,-.00459,.01218,-.00299,0.0*
1,1,.006,.01218,-.00299*
20,1,.006,.01218,-.00299,.01172,-.00138,0.0*
1,1,.006,.01172,-.00138*
20,1,.006,.01172,-.00138,.01034,0.0,0.0*
1,1,.006,.01034,0.0*
20,1,.006,.01034,0.0,.00874,.00046,0.0*
1,1,.006,.00874,.00046*
20,1,.006,.00874,.00046,.00162,.00046,0.0*
1,1,.006,.00162,.00046*
%
%ADD17MACRO17*%
%AMMACRO11*
1,1,.006,0.0,.02362*
20,1,.006,0.0,.02362,.004102,.023261,0.0*
1,1,.006,.004102,.023261*
20,1,.006,.004102,.023261,.008079,.022196,0.0*
1,1,.006,.008079,.022196*
20,1,.006,.008079,.022196,.01181,.020456,0.0*
1,1,.006,.01181,.020456*
20,1,.006,.01181,.020456,.015183,.018094,0.0*
1,1,.006,.015183,.018094*
20,1,.006,.015183,.018094,.018094,.015183,0.0*
1,1,.006,.018094,.015183*
20,1,.006,.018094,.015183,.020456,.01181,0.0*
1,1,.006,.020456,.01181*
20,1,.006,.020456,.01181,.022196,.008079,0.0*
1,1,.006,.022196,.008079*
20,1,.006,.022196,.008079,.023261,.004102,0.0*
1,1,.006,.023261,.004102*
20,1,.006,.023261,.004102,.02362,0.0,0.0*
1,1,.006,.02362,0.0*
20,1,.006,.02362,0.0,.023261,-.004102,0.0*
1,1,.006,.023261,-.004102*
20,1,.006,.023261,-.004102,.022196,-.008079,0.0*
1,1,.006,.022196,-.008079*
20,1,.006,.022196,-.008079,.020456,-.01181,0.0*
1,1,.006,.020456,-.01181*
20,1,.006,.020456,-.01181,.018094,-.015183,0.0*
1,1,.006,.018094,-.015183*
20,1,.006,.018094,-.015183,.015183,-.018094,0.0*
1,1,.006,.015183,-.018094*
20,1,.006,.015183,-.018094,.01181,-.020456,0.0*
1,1,.006,.01181,-.020456*
20,1,.006,.01181,-.020456,.008079,-.022196,0.0*
1,1,.006,.008079,-.022196*
20,1,.006,.008079,-.022196,.004102,-.023261,0.0*
1,1,.006,.004102,-.023261*
20,1,.006,.004102,-.023261,0.0,-.02362,0.0*
1,1,.006,0.0,-.02362*
20,1,.006,0.0,-.02362,-.004102,-.023261,0.0*
1,1,.006,-.004102,-.023261*
20,1,.006,-.004102,-.023261,-.008079,-.022196,0.0*
1,1,.006,-.008079,-.022196*
20,1,.006,-.008079,-.022196,-.01181,-.020456,0.0*
1,1,.006,-.01181,-.020456*
20,1,.006,-.01181,-.020456,-.015183,-.018094,0.0*
1,1,.006,-.015183,-.018094*
20,1,.006,-.015183,-.018094,-.018094,-.015183,0.0*
1,1,.006,-.018094,-.015183*
20,1,.006,-.018094,-.015183,-.020456,-.01181,0.0*
1,1,.006,-.020456,-.01181*
20,1,.006,-.020456,-.01181,-.022196,-.008079,0.0*
1,1,.006,-.022196,-.008079*
20,1,.006,-.022196,-.008079,-.023261,-.004102,0.0*
1,1,.006,-.023261,-.004102*
20,1,.006,-.023261,-.004102,-.02362,0.0,0.0*
1,1,.006,-.02362,0.0*
20,1,.006,-.02362,0.0,-.023261,.004102,0.0*
1,1,.006,-.023261,.004102*
20,1,.006,-.023261,.004102,-.022196,.008079,0.0*
1,1,.006,-.022196,.008079*
20,1,.006,-.022196,.008079,-.020456,.01181,0.0*
1,1,.006,-.020456,.01181*
20,1,.006,-.020456,.01181,-.018094,.015183,0.0*
1,1,.006,-.018094,.015183*
20,1,.006,-.018094,.015183,-.015183,.018094,0.0*
1,1,.006,-.015183,.018094*
20,1,.006,-.015183,.018094,-.01181,.020456,0.0*
1,1,.006,-.01181,.020456*
20,1,.006,-.01181,.020456,-.008079,.022196,0.0*
1,1,.006,-.008079,.022196*
20,1,.006,-.008079,.022196,-.004102,.023261,0.0*
1,1,.006,-.004102,.023261*
20,1,.006,-.004102,.023261,0.0,.02362,0.0*
1,1,.006,0.0,.02362*
1,1,.006,-.01181,-.01181*
20,1,.006,-.01181,-.01181,-.01496,-.01142,0.0*
1,1,.006,-.01496,-.01142*
20,1,.006,-.01496,-.01142,-.01771,-.00984,0.0*
1,1,.006,-.01771,-.00984*
20,1,.006,-.01771,-.00984,-.02008,-.00748,0.0*
1,1,.006,-.02008,-.00748*
20,1,.006,-.02008,-.00748,-.02165,-.00472,0.0*
1,1,.006,-.02165,-.00472*
20,1,.006,-.02165,-.00472,-.02244,-.00157,0.0*
1,1,.006,-.02244,-.00157*
20,1,.006,-.02244,-.00157,-.02244,.00157,0.0*
1,1,.006,-.02244,.00157*
20,1,.006,-.02244,.00157,-.02165,.00472,0.0*
1,1,.006,-.02165,.00472*
20,1,.006,-.02165,.00472,-.02008,.00748,0.0*
1,1,.006,-.02008,.00748*
20,1,.006,-.02008,.00748,-.01771,.00984,0.0*
1,1,.006,-.01771,.00984*
20,1,.006,-.01771,.00984,-.01496,.01142,0.0*
1,1,.006,-.01496,.01142*
20,1,.006,-.01496,.01142,-.01181,.01181,0.0*
1,1,.006,-.01181,.01181*
20,1,.006,-.01181,.01181,-.00866,.01142,0.0*
1,1,.006,-.00866,.01142*
20,1,.006,-.00866,.01142,-.00591,.00984,0.0*
1,1,.006,-.00591,.00984*
20,1,.006,-.00591,.00984,-.00354,.00748,0.0*
1,1,.006,-.00354,.00748*
20,1,.006,-.00354,.00748,-.00197,.00472,0.0*
1,1,.006,-.00197,.00472*
20,1,.006,-.00197,.00472,-.00118,.00157,0.0*
1,1,.006,-.00118,.00157*
20,1,.006,-.00118,.00157,-.00118,-.00157,0.0*
1,1,.006,-.00118,-.00157*
20,1,.006,-.00118,-.00157,-.00197,-.00472,0.0*
1,1,.006,-.00197,-.00472*
20,1,.006,-.00197,-.00472,-.00354,-.00748,0.0*
1,1,.006,-.00354,-.00748*
20,1,.006,-.00354,-.00748,-.00591,-.00984,0.0*
1,1,.006,-.00591,-.00984*
20,1,.006,-.00591,-.00984,-.00866,-.01142,0.0*
1,1,.006,-.00866,-.01142*
20,1,.006,-.00866,-.01142,-.01181,-.01181,0.0*
1,1,.006,-.01181,-.01181*
1,1,.006,.00355,-.01181*
20,1,.006,.00355,-.01181,.00355,.01181,0.0*
1,1,.006,.00355,.01181*
1,1,.006,.02009,.01181*
20,1,.006,.02009,.01181,.02009,-.01181,0.0*
1,1,.006,.02009,-.01181*
1,1,.006,.02009,0.0*
20,1,.006,.02009,0.0,.00355,0.0,0.0*
1,1,.006,.00355,0.0*
%
%ADD11MACRO11*%
%ADD21C,.006*%
G75*
%LPD*%
G75*
G54D10*
X-128050Y-343500D03*
X14173Y115748D03*
X37795Y107874D03*
X24016Y194881D03*
Y214566D03*
X61417Y115748D03*
Y163779D03*
X253543Y257481D03*
Y305512D03*
X290945Y194882D03*
Y214567D03*
X277165Y313386D03*
X300787Y305512D03*
G54D11*
X-128050Y-318500D03*
X93503Y99409D03*
Y117126D03*
X119094Y99409D03*
Y117126D03*
X195865Y99409D03*
Y117126D03*
X221456Y99409D03*
Y117126D03*
X283740Y126378D03*
X273740D03*
G54D20*
X-128050Y-93500D03*
X23562Y294094D03*
X68889Y248031D03*
X68292Y287203D03*
X43281Y294094D03*
X75338Y85433D03*
X86084Y201731D03*
X83584Y255374D03*
X89213Y342938D03*
X108835Y147835D03*
X119356Y209331D03*
X121756Y199331D03*
X111299Y236041D03*
X107900Y225645D03*
X113799Y238441D03*
X115857Y231572D03*
X104841Y261587D03*
X111299Y253543D03*
X110299Y301768D03*
X105279Y332283D03*
Y350394D03*
X97277Y374409D03*
X145079Y104264D03*
X135670Y111103D03*
X147047Y128195D03*
X148268Y139887D03*
X142677Y157677D03*
X150768D03*
X125846Y167886D03*
X124365Y147835D03*
X132558Y179870D03*
X150680Y181114D03*
X128398Y240841D03*
X125197Y286051D03*
X149288Y287203D03*
X131359Y323228D03*
X134252Y307242D03*
X136971Y338819D03*
X133772Y343739D03*
X159618Y27165D03*
X176919Y84249D03*
X164012Y63354D03*
X168889Y79502D03*
X161650Y99606D03*
X160800Y107800D03*
X152532Y92265D03*
X176162Y136024D03*
X178562Y125794D03*
X159851Y117894D03*
X167599Y163170D03*
X163228Y155709D03*
X159228Y163170D03*
X169438Y159371D03*
X154921Y183514D03*
X162480Y215145D03*
X182513Y41339D03*
X184113Y36339D03*
X179419Y97105D03*
X188262Y98665D03*
X185395Y168280D03*
X191262Y195145D03*
X186462Y219245D03*
X184062Y224372D03*
X197554Y294509D03*
X180315Y280515D03*
X179820Y340172D03*
X190596Y358819D03*
X222754Y46339D03*
X227441Y53739D03*
X209009Y123783D03*
X228740Y186745D03*
X231858Y318819D03*
X228557Y358819D03*
X218162Y368419D03*
X258837Y75591D03*
X257248Y59055D03*
X239389Y156319D03*
X241370Y373819D03*
X262682Y156319D03*
X282877Y146319D03*
G54D21*
G01X-173000Y-356000D02*
Y-6000D01*
X450100D01*
Y-356000D01*
X-173000D01*
G01Y-331000D02*
X450100D01*
G01X-173000Y-306000D02*
X450100D01*
G01X-173000Y-281000D02*
X450100D01*
G01X-173000Y-256000D02*
X450100D01*
G01X-173000Y-231000D02*
X450100D01*
G01X-173000Y-206000D02*
X450100D01*
G01X-173000Y-181000D02*
X450100D01*
G01X-173000Y-156000D02*
X450100D01*
G01X-173000Y-131000D02*
X450100D01*
G01X-173000Y-106000D02*
X450100D01*
G01X-161995Y-74750D02*
Y-62250D01*
X-156105D01*
G01X-158275Y-68292D02*
X-161995D01*
G01X-148510Y-62250D02*
X-144790D01*
G01X-146650D02*
Y-74750D01*
G01X-148510D02*
X-144790D01*
G01X-133320Y-68500D02*
X-130220D01*
Y-72250D01*
X-131150Y-73500D01*
X-132235Y-74333D01*
X-133785Y-74750D01*
X-135335Y-74333D01*
X-136420Y-73500D01*
X-137350Y-72250D01*
X-137970Y-70792D01*
X-138280Y-69125D01*
Y-67667D01*
X-137970Y-66417D01*
X-137350Y-64958D01*
X-136420Y-63708D01*
X-135490Y-62875D01*
X-134250Y-62250D01*
X-133165D01*
X-131925Y-62667D01*
X-130995Y-63500D01*
G01X-125260Y-62250D02*
Y-71208D01*
X-124640Y-73084D01*
X-123400Y-74333D01*
X-121850Y-74750D01*
X-120300Y-74333D01*
X-119060Y-73084D01*
X-118440Y-71208D01*
Y-62250D01*
G01X-112550Y-74750D02*
Y-62250D01*
X-108675D01*
X-107435Y-62875D01*
X-106660Y-63708D01*
X-106350Y-65375D01*
X-106660Y-67042D01*
X-107590Y-68083D01*
X-108675Y-68708D01*
X-112550D01*
G01X-108675D02*
X-106350Y-74750D01*
G01X-93950D02*
X-100150D01*
Y-62250D01*
X-93950D01*
G01X-96430Y-68292D02*
X-100150D01*
G01X-173000Y-56000D02*
X450100D01*
G01X-173000Y-81000D02*
X450100D01*
G01X-173000Y-31000D02*
X450100D01*
G01X-83100Y-56000D02*
Y-356000D01*
G01X-47295Y-344542D02*
X-46210Y-343083D01*
X-45280Y-342250D01*
X-44040Y-341833D01*
X-42955Y-342250D01*
X-42180Y-343083D01*
X-41560Y-344333D01*
X-41405Y-345792D01*
X-41560Y-347042D01*
X-42180Y-348292D01*
X-43110Y-349333D01*
X-44195Y-349750D01*
X-45435Y-349333D01*
X-46520Y-348084D01*
X-47140Y-346208D01*
X-47295Y-344125D01*
X-46985Y-341417D01*
X-46520Y-339958D01*
X-45745Y-338500D01*
X-44660Y-337458D01*
X-43575Y-337250D01*
X-42490Y-337667D01*
X-41715Y-338708D01*
G01X-34895Y-339333D02*
X-33965Y-338084D01*
X-32880Y-337458D01*
X-31640Y-337250D01*
X-30090Y-337667D01*
X-29005Y-338708D01*
X-28695Y-339958D01*
X-28850Y-341209D01*
X-29470Y-342250D01*
X-32570Y-344333D01*
X-33965Y-345792D01*
X-34895Y-347875D01*
X-35205Y-349750D01*
X-28695D01*
G01X-19550Y-350167D02*
X-19860Y-349958D01*
Y-349542D01*
X-19550Y-349333D01*
X-19240Y-349542D01*
Y-349958D01*
X-19550Y-350167D01*
G01X-9785Y-348292D02*
X-8700Y-349333D01*
X-7460Y-349750D01*
X-6220Y-349333D01*
X-5135Y-348084D01*
X-4360Y-346208D01*
X-4050Y-344333D01*
Y-342042D01*
X-4360Y-340167D01*
X-5135Y-338500D01*
X-6065Y-337667D01*
X-7150Y-337250D01*
X-8390Y-337667D01*
X-9320Y-338500D01*
X-9940Y-339750D01*
X-10250Y-341417D01*
X-9940Y-342875D01*
X-9165Y-344333D01*
X-8235Y-345167D01*
X-7150Y-345375D01*
X-5910Y-344959D01*
X-4980Y-343917D01*
X-4050Y-342042D01*
G01X2615Y-348292D02*
X3700Y-349333D01*
X4940Y-349750D01*
X6180Y-349333D01*
X7265Y-348084D01*
X8040Y-346208D01*
X8350Y-344333D01*
Y-342042D01*
X8040Y-340167D01*
X7265Y-338500D01*
X6335Y-337667D01*
X5250Y-337250D01*
X4010Y-337667D01*
X3080Y-338500D01*
X2460Y-339750D01*
X2150Y-341417D01*
X2460Y-342875D01*
X3235Y-344333D01*
X4165Y-345167D01*
X5250Y-345375D01*
X6490Y-344959D01*
X7420Y-343917D01*
X8350Y-342042D01*
G01X15325Y-341417D02*
X19975Y-349750D01*
G01Y-341417D02*
X15325Y-349750D01*
G01X27105Y-344542D02*
X28190Y-343083D01*
X29120Y-342250D01*
X30360Y-341833D01*
X31445Y-342250D01*
X32220Y-343083D01*
X32840Y-344333D01*
X32995Y-345792D01*
X32840Y-347042D01*
X32220Y-348292D01*
X31290Y-349333D01*
X30205Y-349750D01*
X28965Y-349333D01*
X27880Y-348084D01*
X27260Y-346208D01*
X27105Y-344125D01*
X27415Y-341417D01*
X27880Y-339958D01*
X28655Y-338500D01*
X29740Y-337458D01*
X30825Y-337250D01*
X31910Y-337667D01*
X32685Y-338708D01*
G01X39505Y-339333D02*
X40435Y-338084D01*
X41520Y-337458D01*
X42760Y-337250D01*
X44310Y-337667D01*
X45395Y-338708D01*
X45705Y-339958D01*
X45550Y-341209D01*
X44930Y-342250D01*
X41830Y-344333D01*
X40435Y-345792D01*
X39505Y-347875D01*
X39195Y-349750D01*
X45705D01*
G01X54850Y-350167D02*
X54540Y-349958D01*
Y-349542D01*
X54850Y-349333D01*
X55160Y-349542D01*
Y-349958D01*
X54850Y-350167D01*
G01X64615Y-348292D02*
X65700Y-349333D01*
X66940Y-349750D01*
X68180Y-349333D01*
X69265Y-348084D01*
X70040Y-346208D01*
X70350Y-344333D01*
Y-342042D01*
X70040Y-340167D01*
X69265Y-338500D01*
X68335Y-337667D01*
X67250Y-337250D01*
X66010Y-337667D01*
X65080Y-338500D01*
X64460Y-339750D01*
X64150Y-341417D01*
X64460Y-342875D01*
X65235Y-344333D01*
X66165Y-345167D01*
X67250Y-345375D01*
X68490Y-344959D01*
X69420Y-343917D01*
X70350Y-342042D01*
G01X77015Y-348292D02*
X78100Y-349333D01*
X79340Y-349750D01*
X80580Y-349333D01*
X81665Y-348084D01*
X82440Y-346208D01*
X82750Y-344333D01*
Y-342042D01*
X82440Y-340167D01*
X81665Y-338500D01*
X80735Y-337667D01*
X79650Y-337250D01*
X78410Y-337667D01*
X77480Y-338500D01*
X76860Y-339750D01*
X76550Y-341417D01*
X76860Y-342875D01*
X77635Y-344333D01*
X78565Y-345167D01*
X79650Y-345375D01*
X80890Y-344959D01*
X81820Y-343917D01*
X82750Y-342042D01*
G01X-42490Y-299750D02*
Y-287250D01*
X-48225Y-296208D01*
X-40475D01*
G01X-35360Y-297250D02*
X-34430Y-298709D01*
X-33190Y-299542D01*
X-31795Y-299750D01*
X-30555Y-299542D01*
X-29315Y-298500D01*
X-28540Y-297250D01*
X-28385Y-296000D01*
X-28695Y-294542D01*
X-29780Y-293500D01*
X-30865Y-293083D01*
X-32260D01*
G01X-30865D02*
X-29935Y-292458D01*
X-29160Y-291417D01*
X-28850Y-290167D01*
X-29160Y-288917D01*
X-29935Y-287875D01*
X-31330Y-287250D01*
X-32725Y-287458D01*
X-34120Y-288292D01*
G01X-19550Y-300167D02*
X-19860Y-299958D01*
Y-299542D01*
X-19550Y-299333D01*
X-19240Y-299542D01*
Y-299958D01*
X-19550Y-300167D01*
G01X-10560Y-297250D02*
X-9630Y-298709D01*
X-8390Y-299542D01*
X-6995Y-299750D01*
X-5755Y-299542D01*
X-4515Y-298500D01*
X-3740Y-297250D01*
X-3585Y-296000D01*
X-3895Y-294542D01*
X-4980Y-293500D01*
X-6065Y-293083D01*
X-7460D01*
G01X-6065D02*
X-5135Y-292458D01*
X-4360Y-291417D01*
X-4050Y-290167D01*
X-4360Y-288917D01*
X-5135Y-287875D01*
X-6530Y-287250D01*
X-7925Y-287458D01*
X-9320Y-288292D01*
G01X5250Y-299750D02*
Y-287250D01*
X3390Y-289750D01*
G01Y-299750D02*
X7110D01*
G01X15325Y-291417D02*
X19975Y-299750D01*
G01Y-291417D02*
X15325Y-299750D01*
G01X31910D02*
Y-287250D01*
X26175Y-296208D01*
X33925D01*
G01X39040Y-297250D02*
X39970Y-298709D01*
X41210Y-299542D01*
X42605Y-299750D01*
X43845Y-299542D01*
X45085Y-298500D01*
X45860Y-297250D01*
X46015Y-296000D01*
X45705Y-294542D01*
X44620Y-293500D01*
X43535Y-293083D01*
X42140D01*
G01X43535D02*
X44465Y-292458D01*
X45240Y-291417D01*
X45550Y-290167D01*
X45240Y-288917D01*
X44465Y-287875D01*
X43070Y-287250D01*
X41675Y-287458D01*
X40280Y-288292D01*
G01X54850Y-300167D02*
X54540Y-299958D01*
Y-299542D01*
X54850Y-299333D01*
X55160Y-299542D01*
Y-299958D01*
X54850Y-300167D01*
G01X63840Y-297250D02*
X64770Y-298709D01*
X66010Y-299542D01*
X67405Y-299750D01*
X68645Y-299542D01*
X69885Y-298500D01*
X70660Y-297250D01*
X70815Y-296000D01*
X70505Y-294542D01*
X69420Y-293500D01*
X68335Y-293083D01*
X66940D01*
G01X68335D02*
X69265Y-292458D01*
X70040Y-291417D01*
X70350Y-290167D01*
X70040Y-288917D01*
X69265Y-287875D01*
X67870Y-287250D01*
X66475Y-287458D01*
X65080Y-288292D01*
G01X79650Y-299750D02*
Y-287250D01*
X77790Y-289750D01*
G01Y-299750D02*
X81510D01*
G01X-42490Y-324750D02*
Y-312250D01*
X-48225Y-321208D01*
X-40475D01*
G01X-32260Y-324750D02*
X-31950Y-322042D01*
X-31485Y-319750D01*
X-30865Y-317667D01*
X-30090Y-315375D01*
X-28850Y-312250D01*
X-35050D01*
G01X-19550Y-325167D02*
X-19860Y-324958D01*
Y-324542D01*
X-19550Y-324333D01*
X-19240Y-324542D01*
Y-324958D01*
X-19550Y-325167D01*
G01X-10095Y-314333D02*
X-9165Y-313084D01*
X-8080Y-312458D01*
X-6840Y-312250D01*
X-5290Y-312667D01*
X-4205Y-313708D01*
X-3895Y-314958D01*
X-4050Y-316209D01*
X-4670Y-317250D01*
X-7770Y-319333D01*
X-9165Y-320792D01*
X-10095Y-322875D01*
X-10405Y-324750D01*
X-3895D01*
G01X7110D02*
Y-312250D01*
X1375Y-321208D01*
X9125D01*
G01X15325Y-316417D02*
X19975Y-324750D01*
G01Y-316417D02*
X15325Y-324750D01*
G01X31910D02*
Y-312250D01*
X26175Y-321208D01*
X33925D01*
G01X42140Y-324750D02*
X42450Y-322042D01*
X42915Y-319750D01*
X43535Y-317667D01*
X44310Y-315375D01*
X45550Y-312250D01*
X39350D01*
G01X54850Y-325167D02*
X54540Y-324958D01*
Y-324542D01*
X54850Y-324333D01*
X55160Y-324542D01*
Y-324958D01*
X54850Y-325167D01*
G01X64305Y-314333D02*
X65235Y-313084D01*
X66320Y-312458D01*
X67560Y-312250D01*
X69110Y-312667D01*
X70195Y-313708D01*
X70505Y-314958D01*
X70350Y-316209D01*
X69730Y-317250D01*
X66630Y-319333D01*
X65235Y-320792D01*
X64305Y-322875D01*
X63995Y-324750D01*
X70505D01*
G01X81510D02*
Y-312250D01*
X75775Y-321208D01*
X83525D01*
G01X-47760Y-272250D02*
X-46830Y-273709D01*
X-45590Y-274542D01*
X-44195Y-274750D01*
X-42955Y-274542D01*
X-41715Y-273500D01*
X-40940Y-272250D01*
X-40785Y-271000D01*
X-41095Y-269542D01*
X-42180Y-268500D01*
X-43265Y-268083D01*
X-44660D01*
G01X-43265D02*
X-42335Y-267458D01*
X-41560Y-266417D01*
X-41250Y-265167D01*
X-41560Y-263917D01*
X-42335Y-262875D01*
X-43730Y-262250D01*
X-45125Y-262458D01*
X-46520Y-263292D01*
G01X-34585Y-273292D02*
X-33500Y-274333D01*
X-32260Y-274750D01*
X-31020Y-274333D01*
X-29935Y-273084D01*
X-29160Y-271208D01*
X-28850Y-269333D01*
Y-267042D01*
X-29160Y-265167D01*
X-29935Y-263500D01*
X-30865Y-262667D01*
X-31950Y-262250D01*
X-33190Y-262667D01*
X-34120Y-263500D01*
X-34740Y-264750D01*
X-35050Y-266417D01*
X-34740Y-267875D01*
X-33965Y-269333D01*
X-33035Y-270167D01*
X-31950Y-270375D01*
X-30710Y-269959D01*
X-29780Y-268917D01*
X-28850Y-267042D01*
G01X-19550Y-275167D02*
X-19860Y-274958D01*
Y-274542D01*
X-19550Y-274333D01*
X-19240Y-274542D01*
Y-274958D01*
X-19550Y-275167D01*
G01X-10560Y-272250D02*
X-9630Y-273709D01*
X-8390Y-274542D01*
X-6995Y-274750D01*
X-5755Y-274542D01*
X-4515Y-273500D01*
X-3740Y-272250D01*
X-3585Y-271000D01*
X-3895Y-269542D01*
X-4980Y-268500D01*
X-6065Y-268083D01*
X-7460D01*
G01X-6065D02*
X-5135Y-267458D01*
X-4360Y-266417D01*
X-4050Y-265167D01*
X-4360Y-263917D01*
X-5135Y-262875D01*
X-6530Y-262250D01*
X-7925Y-262458D01*
X-9320Y-263292D01*
G01X4940Y-274750D02*
X5250Y-272042D01*
X5715Y-269750D01*
X6335Y-267667D01*
X7110Y-265375D01*
X8350Y-262250D01*
X2150D01*
G01X15325Y-266417D02*
X19975Y-274750D01*
G01Y-266417D02*
X15325Y-274750D01*
G01X26640Y-272250D02*
X27570Y-273709D01*
X28810Y-274542D01*
X30205Y-274750D01*
X31445Y-274542D01*
X32685Y-273500D01*
X33460Y-272250D01*
X33615Y-271000D01*
X33305Y-269542D01*
X32220Y-268500D01*
X31135Y-268083D01*
X29740D01*
G01X31135D02*
X32065Y-267458D01*
X32840Y-266417D01*
X33150Y-265167D01*
X32840Y-263917D01*
X32065Y-262875D01*
X30670Y-262250D01*
X29275Y-262458D01*
X27880Y-263292D01*
G01X39815Y-273292D02*
X40900Y-274333D01*
X42140Y-274750D01*
X43380Y-274333D01*
X44465Y-273084D01*
X45240Y-271208D01*
X45550Y-269333D01*
Y-267042D01*
X45240Y-265167D01*
X44465Y-263500D01*
X43535Y-262667D01*
X42450Y-262250D01*
X41210Y-262667D01*
X40280Y-263500D01*
X39660Y-264750D01*
X39350Y-266417D01*
X39660Y-267875D01*
X40435Y-269333D01*
X41365Y-270167D01*
X42450Y-270375D01*
X43690Y-269959D01*
X44620Y-268917D01*
X45550Y-267042D01*
G01X54850Y-275167D02*
X54540Y-274958D01*
Y-274542D01*
X54850Y-274333D01*
X55160Y-274542D01*
Y-274958D01*
X54850Y-275167D01*
G01X63840Y-272250D02*
X64770Y-273709D01*
X66010Y-274542D01*
X67405Y-274750D01*
X68645Y-274542D01*
X69885Y-273500D01*
X70660Y-272250D01*
X70815Y-271000D01*
X70505Y-269542D01*
X69420Y-268500D01*
X68335Y-268083D01*
X66940D01*
G01X68335D02*
X69265Y-267458D01*
X70040Y-266417D01*
X70350Y-265167D01*
X70040Y-263917D01*
X69265Y-262875D01*
X67870Y-262250D01*
X66475Y-262458D01*
X65080Y-263292D01*
G01X79340Y-274750D02*
X79650Y-272042D01*
X80115Y-269750D01*
X80735Y-267667D01*
X81510Y-265375D01*
X82750Y-262250D01*
X76550D01*
G01X-47760Y-197250D02*
X-46830Y-198709D01*
X-45590Y-199542D01*
X-44195Y-199750D01*
X-42955Y-199542D01*
X-41715Y-198500D01*
X-40940Y-197250D01*
X-40785Y-196000D01*
X-41095Y-194542D01*
X-42180Y-193500D01*
X-43265Y-193083D01*
X-44660D01*
G01X-43265D02*
X-42335Y-192458D01*
X-41560Y-191417D01*
X-41250Y-190167D01*
X-41560Y-188917D01*
X-42335Y-187875D01*
X-43730Y-187250D01*
X-45125Y-187458D01*
X-46520Y-188292D01*
G01X-35360Y-197875D02*
X-34430Y-198917D01*
X-33345Y-199542D01*
X-31950Y-199750D01*
X-30555Y-199333D01*
X-29470Y-198500D01*
X-28695Y-197042D01*
X-28540Y-195375D01*
X-28850Y-193708D01*
X-29625Y-192667D01*
X-30710Y-191833D01*
X-31795Y-191625D01*
X-32880Y-191833D01*
X-34275Y-192667D01*
X-33810Y-187250D01*
X-29625D01*
G01X-19550Y-200167D02*
X-19860Y-199958D01*
Y-199542D01*
X-19550Y-199333D01*
X-19240Y-199542D01*
Y-199958D01*
X-19550Y-200167D01*
G01X-5290Y-199750D02*
Y-187250D01*
X-11025Y-196208D01*
X-3275D01*
G01X1840Y-197250D02*
X2770Y-198709D01*
X4010Y-199542D01*
X5405Y-199750D01*
X6645Y-199542D01*
X7885Y-198500D01*
X8660Y-197250D01*
X8815Y-196000D01*
X8505Y-194542D01*
X7420Y-193500D01*
X6335Y-193083D01*
X4940D01*
G01X6335D02*
X7265Y-192458D01*
X8040Y-191417D01*
X8350Y-190167D01*
X8040Y-188917D01*
X7265Y-187875D01*
X5870Y-187250D01*
X4475Y-187458D01*
X3080Y-188292D01*
G01X15325Y-191417D02*
X19975Y-199750D01*
G01Y-191417D02*
X15325Y-199750D01*
G01X26640Y-197250D02*
X27570Y-198709D01*
X28810Y-199542D01*
X30205Y-199750D01*
X31445Y-199542D01*
X32685Y-198500D01*
X33460Y-197250D01*
X33615Y-196000D01*
X33305Y-194542D01*
X32220Y-193500D01*
X31135Y-193083D01*
X29740D01*
G01X31135D02*
X32065Y-192458D01*
X32840Y-191417D01*
X33150Y-190167D01*
X32840Y-188917D01*
X32065Y-187875D01*
X30670Y-187250D01*
X29275Y-187458D01*
X27880Y-188292D01*
G01X39040Y-197875D02*
X39970Y-198917D01*
X41055Y-199542D01*
X42450Y-199750D01*
X43845Y-199333D01*
X44930Y-198500D01*
X45705Y-197042D01*
X45860Y-195375D01*
X45550Y-193708D01*
X44775Y-192667D01*
X43690Y-191833D01*
X42605Y-191625D01*
X41520Y-191833D01*
X40125Y-192667D01*
X40590Y-187250D01*
X44775D01*
G01X54850Y-200167D02*
X54540Y-199958D01*
Y-199542D01*
X54850Y-199333D01*
X55160Y-199542D01*
Y-199958D01*
X54850Y-200167D01*
G01X69110Y-199750D02*
Y-187250D01*
X63375Y-196208D01*
X71125D01*
G01X76240Y-197250D02*
X77170Y-198709D01*
X78410Y-199542D01*
X79805Y-199750D01*
X81045Y-199542D01*
X82285Y-198500D01*
X83060Y-197250D01*
X83215Y-196000D01*
X82905Y-194542D01*
X81820Y-193500D01*
X80735Y-193083D01*
X79340D01*
G01X80735D02*
X81665Y-192458D01*
X82440Y-191417D01*
X82750Y-190167D01*
X82440Y-188917D01*
X81665Y-187875D01*
X80270Y-187250D01*
X78875Y-187458D01*
X77480Y-188292D01*
G01X-47295Y-164333D02*
X-46365Y-163084D01*
X-45280Y-162458D01*
X-44040Y-162250D01*
X-42490Y-162667D01*
X-41405Y-163708D01*
X-41095Y-164958D01*
X-41250Y-166209D01*
X-41870Y-167250D01*
X-44970Y-169333D01*
X-46365Y-170792D01*
X-47295Y-172875D01*
X-47605Y-174750D01*
X-41095D01*
G01X-32260D02*
X-31950Y-172042D01*
X-31485Y-169750D01*
X-30865Y-167667D01*
X-30090Y-165375D01*
X-28850Y-162250D01*
X-35050D01*
G01X-19550Y-175167D02*
X-19860Y-174958D01*
Y-174542D01*
X-19550Y-174333D01*
X-19240Y-174542D01*
Y-174958D01*
X-19550Y-175167D01*
G01X-10560Y-172875D02*
X-9630Y-173917D01*
X-8545Y-174542D01*
X-7150Y-174750D01*
X-5755Y-174333D01*
X-4670Y-173500D01*
X-3895Y-172042D01*
X-3740Y-170375D01*
X-4050Y-168708D01*
X-4825Y-167667D01*
X-5910Y-166833D01*
X-6995Y-166625D01*
X-8080Y-166833D01*
X-9475Y-167667D01*
X-9010Y-162250D01*
X-4825D01*
G01X2305Y-169542D02*
X3390Y-168083D01*
X4320Y-167250D01*
X5560Y-166833D01*
X6645Y-167250D01*
X7420Y-168083D01*
X8040Y-169333D01*
X8195Y-170792D01*
X8040Y-172042D01*
X7420Y-173292D01*
X6490Y-174333D01*
X5405Y-174750D01*
X4165Y-174333D01*
X3080Y-173084D01*
X2460Y-171208D01*
X2305Y-169125D01*
X2615Y-166417D01*
X3080Y-164958D01*
X3855Y-163500D01*
X4940Y-162458D01*
X6025Y-162250D01*
X7110Y-162667D01*
X7885Y-163708D01*
G01X15325Y-166417D02*
X19975Y-174750D01*
G01Y-166417D02*
X15325Y-174750D01*
G01X27105Y-164333D02*
X28035Y-163084D01*
X29120Y-162458D01*
X30360Y-162250D01*
X31910Y-162667D01*
X32995Y-163708D01*
X33305Y-164958D01*
X33150Y-166209D01*
X32530Y-167250D01*
X29430Y-169333D01*
X28035Y-170792D01*
X27105Y-172875D01*
X26795Y-174750D01*
X33305D01*
G01X42140D02*
X42450Y-172042D01*
X42915Y-169750D01*
X43535Y-167667D01*
X44310Y-165375D01*
X45550Y-162250D01*
X39350D01*
G01X54850Y-175167D02*
X54540Y-174958D01*
Y-174542D01*
X54850Y-174333D01*
X55160Y-174542D01*
Y-174958D01*
X54850Y-175167D01*
G01X63840Y-172875D02*
X64770Y-173917D01*
X65855Y-174542D01*
X67250Y-174750D01*
X68645Y-174333D01*
X69730Y-173500D01*
X70505Y-172042D01*
X70660Y-170375D01*
X70350Y-168708D01*
X69575Y-167667D01*
X68490Y-166833D01*
X67405Y-166625D01*
X66320Y-166833D01*
X64925Y-167667D01*
X65390Y-162250D01*
X69575D01*
G01X76705Y-169542D02*
X77790Y-168083D01*
X78720Y-167250D01*
X79960Y-166833D01*
X81045Y-167250D01*
X81820Y-168083D01*
X82440Y-169333D01*
X82595Y-170792D01*
X82440Y-172042D01*
X81820Y-173292D01*
X80890Y-174333D01*
X79805Y-174750D01*
X78565Y-174333D01*
X77480Y-173084D01*
X76860Y-171208D01*
X76705Y-169125D01*
X77015Y-166417D01*
X77480Y-164958D01*
X78255Y-163500D01*
X79340Y-162458D01*
X80425Y-162250D01*
X81510Y-162667D01*
X82285Y-163708D01*
G01X-44350Y-149750D02*
Y-137250D01*
X-46210Y-139750D01*
G01Y-149750D02*
X-42490D01*
G01X-34585Y-148292D02*
X-33500Y-149333D01*
X-32260Y-149750D01*
X-31020Y-149333D01*
X-29935Y-148084D01*
X-29160Y-146208D01*
X-28850Y-144333D01*
Y-142042D01*
X-29160Y-140167D01*
X-29935Y-138500D01*
X-30865Y-137667D01*
X-31950Y-137250D01*
X-33190Y-137667D01*
X-34120Y-138500D01*
X-34740Y-139750D01*
X-35050Y-141417D01*
X-34740Y-142875D01*
X-33965Y-144333D01*
X-33035Y-145167D01*
X-31950Y-145375D01*
X-30710Y-144959D01*
X-29780Y-143917D01*
X-28850Y-142042D01*
G01X-19550Y-150167D02*
X-19860Y-149958D01*
Y-149542D01*
X-19550Y-149333D01*
X-19240Y-149542D01*
Y-149958D01*
X-19550Y-150167D01*
G01X-10095Y-144542D02*
X-9010Y-143083D01*
X-8080Y-142250D01*
X-6840Y-141833D01*
X-5755Y-142250D01*
X-4980Y-143083D01*
X-4360Y-144333D01*
X-4205Y-145792D01*
X-4360Y-147042D01*
X-4980Y-148292D01*
X-5910Y-149333D01*
X-6995Y-149750D01*
X-8235Y-149333D01*
X-9320Y-148084D01*
X-9940Y-146208D01*
X-10095Y-144125D01*
X-9785Y-141417D01*
X-9320Y-139958D01*
X-8545Y-138500D01*
X-7460Y-137458D01*
X-6375Y-137250D01*
X-5290Y-137667D01*
X-4515Y-138708D01*
G01X2615Y-148292D02*
X3700Y-149333D01*
X4940Y-149750D01*
X6180Y-149333D01*
X7265Y-148084D01*
X8040Y-146208D01*
X8350Y-144333D01*
Y-142042D01*
X8040Y-140167D01*
X7265Y-138500D01*
X6335Y-137667D01*
X5250Y-137250D01*
X4010Y-137667D01*
X3080Y-138500D01*
X2460Y-139750D01*
X2150Y-141417D01*
X2460Y-142875D01*
X3235Y-144333D01*
X4165Y-145167D01*
X5250Y-145375D01*
X6490Y-144959D01*
X7420Y-143917D01*
X8350Y-142042D01*
G01X15325Y-141417D02*
X19975Y-149750D01*
G01Y-141417D02*
X15325Y-149750D01*
G01X30050D02*
Y-137250D01*
X28190Y-139750D01*
G01Y-149750D02*
X31910D01*
G01X39815Y-148292D02*
X40900Y-149333D01*
X42140Y-149750D01*
X43380Y-149333D01*
X44465Y-148084D01*
X45240Y-146208D01*
X45550Y-144333D01*
Y-142042D01*
X45240Y-140167D01*
X44465Y-138500D01*
X43535Y-137667D01*
X42450Y-137250D01*
X41210Y-137667D01*
X40280Y-138500D01*
X39660Y-139750D01*
X39350Y-141417D01*
X39660Y-142875D01*
X40435Y-144333D01*
X41365Y-145167D01*
X42450Y-145375D01*
X43690Y-144959D01*
X44620Y-143917D01*
X45550Y-142042D01*
G01X54850Y-150167D02*
X54540Y-149958D01*
Y-149542D01*
X54850Y-149333D01*
X55160Y-149542D01*
Y-149958D01*
X54850Y-150167D01*
G01X64305Y-144542D02*
X65390Y-143083D01*
X66320Y-142250D01*
X67560Y-141833D01*
X68645Y-142250D01*
X69420Y-143083D01*
X70040Y-144333D01*
X70195Y-145792D01*
X70040Y-147042D01*
X69420Y-148292D01*
X68490Y-149333D01*
X67405Y-149750D01*
X66165Y-149333D01*
X65080Y-148084D01*
X64460Y-146208D01*
X64305Y-144125D01*
X64615Y-141417D01*
X65080Y-139958D01*
X65855Y-138500D01*
X66940Y-137458D01*
X68025Y-137250D01*
X69110Y-137667D01*
X69885Y-138708D01*
G01X77015Y-148292D02*
X78100Y-149333D01*
X79340Y-149750D01*
X80580Y-149333D01*
X81665Y-148084D01*
X82440Y-146208D01*
X82750Y-144333D01*
Y-142042D01*
X82440Y-140167D01*
X81665Y-138500D01*
X80735Y-137667D01*
X79650Y-137250D01*
X78410Y-137667D01*
X77480Y-138500D01*
X76860Y-139750D01*
X76550Y-141417D01*
X76860Y-142875D01*
X77635Y-144333D01*
X78565Y-145167D01*
X79650Y-145375D01*
X80890Y-144959D01*
X81820Y-143917D01*
X82750Y-142042D01*
G01X-59695Y-74750D02*
Y-62250D01*
X-53805D01*
G01X-55975Y-68292D02*
X-59695D01*
G01X-46210Y-62250D02*
X-42490D01*
G01X-44350D02*
Y-74750D01*
G01X-46210D02*
X-42490D01*
G01X-35515D02*
Y-62250D01*
X-28385Y-74750D01*
Y-62250D01*
G01X-21410D02*
X-17690D01*
G01X-19550D02*
Y-74750D01*
G01X-21410D02*
X-17690D01*
G01X-10405Y-73084D02*
X-9165Y-74125D01*
X-7770Y-74750D01*
X-6530D01*
X-5290Y-74125D01*
X-4360Y-73084D01*
X-3895Y-71625D01*
X-4205Y-70167D01*
X-4980Y-68917D01*
X-6375Y-68083D01*
X-8235Y-67667D01*
X-9320Y-66833D01*
X-9785Y-65375D01*
X-9475Y-63917D01*
X-8700Y-62875D01*
X-7615Y-62250D01*
X-6530D01*
X-5445Y-62667D01*
X-4515Y-63708D01*
G01X1995Y-74750D02*
Y-62250D01*
G01X8505D02*
Y-74750D01*
G01Y-68500D02*
X1995D01*
G01X20750Y-74750D02*
X14550D01*
Y-62250D01*
X20750D01*
G01X18270Y-68292D02*
X14550D01*
G01X26640Y-74750D02*
Y-62250D01*
X29740D01*
X30980Y-62875D01*
X31910Y-63708D01*
X32685Y-64958D01*
X33305Y-66417D01*
X33460Y-68500D01*
X33305Y-70583D01*
X32685Y-72042D01*
X31910Y-73292D01*
X30980Y-74125D01*
X29740Y-74750D01*
X26640D01*
G01X37800Y-78917D02*
X47100D01*
G01X51595Y-73084D02*
X52835Y-74125D01*
X54230Y-74750D01*
X55470D01*
X56710Y-74125D01*
X57640Y-73084D01*
X58105Y-71625D01*
X57795Y-70167D01*
X57020Y-68917D01*
X55625Y-68083D01*
X53765Y-67667D01*
X52680Y-66833D01*
X52215Y-65375D01*
X52525Y-63917D01*
X53300Y-62875D01*
X54385Y-62250D01*
X55470D01*
X56555Y-62667D01*
X57485Y-63708D01*
G01X65390Y-62250D02*
X69110D01*
G01X67250D02*
Y-74750D01*
G01X65390D02*
X69110D01*
G01X76705Y-62250D02*
X82595D01*
X76705Y-74750D01*
X82595D01*
G01X95150D02*
X88950D01*
Y-62250D01*
X95150D01*
G01X92670Y-68292D02*
X88950D01*
G01X-35360Y-247250D02*
X-34430Y-248709D01*
X-33190Y-249542D01*
X-31795Y-249750D01*
X-30555Y-249542D01*
X-29315Y-248500D01*
X-28540Y-247250D01*
X-28385Y-246000D01*
X-28695Y-244542D01*
X-29780Y-243500D01*
X-30865Y-243083D01*
X-32260D01*
G01X-30865D02*
X-29935Y-242458D01*
X-29160Y-241417D01*
X-28850Y-240167D01*
X-29160Y-238917D01*
X-29935Y-237875D01*
X-31330Y-237250D01*
X-32725Y-237458D01*
X-34120Y-238292D01*
G01X-19550Y-249750D02*
X-18465Y-249542D01*
X-17225Y-248917D01*
X-16450Y-247875D01*
X-16140Y-246417D01*
X-16450Y-244959D01*
X-17380Y-243708D01*
X-18775Y-243083D01*
X-20325D01*
X-21255Y-242667D01*
X-22030Y-241625D01*
X-22340Y-240167D01*
X-21875Y-238708D01*
X-20790Y-237667D01*
X-19550Y-237250D01*
X-18310Y-237667D01*
X-17225Y-238708D01*
X-16760Y-240167D01*
X-17070Y-241625D01*
X-17845Y-242667D01*
X-18775Y-243083D01*
X-20325D01*
X-21720Y-243708D01*
X-22650Y-244959D01*
X-22960Y-246417D01*
X-22650Y-247875D01*
X-21875Y-248917D01*
X-20635Y-249542D01*
X-19550Y-249750D01*
G01X-7150Y-250167D02*
X-7460Y-249958D01*
Y-249542D01*
X-7150Y-249333D01*
X-6840Y-249542D01*
Y-249958D01*
X-7150Y-250167D01*
G01X5250Y-237250D02*
X4010Y-237667D01*
X3080Y-238708D01*
X2460Y-239958D01*
X1995Y-241625D01*
X1840Y-243500D01*
X1995Y-245375D01*
X2460Y-247042D01*
X3080Y-248292D01*
X4010Y-249333D01*
X5250Y-249750D01*
X6490Y-249333D01*
X7420Y-248292D01*
X8040Y-247042D01*
X8505Y-245375D01*
X8660Y-243500D01*
X8505Y-241625D01*
X8040Y-239958D01*
X7420Y-238708D01*
X6490Y-237667D01*
X5250Y-237250D01*
G01X15325Y-241417D02*
X19975Y-249750D01*
G01Y-241417D02*
X15325Y-249750D01*
G01X26640Y-247250D02*
X27570Y-248709D01*
X28810Y-249542D01*
X30205Y-249750D01*
X31445Y-249542D01*
X32685Y-248500D01*
X33460Y-247250D01*
X33615Y-246000D01*
X33305Y-244542D01*
X32220Y-243500D01*
X31135Y-243083D01*
X29740D01*
G01X31135D02*
X32065Y-242458D01*
X32840Y-241417D01*
X33150Y-240167D01*
X32840Y-238917D01*
X32065Y-237875D01*
X30670Y-237250D01*
X29275Y-237458D01*
X27880Y-238292D01*
G01X42450Y-249750D02*
X43535Y-249542D01*
X44775Y-248917D01*
X45550Y-247875D01*
X45860Y-246417D01*
X45550Y-244959D01*
X44620Y-243708D01*
X43225Y-243083D01*
X41675D01*
X40745Y-242667D01*
X39970Y-241625D01*
X39660Y-240167D01*
X40125Y-238708D01*
X41210Y-237667D01*
X42450Y-237250D01*
X43690Y-237667D01*
X44775Y-238708D01*
X45240Y-240167D01*
X44930Y-241625D01*
X44155Y-242667D01*
X43225Y-243083D01*
X41675D01*
X40280Y-243708D01*
X39350Y-244959D01*
X39040Y-246417D01*
X39350Y-247875D01*
X40125Y-248917D01*
X41365Y-249542D01*
X42450Y-249750D01*
G01X54850Y-250167D02*
X54540Y-249958D01*
Y-249542D01*
X54850Y-249333D01*
X55160Y-249542D01*
Y-249958D01*
X54850Y-250167D01*
G01X67250Y-237250D02*
X66010Y-237667D01*
X65080Y-238708D01*
X64460Y-239958D01*
X63995Y-241625D01*
X63840Y-243500D01*
X63995Y-245375D01*
X64460Y-247042D01*
X65080Y-248292D01*
X66010Y-249333D01*
X67250Y-249750D01*
X68490Y-249333D01*
X69420Y-248292D01*
X70040Y-247042D01*
X70505Y-245375D01*
X70660Y-243500D01*
X70505Y-241625D01*
X70040Y-239958D01*
X69420Y-238708D01*
X68490Y-237667D01*
X67250Y-237250D01*
G01X-35360Y-222250D02*
X-34430Y-223709D01*
X-33190Y-224542D01*
X-31795Y-224750D01*
X-30555Y-224542D01*
X-29315Y-223500D01*
X-28540Y-222250D01*
X-28385Y-221000D01*
X-28695Y-219542D01*
X-29780Y-218500D01*
X-30865Y-218083D01*
X-32260D01*
G01X-30865D02*
X-29935Y-217458D01*
X-29160Y-216417D01*
X-28850Y-215167D01*
X-29160Y-213917D01*
X-29935Y-212875D01*
X-31330Y-212250D01*
X-32725Y-212458D01*
X-34120Y-213292D01*
G01X-22495Y-219542D02*
X-21410Y-218083D01*
X-20480Y-217250D01*
X-19240Y-216833D01*
X-18155Y-217250D01*
X-17380Y-218083D01*
X-16760Y-219333D01*
X-16605Y-220792D01*
X-16760Y-222042D01*
X-17380Y-223292D01*
X-18310Y-224333D01*
X-19395Y-224750D01*
X-20635Y-224333D01*
X-21720Y-223084D01*
X-22340Y-221208D01*
X-22495Y-219125D01*
X-22185Y-216417D01*
X-21720Y-214958D01*
X-20945Y-213500D01*
X-19860Y-212458D01*
X-18775Y-212250D01*
X-17690Y-212667D01*
X-16915Y-213708D01*
G01X-7150Y-225167D02*
X-7460Y-224958D01*
Y-224542D01*
X-7150Y-224333D01*
X-6840Y-224542D01*
Y-224958D01*
X-7150Y-225167D01*
G01X5250Y-212250D02*
X4010Y-212667D01*
X3080Y-213708D01*
X2460Y-214958D01*
X1995Y-216625D01*
X1840Y-218500D01*
X1995Y-220375D01*
X2460Y-222042D01*
X3080Y-223292D01*
X4010Y-224333D01*
X5250Y-224750D01*
X6490Y-224333D01*
X7420Y-223292D01*
X8040Y-222042D01*
X8505Y-220375D01*
X8660Y-218500D01*
X8505Y-216625D01*
X8040Y-214958D01*
X7420Y-213708D01*
X6490Y-212667D01*
X5250Y-212250D01*
G01X15325Y-216417D02*
X19975Y-224750D01*
G01Y-216417D02*
X15325Y-224750D01*
G01X26640Y-222250D02*
X27570Y-223709D01*
X28810Y-224542D01*
X30205Y-224750D01*
X31445Y-224542D01*
X32685Y-223500D01*
X33460Y-222250D01*
X33615Y-221000D01*
X33305Y-219542D01*
X32220Y-218500D01*
X31135Y-218083D01*
X29740D01*
G01X31135D02*
X32065Y-217458D01*
X32840Y-216417D01*
X33150Y-215167D01*
X32840Y-213917D01*
X32065Y-212875D01*
X30670Y-212250D01*
X29275Y-212458D01*
X27880Y-213292D01*
G01X39505Y-219542D02*
X40590Y-218083D01*
X41520Y-217250D01*
X42760Y-216833D01*
X43845Y-217250D01*
X44620Y-218083D01*
X45240Y-219333D01*
X45395Y-220792D01*
X45240Y-222042D01*
X44620Y-223292D01*
X43690Y-224333D01*
X42605Y-224750D01*
X41365Y-224333D01*
X40280Y-223084D01*
X39660Y-221208D01*
X39505Y-219125D01*
X39815Y-216417D01*
X40280Y-214958D01*
X41055Y-213500D01*
X42140Y-212458D01*
X43225Y-212250D01*
X44310Y-212667D01*
X45085Y-213708D01*
G01X54850Y-225167D02*
X54540Y-224958D01*
Y-224542D01*
X54850Y-224333D01*
X55160Y-224542D01*
Y-224958D01*
X54850Y-225167D01*
G01X67250Y-212250D02*
X66010Y-212667D01*
X65080Y-213708D01*
X64460Y-214958D01*
X63995Y-216625D01*
X63840Y-218500D01*
X63995Y-220375D01*
X64460Y-222042D01*
X65080Y-223292D01*
X66010Y-224333D01*
X67250Y-224750D01*
X68490Y-224333D01*
X69420Y-223292D01*
X70040Y-222042D01*
X70505Y-220375D01*
X70660Y-218500D01*
X70505Y-216625D01*
X70040Y-214958D01*
X69420Y-213708D01*
X68490Y-212667D01*
X67250Y-212250D01*
G01X-13350Y-124750D02*
Y-112250D01*
X-15210Y-114750D01*
G01Y-124750D02*
X-11490D01*
G01X-3895Y-119542D02*
X-2810Y-118083D01*
X-1880Y-117250D01*
X-640Y-116833D01*
X445Y-117250D01*
X1220Y-118083D01*
X1840Y-119333D01*
X1995Y-120792D01*
X1840Y-122042D01*
X1220Y-123292D01*
X290Y-124333D01*
X-795Y-124750D01*
X-2035Y-124333D01*
X-3120Y-123084D01*
X-3740Y-121208D01*
X-3895Y-119125D01*
X-3585Y-116417D01*
X-3120Y-114958D01*
X-2345Y-113500D01*
X-1260Y-112458D01*
X-175Y-112250D01*
X910Y-112667D01*
X1685Y-113708D01*
G01X11450Y-124750D02*
Y-112250D01*
X9590Y-114750D01*
G01Y-124750D02*
X13310D01*
G01X23850Y-125167D02*
X23540Y-124958D01*
Y-124542D01*
X23850Y-124333D01*
X24160Y-124542D01*
Y-124958D01*
X23850Y-125167D01*
G01X38110Y-124750D02*
Y-112250D01*
X32375Y-121208D01*
X40125D01*
G01X45705Y-114333D02*
X46635Y-113084D01*
X47720Y-112458D01*
X48960Y-112250D01*
X50510Y-112667D01*
X51595Y-113708D01*
X51905Y-114958D01*
X51750Y-116209D01*
X51130Y-117250D01*
X48030Y-119333D01*
X46635Y-120792D01*
X45705Y-122875D01*
X45395Y-124750D01*
X51905D01*
G01X-19860Y-24750D02*
Y-12250D01*
X-16760D01*
X-15520Y-12875D01*
X-14590Y-13708D01*
X-13815Y-14958D01*
X-13195Y-16417D01*
X-13040Y-18500D01*
X-13195Y-20583D01*
X-13815Y-22042D01*
X-14590Y-23292D01*
X-15520Y-24125D01*
X-16760Y-24750D01*
X-19860D01*
G01X-7150D02*
Y-12250D01*
X-3275D01*
X-2035Y-12875D01*
X-1260Y-13708D01*
X-950Y-15375D01*
X-1260Y-17042D01*
X-2190Y-18083D01*
X-3275Y-18708D01*
X-7150D01*
G01X-3275D02*
X-950Y-24750D01*
G01X6490Y-12250D02*
X10210D01*
G01X8350D02*
Y-24750D01*
G01X6490D02*
X10210D01*
G01X17650Y-12250D02*
Y-24750D01*
X23850D01*
G01X30050Y-12250D02*
Y-24750D01*
X36250D01*
G01X61360Y-13292D02*
X60430Y-12667D01*
X59345Y-12250D01*
X58105D01*
X56710Y-12875D01*
X55625Y-13917D01*
X54850Y-15167D01*
X54230Y-17250D01*
X54075Y-19125D01*
X54385Y-21000D01*
X54850Y-22250D01*
X55780Y-23500D01*
X56865Y-24333D01*
X57950Y-24750D01*
X59035D01*
X60120Y-24333D01*
X61050Y-23709D01*
X61825Y-22875D01*
G01X67095Y-24750D02*
Y-12250D01*
G01X73605D02*
Y-24750D01*
G01Y-18500D02*
X67095D01*
G01X78875Y-24750D02*
X82750Y-12250D01*
X86625Y-24750D01*
G01X85230Y-20375D02*
X80270D01*
G01X92050Y-24750D02*
Y-12250D01*
X95925D01*
X97165Y-12875D01*
X97940Y-13708D01*
X98250Y-15375D01*
X97940Y-17042D01*
X97010Y-18083D01*
X95925Y-18708D01*
X92050D01*
G01X95925D02*
X98250Y-24750D01*
G01X107550Y-12250D02*
Y-24750D01*
G01X103985Y-12250D02*
X111115D01*
G01X119950Y-25167D02*
X119640Y-24958D01*
Y-24542D01*
X119950Y-24333D01*
X120260Y-24542D01*
Y-24958D01*
X119950Y-25167D01*
G01Y-19542D02*
X119640Y-19333D01*
Y-18917D01*
X119950Y-18708D01*
X120260Y-18917D01*
Y-19333D01*
X119950Y-19542D01*
G01X144750Y-12250D02*
Y-24750D01*
G01X141185Y-12250D02*
X148315D01*
G01X157150Y-24750D02*
X155910Y-24542D01*
X154825Y-23709D01*
X153895Y-22458D01*
X153275Y-21000D01*
X152965Y-19333D01*
Y-17667D01*
X153275Y-16000D01*
X153895Y-14542D01*
X154825Y-13292D01*
X155910Y-12458D01*
X157150Y-12250D01*
X158390Y-12458D01*
X159475Y-13292D01*
X160405Y-14542D01*
X161025Y-16000D01*
X161335Y-17667D01*
Y-19333D01*
X161025Y-21000D01*
X160405Y-22458D01*
X159475Y-23709D01*
X158390Y-24542D01*
X157150Y-24750D01*
G01X166450D02*
Y-12250D01*
X170170D01*
X171410Y-12875D01*
X172340Y-14333D01*
X172650Y-16000D01*
X172340Y-17667D01*
X171565Y-18917D01*
X170170Y-19542D01*
X166450D01*
G01X194350Y-12250D02*
Y-24750D01*
G01X192180Y-16417D02*
X196520D01*
G01X206750Y-24750D02*
X205820Y-24542D01*
X204890Y-23709D01*
X204270Y-22250D01*
X203960Y-20583D01*
X204270Y-18917D01*
X204890Y-17458D01*
X205820Y-16625D01*
X206750Y-16417D01*
X207680Y-16625D01*
X208610Y-17458D01*
X209230Y-18917D01*
X209385Y-20583D01*
X209230Y-22250D01*
X208610Y-23709D01*
X207680Y-24542D01*
X206750Y-24750D01*
G01X232790Y-18083D02*
X233410Y-17458D01*
X233875Y-16417D01*
X234185Y-14958D01*
X233875Y-13708D01*
X233255Y-12875D01*
X232170Y-12250D01*
X227985D01*
Y-24750D01*
X233100D01*
X234185Y-23917D01*
X234805Y-22667D01*
X235115Y-21208D01*
X234805Y-19750D01*
X233875Y-18500D01*
X232790Y-18083D01*
X227985D01*
G01X243950Y-24750D02*
X242710Y-24542D01*
X241625Y-23709D01*
X240695Y-22458D01*
X240075Y-21000D01*
X239765Y-19333D01*
Y-17667D01*
X240075Y-16000D01*
X240695Y-14542D01*
X241625Y-13292D01*
X242710Y-12458D01*
X243950Y-12250D01*
X245190Y-12458D01*
X246275Y-13292D01*
X247205Y-14542D01*
X247825Y-16000D01*
X248135Y-17667D01*
Y-19333D01*
X247825Y-21000D01*
X247205Y-22458D01*
X246275Y-23709D01*
X245190Y-24542D01*
X243950Y-24750D01*
G01X256350Y-12250D02*
Y-24750D01*
G01X252785Y-12250D02*
X259915D01*
G01X268750D02*
Y-24750D01*
G01X265185Y-12250D02*
X272315D01*
G01X281150Y-24750D02*
X279910Y-24542D01*
X278825Y-23709D01*
X277895Y-22458D01*
X277275Y-21000D01*
X276965Y-19333D01*
Y-17667D01*
X277275Y-16000D01*
X277895Y-14542D01*
X278825Y-13292D01*
X279910Y-12458D01*
X281150Y-12250D01*
X282390Y-12458D01*
X283475Y-13292D01*
X284405Y-14542D01*
X285025Y-16000D01*
X285335Y-17667D01*
Y-19333D01*
X285025Y-21000D01*
X284405Y-22458D01*
X283475Y-23709D01*
X282390Y-24542D01*
X281150Y-24750D01*
G01X289520D02*
Y-12250D01*
X293550Y-22667D01*
X297580Y-12250D01*
Y-24750D01*
G01X-950Y-99750D02*
Y-87250D01*
X-2810Y-89750D01*
G01Y-99750D02*
X910D01*
G01X8040Y-97250D02*
X8970Y-98709D01*
X10210Y-99542D01*
X11605Y-99750D01*
X12845Y-99542D01*
X14085Y-98500D01*
X14860Y-97250D01*
X15015Y-96000D01*
X14705Y-94542D01*
X13620Y-93500D01*
X12535Y-93083D01*
X11140D01*
G01X12535D02*
X13465Y-92458D01*
X14240Y-91417D01*
X14550Y-90167D01*
X14240Y-88917D01*
X13465Y-87875D01*
X12070Y-87250D01*
X10675Y-87458D01*
X9280Y-88292D01*
G01X23850Y-100167D02*
X23540Y-99958D01*
Y-99542D01*
X23850Y-99333D01*
X24160Y-99542D01*
Y-99958D01*
X23850Y-100167D01*
G01X36250Y-87250D02*
X35010Y-87667D01*
X34080Y-88708D01*
X33460Y-89958D01*
X32995Y-91625D01*
X32840Y-93500D01*
X32995Y-95375D01*
X33460Y-97042D01*
X34080Y-98292D01*
X35010Y-99333D01*
X36250Y-99750D01*
X37490Y-99333D01*
X38420Y-98292D01*
X39040Y-97042D01*
X39505Y-95375D01*
X39660Y-93500D01*
X39505Y-91625D01*
X39040Y-89958D01*
X38420Y-88708D01*
X37490Y-87667D01*
X36250Y-87250D01*
G01X10675Y-49750D02*
X14550Y-37250D01*
X18425Y-49750D01*
G01X17030Y-45375D02*
X12070D01*
G01X23850Y-37250D02*
Y-49750D01*
X30050D01*
G01X36250Y-37250D02*
Y-49750D01*
X42450D01*
G01X60740Y-37250D02*
Y-46208D01*
X61360Y-48084D01*
X62600Y-49333D01*
X64150Y-49750D01*
X65700Y-49333D01*
X66940Y-48084D01*
X67560Y-46208D01*
Y-37250D01*
G01X72985Y-49750D02*
Y-37250D01*
X80115Y-49750D01*
Y-37250D01*
G01X87090D02*
X90810D01*
G01X88950D02*
Y-49750D01*
G01X87090D02*
X90810D01*
G01X101350Y-37250D02*
Y-49750D01*
G01X97785Y-37250D02*
X104915D01*
G01X110495Y-48084D02*
X111735Y-49125D01*
X113130Y-49750D01*
X114370D01*
X115610Y-49125D01*
X116540Y-48084D01*
X117005Y-46625D01*
X116695Y-45167D01*
X115920Y-43917D01*
X114525Y-43083D01*
X112665Y-42667D01*
X111580Y-41833D01*
X111115Y-40375D01*
X111425Y-38917D01*
X112200Y-37875D01*
X113285Y-37250D01*
X114370D01*
X115455Y-37667D01*
X116385Y-38708D01*
G01X134675Y-49750D02*
X138550Y-37250D01*
X142425Y-49750D01*
G01X141030Y-45375D02*
X136070D01*
G01X147850Y-49750D02*
Y-37250D01*
X151725D01*
X152965Y-37875D01*
X153740Y-38708D01*
X154050Y-40375D01*
X153740Y-42042D01*
X152810Y-43083D01*
X151725Y-43708D01*
X147850D01*
G01X151725D02*
X154050Y-49750D01*
G01X166450D02*
X160250D01*
Y-37250D01*
X166450D01*
G01X163970Y-43292D02*
X160250D01*
G01X186290Y-37250D02*
X190010D01*
G01X188150D02*
Y-49750D01*
G01X186290D02*
X190010D01*
G01X196985D02*
Y-37250D01*
X204115Y-49750D01*
Y-37250D01*
G01X221320Y-49750D02*
Y-37250D01*
X225350Y-47667D01*
X229380Y-37250D01*
Y-49750D01*
G01X235890Y-37250D02*
X239610D01*
G01X237750D02*
Y-49750D01*
G01X235890D02*
X239610D01*
G01X247050Y-37250D02*
Y-49750D01*
X253250D01*
G01X259295Y-48084D02*
X260535Y-49125D01*
X261930Y-49750D01*
X263170D01*
X264410Y-49125D01*
X265340Y-48084D01*
X265805Y-46625D01*
X265495Y-45167D01*
X264720Y-43917D01*
X263325Y-43083D01*
X261465Y-42667D01*
X260380Y-41833D01*
X259915Y-40375D01*
X260225Y-38917D01*
X261000Y-37875D01*
X262085Y-37250D01*
X263170D01*
X264255Y-37667D01*
X265185Y-38708D01*
G01X0Y385827D02*
Y7874D01*
G03X7874Y0I7874J0D01*
G01X307087D01*
G03X314961Y7874I0J7874D01*
G01Y385827D01*
G03X307087Y393701I-7874J0D01*
G01X7874D01*
G03X0Y385827I0J-7874D01*
G01X118400Y-56000D02*
Y-356000D01*
G01X148315Y-348292D02*
X149400Y-349333D01*
X150640Y-349750D01*
X151880Y-349333D01*
X152965Y-348084D01*
X153740Y-346208D01*
X154050Y-344333D01*
Y-342042D01*
X153740Y-340167D01*
X152965Y-338500D01*
X152035Y-337667D01*
X150950Y-337250D01*
X149710Y-337667D01*
X148780Y-338500D01*
X148160Y-339750D01*
X147850Y-341417D01*
X148160Y-342875D01*
X148935Y-344333D01*
X149865Y-345167D01*
X150950Y-345375D01*
X152190Y-344959D01*
X153120Y-343917D01*
X154050Y-342042D01*
G01X163350Y-337250D02*
X162110Y-337667D01*
X161180Y-338708D01*
X160560Y-339958D01*
X160095Y-341625D01*
X159940Y-343500D01*
X160095Y-345375D01*
X160560Y-347042D01*
X161180Y-348292D01*
X162110Y-349333D01*
X163350Y-349750D01*
X164590Y-349333D01*
X165520Y-348292D01*
X166140Y-347042D01*
X166605Y-345375D01*
X166760Y-343500D01*
X166605Y-341625D01*
X166140Y-339958D01*
X165520Y-338708D01*
X164590Y-337667D01*
X163350Y-337250D01*
G01X175750Y-350167D02*
X175440Y-349958D01*
Y-349542D01*
X175750Y-349333D01*
X176060Y-349542D01*
Y-349958D01*
X175750Y-350167D01*
G01X188150Y-337250D02*
X186910Y-337667D01*
X185980Y-338708D01*
X185360Y-339958D01*
X184895Y-341625D01*
X184740Y-343500D01*
X184895Y-345375D01*
X185360Y-347042D01*
X185980Y-348292D01*
X186910Y-349333D01*
X188150Y-349750D01*
X189390Y-349333D01*
X190320Y-348292D01*
X190940Y-347042D01*
X191405Y-345375D01*
X191560Y-343500D01*
X191405Y-341625D01*
X190940Y-339958D01*
X190320Y-338708D01*
X189390Y-337667D01*
X188150Y-337250D01*
G01X200550D02*
X199310Y-337667D01*
X198380Y-338708D01*
X197760Y-339958D01*
X197295Y-341625D01*
X197140Y-343500D01*
X197295Y-345375D01*
X197760Y-347042D01*
X198380Y-348292D01*
X199310Y-349333D01*
X200550Y-349750D01*
X201790Y-349333D01*
X202720Y-348292D01*
X203340Y-347042D01*
X203805Y-345375D01*
X203960Y-343500D01*
X203805Y-341625D01*
X203340Y-339958D01*
X202720Y-338708D01*
X201790Y-337667D01*
X200550Y-337250D01*
G01X212950D02*
X211710Y-337667D01*
X210780Y-338708D01*
X210160Y-339958D01*
X209695Y-341625D01*
X209540Y-343500D01*
X209695Y-345375D01*
X210160Y-347042D01*
X210780Y-348292D01*
X211710Y-349333D01*
X212950Y-349750D01*
X214190Y-349333D01*
X215120Y-348292D01*
X215740Y-347042D01*
X216205Y-345375D01*
X216360Y-343500D01*
X216205Y-341625D01*
X215740Y-339958D01*
X215120Y-338708D01*
X214190Y-337667D01*
X212950Y-337250D01*
G01X148315Y-298292D02*
X149400Y-299333D01*
X150640Y-299750D01*
X151880Y-299333D01*
X152965Y-298084D01*
X153740Y-296208D01*
X154050Y-294333D01*
Y-292042D01*
X153740Y-290167D01*
X152965Y-288500D01*
X152035Y-287667D01*
X150950Y-287250D01*
X149710Y-287667D01*
X148780Y-288500D01*
X148160Y-289750D01*
X147850Y-291417D01*
X148160Y-292875D01*
X148935Y-294333D01*
X149865Y-295167D01*
X150950Y-295375D01*
X152190Y-294959D01*
X153120Y-293917D01*
X154050Y-292042D01*
G01X163350Y-287250D02*
X162110Y-287667D01*
X161180Y-288708D01*
X160560Y-289958D01*
X160095Y-291625D01*
X159940Y-293500D01*
X160095Y-295375D01*
X160560Y-297042D01*
X161180Y-298292D01*
X162110Y-299333D01*
X163350Y-299750D01*
X164590Y-299333D01*
X165520Y-298292D01*
X166140Y-297042D01*
X166605Y-295375D01*
X166760Y-293500D01*
X166605Y-291625D01*
X166140Y-289958D01*
X165520Y-288708D01*
X164590Y-287667D01*
X163350Y-287250D01*
G01X175750Y-300167D02*
X175440Y-299958D01*
Y-299542D01*
X175750Y-299333D01*
X176060Y-299542D01*
Y-299958D01*
X175750Y-300167D01*
G01X188150Y-287250D02*
X186910Y-287667D01*
X185980Y-288708D01*
X185360Y-289958D01*
X184895Y-291625D01*
X184740Y-293500D01*
X184895Y-295375D01*
X185360Y-297042D01*
X185980Y-298292D01*
X186910Y-299333D01*
X188150Y-299750D01*
X189390Y-299333D01*
X190320Y-298292D01*
X190940Y-297042D01*
X191405Y-295375D01*
X191560Y-293500D01*
X191405Y-291625D01*
X190940Y-289958D01*
X190320Y-288708D01*
X189390Y-287667D01*
X188150Y-287250D01*
G01X200550D02*
X199310Y-287667D01*
X198380Y-288708D01*
X197760Y-289958D01*
X197295Y-291625D01*
X197140Y-293500D01*
X197295Y-295375D01*
X197760Y-297042D01*
X198380Y-298292D01*
X199310Y-299333D01*
X200550Y-299750D01*
X201790Y-299333D01*
X202720Y-298292D01*
X203340Y-297042D01*
X203805Y-295375D01*
X203960Y-293500D01*
X203805Y-291625D01*
X203340Y-289958D01*
X202720Y-288708D01*
X201790Y-287667D01*
X200550Y-287250D01*
G01X212950D02*
X211710Y-287667D01*
X210780Y-288708D01*
X210160Y-289958D01*
X209695Y-291625D01*
X209540Y-293500D01*
X209695Y-295375D01*
X210160Y-297042D01*
X210780Y-298292D01*
X211710Y-299333D01*
X212950Y-299750D01*
X214190Y-299333D01*
X215120Y-298292D01*
X215740Y-297042D01*
X216205Y-295375D01*
X216360Y-293500D01*
X216205Y-291625D01*
X215740Y-289958D01*
X215120Y-288708D01*
X214190Y-287667D01*
X212950Y-287250D01*
G01X148315Y-273292D02*
X149400Y-274333D01*
X150640Y-274750D01*
X151880Y-274333D01*
X152965Y-273084D01*
X153740Y-271208D01*
X154050Y-269333D01*
Y-267042D01*
X153740Y-265167D01*
X152965Y-263500D01*
X152035Y-262667D01*
X150950Y-262250D01*
X149710Y-262667D01*
X148780Y-263500D01*
X148160Y-264750D01*
X147850Y-266417D01*
X148160Y-267875D01*
X148935Y-269333D01*
X149865Y-270167D01*
X150950Y-270375D01*
X152190Y-269959D01*
X153120Y-268917D01*
X154050Y-267042D01*
G01X163350Y-262250D02*
X162110Y-262667D01*
X161180Y-263708D01*
X160560Y-264958D01*
X160095Y-266625D01*
X159940Y-268500D01*
X160095Y-270375D01*
X160560Y-272042D01*
X161180Y-273292D01*
X162110Y-274333D01*
X163350Y-274750D01*
X164590Y-274333D01*
X165520Y-273292D01*
X166140Y-272042D01*
X166605Y-270375D01*
X166760Y-268500D01*
X166605Y-266625D01*
X166140Y-264958D01*
X165520Y-263708D01*
X164590Y-262667D01*
X163350Y-262250D01*
G01X175750Y-275167D02*
X175440Y-274958D01*
Y-274542D01*
X175750Y-274333D01*
X176060Y-274542D01*
Y-274958D01*
X175750Y-275167D01*
G01X188150Y-262250D02*
X186910Y-262667D01*
X185980Y-263708D01*
X185360Y-264958D01*
X184895Y-266625D01*
X184740Y-268500D01*
X184895Y-270375D01*
X185360Y-272042D01*
X185980Y-273292D01*
X186910Y-274333D01*
X188150Y-274750D01*
X189390Y-274333D01*
X190320Y-273292D01*
X190940Y-272042D01*
X191405Y-270375D01*
X191560Y-268500D01*
X191405Y-266625D01*
X190940Y-264958D01*
X190320Y-263708D01*
X189390Y-262667D01*
X188150Y-262250D01*
G01X200550D02*
X199310Y-262667D01*
X198380Y-263708D01*
X197760Y-264958D01*
X197295Y-266625D01*
X197140Y-268500D01*
X197295Y-270375D01*
X197760Y-272042D01*
X198380Y-273292D01*
X199310Y-274333D01*
X200550Y-274750D01*
X201790Y-274333D01*
X202720Y-273292D01*
X203340Y-272042D01*
X203805Y-270375D01*
X203960Y-268500D01*
X203805Y-266625D01*
X203340Y-264958D01*
X202720Y-263708D01*
X201790Y-262667D01*
X200550Y-262250D01*
G01X212950D02*
X211710Y-262667D01*
X210780Y-263708D01*
X210160Y-264958D01*
X209695Y-266625D01*
X209540Y-268500D01*
X209695Y-270375D01*
X210160Y-272042D01*
X210780Y-273292D01*
X211710Y-274333D01*
X212950Y-274750D01*
X214190Y-274333D01*
X215120Y-273292D01*
X215740Y-272042D01*
X216205Y-270375D01*
X216360Y-268500D01*
X216205Y-266625D01*
X215740Y-264958D01*
X215120Y-263708D01*
X214190Y-262667D01*
X212950Y-262250D01*
G01X148315Y-173292D02*
X149400Y-174333D01*
X150640Y-174750D01*
X151880Y-174333D01*
X152965Y-173084D01*
X153740Y-171208D01*
X154050Y-169333D01*
Y-167042D01*
X153740Y-165167D01*
X152965Y-163500D01*
X152035Y-162667D01*
X150950Y-162250D01*
X149710Y-162667D01*
X148780Y-163500D01*
X148160Y-164750D01*
X147850Y-166417D01*
X148160Y-167875D01*
X148935Y-169333D01*
X149865Y-170167D01*
X150950Y-170375D01*
X152190Y-169959D01*
X153120Y-168917D01*
X154050Y-167042D01*
G01X163350Y-162250D02*
X162110Y-162667D01*
X161180Y-163708D01*
X160560Y-164958D01*
X160095Y-166625D01*
X159940Y-168500D01*
X160095Y-170375D01*
X160560Y-172042D01*
X161180Y-173292D01*
X162110Y-174333D01*
X163350Y-174750D01*
X164590Y-174333D01*
X165520Y-173292D01*
X166140Y-172042D01*
X166605Y-170375D01*
X166760Y-168500D01*
X166605Y-166625D01*
X166140Y-164958D01*
X165520Y-163708D01*
X164590Y-162667D01*
X163350Y-162250D01*
G01X175750Y-175167D02*
X175440Y-174958D01*
Y-174542D01*
X175750Y-174333D01*
X176060Y-174542D01*
Y-174958D01*
X175750Y-175167D01*
G01X188150Y-162250D02*
X186910Y-162667D01*
X185980Y-163708D01*
X185360Y-164958D01*
X184895Y-166625D01*
X184740Y-168500D01*
X184895Y-170375D01*
X185360Y-172042D01*
X185980Y-173292D01*
X186910Y-174333D01*
X188150Y-174750D01*
X189390Y-174333D01*
X190320Y-173292D01*
X190940Y-172042D01*
X191405Y-170375D01*
X191560Y-168500D01*
X191405Y-166625D01*
X190940Y-164958D01*
X190320Y-163708D01*
X189390Y-162667D01*
X188150Y-162250D01*
G01X200550D02*
X199310Y-162667D01*
X198380Y-163708D01*
X197760Y-164958D01*
X197295Y-166625D01*
X197140Y-168500D01*
X197295Y-170375D01*
X197760Y-172042D01*
X198380Y-173292D01*
X199310Y-174333D01*
X200550Y-174750D01*
X201790Y-174333D01*
X202720Y-173292D01*
X203340Y-172042D01*
X203805Y-170375D01*
X203960Y-168500D01*
X203805Y-166625D01*
X203340Y-164958D01*
X202720Y-163708D01*
X201790Y-162667D01*
X200550Y-162250D01*
G01X212950D02*
X211710Y-162667D01*
X210780Y-163708D01*
X210160Y-164958D01*
X209695Y-166625D01*
X209540Y-168500D01*
X209695Y-170375D01*
X210160Y-172042D01*
X210780Y-173292D01*
X211710Y-174333D01*
X212950Y-174750D01*
X214190Y-174333D01*
X215120Y-173292D01*
X215740Y-172042D01*
X216205Y-170375D01*
X216360Y-168500D01*
X216205Y-166625D01*
X215740Y-164958D01*
X215120Y-163708D01*
X214190Y-162667D01*
X212950Y-162250D01*
G01X148315Y-148292D02*
X149400Y-149333D01*
X150640Y-149750D01*
X151880Y-149333D01*
X152965Y-148084D01*
X153740Y-146208D01*
X154050Y-144333D01*
Y-142042D01*
X153740Y-140167D01*
X152965Y-138500D01*
X152035Y-137667D01*
X150950Y-137250D01*
X149710Y-137667D01*
X148780Y-138500D01*
X148160Y-139750D01*
X147850Y-141417D01*
X148160Y-142875D01*
X148935Y-144333D01*
X149865Y-145167D01*
X150950Y-145375D01*
X152190Y-144959D01*
X153120Y-143917D01*
X154050Y-142042D01*
G01X163350Y-137250D02*
X162110Y-137667D01*
X161180Y-138708D01*
X160560Y-139958D01*
X160095Y-141625D01*
X159940Y-143500D01*
X160095Y-145375D01*
X160560Y-147042D01*
X161180Y-148292D01*
X162110Y-149333D01*
X163350Y-149750D01*
X164590Y-149333D01*
X165520Y-148292D01*
X166140Y-147042D01*
X166605Y-145375D01*
X166760Y-143500D01*
X166605Y-141625D01*
X166140Y-139958D01*
X165520Y-138708D01*
X164590Y-137667D01*
X163350Y-137250D01*
G01X175750Y-150167D02*
X175440Y-149958D01*
Y-149542D01*
X175750Y-149333D01*
X176060Y-149542D01*
Y-149958D01*
X175750Y-150167D01*
G01X188150Y-137250D02*
X186910Y-137667D01*
X185980Y-138708D01*
X185360Y-139958D01*
X184895Y-141625D01*
X184740Y-143500D01*
X184895Y-145375D01*
X185360Y-147042D01*
X185980Y-148292D01*
X186910Y-149333D01*
X188150Y-149750D01*
X189390Y-149333D01*
X190320Y-148292D01*
X190940Y-147042D01*
X191405Y-145375D01*
X191560Y-143500D01*
X191405Y-141625D01*
X190940Y-139958D01*
X190320Y-138708D01*
X189390Y-137667D01*
X188150Y-137250D01*
G01X200550D02*
X199310Y-137667D01*
X198380Y-138708D01*
X197760Y-139958D01*
X197295Y-141625D01*
X197140Y-143500D01*
X197295Y-145375D01*
X197760Y-147042D01*
X198380Y-148292D01*
X199310Y-149333D01*
X200550Y-149750D01*
X201790Y-149333D01*
X202720Y-148292D01*
X203340Y-147042D01*
X203805Y-145375D01*
X203960Y-143500D01*
X203805Y-141625D01*
X203340Y-139958D01*
X202720Y-138708D01*
X201790Y-137667D01*
X200550Y-137250D01*
G01X212950D02*
X211710Y-137667D01*
X210780Y-138708D01*
X210160Y-139958D01*
X209695Y-141625D01*
X209540Y-143500D01*
X209695Y-145375D01*
X210160Y-147042D01*
X210780Y-148292D01*
X211710Y-149333D01*
X212950Y-149750D01*
X214190Y-149333D01*
X215120Y-148292D01*
X215740Y-147042D01*
X216205Y-145375D01*
X216360Y-143500D01*
X216205Y-141625D01*
X215740Y-139958D01*
X215120Y-138708D01*
X214190Y-137667D01*
X212950Y-137250D01*
G01X135450Y-74750D02*
Y-62250D01*
X139325D01*
X140565Y-62875D01*
X141340Y-63708D01*
X141650Y-65375D01*
X141340Y-67042D01*
X140410Y-68083D01*
X139325Y-68708D01*
X135450D01*
G01X139325D02*
X141650Y-74750D01*
G01X150950D02*
X149710Y-74542D01*
X148625Y-73709D01*
X147695Y-72458D01*
X147075Y-71000D01*
X146765Y-69333D01*
Y-67667D01*
X147075Y-66000D01*
X147695Y-64542D01*
X148625Y-63292D01*
X149710Y-62458D01*
X150950Y-62250D01*
X152190Y-62458D01*
X153275Y-63292D01*
X154205Y-64542D01*
X154825Y-66000D01*
X155135Y-67667D01*
Y-69333D01*
X154825Y-71000D01*
X154205Y-72458D01*
X153275Y-73709D01*
X152190Y-74542D01*
X150950Y-74750D01*
G01X163350Y-62250D02*
Y-74750D01*
G01X159785Y-62250D02*
X166915D01*
G01X171875Y-74750D02*
X175750Y-62250D01*
X179625Y-74750D01*
G01X178230Y-70375D02*
X173270D01*
G01X188150Y-62250D02*
Y-74750D01*
G01X184585Y-62250D02*
X191715D01*
G01X198690D02*
X202410D01*
G01X200550D02*
Y-74750D01*
G01X198690D02*
X202410D01*
G01X212950D02*
X211710Y-74542D01*
X210625Y-73709D01*
X209695Y-72458D01*
X209075Y-71000D01*
X208765Y-69333D01*
Y-67667D01*
X209075Y-66000D01*
X209695Y-64542D01*
X210625Y-63292D01*
X211710Y-62458D01*
X212950Y-62250D01*
X214190Y-62458D01*
X215275Y-63292D01*
X216205Y-64542D01*
X216825Y-66000D01*
X217135Y-67667D01*
Y-69333D01*
X216825Y-71000D01*
X216205Y-72458D01*
X215275Y-73709D01*
X214190Y-74542D01*
X212950Y-74750D01*
G01X221785D02*
Y-62250D01*
X228915Y-74750D01*
Y-62250D01*
G01X157150Y-312250D02*
X155910Y-312667D01*
X154980Y-313708D01*
X154360Y-314958D01*
X153895Y-316625D01*
X153740Y-318500D01*
X153895Y-320375D01*
X154360Y-322042D01*
X154980Y-323292D01*
X155910Y-324333D01*
X157150Y-324750D01*
X158390Y-324333D01*
X159320Y-323292D01*
X159940Y-322042D01*
X160405Y-320375D01*
X160560Y-318500D01*
X160405Y-316625D01*
X159940Y-314958D01*
X159320Y-313708D01*
X158390Y-312667D01*
X157150Y-312250D01*
G01X169550Y-325167D02*
X169240Y-324958D01*
Y-324542D01*
X169550Y-324333D01*
X169860Y-324542D01*
Y-324958D01*
X169550Y-325167D01*
G01X181950Y-312250D02*
X180710Y-312667D01*
X179780Y-313708D01*
X179160Y-314958D01*
X178695Y-316625D01*
X178540Y-318500D01*
X178695Y-320375D01*
X179160Y-322042D01*
X179780Y-323292D01*
X180710Y-324333D01*
X181950Y-324750D01*
X183190Y-324333D01*
X184120Y-323292D01*
X184740Y-322042D01*
X185205Y-320375D01*
X185360Y-318500D01*
X185205Y-316625D01*
X184740Y-314958D01*
X184120Y-313708D01*
X183190Y-312667D01*
X181950Y-312250D01*
G01X194350D02*
X193110Y-312667D01*
X192180Y-313708D01*
X191560Y-314958D01*
X191095Y-316625D01*
X190940Y-318500D01*
X191095Y-320375D01*
X191560Y-322042D01*
X192180Y-323292D01*
X193110Y-324333D01*
X194350Y-324750D01*
X195590Y-324333D01*
X196520Y-323292D01*
X197140Y-322042D01*
X197605Y-320375D01*
X197760Y-318500D01*
X197605Y-316625D01*
X197140Y-314958D01*
X196520Y-313708D01*
X195590Y-312667D01*
X194350Y-312250D01*
G01X206750D02*
X205510Y-312667D01*
X204580Y-313708D01*
X203960Y-314958D01*
X203495Y-316625D01*
X203340Y-318500D01*
X203495Y-320375D01*
X203960Y-322042D01*
X204580Y-323292D01*
X205510Y-324333D01*
X206750Y-324750D01*
X207990Y-324333D01*
X208920Y-323292D01*
X209540Y-322042D01*
X210005Y-320375D01*
X210160Y-318500D01*
X210005Y-316625D01*
X209540Y-314958D01*
X208920Y-313708D01*
X207990Y-312667D01*
X206750Y-312250D01*
G01X157150Y-237250D02*
X155910Y-237667D01*
X154980Y-238708D01*
X154360Y-239958D01*
X153895Y-241625D01*
X153740Y-243500D01*
X153895Y-245375D01*
X154360Y-247042D01*
X154980Y-248292D01*
X155910Y-249333D01*
X157150Y-249750D01*
X158390Y-249333D01*
X159320Y-248292D01*
X159940Y-247042D01*
X160405Y-245375D01*
X160560Y-243500D01*
X160405Y-241625D01*
X159940Y-239958D01*
X159320Y-238708D01*
X158390Y-237667D01*
X157150Y-237250D01*
G01X169550Y-250167D02*
X169240Y-249958D01*
Y-249542D01*
X169550Y-249333D01*
X169860Y-249542D01*
Y-249958D01*
X169550Y-250167D01*
G01X181950Y-237250D02*
X180710Y-237667D01*
X179780Y-238708D01*
X179160Y-239958D01*
X178695Y-241625D01*
X178540Y-243500D01*
X178695Y-245375D01*
X179160Y-247042D01*
X179780Y-248292D01*
X180710Y-249333D01*
X181950Y-249750D01*
X183190Y-249333D01*
X184120Y-248292D01*
X184740Y-247042D01*
X185205Y-245375D01*
X185360Y-243500D01*
X185205Y-241625D01*
X184740Y-239958D01*
X184120Y-238708D01*
X183190Y-237667D01*
X181950Y-237250D01*
G01X194350D02*
X193110Y-237667D01*
X192180Y-238708D01*
X191560Y-239958D01*
X191095Y-241625D01*
X190940Y-243500D01*
X191095Y-245375D01*
X191560Y-247042D01*
X192180Y-248292D01*
X193110Y-249333D01*
X194350Y-249750D01*
X195590Y-249333D01*
X196520Y-248292D01*
X197140Y-247042D01*
X197605Y-245375D01*
X197760Y-243500D01*
X197605Y-241625D01*
X197140Y-239958D01*
X196520Y-238708D01*
X195590Y-237667D01*
X194350Y-237250D01*
G01X206750D02*
X205510Y-237667D01*
X204580Y-238708D01*
X203960Y-239958D01*
X203495Y-241625D01*
X203340Y-243500D01*
X203495Y-245375D01*
X203960Y-247042D01*
X204580Y-248292D01*
X205510Y-249333D01*
X206750Y-249750D01*
X207990Y-249333D01*
X208920Y-248292D01*
X209540Y-247042D01*
X210005Y-245375D01*
X210160Y-243500D01*
X210005Y-241625D01*
X209540Y-239958D01*
X208920Y-238708D01*
X207990Y-237667D01*
X206750Y-237250D01*
G01X157150Y-212250D02*
X155910Y-212667D01*
X154980Y-213708D01*
X154360Y-214958D01*
X153895Y-216625D01*
X153740Y-218500D01*
X153895Y-220375D01*
X154360Y-222042D01*
X154980Y-223292D01*
X155910Y-224333D01*
X157150Y-224750D01*
X158390Y-224333D01*
X159320Y-223292D01*
X159940Y-222042D01*
X160405Y-220375D01*
X160560Y-218500D01*
X160405Y-216625D01*
X159940Y-214958D01*
X159320Y-213708D01*
X158390Y-212667D01*
X157150Y-212250D01*
G01X169550Y-225167D02*
X169240Y-224958D01*
Y-224542D01*
X169550Y-224333D01*
X169860Y-224542D01*
Y-224958D01*
X169550Y-225167D01*
G01X181950Y-212250D02*
X180710Y-212667D01*
X179780Y-213708D01*
X179160Y-214958D01*
X178695Y-216625D01*
X178540Y-218500D01*
X178695Y-220375D01*
X179160Y-222042D01*
X179780Y-223292D01*
X180710Y-224333D01*
X181950Y-224750D01*
X183190Y-224333D01*
X184120Y-223292D01*
X184740Y-222042D01*
X185205Y-220375D01*
X185360Y-218500D01*
X185205Y-216625D01*
X184740Y-214958D01*
X184120Y-213708D01*
X183190Y-212667D01*
X181950Y-212250D01*
G01X194350D02*
X193110Y-212667D01*
X192180Y-213708D01*
X191560Y-214958D01*
X191095Y-216625D01*
X190940Y-218500D01*
X191095Y-220375D01*
X191560Y-222042D01*
X192180Y-223292D01*
X193110Y-224333D01*
X194350Y-224750D01*
X195590Y-224333D01*
X196520Y-223292D01*
X197140Y-222042D01*
X197605Y-220375D01*
X197760Y-218500D01*
X197605Y-216625D01*
X197140Y-214958D01*
X196520Y-213708D01*
X195590Y-212667D01*
X194350Y-212250D01*
G01X206750D02*
X205510Y-212667D01*
X204580Y-213708D01*
X203960Y-214958D01*
X203495Y-216625D01*
X203340Y-218500D01*
X203495Y-220375D01*
X203960Y-222042D01*
X204580Y-223292D01*
X205510Y-224333D01*
X206750Y-224750D01*
X207990Y-224333D01*
X208920Y-223292D01*
X209540Y-222042D01*
X210005Y-220375D01*
X210160Y-218500D01*
X210005Y-216625D01*
X209540Y-214958D01*
X208920Y-213708D01*
X207990Y-212667D01*
X206750Y-212250D01*
G01X157150Y-187250D02*
X155910Y-187667D01*
X154980Y-188708D01*
X154360Y-189958D01*
X153895Y-191625D01*
X153740Y-193500D01*
X153895Y-195375D01*
X154360Y-197042D01*
X154980Y-198292D01*
X155910Y-199333D01*
X157150Y-199750D01*
X158390Y-199333D01*
X159320Y-198292D01*
X159940Y-197042D01*
X160405Y-195375D01*
X160560Y-193500D01*
X160405Y-191625D01*
X159940Y-189958D01*
X159320Y-188708D01*
X158390Y-187667D01*
X157150Y-187250D01*
G01X169550Y-200167D02*
X169240Y-199958D01*
Y-199542D01*
X169550Y-199333D01*
X169860Y-199542D01*
Y-199958D01*
X169550Y-200167D01*
G01X181950Y-187250D02*
X180710Y-187667D01*
X179780Y-188708D01*
X179160Y-189958D01*
X178695Y-191625D01*
X178540Y-193500D01*
X178695Y-195375D01*
X179160Y-197042D01*
X179780Y-198292D01*
X180710Y-199333D01*
X181950Y-199750D01*
X183190Y-199333D01*
X184120Y-198292D01*
X184740Y-197042D01*
X185205Y-195375D01*
X185360Y-193500D01*
X185205Y-191625D01*
X184740Y-189958D01*
X184120Y-188708D01*
X183190Y-187667D01*
X181950Y-187250D01*
G01X194350D02*
X193110Y-187667D01*
X192180Y-188708D01*
X191560Y-189958D01*
X191095Y-191625D01*
X190940Y-193500D01*
X191095Y-195375D01*
X191560Y-197042D01*
X192180Y-198292D01*
X193110Y-199333D01*
X194350Y-199750D01*
X195590Y-199333D01*
X196520Y-198292D01*
X197140Y-197042D01*
X197605Y-195375D01*
X197760Y-193500D01*
X197605Y-191625D01*
X197140Y-189958D01*
X196520Y-188708D01*
X195590Y-187667D01*
X194350Y-187250D01*
G01X206750D02*
X205510Y-187667D01*
X204580Y-188708D01*
X203960Y-189958D01*
X203495Y-191625D01*
X203340Y-193500D01*
X203495Y-195375D01*
X203960Y-197042D01*
X204580Y-198292D01*
X205510Y-199333D01*
X206750Y-199750D01*
X207990Y-199333D01*
X208920Y-198292D01*
X209540Y-197042D01*
X210005Y-195375D01*
X210160Y-193500D01*
X210005Y-191625D01*
X209540Y-189958D01*
X208920Y-188708D01*
X207990Y-187667D01*
X206750Y-187250D01*
G01X179935Y-120583D02*
X183965D01*
G01X179935Y-95583D02*
X183965D01*
G01X245500Y-56000D02*
Y-356000D01*
G01X249685Y-124750D02*
Y-112250D01*
X256815Y-124750D01*
Y-112250D01*
G01X265650Y-124750D02*
X264410Y-124542D01*
X263325Y-123709D01*
X262395Y-122458D01*
X261775Y-121000D01*
X261465Y-119333D01*
Y-117667D01*
X261775Y-116000D01*
X262395Y-114542D01*
X263325Y-113292D01*
X264410Y-112458D01*
X265650Y-112250D01*
X266890Y-112458D01*
X267975Y-113292D01*
X268905Y-114542D01*
X269525Y-116000D01*
X269835Y-117667D01*
Y-119333D01*
X269525Y-121000D01*
X268905Y-122458D01*
X267975Y-123709D01*
X266890Y-124542D01*
X265650Y-124750D01*
G01X274485D02*
Y-112250D01*
X281615Y-124750D01*
Y-112250D01*
G01X288435Y-120583D02*
X292465D01*
G01X299750Y-124750D02*
Y-112250D01*
X303470D01*
X304710Y-112875D01*
X305640Y-114333D01*
X305950Y-116000D01*
X305640Y-117667D01*
X304865Y-118917D01*
X303470Y-119542D01*
X299750D01*
G01X312150Y-112250D02*
Y-124750D01*
X318350D01*
G01X323775D02*
X327650Y-112250D01*
X331525Y-124750D01*
G01X330130Y-120375D02*
X325170D01*
G01X340050Y-112250D02*
Y-124750D01*
G01X336485Y-112250D02*
X343615D01*
G01X355550Y-124750D02*
X349350D01*
Y-112250D01*
X355550D01*
G01X353070Y-118292D02*
X349350D01*
G01X361440Y-124750D02*
Y-112250D01*
X364540D01*
X365780Y-112875D01*
X366710Y-113708D01*
X367485Y-114958D01*
X368105Y-116417D01*
X368260Y-118500D01*
X368105Y-120583D01*
X367485Y-122042D01*
X366710Y-123292D01*
X365780Y-124125D01*
X364540Y-124750D01*
X361440D01*
G01X274950Y-349750D02*
Y-337250D01*
X278670D01*
X279910Y-337875D01*
X280840Y-339333D01*
X281150Y-341000D01*
X280840Y-342667D01*
X280065Y-343917D01*
X278670Y-344542D01*
X274950D01*
G01X287350Y-337250D02*
Y-349750D01*
X293550D01*
G01X298975D02*
X302850Y-337250D01*
X306725Y-349750D01*
G01X305330Y-345375D02*
X300370D01*
G01X315250Y-337250D02*
Y-349750D01*
G01X311685Y-337250D02*
X318815D01*
G01X330750Y-349750D02*
X324550D01*
Y-337250D01*
X330750D01*
G01X328270Y-343292D02*
X324550D01*
G01X336640Y-349750D02*
Y-337250D01*
X339740D01*
X340980Y-337875D01*
X341910Y-338708D01*
X342685Y-339958D01*
X343305Y-341417D01*
X343460Y-343500D01*
X343305Y-345583D01*
X342685Y-347042D01*
X341910Y-348292D01*
X340980Y-349125D01*
X339740Y-349750D01*
X336640D01*
G01X274950Y-299750D02*
Y-287250D01*
X278670D01*
X279910Y-287875D01*
X280840Y-289333D01*
X281150Y-291000D01*
X280840Y-292667D01*
X280065Y-293917D01*
X278670Y-294542D01*
X274950D01*
G01X287350Y-287250D02*
Y-299750D01*
X293550D01*
G01X298975D02*
X302850Y-287250D01*
X306725Y-299750D01*
G01X305330Y-295375D02*
X300370D01*
G01X315250Y-287250D02*
Y-299750D01*
G01X311685Y-287250D02*
X318815D01*
G01X330750Y-299750D02*
X324550D01*
Y-287250D01*
X330750D01*
G01X328270Y-293292D02*
X324550D01*
G01X336640Y-299750D02*
Y-287250D01*
X339740D01*
X340980Y-287875D01*
X341910Y-288708D01*
X342685Y-289958D01*
X343305Y-291417D01*
X343460Y-293500D01*
X343305Y-295583D01*
X342685Y-297042D01*
X341910Y-298292D01*
X340980Y-299125D01*
X339740Y-299750D01*
X336640D01*
G01X274950Y-324750D02*
Y-312250D01*
X278670D01*
X279910Y-312875D01*
X280840Y-314333D01*
X281150Y-316000D01*
X280840Y-317667D01*
X280065Y-318917D01*
X278670Y-319542D01*
X274950D01*
G01X287350Y-312250D02*
Y-324750D01*
X293550D01*
G01X298975D02*
X302850Y-312250D01*
X306725Y-324750D01*
G01X305330Y-320375D02*
X300370D01*
G01X315250Y-312250D02*
Y-324750D01*
G01X311685Y-312250D02*
X318815D01*
G01X330750Y-324750D02*
X324550D01*
Y-312250D01*
X330750D01*
G01X328270Y-318292D02*
X324550D01*
G01X336640Y-324750D02*
Y-312250D01*
X339740D01*
X340980Y-312875D01*
X341910Y-313708D01*
X342685Y-314958D01*
X343305Y-316417D01*
X343460Y-318500D01*
X343305Y-320583D01*
X342685Y-322042D01*
X341910Y-323292D01*
X340980Y-324125D01*
X339740Y-324750D01*
X336640D01*
G01X274950Y-274750D02*
Y-262250D01*
X278670D01*
X279910Y-262875D01*
X280840Y-264333D01*
X281150Y-266000D01*
X280840Y-267667D01*
X280065Y-268917D01*
X278670Y-269542D01*
X274950D01*
G01X287350Y-262250D02*
Y-274750D01*
X293550D01*
G01X298975D02*
X302850Y-262250D01*
X306725Y-274750D01*
G01X305330Y-270375D02*
X300370D01*
G01X315250Y-262250D02*
Y-274750D01*
G01X311685Y-262250D02*
X318815D01*
G01X330750Y-274750D02*
X324550D01*
Y-262250D01*
X330750D01*
G01X328270Y-268292D02*
X324550D01*
G01X336640Y-274750D02*
Y-262250D01*
X339740D01*
X340980Y-262875D01*
X341910Y-263708D01*
X342685Y-264958D01*
X343305Y-266417D01*
X343460Y-268500D01*
X343305Y-270583D01*
X342685Y-272042D01*
X341910Y-273292D01*
X340980Y-274125D01*
X339740Y-274750D01*
X336640D01*
G01X274950Y-249750D02*
Y-237250D01*
X278670D01*
X279910Y-237875D01*
X280840Y-239333D01*
X281150Y-241000D01*
X280840Y-242667D01*
X280065Y-243917D01*
X278670Y-244542D01*
X274950D01*
G01X287350Y-237250D02*
Y-249750D01*
X293550D01*
G01X298975D02*
X302850Y-237250D01*
X306725Y-249750D01*
G01X305330Y-245375D02*
X300370D01*
G01X315250Y-237250D02*
Y-249750D01*
G01X311685Y-237250D02*
X318815D01*
G01X330750Y-249750D02*
X324550D01*
Y-237250D01*
X330750D01*
G01X328270Y-243292D02*
X324550D01*
G01X336640Y-249750D02*
Y-237250D01*
X339740D01*
X340980Y-237875D01*
X341910Y-238708D01*
X342685Y-239958D01*
X343305Y-241417D01*
X343460Y-243500D01*
X343305Y-245583D01*
X342685Y-247042D01*
X341910Y-248292D01*
X340980Y-249125D01*
X339740Y-249750D01*
X336640D01*
G01X274950Y-224750D02*
Y-212250D01*
X278670D01*
X279910Y-212875D01*
X280840Y-214333D01*
X281150Y-216000D01*
X280840Y-217667D01*
X280065Y-218917D01*
X278670Y-219542D01*
X274950D01*
G01X287350Y-212250D02*
Y-224750D01*
X293550D01*
G01X298975D02*
X302850Y-212250D01*
X306725Y-224750D01*
G01X305330Y-220375D02*
X300370D01*
G01X315250Y-212250D02*
Y-224750D01*
G01X311685Y-212250D02*
X318815D01*
G01X330750Y-224750D02*
X324550D01*
Y-212250D01*
X330750D01*
G01X328270Y-218292D02*
X324550D01*
G01X336640Y-224750D02*
Y-212250D01*
X339740D01*
X340980Y-212875D01*
X341910Y-213708D01*
X342685Y-214958D01*
X343305Y-216417D01*
X343460Y-218500D01*
X343305Y-220583D01*
X342685Y-222042D01*
X341910Y-223292D01*
X340980Y-224125D01*
X339740Y-224750D01*
X336640D01*
G01X274950Y-199750D02*
Y-187250D01*
X278670D01*
X279910Y-187875D01*
X280840Y-189333D01*
X281150Y-191000D01*
X280840Y-192667D01*
X280065Y-193917D01*
X278670Y-194542D01*
X274950D01*
G01X287350Y-187250D02*
Y-199750D01*
X293550D01*
G01X298975D02*
X302850Y-187250D01*
X306725Y-199750D01*
G01X305330Y-195375D02*
X300370D01*
G01X315250Y-187250D02*
Y-199750D01*
G01X311685Y-187250D02*
X318815D01*
G01X330750Y-199750D02*
X324550D01*
Y-187250D01*
X330750D01*
G01X328270Y-193292D02*
X324550D01*
G01X336640Y-199750D02*
Y-187250D01*
X339740D01*
X340980Y-187875D01*
X341910Y-188708D01*
X342685Y-189958D01*
X343305Y-191417D01*
X343460Y-193500D01*
X343305Y-195583D01*
X342685Y-197042D01*
X341910Y-198292D01*
X340980Y-199125D01*
X339740Y-199750D01*
X336640D01*
G01X274950Y-174750D02*
Y-162250D01*
X278670D01*
X279910Y-162875D01*
X280840Y-164333D01*
X281150Y-166000D01*
X280840Y-167667D01*
X280065Y-168917D01*
X278670Y-169542D01*
X274950D01*
G01X287350Y-162250D02*
Y-174750D01*
X293550D01*
G01X298975D02*
X302850Y-162250D01*
X306725Y-174750D01*
G01X305330Y-170375D02*
X300370D01*
G01X315250Y-162250D02*
Y-174750D01*
G01X311685Y-162250D02*
X318815D01*
G01X330750Y-174750D02*
X324550D01*
Y-162250D01*
X330750D01*
G01X328270Y-168292D02*
X324550D01*
G01X336640Y-174750D02*
Y-162250D01*
X339740D01*
X340980Y-162875D01*
X341910Y-163708D01*
X342685Y-164958D01*
X343305Y-166417D01*
X343460Y-168500D01*
X343305Y-170583D01*
X342685Y-172042D01*
X341910Y-173292D01*
X340980Y-174125D01*
X339740Y-174750D01*
X336640D01*
G01X274950Y-149750D02*
Y-137250D01*
X278670D01*
X279910Y-137875D01*
X280840Y-139333D01*
X281150Y-141000D01*
X280840Y-142667D01*
X280065Y-143917D01*
X278670Y-144542D01*
X274950D01*
G01X287350Y-137250D02*
Y-149750D01*
X293550D01*
G01X298975D02*
X302850Y-137250D01*
X306725Y-149750D01*
G01X305330Y-145375D02*
X300370D01*
G01X315250Y-137250D02*
Y-149750D01*
G01X311685Y-137250D02*
X318815D01*
G01X330750Y-149750D02*
X324550D01*
Y-137250D01*
X330750D01*
G01X328270Y-143292D02*
X324550D01*
G01X336640Y-149750D02*
Y-137250D01*
X339740D01*
X340980Y-137875D01*
X341910Y-138708D01*
X342685Y-139958D01*
X343305Y-141417D01*
X343460Y-143500D01*
X343305Y-145583D01*
X342685Y-147042D01*
X341910Y-148292D01*
X340980Y-149125D01*
X339740Y-149750D01*
X336640D01*
G01X274950Y-99750D02*
Y-87250D01*
X278670D01*
X279910Y-87875D01*
X280840Y-89333D01*
X281150Y-91000D01*
X280840Y-92667D01*
X280065Y-93917D01*
X278670Y-94542D01*
X274950D01*
G01X287350Y-87250D02*
Y-99750D01*
X293550D01*
G01X298975D02*
X302850Y-87250D01*
X306725Y-99750D01*
G01X305330Y-95375D02*
X300370D01*
G01X315250Y-87250D02*
Y-99750D01*
G01X311685Y-87250D02*
X318815D01*
G01X330750Y-99750D02*
X324550D01*
Y-87250D01*
X330750D01*
G01X328270Y-93292D02*
X324550D01*
G01X336640Y-99750D02*
Y-87250D01*
X339740D01*
X340980Y-87875D01*
X341910Y-88708D01*
X342685Y-89958D01*
X343305Y-91417D01*
X343460Y-93500D01*
X343305Y-95583D01*
X342685Y-97042D01*
X341910Y-98292D01*
X340980Y-99125D01*
X339740Y-99750D01*
X336640D01*
G01X274950Y-74750D02*
Y-62250D01*
X278670D01*
X279910Y-62875D01*
X280840Y-64333D01*
X281150Y-66000D01*
X280840Y-67667D01*
X280065Y-68917D01*
X278670Y-69542D01*
X274950D01*
G01X287350Y-62250D02*
Y-74750D01*
X293550D01*
G01X298975D02*
X302850Y-62250D01*
X306725Y-74750D01*
G01X305330Y-70375D02*
X300370D01*
G01X315250Y-62250D02*
Y-74750D01*
G01X311685Y-62250D02*
X318815D01*
G01X330750Y-74750D02*
X324550D01*
Y-62250D01*
X330750D01*
G01X328270Y-68292D02*
X324550D01*
G01X336640Y-74750D02*
Y-62250D01*
X339740D01*
X340980Y-62875D01*
X341910Y-63708D01*
X342685Y-64958D01*
X343305Y-66417D01*
X343460Y-68500D01*
X343305Y-70583D01*
X342685Y-72042D01*
X341910Y-73292D01*
X340980Y-74125D01*
X339740Y-74750D01*
X336640D01*
G01X372600Y-56000D02*
Y-356000D01*
G01X398950Y-74750D02*
X397710Y-74542D01*
X396625Y-73709D01*
X395695Y-72458D01*
X395075Y-71000D01*
X394765Y-69333D01*
Y-67667D01*
X395075Y-66000D01*
X395695Y-64542D01*
X396625Y-63292D01*
X397710Y-62458D01*
X398950Y-62250D01*
X400190Y-62458D01*
X401275Y-63292D01*
X402205Y-64542D01*
X402825Y-66000D01*
X403135Y-67667D01*
Y-69333D01*
X402825Y-71000D01*
X402205Y-72458D01*
X401275Y-73709D01*
X400190Y-74542D01*
X398950Y-74750D01*
G01X400190Y-71417D02*
X402050Y-74750D01*
G01X411350Y-62250D02*
Y-74750D01*
G01X407785Y-62250D02*
X414915D01*
G01X423750Y-74750D02*
Y-69125D01*
X420650Y-62250D01*
G01X426850D02*
X423750Y-69125D01*
G01X405150Y-349750D02*
Y-337250D01*
X403290Y-339750D01*
G01Y-349750D02*
X407010D01*
G01X414605Y-339333D02*
X415535Y-338084D01*
X416620Y-337458D01*
X417860Y-337250D01*
X419410Y-337667D01*
X420495Y-338708D01*
X420805Y-339958D01*
X420650Y-341209D01*
X420030Y-342250D01*
X416930Y-344333D01*
X415535Y-345792D01*
X414605Y-347875D01*
X414295Y-349750D01*
X420805D01*
G01X405150Y-299750D02*
Y-287250D01*
X403290Y-289750D01*
G01Y-299750D02*
X407010D01*
G01X417550D02*
Y-287250D01*
X415690Y-289750D01*
G01Y-299750D02*
X419410D01*
G01X405150Y-324750D02*
Y-312250D01*
X403290Y-314750D01*
G01Y-324750D02*
X407010D01*
G01X417550Y-312250D02*
X416310Y-312667D01*
X415380Y-313708D01*
X414760Y-314958D01*
X414295Y-316625D01*
X414140Y-318500D01*
X414295Y-320375D01*
X414760Y-322042D01*
X415380Y-323292D01*
X416310Y-324333D01*
X417550Y-324750D01*
X418790Y-324333D01*
X419720Y-323292D01*
X420340Y-322042D01*
X420805Y-320375D01*
X420960Y-318500D01*
X420805Y-316625D01*
X420340Y-314958D01*
X419720Y-313708D01*
X418790Y-312667D01*
X417550Y-312250D01*
G01X411350Y-274750D02*
X412435Y-274542D01*
X413675Y-273917D01*
X414450Y-272875D01*
X414760Y-271417D01*
X414450Y-269959D01*
X413520Y-268708D01*
X412125Y-268083D01*
X410575D01*
X409645Y-267667D01*
X408870Y-266625D01*
X408560Y-265167D01*
X409025Y-263708D01*
X410110Y-262667D01*
X411350Y-262250D01*
X412590Y-262667D01*
X413675Y-263708D01*
X414140Y-265167D01*
X413830Y-266625D01*
X413055Y-267667D01*
X412125Y-268083D01*
X410575D01*
X409180Y-268708D01*
X408250Y-269959D01*
X407940Y-271417D01*
X408250Y-272875D01*
X409025Y-273917D01*
X410265Y-274542D01*
X411350Y-274750D01*
G01X408405Y-239333D02*
X409335Y-238084D01*
X410420Y-237458D01*
X411660Y-237250D01*
X413210Y-237667D01*
X414295Y-238708D01*
X414605Y-239958D01*
X414450Y-241209D01*
X413830Y-242250D01*
X410730Y-244333D01*
X409335Y-245792D01*
X408405Y-247875D01*
X408095Y-249750D01*
X414605D01*
G01X408405Y-219542D02*
X409490Y-218083D01*
X410420Y-217250D01*
X411660Y-216833D01*
X412745Y-217250D01*
X413520Y-218083D01*
X414140Y-219333D01*
X414295Y-220792D01*
X414140Y-222042D01*
X413520Y-223292D01*
X412590Y-224333D01*
X411505Y-224750D01*
X410265Y-224333D01*
X409180Y-223084D01*
X408560Y-221208D01*
X408405Y-219125D01*
X408715Y-216417D01*
X409180Y-214958D01*
X409955Y-213500D01*
X411040Y-212458D01*
X412125Y-212250D01*
X413210Y-212667D01*
X413985Y-213708D01*
G01X413210Y-199750D02*
Y-187250D01*
X407475Y-196208D01*
X415225D01*
G01X408405Y-164333D02*
X409335Y-163084D01*
X410420Y-162458D01*
X411660Y-162250D01*
X413210Y-162667D01*
X414295Y-163708D01*
X414605Y-164958D01*
X414450Y-166209D01*
X413830Y-167250D01*
X410730Y-169333D01*
X409335Y-170792D01*
X408405Y-172875D01*
X408095Y-174750D01*
X414605D01*
G01X408405Y-139333D02*
X409335Y-138084D01*
X410420Y-137458D01*
X411660Y-137250D01*
X413210Y-137667D01*
X414295Y-138708D01*
X414605Y-139958D01*
X414450Y-141209D01*
X413830Y-142250D01*
X410730Y-144333D01*
X409335Y-145792D01*
X408405Y-147875D01*
X408095Y-149750D01*
X414605D01*
G01X413210Y-124750D02*
Y-112250D01*
X407475Y-121208D01*
X415225D01*
G01X404840Y-99750D02*
X405150Y-97042D01*
X405615Y-94750D01*
X406235Y-92667D01*
X407010Y-90375D01*
X408250Y-87250D01*
X402050D01*
G01X414915Y-98292D02*
X416000Y-99333D01*
X417240Y-99750D01*
X418480Y-99333D01*
X419565Y-98084D01*
X420340Y-96208D01*
X420650Y-94333D01*
Y-92042D01*
X420340Y-90167D01*
X419565Y-88500D01*
X418635Y-87667D01*
X417550Y-87250D01*
X416310Y-87667D01*
X415380Y-88500D01*
X414760Y-89750D01*
X414450Y-91417D01*
X414760Y-92875D01*
X415535Y-94333D01*
X416465Y-95167D01*
X417550Y-95375D01*
X418790Y-94959D01*
X419720Y-93917D01*
X420650Y-92042D01*
G54D12*
X-128050Y-293500D03*
X38189Y246063D03*
Y255906D03*
Y265748D03*
X63386Y189331D03*
Y199331D03*
Y209331D03*
Y219331D03*
X227165Y236969D03*
Y246969D03*
Y256969D03*
Y266969D03*
G54D13*
X-128050Y-268500D03*
X26378Y53739D03*
Y87992D03*
X255118Y189172D03*
Y223425D03*
X278346Y73424D03*
Y107677D03*
X293307Y73424D03*
Y107677D03*
G54D14*
X-128050Y-218500D03*
X101299Y190945D03*
X111299D03*
X152480D03*
X162480D03*
X203661D03*
X213661D03*
G54D15*
X-128050Y-243500D03*
X217441Y41339D03*
X227441D03*
G54D16*
X-128050Y-193500D03*
X91693Y81890D03*
X121693D03*
X111693D03*
X101693D03*
G54D17*
X-128050Y-168500D03*
X235433Y140355D03*
Y159645D03*
G54D18*
X-128050Y-143500D03*
X131890Y208858D03*
Y204527D03*
G54D19*
X-128050Y-118500D03*
X23622Y23622D03*
Y370079D03*
X291339Y23622D03*
Y370079D03*
M02*
