M48
INCH,LZ
T01C.013
T02C.16142
;LEADER: 12 
;HEADER: 
;CODE  : ASCII 
;FILE  : SHOWERHOST-1-2.drl for board D:/PKU/SmartPublicBathroom/Project/2_ShowerHost/Hardware/2_PCB/#Taaaaaq16072.tmp ... layers TOP and BOTTOM
;T01 Holesize 1. = 13.000000 Tolerance = +0.000000/-0.000000 PLATED MILS Quantity = 79
;T02 Holesize 2. = 161.420000 Tolerance = +0.000000/-0.000000 NON_PLATED MILS Quantity = 4
%
G90
T01
X00159618Y00027165
X00184113Y00036339
X00164012Y00063354
X00168889Y00079502
X00182513Y00041339
X00222754Y00046339
X00227441Y00053739
X00257248Y00059055
X00258837Y00075591
X00188262Y00098665
X00179419Y00097105
X00176919Y00084249
X0016165Y00099606
X001608Y001078
X00159851Y00117894
X00152532Y00092265
X00145079Y00104264
X0013567Y00111103
X00075338Y00085433
X00108835Y00147835
X00124365
X00142677Y00157677
X00147047Y00128195
X00148268Y00139887
X00150768Y00157677
X00163228Y00155709
X00169438Y00159371
X00176162Y00136024
X00178562Y00125794
X00209009Y00123783
X00239389Y00156319
X00262682
X00282877Y00146319
X0022874Y00186745
X00191262Y00195145
X00185395Y0016828
X00167599Y0016317
X00159228
X00154921Y00183514
X0015068Y00181114
X00132558Y0017987
X00125846Y00167886
X00121756Y00199331
X00086084Y00201731
X001079Y00225645
X00111299Y00236041
X00113799Y00238441
X00115857Y00231572
X00119356Y00209331
X0016248Y00215145
X00184062Y00224372
X00186462Y00219245
X00128398Y00240841
X00111299Y00253543
X00104841Y00261587
X00083584Y00255374
X00068889Y00248031
X00023562Y00294094
X00043281
X00068292Y00287203
X00110299Y00301768
X00125197Y00286051
X00134252Y00307242
X00149288Y00287203
X00180315Y00280515
X00197554Y00294509
X00231858Y00318819
X00228557Y00358819
X00190596
X0017982Y00340172
X00136971Y00338819
X00133772Y00343739
X00131359Y00323228
X00105279Y00350394
Y00332283
X00089213Y00342938
X00097277Y00374409
X00218162Y00368419
X0024137Y00373819
T02
X00023622Y00023622
X00291339
Y00370079
X00023622
M30
