M48
INCH,LZ
T01C.01969
T02C.02756
T03C.03543
T04C.036
T05C.038
T06C.03937
T07C.04331
T08C.04724
T09C.06299
;EXTENTS: -4.575  -3.575  6.425   4.925   
;LEADER: 12 
;HEADER: 
;CODE  : ASCII 
;FILE  : D:/PKU/SmartPublicBathroom/Project/2_ShowerHost/Hardware/2_PCB/gerber/SHOWERHOST_1-2.rou for board D:/PKU/SmartPublicBathroom/Project/2_ShowerHost/Hardware/2_PCB/#Taaaaav16072.tmp, layers TOP to BOTTOM
%
G90
F1
M16
T08
M16
G00X00221456Y00099409
G40
M15
G01
M16
G00X00195865
G40
M15
G01
M16
G00X00221456Y00117126
G40
M15
G01
M16
G00X00195865
G40
M15
G01
M16
G00X00119094Y00099409
G40
M15
G01
M16
G00X00093503
G40
M15
G01
M16
G00X00119094Y00117126
G40
M15
G01
M16
G00X00093503
G40
M15
G01
M16
T07
M16
G00X00038189Y00265748
G40
M15
G01
M16
G00Y00255906
G40
M15
G01
M16
G00Y00246063
G40
M15
G01
M16
T06
M16
G00X00293307Y00073424
G40
M15
G01
M16
G00Y00107677
G40
M15
G01
M16
G00X00278346Y00073424
G40
M15
G01
M16
G00Y00107677
G40
M15
G01
M16
G00X00026377Y00053739
G40
M15
G01
M16
G00Y00087992
G40
M15
G01
M16
G00X00255117Y00189172
G40
M15
G01
M16
G00Y00223425
G40
M15
G01
M16
T08
M16
G00X0027374Y00126378
G40
M15
G01
M16
G00X0028374
G40
M15
G01
M16
T01
M16
G00X0013189Y00204527
G40
M15
G01
M16
G00Y00208858
G40
M15
G01
M16
T02
M16
G00X00235433Y00159645
G40
M15
G01
M16
G00Y00140355
G40
M15
G01
M16
T05
M16
G00X0022744Y00041339
G40
M15
G01
M16
G00X0021744
G40
M15
G01
M16
T03
M16
G00X00091693Y0008189
G40
M15
G01
M16
G00X00101693
G40
M15
G01
M16
G00X00111693
G40
M15
G01
M16
G00X00121693
G40
M15
G01
M16
T09
M16
G00X00037795Y00107874
G40
M15
G01
M16
G00X00014172Y00115748
G40
M15
G01
M16
G00X00061416Y00163779
G40
M15
G01
M16
G00Y00115748
G40
M15
G01
M16
G00X00277165Y00313386
G40
M15
G01
M16
G00X00300787Y00305512
G40
M15
G01
M16
G00X00253542Y00257481
G40
M15
G01
M16
G00Y00305512
G40
M15
G01
M16
T04
M16
G00X00213661Y00190945
G40
M15
G01
M16
G00X00203661
G40
M15
G01
M16
G00X0016248
G40
M15
G01
M16
G00X0015248
G40
M15
G01
M16
G00X00111299
G40
M15
G01
M16
G00X00101299
G40
M15
G01
M16
T07
M16
G00X00063386Y00219331
G40
M15
G01
M16
G00Y00209331
G40
M15
G01
M16
G00Y00199331
G40
M15
G01
M16
G00Y00189331
G40
M15
G01
M16
G00X00227165Y00266969
G40
M15
G01
M16
G00Y00256969
G40
M15
G01
M16
G00Y00246969
G40
M15
G01
M16
G00Y00236969
G40
M15
G01
M16
T09
M16
G00X00024016Y00214565
G40
M15
G01
M16
G00Y00194881
G40
M15
G01
M16
G00X00290945Y00194882
G40
M15
G01
M16
G00Y00214567
G40
M15
G01
M16
G40
M30
