G04 ================== begin FILE IDENTIFICATION RECORD ==================*
G04 Layout Name:  SHOWERHOST.brd*
G04 Film Name:    Silkscreen_Bottom*
G04 File Format:  Gerber RS274X*
G04 File Origin:  Cadence Allegro 17.2-S079*
G04 Origin Date:  Thu May 05 20:33:34 2022*
G04 *
G04 Layer:  REF DES/SILKSCREEN_BOTTOM*
G04 Layer:  PACKAGE GEOMETRY/SILKSCREEN_BOTTOM*
G04 Layer:  BOARD GEOMETRY/SILKSCREEN_BOTTOM*
G04 *
G04 Offset:    (0.00 0.00)*
G04 Mirror:    No*
G04 Mode:      Positive*
G04 Rotation:  0*
G04 FullContactRelief:  No*
G04 UndefLineWidth:     6.00*
G04 ================== end FILE IDENTIFICATION RECORD ====================*
%FSLAX25Y25*MOIN*%
%IR0*IPPOS*OFA0.00000B0.00000*MIA0B0*SFA1.00000B1.00000*%
%ADD10C,.01*%
%ADD11C,.01181*%
%ADD12C,.006*%
G75*
%LPD*%
G75*
G36*
G01X147797Y118894D02*
Y117894D01*
X146297D01*
Y118894D01*
X147797D01*
G37*
G36*
G01X130886Y144648D02*
Y143148D01*
X131886D01*
Y144648D01*
X130886D01*
G37*
G36*
G01X145829Y170870D02*
Y171870D01*
X144329D01*
Y170870D01*
X145829D01*
G37*
G36*
G01X167482Y118894D02*
Y117894D01*
X165982D01*
Y118894D01*
X167482D01*
G37*
G36*
G01X165514Y170870D02*
Y171870D01*
X164014D01*
Y170870D01*
X165514D01*
G37*
G36*
G01X184862Y142679D02*
Y141179D01*
X183862D01*
Y142679D01*
X184862D01*
G37*
G54D10*
G01X31890Y77325D02*
X20866D01*
G01X31890Y81102D02*
X20866D01*
G01X31890D02*
Y60629D01*
G01D02*
X20866D01*
G01Y81102D02*
Y60629D01*
G01X31878Y81865D02*
Y81102D01*
G01Y81865D02*
X20866D01*
G01D02*
Y81102D01*
G01X31878Y82365D02*
Y81366D01*
G01Y82365D02*
X20866D01*
G01D02*
Y81865D01*
G01X58386Y183504D02*
X68386D01*
G01X58386D02*
Y225158D01*
G01Y194423D02*
X68386D01*
G01X58386Y225158D02*
X68386D01*
G01X59843Y257854D02*
X57874D01*
G01Y255906D02*
Y259843D01*
G01X65945Y254134D02*
X61024D01*
G01X65945Y261614D02*
X61024D01*
G01X67323Y260236D02*
X65945Y261614D01*
G01X67323Y255512D02*
X65945Y254134D01*
G01X51260Y254173D02*
Y261654D01*
G01X56535Y254173D02*
X51260D01*
G01X57087Y261614D02*
X51260Y261654D01*
G01X68386Y183504D02*
Y225158D01*
G01X84646Y257854D02*
X82677D01*
G01Y255906D02*
Y259843D01*
G01X92126Y255512D02*
Y260236D01*
G01X90748Y254134D02*
X85827D01*
G01X90748Y261614D02*
X85827D01*
G01X92126Y260236D02*
X90748Y261614D01*
G01X92126Y255512D02*
X90748Y254134D01*
G01X76063Y254173D02*
Y261654D01*
G01X81338Y254173D02*
X76063D01*
G01X81890Y261614D02*
X76063Y261654D01*
G01X67323Y255512D02*
Y260236D01*
G01X96948Y284448D02*
X93426Y287972D01*
G01X91928Y289888D02*
Y299088D01*
G01X96948Y304528D02*
X93426Y301004D01*
G01X98819Y287008D02*
X94878Y290948D01*
G01D02*
Y298028D01*
G01X98428Y301578D02*
X94878Y298028D01*
G01X89843Y370708D02*
Y378189D01*
G01X95118Y370708D02*
X89843D01*
G01X95670Y378150D02*
X89843Y378189D01*
G01X106989Y294488D02*
G03I-5020J0D01*
G01Y304528D02*
X96948D01*
G01X106989Y284448D02*
X96948D01*
G01X110513Y301004D02*
X106989Y304528D01*
G01X110513Y287972D02*
X106989Y284448D01*
G01X112009Y289888D02*
Y299088D01*
G01X109059Y298428D02*
X105909Y301578D01*
G01X109059Y290558D02*
Y298428D01*
G01Y290558D02*
X105509Y287008D01*
G01D02*
X98819D01*
G01X105909Y301578D02*
X98428D01*
G01X98426Y374389D02*
X96457D01*
G01Y372441D02*
Y376378D01*
G01X105906Y372048D02*
Y376771D01*
G01X104528Y370669D02*
X99607D01*
G01X104528Y378150D02*
X99607D01*
G01X105906Y376771D02*
X104528Y378150D01*
G01X105906Y372048D02*
X104528Y370669D01*
G01X124017Y374389D02*
X122047D01*
G01Y372441D02*
Y376378D01*
G01X115433Y370708D02*
Y378189D01*
G01X120708Y370708D02*
X115433D01*
G01X121260Y378150D02*
X115433Y378189D01*
G01X137796Y206693D02*
G03I-5906J0D01*
G01X137008Y239567D02*
Y267520D01*
G01X122835Y239567D02*
Y267520D01*
G01X137008Y239567D02*
X122835D01*
G01X137008Y267520D02*
X122835D01*
G01X152460Y284448D02*
X148937Y287972D01*
G01X147440Y289888D02*
Y299088D01*
G01X152460Y304528D02*
X148937Y301004D01*
G01X131496Y372048D02*
Y376771D01*
G01X130119Y370669D02*
X125197D01*
G01X130119Y378150D02*
X125197D01*
G01X131496Y376771D02*
X130119Y378150D01*
G01X131496Y372048D02*
X130119Y370669D01*
G01X180413Y234054D02*
X176890Y237578D01*
G01X175393Y239494D02*
Y248694D01*
G01X180413Y254135D02*
X176890Y250611D01*
G01X162500Y294488D02*
G03I-5020J0D01*
G01Y304528D02*
X152460D01*
G01X162500Y284448D02*
X152460D01*
G01X166024Y301004D02*
X162500Y304528D01*
G01X166024Y287972D02*
X162500Y284448D01*
G01X167520Y289888D02*
Y299088D01*
G01X164570Y298428D02*
X161420Y301578D01*
G01X164570Y290558D02*
Y298428D01*
G01Y290558D02*
X161020Y287008D01*
G01D02*
X154330D01*
G01D02*
X150390Y290948D01*
G01D02*
Y298028D01*
G01X153940Y301578D02*
X150390Y298028D01*
G01X161420Y301578D02*
X153940D01*
G01X190453Y244094D02*
G03I-5020J0D01*
G01Y234054D02*
X180413D01*
G01X193977Y237578D02*
X190453Y234054D01*
G01X195473Y239494D02*
Y248694D01*
G01X192523Y248035D02*
X189373Y251185D01*
G01X192523Y240165D02*
Y248035D01*
G01Y240165D02*
X188973Y236615D01*
G01D02*
X182283D01*
G01D02*
X178343Y240554D01*
G01D02*
Y247635D01*
G01X181893Y251185D02*
X178343Y247635D01*
G01X190453Y254135D02*
X180413D01*
G01X193977Y250611D02*
X190453Y254135D01*
G01X189373Y251185D02*
X181893D01*
G01X207578Y284448D02*
X204056Y287972D01*
G01X202558Y289888D02*
Y299088D01*
G01X207578Y304528D02*
X204056Y301004D01*
G01X190946Y375964D02*
X188976D01*
G01Y374016D02*
Y377953D01*
G01X198426Y373622D02*
Y378346D01*
G01X197048Y372244D02*
X192126D01*
G01X197048Y379724D02*
X192126D01*
G01X198426Y378346D02*
X197048Y379724D01*
G01X198426Y373622D02*
X197048Y372244D01*
G01X182363Y372283D02*
Y379764D01*
G01X187637Y372283D02*
X182363D01*
G01X188189Y379724D02*
X182363Y379764D01*
G01X242433Y138001D02*
G02X228429I-7002J-550D01*
G01X244687Y137602D02*
G02X226179I-9254J-362D01*
G01X226182Y137601D02*
Y162401D01*
G01X228434Y138001D02*
Y162001D01*
G01X228429D02*
G02X242433I7002J501D01*
G01X226182Y162401D02*
G02X244690I9254J389D01*
G01X217619Y294488D02*
G03I-5021J0D01*
G01Y304528D02*
X207578D01*
G01X217619Y284448D02*
X207578D01*
G01X221143Y301004D02*
X217619Y304528D01*
G01X221143Y287972D02*
X217619Y284448D01*
G01X222639Y289888D02*
Y299088D01*
G01X219689Y298428D02*
X216539Y301578D01*
G01X219689Y290558D02*
Y298428D01*
G01Y290558D02*
X216139Y287008D01*
G01D02*
X209448D01*
G01D02*
X205508Y290948D01*
G01D02*
Y298028D01*
G01X209058Y301578D02*
X205508Y298028D01*
G01X216539Y301578D02*
X209058D01*
G01X218111Y375964D02*
X216142D01*
G01Y374016D02*
Y377953D01*
G01X225591Y373622D02*
Y378346D01*
G01X224213Y372244D02*
X219292D01*
G01X224213Y379724D02*
X219292D01*
G01X225591Y378346D02*
X224213Y379724D01*
G01X225591Y373622D02*
X224213Y372244D01*
G01X209528Y372283D02*
Y379764D01*
G01X214803Y372283D02*
X209528D01*
G01X215355Y379724D02*
X209528Y379764D01*
G01X244686Y137601D02*
Y162401D01*
G01X242434Y138001D02*
Y162001D01*
G01X260630Y212758D02*
X249606D01*
G01X260630Y216535D02*
X249606D01*
G01X260630Y196062D02*
X249606D01*
G01Y216535D02*
Y196062D01*
G01X260618Y217298D02*
X249606D01*
G01D02*
Y216535D01*
G01X260618Y217798D02*
X249606D01*
G01D02*
Y217298D01*
G01X283858Y100787D02*
Y80314D01*
G01D02*
X272835D01*
G01Y100787D02*
Y80314D01*
G01X298819D02*
X287795D01*
G01Y100787D02*
Y80314D01*
G01X283858Y97010D02*
X272835D01*
G01X283858Y100787D02*
X272835D01*
G01X283846Y101550D02*
Y100787D01*
G01Y101550D02*
X272835D01*
G01D02*
Y100787D01*
G01X283846Y102050D02*
Y101051D01*
G01Y102050D02*
X272835D01*
G01D02*
Y101550D01*
G01X298819Y97010D02*
X287795D01*
G01X298819Y100787D02*
X287795D01*
G01X298807Y101550D02*
X287795D01*
G01D02*
Y100787D01*
G01X298807Y102050D02*
X287795D01*
G01D02*
Y101550D01*
G01X282756Y165196D02*
Y172678D01*
G01X288031Y165196D02*
X282756D01*
G01X288583Y172638D02*
X282756Y172678D01*
G01X260630Y216535D02*
Y196062D01*
G01X260618Y217298D02*
Y216535D01*
G01Y217798D02*
Y216799D01*
G01X298819Y100787D02*
Y80314D01*
G01X298807Y101550D02*
Y100787D01*
G01Y102050D02*
Y101051D01*
G01X289370Y166930D02*
Y170867D01*
G01X298819Y166536D02*
Y171259D01*
G01X297441Y165157D02*
X292520D01*
G01X298819Y166536D02*
X297441Y165157D01*
G01X291339Y168878D02*
X289370D01*
G01X297441Y172638D02*
X292520D01*
G01X298819Y171259D02*
X297441Y172638D01*
G54D11*
G01X191021Y56339D02*
G03I-590J0D01*
G01X198895Y59250D02*
G03I-590J0D01*
G01X282753Y156319D02*
G03I-591J0D01*
G01X290286Y159340D02*
G03I-591J0D01*
G54D12*
G01X29048Y94488D02*
Y98988D01*
X27848D01*
X27368Y98763D01*
X27008Y98463D01*
X26708Y98013D01*
X26468Y97488D01*
X26408Y96738D01*
X26468Y95988D01*
X26708Y95463D01*
X27008Y95013D01*
X27368Y94713D01*
X27848Y94488D01*
X29048D01*
G01X24428Y95013D02*
X24008Y94638D01*
X23528Y94488D01*
X23048Y94638D01*
X22628Y95088D01*
X22328Y95763D01*
X22208Y96438D01*
Y97263D01*
X22328Y97938D01*
X22628Y98538D01*
X22988Y98838D01*
X23408Y98988D01*
X23888Y98838D01*
X24248Y98538D01*
X24488Y98088D01*
X24608Y97488D01*
X24488Y96963D01*
X24188Y96438D01*
X23828Y96138D01*
X23408Y96063D01*
X22928Y96213D01*
X22568Y96588D01*
X22208Y97263D01*
G01X54757Y207630D02*
X54363Y207236D01*
X53920Y207000D01*
X53527D01*
X53133Y207236D01*
X52838Y207630D01*
X52690Y208181D01*
X52788Y208732D01*
X53034Y209204D01*
X53477Y209520D01*
X54068Y209677D01*
X54413Y209992D01*
X54560Y210543D01*
X54462Y211094D01*
X54216Y211488D01*
X53871Y211724D01*
X53527D01*
X53182Y211567D01*
X52887Y211173D01*
G01X51066Y211724D02*
X50377Y207000D01*
X49590Y211724D01*
X48802Y207000D01*
X48113Y211724D01*
G01X46538Y207000D02*
Y211724D01*
X45554D01*
X45160Y211488D01*
X44865Y211173D01*
X44619Y210701D01*
X44422Y210149D01*
X44373Y209362D01*
X44422Y208575D01*
X44619Y208023D01*
X44865Y207551D01*
X45160Y207236D01*
X45554Y207000D01*
X46538D01*
G01X41912Y211724D02*
X40731D01*
G01X41322D02*
Y207000D01*
G01X41912D02*
X40731D01*
G01X37188D02*
X37581Y207079D01*
X37926Y207394D01*
X38221Y207866D01*
X38418Y208417D01*
X38516Y209047D01*
Y209677D01*
X38418Y210307D01*
X38221Y210858D01*
X37926Y211330D01*
X37581Y211645D01*
X37188Y211724D01*
X36794Y211645D01*
X36449Y211330D01*
X36154Y210858D01*
X35957Y210307D01*
X35859Y209677D01*
Y209047D01*
X35957Y208417D01*
X36154Y207866D01*
X36449Y207394D01*
X36794Y207079D01*
X37188Y207000D01*
G01X54757Y197430D02*
X54363Y197036D01*
X53920Y196800D01*
X53527D01*
X53133Y197036D01*
X52838Y197430D01*
X52690Y197981D01*
X52788Y198532D01*
X53034Y199004D01*
X53477Y199320D01*
X54068Y199477D01*
X54413Y199792D01*
X54560Y200343D01*
X54462Y200894D01*
X54216Y201288D01*
X53871Y201524D01*
X53527D01*
X53182Y201367D01*
X52887Y200973D01*
G01X51066Y201524D02*
X50377Y196800D01*
X49590Y201524D01*
X48802Y196800D01*
X48113Y201524D01*
G01X44373Y201130D02*
X44668Y201367D01*
X45013Y201524D01*
X45406D01*
X45849Y201288D01*
X46194Y200894D01*
X46440Y200422D01*
X46637Y199634D01*
X46686Y198926D01*
X46587Y198217D01*
X46440Y197745D01*
X46145Y197272D01*
X45800Y196957D01*
X45456Y196800D01*
X45111D01*
X44766Y196957D01*
X44471Y197194D01*
X44225Y197508D01*
G01X42306Y201524D02*
Y196800D01*
X40337D01*
G01X38270D02*
Y201524D01*
G01X36400D02*
X38270Y198611D01*
G01X36105Y196800D02*
X37434Y199949D01*
G01X64735Y54331D02*
X65215Y54406D01*
X65635Y54706D01*
X65995Y55156D01*
X66235Y55681D01*
X66355Y56281D01*
Y56881D01*
X66235Y57481D01*
X65995Y58006D01*
X65635Y58456D01*
X65215Y58756D01*
X64735Y58831D01*
X64255Y58756D01*
X63835Y58456D01*
X63475Y58006D01*
X63235Y57481D01*
X63115Y56881D01*
Y56281D01*
X63235Y55681D01*
X63475Y55156D01*
X63835Y54706D01*
X64255Y54406D01*
X64735Y54331D01*
G01X64255Y55531D02*
X63535Y54331D01*
G01X61735Y55231D02*
X61375Y54706D01*
X60895Y54406D01*
X60355Y54331D01*
X59875Y54406D01*
X59395Y54781D01*
X59095Y55231D01*
X59035Y55681D01*
X59155Y56206D01*
X59575Y56581D01*
X59995Y56731D01*
X60535D01*
G01X59995D02*
X59635Y56956D01*
X59335Y57331D01*
X59215Y57781D01*
X59335Y58231D01*
X59635Y58606D01*
X60175Y58831D01*
X60715Y58756D01*
X61255Y58456D01*
G01X53055Y58092D02*
Y54506D01*
G01X46156Y54352D02*
Y50251D01*
G01D02*
X53055D01*
G01X69872Y74016D02*
Y78516D01*
X68372D01*
X67892Y78291D01*
X67592Y77991D01*
X67472Y77391D01*
X67592Y76791D01*
X67952Y76416D01*
X68372Y76191D01*
X69872D01*
G01X68372D02*
X67472Y74016D01*
G01X64352D02*
Y78516D01*
X65072Y77616D01*
G01Y74016D02*
X63632D01*
G01X60032D02*
X59612Y74091D01*
X59132Y74316D01*
X58832Y74691D01*
X58712Y75216D01*
X58832Y75741D01*
X59192Y76191D01*
X59732Y76416D01*
X60332D01*
X60692Y76566D01*
X60992Y76941D01*
X61112Y77466D01*
X60932Y77991D01*
X60512Y78366D01*
X60032Y78516D01*
X59552Y78366D01*
X59132Y77991D01*
X58952Y77466D01*
X59072Y76941D01*
X59372Y76566D01*
X59732Y76416D01*
X60332D01*
X60872Y76191D01*
X61232Y75741D01*
X61352Y75216D01*
X61232Y74691D01*
X60932Y74316D01*
X60452Y74091D01*
X60032Y74016D01*
G01X56540Y80381D02*
X51481D01*
G01X56540Y73161D02*
Y80381D01*
G01Y73161D02*
X51481D01*
G01X47732Y80381D02*
X42673D01*
G01Y73161D02*
Y80381D01*
G01X47732Y73161D02*
X42673D01*
G01X69872Y83465D02*
Y87965D01*
X68372D01*
X67892Y87740D01*
X67592Y87440D01*
X67472Y86840D01*
X67592Y86240D01*
X67952Y85865D01*
X68372Y85640D01*
X69872D01*
G01X68372D02*
X67472Y83465D01*
G01X64352D02*
Y87965D01*
X65072Y87065D01*
G01Y83465D02*
X63632D01*
G01X61052Y83990D02*
X60632Y83615D01*
X60152Y83465D01*
X59672Y83615D01*
X59252Y84065D01*
X58952Y84740D01*
X58832Y85415D01*
Y86240D01*
X58952Y86915D01*
X59252Y87515D01*
X59612Y87815D01*
X60032Y87965D01*
X60512Y87815D01*
X60872Y87515D01*
X61112Y87065D01*
X61232Y86465D01*
X61112Y85940D01*
X60812Y85415D01*
X60452Y85115D01*
X60032Y85040D01*
X59552Y85190D01*
X59192Y85565D01*
X58832Y86240D01*
G01X56540Y81822D02*
Y89043D01*
G01Y81822D02*
X51481D01*
G01X42673D02*
Y89043D01*
G01X47732Y81822D02*
X42673D01*
G01X69872Y65748D02*
Y70248D01*
X68372D01*
X67892Y70023D01*
X67592Y69723D01*
X67472Y69123D01*
X67592Y68523D01*
X67952Y68148D01*
X68372Y67923D01*
X69872D01*
G01X68372D02*
X67472Y65748D01*
G01X65492Y69498D02*
X65132Y69948D01*
X64712Y70173D01*
X64232Y70248D01*
X63632Y70098D01*
X63212Y69723D01*
X63092Y69273D01*
X63152Y68823D01*
X63392Y68448D01*
X64592Y67698D01*
X65132Y67173D01*
X65492Y66423D01*
X65612Y65748D01*
X63092D01*
G01X60032Y70248D02*
X60512Y70098D01*
X60872Y69723D01*
X61112Y69273D01*
X61292Y68673D01*
X61352Y67998D01*
X61292Y67323D01*
X61112Y66723D01*
X60872Y66273D01*
X60512Y65898D01*
X60032Y65748D01*
X59552Y65898D01*
X59192Y66273D01*
X58952Y66723D01*
X58772Y67323D01*
X58712Y67998D01*
X58772Y68673D01*
X58952Y69273D01*
X59192Y69723D01*
X59552Y70098D01*
X60032Y70248D01*
G01X56540Y71720D02*
X51481D01*
G01X56540Y64499D02*
Y71720D01*
G01Y64499D02*
X51481D01*
G01X47732Y71720D02*
X42673D01*
G01Y64499D02*
Y71720D01*
G01X47732Y64499D02*
X42673D01*
G01X46156Y62347D02*
Y58246D01*
G01Y62347D02*
X53055D01*
G01X56540Y89043D02*
X51481D01*
G01X47732D02*
X42673D01*
G01X54855Y186600D02*
Y191324D01*
X52592Y186600D01*
Y191324D01*
G01X50574Y186600D02*
Y191324D01*
X49343D01*
X48950Y191088D01*
X48704Y190773D01*
X48605Y190143D01*
X48704Y189513D01*
X48999Y189120D01*
X49343Y188883D01*
X50574D01*
G01X49343D02*
X48605Y186600D01*
G01X46489Y187230D02*
X46095Y186836D01*
X45652Y186600D01*
X45259D01*
X44865Y186836D01*
X44570Y187230D01*
X44422Y187781D01*
X44520Y188332D01*
X44766Y188804D01*
X45209Y189120D01*
X45800Y189277D01*
X46145Y189592D01*
X46292Y190143D01*
X46194Y190694D01*
X45948Y191088D01*
X45603Y191324D01*
X45259D01*
X44914Y191167D01*
X44619Y190773D01*
G01X41322Y191324D02*
Y186600D01*
G01X42453Y191324D02*
X40190D01*
G01X53428Y218962D02*
X52444D01*
Y217545D01*
X52739Y217072D01*
X53084Y216757D01*
X53576Y216600D01*
X54068Y216757D01*
X54413Y217072D01*
X54708Y217545D01*
X54905Y218096D01*
X55003Y218726D01*
Y219277D01*
X54905Y219749D01*
X54708Y220301D01*
X54413Y220773D01*
X54117Y221088D01*
X53724Y221324D01*
X53379D01*
X52985Y221167D01*
X52690Y220852D01*
G01X50721Y216600D02*
Y221324D01*
X48458Y216600D01*
Y221324D01*
G01X46538Y216600D02*
Y221324D01*
X45554D01*
X45160Y221088D01*
X44865Y220773D01*
X44619Y220301D01*
X44422Y219749D01*
X44373Y218962D01*
X44422Y218175D01*
X44619Y217623D01*
X44865Y217151D01*
X45160Y216836D01*
X45554Y216600D01*
X46538D01*
G01X66723Y228459D02*
X66423Y228009D01*
X66063Y227709D01*
X65643Y227559D01*
X65163Y227709D01*
X64803Y228009D01*
X64443Y228459D01*
X64323Y229059D01*
Y232059D01*
G01X62343Y229434D02*
X61923Y229959D01*
X61563Y230259D01*
X61083Y230409D01*
X60663Y230259D01*
X60363Y229959D01*
X60123Y229509D01*
X60063Y228984D01*
X60123Y228534D01*
X60363Y228084D01*
X60723Y227709D01*
X61143Y227559D01*
X61623Y227709D01*
X62043Y228159D01*
X62283Y228834D01*
X62343Y229584D01*
X62223Y230559D01*
X62043Y231084D01*
X61743Y231609D01*
X61323Y231984D01*
X60903Y232059D01*
X60483Y231909D01*
X60183Y231534D01*
G01X61998Y237008D02*
Y241508D01*
X60498D01*
X60018Y241283D01*
X59718Y240983D01*
X59598Y240383D01*
X59718Y239783D01*
X60078Y239408D01*
X60498Y239183D01*
X61998D01*
G01X60498D02*
X59598Y237008D01*
G01X57798Y237908D02*
X57438Y237383D01*
X56958Y237083D01*
X56418Y237008D01*
X55938Y237083D01*
X55458Y237458D01*
X55158Y237908D01*
X55098Y238358D01*
X55218Y238883D01*
X55638Y239258D01*
X56058Y239408D01*
X56598D01*
G01X56058D02*
X55698Y239633D01*
X55398Y240008D01*
X55278Y240458D01*
X55398Y240908D01*
X55698Y241283D01*
X56238Y241508D01*
X56778Y241433D01*
X57318Y241133D01*
G01X52121Y244422D02*
X57180D01*
G01X52121Y251643D02*
Y244422D01*
G01X60929D02*
X65988D01*
G01Y251643D02*
Y244422D01*
G01X71763Y273975D02*
X70484D01*
G01X68072Y273108D02*
X67777Y272715D01*
X67432Y272479D01*
X66990Y272400D01*
X66547Y272557D01*
X66202Y272872D01*
X65956Y273423D01*
X65907Y274053D01*
X66005Y274683D01*
X66251Y275077D01*
X66596Y275392D01*
X66940Y275471D01*
X67285Y275392D01*
X67728Y275077D01*
X67580Y277124D01*
X66251D01*
G01X64086D02*
X62856Y272400D01*
X61625Y277124D01*
G01X60198Y270825D02*
X57245D01*
G01X54588Y272400D02*
X54981Y272479D01*
X55326Y272794D01*
X55621Y273266D01*
X55818Y273817D01*
X55916Y274447D01*
Y275077D01*
X55818Y275707D01*
X55621Y276258D01*
X55326Y276730D01*
X54981Y277045D01*
X54588Y277124D01*
X54194Y277045D01*
X53849Y276730D01*
X53554Y276258D01*
X53357Y275707D01*
X53259Y275077D01*
Y274447D01*
X53357Y273817D01*
X53554Y273266D01*
X53849Y272794D01*
X54194Y272479D01*
X54588Y272400D01*
G01X51585D02*
Y277124D01*
X49322Y272400D01*
Y277124D01*
G01X52121Y251643D02*
X57180D01*
G01X60929D02*
X65988D01*
G01X61920Y263400D02*
Y267900D01*
X60720D01*
X60240Y267675D01*
X59880Y267375D01*
X59580Y266925D01*
X59340Y266400D01*
X59280Y265650D01*
X59340Y264900D01*
X59580Y264375D01*
X59880Y263925D01*
X60240Y263625D01*
X60720Y263400D01*
X61920D01*
G01X57420Y267150D02*
X57060Y267600D01*
X56640Y267825D01*
X56160Y267900D01*
X55560Y267750D01*
X55140Y267375D01*
X55020Y266925D01*
X55080Y266475D01*
X55320Y266100D01*
X56520Y265350D01*
X57060Y264825D01*
X57420Y264075D01*
X57540Y263400D01*
X55020D01*
G01X87195Y237008D02*
Y241508D01*
X85695D01*
X85215Y241283D01*
X84915Y240983D01*
X84795Y240383D01*
X84915Y239783D01*
X85275Y239408D01*
X85695Y239183D01*
X87195D01*
G01X85695D02*
X84795Y237008D01*
G01X82815Y240758D02*
X82455Y241208D01*
X82035Y241433D01*
X81555Y241508D01*
X80955Y241358D01*
X80535Y240983D01*
X80415Y240533D01*
X80475Y240083D01*
X80715Y239708D01*
X81915Y238958D01*
X82455Y238433D01*
X82815Y237683D01*
X82935Y237008D01*
X80415D01*
G01X90792Y244420D02*
Y251641D01*
G01Y244420D02*
X85733D01*
G01X76925D02*
Y251641D01*
G01X81984Y244420D02*
X76925D01*
G01X96865Y273975D02*
X95684D01*
G01X96324Y274998D02*
Y272951D01*
G01X93272Y273108D02*
X92977Y272715D01*
X92632Y272479D01*
X92190Y272400D01*
X91747Y272557D01*
X91402Y272872D01*
X91156Y273423D01*
X91107Y274053D01*
X91205Y274683D01*
X91451Y275077D01*
X91796Y275392D01*
X92140Y275471D01*
X92485Y275392D01*
X92928Y275077D01*
X92780Y277124D01*
X91451D01*
G01X89286D02*
X88056Y272400D01*
X86825Y277124D01*
G01X85398Y270825D02*
X82445D01*
G01X79788Y272400D02*
X80181Y272479D01*
X80526Y272794D01*
X80821Y273266D01*
X81018Y273817D01*
X81116Y274447D01*
Y275077D01*
X81018Y275707D01*
X80821Y276258D01*
X80526Y276730D01*
X80181Y277045D01*
X79788Y277124D01*
X79394Y277045D01*
X79049Y276730D01*
X78754Y276258D01*
X78557Y275707D01*
X78459Y275077D01*
Y274447D01*
X78557Y273817D01*
X78754Y273266D01*
X79049Y272794D01*
X79394Y272479D01*
X79788Y272400D01*
G01X76785D02*
Y277124D01*
X74522Y272400D01*
Y277124D01*
G01X83258Y278346D02*
Y282846D01*
X81758D01*
X81278Y282621D01*
X80978Y282321D01*
X80858Y281721D01*
X80978Y281121D01*
X81338Y280746D01*
X81758Y280521D01*
X83258D01*
G01X81758D02*
X80858Y278346D01*
G01X78878Y282096D02*
X78518Y282546D01*
X78098Y282771D01*
X77618Y282846D01*
X77018Y282696D01*
X76598Y282321D01*
X76478Y281871D01*
X76538Y281421D01*
X76778Y281046D01*
X77978Y280296D01*
X78518Y279771D01*
X78878Y279021D01*
X78998Y278346D01*
X76478D01*
G01X72698D02*
Y282846D01*
X74918Y279621D01*
X71918D01*
G01X90792Y251641D02*
X85733D01*
G01X81984D02*
X76925D01*
G01X87120Y263400D02*
Y267900D01*
X85920D01*
X85440Y267675D01*
X85080Y267375D01*
X84780Y266925D01*
X84540Y266400D01*
X84480Y265650D01*
X84540Y264900D01*
X84780Y264375D01*
X85080Y263925D01*
X85440Y263625D01*
X85920Y263400D01*
X87120D01*
G01X81480D02*
Y267900D01*
X82200Y267000D01*
G01Y263400D02*
X80760D01*
G01X75130Y301816D02*
Y296757D01*
G01X82351Y301816D02*
X75130D01*
G01X82351D02*
Y296757D01*
G01X75130Y293008D02*
Y287949D01*
G01X82351D02*
X75130D01*
G01X82351Y293008D02*
Y287949D01*
G01X117500Y317224D02*
X116811Y312500D01*
X116024Y317224D01*
X115236Y312500D01*
X114547Y317224D01*
G01X111890Y315649D02*
Y312500D01*
G01Y316909D02*
X111988Y316988D01*
Y317145D01*
X111890Y317224D01*
X111791Y317145D01*
Y316988D01*
X111890Y316909D01*
G01X108691Y312500D02*
Y317224D01*
X106820D01*
G01X107509Y314941D02*
X108691D01*
G01X103622Y315649D02*
Y312500D01*
G01Y316909D02*
X103720Y316988D01*
Y317145D01*
X103622Y317224D01*
X103523Y317145D01*
Y316988D01*
X103622Y316909D01*
G01X100964Y310925D02*
X98011D01*
G01X96338Y312500D02*
Y317224D01*
X95107D01*
X94714Y316988D01*
X94468Y316673D01*
X94369Y316043D01*
X94468Y315413D01*
X94763Y315020D01*
X95107Y314783D01*
X96338D01*
G01X95107D02*
X94369Y312500D01*
G01X92253Y313130D02*
X91859Y312736D01*
X91416Y312500D01*
X91023D01*
X90629Y312736D01*
X90334Y313130D01*
X90186Y313681D01*
X90284Y314232D01*
X90530Y314704D01*
X90973Y315020D01*
X91564Y315177D01*
X91909Y315492D01*
X92056Y316043D01*
X91958Y316594D01*
X91712Y316988D01*
X91367Y317224D01*
X91023D01*
X90678Y317067D01*
X90383Y316673D01*
G01X87086Y317224D02*
Y312500D01*
G01X88217Y317224D02*
X85954D01*
G01X86802Y330315D02*
Y334815D01*
X85302D01*
X84822Y334590D01*
X84522Y334290D01*
X84402Y333690D01*
X84522Y333090D01*
X84882Y332715D01*
X85302Y332490D01*
X86802D01*
G01X85302D02*
X84402Y330315D01*
G01X82422Y334065D02*
X82062Y334515D01*
X81642Y334740D01*
X81162Y334815D01*
X80562Y334665D01*
X80142Y334290D01*
X80022Y333840D01*
X80082Y333390D01*
X80322Y333015D01*
X81522Y332265D01*
X82062Y331740D01*
X82422Y330990D01*
X82542Y330315D01*
X80022D01*
G01X78282Y330990D02*
X77922Y330615D01*
X77502Y330390D01*
X76962Y330315D01*
X76422Y330465D01*
X76002Y330765D01*
X75702Y331290D01*
X75642Y331890D01*
X75762Y332490D01*
X76062Y332865D01*
X76482Y333165D01*
X76902Y333240D01*
X77322Y333165D01*
X77862Y332865D01*
X77682Y334815D01*
X76062D01*
G01X90311Y328672D02*
Y335893D01*
G01X95370Y328672D02*
X90311D01*
G01X107057Y360630D02*
X106663Y360236D01*
X106220Y360000D01*
X105827D01*
X105433Y360236D01*
X105138Y360630D01*
X104990Y361181D01*
X105088Y361732D01*
X105334Y362204D01*
X105777Y362520D01*
X106368Y362677D01*
X106713Y362992D01*
X106860Y363543D01*
X106762Y364094D01*
X106516Y364488D01*
X106171Y364724D01*
X105827D01*
X105482Y364567D01*
X105187Y364173D01*
G01X101890Y360000D02*
X102283Y360079D01*
X102628Y360394D01*
X102923Y360866D01*
X103120Y361417D01*
X103218Y362047D01*
Y362677D01*
X103120Y363307D01*
X102923Y363858D01*
X102628Y364330D01*
X102283Y364645D01*
X101890Y364724D01*
X101496Y364645D01*
X101151Y364330D01*
X100856Y363858D01*
X100659Y363307D01*
X100561Y362677D01*
Y362047D01*
X100659Y361417D01*
X100856Y360866D01*
X101151Y360394D01*
X101496Y360079D01*
X101890Y360000D01*
G01X96673Y364330D02*
X96968Y364567D01*
X97313Y364724D01*
X97706D01*
X98149Y364488D01*
X98494Y364094D01*
X98740Y363622D01*
X98937Y362834D01*
X98986Y362126D01*
X98887Y361417D01*
X98740Y360945D01*
X98445Y360472D01*
X98100Y360157D01*
X97756Y360000D01*
X97411D01*
X97066Y360157D01*
X96771Y360394D01*
X96525Y360708D01*
G01X94704Y360000D02*
Y364724D01*
G01X92834D02*
X94704Y361811D01*
G01X92539Y360000D02*
X93868Y363149D01*
G01X88503Y360000D02*
X90472D01*
Y364724D01*
X88503D01*
G01X89291Y362441D02*
X90472D01*
G01X85354Y364724D02*
Y360000D01*
G01X86485Y364724D02*
X84222D01*
G01X81220Y360000D02*
Y364724D01*
X81810Y363779D01*
G01Y360000D02*
X80629D01*
G01X83888Y343495D02*
X84248Y343720D01*
X84668Y343870D01*
X85148D01*
X85688Y343645D01*
X86108Y343270D01*
X86408Y342820D01*
X86648Y342070D01*
X86708Y341395D01*
X86588Y340720D01*
X86408Y340270D01*
X86048Y339820D01*
X85628Y339520D01*
X85208Y339370D01*
X84788D01*
X84368Y339520D01*
X84008Y339745D01*
X83708Y340045D01*
G01X80888Y339370D02*
Y343870D01*
X81608Y342970D01*
G01Y339370D02*
X80168D01*
G01X75848D02*
Y343870D01*
X78068Y340645D01*
X75068D01*
G01X90113Y337781D02*
G02X89513Y338381I0J600D01*
G01Y344296D02*
G02X90113Y344896I600J0D01*
G01X89513Y344296D02*
Y338381D01*
G01X90113Y344896D02*
X95664D01*
G01X90113Y337781D02*
X95664D01*
G01X95370Y335893D02*
X90311D01*
G01X86802Y348425D02*
Y352925D01*
X85302D01*
X84822Y352700D01*
X84522Y352400D01*
X84402Y351800D01*
X84522Y351200D01*
X84882Y350825D01*
X85302Y350600D01*
X86802D01*
G01X85302D02*
X84402Y348425D01*
G01X82422Y352175D02*
X82062Y352625D01*
X81642Y352850D01*
X81162Y352925D01*
X80562Y352775D01*
X80142Y352400D01*
X80022Y351950D01*
X80082Y351500D01*
X80322Y351125D01*
X81522Y350375D01*
X82062Y349850D01*
X82422Y349100D01*
X82542Y348425D01*
X80022D01*
G01X77982Y348950D02*
X77562Y348575D01*
X77082Y348425D01*
X76602Y348575D01*
X76182Y349025D01*
X75882Y349700D01*
X75762Y350375D01*
Y351200D01*
X75882Y351875D01*
X76182Y352475D01*
X76542Y352775D01*
X76962Y352925D01*
X77442Y352775D01*
X77802Y352475D01*
X78042Y352025D01*
X78162Y351425D01*
X78042Y350900D01*
X77742Y350375D01*
X77382Y350075D01*
X76962Y350000D01*
X76482Y350150D01*
X76122Y350525D01*
X75762Y351200D01*
G01X95370Y354004D02*
X90311D01*
G01Y346783D02*
Y354004D01*
G01X95370Y346783D02*
X90311D01*
G01X84559Y372441D02*
Y376941D01*
X83359D01*
X82879Y376716D01*
X82519Y376416D01*
X82219Y375966D01*
X81979Y375441D01*
X81919Y374691D01*
X81979Y373941D01*
X82219Y373416D01*
X82519Y372966D01*
X82879Y372666D01*
X83359Y372441D01*
X84559D01*
G01X78919D02*
Y376941D01*
X79639Y376041D01*
G01Y372441D02*
X78199D01*
G01X75919Y373341D02*
X75559Y372816D01*
X75079Y372516D01*
X74539Y372441D01*
X74059Y372516D01*
X73579Y372891D01*
X73279Y373341D01*
X73219Y373791D01*
X73339Y374316D01*
X73759Y374691D01*
X74179Y374841D01*
X74719D01*
G01X74179D02*
X73819Y375066D01*
X73519Y375441D01*
X73399Y375891D01*
X73519Y376341D01*
X73819Y376716D01*
X74359Y376941D01*
X74899Y376866D01*
X75439Y376566D01*
G01X103342Y245026D02*
G02X102742Y245626I0J600D01*
G01X109857D02*
G02X109257Y245026I-600J0D01*
G01D02*
X103342D01*
G01X109857Y251177D02*
Y245626D01*
G01X102742Y251177D02*
Y245626D01*
G01X105148Y268298D02*
X105508Y268523D01*
X105928Y268673D01*
X106408D01*
X106948Y268448D01*
X107368Y268073D01*
X107668Y267623D01*
X107908Y266873D01*
X107968Y266198D01*
X107848Y265523D01*
X107668Y265073D01*
X107308Y264623D01*
X106888Y264323D01*
X106468Y264173D01*
X106048D01*
X105628Y264323D01*
X105268Y264548D01*
X104968Y264848D01*
G01X103468Y265073D02*
X103108Y264548D01*
X102628Y264248D01*
X102088Y264173D01*
X101608Y264248D01*
X101128Y264623D01*
X100828Y265073D01*
X100768Y265523D01*
X100888Y266048D01*
X101308Y266423D01*
X101728Y266573D01*
X102268D01*
G01X101728D02*
X101368Y266798D01*
X101068Y267173D01*
X100948Y267623D01*
X101068Y268073D01*
X101368Y268448D01*
X101908Y268673D01*
X102448Y268598D01*
X102988Y268298D01*
G01X102742Y259887D02*
G02X103342Y260487I600J0D01*
G01X109257D02*
G02X109857Y259887I0J-600D01*
G01X109257Y260487D02*
X103342D01*
G01X109857Y259887D02*
Y254336D01*
G01X102742Y259887D02*
Y254336D01*
G01X107728Y278946D02*
X107248Y278571D01*
X106708Y278346D01*
X106228D01*
X105748Y278571D01*
X105388Y278946D01*
X105208Y279471D01*
X105328Y279996D01*
X105628Y280446D01*
X106168Y280746D01*
X106888Y280896D01*
X107308Y281196D01*
X107488Y281721D01*
X107368Y282246D01*
X107068Y282621D01*
X106648Y282846D01*
X106228D01*
X105808Y282696D01*
X105448Y282321D01*
G01X103948Y282846D02*
X103108Y278346D01*
X102148Y282846D01*
X101188Y278346D01*
X100348Y282846D01*
G01X99148Y279246D02*
X98788Y278721D01*
X98308Y278421D01*
X97768Y278346D01*
X97288Y278421D01*
X96808Y278796D01*
X96508Y279246D01*
X96448Y279696D01*
X96568Y280221D01*
X96988Y280596D01*
X97408Y280746D01*
X97948D01*
G01X97408D02*
X97048Y280971D01*
X96748Y281346D01*
X96628Y281796D01*
X96748Y282246D01*
X97048Y282621D01*
X97588Y282846D01*
X98128Y282771D01*
X98668Y282471D01*
G01X129951Y283653D02*
X130311Y283878D01*
X130731Y284028D01*
X131211D01*
X131751Y283803D01*
X132171Y283428D01*
X132471Y282978D01*
X132711Y282228D01*
X132771Y281553D01*
X132651Y280878D01*
X132471Y280428D01*
X132111Y279978D01*
X131691Y279678D01*
X131271Y279528D01*
X130851D01*
X130431Y279678D01*
X130071Y279903D01*
X129771Y280203D01*
G01X126951Y279528D02*
Y284028D01*
X127671Y283128D01*
G01Y279528D02*
X126231D01*
G01X123951Y280203D02*
X123591Y279828D01*
X123171Y279603D01*
X122631Y279528D01*
X122091Y279678D01*
X121671Y279978D01*
X121371Y280503D01*
X121311Y281103D01*
X121431Y281703D01*
X121731Y282078D01*
X122151Y282378D01*
X122571Y282453D01*
X122991Y282378D01*
X123531Y282078D01*
X123351Y284028D01*
X121731D01*
G01X121640Y302013D02*
G02X122240Y302613I600J0D01*
G01Y287152D02*
G02X121640Y287752I0J600D01*
G01X128155Y302613D02*
X122240D01*
G01X121640Y302013D02*
Y296462D01*
G01X128155Y287152D02*
X122240D01*
G01X121640Y293303D02*
Y287752D01*
G01X115498Y326185D02*
G02X116098Y326785I600J0D01*
G01Y319670D02*
G02X115498Y320270I0J600D01*
G01D02*
Y326185D01*
G01X121649Y319670D02*
X116098D01*
G01X121649Y326785D02*
X116098D01*
G01Y328726D02*
G02X115498Y329326I0J600D01*
G01D02*
Y335241D01*
G01X121649Y328726D02*
X116098D01*
G01X104178Y328672D02*
Y335893D01*
G01Y328672D02*
X99119D01*
G01X139557Y360630D02*
X139163Y360236D01*
X138720Y360000D01*
X138327D01*
X137933Y360236D01*
X137638Y360630D01*
X137490Y361181D01*
X137588Y361732D01*
X137834Y362204D01*
X138277Y362520D01*
X138868Y362677D01*
X139213Y362992D01*
X139360Y363543D01*
X139262Y364094D01*
X139016Y364488D01*
X138671Y364724D01*
X138327D01*
X137982Y364567D01*
X137687Y364173D01*
G01X134390Y360000D02*
X134783Y360079D01*
X135128Y360394D01*
X135423Y360866D01*
X135620Y361417D01*
X135718Y362047D01*
Y362677D01*
X135620Y363307D01*
X135423Y363858D01*
X135128Y364330D01*
X134783Y364645D01*
X134390Y364724D01*
X133996Y364645D01*
X133651Y364330D01*
X133356Y363858D01*
X133159Y363307D01*
X133061Y362677D01*
Y362047D01*
X133159Y361417D01*
X133356Y360866D01*
X133651Y360394D01*
X133996Y360079D01*
X134390Y360000D01*
G01X129173Y364330D02*
X129468Y364567D01*
X129813Y364724D01*
X130206D01*
X130649Y364488D01*
X130994Y364094D01*
X131240Y363622D01*
X131437Y362834D01*
X131486Y362126D01*
X131387Y361417D01*
X131240Y360945D01*
X130945Y360472D01*
X130600Y360157D01*
X130256Y360000D01*
X129911D01*
X129566Y360157D01*
X129271Y360394D01*
X129025Y360708D01*
G01X127204Y360000D02*
Y364724D01*
G01X125334D02*
X127204Y361811D01*
G01X125039Y360000D02*
X126368Y363149D01*
G01X121003Y360000D02*
X122972D01*
Y364724D01*
X121003D01*
G01X121791Y362441D02*
X122972D01*
G01X117854Y364724D02*
Y360000D01*
G01X118985Y364724D02*
X116722D01*
G01X114655Y363937D02*
X114359Y364409D01*
X114015Y364645D01*
X113621Y364724D01*
X113129Y364567D01*
X112784Y364173D01*
X112686Y363701D01*
X112735Y363228D01*
X112932Y362834D01*
X113916Y362047D01*
X114359Y361496D01*
X114655Y360708D01*
X114753Y360000D01*
X112686D01*
G01X104974Y338381D02*
G02X104374Y337781I-600J0D01*
G01Y344896D02*
G02X104974Y344296I0J-600D01*
G01D02*
Y338381D01*
G01X98823Y344896D02*
X104374D01*
G01X98823Y337781D02*
X104374D01*
G01X115498Y335241D02*
G02X116098Y335841I600J0D01*
G01X121649D02*
X116098D01*
G01X104178Y335893D02*
X99119D01*
G01X121354Y344948D02*
X116295D01*
G01Y337728D02*
Y344948D01*
G01X121354Y337728D02*
X116295D01*
G01X116294Y346784D02*
X121354D01*
G01X116294Y354005D02*
Y346784D01*
G01Y354005D02*
X121354D01*
G01X104178Y354004D02*
X99119D01*
G01X104178Y346783D02*
Y354004D01*
G01Y346783D02*
X99119D01*
G01X135463Y28534D02*
X135823Y28759D01*
X136243Y28909D01*
X136723D01*
X137263Y28684D01*
X137683Y28309D01*
X137983Y27859D01*
X138223Y27109D01*
X138283Y26434D01*
X138163Y25759D01*
X137983Y25309D01*
X137623Y24859D01*
X137203Y24559D01*
X136783Y24409D01*
X136363D01*
X135943Y24559D01*
X135583Y24784D01*
X135283Y25084D01*
G01X132583Y24409D02*
X132463Y25384D01*
X132283Y26209D01*
X132043Y26959D01*
X131743Y27784D01*
X131263Y28909D01*
X133663D01*
G01X143657Y23607D02*
G02X143057Y24207I0J600D01*
G01D02*
Y30122D01*
G01X149208Y23607D02*
X143657D01*
G01X137589Y16929D02*
Y21429D01*
X136089D01*
X135609Y21204D01*
X135309Y20904D01*
X135189Y20304D01*
X135309Y19704D01*
X135669Y19329D01*
X136089Y19104D01*
X137589D01*
G01X136089D02*
X135189Y16929D01*
G01X133089Y17454D02*
X132669Y17079D01*
X132189Y16929D01*
X131709Y17079D01*
X131289Y17529D01*
X130989Y18204D01*
X130869Y18879D01*
Y19704D01*
X130989Y20379D01*
X131289Y20979D01*
X131649Y21279D01*
X132069Y21429D01*
X132549Y21279D01*
X132909Y20979D01*
X133149Y20529D01*
X133269Y19929D01*
X133149Y19404D01*
X132849Y18879D01*
X132489Y18579D01*
X132069Y18504D01*
X131589Y18654D01*
X131229Y19029D01*
X130869Y19704D01*
G01X148913Y22901D02*
X143854D01*
G01Y15680D02*
Y22901D01*
G01X148913Y15680D02*
X143854D01*
G01X143057Y30122D02*
G02X143657Y30722I600J0D01*
G01X149208D02*
X143657D01*
G01X135463Y36802D02*
X135823Y37027D01*
X136243Y37177D01*
X136723D01*
X137263Y36952D01*
X137683Y36577D01*
X137983Y36127D01*
X138223Y35377D01*
X138283Y34702D01*
X138163Y34027D01*
X137983Y33577D01*
X137623Y33127D01*
X137203Y32827D01*
X136783Y32677D01*
X136363D01*
X135943Y32827D01*
X135583Y33052D01*
X135283Y33352D01*
G01X132463Y32677D02*
Y37177D01*
X133183Y36277D01*
G01Y32677D02*
X131743D01*
G01X128143Y37177D02*
X128623Y37027D01*
X128983Y36652D01*
X129223Y36202D01*
X129403Y35602D01*
X129463Y34927D01*
X129403Y34252D01*
X129223Y33652D01*
X128983Y33202D01*
X128623Y32827D01*
X128143Y32677D01*
X127663Y32827D01*
X127303Y33202D01*
X127063Y33652D01*
X126883Y34252D01*
X126823Y34927D01*
X126883Y35602D01*
X127063Y36202D01*
X127303Y36652D01*
X127663Y37027D01*
X128143Y37177D01*
G01X143057Y37996D02*
G02X143657Y38596I600J0D01*
G01Y31481D02*
G02X143057Y32081I0J600D01*
G01D02*
Y37996D01*
G01X149208Y31481D02*
X143657D01*
G01X149208Y38596D02*
X143657D01*
G01X137983Y49213D02*
Y53713D01*
X136483D01*
X136003Y53488D01*
X135703Y53188D01*
X135583Y52588D01*
X135703Y51988D01*
X136063Y51613D01*
X136483Y51388D01*
X137983D01*
G01X136483D02*
X135583Y49213D01*
G01X132583D02*
X132463Y50188D01*
X132283Y51013D01*
X132043Y51763D01*
X131743Y52588D01*
X131263Y53713D01*
X133663D01*
G01X148913Y54397D02*
X143854D01*
G01Y47176D02*
Y54397D01*
G01X148913Y47176D02*
X143854D01*
G01X137983Y41339D02*
Y45839D01*
X136483D01*
X136003Y45614D01*
X135703Y45314D01*
X135583Y44714D01*
X135703Y44114D01*
X136063Y43739D01*
X136483Y43514D01*
X137983D01*
G01X136483D02*
X135583Y41339D01*
G01X132463D02*
Y45839D01*
X133183Y44939D01*
G01Y41339D02*
X131743D01*
G01X129463Y42239D02*
X129103Y41714D01*
X128623Y41414D01*
X128083Y41339D01*
X127603Y41414D01*
X127123Y41789D01*
X126823Y42239D01*
X126763Y42689D01*
X126883Y43214D01*
X127303Y43589D01*
X127723Y43739D01*
X128263D01*
G01X127723D02*
X127363Y43964D01*
X127063Y44339D01*
X126943Y44789D01*
X127063Y45239D01*
X127363Y45614D01*
X127903Y45839D01*
X128443Y45764D01*
X128983Y45464D01*
G01X148913Y46523D02*
X143854D01*
G01Y39302D02*
Y46523D01*
G01X148913Y39302D02*
X143854D01*
G01X137983Y56693D02*
Y61193D01*
X136483D01*
X136003Y60968D01*
X135703Y60668D01*
X135583Y60068D01*
X135703Y59468D01*
X136063Y59093D01*
X136483Y58868D01*
X137983D01*
G01X136483D02*
X135583Y56693D01*
G01X132463D02*
Y61193D01*
X133183Y60293D01*
G01Y56693D02*
X131743D01*
G01X127423D02*
Y61193D01*
X129643Y57968D01*
X126643D01*
G01X143854Y55050D02*
Y62271D01*
G01X148913Y55050D02*
X143854D01*
G01X135463Y69873D02*
X135823Y70098D01*
X136243Y70248D01*
X136723D01*
X137263Y70023D01*
X137683Y69648D01*
X137983Y69198D01*
X138223Y68448D01*
X138283Y67773D01*
X138163Y67098D01*
X137983Y66648D01*
X137623Y66198D01*
X137203Y65898D01*
X136783Y65748D01*
X136363D01*
X135943Y65898D01*
X135583Y66123D01*
X135283Y66423D01*
G01X132463Y65748D02*
Y70248D01*
X133183Y69348D01*
G01Y65748D02*
X131743D01*
G01X129283Y69498D02*
X128923Y69948D01*
X128503Y70173D01*
X128023Y70248D01*
X127423Y70098D01*
X127003Y69723D01*
X126883Y69273D01*
X126943Y68823D01*
X127183Y68448D01*
X128383Y67698D01*
X128923Y67173D01*
X129283Y66423D01*
X129403Y65748D01*
X126883D01*
G01X143451Y70280D02*
G02X144051Y70880I600J0D01*
G01Y63765D02*
G02X143451Y64365I0J600D01*
G01D02*
Y70280D01*
G01X149602Y63765D02*
X144051D01*
G01X149602Y70880D02*
X144051D01*
G01X138376Y73622D02*
Y78122D01*
X136876D01*
X136396Y77897D01*
X136096Y77597D01*
X135976Y76997D01*
X136096Y76397D01*
X136456Y76022D01*
X136876Y75797D01*
X138376D01*
G01X136876D02*
X135976Y73622D01*
G01X134176Y74297D02*
X133816Y73922D01*
X133396Y73697D01*
X132856Y73622D01*
X132316Y73772D01*
X131896Y74072D01*
X131596Y74597D01*
X131536Y75197D01*
X131656Y75797D01*
X131956Y76172D01*
X132376Y76472D01*
X132796Y76547D01*
X133216Y76472D01*
X133756Y76172D01*
X133576Y78122D01*
X131956D01*
G01X149307Y79200D02*
X144248D01*
G01Y71980D02*
Y79200D01*
G01X149307Y71980D02*
X144248D01*
G01X148913Y62271D02*
X143854D01*
G01X141203Y124682D02*
X137674D01*
G01D02*
Y128211D01*
G01Y161553D02*
Y165082D01*
G01D02*
X141203D01*
G01X125152Y191325D02*
G02X124552Y191925I0J600D01*
G01X140013D02*
G02X139413Y191325I-600J0D01*
G01X124552Y197840D02*
Y191925D01*
G01X125152Y191325D02*
X130704D01*
G01X140013Y197840D02*
Y191925D01*
G01X133863Y191325D02*
X139413D01*
G01X137195Y175984D02*
Y180484D01*
X135695D01*
X135215Y180259D01*
X134915Y179959D01*
X134795Y179359D01*
X134915Y178759D01*
X135275Y178384D01*
X135695Y178159D01*
X137195D01*
G01X135695D02*
X134795Y175984D01*
G01X132995Y176884D02*
X132635Y176359D01*
X132155Y176059D01*
X131615Y175984D01*
X131135Y176059D01*
X130655Y176434D01*
X130355Y176884D01*
X130295Y177334D01*
X130415Y177859D01*
X130835Y178234D01*
X131255Y178384D01*
X131795D01*
G01X131255D02*
X130895Y178609D01*
X130595Y178984D01*
X130475Y179434D01*
X130595Y179884D01*
X130895Y180259D01*
X131435Y180484D01*
X131975Y180409D01*
X132515Y180109D01*
G01X127355Y175984D02*
X126935Y176059D01*
X126455Y176284D01*
X126155Y176659D01*
X126035Y177184D01*
X126155Y177709D01*
X126515Y178159D01*
X127055Y178384D01*
X127655D01*
X128015Y178534D01*
X128315Y178909D01*
X128435Y179434D01*
X128255Y179959D01*
X127835Y180334D01*
X127355Y180484D01*
X126875Y180334D01*
X126455Y179959D01*
X126275Y179434D01*
X126395Y178909D01*
X126695Y178534D01*
X127055Y178384D01*
X127655D01*
X128195Y178159D01*
X128555Y177709D01*
X128675Y177184D01*
X128555Y176659D01*
X128255Y176284D01*
X127775Y176059D01*
X127355Y175984D01*
G01X139217Y190224D02*
X134158D01*
G01X139217Y183003D02*
Y190224D01*
G01Y183003D02*
X134158D01*
G01X130409Y190224D02*
X125350D01*
G01Y183003D02*
Y190224D01*
G01X130409Y183003D02*
X125350D01*
G01X151211Y201369D02*
X151571Y201594D01*
X151991Y201744D01*
X152471D01*
X153011Y201519D01*
X153431Y201144D01*
X153731Y200694D01*
X153971Y199944D01*
X154031Y199269D01*
X153911Y198594D01*
X153731Y198144D01*
X153371Y197694D01*
X152951Y197394D01*
X152531Y197244D01*
X152111D01*
X151691Y197394D01*
X151331Y197619D01*
X151031Y197919D01*
G01X149531Y198144D02*
X149171Y197619D01*
X148691Y197319D01*
X148151Y197244D01*
X147671Y197319D01*
X147191Y197694D01*
X146891Y198144D01*
X146831Y198594D01*
X146951Y199119D01*
X147371Y199494D01*
X147791Y199644D01*
X148331D01*
G01X147791D02*
X147431Y199869D01*
X147131Y200244D01*
X147011Y200694D01*
X147131Y201144D01*
X147431Y201519D01*
X147971Y201744D01*
X148511Y201669D01*
X149051Y201369D01*
G01X143171Y197244D02*
Y201744D01*
X145391Y198519D01*
X142391D01*
G01X124552Y197840D02*
G02X125152Y198440I600J0D01*
G01X139413D02*
G02X140013Y197840I0J-600D01*
G01X125152Y198440D02*
X130704D01*
G01X133863D02*
X139413D01*
G01X151998Y219479D02*
X152358Y219704D01*
X152778Y219854D01*
X153258D01*
X153798Y219629D01*
X154218Y219254D01*
X154518Y218804D01*
X154758Y218054D01*
X154818Y217379D01*
X154698Y216704D01*
X154518Y216254D01*
X154158Y215804D01*
X153738Y215504D01*
X153318Y215354D01*
X152898D01*
X152478Y215504D01*
X152118Y215729D01*
X151818Y216029D01*
G01X150318Y216254D02*
X149958Y215729D01*
X149478Y215429D01*
X148938Y215354D01*
X148458Y215429D01*
X147978Y215804D01*
X147678Y216254D01*
X147618Y216704D01*
X147738Y217229D01*
X148158Y217604D01*
X148578Y217754D01*
X149118D01*
G01X148578D02*
X148218Y217979D01*
X147918Y218354D01*
X147798Y218804D01*
X147918Y219254D01*
X148218Y219629D01*
X148758Y219854D01*
X149298Y219779D01*
X149838Y219479D01*
G01X145998Y216029D02*
X145638Y215654D01*
X145218Y215429D01*
X144678Y215354D01*
X144138Y215504D01*
X143718Y215804D01*
X143418Y216329D01*
X143358Y216929D01*
X143478Y217529D01*
X143778Y217904D01*
X144198Y218204D01*
X144618Y218279D01*
X145038Y218204D01*
X145578Y217904D01*
X145398Y219854D01*
X143778D01*
G01X125152Y214553D02*
G02X124552Y215153I0J600D01*
G01Y221068D02*
G02X125152Y221668I600J0D01*
G01X140013Y215153D02*
G02X139413Y214553I-600J0D01*
G01Y221668D02*
G02X140013Y221068I0J-600D01*
G01X124552D02*
Y215153D01*
G01X125152Y221668D02*
X130704D01*
G01X125152Y214553D02*
X130704D01*
G01X140013Y221068D02*
Y215153D01*
G01X133863Y221668D02*
X139413D01*
G01X133863Y214553D02*
X139413D01*
G01X147806Y204724D02*
Y206749D01*
X149006Y209224D01*
G01X146606D02*
X147806Y206749D01*
G01X144626Y208474D02*
X144266Y208924D01*
X143846Y209149D01*
X143366Y209224D01*
X142766Y209074D01*
X142346Y208699D01*
X142226Y208249D01*
X142286Y207799D01*
X142526Y207424D01*
X143726Y206674D01*
X144266Y206149D01*
X144626Y205399D01*
X144746Y204724D01*
X142226D01*
G01X150192Y245419D02*
G02X149592Y246019I0J600D01*
G01D02*
Y251570D01*
G01X154518Y224016D02*
Y228516D01*
X153018D01*
X152538Y228291D01*
X152238Y227991D01*
X152118Y227391D01*
X152238Y226791D01*
X152598Y226416D01*
X153018Y226191D01*
X154518D01*
G01X153018D02*
X152118Y224016D01*
G01X150318Y224916D02*
X149958Y224391D01*
X149478Y224091D01*
X148938Y224016D01*
X148458Y224091D01*
X147978Y224466D01*
X147678Y224916D01*
X147618Y225366D01*
X147738Y225891D01*
X148158Y226266D01*
X148578Y226416D01*
X149118D01*
G01X148578D02*
X148218Y226641D01*
X147918Y227016D01*
X147798Y227466D01*
X147918Y227916D01*
X148218Y228291D01*
X148758Y228516D01*
X149298Y228441D01*
X149838Y228141D01*
G01X145698Y224541D02*
X145278Y224166D01*
X144798Y224016D01*
X144318Y224166D01*
X143898Y224616D01*
X143598Y225291D01*
X143478Y225966D01*
Y226791D01*
X143598Y227466D01*
X143898Y228066D01*
X144258Y228366D01*
X144678Y228516D01*
X145158Y228366D01*
X145518Y228066D01*
X145758Y227616D01*
X145878Y227016D01*
X145758Y226491D01*
X145458Y225966D01*
X145098Y225666D01*
X144678Y225591D01*
X144198Y225741D01*
X143838Y226116D01*
X143478Y226791D01*
G01X139217Y230381D02*
X134158D01*
G01X139217Y223161D02*
Y230381D01*
G01Y223161D02*
X134158D01*
G01X130409Y230381D02*
X125350D01*
G01Y223161D02*
Y230381D01*
G01X130409Y223161D02*
X125350D01*
G01X153573Y268298D02*
X153933Y268523D01*
X154353Y268673D01*
X154833D01*
X155373Y268448D01*
X155793Y268073D01*
X156093Y267623D01*
X156333Y266873D01*
X156393Y266198D01*
X156273Y265523D01*
X156093Y265073D01*
X155733Y264623D01*
X155313Y264323D01*
X154893Y264173D01*
X154473D01*
X154053Y264323D01*
X153693Y264548D01*
X153393Y264848D01*
G01X149853Y264173D02*
Y268673D01*
X152073Y265448D01*
X149073D01*
G01X149592Y260280D02*
G02X150192Y260880I600J0D01*
G01X149592Y254729D02*
Y260280D01*
G01X132985Y273791D02*
Y270566D01*
X132745Y269891D01*
X132265Y269441D01*
X131665Y269291D01*
X131065Y269441D01*
X130585Y269891D01*
X130345Y270566D01*
Y273791D01*
G01X127345Y269291D02*
Y273791D01*
X128065Y272891D01*
G01Y269291D02*
X126625D01*
G01X128155Y302613D02*
G02X128755Y302013I0J-600D01*
G01Y287752D02*
G02X128155Y287152I-600J0D01*
G01X128755Y302013D02*
Y296462D01*
G01Y293303D02*
Y287752D01*
G01X138376Y304724D02*
Y309224D01*
X136876D01*
X136396Y308999D01*
X136096Y308699D01*
X135976Y308099D01*
X136096Y307499D01*
X136456Y307124D01*
X136876Y306899D01*
X138376D01*
G01X136876D02*
X135976Y304724D01*
G01X133996Y308474D02*
X133636Y308924D01*
X133216Y309149D01*
X132736Y309224D01*
X132136Y309074D01*
X131716Y308699D01*
X131596Y308249D01*
X131656Y307799D01*
X131896Y307424D01*
X133096Y306674D01*
X133636Y306149D01*
X133996Y305399D01*
X134116Y304724D01*
X131596D01*
G01X128536D02*
X128116Y304799D01*
X127636Y305024D01*
X127336Y305399D01*
X127216Y305924D01*
X127336Y306449D01*
X127696Y306899D01*
X128236Y307124D01*
X128836D01*
X129196Y307274D01*
X129496Y307649D01*
X129616Y308174D01*
X129436Y308699D01*
X129016Y309074D01*
X128536Y309224D01*
X128056Y309074D01*
X127636Y308699D01*
X127456Y308174D01*
X127576Y307649D01*
X127876Y307274D01*
X128236Y307124D01*
X128836D01*
X129376Y306899D01*
X129736Y306449D01*
X129856Y305924D01*
X129736Y305399D01*
X129436Y305024D01*
X128956Y304799D01*
X128536Y304724D01*
G01X130642Y301816D02*
Y296757D01*
G01X137863Y301816D02*
X130642D01*
G01X137863D02*
Y296757D01*
G01X130642Y293008D02*
Y287949D01*
G01X137863D02*
X130642D01*
G01X137863Y293008D02*
Y287949D01*
G01X179459Y317224D02*
X177588D01*
X179459Y312500D01*
X177588D01*
G01X174390Y315649D02*
Y312500D01*
G01Y316909D02*
X174488Y316988D01*
Y317145D01*
X174390Y317224D01*
X174291Y317145D01*
Y316988D01*
X174390Y316909D01*
G01X170945Y311319D02*
X170600Y311004D01*
X170206Y310925D01*
X169862Y311004D01*
X169566Y311398D01*
X169370Y311949D01*
Y315649D01*
G01Y315020D02*
X169566Y315334D01*
X169862Y315571D01*
X170206Y315649D01*
X170600Y315492D01*
X170846Y315177D01*
X171043Y314626D01*
X171141Y314075D01*
X171092Y313602D01*
X170895Y313051D01*
X170600Y312657D01*
X170206Y312500D01*
X169911Y312579D01*
X169566Y312894D01*
X169370Y313208D01*
G01X165728Y315020D02*
X165531Y315256D01*
X165383Y315649D01*
X165285Y316201D01*
X165383Y316673D01*
X165580Y316988D01*
X165925Y317224D01*
X167253D01*
Y312500D01*
X165629D01*
X165285Y312815D01*
X165088Y313287D01*
X164990Y313838D01*
X165088Y314389D01*
X165383Y314862D01*
X165728Y315020D01*
X167253D01*
G01X162726Y314626D02*
X161151D01*
X161298Y315177D01*
X161545Y315492D01*
X161889Y315649D01*
X162234Y315571D01*
X162529Y315334D01*
X162726Y314783D01*
X162824Y314311D01*
Y313838D01*
X162726Y313366D01*
X162480Y312894D01*
X162184Y312579D01*
X161840Y312500D01*
X161495Y312657D01*
X161151Y313130D01*
G01X158592Y314626D02*
X157017D01*
X157164Y315177D01*
X157411Y315492D01*
X157755Y315649D01*
X158100Y315571D01*
X158395Y315334D01*
X158592Y314783D01*
X158690Y314311D01*
Y313838D01*
X158592Y313366D01*
X158346Y312894D01*
X158050Y312579D01*
X157706Y312500D01*
X157361Y312657D01*
X157017Y313130D01*
G01X155196Y310925D02*
X152243D01*
G01X150570Y312500D02*
Y317224D01*
X149339D01*
X148946Y316988D01*
X148700Y316673D01*
X148601Y316043D01*
X148700Y315413D01*
X148995Y315020D01*
X149339Y314783D01*
X150570D01*
G01X149339D02*
X148601Y312500D01*
G01X146485Y313130D02*
X146091Y312736D01*
X145648Y312500D01*
X145255D01*
X144861Y312736D01*
X144566Y313130D01*
X144418Y313681D01*
X144516Y314232D01*
X144762Y314704D01*
X145205Y315020D01*
X145796Y315177D01*
X146141Y315492D01*
X146288Y316043D01*
X146190Y316594D01*
X145944Y316988D01*
X145599Y317224D01*
X145255D01*
X144910Y317067D01*
X144615Y316673D01*
G01X141318Y317224D02*
Y312500D01*
G01X142449Y317224D02*
X140186D01*
G01X142156Y325385D02*
X142516Y325610D01*
X142936Y325760D01*
X143416D01*
X143956Y325535D01*
X144376Y325160D01*
X144676Y324710D01*
X144916Y323960D01*
X144976Y323285D01*
X144856Y322610D01*
X144676Y322160D01*
X144316Y321710D01*
X143896Y321410D01*
X143476Y321260D01*
X143056D01*
X142636Y321410D01*
X142276Y321635D01*
X141976Y321935D01*
G01X139156Y321260D02*
Y325760D01*
X139876Y324860D01*
G01Y321260D02*
X138436D01*
G01X134836D02*
X134416Y321335D01*
X133936Y321560D01*
X133636Y321935D01*
X133516Y322460D01*
X133636Y322985D01*
X133996Y323435D01*
X134536Y323660D01*
X135136D01*
X135496Y323810D01*
X135796Y324185D01*
X135916Y324710D01*
X135736Y325235D01*
X135316Y325610D01*
X134836Y325760D01*
X134356Y325610D01*
X133936Y325235D01*
X133756Y324710D01*
X133876Y324185D01*
X134176Y323810D01*
X134536Y323660D01*
X135136D01*
X135676Y323435D01*
X136036Y322985D01*
X136156Y322460D01*
X136036Y321935D01*
X135736Y321560D01*
X135256Y321335D01*
X134836Y321260D01*
G01X130359Y326785D02*
G02X130959Y326185I0J-600D01*
G01Y320270D02*
G02X130359Y319670I-600J0D01*
G01X130959Y320270D02*
Y326185D01*
G01X130359Y319670D02*
X124808D01*
G01X130359Y326785D02*
X124808D01*
G01X142156Y334046D02*
X142516Y334271D01*
X142936Y334421D01*
X143416D01*
X143956Y334196D01*
X144376Y333821D01*
X144676Y333371D01*
X144916Y332621D01*
X144976Y331946D01*
X144856Y331271D01*
X144676Y330821D01*
X144316Y330371D01*
X143896Y330071D01*
X143476Y329921D01*
X143056D01*
X142636Y330071D01*
X142276Y330296D01*
X141976Y330596D01*
G01X139156Y329921D02*
Y334421D01*
X139876Y333521D01*
G01Y329921D02*
X138436D01*
G01X135856Y330446D02*
X135436Y330071D01*
X134956Y329921D01*
X134476Y330071D01*
X134056Y330521D01*
X133756Y331196D01*
X133636Y331871D01*
Y332696D01*
X133756Y333371D01*
X134056Y333971D01*
X134416Y334271D01*
X134836Y334421D01*
X135316Y334271D01*
X135676Y333971D01*
X135916Y333521D01*
X136036Y332921D01*
X135916Y332396D01*
X135616Y331871D01*
X135256Y331571D01*
X134836Y331496D01*
X134356Y331646D01*
X133996Y332021D01*
X133636Y332696D01*
G01X130959Y329326D02*
G02X130359Y328726I-600J0D01*
G01X130959Y329326D02*
Y335241D01*
G01X130359Y328726D02*
X124808D01*
G01X130359Y335841D02*
G02X130959Y335241I0J-600D01*
G01X130359Y335841D02*
X124808D01*
G01X143888Y339370D02*
Y343870D01*
X142388D01*
X141908Y343645D01*
X141608Y343345D01*
X141488Y342745D01*
X141608Y342145D01*
X141968Y341770D01*
X142388Y341545D01*
X143888D01*
G01X142388D02*
X141488Y339370D01*
G01X139688Y340270D02*
X139328Y339745D01*
X138848Y339445D01*
X138308Y339370D01*
X137828Y339445D01*
X137348Y339820D01*
X137048Y340270D01*
X136988Y340720D01*
X137108Y341245D01*
X137528Y341620D01*
X137948Y341770D01*
X138488D01*
G01X137948D02*
X137588Y341995D01*
X137288Y342370D01*
X137168Y342820D01*
X137288Y343270D01*
X137588Y343645D01*
X138128Y343870D01*
X138668Y343795D01*
X139208Y343495D01*
G01X134048Y339370D02*
Y343870D01*
X134768Y342970D01*
G01Y339370D02*
X133328D01*
G01X130162Y344948D02*
X125103D01*
G01X130162Y337728D02*
Y344948D01*
G01Y337728D02*
X125103D01*
G01X144282Y348425D02*
Y352925D01*
X142782D01*
X142302Y352700D01*
X142002Y352400D01*
X141882Y351800D01*
X142002Y351200D01*
X142362Y350825D01*
X142782Y350600D01*
X144282D01*
G01X142782D02*
X141882Y348425D01*
G01X140082Y349325D02*
X139722Y348800D01*
X139242Y348500D01*
X138702Y348425D01*
X138222Y348500D01*
X137742Y348875D01*
X137442Y349325D01*
X137382Y349775D01*
X137502Y350300D01*
X137922Y350675D01*
X138342Y350825D01*
X138882D01*
G01X138342D02*
X137982Y351050D01*
X137682Y351425D01*
X137562Y351875D01*
X137682Y352325D01*
X137982Y352700D01*
X138522Y352925D01*
X139062Y352850D01*
X139602Y352550D01*
G01X135582Y352175D02*
X135222Y352625D01*
X134802Y352850D01*
X134322Y352925D01*
X133722Y352775D01*
X133302Y352400D01*
X133182Y351950D01*
X133242Y351500D01*
X133482Y351125D01*
X134682Y350375D01*
X135222Y349850D01*
X135582Y349100D01*
X135702Y348425D01*
X133182D01*
G01X125102Y346784D02*
X130161D01*
G01Y354005D02*
Y346784D01*
G01X125102Y354005D02*
X130161D01*
G01X145977Y372441D02*
Y376941D01*
X144777D01*
X144297Y376716D01*
X143937Y376416D01*
X143637Y375966D01*
X143397Y375441D01*
X143337Y374691D01*
X143397Y373941D01*
X143637Y373416D01*
X143937Y372966D01*
X144297Y372666D01*
X144777Y372441D01*
X145977D01*
G01X140337D02*
Y376941D01*
X141057Y376041D01*
G01Y372441D02*
X139617D01*
G01X135297D02*
Y376941D01*
X137517Y373716D01*
X134517D01*
G01X158519Y24207D02*
G02X157919Y23607I-600J0D01*
G01X158519Y24207D02*
Y30122D01*
G01X157919Y23607D02*
X152367D01*
G01X157721Y22901D02*
X152662D01*
G01X157721Y15680D02*
Y22901D01*
G01Y15680D02*
X152662D01*
G01X157919Y30722D02*
G02X158519Y30122I0J-600D01*
G01X157919Y30722D02*
X152367D01*
G01X157919Y38596D02*
G02X158519Y37996I0J-600D01*
G01Y32081D02*
G02X157919Y31481I-600J0D01*
G01X158519Y32081D02*
Y37996D01*
G01X157919Y31481D02*
X152367D01*
G01X157919Y38596D02*
X152367D01*
G01X157721Y54397D02*
X152662D01*
G01X157721Y47176D02*
Y54397D01*
G01Y47176D02*
X152662D01*
G01X157721Y46523D02*
X152662D01*
G01X157721Y39302D02*
Y46523D01*
G01Y39302D02*
X152662D01*
G01X157721Y55050D02*
Y62271D01*
G01Y55050D02*
X152662D01*
G01X158312Y70880D02*
G02X158912Y70280I0J-600D01*
G01Y64365D02*
G02X158312Y63765I-600J0D01*
G01X158912Y64365D02*
Y70280D01*
G01X158312Y63765D02*
X152761D01*
G01X158312Y70880D02*
X152761D01*
G01X158115Y79200D02*
X153056D01*
G01X158115Y71980D02*
Y79200D01*
G01Y71980D02*
X153056D01*
G01X157721Y62271D02*
X152662D01*
G01X178074Y124682D02*
X174545D01*
G01Y165082D02*
X178074D01*
G01X163323Y179303D02*
Y176078D01*
X163083Y175403D01*
X162603Y174953D01*
X162003Y174803D01*
X161403Y174953D01*
X160923Y175403D01*
X160683Y176078D01*
Y179303D01*
G01X157803Y174803D02*
X157683Y175778D01*
X157503Y176603D01*
X157263Y177353D01*
X156963Y178178D01*
X156483Y179303D01*
X158883D01*
G01X201403Y226200D02*
Y230924D01*
X200124Y226987D01*
X198844Y230924D01*
Y226200D01*
G01X194907Y230530D02*
X195202Y230767D01*
X195547Y230924D01*
X195940D01*
X196383Y230688D01*
X196728Y230294D01*
X196974Y229822D01*
X197171Y229034D01*
X197220Y228326D01*
X197121Y227617D01*
X196974Y227145D01*
X196679Y226672D01*
X196334Y226357D01*
X195990Y226200D01*
X195645D01*
X195300Y226357D01*
X195005Y226594D01*
X194759Y226908D01*
G01X192938Y230924D02*
Y227538D01*
X192741Y226830D01*
X192348Y226357D01*
X191856Y226200D01*
X191363Y226357D01*
X190970Y226830D01*
X190773Y227538D01*
Y230924D01*
G01X189198Y224625D02*
X186245D01*
G01X184719Y226200D02*
Y230924D01*
X182456Y226200D01*
Y230924D01*
G01X180438Y226200D02*
Y230924D01*
X179207D01*
X178814Y230688D01*
X178568Y230373D01*
X178469Y229743D01*
X178568Y229113D01*
X178863Y228720D01*
X179207Y228483D01*
X180438D01*
G01X179207D02*
X178469Y226200D01*
G01X176353Y226830D02*
X175959Y226436D01*
X175516Y226200D01*
X175123D01*
X174729Y226436D01*
X174434Y226830D01*
X174286Y227381D01*
X174384Y227932D01*
X174630Y228404D01*
X175073Y228720D01*
X175664Y228877D01*
X176009Y229192D01*
X176156Y229743D01*
X176058Y230294D01*
X175812Y230688D01*
X175467Y230924D01*
X175123D01*
X174778Y230767D01*
X174483Y230373D01*
G01X171186Y230924D02*
Y226200D01*
G01X172317Y230924D02*
X170054D01*
G01X156707Y246019D02*
G02X156107Y245419I-600J0D01*
G01X150192D02*
X156107D01*
G01X156707Y246019D02*
Y251570D01*
G01X156107Y260880D02*
G02X156707Y260280I0J-600D01*
G01X150192Y260880D02*
X156107D01*
G01X156707Y254729D02*
Y260280D01*
G01X182471Y272835D02*
Y277335D01*
X180971D01*
X180491Y277110D01*
X180191Y276810D01*
X180071Y276210D01*
X180191Y275610D01*
X180551Y275235D01*
X180971Y275010D01*
X182471D01*
G01X180971D02*
X180071Y272835D01*
G01X178271Y273735D02*
X177911Y273210D01*
X177431Y272910D01*
X176891Y272835D01*
X176411Y272910D01*
X175931Y273285D01*
X175631Y273735D01*
X175571Y274185D01*
X175691Y274710D01*
X176111Y275085D01*
X176531Y275235D01*
X177071D01*
G01X176531D02*
X176171Y275460D01*
X175871Y275835D01*
X175751Y276285D01*
X175871Y276735D01*
X176171Y277110D01*
X176711Y277335D01*
X177251Y277260D01*
X177791Y276960D01*
G01X173951Y273510D02*
X173591Y273135D01*
X173171Y272910D01*
X172631Y272835D01*
X172091Y272985D01*
X171671Y273285D01*
X171371Y273810D01*
X171311Y274410D01*
X171431Y275010D01*
X171731Y275385D01*
X172151Y275685D01*
X172571Y275760D01*
X172991Y275685D01*
X173531Y275385D01*
X173351Y277335D01*
X171731D01*
G01X176704Y256846D02*
X183925D01*
G01X176704D02*
Y261905D01*
G01Y270713D02*
X183925D01*
G01X176704Y265654D02*
Y270713D01*
G01X163240Y278946D02*
X162760Y278571D01*
X162220Y278346D01*
X161740D01*
X161260Y278571D01*
X160900Y278946D01*
X160720Y279471D01*
X160840Y279996D01*
X161140Y280446D01*
X161680Y280746D01*
X162400Y280896D01*
X162820Y281196D01*
X163000Y281721D01*
X162880Y282246D01*
X162580Y282621D01*
X162160Y282846D01*
X161740D01*
X161320Y282696D01*
X160960Y282321D01*
G01X159460Y282846D02*
X158620Y278346D01*
X157660Y282846D01*
X156700Y278346D01*
X155860Y282846D01*
G01X152620Y278346D02*
Y282846D01*
X154840Y279621D01*
X151840D01*
G01X184282Y284046D02*
X184642Y284271D01*
X185062Y284421D01*
X185542D01*
X186082Y284196D01*
X186502Y283821D01*
X186802Y283371D01*
X187042Y282621D01*
X187102Y281946D01*
X186982Y281271D01*
X186802Y280821D01*
X186442Y280371D01*
X186022Y280071D01*
X185602Y279921D01*
X185182D01*
X184762Y280071D01*
X184402Y280296D01*
X184102Y280596D01*
G01X181282Y279921D02*
Y284421D01*
X182002Y283521D01*
G01Y279921D02*
X180562D01*
G01X178102Y281796D02*
X177682Y282321D01*
X177322Y282621D01*
X176842Y282771D01*
X176422Y282621D01*
X176122Y282321D01*
X175882Y281871D01*
X175822Y281346D01*
X175882Y280896D01*
X176122Y280446D01*
X176482Y280071D01*
X176902Y279921D01*
X177382Y280071D01*
X177802Y280521D01*
X178042Y281196D01*
X178102Y281946D01*
X177982Y282921D01*
X177802Y283446D01*
X177502Y283971D01*
X177082Y284346D01*
X176662Y284421D01*
X176242Y284271D01*
X175942Y283896D01*
G01X176758Y301619D02*
G02X177358Y302219I600J0D01*
G01Y286758D02*
G02X176758Y287358I0J600D01*
G01X183273Y302219D02*
X177358D01*
G01X176758Y301619D02*
Y296068D01*
G01X183273Y286758D02*
X177358D01*
G01X176758Y292909D02*
Y287358D01*
G01X199459Y364724D02*
X197588D01*
X199459Y360000D01*
X197588D01*
G01X194390Y363149D02*
Y360000D01*
G01Y364409D02*
X194488Y364488D01*
Y364645D01*
X194390Y364724D01*
X194291Y364645D01*
Y364488D01*
X194390Y364409D01*
G01X190945Y358819D02*
X190600Y358504D01*
X190206Y358425D01*
X189862Y358504D01*
X189566Y358898D01*
X189370Y359449D01*
Y363149D01*
G01Y362520D02*
X189566Y362834D01*
X189862Y363071D01*
X190206Y363149D01*
X190600Y362992D01*
X190846Y362677D01*
X191043Y362126D01*
X191141Y361575D01*
X191092Y361102D01*
X190895Y360551D01*
X190600Y360157D01*
X190206Y360000D01*
X189911Y360079D01*
X189566Y360394D01*
X189370Y360708D01*
G01X185728Y362520D02*
X185531Y362756D01*
X185383Y363149D01*
X185285Y363701D01*
X185383Y364173D01*
X185580Y364488D01*
X185925Y364724D01*
X187253D01*
Y360000D01*
X185629D01*
X185285Y360315D01*
X185088Y360787D01*
X184990Y361338D01*
X185088Y361889D01*
X185383Y362362D01*
X185728Y362520D01*
X187253D01*
G01X182726Y362126D02*
X181151D01*
X181298Y362677D01*
X181545Y362992D01*
X181889Y363149D01*
X182234Y363071D01*
X182529Y362834D01*
X182726Y362283D01*
X182824Y361811D01*
Y361338D01*
X182726Y360866D01*
X182480Y360394D01*
X182184Y360079D01*
X181840Y360000D01*
X181495Y360157D01*
X181151Y360630D01*
G01X178592Y362126D02*
X177017D01*
X177164Y362677D01*
X177411Y362992D01*
X177755Y363149D01*
X178100Y363071D01*
X178395Y362834D01*
X178592Y362283D01*
X178690Y361811D01*
Y361338D01*
X178592Y360866D01*
X178346Y360394D01*
X178050Y360079D01*
X177706Y360000D01*
X177361Y360157D01*
X177017Y360630D01*
G01X175196Y358425D02*
X172243D01*
G01X170570Y364724D02*
Y360000D01*
X168601D01*
G01X166042Y364724D02*
X164861D01*
G01X165452D02*
Y360000D01*
G01X166042D02*
X164861D01*
G01X162449D02*
Y364724D01*
X160186Y360000D01*
Y364724D01*
G01X158266Y360000D02*
Y364724D01*
G01X156396D02*
X158266Y361811D01*
G01X156101Y360000D02*
X157430Y363149D01*
G01X177079Y374016D02*
Y378516D01*
X175879D01*
X175399Y378291D01*
X175039Y377991D01*
X174739Y377541D01*
X174499Y377016D01*
X174439Y376266D01*
X174499Y375516D01*
X174739Y374991D01*
X175039Y374541D01*
X175399Y374241D01*
X175879Y374016D01*
X177079D01*
G01X171439D02*
Y378516D01*
X172159Y377616D01*
G01Y374016D02*
X170719D01*
G01X167119D02*
Y378516D01*
X167839Y377616D01*
G01Y374016D02*
X166399D01*
G01X193392Y58667D02*
Y24011D01*
G01D02*
X181413D01*
G01Y58667D02*
Y24011D01*
G01X187315Y67098D02*
Y63873D01*
X187075Y63198D01*
X186595Y62748D01*
X185995Y62598D01*
X185395Y62748D01*
X184915Y63198D01*
X184675Y63873D01*
Y67098D01*
G01X182815Y66348D02*
X182455Y66798D01*
X182035Y67023D01*
X181555Y67098D01*
X180955Y66948D01*
X180535Y66573D01*
X180415Y66123D01*
X180475Y65673D01*
X180715Y65298D01*
X181915Y64548D01*
X182455Y64023D01*
X182815Y63273D01*
X182935Y62598D01*
X180415D01*
G01X193392Y58667D02*
X181413D01*
G01X178074Y128211D02*
Y124682D01*
G01X210424Y121654D02*
Y126154D01*
X208924D01*
X208444Y125929D01*
X208144Y125629D01*
X208024Y125029D01*
X208144Y124429D01*
X208504Y124054D01*
X208924Y123829D01*
X210424D01*
G01X208924D02*
X208024Y121654D01*
G01X206224Y122554D02*
X205864Y122029D01*
X205384Y121729D01*
X204844Y121654D01*
X204364Y121729D01*
X203884Y122104D01*
X203584Y122554D01*
X203524Y123004D01*
X203644Y123529D01*
X204064Y123904D01*
X204484Y124054D01*
X205024D01*
G01X204484D02*
X204124Y124279D01*
X203824Y124654D01*
X203704Y125104D01*
X203824Y125554D01*
X204124Y125929D01*
X204664Y126154D01*
X205204Y126079D01*
X205744Y125779D01*
G01X201724Y123529D02*
X201304Y124054D01*
X200944Y124354D01*
X200464Y124504D01*
X200044Y124354D01*
X199744Y124054D01*
X199504Y123604D01*
X199444Y123079D01*
X199504Y122629D01*
X199744Y122179D01*
X200104Y121804D01*
X200524Y121654D01*
X201004Y121804D01*
X201424Y122254D01*
X201664Y122929D01*
X201724Y123679D01*
X201604Y124654D01*
X201424Y125179D01*
X201124Y125704D01*
X200704Y126079D01*
X200284Y126154D01*
X199864Y126004D01*
X199564Y125629D01*
G01X178074Y165082D02*
Y161553D01*
G01X185146Y159646D02*
G02I-300J0D01*
G01X211211Y169685D02*
Y174185D01*
X209711D01*
X209231Y173960D01*
X208931Y173660D01*
X208811Y173060D01*
X208931Y172460D01*
X209291Y172085D01*
X209711Y171860D01*
X211211D01*
G01X209711D02*
X208811Y169685D01*
G01X207011Y170585D02*
X206651Y170060D01*
X206171Y169760D01*
X205631Y169685D01*
X205151Y169760D01*
X204671Y170135D01*
X204371Y170585D01*
X204311Y171035D01*
X204431Y171560D01*
X204851Y171935D01*
X205271Y172085D01*
X205811D01*
G01X205271D02*
X204911Y172310D01*
X204611Y172685D01*
X204491Y173135D01*
X204611Y173585D01*
X204911Y173960D01*
X205451Y174185D01*
X205991Y174110D01*
X206531Y173810D01*
G01X201491Y169685D02*
X201371Y170660D01*
X201191Y171485D01*
X200951Y172235D01*
X200651Y173060D01*
X200171Y174185D01*
X202571D01*
G01X214754Y218504D02*
Y223004D01*
X213254D01*
X212774Y222779D01*
X212474Y222479D01*
X212354Y221879D01*
X212474Y221279D01*
X212834Y220904D01*
X213254Y220679D01*
X214754D01*
G01X213254D02*
X212354Y218504D01*
G01X209234D02*
Y223004D01*
X209954Y222104D01*
G01Y218504D02*
X208514D01*
G01X205034D02*
X204914Y219479D01*
X204734Y220304D01*
X204494Y221054D01*
X204194Y221879D01*
X203714Y223004D01*
X206114D01*
G01X196880Y277747D02*
X197240Y277972D01*
X197660Y278122D01*
X198140D01*
X198680Y277897D01*
X199100Y277522D01*
X199400Y277072D01*
X199640Y276322D01*
X199700Y275647D01*
X199580Y274972D01*
X199400Y274522D01*
X199040Y274072D01*
X198620Y273772D01*
X198200Y273622D01*
X197780D01*
X197360Y273772D01*
X197000Y273997D01*
X196700Y274297D01*
G01X195200Y274522D02*
X194840Y273997D01*
X194360Y273697D01*
X193820Y273622D01*
X193340Y273697D01*
X192860Y274072D01*
X192560Y274522D01*
X192500Y274972D01*
X192620Y275497D01*
X193040Y275872D01*
X193460Y276022D01*
X194000D01*
G01X193460D02*
X193100Y276247D01*
X192800Y276622D01*
X192680Y277072D01*
X192800Y277522D01*
X193100Y277897D01*
X193640Y278122D01*
X194180Y278047D01*
X194720Y277747D01*
G01X190880Y274522D02*
X190520Y273997D01*
X190040Y273697D01*
X189500Y273622D01*
X189020Y273697D01*
X188540Y274072D01*
X188240Y274522D01*
X188180Y274972D01*
X188300Y275497D01*
X188720Y275872D01*
X189140Y276022D01*
X189680D01*
G01X189140D02*
X188780Y276247D01*
X188480Y276622D01*
X188360Y277072D01*
X188480Y277522D01*
X188780Y277897D01*
X189320Y278122D01*
X189860Y278047D01*
X190400Y277747D01*
G01X186600Y270911D02*
G02X187200Y271511I600J0D01*
G01X193115D02*
G02X193715Y270911I0J-600D01*
G01X187200Y256050D02*
G02X186600Y256650I0J600D01*
G01X193715D02*
G02X193115Y256050I-600J0D01*
G01Y271511D02*
X187200D01*
G01X193715Y270911D02*
Y265359D01*
G01X186600Y270911D02*
Y265359D01*
G01X193115Y256050D02*
X187200D01*
G01X193715Y262200D02*
Y256650D01*
G01X186600Y262200D02*
Y256650D01*
G01X183925Y256846D02*
Y261905D01*
G01Y265654D02*
Y270713D01*
G01X208121Y256506D02*
X207641Y256131D01*
X207101Y255906D01*
X206621D01*
X206141Y256131D01*
X205781Y256506D01*
X205601Y257031D01*
X205721Y257556D01*
X206021Y258006D01*
X206561Y258306D01*
X207281Y258456D01*
X207701Y258756D01*
X207881Y259281D01*
X207761Y259806D01*
X207461Y260181D01*
X207041Y260406D01*
X206621D01*
X206201Y260256D01*
X205841Y259881D01*
G01X204341Y260406D02*
X203501Y255906D01*
X202541Y260406D01*
X201581Y255906D01*
X200741Y260406D01*
G01X199361Y257781D02*
X198941Y258306D01*
X198581Y258606D01*
X198101Y258756D01*
X197681Y258606D01*
X197381Y258306D01*
X197141Y257856D01*
X197081Y257331D01*
X197141Y256881D01*
X197381Y256431D01*
X197741Y256056D01*
X198161Y255906D01*
X198641Y256056D01*
X199061Y256506D01*
X199301Y257181D01*
X199361Y257931D01*
X199241Y258906D01*
X199061Y259431D01*
X198761Y259956D01*
X198341Y260331D01*
X197921Y260406D01*
X197501Y260256D01*
X197201Y259881D01*
G01X183273Y302219D02*
G02X183873Y301619I0J-600D01*
G01Y287358D02*
G02X183273Y286758I-600J0D01*
G01X183873Y301619D02*
Y296068D01*
G01Y292909D02*
Y287358D01*
G01X193101Y304331D02*
Y308831D01*
X191601D01*
X191121Y308606D01*
X190821Y308306D01*
X190701Y307706D01*
X190821Y307106D01*
X191181Y306731D01*
X191601Y306506D01*
X193101D01*
G01X191601D02*
X190701Y304331D01*
G01X188901Y305231D02*
X188541Y304706D01*
X188061Y304406D01*
X187521Y304331D01*
X187041Y304406D01*
X186561Y304781D01*
X186261Y305231D01*
X186201Y305681D01*
X186321Y306206D01*
X186741Y306581D01*
X187161Y306731D01*
X187701D01*
G01X187161D02*
X186801Y306956D01*
X186501Y307331D01*
X186381Y307781D01*
X186501Y308231D01*
X186801Y308606D01*
X187341Y308831D01*
X187881Y308756D01*
X188421Y308456D01*
G01X183261Y308831D02*
X183741Y308681D01*
X184101Y308306D01*
X184341Y307856D01*
X184521Y307256D01*
X184581Y306581D01*
X184521Y305906D01*
X184341Y305306D01*
X184101Y304856D01*
X183741Y304481D01*
X183261Y304331D01*
X182781Y304481D01*
X182421Y304856D01*
X182181Y305306D01*
X182001Y305906D01*
X181941Y306581D01*
X182001Y307256D01*
X182181Y307856D01*
X182421Y308306D01*
X182781Y308681D01*
X183261Y308831D01*
G01X185760Y301422D02*
Y296363D01*
G01X192981Y301422D02*
X185760D01*
G01X192981D02*
Y296363D01*
G01X185760Y292614D02*
Y287555D01*
G01X192981D02*
X185760D01*
G01X192981Y292614D02*
Y287555D01*
G01X231959Y317224D02*
X230088D01*
X231959Y312500D01*
X230088D01*
G01X226890Y315649D02*
Y312500D01*
G01Y316909D02*
X226988Y316988D01*
Y317145D01*
X226890Y317224D01*
X226791Y317145D01*
Y316988D01*
X226890Y316909D01*
G01X223445Y311319D02*
X223100Y311004D01*
X222706Y310925D01*
X222362Y311004D01*
X222066Y311398D01*
X221870Y311949D01*
Y315649D01*
G01Y315020D02*
X222066Y315334D01*
X222362Y315571D01*
X222706Y315649D01*
X223100Y315492D01*
X223346Y315177D01*
X223543Y314626D01*
X223641Y314075D01*
X223592Y313602D01*
X223395Y313051D01*
X223100Y312657D01*
X222706Y312500D01*
X222411Y312579D01*
X222066Y312894D01*
X221870Y313208D01*
G01X218228Y315020D02*
X218031Y315256D01*
X217883Y315649D01*
X217785Y316201D01*
X217883Y316673D01*
X218080Y316988D01*
X218425Y317224D01*
X219753D01*
Y312500D01*
X218129D01*
X217785Y312815D01*
X217588Y313287D01*
X217490Y313838D01*
X217588Y314389D01*
X217883Y314862D01*
X218228Y315020D01*
X219753D01*
G01X215226Y314626D02*
X213651D01*
X213798Y315177D01*
X214045Y315492D01*
X214389Y315649D01*
X214734Y315571D01*
X215029Y315334D01*
X215226Y314783D01*
X215324Y314311D01*
Y313838D01*
X215226Y313366D01*
X214980Y312894D01*
X214684Y312579D01*
X214340Y312500D01*
X213995Y312657D01*
X213651Y313130D01*
G01X211092Y314626D02*
X209517D01*
X209664Y315177D01*
X209911Y315492D01*
X210255Y315649D01*
X210600Y315571D01*
X210895Y315334D01*
X211092Y314783D01*
X211190Y314311D01*
Y313838D01*
X211092Y313366D01*
X210846Y312894D01*
X210550Y312579D01*
X210206Y312500D01*
X209861Y312657D01*
X209517Y313130D01*
G01X207696Y310925D02*
X204743D01*
G01X203562Y317224D02*
X202873Y312500D01*
X202086Y317224D01*
X201298Y312500D01*
X200609Y317224D01*
G01X199034Y312500D02*
Y317224D01*
G01X197164D02*
X199034Y314311D01*
G01X196869Y312500D02*
X198198Y315649D01*
G01X194676Y333858D02*
Y338358D01*
X193176D01*
X192696Y338133D01*
X192396Y337833D01*
X192276Y337233D01*
X192396Y336633D01*
X192756Y336258D01*
X193176Y336033D01*
X194676D01*
G01X193176D02*
X192276Y333858D01*
G01X190296Y337608D02*
X189936Y338058D01*
X189516Y338283D01*
X189036Y338358D01*
X188436Y338208D01*
X188016Y337833D01*
X187896Y337383D01*
X187956Y336933D01*
X188196Y336558D01*
X189396Y335808D01*
X189936Y335283D01*
X190296Y334533D01*
X190416Y333858D01*
X187896D01*
G01X184956D02*
X184836Y334833D01*
X184656Y335658D01*
X184416Y336408D01*
X184116Y337233D01*
X183636Y338358D01*
X186036D01*
G01X196698Y348492D02*
X191639D01*
G01X196698Y341271D02*
Y348492D01*
G01Y341271D02*
X191639D01*
G01X187890Y348492D02*
X182831D01*
G01Y341271D02*
Y348492D01*
G01X187890Y341271D02*
X182831D01*
G01X236250Y27353D02*
X236610Y27578D01*
X237030Y27728D01*
X237510D01*
X238050Y27503D01*
X238470Y27128D01*
X238770Y26678D01*
X239010Y25928D01*
X239070Y25253D01*
X238950Y24578D01*
X238770Y24128D01*
X238410Y23678D01*
X237990Y23378D01*
X237570Y23228D01*
X237150D01*
X236730Y23378D01*
X236370Y23603D01*
X236070Y23903D01*
G01X234270Y23753D02*
X233850Y23378D01*
X233370Y23228D01*
X232890Y23378D01*
X232470Y23828D01*
X232170Y24503D01*
X232050Y25178D01*
Y26003D01*
X232170Y26678D01*
X232470Y27278D01*
X232830Y27578D01*
X233250Y27728D01*
X233730Y27578D01*
X234090Y27278D01*
X234330Y26828D01*
X234450Y26228D01*
X234330Y25703D01*
X234030Y25178D01*
X233670Y24878D01*
X233250Y24803D01*
X232770Y24953D01*
X232410Y25328D01*
X232050Y26003D01*
G01X238770Y15354D02*
Y19854D01*
X237270D01*
X236790Y19629D01*
X236490Y19329D01*
X236370Y18729D01*
X236490Y18129D01*
X236850Y17754D01*
X237270Y17529D01*
X238770D01*
G01X237270D02*
X236370Y15354D01*
G01X233250D02*
X232830Y15429D01*
X232350Y15654D01*
X232050Y16029D01*
X231930Y16554D01*
X232050Y17079D01*
X232410Y17529D01*
X232950Y17754D01*
X233550D01*
X233910Y17904D01*
X234210Y18279D01*
X234330Y18804D01*
X234150Y19329D01*
X233730Y19704D01*
X233250Y19854D01*
X232770Y19704D01*
X232350Y19329D01*
X232170Y18804D01*
X232290Y18279D01*
X232590Y17904D01*
X232950Y17754D01*
X233550D01*
X234090Y17529D01*
X234450Y17079D01*
X234570Y16554D01*
X234450Y16029D01*
X234150Y15654D01*
X233670Y15429D01*
X233250Y15354D01*
G01X238770Y56299D02*
Y60799D01*
X237270D01*
X236790Y60574D01*
X236490Y60274D01*
X236370Y59674D01*
X236490Y59074D01*
X236850Y58699D01*
X237270Y58474D01*
X238770D01*
G01X237270D02*
X236370Y56299D01*
G01X233250D02*
Y60799D01*
X233970Y59899D01*
G01Y56299D02*
X232530D01*
G01X230070Y60049D02*
X229710Y60499D01*
X229290Y60724D01*
X228810Y60799D01*
X228210Y60649D01*
X227790Y60274D01*
X227670Y59824D01*
X227730Y59374D01*
X227970Y58999D01*
X229170Y58249D01*
X229710Y57724D01*
X230070Y56974D01*
X230190Y56299D01*
X227670D01*
G01X236250Y77747D02*
X236610Y77972D01*
X237030Y78122D01*
X237510D01*
X238050Y77897D01*
X238470Y77522D01*
X238770Y77072D01*
X239010Y76322D01*
X239070Y75647D01*
X238950Y74972D01*
X238770Y74522D01*
X238410Y74072D01*
X237990Y73772D01*
X237570Y73622D01*
X237150D01*
X236730Y73772D01*
X236370Y73997D01*
X236070Y74297D01*
G01X233250Y73622D02*
Y78122D01*
X233970Y77222D01*
G01Y73622D02*
X232530D01*
G01X230250Y74522D02*
X229890Y73997D01*
X229410Y73697D01*
X228870Y73622D01*
X228390Y73697D01*
X227910Y74072D01*
X227610Y74522D01*
X227550Y74972D01*
X227670Y75497D01*
X228090Y75872D01*
X228510Y76022D01*
X229050D01*
G01X228510D02*
X228150Y76247D01*
X227850Y76622D01*
X227730Y77072D01*
X227850Y77522D01*
X228150Y77897D01*
X228690Y78122D01*
X229230Y78047D01*
X229770Y77747D01*
G01X238770Y64961D02*
Y69461D01*
X237270D01*
X236790Y69236D01*
X236490Y68936D01*
X236370Y68336D01*
X236490Y67736D01*
X236850Y67361D01*
X237270Y67136D01*
X238770D01*
G01X237270D02*
X236370Y64961D01*
G01X234390Y66836D02*
X233970Y67361D01*
X233610Y67661D01*
X233130Y67811D01*
X232710Y67661D01*
X232410Y67361D01*
X232170Y66911D01*
X232110Y66386D01*
X232170Y65936D01*
X232410Y65486D01*
X232770Y65111D01*
X233190Y64961D01*
X233670Y65111D01*
X234090Y65561D01*
X234330Y66236D01*
X234390Y66986D01*
X234270Y67961D01*
X234090Y68486D01*
X233790Y69011D01*
X233370Y69386D01*
X232950Y69461D01*
X232530Y69311D01*
X232230Y68936D01*
G01X222077Y126172D02*
X222437Y126397D01*
X222857Y126547D01*
X223337D01*
X223877Y126322D01*
X224297Y125947D01*
X224597Y125497D01*
X224837Y124747D01*
X224897Y124072D01*
X224777Y123397D01*
X224597Y122947D01*
X224237Y122497D01*
X223817Y122197D01*
X223397Y122047D01*
X222977D01*
X222557Y122197D01*
X222197Y122422D01*
X221897Y122722D01*
G01X220397Y122947D02*
X220037Y122422D01*
X219557Y122122D01*
X219017Y122047D01*
X218537Y122122D01*
X218057Y122497D01*
X217757Y122947D01*
X217697Y123397D01*
X217817Y123922D01*
X218237Y124297D01*
X218657Y124447D01*
X219197D01*
G01X218657D02*
X218297Y124672D01*
X217997Y125047D01*
X217877Y125497D01*
X217997Y125947D01*
X218297Y126322D01*
X218837Y126547D01*
X219377Y126472D01*
X219917Y126172D01*
G01X214757Y122047D02*
Y126547D01*
X215477Y125647D01*
G01Y122047D02*
X214037D01*
G01X217909Y128884D02*
G02X217309Y129484I0J600D01*
G01X224424D02*
G02X223824Y128884I-600J0D01*
G01X224424Y143745D02*
Y138194D01*
G01X217309Y143745D02*
Y138194D01*
G01X223824Y128884D02*
X217909D01*
G01X224424Y135035D02*
Y129484D01*
G01X217309Y135035D02*
Y129484D01*
G01X215815Y129680D02*
Y134739D01*
G01X208594Y129680D02*
X215815D01*
G01X208594D02*
Y134739D01*
G01X215815Y138488D02*
Y143547D01*
G01X208594Y138488D02*
Y143547D01*
G01X217309Y143745D02*
G02X217909Y144345I600J0D01*
G01X223824D02*
G02X224424Y143745I0J-600D01*
G01X223824Y144345D02*
X217909D01*
G01X217309Y166974D02*
G02X217909Y167574I600J0D01*
G01X223824D02*
G02X224424Y166974I0J-600D01*
G01X217909Y152113D02*
G02X217309Y152713I0J600D01*
G01X224424D02*
G02X223824Y152113I-600J0D01*
G01X224424Y166974D02*
Y161422D01*
G01X217309Y166974D02*
Y161422D01*
G01X223824Y152113D02*
X217909D01*
G01X224424Y158263D02*
Y152713D01*
G01X217309Y158263D02*
Y152713D01*
G01X208594Y143547D02*
X215815D01*
G01Y153302D02*
Y158361D01*
G01X208594Y153302D02*
X215815D01*
G01X208594D02*
Y158361D01*
G01X215815Y162110D02*
Y167169D01*
G01X208594Y162110D02*
Y167169D01*
G01X222864Y174204D02*
X223224Y174429D01*
X223644Y174579D01*
X224124D01*
X224664Y174354D01*
X225084Y173979D01*
X225384Y173529D01*
X225624Y172779D01*
X225684Y172104D01*
X225564Y171429D01*
X225384Y170979D01*
X225024Y170529D01*
X224604Y170229D01*
X224184Y170079D01*
X223764D01*
X223344Y170229D01*
X222984Y170454D01*
X222684Y170754D01*
G01X221184Y170979D02*
X220824Y170454D01*
X220344Y170154D01*
X219804Y170079D01*
X219324Y170154D01*
X218844Y170529D01*
X218544Y170979D01*
X218484Y171429D01*
X218604Y171954D01*
X219024Y172329D01*
X219444Y172479D01*
X219984D01*
G01X219444D02*
X219084Y172704D01*
X218784Y173079D01*
X218664Y173529D01*
X218784Y173979D01*
X219084Y174354D01*
X219624Y174579D01*
X220164Y174504D01*
X220704Y174204D01*
G01X216684Y173829D02*
X216324Y174279D01*
X215904Y174504D01*
X215424Y174579D01*
X214824Y174429D01*
X214404Y174054D01*
X214284Y173604D01*
X214344Y173154D01*
X214584Y172779D01*
X215784Y172029D01*
X216324Y171504D01*
X216684Y170754D01*
X216804Y170079D01*
X214284D01*
G01X223824Y167574D02*
X217909D01*
G01X208594Y167169D02*
X215815D01*
G01X243101Y187402D02*
Y191902D01*
X241601D01*
X241121Y191677D01*
X240821Y191377D01*
X240701Y190777D01*
X240821Y190177D01*
X241181Y189802D01*
X241601Y189577D01*
X243101D01*
G01X241601D02*
X240701Y187402D01*
G01X237581D02*
Y191902D01*
X238301Y191002D01*
G01Y187402D02*
X236861D01*
G01X234401Y189277D02*
X233981Y189802D01*
X233621Y190102D01*
X233141Y190252D01*
X232721Y190102D01*
X232421Y189802D01*
X232181Y189352D01*
X232121Y188827D01*
X232181Y188377D01*
X232421Y187927D01*
X232781Y187552D01*
X233201Y187402D01*
X233681Y187552D01*
X234101Y188002D01*
X234341Y188677D01*
X234401Y189427D01*
X234281Y190402D01*
X234101Y190927D01*
X233801Y191452D01*
X233381Y191827D01*
X232961Y191902D01*
X232541Y191752D01*
X232241Y191377D01*
G01X236783Y174803D02*
Y176828D01*
X237983Y179303D01*
G01X235583D02*
X236783Y176828D01*
G01X232463Y174803D02*
Y179303D01*
X233183Y178403D01*
G01Y174803D02*
X231743D01*
G01X219872Y203543D02*
Y208043D01*
X218372D01*
X217892Y207818D01*
X217592Y207518D01*
X217472Y206918D01*
X217592Y206318D01*
X217952Y205943D01*
X218372Y205718D01*
X219872D01*
G01X218372D02*
X217472Y203543D01*
G01X214352D02*
Y208043D01*
X215072Y207143D01*
G01Y203543D02*
X213632D01*
G01X211352Y204218D02*
X210992Y203843D01*
X210572Y203618D01*
X210032Y203543D01*
X209492Y203693D01*
X209072Y203993D01*
X208772Y204518D01*
X208712Y205118D01*
X208832Y205718D01*
X209132Y206093D01*
X209552Y206393D01*
X209972Y206468D01*
X210392Y206393D01*
X210932Y206093D01*
X210752Y208043D01*
X209132D01*
G01X232350Y195035D02*
Y200094D01*
G01X225129Y195035D02*
X232350D01*
G01X225129D02*
Y200094D01*
G01X232350Y203843D02*
Y208902D01*
G01X225129D02*
X232350D01*
G01X225129Y203843D02*
Y208902D01*
G01X226444Y214326D02*
Y219385D01*
G01X219224Y214326D02*
X226444D01*
G01X219224D02*
Y219385D01*
G01X226444Y223134D02*
Y228193D01*
G01X219224D02*
X226444D01*
G01X219224Y223134D02*
Y228193D01*
G01X217570Y278946D02*
X217090Y278571D01*
X216550Y278346D01*
X216070D01*
X215590Y278571D01*
X215230Y278946D01*
X215050Y279471D01*
X215170Y279996D01*
X215470Y280446D01*
X216010Y280746D01*
X216730Y280896D01*
X217150Y281196D01*
X217330Y281721D01*
X217210Y282246D01*
X216910Y282621D01*
X216490Y282846D01*
X216070D01*
X215650Y282696D01*
X215290Y282321D01*
G01X213790Y282846D02*
X212950Y278346D01*
X211990Y282846D01*
X211030Y278346D01*
X210190Y282846D01*
G01X208990Y279021D02*
X208630Y278646D01*
X208210Y278421D01*
X207670Y278346D01*
X207130Y278496D01*
X206710Y278796D01*
X206410Y279321D01*
X206350Y279921D01*
X206470Y280521D01*
X206770Y280896D01*
X207190Y281196D01*
X207610Y281271D01*
X208030Y281196D01*
X208570Y280896D01*
X208390Y282846D01*
X206770D01*
G01X231876Y301226D02*
G02X232476Y301826I600J0D01*
G01Y286365D02*
G02X231876Y286965I0J600D01*
G01X238391Y301826D02*
X232476D01*
G01X231876Y301226D02*
Y295674D01*
G01X238391Y286365D02*
X232476D01*
G01X231876Y292515D02*
Y286965D01*
G01X237431Y328928D02*
X237791Y329153D01*
X238211Y329303D01*
X238691D01*
X239231Y329078D01*
X239651Y328703D01*
X239951Y328253D01*
X240191Y327503D01*
X240251Y326828D01*
X240131Y326153D01*
X239951Y325703D01*
X239591Y325253D01*
X239171Y324953D01*
X238751Y324803D01*
X238331D01*
X237911Y324953D01*
X237551Y325178D01*
X237251Y325478D01*
G01X235571Y328553D02*
X235211Y329003D01*
X234791Y329228D01*
X234311Y329303D01*
X233711Y329153D01*
X233291Y328778D01*
X233171Y328328D01*
X233231Y327878D01*
X233471Y327503D01*
X234671Y326753D01*
X235211Y326228D01*
X235571Y325478D01*
X235691Y324803D01*
X233171D01*
G01X230111Y329303D02*
X230591Y329153D01*
X230951Y328778D01*
X231191Y328328D01*
X231371Y327728D01*
X231431Y327053D01*
X231371Y326378D01*
X231191Y325778D01*
X230951Y325328D01*
X230591Y324953D01*
X230111Y324803D01*
X229631Y324953D01*
X229271Y325328D01*
X229031Y325778D01*
X228851Y326378D01*
X228791Y327053D01*
X228851Y327728D01*
X229031Y328328D01*
X229271Y328778D01*
X229631Y329153D01*
X230111Y329303D01*
G01X224454Y330329D02*
G02X225054Y329729I0J-600D01*
G01Y323814D02*
G02X224454Y323214I-600J0D01*
G01X209593Y329729D02*
G02X210193Y330329I600J0D01*
G01Y323214D02*
G02X209593Y323814I0J600D01*
G01X225054D02*
Y329729D01*
G01X224454Y323214D02*
X218903D01*
G01X224454Y330329D02*
X218903D01*
G01X209593Y323814D02*
Y329729D01*
G01X215744Y323214D02*
X210193D01*
G01X215744Y330329D02*
X210193D01*
G01X237431Y337983D02*
X237791Y338208D01*
X238211Y338358D01*
X238691D01*
X239231Y338133D01*
X239651Y337758D01*
X239951Y337308D01*
X240191Y336558D01*
X240251Y335883D01*
X240131Y335208D01*
X239951Y334758D01*
X239591Y334308D01*
X239171Y334008D01*
X238751Y333858D01*
X238331D01*
X237911Y334008D01*
X237551Y334233D01*
X237251Y334533D01*
G01X235571Y337608D02*
X235211Y338058D01*
X234791Y338283D01*
X234311Y338358D01*
X233711Y338208D01*
X233291Y337833D01*
X233171Y337383D01*
X233231Y336933D01*
X233471Y336558D01*
X234671Y335808D01*
X235211Y335283D01*
X235571Y334533D01*
X235691Y333858D01*
X233171D01*
G01X230111D02*
Y338358D01*
X230831Y337458D01*
G01Y333858D02*
X229391D01*
G01X225054Y332869D02*
G02X224454Y332269I-600J0D01*
G01X210193D02*
G02X209593Y332869I0J600D01*
G01X224454Y332269D02*
X218903D01*
G01X215744D02*
X210193D01*
G01X246959Y364724D02*
X245088D01*
X246959Y360000D01*
X245088D01*
G01X241890Y363149D02*
Y360000D01*
G01Y364409D02*
X241988Y364488D01*
Y364645D01*
X241890Y364724D01*
X241791Y364645D01*
Y364488D01*
X241890Y364409D01*
G01X238445Y358819D02*
X238100Y358504D01*
X237706Y358425D01*
X237362Y358504D01*
X237066Y358898D01*
X236870Y359449D01*
Y363149D01*
G01Y362520D02*
X237066Y362834D01*
X237362Y363071D01*
X237706Y363149D01*
X238100Y362992D01*
X238346Y362677D01*
X238543Y362126D01*
X238641Y361575D01*
X238592Y361102D01*
X238395Y360551D01*
X238100Y360157D01*
X237706Y360000D01*
X237411Y360079D01*
X237066Y360394D01*
X236870Y360708D01*
G01X233228Y362520D02*
X233031Y362756D01*
X232883Y363149D01*
X232785Y363701D01*
X232883Y364173D01*
X233080Y364488D01*
X233425Y364724D01*
X234753D01*
Y360000D01*
X233129D01*
X232785Y360315D01*
X232588Y360787D01*
X232490Y361338D01*
X232588Y361889D01*
X232883Y362362D01*
X233228Y362520D01*
X234753D01*
G01X230226Y362126D02*
X228651D01*
X228798Y362677D01*
X229045Y362992D01*
X229389Y363149D01*
X229734Y363071D01*
X230029Y362834D01*
X230226Y362283D01*
X230324Y361811D01*
Y361338D01*
X230226Y360866D01*
X229980Y360394D01*
X229684Y360079D01*
X229340Y360000D01*
X228995Y360157D01*
X228651Y360630D01*
G01X226092Y362126D02*
X224517D01*
X224664Y362677D01*
X224911Y362992D01*
X225255Y363149D01*
X225600Y363071D01*
X225895Y362834D01*
X226092Y362283D01*
X226190Y361811D01*
Y361338D01*
X226092Y360866D01*
X225846Y360394D01*
X225550Y360079D01*
X225206Y360000D01*
X224861Y360157D01*
X224517Y360630D01*
G01X222696Y358425D02*
X219743D01*
G01X216003Y364330D02*
X216298Y364567D01*
X216643Y364724D01*
X217036D01*
X217479Y364488D01*
X217824Y364094D01*
X218070Y363622D01*
X218267Y362834D01*
X218316Y362126D01*
X218217Y361417D01*
X218070Y360945D01*
X217775Y360472D01*
X217430Y360157D01*
X217086Y360000D01*
X216741D01*
X216396Y360157D01*
X216101Y360394D01*
X215855Y360708D01*
G01X214231Y360000D02*
Y364724D01*
X212952Y360787D01*
X211672Y364724D01*
Y360000D01*
G01X209900D02*
Y364724D01*
X208916D01*
X208522Y364488D01*
X208227Y364173D01*
X207981Y363701D01*
X207784Y363149D01*
X207735Y362362D01*
X207784Y361575D01*
X207981Y361023D01*
X208227Y360551D01*
X208522Y360236D01*
X208916Y360000D01*
X209900D01*
G01X224454Y339384D02*
G02X225054Y338784I0J-600D01*
G01X209593D02*
G02X210193Y339384I600J0D01*
G01X225054Y332869D02*
Y338784D01*
G01X224454Y339384D02*
X218903D01*
G01X209593Y332869D02*
Y338784D01*
G01X215744Y339384D02*
X210193D01*
G01X239951Y343307D02*
Y347807D01*
X238451D01*
X237971Y347582D01*
X237671Y347282D01*
X237551Y346682D01*
X237671Y346082D01*
X238031Y345707D01*
X238451Y345482D01*
X239951D01*
G01X238451D02*
X237551Y343307D01*
G01X235571Y347057D02*
X235211Y347507D01*
X234791Y347732D01*
X234311Y347807D01*
X233711Y347657D01*
X233291Y347282D01*
X233171Y346832D01*
X233231Y346382D01*
X233471Y346007D01*
X234671Y345257D01*
X235211Y344732D01*
X235571Y343982D01*
X235691Y343307D01*
X233171D01*
G01X231251Y345182D02*
X230831Y345707D01*
X230471Y346007D01*
X229991Y346157D01*
X229571Y346007D01*
X229271Y345707D01*
X229031Y345257D01*
X228971Y344732D01*
X229031Y344282D01*
X229271Y343832D01*
X229631Y343457D01*
X230051Y343307D01*
X230531Y343457D01*
X230951Y343907D01*
X231191Y344582D01*
X231251Y345332D01*
X231131Y346307D01*
X230951Y346832D01*
X230651Y347357D01*
X230231Y347732D01*
X229811Y347807D01*
X229391Y347657D01*
X229091Y347282D01*
G01X210389Y341272D02*
X215448D01*
G01X210389Y348493D02*
Y341272D01*
G01Y348493D02*
X215448D01*
G01X219197Y341272D02*
X224256D01*
G01Y348493D02*
Y341272D01*
G01X219197Y348493D02*
X224256D01*
G01X241646Y374016D02*
Y378516D01*
X240446D01*
X239966Y378291D01*
X239606Y377991D01*
X239306Y377541D01*
X239066Y377016D01*
X239006Y376266D01*
X239066Y375516D01*
X239306Y374991D01*
X239606Y374541D01*
X239966Y374241D01*
X240446Y374016D01*
X241646D01*
G01X236006D02*
Y378516D01*
X236726Y377616D01*
G01Y374016D02*
X235286D01*
G01X232826Y377766D02*
X232466Y378216D01*
X232046Y378441D01*
X231566Y378516D01*
X230966Y378366D01*
X230546Y377991D01*
X230426Y377541D01*
X230486Y377091D01*
X230726Y376716D01*
X231926Y375966D01*
X232466Y375441D01*
X232826Y374691D01*
X232946Y374016D01*
X230426D01*
G01X257131Y29541D02*
G02X257731Y28941I0J-600D01*
G01Y23026D02*
G02X257131Y22426I-600J0D01*
G01X242270Y28941D02*
G02X242870Y29541I600J0D01*
G01Y22426D02*
G02X242270Y23026I0J600D01*
G01X257731D02*
Y28941D01*
G01X257131Y22426D02*
X251580D01*
G01X242270Y23026D02*
Y28941D01*
G01X248421Y22426D02*
X242870D01*
G01X256540Y21326D02*
X251481D01*
G01X256540Y14106D02*
Y21326D01*
G01Y14106D02*
X251481D01*
G01X247732Y21326D02*
X242673D01*
G01Y14106D02*
Y21326D01*
G01X247732Y14106D02*
X242673D01*
G01X257131Y37809D02*
G02X257731Y37209I0J-600D01*
G01Y31294D02*
G02X257131Y30694I-600J0D01*
G01X242270Y37209D02*
G02X242870Y37809I600J0D01*
G01Y30694D02*
G02X242270Y31294I0J600D01*
G01X257731D02*
Y37209D01*
G01X257131Y30694D02*
X251580D01*
G01X257131Y37809D02*
X251580D01*
G01X242270Y31294D02*
Y37209D01*
G01X248421Y30694D02*
X242870D01*
G01X248421Y37809D02*
X242870D01*
G01X257131Y29541D02*
X251580D01*
G01X248421D02*
X242870D01*
G01X271054Y48819D02*
Y53319D01*
X269554D01*
X269074Y53094D01*
X268774Y52794D01*
X268654Y52194D01*
X268774Y51594D01*
X269134Y51219D01*
X269554Y50994D01*
X271054D01*
G01X269554D02*
X268654Y48819D01*
G01X265534D02*
Y53319D01*
X266254Y52419D01*
G01Y48819D02*
X264814D01*
G01X261214Y53319D02*
X261694Y53169D01*
X262054Y52794D01*
X262294Y52344D01*
X262474Y51744D01*
X262534Y51069D01*
X262474Y50394D01*
X262294Y49794D01*
X262054Y49344D01*
X261694Y48969D01*
X261214Y48819D01*
X260734Y48969D01*
X260374Y49344D01*
X260134Y49794D01*
X259954Y50394D01*
X259894Y51069D01*
X259954Y51744D01*
X260134Y52344D01*
X260374Y52794D01*
X260734Y53169D01*
X261214Y53319D01*
G01X256146Y54397D02*
X251087D01*
G01X256146Y47176D02*
Y54397D01*
G01Y47176D02*
X251087D01*
G01X247339Y54397D02*
X242280D01*
G01Y47176D02*
Y54397D01*
G01X247339Y47176D02*
X242280D01*
G01X271054Y41732D02*
Y46232D01*
X269554D01*
X269074Y46007D01*
X268774Y45707D01*
X268654Y45107D01*
X268774Y44507D01*
X269134Y44132D01*
X269554Y43907D01*
X271054D01*
G01X269554D02*
X268654Y41732D01*
G01X265534D02*
Y46232D01*
X266254Y45332D01*
G01Y41732D02*
X264814D01*
G01X261214D02*
Y46232D01*
X261934Y45332D01*
G01Y41732D02*
X260494D01*
G01X256146Y46130D02*
X251087D01*
G01X256146Y38909D02*
Y46130D01*
G01Y38909D02*
X251087D01*
G01X247339Y46130D02*
X242280D01*
G01Y38909D02*
Y46130D01*
G01X247339Y38909D02*
X242280D01*
G01X256146Y55444D02*
Y62665D01*
G01Y55444D02*
X251087D01*
G01X242280D02*
Y62665D01*
G01X247339Y55444D02*
X242280D01*
G01X256737Y79148D02*
G02X257337Y78548I0J-600D01*
G01Y72633D02*
G02X256737Y72033I-600J0D01*
G01X241876Y78548D02*
G02X242476Y79148I600J0D01*
G01Y72033D02*
G02X241876Y72633I0J600D01*
G01X257337D02*
Y78548D01*
G01X256737Y72033D02*
X251186D01*
G01X256737Y79148D02*
X251186D01*
G01X241876Y72633D02*
Y78548D01*
G01X248027Y72033D02*
X242476D01*
G01X248027Y79148D02*
X242476D01*
G01X256146Y70539D02*
X251087D01*
G01X256146Y63318D02*
Y70539D01*
G01Y63318D02*
X251087D01*
G01X247339Y70539D02*
X242280D01*
G01Y63318D02*
Y70539D01*
G01X247339Y63318D02*
X242280D01*
G01X256146Y62665D02*
X251087D01*
G01X247339D02*
X242280D01*
G01X260544Y150957D02*
Y147732D01*
X260304Y147057D01*
X259824Y146607D01*
X259224Y146457D01*
X258624Y146607D01*
X258144Y147057D01*
X257904Y147732D01*
Y150957D01*
G01X254184Y146457D02*
Y150957D01*
X256404Y147732D01*
X253404D01*
G01X241799Y195035D02*
Y200094D01*
G01X234578Y195035D02*
X241799D01*
G01X234578D02*
Y200094D01*
G01X241799Y203843D02*
Y208902D01*
G01X234578D02*
X241799D01*
G01X234578Y203843D02*
Y208902D01*
G01X240063Y223053D02*
Y219467D01*
G01X233164Y219313D02*
Y215212D01*
G01D02*
X240063D01*
G01X258181Y229921D02*
Y234421D01*
X256981D01*
X256501Y234196D01*
X256141Y233896D01*
X255841Y233446D01*
X255601Y232921D01*
X255541Y232171D01*
X255601Y231421D01*
X255841Y230896D01*
X256141Y230446D01*
X256501Y230146D01*
X256981Y229921D01*
X258181D01*
G01X252661D02*
X252541Y230896D01*
X252361Y231721D01*
X252121Y232471D01*
X251821Y233296D01*
X251341Y234421D01*
X253741D01*
G01X242294Y229921D02*
X242774Y229996D01*
X243194Y230296D01*
X243554Y230746D01*
X243794Y231271D01*
X243914Y231871D01*
Y232471D01*
X243794Y233071D01*
X243554Y233596D01*
X243194Y234046D01*
X242774Y234346D01*
X242294Y234421D01*
X241814Y234346D01*
X241394Y234046D01*
X241034Y233596D01*
X240794Y233071D01*
X240674Y232471D01*
Y231871D01*
X240794Y231271D01*
X241034Y230746D01*
X241394Y230296D01*
X241814Y229996D01*
X242294Y229921D01*
G01X241814Y231121D02*
X241094Y229921D01*
G01X239114Y233671D02*
X238754Y234121D01*
X238334Y234346D01*
X237854Y234421D01*
X237254Y234271D01*
X236834Y233896D01*
X236714Y233446D01*
X236774Y232996D01*
X237014Y232621D01*
X238214Y231871D01*
X238754Y231346D01*
X239114Y230596D01*
X239234Y229921D01*
X236714D01*
G01X233164Y227308D02*
Y223207D01*
G01Y227308D02*
X240063D01*
G01X250817Y295464D02*
X251177Y295689D01*
X251597Y295839D01*
X252077D01*
X252617Y295614D01*
X253037Y295239D01*
X253337Y294789D01*
X253577Y294039D01*
X253637Y293364D01*
X253517Y292689D01*
X253337Y292239D01*
X252977Y291789D01*
X252557Y291489D01*
X252137Y291339D01*
X251717D01*
X251297Y291489D01*
X250937Y291714D01*
X250637Y292014D01*
G01X247817Y291339D02*
Y295839D01*
X248537Y294939D01*
G01Y291339D02*
X247097D01*
G01X243617D02*
X243497Y292314D01*
X243317Y293139D01*
X243077Y293889D01*
X242777Y294714D01*
X242297Y295839D01*
X244697D01*
G01X238391Y301826D02*
G02X238991Y301226I0J-600D01*
G01Y286965D02*
G02X238391Y286365I-600J0D01*
G01X238991Y301226D02*
Y295674D01*
G01Y292515D02*
Y286965D01*
G01X268140Y37590D02*
X268500Y37815D01*
X268920Y37965D01*
X269400D01*
X269940Y37740D01*
X270360Y37365D01*
X270660Y36915D01*
X270900Y36165D01*
X270960Y35490D01*
X270840Y34815D01*
X270660Y34365D01*
X270300Y33915D01*
X269880Y33615D01*
X269460Y33465D01*
X269040D01*
X268620Y33615D01*
X268260Y33840D01*
X267960Y34140D01*
G01X265140Y33465D02*
X264720Y33540D01*
X264240Y33765D01*
X263940Y34140D01*
X263820Y34665D01*
X263940Y35190D01*
X264300Y35640D01*
X264840Y35865D01*
X265440D01*
X265800Y36015D01*
X266100Y36390D01*
X266220Y36915D01*
X266040Y37440D01*
X265620Y37815D01*
X265140Y37965D01*
X264660Y37815D01*
X264240Y37440D01*
X264060Y36915D01*
X264180Y36390D01*
X264480Y36015D01*
X264840Y35865D01*
X265440D01*
X265980Y35640D01*
X266340Y35190D01*
X266460Y34665D01*
X266340Y34140D01*
X266040Y33765D01*
X265560Y33540D01*
X265140Y33465D01*
G01X285124Y158961D02*
Y138677D01*
G01D02*
X273144D01*
G01Y158961D02*
Y138677D01*
G01X281410Y114173D02*
Y118673D01*
X280210D01*
X279730Y118448D01*
X279370Y118148D01*
X279070Y117698D01*
X278830Y117173D01*
X278770Y116423D01*
X278830Y115673D01*
X279070Y115148D01*
X279370Y114698D01*
X279730Y114398D01*
X280210Y114173D01*
X281410D01*
G01X275050D02*
Y118673D01*
X277270Y115448D01*
X274270D01*
G01X260783Y165288D02*
X265842D01*
G01X260783Y172509D02*
Y165288D01*
G01X269591D02*
X274650D01*
G01Y172509D02*
Y165288D01*
G01X285124Y158961D02*
X273144D01*
G01X306157Y183030D02*
X305763Y182636D01*
X305320Y182400D01*
X304927D01*
X304533Y182636D01*
X304238Y183030D01*
X304090Y183581D01*
X304188Y184132D01*
X304434Y184604D01*
X304877Y184920D01*
X305468Y185077D01*
X305813Y185392D01*
X305960Y185943D01*
X305862Y186494D01*
X305616Y186888D01*
X305271Y187124D01*
X304927D01*
X304582Y186967D01*
X304287Y186573D01*
G01X301974Y182400D02*
Y187124D01*
X300793D01*
X300399Y186888D01*
X300104Y186337D01*
X300005Y185707D01*
X300104Y185077D01*
X300350Y184604D01*
X300793Y184368D01*
X301974D01*
G01X295871Y182400D02*
X297840D01*
Y187124D01*
X295871D01*
G01X296659Y184841D02*
X297840D01*
G01X293952Y182400D02*
X292722Y187124D01*
X291491Y182400D01*
G01X291934Y184053D02*
X293509D01*
G01X289670Y182400D02*
Y187124D01*
G01X287800D02*
X289670Y184211D01*
G01X287505Y182400D02*
X288834Y185549D01*
G01X283469Y182400D02*
X285438D01*
Y187124D01*
X283469D01*
G01X284257Y184841D02*
X285438D01*
G01X281304Y182400D02*
Y187124D01*
X280073D01*
X279680Y186888D01*
X279434Y186573D01*
X279335Y185943D01*
X279434Y185313D01*
X279729Y184920D01*
X280073Y184683D01*
X281304D01*
G01X280073D02*
X279335Y182400D01*
G01X277662Y180825D02*
X274709D01*
G01X272052Y182400D02*
X272445Y182479D01*
X272790Y182794D01*
X273085Y183266D01*
X273282Y183817D01*
X273380Y184447D01*
Y185077D01*
X273282Y185707D01*
X273085Y186258D01*
X272790Y186730D01*
X272445Y187045D01*
X272052Y187124D01*
X271658Y187045D01*
X271313Y186730D01*
X271018Y186258D01*
X270821Y185707D01*
X270723Y185077D01*
Y184447D01*
X270821Y183817D01*
X271018Y183266D01*
X271313Y182794D01*
X271658Y182479D01*
X272052Y182400D01*
G01X269049D02*
Y187124D01*
X266786Y182400D01*
Y187124D01*
G01X272235Y175197D02*
Y179697D01*
X270735D01*
X270255Y179472D01*
X269955Y179172D01*
X269835Y178572D01*
X269955Y177972D01*
X270315Y177597D01*
X270735Y177372D01*
X272235D01*
G01X270735D02*
X269835Y175197D01*
G01X267855Y178947D02*
X267495Y179397D01*
X267075Y179622D01*
X266595Y179697D01*
X265995Y179547D01*
X265575Y179172D01*
X265455Y178722D01*
X265515Y178272D01*
X265755Y177897D01*
X266955Y177147D01*
X267495Y176622D01*
X267855Y175872D01*
X267975Y175197D01*
X265455D01*
G01X263715Y176097D02*
X263355Y175572D01*
X262875Y175272D01*
X262335Y175197D01*
X261855Y175272D01*
X261375Y175647D01*
X261075Y176097D01*
X261015Y176547D01*
X261135Y177072D01*
X261555Y177447D01*
X261975Y177597D01*
X262515D01*
G01X261975D02*
X261615Y177822D01*
X261315Y178197D01*
X261195Y178647D01*
X261315Y179097D01*
X261615Y179472D01*
X262155Y179697D01*
X262695Y179622D01*
X263235Y179322D01*
G01X260783Y172509D02*
X265842D01*
G01X269591D02*
X274650D01*
G01X293221Y174803D02*
Y179303D01*
X292021D01*
X291541Y179078D01*
X291181Y178778D01*
X290881Y178328D01*
X290641Y177803D01*
X290581Y177053D01*
X290641Y176303D01*
X290881Y175778D01*
X291181Y175328D01*
X291541Y175028D01*
X292021Y174803D01*
X293221D01*
G01X287581D02*
Y179303D01*
X288301Y178403D01*
G01Y174803D02*
X286861D01*
G01X283261Y179303D02*
X283741Y179153D01*
X284101Y178778D01*
X284341Y178328D01*
X284521Y177728D01*
X284581Y177053D01*
X284521Y176378D01*
X284341Y175778D01*
X284101Y175328D01*
X283741Y174953D01*
X283261Y174803D01*
X282781Y174953D01*
X282421Y175328D01*
X282181Y175778D01*
X282001Y176378D01*
X281941Y177053D01*
X282001Y177728D01*
X282181Y178328D01*
X282421Y178778D01*
X282781Y179153D01*
X283261Y179303D01*
G01X296764Y114173D02*
Y118673D01*
X295564D01*
X295084Y118448D01*
X294724Y118148D01*
X294424Y117698D01*
X294184Y117173D01*
X294124Y116423D01*
X294184Y115673D01*
X294424Y115148D01*
X294724Y114698D01*
X295084Y114398D01*
X295564Y114173D01*
X296764D01*
G01X292444Y114848D02*
X292084Y114473D01*
X291664Y114248D01*
X291124Y114173D01*
X290584Y114323D01*
X290164Y114623D01*
X289864Y115148D01*
X289804Y115748D01*
X289924Y116348D01*
X290224Y116723D01*
X290644Y117023D01*
X291064Y117098D01*
X291484Y117023D01*
X292024Y116723D01*
X291844Y118673D01*
X290224D01*
M02*
