G04 ================== begin FILE IDENTIFICATION RECORD ==================*
G04 Layout Name:  SHOWERHOST.brd*
G04 Film Name:    Soldermask_Bottom*
G04 File Format:  Gerber RS274X*
G04 File Origin:  Cadence Allegro 17.2-S079*
G04 Origin Date:  Thu May 05 20:33:34 2022*
G04 *
G04 Layer:  PIN/SOLDERMASK_BOTTOM*
G04 Layer:  PACKAGE GEOMETRY/SOLDERMASK_BOTTOM*
G04 Layer:  BOARD GEOMETRY/SOLDERMASK_BOTTOM*
G04 *
G04 Offset:    (0.00 0.00)*
G04 Mirror:    No*
G04 Mode:      Positive*
G04 Rotation:  0*
G04 FullContactRelief:  No*
G04 UndefLineWidth:     6.00*
G04 ================== end FILE IDENTIFICATION RECORD ====================*
%FSLAX25Y25*MOIN*%
%IR0*IPPOS*OFA0.00000B0.00000*MIA0B0*SFA1.00000B1.00000*%
%ADD32C,.073*%
%ADD33C,.06312*%
%ADD24C,.068*%
%ADD29C,.0395*%
%ADD19C,.06706*%
%ADD17C,.07493*%
%ADD35C,.08674*%
%ADD30R,.09461X.1458*%
%ADD23R,.06706X.06706*%
%ADD16R,.07493X.07493*%
%ADD12C,.07887*%
%ADD34R,.08674X.08674*%
%ADD28R,.012X.047*%
%ADD27R,.047X.012*%
%ADD14R,.05013X.03162*%
%ADD10C,.10642*%
%ADD36O,.08142X.0328*%
%ADD13C,.10249*%
%ADD31O,.08824X.0306*%
%ADD25R,.06115X.06351*%
%ADD22R,.06351X.06115*%
%ADD11C,.16535*%
%ADD26R,.09461X.05131*%
%ADD20R,.06221X.05259*%
%ADD15R,.05259X.06221*%
%ADD18R,.04737X.05721*%
%ADD21R,.07493X.04737*%
%LPD*%
G75*
G54D10*
X14173Y115748D03*
X37795Y107874D03*
X61417Y115748D03*
Y163779D03*
X253543Y257481D03*
Y305512D03*
X277165Y313386D03*
X300787Y305512D03*
G54D20*
X78740Y298687D03*
Y291078D03*
X134252Y298687D03*
Y291078D03*
X180315Y259975D03*
Y267584D03*
X189370Y298293D03*
Y290684D03*
X212205Y132809D03*
Y140418D03*
Y156431D03*
Y164040D03*
X228740Y198164D03*
Y205773D03*
X222835Y217455D03*
Y225064D03*
X238189Y198164D03*
Y205773D03*
G54D11*
X23622Y23622D03*
Y370079D03*
X291339Y23622D03*
Y370079D03*
G54D21*
X88977Y301773D03*
Y287203D03*
X114962Y301768D03*
Y287203D03*
X144488Y301773D03*
Y287203D03*
X172441Y251379D03*
Y236809D03*
X170473Y301768D03*
Y287203D03*
X198426Y251374D03*
Y236809D03*
X199606Y301773D03*
Y287203D03*
X225591Y301768D03*
Y287203D03*
G54D12*
X26378Y53739D03*
Y87992D03*
X38189Y246063D03*
Y255906D03*
Y265748D03*
X93503Y99409D03*
Y117126D03*
X119094Y99409D03*
Y117126D03*
X195865Y99409D03*
Y117126D03*
X221456Y99409D03*
Y117126D03*
X255118Y189172D03*
Y223425D03*
X278346Y73424D03*
Y107677D03*
X293307Y73424D03*
Y107677D03*
G54D30*
X142121Y253543D03*
G54D22*
X93189Y341339D03*
X119173Y323228D03*
Y332283D03*
X101299Y341339D03*
X146732Y27165D03*
Y35039D03*
X147126Y67323D03*
X128228Y194882D03*
X136338D03*
X128228Y218110D03*
X136338D03*
X127283Y323228D03*
Y332283D03*
X154842Y27165D03*
Y35039D03*
X155236Y67323D03*
X221378Y326772D03*
X213268D03*
X221378Y335827D03*
X213268D03*
X254055Y25984D03*
X245945D03*
X254055Y34252D03*
X245945D03*
X253661Y75591D03*
X245551D03*
G54D31*
X176501Y26339D03*
Y36339D03*
Y41339D03*
Y46339D03*
Y51339D03*
Y56339D03*
Y31339D03*
X198304Y26339D03*
Y56339D03*
Y51339D03*
Y46339D03*
Y41339D03*
Y36339D03*
Y31339D03*
G54D13*
X24016Y194881D03*
Y214566D03*
X290945Y194882D03*
Y214567D03*
G54D14*
X54468Y52559D03*
X44743Y56299D03*
X54468Y60039D03*
X231751Y221260D03*
X241476Y217520D03*
Y225000D03*
G54D23*
X121693Y81890D03*
G54D32*
X217441Y41339D03*
X227441D03*
G54D15*
X53411Y76772D03*
X45802D03*
X53411Y85433D03*
X45802D03*
X53411Y68110D03*
X45802D03*
X55250Y248031D03*
X62859D03*
X87663D03*
X80054D03*
X93440Y332283D03*
Y350394D03*
X101049Y332283D03*
X119424Y341339D03*
X119423Y350394D03*
X101049D03*
X146983Y19291D03*
Y50787D03*
Y42913D03*
Y58661D03*
X147377Y75591D03*
X136088Y186614D03*
X128479D03*
X136088Y226772D03*
X128479D03*
X127033Y341339D03*
X127032Y350394D03*
X154592Y19291D03*
Y50787D03*
Y42913D03*
Y58661D03*
X154986Y75591D03*
X193569Y344882D03*
X185960D03*
X213518D03*
X221127D03*
X253411Y17717D03*
X245802D03*
X253018Y50787D03*
X245409D03*
X253018Y42520D03*
X245409D03*
X253018Y59055D03*
X245409D03*
X253018Y66929D03*
X245409D03*
X263912Y168898D03*
X271521D03*
G54D24*
X101299Y190945D03*
X111299D03*
X152480D03*
X162480D03*
X203661D03*
X213661D03*
G54D33*
X235433Y140355D03*
Y159645D03*
G54D25*
X106299Y248701D03*
Y256811D03*
X125197Y298937D03*
Y290827D03*
X153150Y249095D03*
Y257205D03*
X190157Y267835D03*
Y259725D03*
X180315Y298543D03*
Y290433D03*
X220866Y140669D03*
Y132559D03*
Y163898D03*
Y155788D03*
X235433Y298149D03*
Y290039D03*
G54D34*
X283740Y126378D03*
G54D16*
X63386Y189331D03*
X227165Y236969D03*
G54D26*
X117721Y244488D03*
Y253543D03*
Y262598D03*
G54D35*
X273740Y126378D03*
G54D17*
X63386Y199331D03*
Y209331D03*
Y219331D03*
X227165Y246969D03*
Y256969D03*
Y266969D03*
G54D18*
X63386Y257874D03*
X54725D03*
X88189D03*
X79528D03*
X93308Y374409D03*
X101969D03*
X118898D03*
X127559D03*
X194488Y375984D03*
X185827D03*
X221654D03*
X212993D03*
X286221Y168898D03*
X294882D03*
G54D36*
X289695Y156319D03*
Y151319D03*
Y146319D03*
Y141319D03*
X268573D03*
Y146319D03*
Y151319D03*
Y156319D03*
G54D27*
X135236Y137992D03*
Y136024D03*
Y134055D03*
Y132087D03*
Y130118D03*
Y159646D03*
Y157677D03*
Y155709D03*
Y153740D03*
Y151772D03*
Y149803D03*
Y147835D03*
Y145866D03*
Y143898D03*
Y141929D03*
Y139961D03*
X180512Y130118D03*
Y132087D03*
Y134055D03*
Y136024D03*
Y137992D03*
Y139961D03*
Y141929D03*
Y143898D03*
Y145866D03*
Y147835D03*
Y149803D03*
Y151772D03*
Y153740D03*
Y155709D03*
Y157677D03*
Y159646D03*
G54D28*
X143110Y122244D03*
X145079D03*
X147047D03*
X149016D03*
Y167520D03*
X147047D03*
X145079D03*
X143110D03*
X150984Y122244D03*
X152953D03*
X154921D03*
X156890D03*
X158858D03*
X160827D03*
X162795D03*
X164764D03*
X166732D03*
X168701D03*
X170669D03*
X172638D03*
Y167520D03*
X170669D03*
X168701D03*
X166732D03*
X164764D03*
X162795D03*
X160827D03*
X158858D03*
X156890D03*
X154921D03*
X152953D03*
X150984D03*
G54D19*
X91693Y81890D03*
X111693D03*
X101693D03*
G54D29*
X131890Y208858D03*
Y204527D03*
M02*
