G04 ================== begin FILE IDENTIFICATION RECORD ==================*
G04 Layout Name:  SHOWERHOST.brd*
G04 Film Name:    Soldermask_Top*
G04 File Format:  Gerber RS274X*
G04 File Origin:  Cadence Allegro 17.2-S079*
G04 Origin Date:  Thu May 05 20:33:34 2022*
G04 *
G04 Layer:  PIN/SOLDERMASK_TOP*
G04 Layer:  PACKAGE GEOMETRY/SOLDERMASK_TOP*
G04 Layer:  BOARD GEOMETRY/SOLDERMASK_TOP*
G04 *
G04 Offset:    (0.00 0.00)*
G04 Mirror:    No*
G04 Mode:      Positive*
G04 Rotation:  0*
G04 FullContactRelief:  No*
G04 UndefLineWidth:     6.00*
G04 ================== end FILE IDENTIFICATION RECORD ====================*
%FSLAX25Y25*MOIN*%
%IR0*IPPOS*OFA0.00000B0.00000*MIA0B0*SFA1.00000B1.00000*%
%ADD27C,.073*%
%ADD28C,.06312*%
%ADD22C,.068*%
%ADD25C,.0395*%
%ADD18C,.06706*%
%ADD16C,.07493*%
%ADD11R,.13635X.05328*%
%ADD30C,.08674*%
%ADD21R,.06706X.06706*%
%ADD15R,.07493X.07493*%
%ADD13C,.07887*%
%ADD29R,.08674X.08674*%
%ADD10C,.10642*%
%ADD26R,.04202X.0395*%
%ADD14C,.10249*%
%ADD24R,.06115X.06351*%
%ADD20O,.06312X.03556*%
%ADD17R,.06351X.06115*%
%ADD12C,.16535*%
%ADD19R,.06221X.05259*%
%ADD23R,.05259X.06221*%
%LPD*%
G75*
G54D10*
X14173Y115748D03*
X37795Y107874D03*
X61417Y115748D03*
Y163779D03*
X253543Y257481D03*
Y305512D03*
X277165Y313386D03*
X300787Y305512D03*
G54D20*
X78347Y333819D03*
Y328819D03*
Y323819D03*
Y318819D03*
Y313819D03*
Y358819D03*
Y353819D03*
Y348819D03*
Y343819D03*
Y338819D03*
Y383819D03*
Y378819D03*
Y373819D03*
Y368819D03*
Y363819D03*
X142126Y313819D03*
Y318819D03*
Y323819D03*
Y328819D03*
Y333819D03*
Y358819D03*
Y338819D03*
Y343819D03*
Y348819D03*
Y353819D03*
Y363819D03*
Y368819D03*
Y373819D03*
Y378819D03*
Y383819D03*
X172835Y333819D03*
Y328819D03*
Y323819D03*
Y318819D03*
Y313819D03*
Y358819D03*
Y353819D03*
Y348819D03*
Y343819D03*
Y338819D03*
Y383819D03*
Y378819D03*
Y373819D03*
Y368819D03*
Y363819D03*
X236614Y313819D03*
Y318819D03*
Y323819D03*
Y328819D03*
Y333819D03*
Y358819D03*
Y338819D03*
Y343819D03*
Y348819D03*
Y353819D03*
Y363819D03*
Y368819D03*
Y373819D03*
Y378819D03*
Y383819D03*
G54D11*
X14744Y294094D03*
Y325591D03*
X34863Y294094D03*
Y325591D03*
G54D12*
X23622Y23622D03*
Y370079D03*
X291339Y23622D03*
Y370079D03*
G54D21*
X121693Y81890D03*
G54D30*
X273740Y126378D03*
G54D13*
X26378Y53739D03*
Y87992D03*
X38189Y246063D03*
Y255906D03*
Y265748D03*
X93503Y99409D03*
Y117126D03*
X119094Y99409D03*
Y117126D03*
X195865Y99409D03*
Y117126D03*
X221456Y99409D03*
Y117126D03*
X255118Y189172D03*
Y223425D03*
X278346Y73424D03*
Y107677D03*
X293307Y73424D03*
Y107677D03*
G54D22*
X101299Y190945D03*
X111299D03*
X152480D03*
X162480D03*
X203661D03*
X213661D03*
G54D23*
X102101Y176772D03*
X109710D03*
X146589Y174803D03*
X165880Y99606D03*
X173489D03*
X154198Y174803D03*
G54D14*
X24016Y194881D03*
Y214566D03*
X290945Y194882D03*
Y214567D03*
G54D24*
X127953Y139882D03*
Y131772D03*
X128346Y163110D03*
Y155000D03*
X196063Y131772D03*
Y139882D03*
X187795Y131772D03*
Y139882D03*
X203937Y163504D03*
Y155394D03*
X187795Y163504D03*
Y155394D03*
G54D15*
X63386Y189331D03*
X227165Y236969D03*
G54D16*
X63386Y199331D03*
Y209331D03*
Y219331D03*
X227165Y246969D03*
Y256969D03*
Y266969D03*
G54D25*
X131890Y208858D03*
Y204527D03*
G54D17*
X54606Y284646D03*
X62716D03*
Y292520D03*
X54606D03*
X139646Y99606D03*
X147756D03*
X139646Y114961D03*
X147756D03*
X165630D03*
X173740D03*
X175709Y174803D03*
X167599D03*
G54D26*
X203938Y138583D03*
Y133072D03*
G54D18*
X91693Y81890D03*
X111693D03*
X101693D03*
G54D27*
X217441Y41339D03*
X227441D03*
G54D19*
X83071Y111679D03*
Y104070D03*
X195669Y163254D03*
Y155645D03*
X233071Y111285D03*
Y103676D03*
G54D28*
X235433Y140355D03*
Y159645D03*
G54D29*
X283740Y126378D03*
M02*
