G04 ================== begin FILE IDENTIFICATION RECORD ==================*
G04 Layout Name:  SHOWERHOST.brd*
G04 Film Name:    TOP*
G04 File Format:  Gerber RS274X*
G04 File Origin:  Cadence Allegro 17.2-S079*
G04 Origin Date:  Thu May 05 20:33:34 2022*
G04 *
G04 Layer:  ETCH/TOP*
G04 Layer:  PIN/TOP*
G04 Layer:  VIA CLASS/TOP*
G04 *
G04 Offset:    (0.00 0.00)*
G04 Mirror:    No*
G04 Mode:      Positive*
G04 Rotation:  0*
G04 FullContactRelief:  No*
G04 UndefLineWidth:     6.00*
G04 ================== end FILE IDENTIFICATION RECORD ====================*
%FSLAX25Y25*MOIN*%
%IR0*IPPOS*OFA0.00000B0.00000*MIA0B0*SFA1.00000B1.00000*%
%ADD23C,.06*%
%ADD15C,.024*%
%ADD26C,.0315*%
%ADD28C,.065*%
%ADD29C,.05512*%
%ADD19C,.05906*%
%ADD13C,.07087*%
%ADD10C,.09842*%
%ADD17C,.06693*%
%ADD11R,.12835X.04528*%
%ADD31C,.07874*%
%ADD14C,.09449*%
%ADD22R,.05906X.05906*%
%ADD16R,.06693X.06693*%
%ADD30R,.07874X.07874*%
%ADD27R,.03402X.0315*%
%ADD12C,.14173*%
%ADD25R,.05315X.05551*%
%ADD21O,.05512X.02756*%
%ADD18R,.05551X.05315*%
%ADD20R,.05421X.04459*%
%ADD24R,.04459X.05421*%
%ADD32C,.01*%
%ADD33C,.008*%
%ADD34C,.09516*%
%ADD37C,.1109*%
%ADD36C,.13452*%
%ADD35C,.13846*%
G75*
%LPD*%
G75*
G36*
G01X241722Y384827D02*
X282920D01*
G02X283123Y384082I1J-400D01*
G03X275104Y370079I8217J-14003D01*
G03X291339Y353844I16235J0D01*
G03X305342Y361863I0J16236D01*
G02X306087Y361660I345J-202D01*
G01Y310954D01*
G02X305419Y310657I-400J0D01*
G03X300787Y312435I-4632J-5145D01*
G03Y298589I0J-6923D01*
G03X305419Y300367I0J6923D01*
G02X306087Y300070I268J-297D01*
G01Y32041D01*
G02X305342Y31838I-400J-1D01*
G03X291339Y39858I-14003J-8215D01*
G03X275104Y23622I0J-16235D01*
G03X283123Y9619I16236J0D01*
G02X282920Y8874I-202J-345D01*
G01X32041D01*
G02X31838Y9619I-1J400D01*
G03X39858Y23622I-8215J14003D01*
G03X23622Y39858I-16236J0D01*
G03X9619Y31838I0J-16235D01*
G02X8874Y32041I-345J202D01*
G01Y110305D01*
G02X9542Y110602I400J0D01*
G03X14173Y108825I4631J5146D01*
G03Y122671I0J6923D01*
G03X9542Y120894I0J-6923D01*
G02X8874Y121191I-268J297D01*
G01Y289828D01*
X21162D01*
G03X23163Y291830I-1J2002D01*
G01Y292348D01*
X23555D01*
X23563Y292156D01*
G03X24293Y290494I2499J106D01*
G01X27793Y286994D01*
G03X29562Y286262I1768J1769D01*
G01X30844D01*
Y250907D01*
G03X31576Y249138I2501J-1D01*
G01X32920Y247794D01*
X32885Y247680D01*
G03X32644Y246063I5304J-1617D01*
G03X35688Y241114I5545J0D01*
G01Y177200D01*
G03X36420Y175431I2501J-1D01*
G01X65136Y146715D01*
Y122275D01*
G02X64555Y121919I-400J0D01*
G03X61417Y122671I-3138J-6171D01*
G03X54494Y115748I0J-6923D01*
G03X58916Y109293I6922J0D01*
G01Y90628D01*
X58781Y90494D01*
X31327D01*
G03X26378Y93537I-4949J-2503D01*
G03Y82447I0J-5545D01*
G03X31327Y85490I0J5546D01*
G01X58781D01*
X82686Y61585D01*
G03X84455Y60852I1769J1768D01*
G01X162013D01*
G03X164012Y60152I1998J2502D01*
G03X167214Y63352I0J3202D01*
G02X167614Y63752I400J0D01*
G01X180012D01*
Y43338D01*
G03X179311Y41339I2500J-1999D01*
G03X181136Y38448I3202J0D01*
G02X181313Y37893I-172J-361D01*
G03X180923Y36611I2801J-1552D01*
G01X180916Y36539D01*
X173944Y29566D01*
X161736D01*
G03X159618Y30367I-2118J-2400D01*
G03Y23963I0J-3202D01*
G03X161736Y24764I0J3201D01*
G01X174939D01*
G03X176637Y25467I0J2402D01*
G01X184313Y33142D01*
X184385Y33149D01*
G03X187315Y36339I-272J3190D01*
G03X185490Y39230I-3202J0D01*
G02X185313Y39785I172J361D01*
G03X185715Y41339I-2800J1553D01*
G03X185014Y43338I-3201J0D01*
G01Y63752D01*
X226834D01*
G02X227117Y63069I0J-400D01*
G01X215672Y51624D01*
G03X214940Y49855I1769J-1768D01*
G01Y45957D01*
G03X212189Y41339I2501J-4618D01*
G03X217441Y36087I5252J0D01*
G03X222087Y38890I0J5252D01*
G02X222795I354J-186D01*
G03X227441Y36087I4646J2449D01*
G03X232693Y41339I0J5252D01*
G03X229842Y46010I-5252J0D01*
G01Y51621D01*
G03X230643Y53739I-2400J2118D01*
G03X229786Y55919I-3201J0D01*
G01X229655Y56060D01*
X230249Y56654D01*
X255130D01*
G03X257248Y55853I2118J2400D01*
G03X260450Y59055I0J3202D01*
G03X260199Y60298I-3203J0D01*
G02X260567Y60854I368J156D01*
G01X275451D01*
G03X277220Y61586I1J2501D01*
G01X287404Y71770D01*
G02X288065Y71617I283J-283D01*
G03X293307Y67879I5242J1807D01*
G03X298852Y73424I0J5545D01*
G03X295114Y78666I-5545J0D01*
G02X294961Y79327I130J378D01*
G01X301720Y86086D01*
G03X302452Y87855I-1769J1768D01*
G01Y108121D01*
G03X301720Y109890I-2501J1D01*
G01X295720Y115890D01*
G03X293951Y116622I-1768J-1769D01*
G01X281081D01*
G03X279352Y117316I-1729J-1807D01*
G01X234107D01*
X216583Y134841D01*
G03X214814Y135574I-1769J-1768D01*
G01X210396D01*
Y163403D01*
G03X209664Y165172I-2501J1D01*
G01X209563Y165273D01*
G03X208722Y165827I-1768J-1769D01*
G01X208596Y165877D01*
Y166280D01*
G03X206594Y168281I-2001J-1D01*
G01X201240D01*
X192949Y176572D01*
G03X191180Y177304I-1768J-1769D01*
G01X180490D01*
X180486Y177500D01*
G03X178484Y179462I-2001J-40D01*
G01X164824D01*
G03X162822Y177460I-1J-2001D01*
G01Y177382D01*
G02X162139Y177100I-400J1D01*
G01X158809Y180430D01*
G02X159091Y181112I283J282D01*
G01X244687D01*
X279680Y146119D01*
X279687Y146047D01*
G03X282877Y143117I3190J272D01*
G03X286079Y146319I0J3202D01*
G03X283149Y149509I-3202J0D01*
G01X283077Y149516D01*
X247380Y185212D01*
G03X245682Y185916I-1699J-1698D01*
G01X232316D01*
G02X231919Y186363I0J400D01*
G03X231942Y186745I-3179J383D01*
G03X228740Y189947I-3202J0D01*
G03X226622Y189146I0J-3201D01*
G01X218879D01*
G02X218492Y189650I0J400D01*
G03X218663Y190945I-4831J1297D01*
G03X216162Y195277I-5002J0D01*
G01Y211044D01*
X245238D01*
G03X247007Y211776I1J2501D01*
G01X253388Y218157D01*
G03X255118Y217880I1731J5268D01*
G03X260231Y221279I0J5545D01*
G02X260882Y221407I369J-155D01*
G01X284760Y197529D01*
X284711Y197406D01*
G03X284219Y194882I6234J-2525D01*
G03X290945Y201608I6726J0D01*
G03X288421Y201116I1J-6726D01*
G01X288298Y201067D01*
X256044Y233320D01*
Y251026D01*
G03X260466Y257481I-2500J6455D01*
G03X246620I-6923J0D01*
G03X251042Y251026I6922J0D01*
G01Y232284D01*
G03X251774Y230515I2501J-1D01*
G01X253100Y229189D01*
G02X252972Y228538I-283J-282D01*
G03X249573Y223425I2146J-5113D01*
G03X249814Y221808I5545J0D01*
G01X249849Y221694D01*
X244202Y216046D01*
X214697D01*
X213830Y216914D01*
G03X212061Y217646I-1768J-1769D01*
G01X211722D01*
G02X211580Y217988I-1J200D01*
G01X225213Y231621D01*
X230512D01*
G03X232513Y233622I-1J2001D01*
G01Y240316D01*
G03X230512Y242317I-2002J0D01*
G01X230276D01*
Y242617D01*
X230356Y242677D01*
G03X232513Y246969I-3192J4292D01*
G03X231197Y250483I-5348J1D01*
G01X231074Y250624D01*
X242268Y261818D01*
G03X242972Y263516I-1698J1699D01*
G01Y353819D01*
G03X240971Y356187I-2402J0D01*
G02X240715Y356818I67J394D01*
G03X241372Y358819I-2723J2002D01*
G03X240411Y361179I-3380J-1D01*
G02Y361459I143J140D01*
G03X241372Y363819I-2419J2361D01*
G03X240411Y366179I-3380J-1D01*
G02Y366459I143J140D01*
G03X241372Y368819I-2419J2361D01*
G03X240411Y371179I-3380J-1D01*
G02Y371459I143J140D01*
G03X241372Y373819I-2419J2361D01*
G03X240411Y376179I-3380J-1D01*
G02Y376459I143J140D01*
G03X241372Y378819I-2419J2361D01*
G03X240411Y381179I-3380J-1D01*
G02Y381459I143J140D01*
G03X241372Y383819I-2419J2361D01*
G03X241327Y384363I-3380J-6D01*
G02X241722Y384827I395J64D01*
G37*
G36*
G01X21162Y321326D02*
G03X22405Y321759I0J2001D01*
G01X22545Y321870D01*
X23560Y320854D01*
Y297689D01*
G02X22828Y297467I-400J0D01*
G03X21162Y298360I-1667J-1109D01*
G01X8874D01*
Y321326D01*
X21162D01*
G37*
G36*
G01X83455Y384827D02*
X137018D01*
G02X137413Y384363I0J-400D01*
G03X137368Y383819I3335J-550D01*
G03X138329Y381459I3380J1D01*
G02Y381179I-143J-140D01*
G03X137368Y378819I2419J-2361D01*
G03X138329Y376459I3380J1D01*
G02Y376179I-143J-140D01*
G03X137368Y373819I2419J-2361D01*
G03X138329Y371459I3380J1D01*
G02Y371179I-143J-140D01*
G03X137368Y368819I2419J-2361D01*
G03X138329Y366459I3380J1D01*
G02Y366179I-143J-140D01*
G03X137368Y363819I2419J-2361D01*
G03X138239Y361554I3381J0D01*
G01X138291Y361497D01*
Y361220D01*
X137799D01*
G03X136101Y360517I0J-2402D01*
G01X108911Y333327D01*
G02X108256Y333462I-283J283D01*
G03X107780Y334282I-2977J-1180D01*
G01Y348395D01*
G03X108481Y350394I-2500J1999D01*
G03X102077I-3202J0D01*
G03X102778Y348395I3201J0D01*
G01Y334282D01*
G03X102077Y332283I2500J-1999D01*
G03X105279Y329081I3202J0D01*
G03X107251Y329760I0J3203D01*
G02X107898Y329445I247J-315D01*
G01Y303886D01*
G03X107097Y301768I2400J-2118D01*
G03X110299Y298566I3202J0D01*
G03X111364Y298748I1J3202D01*
G02X111898Y298371I134J-377D01*
G01Y282537D01*
X106202Y276841D01*
G03X105498Y275143I1698J-1699D01*
G01Y265180D01*
G02X105070Y264781I-400J0D01*
G03X104841Y264789I-226J-3194D01*
G03X101639Y261587I0J-3202D01*
G03X102340Y259588I3201J0D01*
G01Y258010D01*
X102205Y257876D01*
X85583D01*
G03X83584Y258576I-1998J-2502D01*
G03Y252172I0J-3202D01*
G03X85583Y252872I1J3202D01*
G01X100740D01*
Y226645D01*
G03X101472Y224876I2501J-1D01*
G01X112972Y213376D01*
G03X114741Y212644I1768J1769D01*
G01X117237D01*
G02X117472Y211920I0J-400D01*
G03X117238Y211732I1886J-2587D01*
G01X68164D01*
G03X66024Y213983I-4779J-2400D01*
G02Y214679I197J348D01*
G03X68734Y219331I-2638J4652D01*
G03X58038I-5348J0D01*
G03X60748Y214679I5348J0D01*
G02Y213983I-197J-348D01*
G03Y204679I2638J-4652D01*
G02Y203983I-197J-348D01*
G03X58038Y199331I2638J-4652D01*
G03X60195Y195039I5349J0D01*
G01X60275Y194979D01*
Y194679D01*
X60040D01*
G03X58038Y192678I-1J-2001D01*
G01Y185984D01*
G03X60040Y183983I2002J1D01*
G01X66732D01*
G03X68734Y185984I1J2001D01*
G01Y191283D01*
X70195Y192744D01*
X96081D01*
G02X96468Y192240I0J-400D01*
G03X96297Y190945I4831J-1297D01*
G03X96501Y189532I5002J1D01*
G03X95926Y187974I1827J-1559D01*
G01Y181026D01*
G03X96630Y179328I2402J1D01*
G01X97870Y178088D01*
Y174062D01*
G03X99872Y172060I2002J0D01*
G01X103983D01*
G03X104136Y171892I1924J1599D01*
G01X109911Y166117D01*
G03X111680Y165384I1769J1768D01*
G01X123687D01*
Y160334D01*
G03X124149Y159055I2002J0D01*
G03X123687Y157776I1540J-1279D01*
G01Y152224D01*
G03X123834Y151472I2001J1D01*
G02X123563Y150935I-371J-150D01*
G03X122247Y150236I803J-3100D01*
G01X110953D01*
G03X108835Y151037I-2118J-2400D01*
G03Y144633I0J-3202D01*
G03X110953Y145434I0J3201D01*
G01X122247D01*
G03X123654Y144713I2119J2401D01*
G02X123854Y144046I-89J-390D01*
G03X123294Y142658I1441J-1389D01*
G01Y137106D01*
G03X123756Y135827I2002J0D01*
G03X123294Y134548I1540J-1279D01*
G01Y128996D01*
G03X125296Y126995I2001J1D01*
G01X130610D01*
G03X132612Y128996I1J2001D01*
G01Y129370D01*
X142475D01*
X143850Y127995D01*
X143857Y127923D01*
G03X147047Y124993I3190J272D01*
G03X150249Y128195I0J3202D01*
G03X147319Y131385I-3202J0D01*
G01X147247Y131392D01*
X145168Y133470D01*
G03X143470Y134174I-1699J-1698D01*
G01X132612D01*
Y134548D01*
G03X132150Y135827I-2002J0D01*
G03X132612Y137106I-1540J1279D01*
G01Y142658D01*
G03X130610Y144659I-2001J0D01*
G01X126660D01*
G02X126405Y145367I0J400D01*
G03X127567Y147835I-2040J2468D01*
G03X127035Y149602I-3202J0D01*
G02X127369Y150223I334J221D01*
G01X131004D01*
G03X133005Y152224I-1J2001D01*
G01Y157776D01*
G03X132543Y159055I-2002J0D01*
G03X133005Y160334I-1540J1279D01*
G01Y165886D01*
G03X131028Y167887I-2002J0D01*
G02X130832Y168065I3J200D01*
G03X130115Y169555I-2486J-279D01*
G01X130015Y169655D01*
G03X128246Y170388I-1769J-1768D01*
G01X127846D01*
X127792Y170429D01*
G03X125846Y171088I-1946J-2544D01*
G03X123847Y170388I-1J-3202D01*
G01X112716D01*
X111386Y171718D01*
G02X111527Y172060I141J142D01*
G01X111940D01*
G03X113942Y174062I0J2002D01*
G01Y179482D01*
G03X111940Y181484I-2002J0D01*
G01X108406D01*
Y184515D01*
X110004Y186112D01*
X110113Y186086D01*
G03X111299Y185943I1187J4859D01*
G03X116301Y190945I0J5002D01*
G03X116130Y192240I-5002J-2D01*
G02X116517Y192744I387J104D01*
G01X145878D01*
Y179958D01*
G03X145879Y179922I2401J49D01*
G02X145479Y179516I-400J-6D01*
G01X144360D01*
G03X142358Y177514I0J-2002D01*
G01Y172092D01*
G03X144360Y170090I2002J0D01*
G01X148366D01*
Y159795D01*
G03X147566Y157677I2402J-2117D01*
G03X153970I3202J0D01*
G03X153170Y159795I-3202J1D01*
G01Y164867D01*
G02X153852Y165149I400J-1D01*
G01X156031Y162970D01*
X156038Y162898D01*
G03X159228Y159968I3190J272D01*
G03X160293Y160150I1J3202D01*
G02X160826Y159773I133J-377D01*
G01Y157827D01*
G03X160026Y155709I2402J-2117D01*
G03X166430I3202J0D01*
G03X165630Y157827I-3202J1D01*
G01Y170144D01*
X175707D01*
G02X175990Y169461I0J-400D01*
G01X169083Y162554D01*
X169016Y162545D01*
G03X166236Y159371I422J-3174D01*
G03X169438Y156169I3202J0D01*
G03X172612Y158949I0J3202D01*
G01X172621Y159016D01*
X181554Y167949D01*
G03X181560Y167956I-1891J1627D01*
G02X182239Y167741I284J-282D01*
G03X183136Y166011I3156J539D01*
G01Y160728D01*
G03X183598Y159449I2002J0D01*
G03X183136Y158170I1540J-1279D01*
G01Y152618D01*
G03X185138Y150617I2002J0D01*
G01X190452D01*
G03X192163Y151579I1J2002D01*
G03X192958Y151414I796J1836D01*
G01X198380D01*
G03X199310Y151644I-2J2001D01*
G02X199574Y151571I93J-177D01*
G03X201280Y150617I1706J1047D01*
G01X205394D01*
Y142160D01*
X202237D01*
G03X201308Y141931I1J-2002D01*
G02X200722Y142285I-186J354D01*
G01Y142658D01*
G03X198720Y144659I-2002J0D01*
G01X193406D01*
G03X192063Y144142I-1J-2002D01*
G02X191795I-134J148D01*
G03X190452Y144659I-1342J-1485D01*
G01X185138D01*
G03X183136Y142658I-1J-2001D01*
G01Y142284D01*
X180020D01*
G03X178322Y141580I1J-2402D01*
G01X175962Y139221D01*
X175890Y139214D01*
G03X172960Y136024I272J-3190D01*
G03X173760Y133906I3202J-1D01*
G01Y123820D01*
G03X174464Y122122I2402J1D01*
G01X176282Y120303D01*
G02X176000Y119620I-283J-283D01*
G01X168132D01*
Y122525D01*
G03X167399Y124294I-2501J0D01*
G01X151451Y140242D01*
X151442Y140309D01*
G03X148268Y143089I-3174J-422D01*
G03X145066Y139887I0J-3202D01*
G03X147846Y136713I3202J0D01*
G01X147913Y136704D01*
X163128Y121489D01*
Y119620D01*
X162854D01*
G03X162561Y119599I-4J-2002D01*
G03X160123Y121084I-2710J-1705D01*
G01X160051Y121091D01*
X157573Y123568D01*
G03X155875Y124272I-1699J-1698D01*
G01X123838D01*
G03X122140Y123568I1J-2402D01*
G01X120931Y122359D01*
X120814Y122397D01*
G03X119094Y122671I-1721J-5271D01*
G03X114096Y119528I0J-5545D01*
G01X98501D01*
G03X88505I-4998J-2402D01*
G01X81560D01*
G03X79862Y118824I1J-2402D01*
G01X77462Y116424D01*
G03X76758Y114726I1698J-1699D01*
G01Y107500D01*
G03X77462Y105802I2402J1D01*
G01X78359Y104905D01*
Y101840D01*
G03X80360Y99839I2002J1D01*
G01X85782D01*
G03X87783Y101840I0J2002D01*
G01Y106300D01*
G03X87292Y107612I-2001J-1D01*
G02Y108137I302J262D01*
G03X87736Y109020I-1511J1313D01*
G01X87771Y109178D01*
X129404D01*
X133068Y105513D01*
Y103564D01*
G03X133801Y101795I2501J0D01*
G01X134868Y100728D01*
Y96948D01*
G03X135426Y95562I2002J1D01*
G02X135421Y95002I-288J-277D01*
G01X126652Y86233D01*
G02X126082Y86237I-283J283D01*
G03X124646Y86844I-1436J-1395D01*
G01X118740D01*
G03X116738Y84843I0J-2002D01*
G01Y84554D01*
G02X115992Y84355I-400J0D01*
G03X111693Y86845I-4299J-2466D01*
G03X107066Y83664I0J-4956D01*
G02X106320I-373J143D01*
G03X97066I-4627J-1775D01*
G02X96320I-373J143D01*
G03X91693Y86845I-4627J-1775D01*
G03X86738Y81890I0J-4955D01*
G03X87559Y79159I4955J1D01*
G02X87225Y78538I-334J-221D01*
G01X85629D01*
X78535Y85633D01*
X78528Y85705D01*
G03X75338Y88635I-3190J-272D01*
G03X73046Y87669I0J-3202D01*
G02X72761Y87667I-143J140D01*
G01X70140Y90289D01*
Y147751D01*
G03X69407Y149520I-2501J0D01*
G01X62604Y156322D01*
G02X62807Y156997I283J283D01*
G03X68340Y163779I-1390J6782D01*
G03X61417Y170702I-6923J0D01*
G03X54635Y165169I0J-6923D01*
G02X53960Y164966I-392J80D01*
G01X40690Y178236D01*
Y241114D01*
G03X43734Y246063I-2501J4949D01*
G03X41300Y250653I-5545J0D01*
G02Y251316I224J331D01*
G03Y260496I-3111J4590D01*
G02Y261158I225J331D01*
G03X43734Y265748I-3111J4590D01*
G03X40796Y270642I-5545J0D01*
G01X40690Y270698D01*
Y271168D01*
X50114Y280591D01*
G02X50398Y280590I142J-141D01*
G03X51830Y279986I1433J1398D01*
G01X65492D01*
G03X67494Y281988I0J2002D01*
G01Y287304D01*
G03X67031Y288583I-2002J-1D01*
G03X67494Y289862I-1539J1280D01*
G01Y295178D01*
G03X65492Y297180I-2003J-1D01*
G01X51830D01*
G03X49828Y295178I1J-2003D01*
G01Y294925D01*
X49695Y294878D01*
G03X48761Y294289I834J-2358D01*
G01X45737Y291264D01*
X45240D01*
Y291559D01*
X45313Y291619D01*
G03X46483Y294094I-2033J2475D01*
G03X43281Y297296I-3202J0D01*
G03X43053Y297288I-2J-3202D01*
G03X41280Y298360I-1773J-930D01*
G01X28564D01*
Y321326D01*
X41280D01*
G03X43282Y323327I1J2001D01*
G01Y327855D01*
G03X41280Y329856I-2001J0D01*
G01X28446D01*
G03X26444Y327855I-1J-2001D01*
G01Y326011D01*
G02X25761Y325728I-400J0D01*
G01X24130Y327360D01*
G03X23160Y327961I-1768J-1770D01*
G03X21162Y329856I-1998J-106D01*
G01X8874D01*
Y361660D01*
G02X9619Y361863I400J1D01*
G03X23622Y353844I14003J8217D01*
G03X39858Y370079I0J16236D01*
G03X31838Y384082I-16235J0D01*
G02X32041Y384827I202J345D01*
G01X73239D01*
G02X73634Y384363I0J-400D01*
G03X73590Y383819I3335J-544D01*
G03X74550Y381459I3379J-1D01*
G02Y381179I-143J-140D01*
G03X73590Y378819I2419J-2359D01*
G03X74550Y376459I3379J-1D01*
G02Y376179I-143J-140D01*
G03X73590Y373819I2419J-2359D01*
G03X74550Y371459I3379J-1D01*
G02Y371179I-143J-140D01*
G03X73590Y368819I2419J-2359D01*
G03X74550Y366459I3379J-1D01*
G02Y366179I-143J-140D01*
G03X73590Y363819I2419J-2359D01*
G03X74550Y361459I3379J-1D01*
G02Y361179I-143J-140D01*
G03X73590Y358819I2419J-2359D01*
G03X74550Y356459I3379J-1D01*
G02Y356179I-143J-140D01*
G03X73590Y353819I2419J-2359D01*
G03X74550Y351459I3379J-1D01*
G02Y351179I-143J-140D01*
G03X73590Y348819I2419J-2359D01*
G03X74550Y346459I3379J-1D01*
G02Y346179I-143J-140D01*
G03X73590Y343819I2419J-2359D01*
G03X74550Y341459I3379J-1D01*
G02Y341179I-143J-140D01*
G03X73590Y338819I2419J-2359D01*
G03X74550Y336459I3379J-1D01*
G02Y336179I-143J-140D01*
G03X73590Y333819I2419J-2359D01*
G03X74550Y331459I3379J-1D01*
G02Y331179I-143J-140D01*
G03X73590Y328819I2419J-2359D01*
G03X74550Y326459I3379J-1D01*
G02Y326179I-143J-140D01*
G03X73590Y323819I2419J-2359D01*
G03X74550Y321459I3379J-1D01*
G02Y321179I-143J-140D01*
G03X73590Y318819I2419J-2359D01*
G03X74550Y316459I3379J-1D01*
G02Y316179I-143J-140D01*
G03X73590Y313819I2419J-2359D01*
G03X76969Y310440I3379J0D01*
G01X79725D01*
G03X83104Y313819I0J3379D01*
G03X82144Y316179I-3379J1D01*
G02Y316459I143J140D01*
G03X83104Y318819I-2419J2359D01*
G03X82144Y321179I-3379J1D01*
G02Y321459I143J140D01*
G03X83104Y323819I-2419J2359D01*
G03X82144Y326179I-3379J1D01*
G02Y326459I143J140D01*
G03X83104Y328819I-2419J2359D01*
G03X82474Y330785I-3379J1D01*
G02X82799Y331418I325J233D01*
G01X83777D01*
G03X85475Y332121I0J2402D01*
G01X98975Y345621D01*
G03X99678Y347319I-1699J1698D01*
G01Y372291D01*
G03X100479Y374409I-2400J2118D01*
G03X94075I-3202J0D01*
G03X94876Y372291I3201J0D01*
G01Y348314D01*
X92297Y345736D01*
G02X91614Y346018I-283J283D01*
G01Y362319D01*
G03X90911Y364017I-2402J0D01*
G01X84411Y370517D01*
G03X82713Y371220I-1698J-1699D01*
G01X82182D01*
Y371497D01*
X82234Y371554D01*
G03X83104Y373819I-2510J2264D01*
G03X82144Y376179I-3379J1D01*
G02Y376459I143J140D01*
G03X83104Y378819I-2419J2359D01*
G03X82144Y381179I-3379J1D01*
G02Y381459I143J140D01*
G03X83104Y383819I-2419J2359D01*
G03X83060Y384363I-3379J0D01*
G02X83455Y384827I395J64D01*
G37*
G36*
G01X179200Y117385D02*
X188362Y108224D01*
Y102066D01*
G02X188167Y101866I-200J0D01*
G03X185060Y98665I95J-3201D01*
G03X185860Y96547I3202J-1D01*
G01Y85950D01*
G03X185935Y85356I2402J2D01*
G01X185963Y85246D01*
X182621Y81904D01*
X179950D01*
G02X179614Y82520I0J400D01*
G03X180093Y83827I-2695J1729D01*
G01X180102Y83894D01*
X181188Y84980D01*
G03X181920Y86749I-1769J1768D01*
G01Y95106D01*
G03X182621Y97105I-2500J1999D01*
G03X179841Y100279I-3202J0D01*
G01X179774Y100288D01*
X178687Y101375D01*
G03X177846Y101929I-1768J-1769D01*
G01X177720Y101979D01*
Y102316D01*
G03X175718Y104318I-2002J0D01*
G01X163650D01*
G03X161648Y102316I0J-2002D01*
G01Y96896D01*
G03X163650Y94894I2002J0D01*
G01X175718D01*
G03X176384Y95008I0J2002D01*
G02X176918Y94630I134J-377D01*
G01Y87785D01*
X176564Y87432D01*
X176497Y87423D01*
G03X173717Y84249I422J-3174D01*
G03X174224Y82520I3202J0D01*
G02X173888Y81904I-336J-216D01*
G01X171007D01*
G03X168889Y82704I-2117J-2402D01*
G03Y76300I0J-3202D01*
G03X171007Y77100I1J3202D01*
G01X183616D01*
G03X185314Y77804I-1J2402D01*
G01X190158Y82648D01*
X275944D01*
Y78422D01*
G03X272801Y73424I2402J-4998D01*
G03X276128Y68342I5545J0D01*
G02X276251Y67693I-160J-366D01*
G01X274415Y65856D01*
X253606D01*
G02X253323Y66539I0J400D01*
G01X259192Y72408D01*
X259259Y72417D01*
G03X262039Y75591I-422J3174D01*
G03X258837Y78793I-3202J0D01*
G03X255663Y76013I0J-3202D01*
G01X255654Y75946D01*
X248463Y68754D01*
X91674D01*
X87376Y73053D01*
G02X87659Y73736I283J283D01*
G01X136404D01*
G03X138102Y74439I0J2402D01*
G01X152732Y89068D01*
X152804Y89075D01*
G03X155734Y92265I-272J3190D01*
G03X152659Y95464I-3202J0D01*
G02X152318Y96045I16J400D01*
G03X152534Y96948I-1786J905D01*
G01Y102264D01*
G03X150532Y104266I-2002J-1D01*
G01X138406D01*
X138072Y104600D01*
Y105948D01*
X138079Y105975D01*
G03X138172Y106649I-2409J676D01*
G01Y109104D01*
G03X138730Y110160I-2503J1998D01*
G01X138774Y110302D01*
X150532D01*
G03X152534Y112304I0J2002D01*
G01Y114433D01*
G02X153216Y114716I400J0D01*
G01X155494Y112438D01*
G03X157263Y111706I1768J1769D01*
G01X158298D01*
Y109799D01*
G03X157598Y107800I2502J-1998D01*
G03X164002I3202J0D01*
G03X163343Y109746I-3203J0D01*
G01X163302Y109800D01*
Y110302D01*
X176516D01*
G03X178518Y112304I0J2002D01*
G01Y117103D01*
G02X179200Y117385I400J-1D01*
G37*
G36*
G01X147234Y384827D02*
X167727D01*
G02X168122Y384363I0J-400D01*
G03X168078Y383819I3335J-544D01*
G03X169038Y381459I3379J-1D01*
G02Y381179I-143J-140D01*
G03X168078Y378819I2419J-2359D01*
G03X169038Y376459I3379J-1D01*
G02Y376179I-143J-140D01*
G03X168078Y373819I2419J-2359D01*
G03X169038Y371459I3379J-1D01*
G02Y371179I-143J-140D01*
G03X168078Y368819I2419J-2359D01*
G03X169038Y366459I3379J-1D01*
G02Y366179I-143J-140D01*
G03X168078Y363819I2419J-2359D01*
G03X169038Y361459I3379J-1D01*
G02Y361179I-143J-140D01*
G03X168078Y358819I2419J-2359D01*
G03X169038Y356459I3379J-1D01*
G02Y356179I-143J-140D01*
G03X168078Y353819I2419J-2359D01*
G03X169038Y351459I3379J-1D01*
G02Y351179I-143J-140D01*
G03X168078Y348819I2419J-2359D01*
G03X169038Y346459I3379J-1D01*
G02Y346179I-143J-140D01*
G03X168078Y343819I2419J-2359D01*
G03X169038Y341459I3379J-1D01*
G02Y341179I-143J-140D01*
G03X168078Y338819I2419J-2359D01*
G03X169038Y336459I3379J-1D01*
G02Y336179I-143J-140D01*
G03X168078Y333819I2419J-2359D01*
G03X169038Y331459I3379J-1D01*
G02Y331179I-143J-140D01*
G03X168078Y328819I2419J-2359D01*
G03X169038Y326459I3379J-1D01*
G02Y326179I-143J-140D01*
G03X168078Y323819I2419J-2359D01*
G03X169038Y321459I3379J-1D01*
G02Y321179I-143J-140D01*
G03X168078Y318819I2419J-2359D01*
G03X169038Y316459I3379J-1D01*
G02Y316179I-143J-140D01*
G03X168078Y313819I2419J-2359D01*
G03X171457Y310440I3379J0D01*
G01X174213D01*
G03X177592Y313819I0J3379D01*
G03X176632Y316179I-3379J1D01*
G02Y316459I143J140D01*
G03X177592Y318819I-2419J2359D01*
G03X176632Y321179I-3379J1D01*
G02Y321459I143J140D01*
G03X177592Y323819I-2419J2359D01*
G03X176632Y326179I-3379J1D01*
G02Y326459I143J140D01*
G03X177592Y328819I-2419J2359D01*
G03X176632Y331179I-3379J1D01*
G02Y331459I143J140D01*
G03X177592Y333819I-2419J2359D01*
G03X176632Y336179I-3379J1D01*
G02Y336459I143J140D01*
G03X177301Y337447I-2420J2359D01*
G02X177906Y337605I366J-163D01*
G03X179820Y336970I1914J2567D01*
G03X181938Y337770I1J3202D01*
G01X195115D01*
G03X196813Y338474I-1J2402D01*
G01X224757Y366418D01*
X232162D01*
G02X232487Y365785I0J-400D01*
G03X231856Y363819I2749J-1967D01*
G03X232487Y361853I3380J1D01*
G02X232162Y361220I-325J-233D01*
G01X230675D01*
G03X228557Y362021I-2118J-2400D01*
G03Y355617I0J-3202D01*
G03X230675Y356418I0J3201D01*
G01X232162D01*
G02X232487Y355785I0J-400D01*
G03X231856Y353819I2749J-1967D01*
G03X232507Y351825I3379J0D01*
G02X232244Y351194I-323J-236D01*
G03X230904Y350517I359J-2375D01*
G01X122700Y242313D01*
G03X122075Y241225I1698J-1699D01*
G01X122062Y241173D01*
X115657Y234769D01*
X115585Y234762D01*
G03X114870Y234618I271J-3190D01*
G02X114364Y235114I-123J381D01*
G03X114414Y235299I-3065J928D01*
G03X116989Y238169I-615J3142D01*
G01X116996Y238241D01*
X123697Y244943D01*
G03X124400Y246641I-1699J1698D01*
G01Y334824D01*
X130688Y341111D01*
G02X131370Y340829I282J-283D01*
G01Y327819D01*
G03X132074Y326121I2402J1D01*
G01X136074Y322121D01*
G03X137772Y321418I1698J1699D01*
G01X138291D01*
Y321141D01*
X138239Y321084D01*
G03X137368Y318819I2510J-2265D01*
G03X138329Y316459I3380J1D01*
G02Y316179I-143J-140D01*
G03X137368Y313819I2419J-2361D01*
G03X138293Y311496I3379J0D01*
G02X138286Y310938I-290J-275D01*
G01X137091Y309744D01*
X136252D01*
X136198Y309785D01*
G03X134252Y310444I-1946J-2544D01*
G03Y304040I0J-3202D01*
G03X136251Y304740I1J3202D01*
G01X138127D01*
G03X139896Y305473I0J2501D01*
G01X143895Y309472D01*
G03X144545Y310604I-1769J1769D01*
G03X146884Y313819I-1040J3215D01*
G03X145923Y316179I-3380J-1D01*
G02Y316459I143J140D01*
G03X146884Y318819I-2419J2361D01*
G03X145923Y321179I-3380J-1D01*
G02Y321459I143J140D01*
G03X146884Y323819I-2419J2361D01*
G03X145923Y326179I-3380J-1D01*
G02Y326459I143J140D01*
G03X146884Y328819I-2419J2361D01*
G03X145923Y331179I-3380J-1D01*
G02Y331459I143J140D01*
G03X146884Y333819I-2419J2361D01*
G03X145923Y336179I-3380J-1D01*
G02Y336459I143J140D01*
G03X146884Y338819I-2419J2361D01*
G03X145923Y341179I-3380J-1D01*
G02Y341459I143J140D01*
G03X146884Y343819I-2419J2361D01*
G03X145923Y346179I-3380J-1D01*
G02Y346459I143J140D01*
G03X146884Y348819I-2419J2361D01*
G03X145923Y351179I-3380J-1D01*
G02Y351459I143J140D01*
G03X146884Y353819I-2419J2361D01*
G03X145923Y356179I-3380J-1D01*
G02Y356459I143J140D01*
G03X146884Y358819I-2419J2361D01*
G03X145923Y361179I-3380J-1D01*
G02Y361459I143J140D01*
G03X146884Y363819I-2419J2361D01*
G03X145923Y366179I-3380J-1D01*
G02Y366459I143J140D01*
G03X146884Y368819I-2419J2361D01*
G03X145923Y371179I-3380J-1D01*
G02Y371459I143J140D01*
G03X146884Y373819I-2419J2361D01*
G03X145923Y376179I-3380J-1D01*
G02Y376459I143J140D01*
G03X146884Y378819I-2419J2361D01*
G03X145923Y381179I-3380J-1D01*
G02Y381459I143J140D01*
G03X146884Y383819I-2419J2361D01*
G03X146839Y384363I-3380J-6D01*
G02X147234Y384827I395J64D01*
G37*
G36*
G01X198720Y126995D02*
G03X200262Y127720I0J2001D01*
G02X200853Y127747I308J-256D01*
G01X200902Y127698D01*
G03X202600Y126994I1699J1698D01*
G01X206114D01*
X212208Y120901D01*
Y114153D01*
G03X212911Y112455I2402J0D01*
G01X219992Y105374D01*
G02X219826Y104709I-283J-283D01*
G03X215911Y99409I1630J-5300D01*
G03X217003Y96105I5544J0D01*
G02X216682Y95466I-321J-239D01*
G01X200639D01*
G02X200318Y96105I0J400D01*
G03X201410Y99409I-4452J3304D01*
G03X195865Y104954I-5545J0D01*
G03X193719Y104522I0J-5546D01*
G02X193164Y104891I-155J369D01*
G01Y109219D01*
G03X192461Y110917I-2402J0D01*
G01X180453Y122925D01*
G02X180475Y123227I142J141D01*
G03X180680Y123392I-1903J2575D01*
G01X186202D01*
X190632Y118963D01*
X190594Y118846D01*
G03X190320Y117126I5271J-1721D01*
G03X195865Y122671I5545J0D01*
G03X194145Y122397I1J-5545D01*
G01X194028Y122359D01*
X190075Y126312D01*
G02X190358Y126995I283J283D01*
G01X190452D01*
G03X191795Y127512I1J2002D01*
G02X192063I134J-148D01*
G03X193406Y126995I1342J1485D01*
G01X198720D01*
G37*
G36*
G01X221920Y277879D02*
X237486Y293445D01*
G02X238168Y293162I282J-283D01*
G01Y264511D01*
X232694Y259036D01*
G02X232046Y259155I-283J283D01*
G03X229803Y261621I-4881J-2186D01*
G02Y262317I197J348D01*
G03X232513Y266969I-2638J4652D01*
G03X227165Y272317I-5348J0D01*
G03X222657Y269846I0J-5348D01*
G02X221920Y270061I-337J215D01*
G01Y277879D01*
G37*
%LPC*%
G75*
G36*
G01X278005Y121561D02*
G03X277400Y121700I-359J-176D01*
G02X273740Y120439I-3659J4678D01*
G02Y132317I0J5939D01*
G02X277400Y131056I1J-5939D01*
G03X278005Y131195I246J315D01*
G02X279803Y132316I1797J-880D01*
G01X287677D01*
G02X289678Y130315I0J-2001D01*
G01Y122441D01*
G02X287677Y120440I-2001J0D01*
G01X279803D01*
G02X278005Y121561I-1J2001D01*
G37*
G36*
G01X274664Y228347D02*
Y306931D01*
G02X270242Y313386I2500J6455D01*
G02X284088I6923J0D01*
G02X279666Y306931I-6922J0D01*
G01Y229383D01*
X288299Y220751D01*
G02X290945Y221293I2645J-6184D01*
G02X284219Y214567I0J-6726D01*
G02X284711Y217091I6726J-1D01*
G01X284760Y217214D01*
X275396Y226578D01*
G02X274664Y228347I1769J1768D01*
G37*
G54D34*
X235433Y159645D03*
Y140355D03*
G54D37*
X26378Y53739D03*
X255118Y189172D03*
X119094Y99409D03*
X93503D03*
G54D36*
X24016Y214566D03*
Y194881D03*
G54D35*
X37795Y107874D03*
X253543Y305512D03*
%LPD*%
G75*
G54D10*
X14173Y115748D03*
X37795Y107874D03*
X61417Y115748D03*
Y163779D03*
X253543Y257481D03*
Y305512D03*
X277165Y313386D03*
X300787Y305512D03*
G54D20*
X83071Y111679D03*
Y104070D03*
X195669Y163254D03*
Y155645D03*
X233071Y111285D03*
Y103676D03*
G54D11*
X14744Y294094D03*
Y325591D03*
X34863Y294094D03*
Y325591D03*
G54D21*
X78347Y333819D03*
Y328819D03*
Y323819D03*
Y318819D03*
Y313819D03*
Y358819D03*
Y353819D03*
Y348819D03*
Y343819D03*
Y338819D03*
Y383819D03*
Y378819D03*
Y373819D03*
Y368819D03*
Y363819D03*
X142126Y313819D03*
Y318819D03*
Y323819D03*
Y328819D03*
Y333819D03*
Y358819D03*
Y338819D03*
Y343819D03*
Y348819D03*
Y353819D03*
Y363819D03*
Y368819D03*
Y373819D03*
Y378819D03*
Y383819D03*
X172835Y333819D03*
Y328819D03*
Y323819D03*
Y318819D03*
Y313819D03*
Y358819D03*
Y353819D03*
Y348819D03*
Y343819D03*
Y338819D03*
Y383819D03*
Y378819D03*
Y373819D03*
Y368819D03*
Y363819D03*
X236614Y313819D03*
Y318819D03*
Y323819D03*
Y328819D03*
Y333819D03*
Y358819D03*
Y338819D03*
Y343819D03*
Y348819D03*
Y353819D03*
Y363819D03*
Y368819D03*
Y373819D03*
Y378819D03*
Y383819D03*
G54D12*
X23622Y23622D03*
Y370079D03*
X291339Y23622D03*
Y370079D03*
G54D30*
X283740Y126378D03*
G54D22*
X121693Y81890D03*
G54D31*
X273740Y126378D03*
G54D13*
X26378Y53739D03*
Y87992D03*
X38189Y246063D03*
Y255906D03*
Y265748D03*
X93503Y99409D03*
Y117126D03*
X119094Y99409D03*
Y117126D03*
X195865Y99409D03*
Y117126D03*
X221456Y99409D03*
Y117126D03*
X255118Y189172D03*
Y223425D03*
X278346Y73424D03*
Y107677D03*
X293307Y73424D03*
Y107677D03*
G54D32*
G01X26378Y87992D02*
X59817D01*
G01X182513Y66253D02*
X90638D01*
X67638Y89253D01*
Y147751D01*
X38189Y177200D01*
Y246063D01*
G01D02*
X33345Y250907D01*
Y288763D01*
G01X38189Y255906D02*
X61786D01*
G01X54606Y284646D02*
X50631D01*
X38189Y272204D01*
Y265748D01*
G01X14744Y294094D02*
X23562D01*
G01X14744Y289628D02*
Y294094D01*
G01D02*
Y298560D01*
G01X34863Y294094D02*
X43281D01*
G01X33345Y288763D02*
X29562D01*
X26062Y292263D01*
Y321890D01*
X22361Y325591D01*
X14744D01*
G01X54606Y292520D02*
X50530D01*
X46773Y288763D01*
X33345D01*
G01X34863Y325591D02*
X42480D01*
X66792Y301279D01*
G01X34863Y321125D02*
Y325591D01*
G01D02*
Y330057D01*
G01X59817Y87992D02*
X84455Y63354D01*
X164012D01*
G01X61417Y115748D02*
Y89592D01*
X59817Y87992D01*
G01X63386Y219331D02*
Y248031D01*
G01X57837Y219331D02*
X63386D01*
G01D02*
X68935D01*
G01X63386Y254306D02*
Y248031D01*
G01D02*
X68889D01*
G01X66792Y284646D02*
Y257712D01*
G01X61786Y255906D02*
X63386Y254306D01*
G01X66792Y257712D02*
X63386Y254306D01*
G01X62716Y292520D02*
X66792D01*
G01X62716Y284646D02*
X66792D01*
G01Y292520D02*
X68292Y291020D01*
G01X66792Y301279D02*
Y292520D01*
G01X68292Y284646D02*
X66792D01*
G01X91693Y81890D02*
Y87045D01*
G01X86538Y81890D02*
X91693D01*
G01X119094Y99409D02*
X93503D01*
G01Y93663D02*
Y99409D01*
G01D02*
Y105155D01*
G01X87757Y99409D02*
X93503D01*
G01X135570Y106549D02*
X130440Y111679D01*
X83071D01*
G01X103241Y255374D02*
X83584D01*
G01X68292Y287203D02*
Y284646D01*
G01Y291020D02*
Y287203D01*
G01X121693Y81890D02*
X125846D01*
X139646Y95690D01*
Y99606D01*
G01X119094Y93663D02*
Y99409D01*
G01D02*
Y105155D01*
G01Y99409D02*
X124840D01*
G01X109710Y176772D02*
X132558D01*
G01X111299Y190945D02*
X105905Y185551D01*
Y173661D01*
X111680Y167886D01*
X125846D01*
G01X162480Y215145D02*
X114741D01*
X103241Y226645D01*
Y255374D01*
G01X111299Y253543D02*
Y236041D01*
G01X103241Y255374D02*
X104841Y256974D01*
Y261587D01*
G01X105279Y332283D02*
Y350394D01*
G01X145079Y104264D02*
X147756D01*
G01Y99606D02*
X151832D01*
G01X147756Y104264D02*
X151832Y100188D01*
Y99606D01*
G01X147756Y114961D02*
Y104264D01*
G01X135670Y111103D02*
X139528Y114961D01*
X139646D01*
G01X135570Y106549D02*
X135670Y106649D01*
Y111103D01*
G01X139646Y99606D02*
X139528D01*
X135570Y103564D01*
Y106549D01*
G01X148268Y139887D02*
X165630Y122525D01*
Y114961D01*
G01X160800Y114207D02*
X157263D01*
X152551Y118919D01*
X139747D01*
X139646Y118818D01*
Y114961D01*
G01X142677Y157677D02*
Y174803D01*
G01X144277Y151318D02*
X142677Y152918D01*
Y157677D01*
G01X128346Y148658D02*
X127953Y148265D01*
G01X128346Y155000D02*
Y148658D01*
G01X144277Y151318D02*
X165338D01*
X166938Y152918D01*
G01X128346Y148658D02*
X141617D01*
X144277Y151318D01*
G01X127953Y148265D02*
Y139882D01*
G01X123093D02*
X127953D01*
G01D02*
X132813D01*
G01X123486Y155000D02*
X128346D01*
G01D02*
X133206D01*
G01X125846Y167886D02*
X128246D01*
X128346Y167786D01*
Y163110D01*
G01X132558Y179870D02*
Y176772D01*
G01X146589Y174803D02*
X142677D01*
G01X132558Y176772D02*
X134527Y174803D01*
G01D02*
X142677D01*
G01X147982Y318819D02*
X149288Y317513D01*
Y289704D01*
G01D02*
X128850D01*
X125197Y286051D01*
G01X149288Y289704D02*
Y287203D01*
G01X142126Y318819D02*
X147982D01*
G01X142126D02*
X135768D01*
G01X147982D02*
Y372019D01*
G01X135768Y318819D02*
X131359Y323228D01*
G01X142126Y313819D02*
Y311241D01*
X138127Y307242D01*
X134252D01*
G01X142126Y373819D02*
X146182D01*
G01X142126Y383819D02*
X146082D01*
X146182Y383719D01*
Y373819D01*
G01X147982Y372019D02*
X146182Y373819D01*
G01X176919Y84249D02*
X179419Y86749D01*
Y97105D01*
G01X161650Y99606D02*
X151832D01*
G01X165880D02*
X161650D01*
G01D02*
Y102650D01*
G01D02*
G02X166600Y107600I4950J0D01*
G01X170337D01*
G01D02*
G03X173740Y111003I0J3403D01*
G01Y114961D01*
G01X165880Y94693D02*
Y99606D01*
G01D02*
Y104519D01*
G01X179419Y97105D02*
X176918Y99606D01*
X173489D01*
G01X160800Y107800D02*
Y114207D01*
G01X173662Y151318D02*
Y122419D01*
X173740Y122341D01*
G01D02*
Y114961D01*
G01X160800Y114207D02*
X161554Y114961D01*
X165630D01*
G01X167599Y174803D02*
Y163170D01*
G01X166938Y152918D02*
Y162509D01*
X167599Y163170D01*
G01X166938Y152918D02*
X172062D01*
X173662Y151318D01*
G01D02*
X187795D01*
G01X179785Y174803D02*
Y169718D01*
X169438Y159371D01*
G01X175709Y174803D02*
X179785D01*
G01X213661Y213545D02*
X212061Y215145D01*
X162480D01*
G01X182513Y66253D02*
Y41339D01*
G01X258837Y75591D02*
X249499Y66253D01*
X182513D01*
G01X195865Y99409D02*
X209009D01*
G01Y123783D02*
X205096Y127696D01*
X196063D01*
G01Y131772D02*
Y127696D01*
G01D02*
X195711D01*
X191753Y131654D01*
G01X187795Y131772D02*
X187913Y131654D01*
X191753D01*
G01D02*
Y149718D01*
G01X203938Y133072D02*
X207895D01*
G01X187795Y155394D02*
Y151318D01*
G01D02*
X189395Y149718D01*
G01X191753D02*
X202236D01*
G01D02*
X203937Y151419D01*
Y155394D01*
G01X189395Y149718D02*
X191753D01*
G01X199680Y159470D02*
Y166303D01*
X191180Y174803D01*
X179785D01*
G01X195669Y155645D02*
Y159074D01*
X196065Y159470D01*
X199680D01*
G01X203937Y163504D02*
X207794D01*
X207895Y163403D01*
Y133072D01*
G01X203937Y163504D02*
Y159529D01*
X203878Y159470D01*
X199680D01*
G01X219418Y278915D02*
X199154D01*
X197554Y280515D01*
G01D02*
X180315D01*
G01X197554D02*
Y294509D01*
G01X217441Y41339D02*
Y49855D01*
X230941Y63355D01*
X275451D01*
X299951Y87855D01*
Y108121D01*
X293951Y114121D01*
X279352D01*
G01X221456Y99409D02*
X209009D01*
G01D02*
Y123783D01*
G01X207895Y133072D02*
X214814D01*
X233071Y114815D01*
G01X213661Y190945D02*
Y213545D01*
G01D02*
X245238D01*
X255118Y223425D01*
G01X227165Y266969D02*
Y272518D01*
G01Y266969D02*
X232714D01*
G01X227165Y256969D02*
X219418Y264716D01*
Y278915D01*
G01X236614Y313819D02*
Y296111D01*
X219418Y278915D01*
G01X236614Y318819D02*
X231858D01*
G01X233071Y111285D02*
Y114815D01*
G01X279352Y114121D02*
Y114815D01*
X233071D01*
G01X262682Y156319D02*
X239389D01*
G01X290945Y194882D02*
X253543Y232284D01*
Y257481D01*
G01X236614Y373819D02*
X241370D01*
G01X236614Y383819D02*
X240570D01*
X241370Y383019D01*
G01D02*
Y373819D01*
G01X279352Y114121D02*
X278346D01*
Y107677D01*
G01X290945Y214567D02*
X277165Y228347D01*
Y313386D01*
G54D14*
X24016Y194881D03*
Y214566D03*
X290945Y194882D03*
Y214567D03*
G54D23*
X101299Y190945D03*
X111299D03*
X152480D03*
X162480D03*
X203661D03*
X213661D03*
G54D33*
G01X63386Y189331D02*
X69200Y195145D01*
X148280D01*
G01X63386Y209331D02*
X119356D01*
G01X63386Y199331D02*
X121756D01*
G01X152532Y92265D02*
X136404Y76137D01*
X84634D01*
X75338Y85433D01*
G01X83071Y104070D02*
X82590D01*
X79160Y107500D01*
Y114726D01*
X81560Y117126D01*
X93503D01*
G01D02*
X119094D01*
G01X203661Y190945D02*
X192875Y201731D01*
X86084D01*
G01X78347Y368819D02*
X82713D01*
X89213Y362319D01*
Y342938D01*
G01X78347Y333819D02*
X83777D01*
X97277Y347319D01*
Y374409D01*
G01X159851Y117894D02*
X155875Y121870D01*
X123838D01*
X119094Y117126D01*
G01X124365Y147835D02*
X108835D01*
G01X102101Y176772D02*
Y177253D01*
X98328Y181026D01*
Y187974D01*
X101299Y190945D01*
G01X142126Y353819D02*
X137299D01*
X114299Y330819D01*
Y281542D01*
X107900Y275143D01*
Y225645D01*
G01X142126Y348819D02*
X134999D01*
X121999Y335819D01*
Y246641D01*
X113799Y238441D01*
G01X236614Y348819D02*
X232602D01*
X124398Y240615D01*
Y240113D01*
X115857Y231572D01*
G01X142126Y358819D02*
X137799D01*
X110299Y331319D01*
Y301768D01*
G01X127953Y131772D02*
X143470D01*
X147047Y128195D01*
G01X148280Y195145D02*
Y179958D01*
X150768Y177470D01*
Y157677D01*
G01X148280Y195145D02*
X191262D01*
G01X236614Y353819D02*
X240570D01*
Y263516D01*
X229023Y251969D01*
X139526D01*
X128398Y240841D01*
G01X142126Y323819D02*
X137772D01*
X133772Y327819D01*
Y343739D01*
G01X142126Y338819D02*
X136971D01*
G01X184113Y36339D02*
X174939Y27165D01*
X159618D01*
G01X168889Y79502D02*
X183616D01*
X189163Y85049D01*
G01X176162Y136024D02*
Y123820D01*
X190763Y109219D01*
Y97565D01*
X195263Y93065D01*
X222200D01*
X226200Y97065D01*
Y102562D01*
X214609Y114153D01*
Y121896D01*
X207109Y129396D01*
X202600D01*
X200000Y131996D01*
Y135827D01*
X196063Y139764D01*
Y139882D01*
G01X187795D02*
X180020D01*
X176162Y136024D01*
G01X163228Y155709D02*
Y172614D01*
X154728Y181114D01*
X150680D01*
G01X154198Y174803D02*
Y168200D01*
X159228Y163170D01*
G01X152480Y190945D02*
X156680Y186745D01*
X228740D01*
G01X154921Y183514D02*
X245682D01*
X282877Y146319D01*
G01X172835Y353819D02*
X203562D01*
X218162Y368419D01*
G01X172835Y358819D02*
X190596D01*
G01X189163Y85049D02*
X278346D01*
G01X188262Y98665D02*
Y85950D01*
X189163Y85049D01*
G01X203938Y138583D02*
X203812D01*
X201036Y135807D01*
X200020D01*
X196063Y139764D01*
Y139882D01*
G01X178562Y125794D02*
X187197D01*
X195865Y117126D01*
G01X187795Y167480D02*
X194872D01*
X195669Y166683D01*
Y163254D01*
G01X187795Y163504D02*
Y167480D01*
G01X185395Y168280D02*
X187795D01*
Y167480D01*
G01X227165Y236969D02*
X209441Y219245D01*
X186462D01*
G01X227165Y246969D02*
X206659D01*
X184062Y224372D01*
G01X236614Y368819D02*
X223762D01*
X195115Y340172D01*
X179820D01*
G01X222754Y46339D02*
Y52555D01*
X229254Y59055D01*
X257248D01*
G01X227441Y41339D02*
Y53739D01*
G01X233071Y103676D02*
X221456Y115291D01*
Y117126D01*
G01X236614Y358819D02*
X228557D01*
G01X278346Y73424D02*
Y85049D01*
G01X293307Y107677D02*
Y100010D01*
X278346Y85049D01*
G54D24*
X102101Y176772D03*
X109710D03*
X146589Y174803D03*
X165880Y99606D03*
X173489D03*
X154198Y174803D03*
G54D15*
X23562Y294094D03*
X68889Y248031D03*
X68292Y287203D03*
X43281Y294094D03*
X75338Y85433D03*
X86084Y201731D03*
X83584Y255374D03*
X89213Y342938D03*
X108835Y147835D03*
X119356Y209331D03*
X121756Y199331D03*
X111299Y236041D03*
X107900Y225645D03*
X113799Y238441D03*
X115857Y231572D03*
X104841Y261587D03*
X111299Y253543D03*
X110299Y301768D03*
X105279Y332283D03*
Y350394D03*
X97277Y374409D03*
X145079Y104264D03*
X135670Y111103D03*
X147047Y128195D03*
X148268Y139887D03*
X142677Y157677D03*
X150768D03*
X125846Y167886D03*
X124365Y147835D03*
X132558Y179870D03*
X150680Y181114D03*
X128398Y240841D03*
X125197Y286051D03*
X149288Y287203D03*
X131359Y323228D03*
X134252Y307242D03*
X136971Y338819D03*
X133772Y343739D03*
X159618Y27165D03*
X176919Y84249D03*
X164012Y63354D03*
X168889Y79502D03*
X161650Y99606D03*
X160800Y107800D03*
X152532Y92265D03*
X176162Y136024D03*
X178562Y125794D03*
X159851Y117894D03*
X167599Y163170D03*
X163228Y155709D03*
X159228Y163170D03*
X169438Y159371D03*
X154921Y183514D03*
X162480Y215145D03*
X182513Y41339D03*
X184113Y36339D03*
X179419Y97105D03*
X188262Y98665D03*
X185395Y168280D03*
X191262Y195145D03*
X186462Y219245D03*
X184062Y224372D03*
X197554Y294509D03*
X180315Y280515D03*
X179820Y340172D03*
X190596Y358819D03*
X222754Y46339D03*
X227441Y53739D03*
X209009Y123783D03*
X228740Y186745D03*
X231858Y318819D03*
X228557Y358819D03*
X218162Y368419D03*
X258837Y75591D03*
X257248Y59055D03*
X239389Y156319D03*
X241370Y373819D03*
X262682Y156319D03*
X282877Y146319D03*
G54D25*
X127953Y139882D03*
Y131772D03*
X128346Y163110D03*
Y155000D03*
X196063Y131772D03*
Y139882D03*
X187795Y131772D03*
Y139882D03*
X203937Y163504D03*
Y155394D03*
X187795Y163504D03*
Y155394D03*
G54D16*
X63386Y189331D03*
X227165Y236969D03*
G54D17*
X63386Y199331D03*
Y209331D03*
Y219331D03*
X227165Y246969D03*
Y256969D03*
Y266969D03*
G54D26*
X131890Y208858D03*
Y204527D03*
G54D18*
X54606Y284646D03*
X62716D03*
Y292520D03*
X54606D03*
X139646Y99606D03*
X147756D03*
X139646Y114961D03*
X147756D03*
X165630D03*
X173740D03*
X175709Y174803D03*
X167599D03*
G54D27*
X203938Y138583D03*
Y133072D03*
G54D19*
X91693Y81890D03*
X111693D03*
X101693D03*
G54D28*
X217441Y41339D03*
X227441D03*
G54D29*
X235433Y140355D03*
Y159645D03*
M02*
