G04 ================== begin FILE IDENTIFICATION RECORD ==================*
G04 Layout Name:  SHOWERTERMINAL.brd*
G04 Film Name:    Drill_Drawing*
G04 File Format:  Gerber RS274X*
G04 File Origin:  Cadence Allegro 17.2-S079*
G04 Origin Date:  Thu May 05 21:00:59 2022*
G04 *
G04 Layer:  MANUFACTURING/NCLEGEND-1-2*
G04 Layer:  BOARD GEOMETRY/DESIGN_OUTLINE*
G04 *
G04 Offset:    (0.00 0.00)*
G04 Mirror:    No*
G04 Mode:      Positive*
G04 Rotation:  0*
G04 FullContactRelief:  No*
G04 UndefLineWidth:     6.00*
G04 ================== end FILE IDENTIFICATION RECORD ====================*
%FSLAX25Y25*MOIN*%
%IR0*IPPOS*OFA0.00000B0.00000*MIA0B0*SFA1.00000B1.00000*%
%AMMACRO17*
1,1,.006,0.0,.019685*
20,1,.006,0.0,.019685,.003418,.019386,0.0*
1,1,.006,.003418,.019386*
20,1,.006,.003418,.019386,.006733,.018498,0.0*
1,1,.006,.006733,.018498*
20,1,.006,.006733,.018498,.009842,.017048,0.0*
1,1,.006,.009842,.017048*
20,1,.006,.009842,.017048,.012653,.01508,0.0*
1,1,.006,.012653,.01508*
20,1,.006,.012653,.01508,.01508,.012653,0.0*
1,1,.006,.01508,.012653*
20,1,.006,.01508,.012653,.017048,.009843,0.0*
1,1,.006,.017048,.009843*
20,1,.006,.017048,.009843,.018498,.006733,0.0*
1,1,.006,.018498,.006733*
20,1,.006,.018498,.006733,.019386,.003418,0.0*
1,1,.006,.019386,.003418*
20,1,.006,.019386,.003418,.019685,0.0,0.0*
1,1,.006,.019685,0.0*
20,1,.006,.019685,0.0,.019386,-.003418,0.0*
1,1,.006,.019386,-.003418*
20,1,.006,.019386,-.003418,.018498,-.006733,0.0*
1,1,.006,.018498,-.006733*
20,1,.006,.018498,-.006733,.017048,-.009842,0.0*
1,1,.006,.017048,-.009842*
20,1,.006,.017048,-.009842,.01508,-.012653,0.0*
1,1,.006,.01508,-.012653*
20,1,.006,.01508,-.012653,.012653,-.01508,0.0*
1,1,.006,.012653,-.01508*
20,1,.006,.012653,-.01508,.009843,-.017048,0.0*
1,1,.006,.009843,-.017048*
20,1,.006,.009843,-.017048,.006733,-.018498,0.0*
1,1,.006,.006733,-.018498*
20,1,.006,.006733,-.018498,.003418,-.019386,0.0*
1,1,.006,.003418,-.019386*
20,1,.006,.003418,-.019386,0.0,-.019685,0.0*
1,1,.006,0.0,-.019685*
20,1,.006,0.0,-.019685,-.003418,-.019386,0.0*
1,1,.006,-.003418,-.019386*
20,1,.006,-.003418,-.019386,-.006733,-.018498,0.0*
1,1,.006,-.006733,-.018498*
20,1,.006,-.006733,-.018498,-.009842,-.017048,0.0*
1,1,.006,-.009842,-.017048*
20,1,.006,-.009842,-.017048,-.012653,-.01508,0.0*
1,1,.006,-.012653,-.01508*
20,1,.006,-.012653,-.01508,-.01508,-.012653,0.0*
1,1,.006,-.01508,-.012653*
20,1,.006,-.01508,-.012653,-.017048,-.009843,0.0*
1,1,.006,-.017048,-.009843*
20,1,.006,-.017048,-.009843,-.018498,-.006733,0.0*
1,1,.006,-.018498,-.006733*
20,1,.006,-.018498,-.006733,-.019386,-.003418,0.0*
1,1,.006,-.019386,-.003418*
20,1,.006,-.019386,-.003418,-.019685,0.0,0.0*
1,1,.006,-.019685,0.0*
20,1,.006,-.019685,0.0,-.019386,.003418,0.0*
1,1,.006,-.019386,.003418*
20,1,.006,-.019386,.003418,-.018498,.006733,0.0*
1,1,.006,-.018498,.006733*
20,1,.006,-.018498,.006733,-.017048,.009842,0.0*
1,1,.006,-.017048,.009842*
20,1,.006,-.017048,.009842,-.01508,.012653,0.0*
1,1,.006,-.01508,.012653*
20,1,.006,-.01508,.012653,-.012653,.01508,0.0*
1,1,.006,-.012653,.01508*
20,1,.006,-.012653,.01508,-.009843,.017048,0.0*
1,1,.006,-.009843,.017048*
20,1,.006,-.009843,.017048,-.006733,.018498,0.0*
1,1,.006,-.006733,.018498*
20,1,.006,-.006733,.018498,-.003418,.019386,0.0*
1,1,.006,-.003418,.019386*
20,1,.006,-.003418,.019386,0.0,.019685,0.0*
1,1,.006,0.0,.019685*
1,1,.006,-.00984,-.00984*
20,1,.006,-.00984,-.00984,-.01246,-.00951,0.0*
1,1,.006,-.01246,-.00951*
20,1,.006,-.01246,-.00951,-.01476,-.0082,0.0*
1,1,.006,-.01476,-.0082*
20,1,.006,-.01476,-.0082,-.01673,-.00623,0.0*
1,1,.006,-.01673,-.00623*
20,1,.006,-.01673,-.00623,-.01804,-.00394,0.0*
1,1,.006,-.01804,-.00394*
20,1,.006,-.01804,-.00394,-.0187,-.00131,0.0*
1,1,.006,-.0187,-.00131*
20,1,.006,-.0187,-.00131,-.0187,.00131,0.0*
1,1,.006,-.0187,.00131*
20,1,.006,-.0187,.00131,-.01804,.00394,0.0*
1,1,.006,-.01804,.00394*
20,1,.006,-.01804,.00394,-.01673,.00623,0.0*
1,1,.006,-.01673,.00623*
20,1,.006,-.01673,.00623,-.01476,.0082,0.0*
1,1,.006,-.01476,.0082*
20,1,.006,-.01476,.0082,-.01246,.00951,0.0*
1,1,.006,-.01246,.00951*
20,1,.006,-.01246,.00951,-.00984,.00984,0.0*
1,1,.006,-.00984,.00984*
20,1,.006,-.00984,.00984,-.00722,.00951,0.0*
1,1,.006,-.00722,.00951*
20,1,.006,-.00722,.00951,-.00492,.0082,0.0*
1,1,.006,-.00492,.0082*
20,1,.006,-.00492,.0082,-.00295,.00623,0.0*
1,1,.006,-.00295,.00623*
20,1,.006,-.00295,.00623,-.00164,.00394,0.0*
1,1,.006,-.00164,.00394*
20,1,.006,-.00164,.00394,-.00098,.00131,0.0*
1,1,.006,-.00098,.00131*
20,1,.006,-.00098,.00131,-.00098,-.00131,0.0*
1,1,.006,-.00098,-.00131*
20,1,.006,-.00098,-.00131,-.00164,-.00394,0.0*
1,1,.006,-.00164,-.00394*
20,1,.006,-.00164,-.00394,-.00295,-.00623,0.0*
1,1,.006,-.00295,-.00623*
20,1,.006,-.00295,-.00623,-.00492,-.0082,0.0*
1,1,.006,-.00492,-.0082*
20,1,.006,-.00492,-.0082,-.00722,-.00951,0.0*
1,1,.006,-.00722,-.00951*
20,1,.006,-.00722,-.00951,-.00984,-.00984,0.0*
1,1,.006,-.00984,-.00984*
1,1,.006,.01641,-.00984*
20,1,.006,.01641,-.00984,.00329,-.00984,0.0*
1,1,.006,.00329,-.00984*
20,1,.006,.00329,-.00984,.00329,.00984,0.0*
1,1,.006,.00329,.00984*
20,1,.006,.00329,.00984,.01641,.00984,0.0*
1,1,.006,.01641,.00984*
1,1,.006,.01116,.00033*
20,1,.006,.01116,.00033,.00329,.00033,0.0*
1,1,.006,.00329,.00033*
%
%ADD17MACRO17*%
%AMMACRO21*
1,1,.006,-.00984,0.0*
20,1,.006,-.00984,0.0,-.009695,.00171,0.0*
1,1,.006,-.009695,.00171*
20,1,.006,-.009695,.00171,-.009251,.003367,0.0*
1,1,.006,-.009251,.003367*
20,1,.006,-.009251,.003367,-.008526,.004922,0.0*
1,1,.006,-.008526,.004922*
20,1,.006,-.008526,.004922,-.007542,.006328,0.0*
1,1,.006,-.007542,.006328*
20,1,.006,-.007542,.006328,-.006328,.007542,0.0*
1,1,.006,-.006328,.007542*
20,1,.006,-.006328,.007542,-.004923,.008526,0.0*
1,1,.006,-.004923,.008526*
20,1,.006,-.004923,.008526,-.003367,.009251,0.0*
1,1,.006,-.003367,.009251*
20,1,.006,-.003367,.009251,-.00171,.009695,0.0*
1,1,.006,-.00171,.009695*
20,1,.006,-.00171,.009695,0.0,.009845,0.0*
1,1,.006,0.0,.009845*
20,1,.006,0.0,.009845,.00171,.009695,0.0*
1,1,.006,.00171,.009695*
20,1,.006,.00171,.009695,.003367,.009251,0.0*
1,1,.006,.003367,.009251*
20,1,.006,.003367,.009251,.004922,.008526,0.0*
1,1,.006,.004922,.008526*
20,1,.006,.004922,.008526,.006328,.007542,0.0*
1,1,.006,.006328,.007542*
20,1,.006,.006328,.007542,.007542,.006328,0.0*
1,1,.006,.007542,.006328*
20,1,.006,.007542,.006328,.008526,.004923,0.0*
1,1,.006,.008526,.004923*
20,1,.006,.008526,.004923,.009251,.003367,0.0*
1,1,.006,.009251,.003367*
20,1,.006,.009251,.003367,.009695,.00171,0.0*
1,1,.006,.009695,.00171*
20,1,.006,.009695,.00171,.00984,0.0,0.0*
1,1,.006,.00984,0.0*
20,1,.006,.00984,0.0,.009695,-.00171,0.0*
1,1,.006,.009695,-.00171*
20,1,.006,.009695,-.00171,.009251,-.003367,0.0*
1,1,.006,.009251,-.003367*
20,1,.006,.009251,-.003367,.008526,-.004922,0.0*
1,1,.006,.008526,-.004922*
20,1,.006,.008526,-.004922,.007542,-.006328,0.0*
1,1,.006,.007542,-.006328*
20,1,.006,.007542,-.006328,.006328,-.007542,0.0*
1,1,.006,.006328,-.007542*
20,1,.006,.006328,-.007542,.004923,-.008526,0.0*
1,1,.006,.004923,-.008526*
20,1,.006,.004923,-.008526,.003367,-.009251,0.0*
1,1,.006,.003367,-.009251*
20,1,.006,.003367,-.009251,.00171,-.009695,0.0*
1,1,.006,.00171,-.009695*
20,1,.006,.00171,-.009695,0.0,-.009845,0.0*
1,1,.006,0.0,-.009845*
20,1,.006,0.0,-.009845,-.00171,-.009695,0.0*
1,1,.006,-.00171,-.009695*
20,1,.006,-.00171,-.009695,-.003367,-.009251,0.0*
1,1,.006,-.003367,-.009251*
20,1,.006,-.003367,-.009251,-.004922,-.008526,0.0*
1,1,.006,-.004922,-.008526*
20,1,.006,-.004922,-.008526,-.006328,-.007542,0.0*
1,1,.006,-.006328,-.007542*
20,1,.006,-.006328,-.007542,-.007542,-.006328,0.0*
1,1,.006,-.007542,-.006328*
20,1,.006,-.007542,-.006328,-.008526,-.004923,0.0*
1,1,.006,-.008526,-.004923*
20,1,.006,-.008526,-.004923,-.009251,-.003367,0.0*
1,1,.006,-.009251,-.003367*
20,1,.006,-.009251,-.003367,-.009695,-.00171,0.0*
1,1,.006,-.009695,-.00171*
20,1,.006,-.009695,-.00171,-.00984,0.0,0.0*
1,1,.006,-.00984,0.0*
1,1,.006,-.00492,-.00492*
20,1,.006,-.00492,-.00492,-.00623,-.00476,0.0*
1,1,.006,-.00623,-.00476*
20,1,.006,-.00623,-.00476,-.00738,-.0041,0.0*
1,1,.006,-.00738,-.0041*
20,1,.006,-.00738,-.0041,-.00836,-.00312,0.0*
1,1,.006,-.00836,-.00312*
20,1,.006,-.00836,-.00312,-.00902,-.00197,0.0*
1,1,.006,-.00902,-.00197*
20,1,.006,-.00902,-.00197,-.00935,-.00066,0.0*
1,1,.006,-.00935,-.00066*
20,1,.006,-.00935,-.00066,-.00935,.00066,0.0*
1,1,.006,-.00935,.00066*
20,1,.006,-.00935,.00066,-.00902,.00197,0.0*
1,1,.006,-.00902,.00197*
20,1,.006,-.00902,.00197,-.00836,.00312,0.0*
1,1,.006,-.00836,.00312*
20,1,.006,-.00836,.00312,-.00738,.0041,0.0*
1,1,.006,-.00738,.0041*
20,1,.006,-.00738,.0041,-.00623,.00476,0.0*
1,1,.006,-.00623,.00476*
20,1,.006,-.00623,.00476,-.00492,.00492,0.0*
1,1,.006,-.00492,.00492*
20,1,.006,-.00492,.00492,-.00361,.00476,0.0*
1,1,.006,-.00361,.00476*
20,1,.006,-.00361,.00476,-.00246,.0041,0.0*
1,1,.006,-.00246,.0041*
20,1,.006,-.00246,.0041,-.00148,.00312,0.0*
1,1,.006,-.00148,.00312*
20,1,.006,-.00148,.00312,-.00082,.00197,0.0*
1,1,.006,-.00082,.00197*
20,1,.006,-.00082,.00197,-.00049,.00066,0.0*
1,1,.006,-.00049,.00066*
20,1,.006,-.00049,.00066,-.00049,-.00066,0.0*
1,1,.006,-.00049,-.00066*
20,1,.006,-.00049,-.00066,-.00082,-.00197,0.0*
1,1,.006,-.00082,-.00197*
20,1,.006,-.00082,-.00197,-.00148,-.00312,0.0*
1,1,.006,-.00148,-.00312*
20,1,.006,-.00148,-.00312,-.00246,-.0041,0.0*
1,1,.006,-.00246,-.0041*
20,1,.006,-.00246,-.0041,-.00361,-.00476,0.0*
1,1,.006,-.00361,-.00476*
20,1,.006,-.00361,-.00476,-.00492,-.00492,0.0*
1,1,.006,-.00492,-.00492*
1,1,.006,.00083,-.00492*
20,1,.006,.00083,-.00492,.00493,.00492,0.0*
1,1,.006,.00493,.00492*
20,1,.006,.00493,.00492,.00903,-.00492,0.0*
1,1,.006,.00903,-.00492*
1,1,.006,.00755,-.00148*
20,1,.006,.00755,-.00148,.00231,-.00148,0.0*
1,1,.006,.00231,-.00148*
%
%ADD21MACRO21*%
%AMMACRO23*
1,1,.006,.0065,0.0*
20,1,.006,.0065,0.0,-.0065,0.0,0.0*
1,1,.006,-.0065,0.0*
1,1,.006,0.0,.0065*
20,1,.006,0.0,.0065,0.0,-.0065,0.0*
1,1,.006,0.0,-.0065*
%
%ADD23MACRO23*%
%AMMACRO11*
1,1,.006,-.0315,0.0*
20,1,.006,-.0315,0.0,-.031017,.005469,0.0*
1,1,.006,-.031017,.005469*
20,1,.006,-.031017,.005469,-.029596,.010772,0.0*
1,1,.006,-.029596,.010772*
20,1,.006,-.029596,.010772,-.027275,.015747,0.0*
1,1,.006,-.027275,.015747*
20,1,.006,-.027275,.015747,-.024127,.020245,0.0*
1,1,.006,-.024127,.020245*
20,1,.006,-.024127,.020245,-.020245,.024127,0.0*
1,1,.006,-.020245,.024127*
20,1,.006,-.020245,.024127,-.015748,.027275,0.0*
1,1,.006,-.015748,.027275*
20,1,.006,-.015748,.027275,-.010772,.029596,0.0*
1,1,.006,-.010772,.029596*
20,1,.006,-.010772,.029596,-.005469,.031017,0.0*
1,1,.006,-.005469,.031017*
20,1,.006,-.005469,.031017,0.0,.031495,0.0*
1,1,.006,0.0,.031495*
20,1,.006,0.0,.031495,.005469,.031017,0.0*
1,1,.006,.005469,.031017*
20,1,.006,.005469,.031017,.010772,.029596,0.0*
1,1,.006,.010772,.029596*
20,1,.006,.010772,.029596,.015747,.027275,0.0*
1,1,.006,.015747,.027275*
20,1,.006,.015747,.027275,.020245,.024127,0.0*
1,1,.006,.020245,.024127*
20,1,.006,.020245,.024127,.024127,.020245,0.0*
1,1,.006,.024127,.020245*
20,1,.006,.024127,.020245,.027275,.015748,0.0*
1,1,.006,.027275,.015748*
20,1,.006,.027275,.015748,.029596,.010772,0.0*
1,1,.006,.029596,.010772*
20,1,.006,.029596,.010772,.031017,.005469,0.0*
1,1,.006,.031017,.005469*
20,1,.006,.031017,.005469,.0315,0.0,0.0*
1,1,.006,.0315,0.0*
20,1,.006,.0315,0.0,.031017,-.005469,0.0*
1,1,.006,.031017,-.005469*
20,1,.006,.031017,-.005469,.029596,-.010772,0.0*
1,1,.006,.029596,-.010772*
20,1,.006,.029596,-.010772,.027275,-.015747,0.0*
1,1,.006,.027275,-.015747*
20,1,.006,.027275,-.015747,.024127,-.020245,0.0*
1,1,.006,.024127,-.020245*
20,1,.006,.024127,-.020245,.020245,-.024127,0.0*
1,1,.006,.020245,-.024127*
20,1,.006,.020245,-.024127,.015748,-.027275,0.0*
1,1,.006,.015748,-.027275*
20,1,.006,.015748,-.027275,.010772,-.029596,0.0*
1,1,.006,.010772,-.029596*
20,1,.006,.010772,-.029596,.005469,-.031017,0.0*
1,1,.006,.005469,-.031017*
20,1,.006,.005469,-.031017,0.0,-.031495,0.0*
1,1,.006,0.0,-.031495*
20,1,.006,0.0,-.031495,-.005469,-.031017,0.0*
1,1,.006,-.005469,-.031017*
20,1,.006,-.005469,-.031017,-.010772,-.029596,0.0*
1,1,.006,-.010772,-.029596*
20,1,.006,-.010772,-.029596,-.015747,-.027275,0.0*
1,1,.006,-.015747,-.027275*
20,1,.006,-.015747,-.027275,-.020245,-.024127,0.0*
1,1,.006,-.020245,-.024127*
20,1,.006,-.020245,-.024127,-.024127,-.020245,0.0*
1,1,.006,-.024127,-.020245*
20,1,.006,-.024127,-.020245,-.027275,-.015748,0.0*
1,1,.006,-.027275,-.015748*
20,1,.006,-.027275,-.015748,-.029596,-.010772,0.0*
1,1,.006,-.029596,-.010772*
20,1,.006,-.029596,-.010772,-.031017,-.005469,0.0*
1,1,.006,-.031017,-.005469*
20,1,.006,-.031017,-.005469,-.0315,0.0,0.0*
1,1,.006,-.0315,0.0*
1,1,.006,-.01575,-.01574*
20,1,.006,-.01575,-.01574,-.01994,-.01522,0.0*
1,1,.006,-.01994,-.01522*
20,1,.006,-.01994,-.01522,-.02362,-.01312,0.0*
1,1,.006,-.02362,-.01312*
20,1,.006,-.02362,-.01312,-.02677,-.00997,0.0*
1,1,.006,-.02677,-.00997*
20,1,.006,-.02677,-.00997,-.02887,-.00629,0.0*
1,1,.006,-.02887,-.00629*
20,1,.006,-.02887,-.00629,-.02992,-.00209,0.0*
1,1,.006,-.02992,-.00209*
20,1,.006,-.02992,-.00209,-.02992,.0021,0.0*
1,1,.006,-.02992,.0021*
20,1,.006,-.02992,.0021,-.02887,.0063,0.0*
1,1,.006,-.02887,.0063*
20,1,.006,-.02887,.0063,-.02677,.00998,0.0*
1,1,.006,-.02677,.00998*
20,1,.006,-.02677,.00998,-.02362,.01313,0.0*
1,1,.006,-.02362,.01313*
20,1,.006,-.02362,.01313,-.01994,.01523,0.0*
1,1,.006,-.01994,.01523*
20,1,.006,-.01994,.01523,-.01575,.01575,0.0*
1,1,.006,-.01575,.01575*
20,1,.006,-.01575,.01575,-.01155,.01523,0.0*
1,1,.006,-.01155,.01523*
20,1,.006,-.01155,.01523,-.00787,.01313,0.0*
1,1,.006,-.00787,.01313*
20,1,.006,-.00787,.01313,-.00472,.00998,0.0*
1,1,.006,-.00472,.00998*
20,1,.006,-.00472,.00998,-.00262,.0063,0.0*
1,1,.006,-.00262,.0063*
20,1,.006,-.00262,.0063,-.00157,.0021,0.0*
1,1,.006,-.00157,.0021*
20,1,.006,-.00157,.0021,-.00157,-.00209,0.0*
1,1,.006,-.00157,-.00209*
20,1,.006,-.00157,-.00209,-.00262,-.00629,0.0*
1,1,.006,-.00262,-.00629*
20,1,.006,-.00262,-.00629,-.00472,-.00997,0.0*
1,1,.006,-.00472,-.00997*
20,1,.006,-.00472,-.00997,-.00787,-.01312,0.0*
1,1,.006,-.00787,-.01312*
20,1,.006,-.00787,-.01312,-.01155,-.01522,0.0*
1,1,.006,-.01155,-.01522*
20,1,.006,-.01155,-.01522,-.01575,-.01574,0.0*
1,1,.006,-.01575,-.01574*
1,1,.006,.00946,.01575*
20,1,.006,.00946,.01575,.02205,.01575,0.0*
1,1,.006,.02205,.01575*
1,1,.006,.01575,.01575*
20,1,.006,.01575,.01575,.01575,-.01574,0.0*
1,1,.006,.01575,-.01574*
1,1,.006,.00946,-.01574*
20,1,.006,.00946,-.01574,.02205,-.01574,0.0*
1,1,.006,.02205,-.01574*
%
%ADD11MACRO11*%
%AMMACRO10*
1,1,.006,0.0,.031495*
20,1,.006,0.0,.031495,.005469,.031017,0.0*
1,1,.006,.005469,.031017*
20,1,.006,.005469,.031017,.010772,.029596,0.0*
1,1,.006,.010772,.029596*
20,1,.006,.010772,.029596,.015747,.027275,0.0*
1,1,.006,.015747,.027275*
20,1,.006,.015747,.027275,.020245,.024127,0.0*
1,1,.006,.020245,.024127*
20,1,.006,.020245,.024127,.024127,.020245,0.0*
1,1,.006,.024127,.020245*
20,1,.006,.024127,.020245,.027275,.015748,0.0*
1,1,.006,.027275,.015748*
20,1,.006,.027275,.015748,.029596,.010772,0.0*
1,1,.006,.029596,.010772*
20,1,.006,.029596,.010772,.031017,.005469,0.0*
1,1,.006,.031017,.005469*
20,1,.006,.031017,.005469,.031495,0.0,0.0*
1,1,.006,.031495,0.0*
20,1,.006,.031495,0.0,.031017,-.005469,0.0*
1,1,.006,.031017,-.005469*
20,1,.006,.031017,-.005469,.029596,-.010772,0.0*
1,1,.006,.029596,-.010772*
20,1,.006,.029596,-.010772,.027275,-.015747,0.0*
1,1,.006,.027275,-.015747*
20,1,.006,.027275,-.015747,.024127,-.020245,0.0*
1,1,.006,.024127,-.020245*
20,1,.006,.024127,-.020245,.020245,-.024127,0.0*
1,1,.006,.020245,-.024127*
20,1,.006,.020245,-.024127,.015748,-.027275,0.0*
1,1,.006,.015748,-.027275*
20,1,.006,.015748,-.027275,.010772,-.029596,0.0*
1,1,.006,.010772,-.029596*
20,1,.006,.010772,-.029596,.005469,-.031017,0.0*
1,1,.006,.005469,-.031017*
20,1,.006,.005469,-.031017,0.0,-.031495,0.0*
1,1,.006,0.0,-.031495*
20,1,.006,0.0,-.031495,-.005469,-.031017,0.0*
1,1,.006,-.005469,-.031017*
20,1,.006,-.005469,-.031017,-.010772,-.029596,0.0*
1,1,.006,-.010772,-.029596*
20,1,.006,-.010772,-.029596,-.015747,-.027275,0.0*
1,1,.006,-.015747,-.027275*
20,1,.006,-.015747,-.027275,-.020245,-.024127,0.0*
1,1,.006,-.020245,-.024127*
20,1,.006,-.020245,-.024127,-.024127,-.020245,0.0*
1,1,.006,-.024127,-.020245*
20,1,.006,-.024127,-.020245,-.027275,-.015748,0.0*
1,1,.006,-.027275,-.015748*
20,1,.006,-.027275,-.015748,-.029596,-.010772,0.0*
1,1,.006,-.029596,-.010772*
20,1,.006,-.029596,-.010772,-.031017,-.005469,0.0*
1,1,.006,-.031017,-.005469*
20,1,.006,-.031017,-.005469,-.031495,0.0,0.0*
1,1,.006,-.031495,0.0*
20,1,.006,-.031495,0.0,-.031017,.005469,0.0*
1,1,.006,-.031017,.005469*
20,1,.006,-.031017,.005469,-.029596,.010772,0.0*
1,1,.006,-.029596,.010772*
20,1,.006,-.029596,.010772,-.027275,.015747,0.0*
1,1,.006,-.027275,.015747*
20,1,.006,-.027275,.015747,-.024127,.020245,0.0*
1,1,.006,-.024127,.020245*
20,1,.006,-.024127,.020245,-.020245,.024127,0.0*
1,1,.006,-.020245,.024127*
20,1,.006,-.020245,.024127,-.015748,.027275,0.0*
1,1,.006,-.015748,.027275*
20,1,.006,-.015748,.027275,-.010772,.029596,0.0*
1,1,.006,-.010772,.029596*
20,1,.006,-.010772,.029596,-.005469,.031017,0.0*
1,1,.006,-.005469,.031017*
20,1,.006,-.005469,.031017,0.0,.031495,0.0*
1,1,.006,0.0,.031495*
1,1,.006,-.01575,-.01574*
20,1,.006,-.01575,-.01574,-.01994,-.01522,0.0*
1,1,.006,-.01994,-.01522*
20,1,.006,-.01994,-.01522,-.02362,-.01312,0.0*
1,1,.006,-.02362,-.01312*
20,1,.006,-.02362,-.01312,-.02677,-.00997,0.0*
1,1,.006,-.02677,-.00997*
20,1,.006,-.02677,-.00997,-.02887,-.00629,0.0*
1,1,.006,-.02887,-.00629*
20,1,.006,-.02887,-.00629,-.02992,-.00209,0.0*
1,1,.006,-.02992,-.00209*
20,1,.006,-.02992,-.00209,-.02992,.0021,0.0*
1,1,.006,-.02992,.0021*
20,1,.006,-.02992,.0021,-.02887,.0063,0.0*
1,1,.006,-.02887,.0063*
20,1,.006,-.02887,.0063,-.02677,.00998,0.0*
1,1,.006,-.02677,.00998*
20,1,.006,-.02677,.00998,-.02362,.01313,0.0*
1,1,.006,-.02362,.01313*
20,1,.006,-.02362,.01313,-.01994,.01523,0.0*
1,1,.006,-.01994,.01523*
20,1,.006,-.01994,.01523,-.01575,.01575,0.0*
1,1,.006,-.01575,.01575*
20,1,.006,-.01575,.01575,-.01155,.01523,0.0*
1,1,.006,-.01155,.01523*
20,1,.006,-.01155,.01523,-.00787,.01313,0.0*
1,1,.006,-.00787,.01313*
20,1,.006,-.00787,.01313,-.00472,.00998,0.0*
1,1,.006,-.00472,.00998*
20,1,.006,-.00472,.00998,-.00262,.0063,0.0*
1,1,.006,-.00262,.0063*
20,1,.006,-.00262,.0063,-.00157,.0021,0.0*
1,1,.006,-.00157,.0021*
20,1,.006,-.00157,.0021,-.00157,-.00209,0.0*
1,1,.006,-.00157,-.00209*
20,1,.006,-.00157,-.00209,-.00262,-.00629,0.0*
1,1,.006,-.00262,-.00629*
20,1,.006,-.00262,-.00629,-.00472,-.00997,0.0*
1,1,.006,-.00472,-.00997*
20,1,.006,-.00472,-.00997,-.00787,-.01312,0.0*
1,1,.006,-.00787,-.01312*
20,1,.006,-.00787,-.01312,-.01155,-.01522,0.0*
1,1,.006,-.01155,-.01522*
20,1,.006,-.01155,-.01522,-.01575,-.01574,0.0*
1,1,.006,-.01575,-.01574*
1,1,.006,.00946,.01575*
20,1,.006,.00946,.01575,.02205,.01575,0.0*
1,1,.006,.02205,.01575*
1,1,.006,.01575,.01575*
20,1,.006,.01575,.01575,.01575,-.01574,0.0*
1,1,.006,.01575,-.01574*
1,1,.006,.00946,-.01574*
20,1,.006,.00946,-.01574,.02205,-.01574,0.0*
1,1,.006,.02205,-.01574*
%
%ADD10MACRO10*%
%AMMACRO22*
1,1,.006,.08071,.08071*
20,1,.006,.08071,.08071,.08071,-.08071,0.0*
1,1,.006,.08071,-.08071*
20,1,.006,.08071,-.08071,-.08071,-.08071,0.0*
1,1,.006,-.08071,-.08071*
20,1,.006,-.08071,-.08071,-.08071,.08071,0.0*
1,1,.006,-.08071,.08071*
20,1,.006,-.08071,.08071,.08071,.08071,0.0*
1,1,.006,.08071,.08071*
%
%ADD22MACRO22*%
%AMMACRO18*
1,1,.006,0.0,.018*
20,1,.006,0.0,.018,.003126,.017727,0.0*
1,1,.006,.003126,.017727*
20,1,.006,.003126,.017727,.006156,.016914,0.0*
1,1,.006,.006156,.016914*
20,1,.006,.006156,.016914,.009,.015588,0.0*
1,1,.006,.009,.015588*
20,1,.006,.009,.015588,.01157,.013789,0.0*
1,1,.006,.01157,.013789*
20,1,.006,.01157,.013789,.013789,.01157,0.0*
1,1,.006,.013789,.01157*
20,1,.006,.013789,.01157,.015588,.009,0.0*
1,1,.006,.015588,.009*
20,1,.006,.015588,.009,.016914,.006156,0.0*
1,1,.006,.016914,.006156*
20,1,.006,.016914,.006156,.017727,.003126,0.0*
1,1,.006,.017727,.003126*
20,1,.006,.017727,.003126,.018,0.0,0.0*
1,1,.006,.018,0.0*
20,1,.006,.018,0.0,.017727,-.003126,0.0*
1,1,.006,.017727,-.003126*
20,1,.006,.017727,-.003126,.016914,-.006156,0.0*
1,1,.006,.016914,-.006156*
20,1,.006,.016914,-.006156,.015588,-.009,0.0*
1,1,.006,.015588,-.009*
20,1,.006,.015588,-.009,.013789,-.01157,0.0*
1,1,.006,.013789,-.01157*
20,1,.006,.013789,-.01157,.01157,-.013789,0.0*
1,1,.006,.01157,-.013789*
20,1,.006,.01157,-.013789,.009,-.015588,0.0*
1,1,.006,.009,-.015588*
20,1,.006,.009,-.015588,.006156,-.016914,0.0*
1,1,.006,.006156,-.016914*
20,1,.006,.006156,-.016914,.003126,-.017727,0.0*
1,1,.006,.003126,-.017727*
20,1,.006,.003126,-.017727,0.0,-.018,0.0*
1,1,.006,0.0,-.018*
20,1,.006,0.0,-.018,-.003126,-.017727,0.0*
1,1,.006,-.003126,-.017727*
20,1,.006,-.003126,-.017727,-.006156,-.016914,0.0*
1,1,.006,-.006156,-.016914*
20,1,.006,-.006156,-.016914,-.009,-.015588,0.0*
1,1,.006,-.009,-.015588*
20,1,.006,-.009,-.015588,-.01157,-.013789,0.0*
1,1,.006,-.01157,-.013789*
20,1,.006,-.01157,-.013789,-.013789,-.01157,0.0*
1,1,.006,-.013789,-.01157*
20,1,.006,-.013789,-.01157,-.015588,-.009,0.0*
1,1,.006,-.015588,-.009*
20,1,.006,-.015588,-.009,-.016914,-.006156,0.0*
1,1,.006,-.016914,-.006156*
20,1,.006,-.016914,-.006156,-.017727,-.003126,0.0*
1,1,.006,-.017727,-.003126*
20,1,.006,-.017727,-.003126,-.018,0.0,0.0*
1,1,.006,-.018,0.0*
20,1,.006,-.018,0.0,-.017727,.003126,0.0*
1,1,.006,-.017727,.003126*
20,1,.006,-.017727,.003126,-.016914,.006156,0.0*
1,1,.006,-.016914,.006156*
20,1,.006,-.016914,.006156,-.015588,.009,0.0*
1,1,.006,-.015588,.009*
20,1,.006,-.015588,.009,-.013789,.01157,0.0*
1,1,.006,-.013789,.01157*
20,1,.006,-.013789,.01157,-.01157,.013789,0.0*
1,1,.006,-.01157,.013789*
20,1,.006,-.01157,.013789,-.009,.015588,0.0*
1,1,.006,-.009,.015588*
20,1,.006,-.009,.015588,-.006156,.016914,0.0*
1,1,.006,-.006156,.016914*
20,1,.006,-.006156,.016914,-.003126,.017727,0.0*
1,1,.006,-.003126,.017727*
20,1,.006,-.003126,.017727,0.0,.018,0.0*
1,1,.006,0.0,.018*
1,1,.006,-.009,-.009*
20,1,.006,-.009,-.009,-.0114,-.0087,0.0*
1,1,.006,-.0114,-.0087*
20,1,.006,-.0114,-.0087,-.0135,-.0075,0.0*
1,1,.006,-.0135,-.0075*
20,1,.006,-.0135,-.0075,-.0153,-.0057,0.0*
1,1,.006,-.0153,-.0057*
20,1,.006,-.0153,-.0057,-.0165,-.0036,0.0*
1,1,.006,-.0165,-.0036*
20,1,.006,-.0165,-.0036,-.0171,-.0012,0.0*
1,1,.006,-.0171,-.0012*
20,1,.006,-.0171,-.0012,-.0171,.0012,0.0*
1,1,.006,-.0171,.0012*
20,1,.006,-.0171,.0012,-.0165,.0036,0.0*
1,1,.006,-.0165,.0036*
20,1,.006,-.0165,.0036,-.0153,.0057,0.0*
1,1,.006,-.0153,.0057*
20,1,.006,-.0153,.0057,-.0135,.0075,0.0*
1,1,.006,-.0135,.0075*
20,1,.006,-.0135,.0075,-.0114,.0087,0.0*
1,1,.006,-.0114,.0087*
20,1,.006,-.0114,.0087,-.009,.009,0.0*
1,1,.006,-.009,.009*
20,1,.006,-.009,.009,-.0066,.0087,0.0*
1,1,.006,-.0066,.0087*
20,1,.006,-.0066,.0087,-.0045,.0075,0.0*
1,1,.006,-.0045,.0075*
20,1,.006,-.0045,.0075,-.0027,.0057,0.0*
1,1,.006,-.0027,.0057*
20,1,.006,-.0027,.0057,-.0015,.0036,0.0*
1,1,.006,-.0015,.0036*
20,1,.006,-.0015,.0036,-.0009,.0012,0.0*
1,1,.006,-.0009,.0012*
20,1,.006,-.0009,.0012,-.0009,-.0012,0.0*
1,1,.006,-.0009,-.0012*
20,1,.006,-.0009,-.0012,-.0015,-.0036,0.0*
1,1,.006,-.0015,-.0036*
20,1,.006,-.0015,-.0036,-.0027,-.0057,0.0*
1,1,.006,-.0027,-.0057*
20,1,.006,-.0027,-.0057,-.0045,-.0075,0.0*
1,1,.006,-.0045,-.0075*
20,1,.006,-.0045,-.0075,-.0066,-.0087,0.0*
1,1,.006,-.0066,-.0087*
20,1,.006,-.0066,-.0087,-.009,-.009,0.0*
1,1,.006,-.009,-.009*
1,1,.006,.00241,-.009*
20,1,.006,.00241,-.009,.00241,.009,0.0*
1,1,.006,.00241,.009*
20,1,.006,.00241,.009,.00841,.009,0.0*
1,1,.006,.00841,.009*
20,1,.006,.00841,.009,.01081,.0081,0.0*
1,1,.006,.01081,.0081*
20,1,.006,.01081,.0081,.01261,.0069,0.0*
1,1,.006,.01261,.0069*
20,1,.006,.01261,.0069,.01411,.0051,0.0*
1,1,.006,.01411,.0051*
20,1,.006,.01411,.0051,.01531,.003,0.0*
1,1,.006,.01531,.003*
20,1,.006,.01531,.003,.01561,0.0,0.0*
1,1,.006,.01561,0.0*
20,1,.006,.01561,0.0,.01531,-.003,0.0*
1,1,.006,.01531,-.003*
20,1,.006,.01531,-.003,.01411,-.0051,0.0*
1,1,.006,.01411,-.0051*
20,1,.006,.01411,-.0051,.01261,-.0069,0.0*
1,1,.006,.01261,-.0069*
20,1,.006,.01261,-.0069,.01081,-.0081,0.0*
1,1,.006,.01081,-.0081*
20,1,.006,.01081,-.0081,.00841,-.009,0.0*
1,1,.006,.00841,-.009*
20,1,.006,.00841,-.009,.00241,-.009,0.0*
1,1,.006,.00241,-.009*
%
%ADD18MACRO18*%
%AMMACRO15*
1,1,.006,-.02008,0.0*
20,1,.006,-.02008,0.0,-.019775,.003487,0.0*
1,1,.006,-.019775,.003487*
20,1,.006,-.019775,.003487,-.018869,.006868,0.0*
1,1,.006,-.018869,.006868*
20,1,.006,-.018869,.006868,-.01739,.01004,0.0*
1,1,.006,-.01739,.01004*
20,1,.006,-.01739,.01004,-.015382,.012907,0.0*
1,1,.006,-.015382,.012907*
20,1,.006,-.015382,.012907,-.012907,.015382,0.0*
1,1,.006,-.012907,.015382*
20,1,.006,-.012907,.015382,-.01004,.01739,0.0*
1,1,.006,-.01004,.01739*
20,1,.006,-.01004,.01739,-.006868,.018869,0.0*
1,1,.006,-.006868,.018869*
20,1,.006,-.006868,.018869,-.003487,.019775,0.0*
1,1,.006,-.003487,.019775*
20,1,.006,-.003487,.019775,0.0,.02008,0.0*
1,1,.006,0.0,.02008*
20,1,.006,0.0,.02008,.003487,.019775,0.0*
1,1,.006,.003487,.019775*
20,1,.006,.003487,.019775,.006868,.018869,0.0*
1,1,.006,.006868,.018869*
20,1,.006,.006868,.018869,.01004,.01739,0.0*
1,1,.006,.01004,.01739*
20,1,.006,.01004,.01739,.012907,.015382,0.0*
1,1,.006,.012907,.015382*
20,1,.006,.012907,.015382,.015382,.012907,0.0*
1,1,.006,.015382,.012907*
20,1,.006,.015382,.012907,.01739,.01004,0.0*
1,1,.006,.01739,.01004*
20,1,.006,.01739,.01004,.018869,.006868,0.0*
1,1,.006,.018869,.006868*
20,1,.006,.018869,.006868,.019775,.003487,0.0*
1,1,.006,.019775,.003487*
20,1,.006,.019775,.003487,.02008,0.0,0.0*
1,1,.006,.02008,0.0*
20,1,.006,.02008,0.0,.019775,-.003487,0.0*
1,1,.006,.019775,-.003487*
20,1,.006,.019775,-.003487,.018869,-.006868,0.0*
1,1,.006,.018869,-.006868*
20,1,.006,.018869,-.006868,.01739,-.01004,0.0*
1,1,.006,.01739,-.01004*
20,1,.006,.01739,-.01004,.015382,-.012907,0.0*
1,1,.006,.015382,-.012907*
20,1,.006,.015382,-.012907,.012907,-.015382,0.0*
1,1,.006,.012907,-.015382*
20,1,.006,.012907,-.015382,.01004,-.01739,0.0*
1,1,.006,.01004,-.01739*
20,1,.006,.01004,-.01739,.006868,-.018869,0.0*
1,1,.006,.006868,-.018869*
20,1,.006,.006868,-.018869,.003487,-.019775,0.0*
1,1,.006,.003487,-.019775*
20,1,.006,.003487,-.019775,0.0,-.02008,0.0*
1,1,.006,0.0,-.02008*
20,1,.006,0.0,-.02008,-.003487,-.019775,0.0*
1,1,.006,-.003487,-.019775*
20,1,.006,-.003487,-.019775,-.006868,-.018869,0.0*
1,1,.006,-.006868,-.018869*
20,1,.006,-.006868,-.018869,-.01004,-.01739,0.0*
1,1,.006,-.01004,-.01739*
20,1,.006,-.01004,-.01739,-.012907,-.015382,0.0*
1,1,.006,-.012907,-.015382*
20,1,.006,-.012907,-.015382,-.015382,-.012907,0.0*
1,1,.006,-.015382,-.012907*
20,1,.006,-.015382,-.012907,-.01739,-.01004,0.0*
1,1,.006,-.01739,-.01004*
20,1,.006,-.01739,-.01004,-.018869,-.006868,0.0*
1,1,.006,-.018869,-.006868*
20,1,.006,-.018869,-.006868,-.019775,-.003487,0.0*
1,1,.006,-.019775,-.003487*
20,1,.006,-.019775,-.003487,-.02008,0.0,0.0*
1,1,.006,-.02008,0.0*
1,1,.006,-.01004,-.01004*
20,1,.006,-.01004,-.01004,-.01272,-.00971,0.0*
1,1,.006,-.01272,-.00971*
20,1,.006,-.01272,-.00971,-.01506,-.00837,0.0*
1,1,.006,-.01506,-.00837*
20,1,.006,-.01506,-.00837,-.01707,-.00636,0.0*
1,1,.006,-.01707,-.00636*
20,1,.006,-.01707,-.00636,-.01841,-.00402,0.0*
1,1,.006,-.01841,-.00402*
20,1,.006,-.01841,-.00402,-.01908,-.00134,0.0*
1,1,.006,-.01908,-.00134*
20,1,.006,-.01908,-.00134,-.01908,.00134,0.0*
1,1,.006,-.01908,.00134*
20,1,.006,-.01908,.00134,-.01841,.00402,0.0*
1,1,.006,-.01841,.00402*
20,1,.006,-.01841,.00402,-.01707,.00636,0.0*
1,1,.006,-.01707,.00636*
20,1,.006,-.01707,.00636,-.01506,.00837,0.0*
1,1,.006,-.01506,.00837*
20,1,.006,-.01506,.00837,-.01272,.00971,0.0*
1,1,.006,-.01272,.00971*
20,1,.006,-.01272,.00971,-.01004,.01004,0.0*
1,1,.006,-.01004,.01004*
20,1,.006,-.01004,.01004,-.00736,.00971,0.0*
1,1,.006,-.00736,.00971*
20,1,.006,-.00736,.00971,-.00502,.00837,0.0*
1,1,.006,-.00502,.00837*
20,1,.006,-.00502,.00837,-.00301,.00636,0.0*
1,1,.006,-.00301,.00636*
20,1,.006,-.00301,.00636,-.00167,.00402,0.0*
1,1,.006,-.00167,.00402*
20,1,.006,-.00167,.00402,-.001,.00134,0.0*
1,1,.006,-.001,.00134*
20,1,.006,-.001,.00134,-.001,-.00134,0.0*
1,1,.006,-.001,-.00134*
20,1,.006,-.001,-.00134,-.00167,-.00402,0.0*
1,1,.006,-.00167,-.00402*
20,1,.006,-.00167,-.00402,-.00301,-.00636,0.0*
1,1,.006,-.00301,-.00636*
20,1,.006,-.00301,-.00636,-.00502,-.00837,0.0*
1,1,.006,-.00502,-.00837*
20,1,.006,-.00502,-.00837,-.00736,-.00971,0.0*
1,1,.006,-.00736,-.00971*
20,1,.006,-.00736,-.00971,-.01004,-.01004,0.0*
1,1,.006,-.01004,-.01004*
1,1,.006,.00369,-.01004*
20,1,.006,.00369,-.01004,.00369,.01004,0.0*
1,1,.006,.00369,.01004*
20,1,.006,.00369,.01004,.01641,.01004,0.0*
1,1,.006,.01641,.01004*
1,1,.006,.01172,.00033*
20,1,.006,.01172,.00033,.00369,.00033,0.0*
1,1,.006,.00369,.00033*
%
%ADD15MACRO15*%
%AMMACRO16*
1,1,.006,-.02166,0.0*
20,1,.006,-.02166,0.0,-.021326,.00376,0.0*
1,1,.006,-.021326,.00376*
20,1,.006,-.021326,.00376,-.020349,.007406,0.0*
1,1,.006,-.020349,.007406*
20,1,.006,-.020349,.007406,-.018754,.010827,0.0*
1,1,.006,-.018754,.010827*
20,1,.006,-.018754,.010827,-.016589,.01392,0.0*
1,1,.006,-.016589,.01392*
20,1,.006,-.016589,.01392,-.01392,.016589,0.0*
1,1,.006,-.01392,.016589*
20,1,.006,-.01392,.016589,-.010828,.018754,0.0*
1,1,.006,-.010828,.018754*
20,1,.006,-.010828,.018754,-.007406,.020349,0.0*
1,1,.006,-.007406,.020349*
20,1,.006,-.007406,.020349,-.00376,.021326,0.0*
1,1,.006,-.00376,.021326*
20,1,.006,-.00376,.021326,0.0,.021655,0.0*
1,1,.006,0.0,.021655*
20,1,.006,0.0,.021655,.00376,.021326,0.0*
1,1,.006,.00376,.021326*
20,1,.006,.00376,.021326,.007406,.020349,0.0*
1,1,.006,.007406,.020349*
20,1,.006,.007406,.020349,.010827,.018754,0.0*
1,1,.006,.010827,.018754*
20,1,.006,.010827,.018754,.01392,.016589,0.0*
1,1,.006,.01392,.016589*
20,1,.006,.01392,.016589,.016589,.01392,0.0*
1,1,.006,.016589,.01392*
20,1,.006,.016589,.01392,.018754,.010828,0.0*
1,1,.006,.018754,.010828*
20,1,.006,.018754,.010828,.020349,.007406,0.0*
1,1,.006,.020349,.007406*
20,1,.006,.020349,.007406,.021326,.00376,0.0*
1,1,.006,.021326,.00376*
20,1,.006,.021326,.00376,.02166,0.0,0.0*
1,1,.006,.02166,0.0*
20,1,.006,.02166,0.0,.021326,-.00376,0.0*
1,1,.006,.021326,-.00376*
20,1,.006,.021326,-.00376,.020349,-.007406,0.0*
1,1,.006,.020349,-.007406*
20,1,.006,.020349,-.007406,.018754,-.010827,0.0*
1,1,.006,.018754,-.010827*
20,1,.006,.018754,-.010827,.016589,-.01392,0.0*
1,1,.006,.016589,-.01392*
20,1,.006,.016589,-.01392,.01392,-.016589,0.0*
1,1,.006,.01392,-.016589*
20,1,.006,.01392,-.016589,.010828,-.018754,0.0*
1,1,.006,.010828,-.018754*
20,1,.006,.010828,-.018754,.007406,-.020349,0.0*
1,1,.006,.007406,-.020349*
20,1,.006,.007406,-.020349,.00376,-.021326,0.0*
1,1,.006,.00376,-.021326*
20,1,.006,.00376,-.021326,0.0,-.021655,0.0*
1,1,.006,0.0,-.021655*
20,1,.006,0.0,-.021655,-.00376,-.021326,0.0*
1,1,.006,-.00376,-.021326*
20,1,.006,-.00376,-.021326,-.007406,-.020349,0.0*
1,1,.006,-.007406,-.020349*
20,1,.006,-.007406,-.020349,-.010827,-.018754,0.0*
1,1,.006,-.010827,-.018754*
20,1,.006,-.010827,-.018754,-.01392,-.016589,0.0*
1,1,.006,-.01392,-.016589*
20,1,.006,-.01392,-.016589,-.016589,-.01392,0.0*
1,1,.006,-.016589,-.01392*
20,1,.006,-.016589,-.01392,-.018754,-.010828,0.0*
1,1,.006,-.018754,-.010828*
20,1,.006,-.018754,-.010828,-.020349,-.007406,0.0*
1,1,.006,-.020349,-.007406*
20,1,.006,-.020349,-.007406,-.021326,-.00376,0.0*
1,1,.006,-.021326,-.00376*
20,1,.006,-.021326,-.00376,-.02166,0.0,0.0*
1,1,.006,-.02166,0.0*
1,1,.006,-.01083,-.01082*
20,1,.006,-.01083,-.01082,-.01371,-.01046,0.0*
1,1,.006,-.01371,-.01046*
20,1,.006,-.01371,-.01046,-.01624,-.00902,0.0*
1,1,.006,-.01624,-.00902*
20,1,.006,-.01624,-.00902,-.0184,-.00685,0.0*
1,1,.006,-.0184,-.00685*
20,1,.006,-.0184,-.00685,-.01985,-.00433,0.0*
1,1,.006,-.01985,-.00433*
20,1,.006,-.01985,-.00433,-.02057,-.00144,0.0*
1,1,.006,-.02057,-.00144*
20,1,.006,-.02057,-.00144,-.02057,.00145,0.0*
1,1,.006,-.02057,.00145*
20,1,.006,-.02057,.00145,-.01985,.00434,0.0*
1,1,.006,-.01985,.00434*
20,1,.006,-.01985,.00434,-.0184,.00686,0.0*
1,1,.006,-.0184,.00686*
20,1,.006,-.0184,.00686,-.01624,.00903,0.0*
1,1,.006,-.01624,.00903*
20,1,.006,-.01624,.00903,-.01371,.01047,0.0*
1,1,.006,-.01371,.01047*
20,1,.006,-.01371,.01047,-.01083,.01083,0.0*
1,1,.006,-.01083,.01083*
20,1,.006,-.01083,.01083,-.00794,.01047,0.0*
1,1,.006,-.00794,.01047*
20,1,.006,-.00794,.01047,-.00541,.00903,0.0*
1,1,.006,-.00541,.00903*
20,1,.006,-.00541,.00903,-.00325,.00686,0.0*
1,1,.006,-.00325,.00686*
20,1,.006,-.00325,.00686,-.0018,.00434,0.0*
1,1,.006,-.0018,.00434*
20,1,.006,-.0018,.00434,-.00108,.00145,0.0*
1,1,.006,-.00108,.00145*
20,1,.006,-.00108,.00145,-.00108,-.00144,0.0*
1,1,.006,-.00108,-.00144*
20,1,.006,-.00108,-.00144,-.0018,-.00433,0.0*
1,1,.006,-.0018,-.00433*
20,1,.006,-.0018,-.00433,-.00325,-.00685,0.0*
1,1,.006,-.00325,-.00685*
20,1,.006,-.00325,-.00685,-.00541,-.00902,0.0*
1,1,.006,-.00541,-.00902*
20,1,.006,-.00541,-.00902,-.00794,-.01046,0.0*
1,1,.006,-.00794,-.01046*
20,1,.006,-.00794,-.01046,-.01083,-.01082,0.0*
1,1,.006,-.01083,-.01082*
1,1,.006,.013,0.0*
20,1,.006,.013,0.0,.02022,0.0,0.0*
1,1,.006,.02022,0.0*
20,1,.006,.02022,0.0,.02022,-.00649,0.0*
1,1,.006,.02022,-.00649*
20,1,.006,.02022,-.00649,.01805,-.00866,0.0*
1,1,.006,.01805,-.00866*
20,1,.006,.01805,-.00866,.01553,-.0101,0.0*
1,1,.006,.01553,-.0101*
20,1,.006,.01553,-.0101,.01192,-.01082,0.0*
1,1,.006,.01192,-.01082*
20,1,.006,.01192,-.01082,.00831,-.0101,0.0*
1,1,.006,.00831,-.0101*
20,1,.006,.00831,-.0101,.00578,-.00866,0.0*
1,1,.006,.00578,-.00866*
20,1,.006,.00578,-.00866,.00362,-.00649,0.0*
1,1,.006,.00362,-.00649*
20,1,.006,.00362,-.00649,.00217,-.00396,0.0*
1,1,.006,.00217,-.00396*
20,1,.006,.00217,-.00396,.00145,-.00108,0.0*
1,1,.006,.00145,-.00108*
20,1,.006,.00145,-.00108,.00145,.00145,0.0*
1,1,.006,.00145,.00145*
20,1,.006,.00145,.00145,.00217,.00361,0.0*
1,1,.006,.00217,.00361*
20,1,.006,.00217,.00361,.00362,.00614,0.0*
1,1,.006,.00362,.00614*
20,1,.006,.00362,.00614,.00578,.0083,0.0*
1,1,.006,.00578,.0083*
20,1,.006,.00578,.0083,.00795,.00975,0.0*
1,1,.006,.00795,.00975*
20,1,.006,.00795,.00975,.01083,.01083,0.0*
1,1,.006,.01083,.01083*
20,1,.006,.01083,.01083,.01336,.01083,0.0*
1,1,.006,.01336,.01083*
20,1,.006,.01336,.01083,.01625,.01011,0.0*
1,1,.006,.01625,.01011*
20,1,.006,.01625,.01011,.01841,.00866,0.0*
1,1,.006,.01841,.00866*
%
%ADD16MACRO16*%
%AMMACRO14*
1,1,.006,0.0,.021655*
20,1,.006,0.0,.021655,.00376,.021326,0.0*
1,1,.006,.00376,.021326*
20,1,.006,.00376,.021326,.007406,.020349,0.0*
1,1,.006,.007406,.020349*
20,1,.006,.007406,.020349,.010827,.018754,0.0*
1,1,.006,.010827,.018754*
20,1,.006,.010827,.018754,.01392,.016589,0.0*
1,1,.006,.01392,.016589*
20,1,.006,.01392,.016589,.016589,.01392,0.0*
1,1,.006,.016589,.01392*
20,1,.006,.016589,.01392,.018754,.010828,0.0*
1,1,.006,.018754,.010828*
20,1,.006,.018754,.010828,.020349,.007406,0.0*
1,1,.006,.020349,.007406*
20,1,.006,.020349,.007406,.021326,.00376,0.0*
1,1,.006,.021326,.00376*
20,1,.006,.021326,.00376,.021655,0.0,0.0*
1,1,.006,.021655,0.0*
20,1,.006,.021655,0.0,.021326,-.00376,0.0*
1,1,.006,.021326,-.00376*
20,1,.006,.021326,-.00376,.020349,-.007406,0.0*
1,1,.006,.020349,-.007406*
20,1,.006,.020349,-.007406,.018754,-.010827,0.0*
1,1,.006,.018754,-.010827*
20,1,.006,.018754,-.010827,.016589,-.01392,0.0*
1,1,.006,.016589,-.01392*
20,1,.006,.016589,-.01392,.01392,-.016589,0.0*
1,1,.006,.01392,-.016589*
20,1,.006,.01392,-.016589,.010828,-.018754,0.0*
1,1,.006,.010828,-.018754*
20,1,.006,.010828,-.018754,.007406,-.020349,0.0*
1,1,.006,.007406,-.020349*
20,1,.006,.007406,-.020349,.00376,-.021326,0.0*
1,1,.006,.00376,-.021326*
20,1,.006,.00376,-.021326,0.0,-.021655,0.0*
1,1,.006,0.0,-.021655*
20,1,.006,0.0,-.021655,-.00376,-.021326,0.0*
1,1,.006,-.00376,-.021326*
20,1,.006,-.00376,-.021326,-.007406,-.020349,0.0*
1,1,.006,-.007406,-.020349*
20,1,.006,-.007406,-.020349,-.010827,-.018754,0.0*
1,1,.006,-.010827,-.018754*
20,1,.006,-.010827,-.018754,-.01392,-.016589,0.0*
1,1,.006,-.01392,-.016589*
20,1,.006,-.01392,-.016589,-.016589,-.01392,0.0*
1,1,.006,-.016589,-.01392*
20,1,.006,-.016589,-.01392,-.018754,-.010828,0.0*
1,1,.006,-.018754,-.010828*
20,1,.006,-.018754,-.010828,-.020349,-.007406,0.0*
1,1,.006,-.020349,-.007406*
20,1,.006,-.020349,-.007406,-.021326,-.00376,0.0*
1,1,.006,-.021326,-.00376*
20,1,.006,-.021326,-.00376,-.021655,0.0,0.0*
1,1,.006,-.021655,0.0*
20,1,.006,-.021655,0.0,-.021326,.00376,0.0*
1,1,.006,-.021326,.00376*
20,1,.006,-.021326,.00376,-.020349,.007406,0.0*
1,1,.006,-.020349,.007406*
20,1,.006,-.020349,.007406,-.018754,.010827,0.0*
1,1,.006,-.018754,.010827*
20,1,.006,-.018754,.010827,-.016589,.01392,0.0*
1,1,.006,-.016589,.01392*
20,1,.006,-.016589,.01392,-.01392,.016589,0.0*
1,1,.006,-.01392,.016589*
20,1,.006,-.01392,.016589,-.010828,.018754,0.0*
1,1,.006,-.010828,.018754*
20,1,.006,-.010828,.018754,-.007406,.020349,0.0*
1,1,.006,-.007406,.020349*
20,1,.006,-.007406,.020349,-.00376,.021326,0.0*
1,1,.006,-.00376,.021326*
20,1,.006,-.00376,.021326,0.0,.021655,0.0*
1,1,.006,0.0,.021655*
1,1,.006,-.01083,-.01082*
20,1,.006,-.01083,-.01082,-.01371,-.01046,0.0*
1,1,.006,-.01371,-.01046*
20,1,.006,-.01371,-.01046,-.01624,-.00902,0.0*
1,1,.006,-.01624,-.00902*
20,1,.006,-.01624,-.00902,-.0184,-.00685,0.0*
1,1,.006,-.0184,-.00685*
20,1,.006,-.0184,-.00685,-.01985,-.00433,0.0*
1,1,.006,-.01985,-.00433*
20,1,.006,-.01985,-.00433,-.02057,-.00144,0.0*
1,1,.006,-.02057,-.00144*
20,1,.006,-.02057,-.00144,-.02057,.00145,0.0*
1,1,.006,-.02057,.00145*
20,1,.006,-.02057,.00145,-.01985,.00434,0.0*
1,1,.006,-.01985,.00434*
20,1,.006,-.01985,.00434,-.0184,.00686,0.0*
1,1,.006,-.0184,.00686*
20,1,.006,-.0184,.00686,-.01624,.00903,0.0*
1,1,.006,-.01624,.00903*
20,1,.006,-.01624,.00903,-.01371,.01047,0.0*
1,1,.006,-.01371,.01047*
20,1,.006,-.01371,.01047,-.01083,.01083,0.0*
1,1,.006,-.01083,.01083*
20,1,.006,-.01083,.01083,-.00794,.01047,0.0*
1,1,.006,-.00794,.01047*
20,1,.006,-.00794,.01047,-.00541,.00903,0.0*
1,1,.006,-.00541,.00903*
20,1,.006,-.00541,.00903,-.00325,.00686,0.0*
1,1,.006,-.00325,.00686*
20,1,.006,-.00325,.00686,-.0018,.00434,0.0*
1,1,.006,-.0018,.00434*
20,1,.006,-.0018,.00434,-.00108,.00145,0.0*
1,1,.006,-.00108,.00145*
20,1,.006,-.00108,.00145,-.00108,-.00144,0.0*
1,1,.006,-.00108,-.00144*
20,1,.006,-.00108,-.00144,-.0018,-.00433,0.0*
1,1,.006,-.0018,-.00433*
20,1,.006,-.0018,-.00433,-.00325,-.00685,0.0*
1,1,.006,-.00325,-.00685*
20,1,.006,-.00325,-.00685,-.00541,-.00902,0.0*
1,1,.006,-.00541,-.00902*
20,1,.006,-.00541,-.00902,-.00794,-.01046,0.0*
1,1,.006,-.00794,-.01046*
20,1,.006,-.00794,-.01046,-.01083,-.01082,0.0*
1,1,.006,-.01083,-.01082*
1,1,.006,.013,0.0*
20,1,.006,.013,0.0,.02022,0.0,0.0*
1,1,.006,.02022,0.0*
20,1,.006,.02022,0.0,.02022,-.00649,0.0*
1,1,.006,.02022,-.00649*
20,1,.006,.02022,-.00649,.01805,-.00866,0.0*
1,1,.006,.01805,-.00866*
20,1,.006,.01805,-.00866,.01553,-.0101,0.0*
1,1,.006,.01553,-.0101*
20,1,.006,.01553,-.0101,.01192,-.01082,0.0*
1,1,.006,.01192,-.01082*
20,1,.006,.01192,-.01082,.00831,-.0101,0.0*
1,1,.006,.00831,-.0101*
20,1,.006,.00831,-.0101,.00578,-.00866,0.0*
1,1,.006,.00578,-.00866*
20,1,.006,.00578,-.00866,.00362,-.00649,0.0*
1,1,.006,.00362,-.00649*
20,1,.006,.00362,-.00649,.00217,-.00396,0.0*
1,1,.006,.00217,-.00396*
20,1,.006,.00217,-.00396,.00145,-.00108,0.0*
1,1,.006,.00145,-.00108*
20,1,.006,.00145,-.00108,.00145,.00145,0.0*
1,1,.006,.00145,.00145*
20,1,.006,.00145,.00145,.00217,.00361,0.0*
1,1,.006,.00217,.00361*
20,1,.006,.00217,.00361,.00362,.00614,0.0*
1,1,.006,.00362,.00614*
20,1,.006,.00362,.00614,.00578,.0083,0.0*
1,1,.006,.00578,.0083*
20,1,.006,.00578,.0083,.00795,.00975,0.0*
1,1,.006,.00795,.00975*
20,1,.006,.00795,.00975,.01083,.01083,0.0*
1,1,.006,.01083,.01083*
20,1,.006,.01083,.01083,.01336,.01083,0.0*
1,1,.006,.01336,.01083*
20,1,.006,.01336,.01083,.01625,.01011,0.0*
1,1,.006,.01625,.01011*
20,1,.006,.01625,.01011,.01841,.00866,0.0*
1,1,.006,.01841,.00866*
%
%ADD14MACRO14*%
%AMMACRO19*
1,1,.006,0.0,.017715*
20,1,.006,0.0,.017715,.003076,.017446,0.0*
1,1,.006,.003076,.017446*
20,1,.006,.003076,.017446,.006059,.016647,0.0*
1,1,.006,.006059,.016647*
20,1,.006,.006059,.016647,.008857,.015342,0.0*
1,1,.006,.008857,.015342*
20,1,.006,.008857,.015342,.011387,.01357,0.0*
1,1,.006,.011387,.01357*
20,1,.006,.011387,.01357,.01357,.011387,0.0*
1,1,.006,.01357,.011387*
20,1,.006,.01357,.011387,.015342,.008858,0.0*
1,1,.006,.015342,.008858*
20,1,.006,.015342,.008858,.016647,.006059,0.0*
1,1,.006,.016647,.006059*
20,1,.006,.016647,.006059,.017446,.003076,0.0*
1,1,.006,.017446,.003076*
20,1,.006,.017446,.003076,.017715,0.0,0.0*
1,1,.006,.017715,0.0*
20,1,.006,.017715,0.0,.017446,-.003076,0.0*
1,1,.006,.017446,-.003076*
20,1,.006,.017446,-.003076,.016647,-.006059,0.0*
1,1,.006,.016647,-.006059*
20,1,.006,.016647,-.006059,.015342,-.008857,0.0*
1,1,.006,.015342,-.008857*
20,1,.006,.015342,-.008857,.01357,-.011387,0.0*
1,1,.006,.01357,-.011387*
20,1,.006,.01357,-.011387,.011387,-.01357,0.0*
1,1,.006,.011387,-.01357*
20,1,.006,.011387,-.01357,.008858,-.015342,0.0*
1,1,.006,.008858,-.015342*
20,1,.006,.008858,-.015342,.006059,-.016647,0.0*
1,1,.006,.006059,-.016647*
20,1,.006,.006059,-.016647,.003076,-.017446,0.0*
1,1,.006,.003076,-.017446*
20,1,.006,.003076,-.017446,0.0,-.017715,0.0*
1,1,.006,0.0,-.017715*
20,1,.006,0.0,-.017715,-.003076,-.017446,0.0*
1,1,.006,-.003076,-.017446*
20,1,.006,-.003076,-.017446,-.006059,-.016647,0.0*
1,1,.006,-.006059,-.016647*
20,1,.006,-.006059,-.016647,-.008857,-.015342,0.0*
1,1,.006,-.008857,-.015342*
20,1,.006,-.008857,-.015342,-.011387,-.01357,0.0*
1,1,.006,-.011387,-.01357*
20,1,.006,-.011387,-.01357,-.01357,-.011387,0.0*
1,1,.006,-.01357,-.011387*
20,1,.006,-.01357,-.011387,-.015342,-.008858,0.0*
1,1,.006,-.015342,-.008858*
20,1,.006,-.015342,-.008858,-.016647,-.006059,0.0*
1,1,.006,-.016647,-.006059*
20,1,.006,-.016647,-.006059,-.017446,-.003076,0.0*
1,1,.006,-.017446,-.003076*
20,1,.006,-.017446,-.003076,-.017715,0.0,0.0*
1,1,.006,-.017715,0.0*
20,1,.006,-.017715,0.0,-.017446,.003076,0.0*
1,1,.006,-.017446,.003076*
20,1,.006,-.017446,.003076,-.016647,.006059,0.0*
1,1,.006,-.016647,.006059*
20,1,.006,-.016647,.006059,-.015342,.008857,0.0*
1,1,.006,-.015342,.008857*
20,1,.006,-.015342,.008857,-.01357,.011387,0.0*
1,1,.006,-.01357,.011387*
20,1,.006,-.01357,.011387,-.011387,.01357,0.0*
1,1,.006,-.011387,.01357*
20,1,.006,-.011387,.01357,-.008858,.015342,0.0*
1,1,.006,-.008858,.015342*
20,1,.006,-.008858,.015342,-.006059,.016647,0.0*
1,1,.006,-.006059,.016647*
20,1,.006,-.006059,.016647,-.003076,.017446,0.0*
1,1,.006,-.003076,.017446*
20,1,.006,-.003076,.017446,0.0,.017715,0.0*
1,1,.006,0.0,.017715*
1,1,.006,-.00886,-.00885*
20,1,.006,-.00886,-.00885,-.01122,-.00855,0.0*
1,1,.006,-.01122,-.00855*
20,1,.006,-.01122,-.00855,-.01328,-.00737,0.0*
1,1,.006,-.01328,-.00737*
20,1,.006,-.01328,-.00737,-.01505,-.0056,0.0*
1,1,.006,-.01505,-.0056*
20,1,.006,-.01505,-.0056,-.01623,-.00354,0.0*
1,1,.006,-.01623,-.00354*
20,1,.006,-.01623,-.00354,-.01682,-.00118,0.0*
1,1,.006,-.01682,-.00118*
20,1,.006,-.01682,-.00118,-.01682,.00119,0.0*
1,1,.006,-.01682,.00119*
20,1,.006,-.01682,.00119,-.01623,.00355,0.0*
1,1,.006,-.01623,.00355*
20,1,.006,-.01623,.00355,-.01505,.00561,0.0*
1,1,.006,-.01505,.00561*
20,1,.006,-.01505,.00561,-.01328,.00738,0.0*
1,1,.006,-.01328,.00738*
20,1,.006,-.01328,.00738,-.01122,.00856,0.0*
1,1,.006,-.01122,.00856*
20,1,.006,-.01122,.00856,-.00886,.00886,0.0*
1,1,.006,-.00886,.00886*
20,1,.006,-.00886,.00886,-.00649,.00856,0.0*
1,1,.006,-.00649,.00856*
20,1,.006,-.00649,.00856,-.00443,.00738,0.0*
1,1,.006,-.00443,.00738*
20,1,.006,-.00443,.00738,-.00266,.00561,0.0*
1,1,.006,-.00266,.00561*
20,1,.006,-.00266,.00561,-.00148,.00355,0.0*
1,1,.006,-.00148,.00355*
20,1,.006,-.00148,.00355,-.00089,.00119,0.0*
1,1,.006,-.00089,.00119*
20,1,.006,-.00089,.00119,-.00089,-.00118,0.0*
1,1,.006,-.00089,-.00118*
20,1,.006,-.00089,-.00118,-.00148,-.00354,0.0*
1,1,.006,-.00148,-.00354*
20,1,.006,-.00148,-.00354,-.00266,-.0056,0.0*
1,1,.006,-.00266,-.0056*
20,1,.006,-.00266,-.0056,-.00443,-.00737,0.0*
1,1,.006,-.00443,-.00737*
20,1,.006,-.00443,-.00737,-.00649,-.00855,0.0*
1,1,.006,-.00649,-.00855*
20,1,.006,-.00649,-.00855,-.00886,-.00885,0.0*
1,1,.006,-.00886,-.00885*
1,1,.006,.01536,.00738*
20,1,.006,.01536,.00738,.01359,.00827,0.0*
1,1,.006,.01359,.00827*
20,1,.006,.01359,.00827,.01152,.00886,0.0*
1,1,.006,.01152,.00886*
20,1,.006,.01152,.00886,.00916,.00886,0.0*
1,1,.006,.00916,.00886*
20,1,.006,.00916,.00886,.0065,.00797,0.0*
1,1,.006,.0065,.00797*
20,1,.006,.0065,.00797,.00444,.0065,0.0*
1,1,.006,.00444,.0065*
20,1,.006,.00444,.0065,.00296,.00473,0.0*
1,1,.006,.00296,.00473*
20,1,.006,.00296,.00473,.00178,.00178,0.0*
1,1,.006,.00178,.00178*
20,1,.006,.00178,.00178,.00149,-.00088,0.0*
1,1,.006,.00149,-.00088*
20,1,.006,.00149,-.00088,.00208,-.00354,0.0*
1,1,.006,.00208,-.00354*
20,1,.006,.00208,-.00354,.00296,-.00531,0.0*
1,1,.006,.00296,-.00531*
20,1,.006,.00296,-.00531,.00473,-.00708,0.0*
1,1,.006,.00473,-.00708*
20,1,.006,.00473,-.00708,.0068,-.00826,0.0*
1,1,.006,.0068,-.00826*
20,1,.006,.0068,-.00826,.00886,-.00885,0.0*
1,1,.006,.00886,-.00885*
20,1,.006,.00886,-.00885,.01093,-.00885,0.0*
1,1,.006,.01093,-.00885*
20,1,.006,.01093,-.00885,.013,-.00826,0.0*
1,1,.006,.013,-.00826*
20,1,.006,.013,-.00826,.01477,-.00737,0.0*
1,1,.006,.01477,-.00737*
20,1,.006,.01477,-.00737,.01624,-.00619,0.0*
1,1,.006,.01624,-.00619*
%
%ADD19MACRO19*%
%AMMACRO20*
1,1,.006,-.01378,0.0*
20,1,.006,-.01378,0.0,-.013571,.002393,0.0*
1,1,.006,-.013571,.002393*
20,1,.006,-.013571,.002393,-.012949,.004713,0.0*
1,1,.006,-.012949,.004713*
20,1,.006,-.012949,.004713,-.011934,.00689,0.0*
1,1,.006,-.011934,.00689*
20,1,.006,-.011934,.00689,-.010556,.008858,0.0*
1,1,.006,-.010556,.008858*
20,1,.006,-.010556,.008858,-.008858,.010556,0.0*
1,1,.006,-.008858,.010556*
20,1,.006,-.008858,.010556,-.00689,.011934,0.0*
1,1,.006,-.00689,.011934*
20,1,.006,-.00689,.011934,-.004713,.012949,0.0*
1,1,.006,-.004713,.012949*
20,1,.006,-.004713,.012949,-.002393,.013571,0.0*
1,1,.006,-.002393,.013571*
20,1,.006,-.002393,.013571,0.0,.01378,0.0*
1,1,.006,0.0,.01378*
20,1,.006,0.0,.01378,.002393,.013571,0.0*
1,1,.006,.002393,.013571*
20,1,.006,.002393,.013571,.004713,.012949,0.0*
1,1,.006,.004713,.012949*
20,1,.006,.004713,.012949,.00689,.011934,0.0*
1,1,.006,.00689,.011934*
20,1,.006,.00689,.011934,.008858,.010556,0.0*
1,1,.006,.008858,.010556*
20,1,.006,.008858,.010556,.010556,.008858,0.0*
1,1,.006,.010556,.008858*
20,1,.006,.010556,.008858,.011934,.00689,0.0*
1,1,.006,.011934,.00689*
20,1,.006,.011934,.00689,.012949,.004713,0.0*
1,1,.006,.012949,.004713*
20,1,.006,.012949,.004713,.013571,.002393,0.0*
1,1,.006,.013571,.002393*
20,1,.006,.013571,.002393,.01378,0.0,0.0*
1,1,.006,.01378,0.0*
20,1,.006,.01378,0.0,.013571,-.002393,0.0*
1,1,.006,.013571,-.002393*
20,1,.006,.013571,-.002393,.012949,-.004713,0.0*
1,1,.006,.012949,-.004713*
20,1,.006,.012949,-.004713,.011934,-.00689,0.0*
1,1,.006,.011934,-.00689*
20,1,.006,.011934,-.00689,.010556,-.008858,0.0*
1,1,.006,.010556,-.008858*
20,1,.006,.010556,-.008858,.008858,-.010556,0.0*
1,1,.006,.008858,-.010556*
20,1,.006,.008858,-.010556,.00689,-.011934,0.0*
1,1,.006,.00689,-.011934*
20,1,.006,.00689,-.011934,.004713,-.012949,0.0*
1,1,.006,.004713,-.012949*
20,1,.006,.004713,-.012949,.002393,-.013571,0.0*
1,1,.006,.002393,-.013571*
20,1,.006,.002393,-.013571,0.0,-.01378,0.0*
1,1,.006,0.0,-.01378*
20,1,.006,0.0,-.01378,-.002393,-.013571,0.0*
1,1,.006,-.002393,-.013571*
20,1,.006,-.002393,-.013571,-.004713,-.012949,0.0*
1,1,.006,-.004713,-.012949*
20,1,.006,-.004713,-.012949,-.00689,-.011934,0.0*
1,1,.006,-.00689,-.011934*
20,1,.006,-.00689,-.011934,-.008858,-.010556,0.0*
1,1,.006,-.008858,-.010556*
20,1,.006,-.008858,-.010556,-.010556,-.008858,0.0*
1,1,.006,-.010556,-.008858*
20,1,.006,-.010556,-.008858,-.011934,-.00689,0.0*
1,1,.006,-.011934,-.00689*
20,1,.006,-.011934,-.00689,-.012949,-.004713,0.0*
1,1,.006,-.012949,-.004713*
20,1,.006,-.012949,-.004713,-.013571,-.002393,0.0*
1,1,.006,-.013571,-.002393*
20,1,.006,-.013571,-.002393,-.01378,0.0,0.0*
1,1,.006,-.01378,0.0*
1,1,.006,-.00689,-.00689*
20,1,.006,-.00689,-.00689,-.00873,-.00666,0.0*
1,1,.006,-.00873,-.00666*
20,1,.006,-.00873,-.00666,-.01033,-.00574,0.0*
1,1,.006,-.01033,-.00574*
20,1,.006,-.01033,-.00574,-.01171,-.00436,0.0*
1,1,.006,-.01171,-.00436*
20,1,.006,-.01171,-.00436,-.01263,-.00276,0.0*
1,1,.006,-.01263,-.00276*
20,1,.006,-.01263,-.00276,-.01309,-.00092,0.0*
1,1,.006,-.01309,-.00092*
20,1,.006,-.01309,-.00092,-.01309,.00092,0.0*
1,1,.006,-.01309,.00092*
20,1,.006,-.01309,.00092,-.01263,.00276,0.0*
1,1,.006,-.01263,.00276*
20,1,.006,-.01263,.00276,-.01171,.00436,0.0*
1,1,.006,-.01171,.00436*
20,1,.006,-.01171,.00436,-.01033,.00574,0.0*
1,1,.006,-.01033,.00574*
20,1,.006,-.01033,.00574,-.00873,.00666,0.0*
1,1,.006,-.00873,.00666*
20,1,.006,-.00873,.00666,-.00689,.00689,0.0*
1,1,.006,-.00689,.00689*
20,1,.006,-.00689,.00689,-.00505,.00666,0.0*
1,1,.006,-.00505,.00666*
20,1,.006,-.00505,.00666,-.00345,.00574,0.0*
1,1,.006,-.00345,.00574*
20,1,.006,-.00345,.00574,-.00207,.00436,0.0*
1,1,.006,-.00207,.00436*
20,1,.006,-.00207,.00436,-.00115,.00276,0.0*
1,1,.006,-.00115,.00276*
20,1,.006,-.00115,.00276,-.00069,.00092,0.0*
1,1,.006,-.00069,.00092*
20,1,.006,-.00069,.00092,-.00069,-.00092,0.0*
1,1,.006,-.00069,-.00092*
20,1,.006,-.00069,-.00092,-.00115,-.00276,0.0*
1,1,.006,-.00115,-.00276*
20,1,.006,-.00115,-.00276,-.00207,-.00436,0.0*
1,1,.006,-.00207,-.00436*
20,1,.006,-.00207,-.00436,-.00345,-.00574,0.0*
1,1,.006,-.00345,-.00574*
20,1,.006,-.00345,-.00574,-.00505,-.00666,0.0*
1,1,.006,-.00505,-.00666*
20,1,.006,-.00505,-.00666,-.00689,-.00689,0.0*
1,1,.006,-.00689,-.00689*
1,1,.006,.00874,.00046*
20,1,.006,.00874,.00046,.00966,.00115,0.0*
1,1,.006,.00966,.00115*
20,1,.006,.00966,.00115,.01034,.0023,0.0*
1,1,.006,.01034,.0023*
20,1,.006,.01034,.0023,.0108,.0039,0.0*
1,1,.006,.0108,.0039*
20,1,.006,.0108,.0039,.01034,.00528,0.0*
1,1,.006,.01034,.00528*
20,1,.006,.01034,.00528,.00943,.0062,0.0*
1,1,.006,.00943,.0062*
20,1,.006,.00943,.0062,.00782,.00689,0.0*
1,1,.006,.00782,.00689*
20,1,.006,.00782,.00689,.00162,.00689,0.0*
1,1,.006,.00162,.00689*
20,1,.006,.00162,.00689,.00162,-.00689,0.0*
1,1,.006,.00162,-.00689*
20,1,.006,.00162,-.00689,.0092,-.00689,0.0*
1,1,.006,.0092,-.00689*
20,1,.006,.0092,-.00689,.0108,-.00597,0.0*
1,1,.006,.0108,-.00597*
20,1,.006,.0108,-.00597,.01172,-.00459,0.0*
1,1,.006,.01172,-.00459*
20,1,.006,.01172,-.00459,.01218,-.00299,0.0*
1,1,.006,.01218,-.00299*
20,1,.006,.01218,-.00299,.01172,-.00138,0.0*
1,1,.006,.01172,-.00138*
20,1,.006,.01172,-.00138,.01034,0.0,0.0*
1,1,.006,.01034,0.0*
20,1,.006,.01034,0.0,.00874,.00046,0.0*
1,1,.006,.00874,.00046*
20,1,.006,.00874,.00046,.00162,.00046,0.0*
1,1,.006,.00162,.00046*
%
%ADD20MACRO20*%
%AMMACRO12*
1,1,.006,-.02362,0.0*
20,1,.006,-.02362,0.0,-.023261,.004102,0.0*
1,1,.006,-.023261,.004102*
20,1,.006,-.023261,.004102,-.022196,.008079,0.0*
1,1,.006,-.022196,.008079*
20,1,.006,-.022196,.008079,-.020456,.01181,0.0*
1,1,.006,-.020456,.01181*
20,1,.006,-.020456,.01181,-.018094,.015183,0.0*
1,1,.006,-.018094,.015183*
20,1,.006,-.018094,.015183,-.015183,.018094,0.0*
1,1,.006,-.015183,.018094*
20,1,.006,-.015183,.018094,-.01181,.020456,0.0*
1,1,.006,-.01181,.020456*
20,1,.006,-.01181,.020456,-.008079,.022196,0.0*
1,1,.006,-.008079,.022196*
20,1,.006,-.008079,.022196,-.004102,.023261,0.0*
1,1,.006,-.004102,.023261*
20,1,.006,-.004102,.023261,0.0,.02362,0.0*
1,1,.006,0.0,.02362*
20,1,.006,0.0,.02362,.004102,.023261,0.0*
1,1,.006,.004102,.023261*
20,1,.006,.004102,.023261,.008079,.022196,0.0*
1,1,.006,.008079,.022196*
20,1,.006,.008079,.022196,.01181,.020456,0.0*
1,1,.006,.01181,.020456*
20,1,.006,.01181,.020456,.015183,.018094,0.0*
1,1,.006,.015183,.018094*
20,1,.006,.015183,.018094,.018094,.015183,0.0*
1,1,.006,.018094,.015183*
20,1,.006,.018094,.015183,.020456,.01181,0.0*
1,1,.006,.020456,.01181*
20,1,.006,.020456,.01181,.022196,.008079,0.0*
1,1,.006,.022196,.008079*
20,1,.006,.022196,.008079,.023261,.004102,0.0*
1,1,.006,.023261,.004102*
20,1,.006,.023261,.004102,.02362,0.0,0.0*
1,1,.006,.02362,0.0*
20,1,.006,.02362,0.0,.023261,-.004102,0.0*
1,1,.006,.023261,-.004102*
20,1,.006,.023261,-.004102,.022196,-.008079,0.0*
1,1,.006,.022196,-.008079*
20,1,.006,.022196,-.008079,.020456,-.01181,0.0*
1,1,.006,.020456,-.01181*
20,1,.006,.020456,-.01181,.018094,-.015183,0.0*
1,1,.006,.018094,-.015183*
20,1,.006,.018094,-.015183,.015183,-.018094,0.0*
1,1,.006,.015183,-.018094*
20,1,.006,.015183,-.018094,.01181,-.020456,0.0*
1,1,.006,.01181,-.020456*
20,1,.006,.01181,-.020456,.008079,-.022196,0.0*
1,1,.006,.008079,-.022196*
20,1,.006,.008079,-.022196,.004102,-.023261,0.0*
1,1,.006,.004102,-.023261*
20,1,.006,.004102,-.023261,0.0,-.02362,0.0*
1,1,.006,0.0,-.02362*
20,1,.006,0.0,-.02362,-.004102,-.023261,0.0*
1,1,.006,-.004102,-.023261*
20,1,.006,-.004102,-.023261,-.008079,-.022196,0.0*
1,1,.006,-.008079,-.022196*
20,1,.006,-.008079,-.022196,-.01181,-.020456,0.0*
1,1,.006,-.01181,-.020456*
20,1,.006,-.01181,-.020456,-.015183,-.018094,0.0*
1,1,.006,-.015183,-.018094*
20,1,.006,-.015183,-.018094,-.018094,-.015183,0.0*
1,1,.006,-.018094,-.015183*
20,1,.006,-.018094,-.015183,-.020456,-.01181,0.0*
1,1,.006,-.020456,-.01181*
20,1,.006,-.020456,-.01181,-.022196,-.008079,0.0*
1,1,.006,-.022196,-.008079*
20,1,.006,-.022196,-.008079,-.023261,-.004102,0.0*
1,1,.006,-.023261,-.004102*
20,1,.006,-.023261,-.004102,-.02362,0.0,0.0*
1,1,.006,-.02362,0.0*
1,1,.006,-.01181,-.01181*
20,1,.006,-.01181,-.01181,-.01496,-.01142,0.0*
1,1,.006,-.01496,-.01142*
20,1,.006,-.01496,-.01142,-.01771,-.00984,0.0*
1,1,.006,-.01771,-.00984*
20,1,.006,-.01771,-.00984,-.02008,-.00748,0.0*
1,1,.006,-.02008,-.00748*
20,1,.006,-.02008,-.00748,-.02165,-.00472,0.0*
1,1,.006,-.02165,-.00472*
20,1,.006,-.02165,-.00472,-.02244,-.00157,0.0*
1,1,.006,-.02244,-.00157*
20,1,.006,-.02244,-.00157,-.02244,.00157,0.0*
1,1,.006,-.02244,.00157*
20,1,.006,-.02244,.00157,-.02165,.00472,0.0*
1,1,.006,-.02165,.00472*
20,1,.006,-.02165,.00472,-.02008,.00748,0.0*
1,1,.006,-.02008,.00748*
20,1,.006,-.02008,.00748,-.01771,.00984,0.0*
1,1,.006,-.01771,.00984*
20,1,.006,-.01771,.00984,-.01496,.01142,0.0*
1,1,.006,-.01496,.01142*
20,1,.006,-.01496,.01142,-.01181,.01181,0.0*
1,1,.006,-.01181,.01181*
20,1,.006,-.01181,.01181,-.00866,.01142,0.0*
1,1,.006,-.00866,.01142*
20,1,.006,-.00866,.01142,-.00591,.00984,0.0*
1,1,.006,-.00591,.00984*
20,1,.006,-.00591,.00984,-.00354,.00748,0.0*
1,1,.006,-.00354,.00748*
20,1,.006,-.00354,.00748,-.00197,.00472,0.0*
1,1,.006,-.00197,.00472*
20,1,.006,-.00197,.00472,-.00118,.00157,0.0*
1,1,.006,-.00118,.00157*
20,1,.006,-.00118,.00157,-.00118,-.00157,0.0*
1,1,.006,-.00118,-.00157*
20,1,.006,-.00118,-.00157,-.00197,-.00472,0.0*
1,1,.006,-.00197,-.00472*
20,1,.006,-.00197,-.00472,-.00354,-.00748,0.0*
1,1,.006,-.00354,-.00748*
20,1,.006,-.00354,-.00748,-.00591,-.00984,0.0*
1,1,.006,-.00591,-.00984*
20,1,.006,-.00591,-.00984,-.00866,-.01142,0.0*
1,1,.006,-.00866,-.01142*
20,1,.006,-.00866,-.01142,-.01181,-.01181,0.0*
1,1,.006,-.01181,-.01181*
1,1,.006,.00355,-.01181*
20,1,.006,.00355,-.01181,.00355,.01181,0.0*
1,1,.006,.00355,.01181*
1,1,.006,.02009,.01181*
20,1,.006,.02009,.01181,.02009,-.01181,0.0*
1,1,.006,.02009,-.01181*
1,1,.006,.02009,0.0*
20,1,.006,.02009,0.0,.00355,0.0,0.0*
1,1,.006,.00355,0.0*
%
%ADD12MACRO12*%
%AMMACRO13*
1,1,.006,0.0,.02362*
20,1,.006,0.0,.02362,.004102,.023261,0.0*
1,1,.006,.004102,.023261*
20,1,.006,.004102,.023261,.008079,.022196,0.0*
1,1,.006,.008079,.022196*
20,1,.006,.008079,.022196,.01181,.020456,0.0*
1,1,.006,.01181,.020456*
20,1,.006,.01181,.020456,.015183,.018094,0.0*
1,1,.006,.015183,.018094*
20,1,.006,.015183,.018094,.018094,.015183,0.0*
1,1,.006,.018094,.015183*
20,1,.006,.018094,.015183,.020456,.01181,0.0*
1,1,.006,.020456,.01181*
20,1,.006,.020456,.01181,.022196,.008079,0.0*
1,1,.006,.022196,.008079*
20,1,.006,.022196,.008079,.023261,.004102,0.0*
1,1,.006,.023261,.004102*
20,1,.006,.023261,.004102,.02362,0.0,0.0*
1,1,.006,.02362,0.0*
20,1,.006,.02362,0.0,.023261,-.004102,0.0*
1,1,.006,.023261,-.004102*
20,1,.006,.023261,-.004102,.022196,-.008079,0.0*
1,1,.006,.022196,-.008079*
20,1,.006,.022196,-.008079,.020456,-.01181,0.0*
1,1,.006,.020456,-.01181*
20,1,.006,.020456,-.01181,.018094,-.015183,0.0*
1,1,.006,.018094,-.015183*
20,1,.006,.018094,-.015183,.015183,-.018094,0.0*
1,1,.006,.015183,-.018094*
20,1,.006,.015183,-.018094,.01181,-.020456,0.0*
1,1,.006,.01181,-.020456*
20,1,.006,.01181,-.020456,.008079,-.022196,0.0*
1,1,.006,.008079,-.022196*
20,1,.006,.008079,-.022196,.004102,-.023261,0.0*
1,1,.006,.004102,-.023261*
20,1,.006,.004102,-.023261,0.0,-.02362,0.0*
1,1,.006,0.0,-.02362*
20,1,.006,0.0,-.02362,-.004102,-.023261,0.0*
1,1,.006,-.004102,-.023261*
20,1,.006,-.004102,-.023261,-.008079,-.022196,0.0*
1,1,.006,-.008079,-.022196*
20,1,.006,-.008079,-.022196,-.01181,-.020456,0.0*
1,1,.006,-.01181,-.020456*
20,1,.006,-.01181,-.020456,-.015183,-.018094,0.0*
1,1,.006,-.015183,-.018094*
20,1,.006,-.015183,-.018094,-.018094,-.015183,0.0*
1,1,.006,-.018094,-.015183*
20,1,.006,-.018094,-.015183,-.020456,-.01181,0.0*
1,1,.006,-.020456,-.01181*
20,1,.006,-.020456,-.01181,-.022196,-.008079,0.0*
1,1,.006,-.022196,-.008079*
20,1,.006,-.022196,-.008079,-.023261,-.004102,0.0*
1,1,.006,-.023261,-.004102*
20,1,.006,-.023261,-.004102,-.02362,0.0,0.0*
1,1,.006,-.02362,0.0*
20,1,.006,-.02362,0.0,-.023261,.004102,0.0*
1,1,.006,-.023261,.004102*
20,1,.006,-.023261,.004102,-.022196,.008079,0.0*
1,1,.006,-.022196,.008079*
20,1,.006,-.022196,.008079,-.020456,.01181,0.0*
1,1,.006,-.020456,.01181*
20,1,.006,-.020456,.01181,-.018094,.015183,0.0*
1,1,.006,-.018094,.015183*
20,1,.006,-.018094,.015183,-.015183,.018094,0.0*
1,1,.006,-.015183,.018094*
20,1,.006,-.015183,.018094,-.01181,.020456,0.0*
1,1,.006,-.01181,.020456*
20,1,.006,-.01181,.020456,-.008079,.022196,0.0*
1,1,.006,-.008079,.022196*
20,1,.006,-.008079,.022196,-.004102,.023261,0.0*
1,1,.006,-.004102,.023261*
20,1,.006,-.004102,.023261,0.0,.02362,0.0*
1,1,.006,0.0,.02362*
1,1,.006,-.01181,-.01181*
20,1,.006,-.01181,-.01181,-.01496,-.01142,0.0*
1,1,.006,-.01496,-.01142*
20,1,.006,-.01496,-.01142,-.01771,-.00984,0.0*
1,1,.006,-.01771,-.00984*
20,1,.006,-.01771,-.00984,-.02008,-.00748,0.0*
1,1,.006,-.02008,-.00748*
20,1,.006,-.02008,-.00748,-.02165,-.00472,0.0*
1,1,.006,-.02165,-.00472*
20,1,.006,-.02165,-.00472,-.02244,-.00157,0.0*
1,1,.006,-.02244,-.00157*
20,1,.006,-.02244,-.00157,-.02244,.00157,0.0*
1,1,.006,-.02244,.00157*
20,1,.006,-.02244,.00157,-.02165,.00472,0.0*
1,1,.006,-.02165,.00472*
20,1,.006,-.02165,.00472,-.02008,.00748,0.0*
1,1,.006,-.02008,.00748*
20,1,.006,-.02008,.00748,-.01771,.00984,0.0*
1,1,.006,-.01771,.00984*
20,1,.006,-.01771,.00984,-.01496,.01142,0.0*
1,1,.006,-.01496,.01142*
20,1,.006,-.01496,.01142,-.01181,.01181,0.0*
1,1,.006,-.01181,.01181*
20,1,.006,-.01181,.01181,-.00866,.01142,0.0*
1,1,.006,-.00866,.01142*
20,1,.006,-.00866,.01142,-.00591,.00984,0.0*
1,1,.006,-.00591,.00984*
20,1,.006,-.00591,.00984,-.00354,.00748,0.0*
1,1,.006,-.00354,.00748*
20,1,.006,-.00354,.00748,-.00197,.00472,0.0*
1,1,.006,-.00197,.00472*
20,1,.006,-.00197,.00472,-.00118,.00157,0.0*
1,1,.006,-.00118,.00157*
20,1,.006,-.00118,.00157,-.00118,-.00157,0.0*
1,1,.006,-.00118,-.00157*
20,1,.006,-.00118,-.00157,-.00197,-.00472,0.0*
1,1,.006,-.00197,-.00472*
20,1,.006,-.00197,-.00472,-.00354,-.00748,0.0*
1,1,.006,-.00354,-.00748*
20,1,.006,-.00354,-.00748,-.00591,-.00984,0.0*
1,1,.006,-.00591,-.00984*
20,1,.006,-.00591,-.00984,-.00866,-.01142,0.0*
1,1,.006,-.00866,-.01142*
20,1,.006,-.00866,-.01142,-.01181,-.01181,0.0*
1,1,.006,-.01181,-.01181*
1,1,.006,.00355,-.01181*
20,1,.006,.00355,-.01181,.00355,.01181,0.0*
1,1,.006,.00355,.01181*
1,1,.006,.02009,.01181*
20,1,.006,.02009,.01181,.02009,-.01181,0.0*
1,1,.006,.02009,-.01181*
1,1,.006,.02009,0.0*
20,1,.006,.02009,0.0,.00355,0.0,0.0*
1,1,.006,.00355,0.0*
%
%ADD13MACRO13*%
%ADD24C,.006*%
G75*
%LPD*%
G75*
G54D10*
X-111050Y-437500D03*
X218110Y320472D03*
X210236Y344094D03*
X218110Y367716D03*
X266141Y320472D03*
G54D20*
X-111050Y-187500D03*
X83071Y85631D03*
Y104921D03*
G54D11*
X-111050Y-412500D03*
X290945Y265749D03*
Y285434D03*
G54D12*
X-111050Y-387500D03*
X225984Y95079D03*
Y85079D03*
Y125079D03*
Y115079D03*
Y105079D03*
Y155079D03*
Y145079D03*
Y135079D03*
G54D21*
X-111050Y-162500D03*
X83465Y161614D03*
Y157283D03*
G54D13*
X-111050Y-362500D03*
X38385Y119094D03*
Y136811D03*
X63976Y119094D03*
Y136811D03*
X259724Y70866D03*
X249724D03*
X250984Y119094D03*
Y136811D03*
X276575Y119094D03*
Y136811D03*
G54D22*
X-111050Y-137500D03*
X23622Y23622D03*
Y370079D03*
X291339Y23622D03*
Y370079D03*
G54D14*
X-111050Y-337500D03*
X256181Y47244D03*
X246181D03*
X236181D03*
X266181D03*
G54D23*
X-111050Y-112500D03*
X31032Y196850D03*
X28532Y189752D03*
X31032Y226005D03*
X28532Y214173D03*
X27145Y308201D03*
X63976Y76022D03*
X57756Y127284D03*
X43146Y204724D03*
X62812Y213386D03*
X47469Y261834D03*
X94302Y116595D03*
X75434Y149731D03*
X91500Y131496D03*
X92300Y193000D03*
X88011Y215500D03*
X77736Y237000D03*
X93511Y213000D03*
X72412D03*
X82569Y226130D03*
X86311Y220400D03*
X80169Y245000D03*
X71018Y261834D03*
X89997Y292657D03*
X86303Y358819D03*
X104699Y37647D03*
X116018Y100531D03*
X103500Y122676D03*
X116018Y158157D03*
X122518Y162257D03*
X108902Y208000D03*
X97690Y218000D03*
X95555Y259843D03*
X105279Y242520D03*
X105631Y277455D03*
X112466Y353819D03*
X127318Y74016D03*
X129718Y82512D03*
X135670Y100531D03*
X137618Y125076D03*
X124918D03*
X143642Y110846D03*
X140319Y141646D03*
X132118Y153957D03*
X142819Y139146D03*
X145219Y136296D03*
X149419Y133896D03*
X145219Y147422D03*
X125146Y151457D03*
X141142Y162257D03*
X135018Y199871D03*
Y229947D03*
X128466Y313819D03*
X135728Y332283D03*
X137370Y336141D03*
X146882Y340639D03*
X149282Y373819D03*
X152532Y94066D03*
X175390Y98031D03*
X160827Y90335D03*
X173270Y105446D03*
X170670Y113246D03*
X158859Y110846D03*
X162796Y127479D03*
X152953Y125079D03*
X155353Y122676D03*
X173596Y120276D03*
X170397Y116595D03*
X168701Y144923D03*
X173270Y147423D03*
X166564Y131496D03*
X156447Y147422D03*
X152953Y164947D03*
X171803Y236969D03*
X168604Y246969D03*
X156477Y270706D03*
X154877Y318819D03*
Y335039D03*
X165824Y326576D03*
X154877Y355713D03*
X153382Y368819D03*
X189450Y44044D03*
X200575Y87935D03*
X179096Y110846D03*
X181294Y147559D03*
X178579Y158223D03*
X183694Y160623D03*
X197871Y205545D03*
X185035Y228000D03*
X200371Y217344D03*
X185035Y261837D03*
X190118Y264337D03*
X191556Y275506D03*
X207775Y85935D03*
X225984Y77935D03*
X215961Y112423D03*
X207775Y101246D03*
X216761Y147617D03*
X218461Y133896D03*
X207861Y182658D03*
X225171Y224409D03*
X259028Y88957D03*
X256628Y98957D03*
X243228Y140011D03*
X241732Y136811D03*
X238928Y164947D03*
X247084Y282340D03*
G54D24*
G01X-156000Y-450000D02*
Y-25000D01*
X467100D01*
Y-450000D01*
X-156000D01*
G01Y-400000D02*
X467100D01*
G01X-156000Y-425000D02*
X467100D01*
G01X-156000Y-375000D02*
X467100D01*
G01X-156000Y-350000D02*
X467100D01*
G01X-156000Y-325000D02*
X467100D01*
G01X-156000Y-300000D02*
X467100D01*
G01X-156000Y-275000D02*
X467100D01*
G01X-156000Y-250000D02*
X467100D01*
G01X-156000Y-225000D02*
X467100D01*
G01X-156000Y-200000D02*
X467100D01*
G01X-156000Y-150000D02*
X467100D01*
G01X-156000Y-175000D02*
X467100D01*
G01X-156000Y-125000D02*
X467100D01*
G01X-156000Y-100000D02*
X467100D01*
G01X-156000Y-75000D02*
X467100D01*
G01X-156000Y-50000D02*
X467100D01*
G01X-144995Y-93750D02*
Y-81250D01*
X-139105D01*
G01X-141275Y-87292D02*
X-144995D01*
G01X-131510Y-81250D02*
X-127790D01*
G01X-129650D02*
Y-93750D01*
G01X-131510D02*
X-127790D01*
G01X-116320Y-87500D02*
X-113220D01*
Y-91250D01*
X-114150Y-92500D01*
X-115235Y-93333D01*
X-116785Y-93750D01*
X-118335Y-93333D01*
X-119420Y-92500D01*
X-120350Y-91250D01*
X-120970Y-89792D01*
X-121280Y-88125D01*
Y-86667D01*
X-120970Y-85417D01*
X-120350Y-83958D01*
X-119420Y-82708D01*
X-118490Y-81875D01*
X-117250Y-81250D01*
X-116165D01*
X-114925Y-81667D01*
X-113995Y-82500D01*
G01X-108260Y-81250D02*
Y-90208D01*
X-107640Y-92084D01*
X-106400Y-93333D01*
X-104850Y-93750D01*
X-103300Y-93333D01*
X-102060Y-92084D01*
X-101440Y-90208D01*
Y-81250D01*
G01X-95550Y-93750D02*
Y-81250D01*
X-91675D01*
X-90435Y-81875D01*
X-89660Y-82708D01*
X-89350Y-84375D01*
X-89660Y-86042D01*
X-90590Y-87083D01*
X-91675Y-87708D01*
X-95550D01*
G01X-91675D02*
X-89350Y-93750D01*
G01X-76950D02*
X-83150D01*
Y-81250D01*
X-76950D01*
G01X-79430Y-87292D02*
X-83150D01*
G01X-66100Y-75000D02*
Y-450000D01*
G01X-30295Y-438542D02*
X-29210Y-437083D01*
X-28280Y-436250D01*
X-27040Y-435833D01*
X-25955Y-436250D01*
X-25180Y-437083D01*
X-24560Y-438333D01*
X-24405Y-439792D01*
X-24560Y-441042D01*
X-25180Y-442292D01*
X-26110Y-443333D01*
X-27195Y-443750D01*
X-28435Y-443333D01*
X-29520Y-442084D01*
X-30140Y-440208D01*
X-30295Y-438125D01*
X-29985Y-435417D01*
X-29520Y-433958D01*
X-28745Y-432500D01*
X-27660Y-431458D01*
X-26575Y-431250D01*
X-25490Y-431667D01*
X-24715Y-432708D01*
G01X-17895Y-433333D02*
X-16965Y-432084D01*
X-15880Y-431458D01*
X-14640Y-431250D01*
X-13090Y-431667D01*
X-12005Y-432708D01*
X-11695Y-433958D01*
X-11850Y-435209D01*
X-12470Y-436250D01*
X-15570Y-438333D01*
X-16965Y-439792D01*
X-17895Y-441875D01*
X-18205Y-443750D01*
X-11695D01*
G01X-2550Y-444167D02*
X-2860Y-443958D01*
Y-443542D01*
X-2550Y-443333D01*
X-2240Y-443542D01*
Y-443958D01*
X-2550Y-444167D01*
G01X7215Y-442292D02*
X8300Y-443333D01*
X9540Y-443750D01*
X10780Y-443333D01*
X11865Y-442084D01*
X12640Y-440208D01*
X12950Y-438333D01*
Y-436042D01*
X12640Y-434167D01*
X11865Y-432500D01*
X10935Y-431667D01*
X9850Y-431250D01*
X8610Y-431667D01*
X7680Y-432500D01*
X7060Y-433750D01*
X6750Y-435417D01*
X7060Y-436875D01*
X7835Y-438333D01*
X8765Y-439167D01*
X9850Y-439375D01*
X11090Y-438959D01*
X12020Y-437917D01*
X12950Y-436042D01*
G01X19615Y-442292D02*
X20700Y-443333D01*
X21940Y-443750D01*
X23180Y-443333D01*
X24265Y-442084D01*
X25040Y-440208D01*
X25350Y-438333D01*
Y-436042D01*
X25040Y-434167D01*
X24265Y-432500D01*
X23335Y-431667D01*
X22250Y-431250D01*
X21010Y-431667D01*
X20080Y-432500D01*
X19460Y-433750D01*
X19150Y-435417D01*
X19460Y-436875D01*
X20235Y-438333D01*
X21165Y-439167D01*
X22250Y-439375D01*
X23490Y-438959D01*
X24420Y-437917D01*
X25350Y-436042D01*
G01X32325Y-435417D02*
X36975Y-443750D01*
G01Y-435417D02*
X32325Y-443750D01*
G01X44105Y-438542D02*
X45190Y-437083D01*
X46120Y-436250D01*
X47360Y-435833D01*
X48445Y-436250D01*
X49220Y-437083D01*
X49840Y-438333D01*
X49995Y-439792D01*
X49840Y-441042D01*
X49220Y-442292D01*
X48290Y-443333D01*
X47205Y-443750D01*
X45965Y-443333D01*
X44880Y-442084D01*
X44260Y-440208D01*
X44105Y-438125D01*
X44415Y-435417D01*
X44880Y-433958D01*
X45655Y-432500D01*
X46740Y-431458D01*
X47825Y-431250D01*
X48910Y-431667D01*
X49685Y-432708D01*
G01X56505Y-433333D02*
X57435Y-432084D01*
X58520Y-431458D01*
X59760Y-431250D01*
X61310Y-431667D01*
X62395Y-432708D01*
X62705Y-433958D01*
X62550Y-435209D01*
X61930Y-436250D01*
X58830Y-438333D01*
X57435Y-439792D01*
X56505Y-441875D01*
X56195Y-443750D01*
X62705D01*
G01X71850Y-444167D02*
X71540Y-443958D01*
Y-443542D01*
X71850Y-443333D01*
X72160Y-443542D01*
Y-443958D01*
X71850Y-444167D01*
G01X81615Y-442292D02*
X82700Y-443333D01*
X83940Y-443750D01*
X85180Y-443333D01*
X86265Y-442084D01*
X87040Y-440208D01*
X87350Y-438333D01*
Y-436042D01*
X87040Y-434167D01*
X86265Y-432500D01*
X85335Y-431667D01*
X84250Y-431250D01*
X83010Y-431667D01*
X82080Y-432500D01*
X81460Y-433750D01*
X81150Y-435417D01*
X81460Y-436875D01*
X82235Y-438333D01*
X83165Y-439167D01*
X84250Y-439375D01*
X85490Y-438959D01*
X86420Y-437917D01*
X87350Y-436042D01*
G01X94015Y-442292D02*
X95100Y-443333D01*
X96340Y-443750D01*
X97580Y-443333D01*
X98665Y-442084D01*
X99440Y-440208D01*
X99750Y-438333D01*
Y-436042D01*
X99440Y-434167D01*
X98665Y-432500D01*
X97735Y-431667D01*
X96650Y-431250D01*
X95410Y-431667D01*
X94480Y-432500D01*
X93860Y-433750D01*
X93550Y-435417D01*
X93860Y-436875D01*
X94635Y-438333D01*
X95565Y-439167D01*
X96650Y-439375D01*
X97890Y-438959D01*
X98820Y-437917D01*
X99750Y-436042D01*
G01X-25490Y-393750D02*
Y-381250D01*
X-31225Y-390208D01*
X-23475D01*
G01X-15260Y-393750D02*
X-14950Y-391042D01*
X-14485Y-388750D01*
X-13865Y-386667D01*
X-13090Y-384375D01*
X-11850Y-381250D01*
X-18050D01*
G01X-2550Y-394167D02*
X-2860Y-393958D01*
Y-393542D01*
X-2550Y-393333D01*
X-2240Y-393542D01*
Y-393958D01*
X-2550Y-394167D01*
G01X6905Y-383333D02*
X7835Y-382084D01*
X8920Y-381458D01*
X10160Y-381250D01*
X11710Y-381667D01*
X12795Y-382708D01*
X13105Y-383958D01*
X12950Y-385209D01*
X12330Y-386250D01*
X9230Y-388333D01*
X7835Y-389792D01*
X6905Y-391875D01*
X6595Y-393750D01*
X13105D01*
G01X24110D02*
Y-381250D01*
X18375Y-390208D01*
X26125D01*
G01X32325Y-385417D02*
X36975Y-393750D01*
G01Y-385417D02*
X32325Y-393750D01*
G01X48910D02*
Y-381250D01*
X43175Y-390208D01*
X50925D01*
G01X59140Y-393750D02*
X59450Y-391042D01*
X59915Y-388750D01*
X60535Y-386667D01*
X61310Y-384375D01*
X62550Y-381250D01*
X56350D01*
G01X71850Y-394167D02*
X71540Y-393958D01*
Y-393542D01*
X71850Y-393333D01*
X72160Y-393542D01*
Y-393958D01*
X71850Y-394167D01*
G01X81305Y-383333D02*
X82235Y-382084D01*
X83320Y-381458D01*
X84560Y-381250D01*
X86110Y-381667D01*
X87195Y-382708D01*
X87505Y-383958D01*
X87350Y-385209D01*
X86730Y-386250D01*
X83630Y-388333D01*
X82235Y-389792D01*
X81305Y-391875D01*
X80995Y-393750D01*
X87505D01*
G01X98510D02*
Y-381250D01*
X92775Y-390208D01*
X100525D01*
G01X-30295Y-413542D02*
X-29210Y-412083D01*
X-28280Y-411250D01*
X-27040Y-410833D01*
X-25955Y-411250D01*
X-25180Y-412083D01*
X-24560Y-413333D01*
X-24405Y-414792D01*
X-24560Y-416042D01*
X-25180Y-417292D01*
X-26110Y-418333D01*
X-27195Y-418750D01*
X-28435Y-418333D01*
X-29520Y-417084D01*
X-30140Y-415208D01*
X-30295Y-413125D01*
X-29985Y-410417D01*
X-29520Y-408958D01*
X-28745Y-407500D01*
X-27660Y-406458D01*
X-26575Y-406250D01*
X-25490Y-406667D01*
X-24715Y-407708D01*
G01X-17895Y-408333D02*
X-16965Y-407084D01*
X-15880Y-406458D01*
X-14640Y-406250D01*
X-13090Y-406667D01*
X-12005Y-407708D01*
X-11695Y-408958D01*
X-11850Y-410209D01*
X-12470Y-411250D01*
X-15570Y-413333D01*
X-16965Y-414792D01*
X-17895Y-416875D01*
X-18205Y-418750D01*
X-11695D01*
G01X-2550Y-419167D02*
X-2860Y-418958D01*
Y-418542D01*
X-2550Y-418333D01*
X-2240Y-418542D01*
Y-418958D01*
X-2550Y-419167D01*
G01X7215Y-417292D02*
X8300Y-418333D01*
X9540Y-418750D01*
X10780Y-418333D01*
X11865Y-417084D01*
X12640Y-415208D01*
X12950Y-413333D01*
Y-411042D01*
X12640Y-409167D01*
X11865Y-407500D01*
X10935Y-406667D01*
X9850Y-406250D01*
X8610Y-406667D01*
X7680Y-407500D01*
X7060Y-408750D01*
X6750Y-410417D01*
X7060Y-411875D01*
X7835Y-413333D01*
X8765Y-414167D01*
X9850Y-414375D01*
X11090Y-413959D01*
X12020Y-412917D01*
X12950Y-411042D01*
G01X19615Y-417292D02*
X20700Y-418333D01*
X21940Y-418750D01*
X23180Y-418333D01*
X24265Y-417084D01*
X25040Y-415208D01*
X25350Y-413333D01*
Y-411042D01*
X25040Y-409167D01*
X24265Y-407500D01*
X23335Y-406667D01*
X22250Y-406250D01*
X21010Y-406667D01*
X20080Y-407500D01*
X19460Y-408750D01*
X19150Y-410417D01*
X19460Y-411875D01*
X20235Y-413333D01*
X21165Y-414167D01*
X22250Y-414375D01*
X23490Y-413959D01*
X24420Y-412917D01*
X25350Y-411042D01*
G01X32325Y-410417D02*
X36975Y-418750D01*
G01Y-410417D02*
X32325Y-418750D01*
G01X44105Y-413542D02*
X45190Y-412083D01*
X46120Y-411250D01*
X47360Y-410833D01*
X48445Y-411250D01*
X49220Y-412083D01*
X49840Y-413333D01*
X49995Y-414792D01*
X49840Y-416042D01*
X49220Y-417292D01*
X48290Y-418333D01*
X47205Y-418750D01*
X45965Y-418333D01*
X44880Y-417084D01*
X44260Y-415208D01*
X44105Y-413125D01*
X44415Y-410417D01*
X44880Y-408958D01*
X45655Y-407500D01*
X46740Y-406458D01*
X47825Y-406250D01*
X48910Y-406667D01*
X49685Y-407708D01*
G01X56505Y-408333D02*
X57435Y-407084D01*
X58520Y-406458D01*
X59760Y-406250D01*
X61310Y-406667D01*
X62395Y-407708D01*
X62705Y-408958D01*
X62550Y-410209D01*
X61930Y-411250D01*
X58830Y-413333D01*
X57435Y-414792D01*
X56505Y-416875D01*
X56195Y-418750D01*
X62705D01*
G01X71850Y-419167D02*
X71540Y-418958D01*
Y-418542D01*
X71850Y-418333D01*
X72160Y-418542D01*
Y-418958D01*
X71850Y-419167D01*
G01X81615Y-417292D02*
X82700Y-418333D01*
X83940Y-418750D01*
X85180Y-418333D01*
X86265Y-417084D01*
X87040Y-415208D01*
X87350Y-413333D01*
Y-411042D01*
X87040Y-409167D01*
X86265Y-407500D01*
X85335Y-406667D01*
X84250Y-406250D01*
X83010Y-406667D01*
X82080Y-407500D01*
X81460Y-408750D01*
X81150Y-410417D01*
X81460Y-411875D01*
X82235Y-413333D01*
X83165Y-414167D01*
X84250Y-414375D01*
X85490Y-413959D01*
X86420Y-412917D01*
X87350Y-411042D01*
G01X94015Y-417292D02*
X95100Y-418333D01*
X96340Y-418750D01*
X97580Y-418333D01*
X98665Y-417084D01*
X99440Y-415208D01*
X99750Y-413333D01*
Y-411042D01*
X99440Y-409167D01*
X98665Y-407500D01*
X97735Y-406667D01*
X96650Y-406250D01*
X95410Y-406667D01*
X94480Y-407500D01*
X93860Y-408750D01*
X93550Y-410417D01*
X93860Y-411875D01*
X94635Y-413333D01*
X95565Y-414167D01*
X96650Y-414375D01*
X97890Y-413959D01*
X98820Y-412917D01*
X99750Y-411042D01*
G01X-25490Y-368750D02*
Y-356250D01*
X-31225Y-365208D01*
X-23475D01*
G01X-15260Y-368750D02*
X-14950Y-366042D01*
X-14485Y-363750D01*
X-13865Y-361667D01*
X-13090Y-359375D01*
X-11850Y-356250D01*
X-18050D01*
G01X-2550Y-369167D02*
X-2860Y-368958D01*
Y-368542D01*
X-2550Y-368333D01*
X-2240Y-368542D01*
Y-368958D01*
X-2550Y-369167D01*
G01X6905Y-358333D02*
X7835Y-357084D01*
X8920Y-356458D01*
X10160Y-356250D01*
X11710Y-356667D01*
X12795Y-357708D01*
X13105Y-358958D01*
X12950Y-360209D01*
X12330Y-361250D01*
X9230Y-363333D01*
X7835Y-364792D01*
X6905Y-366875D01*
X6595Y-368750D01*
X13105D01*
G01X24110D02*
Y-356250D01*
X18375Y-365208D01*
X26125D01*
G01X32325Y-360417D02*
X36975Y-368750D01*
G01Y-360417D02*
X32325Y-368750D01*
G01X48910D02*
Y-356250D01*
X43175Y-365208D01*
X50925D01*
G01X59140Y-368750D02*
X59450Y-366042D01*
X59915Y-363750D01*
X60535Y-361667D01*
X61310Y-359375D01*
X62550Y-356250D01*
X56350D01*
G01X71850Y-369167D02*
X71540Y-368958D01*
Y-368542D01*
X71850Y-368333D01*
X72160Y-368542D01*
Y-368958D01*
X71850Y-369167D01*
G01X81305Y-358333D02*
X82235Y-357084D01*
X83320Y-356458D01*
X84560Y-356250D01*
X86110Y-356667D01*
X87195Y-357708D01*
X87505Y-358958D01*
X87350Y-360209D01*
X86730Y-361250D01*
X83630Y-363333D01*
X82235Y-364792D01*
X81305Y-366875D01*
X80995Y-368750D01*
X87505D01*
G01X98510D02*
Y-356250D01*
X92775Y-365208D01*
X100525D01*
G01X-25490Y-343750D02*
Y-331250D01*
X-31225Y-340208D01*
X-23475D01*
G01X-18360Y-341250D02*
X-17430Y-342709D01*
X-16190Y-343542D01*
X-14795Y-343750D01*
X-13555Y-343542D01*
X-12315Y-342500D01*
X-11540Y-341250D01*
X-11385Y-340000D01*
X-11695Y-338542D01*
X-12780Y-337500D01*
X-13865Y-337083D01*
X-15260D01*
G01X-13865D02*
X-12935Y-336458D01*
X-12160Y-335417D01*
X-11850Y-334167D01*
X-12160Y-332917D01*
X-12935Y-331875D01*
X-14330Y-331250D01*
X-15725Y-331458D01*
X-17120Y-332292D01*
G01X-2550Y-344167D02*
X-2860Y-343958D01*
Y-343542D01*
X-2550Y-343333D01*
X-2240Y-343542D01*
Y-343958D01*
X-2550Y-344167D01*
G01X6440Y-341250D02*
X7370Y-342709D01*
X8610Y-343542D01*
X10005Y-343750D01*
X11245Y-343542D01*
X12485Y-342500D01*
X13260Y-341250D01*
X13415Y-340000D01*
X13105Y-338542D01*
X12020Y-337500D01*
X10935Y-337083D01*
X9540D01*
G01X10935D02*
X11865Y-336458D01*
X12640Y-335417D01*
X12950Y-334167D01*
X12640Y-332917D01*
X11865Y-331875D01*
X10470Y-331250D01*
X9075Y-331458D01*
X7680Y-332292D01*
G01X22250Y-343750D02*
Y-331250D01*
X20390Y-333750D01*
G01Y-343750D02*
X24110D01*
G01X32325Y-335417D02*
X36975Y-343750D01*
G01Y-335417D02*
X32325Y-343750D01*
G01X48910D02*
Y-331250D01*
X43175Y-340208D01*
X50925D01*
G01X56040Y-341250D02*
X56970Y-342709D01*
X58210Y-343542D01*
X59605Y-343750D01*
X60845Y-343542D01*
X62085Y-342500D01*
X62860Y-341250D01*
X63015Y-340000D01*
X62705Y-338542D01*
X61620Y-337500D01*
X60535Y-337083D01*
X59140D01*
G01X60535D02*
X61465Y-336458D01*
X62240Y-335417D01*
X62550Y-334167D01*
X62240Y-332917D01*
X61465Y-331875D01*
X60070Y-331250D01*
X58675Y-331458D01*
X57280Y-332292D01*
G01X71850Y-344167D02*
X71540Y-343958D01*
Y-343542D01*
X71850Y-343333D01*
X72160Y-343542D01*
Y-343958D01*
X71850Y-344167D01*
G01X80840Y-341250D02*
X81770Y-342709D01*
X83010Y-343542D01*
X84405Y-343750D01*
X85645Y-343542D01*
X86885Y-342500D01*
X87660Y-341250D01*
X87815Y-340000D01*
X87505Y-338542D01*
X86420Y-337500D01*
X85335Y-337083D01*
X83940D01*
G01X85335D02*
X86265Y-336458D01*
X87040Y-335417D01*
X87350Y-334167D01*
X87040Y-332917D01*
X86265Y-331875D01*
X84870Y-331250D01*
X83475Y-331458D01*
X82080Y-332292D01*
G01X96650Y-343750D02*
Y-331250D01*
X94790Y-333750D01*
G01Y-343750D02*
X98510D01*
G01X-25490Y-318750D02*
Y-306250D01*
X-31225Y-315208D01*
X-23475D01*
G01X-18360Y-316250D02*
X-17430Y-317709D01*
X-16190Y-318542D01*
X-14795Y-318750D01*
X-13555Y-318542D01*
X-12315Y-317500D01*
X-11540Y-316250D01*
X-11385Y-315000D01*
X-11695Y-313542D01*
X-12780Y-312500D01*
X-13865Y-312083D01*
X-15260D01*
G01X-13865D02*
X-12935Y-311458D01*
X-12160Y-310417D01*
X-11850Y-309167D01*
X-12160Y-307917D01*
X-12935Y-306875D01*
X-14330Y-306250D01*
X-15725Y-306458D01*
X-17120Y-307292D01*
G01X-2550Y-319167D02*
X-2860Y-318958D01*
Y-318542D01*
X-2550Y-318333D01*
X-2240Y-318542D01*
Y-318958D01*
X-2550Y-319167D01*
G01X6440Y-316250D02*
X7370Y-317709D01*
X8610Y-318542D01*
X10005Y-318750D01*
X11245Y-318542D01*
X12485Y-317500D01*
X13260Y-316250D01*
X13415Y-315000D01*
X13105Y-313542D01*
X12020Y-312500D01*
X10935Y-312083D01*
X9540D01*
G01X10935D02*
X11865Y-311458D01*
X12640Y-310417D01*
X12950Y-309167D01*
X12640Y-307917D01*
X11865Y-306875D01*
X10470Y-306250D01*
X9075Y-306458D01*
X7680Y-307292D01*
G01X22250Y-318750D02*
Y-306250D01*
X20390Y-308750D01*
G01Y-318750D02*
X24110D01*
G01X32325Y-310417D02*
X36975Y-318750D01*
G01Y-310417D02*
X32325Y-318750D01*
G01X48910D02*
Y-306250D01*
X43175Y-315208D01*
X50925D01*
G01X56040Y-316250D02*
X56970Y-317709D01*
X58210Y-318542D01*
X59605Y-318750D01*
X60845Y-318542D01*
X62085Y-317500D01*
X62860Y-316250D01*
X63015Y-315000D01*
X62705Y-313542D01*
X61620Y-312500D01*
X60535Y-312083D01*
X59140D01*
G01X60535D02*
X61465Y-311458D01*
X62240Y-310417D01*
X62550Y-309167D01*
X62240Y-307917D01*
X61465Y-306875D01*
X60070Y-306250D01*
X58675Y-306458D01*
X57280Y-307292D01*
G01X71850Y-319167D02*
X71540Y-318958D01*
Y-318542D01*
X71850Y-318333D01*
X72160Y-318542D01*
Y-318958D01*
X71850Y-319167D01*
G01X80840Y-316250D02*
X81770Y-317709D01*
X83010Y-318542D01*
X84405Y-318750D01*
X85645Y-318542D01*
X86885Y-317500D01*
X87660Y-316250D01*
X87815Y-315000D01*
X87505Y-313542D01*
X86420Y-312500D01*
X85335Y-312083D01*
X83940D01*
G01X85335D02*
X86265Y-311458D01*
X87040Y-310417D01*
X87350Y-309167D01*
X87040Y-307917D01*
X86265Y-306875D01*
X84870Y-306250D01*
X83475Y-306458D01*
X82080Y-307292D01*
G01X96650Y-318750D02*
Y-306250D01*
X94790Y-308750D01*
G01Y-318750D02*
X98510D01*
G01X-25490Y-293750D02*
Y-281250D01*
X-31225Y-290208D01*
X-23475D01*
G01X-14950Y-281250D02*
X-16190Y-281667D01*
X-17120Y-282708D01*
X-17740Y-283958D01*
X-18205Y-285625D01*
X-18360Y-287500D01*
X-18205Y-289375D01*
X-17740Y-291042D01*
X-17120Y-292292D01*
X-16190Y-293333D01*
X-14950Y-293750D01*
X-13710Y-293333D01*
X-12780Y-292292D01*
X-12160Y-291042D01*
X-11695Y-289375D01*
X-11540Y-287500D01*
X-11695Y-285625D01*
X-12160Y-283958D01*
X-12780Y-282708D01*
X-13710Y-281667D01*
X-14950Y-281250D01*
G01X-2550Y-294167D02*
X-2860Y-293958D01*
Y-293542D01*
X-2550Y-293333D01*
X-2240Y-293542D01*
Y-293958D01*
X-2550Y-294167D01*
G01X9850Y-293750D02*
Y-281250D01*
X7990Y-283750D01*
G01Y-293750D02*
X11710D01*
G01X19305Y-288542D02*
X20390Y-287083D01*
X21320Y-286250D01*
X22560Y-285833D01*
X23645Y-286250D01*
X24420Y-287083D01*
X25040Y-288333D01*
X25195Y-289792D01*
X25040Y-291042D01*
X24420Y-292292D01*
X23490Y-293333D01*
X22405Y-293750D01*
X21165Y-293333D01*
X20080Y-292084D01*
X19460Y-290208D01*
X19305Y-288125D01*
X19615Y-285417D01*
X20080Y-283958D01*
X20855Y-282500D01*
X21940Y-281458D01*
X23025Y-281250D01*
X24110Y-281667D01*
X24885Y-282708D01*
G01X32325Y-285417D02*
X36975Y-293750D01*
G01Y-285417D02*
X32325Y-293750D01*
G01X48910D02*
Y-281250D01*
X43175Y-290208D01*
X50925D01*
G01X59450Y-281250D02*
X58210Y-281667D01*
X57280Y-282708D01*
X56660Y-283958D01*
X56195Y-285625D01*
X56040Y-287500D01*
X56195Y-289375D01*
X56660Y-291042D01*
X57280Y-292292D01*
X58210Y-293333D01*
X59450Y-293750D01*
X60690Y-293333D01*
X61620Y-292292D01*
X62240Y-291042D01*
X62705Y-289375D01*
X62860Y-287500D01*
X62705Y-285625D01*
X62240Y-283958D01*
X61620Y-282708D01*
X60690Y-281667D01*
X59450Y-281250D01*
G01X71850Y-294167D02*
X71540Y-293958D01*
Y-293542D01*
X71850Y-293333D01*
X72160Y-293542D01*
Y-293958D01*
X71850Y-294167D01*
G01X84250Y-293750D02*
Y-281250D01*
X82390Y-283750D01*
G01Y-293750D02*
X86110D01*
G01X93705Y-288542D02*
X94790Y-287083D01*
X95720Y-286250D01*
X96960Y-285833D01*
X98045Y-286250D01*
X98820Y-287083D01*
X99440Y-288333D01*
X99595Y-289792D01*
X99440Y-291042D01*
X98820Y-292292D01*
X97890Y-293333D01*
X96805Y-293750D01*
X95565Y-293333D01*
X94480Y-292084D01*
X93860Y-290208D01*
X93705Y-288125D01*
X94015Y-285417D01*
X94480Y-283958D01*
X95255Y-282500D01*
X96340Y-281458D01*
X97425Y-281250D01*
X98510Y-281667D01*
X99285Y-282708D01*
G01X-30760Y-266250D02*
X-29830Y-267709D01*
X-28590Y-268542D01*
X-27195Y-268750D01*
X-25955Y-268542D01*
X-24715Y-267500D01*
X-23940Y-266250D01*
X-23785Y-265000D01*
X-24095Y-263542D01*
X-25180Y-262500D01*
X-26265Y-262083D01*
X-27660D01*
G01X-26265D02*
X-25335Y-261458D01*
X-24560Y-260417D01*
X-24250Y-259167D01*
X-24560Y-257917D01*
X-25335Y-256875D01*
X-26730Y-256250D01*
X-28125Y-256458D01*
X-29520Y-257292D01*
G01X-17585Y-267292D02*
X-16500Y-268333D01*
X-15260Y-268750D01*
X-14020Y-268333D01*
X-12935Y-267084D01*
X-12160Y-265208D01*
X-11850Y-263333D01*
Y-261042D01*
X-12160Y-259167D01*
X-12935Y-257500D01*
X-13865Y-256667D01*
X-14950Y-256250D01*
X-16190Y-256667D01*
X-17120Y-257500D01*
X-17740Y-258750D01*
X-18050Y-260417D01*
X-17740Y-261875D01*
X-16965Y-263333D01*
X-16035Y-264167D01*
X-14950Y-264375D01*
X-13710Y-263959D01*
X-12780Y-262917D01*
X-11850Y-261042D01*
G01X-2550Y-269167D02*
X-2860Y-268958D01*
Y-268542D01*
X-2550Y-268333D01*
X-2240Y-268542D01*
Y-268958D01*
X-2550Y-269167D01*
G01X6440Y-266250D02*
X7370Y-267709D01*
X8610Y-268542D01*
X10005Y-268750D01*
X11245Y-268542D01*
X12485Y-267500D01*
X13260Y-266250D01*
X13415Y-265000D01*
X13105Y-263542D01*
X12020Y-262500D01*
X10935Y-262083D01*
X9540D01*
G01X10935D02*
X11865Y-261458D01*
X12640Y-260417D01*
X12950Y-259167D01*
X12640Y-257917D01*
X11865Y-256875D01*
X10470Y-256250D01*
X9075Y-256458D01*
X7680Y-257292D01*
G01X21940Y-268750D02*
X22250Y-266042D01*
X22715Y-263750D01*
X23335Y-261667D01*
X24110Y-259375D01*
X25350Y-256250D01*
X19150D01*
G01X32325Y-260417D02*
X36975Y-268750D01*
G01Y-260417D02*
X32325Y-268750D01*
G01X43640Y-266250D02*
X44570Y-267709D01*
X45810Y-268542D01*
X47205Y-268750D01*
X48445Y-268542D01*
X49685Y-267500D01*
X50460Y-266250D01*
X50615Y-265000D01*
X50305Y-263542D01*
X49220Y-262500D01*
X48135Y-262083D01*
X46740D01*
G01X48135D02*
X49065Y-261458D01*
X49840Y-260417D01*
X50150Y-259167D01*
X49840Y-257917D01*
X49065Y-256875D01*
X47670Y-256250D01*
X46275Y-256458D01*
X44880Y-257292D01*
G01X56815Y-267292D02*
X57900Y-268333D01*
X59140Y-268750D01*
X60380Y-268333D01*
X61465Y-267084D01*
X62240Y-265208D01*
X62550Y-263333D01*
Y-261042D01*
X62240Y-259167D01*
X61465Y-257500D01*
X60535Y-256667D01*
X59450Y-256250D01*
X58210Y-256667D01*
X57280Y-257500D01*
X56660Y-258750D01*
X56350Y-260417D01*
X56660Y-261875D01*
X57435Y-263333D01*
X58365Y-264167D01*
X59450Y-264375D01*
X60690Y-263959D01*
X61620Y-262917D01*
X62550Y-261042D01*
G01X71850Y-269167D02*
X71540Y-268958D01*
Y-268542D01*
X71850Y-268333D01*
X72160Y-268542D01*
Y-268958D01*
X71850Y-269167D01*
G01X80840Y-266250D02*
X81770Y-267709D01*
X83010Y-268542D01*
X84405Y-268750D01*
X85645Y-268542D01*
X86885Y-267500D01*
X87660Y-266250D01*
X87815Y-265000D01*
X87505Y-263542D01*
X86420Y-262500D01*
X85335Y-262083D01*
X83940D01*
G01X85335D02*
X86265Y-261458D01*
X87040Y-260417D01*
X87350Y-259167D01*
X87040Y-257917D01*
X86265Y-256875D01*
X84870Y-256250D01*
X83475Y-256458D01*
X82080Y-257292D01*
G01X96340Y-268750D02*
X96650Y-266042D01*
X97115Y-263750D01*
X97735Y-261667D01*
X98510Y-259375D01*
X99750Y-256250D01*
X93550D01*
G01X-18360Y-241250D02*
X-17430Y-242709D01*
X-16190Y-243542D01*
X-14795Y-243750D01*
X-13555Y-243542D01*
X-12315Y-242500D01*
X-11540Y-241250D01*
X-11385Y-240000D01*
X-11695Y-238542D01*
X-12780Y-237500D01*
X-13865Y-237083D01*
X-15260D01*
G01X-13865D02*
X-12935Y-236458D01*
X-12160Y-235417D01*
X-11850Y-234167D01*
X-12160Y-232917D01*
X-12935Y-231875D01*
X-14330Y-231250D01*
X-15725Y-231458D01*
X-17120Y-232292D01*
G01X-5495Y-238542D02*
X-4410Y-237083D01*
X-3480Y-236250D01*
X-2240Y-235833D01*
X-1155Y-236250D01*
X-380Y-237083D01*
X240Y-238333D01*
X395Y-239792D01*
X240Y-241042D01*
X-380Y-242292D01*
X-1310Y-243333D01*
X-2395Y-243750D01*
X-3635Y-243333D01*
X-4720Y-242084D01*
X-5340Y-240208D01*
X-5495Y-238125D01*
X-5185Y-235417D01*
X-4720Y-233958D01*
X-3945Y-232500D01*
X-2860Y-231458D01*
X-1775Y-231250D01*
X-690Y-231667D01*
X85Y-232708D01*
G01X9850Y-244167D02*
X9540Y-243958D01*
Y-243542D01*
X9850Y-243333D01*
X10160Y-243542D01*
Y-243958D01*
X9850Y-244167D01*
G01X22250Y-231250D02*
X21010Y-231667D01*
X20080Y-232708D01*
X19460Y-233958D01*
X18995Y-235625D01*
X18840Y-237500D01*
X18995Y-239375D01*
X19460Y-241042D01*
X20080Y-242292D01*
X21010Y-243333D01*
X22250Y-243750D01*
X23490Y-243333D01*
X24420Y-242292D01*
X25040Y-241042D01*
X25505Y-239375D01*
X25660Y-237500D01*
X25505Y-235625D01*
X25040Y-233958D01*
X24420Y-232708D01*
X23490Y-231667D01*
X22250Y-231250D01*
G01X32325Y-235417D02*
X36975Y-243750D01*
G01Y-235417D02*
X32325Y-243750D01*
G01X43640Y-241250D02*
X44570Y-242709D01*
X45810Y-243542D01*
X47205Y-243750D01*
X48445Y-243542D01*
X49685Y-242500D01*
X50460Y-241250D01*
X50615Y-240000D01*
X50305Y-238542D01*
X49220Y-237500D01*
X48135Y-237083D01*
X46740D01*
G01X48135D02*
X49065Y-236458D01*
X49840Y-235417D01*
X50150Y-234167D01*
X49840Y-232917D01*
X49065Y-231875D01*
X47670Y-231250D01*
X46275Y-231458D01*
X44880Y-232292D01*
G01X56505Y-238542D02*
X57590Y-237083D01*
X58520Y-236250D01*
X59760Y-235833D01*
X60845Y-236250D01*
X61620Y-237083D01*
X62240Y-238333D01*
X62395Y-239792D01*
X62240Y-241042D01*
X61620Y-242292D01*
X60690Y-243333D01*
X59605Y-243750D01*
X58365Y-243333D01*
X57280Y-242084D01*
X56660Y-240208D01*
X56505Y-238125D01*
X56815Y-235417D01*
X57280Y-233958D01*
X58055Y-232500D01*
X59140Y-231458D01*
X60225Y-231250D01*
X61310Y-231667D01*
X62085Y-232708D01*
G01X71850Y-244167D02*
X71540Y-243958D01*
Y-243542D01*
X71850Y-243333D01*
X72160Y-243542D01*
Y-243958D01*
X71850Y-244167D01*
G01X84250Y-231250D02*
X83010Y-231667D01*
X82080Y-232708D01*
X81460Y-233958D01*
X80995Y-235625D01*
X80840Y-237500D01*
X80995Y-239375D01*
X81460Y-241042D01*
X82080Y-242292D01*
X83010Y-243333D01*
X84250Y-243750D01*
X85490Y-243333D01*
X86420Y-242292D01*
X87040Y-241042D01*
X87505Y-239375D01*
X87660Y-237500D01*
X87505Y-235625D01*
X87040Y-233958D01*
X86420Y-232708D01*
X85490Y-231667D01*
X84250Y-231250D01*
G01X-30760Y-216250D02*
X-29830Y-217709D01*
X-28590Y-218542D01*
X-27195Y-218750D01*
X-25955Y-218542D01*
X-24715Y-217500D01*
X-23940Y-216250D01*
X-23785Y-215000D01*
X-24095Y-213542D01*
X-25180Y-212500D01*
X-26265Y-212083D01*
X-27660D01*
G01X-26265D02*
X-25335Y-211458D01*
X-24560Y-210417D01*
X-24250Y-209167D01*
X-24560Y-207917D01*
X-25335Y-206875D01*
X-26730Y-206250D01*
X-28125Y-206458D01*
X-29520Y-207292D01*
G01X-18360Y-216875D02*
X-17430Y-217917D01*
X-16345Y-218542D01*
X-14950Y-218750D01*
X-13555Y-218333D01*
X-12470Y-217500D01*
X-11695Y-216042D01*
X-11540Y-214375D01*
X-11850Y-212708D01*
X-12625Y-211667D01*
X-13710Y-210833D01*
X-14795Y-210625D01*
X-15880Y-210833D01*
X-17275Y-211667D01*
X-16810Y-206250D01*
X-12625D01*
G01X-2550Y-219167D02*
X-2860Y-218958D01*
Y-218542D01*
X-2550Y-218333D01*
X-2240Y-218542D01*
Y-218958D01*
X-2550Y-219167D01*
G01X11710Y-218750D02*
Y-206250D01*
X5975Y-215208D01*
X13725D01*
G01X18840Y-216250D02*
X19770Y-217709D01*
X21010Y-218542D01*
X22405Y-218750D01*
X23645Y-218542D01*
X24885Y-217500D01*
X25660Y-216250D01*
X25815Y-215000D01*
X25505Y-213542D01*
X24420Y-212500D01*
X23335Y-212083D01*
X21940D01*
G01X23335D02*
X24265Y-211458D01*
X25040Y-210417D01*
X25350Y-209167D01*
X25040Y-207917D01*
X24265Y-206875D01*
X22870Y-206250D01*
X21475Y-206458D01*
X20080Y-207292D01*
G01X32325Y-210417D02*
X36975Y-218750D01*
G01Y-210417D02*
X32325Y-218750D01*
G01X43640Y-216250D02*
X44570Y-217709D01*
X45810Y-218542D01*
X47205Y-218750D01*
X48445Y-218542D01*
X49685Y-217500D01*
X50460Y-216250D01*
X50615Y-215000D01*
X50305Y-213542D01*
X49220Y-212500D01*
X48135Y-212083D01*
X46740D01*
G01X48135D02*
X49065Y-211458D01*
X49840Y-210417D01*
X50150Y-209167D01*
X49840Y-207917D01*
X49065Y-206875D01*
X47670Y-206250D01*
X46275Y-206458D01*
X44880Y-207292D01*
G01X56040Y-216875D02*
X56970Y-217917D01*
X58055Y-218542D01*
X59450Y-218750D01*
X60845Y-218333D01*
X61930Y-217500D01*
X62705Y-216042D01*
X62860Y-214375D01*
X62550Y-212708D01*
X61775Y-211667D01*
X60690Y-210833D01*
X59605Y-210625D01*
X58520Y-210833D01*
X57125Y-211667D01*
X57590Y-206250D01*
X61775D01*
G01X71850Y-219167D02*
X71540Y-218958D01*
Y-218542D01*
X71850Y-218333D01*
X72160Y-218542D01*
Y-218958D01*
X71850Y-219167D01*
G01X86110Y-218750D02*
Y-206250D01*
X80375Y-215208D01*
X88125D01*
G01X93240Y-216250D02*
X94170Y-217709D01*
X95410Y-218542D01*
X96805Y-218750D01*
X98045Y-218542D01*
X99285Y-217500D01*
X100060Y-216250D01*
X100215Y-215000D01*
X99905Y-213542D01*
X98820Y-212500D01*
X97735Y-212083D01*
X96340D01*
G01X97735D02*
X98665Y-211458D01*
X99440Y-210417D01*
X99750Y-209167D01*
X99440Y-207917D01*
X98665Y-206875D01*
X97270Y-206250D01*
X95875Y-206458D01*
X94480Y-207292D01*
G01X-30295Y-183333D02*
X-29365Y-182084D01*
X-28280Y-181458D01*
X-27040Y-181250D01*
X-25490Y-181667D01*
X-24405Y-182708D01*
X-24095Y-183958D01*
X-24250Y-185209D01*
X-24870Y-186250D01*
X-27970Y-188333D01*
X-29365Y-189792D01*
X-30295Y-191875D01*
X-30605Y-193750D01*
X-24095D01*
G01X-15260D02*
X-14950Y-191042D01*
X-14485Y-188750D01*
X-13865Y-186667D01*
X-13090Y-184375D01*
X-11850Y-181250D01*
X-18050D01*
G01X-2550Y-194167D02*
X-2860Y-193958D01*
Y-193542D01*
X-2550Y-193333D01*
X-2240Y-193542D01*
Y-193958D01*
X-2550Y-194167D01*
G01X6440Y-191875D02*
X7370Y-192917D01*
X8455Y-193542D01*
X9850Y-193750D01*
X11245Y-193333D01*
X12330Y-192500D01*
X13105Y-191042D01*
X13260Y-189375D01*
X12950Y-187708D01*
X12175Y-186667D01*
X11090Y-185833D01*
X10005Y-185625D01*
X8920Y-185833D01*
X7525Y-186667D01*
X7990Y-181250D01*
X12175D01*
G01X19305Y-188542D02*
X20390Y-187083D01*
X21320Y-186250D01*
X22560Y-185833D01*
X23645Y-186250D01*
X24420Y-187083D01*
X25040Y-188333D01*
X25195Y-189792D01*
X25040Y-191042D01*
X24420Y-192292D01*
X23490Y-193333D01*
X22405Y-193750D01*
X21165Y-193333D01*
X20080Y-192084D01*
X19460Y-190208D01*
X19305Y-188125D01*
X19615Y-185417D01*
X20080Y-183958D01*
X20855Y-182500D01*
X21940Y-181458D01*
X23025Y-181250D01*
X24110Y-181667D01*
X24885Y-182708D01*
G01X32325Y-185417D02*
X36975Y-193750D01*
G01Y-185417D02*
X32325Y-193750D01*
G01X44105Y-183333D02*
X45035Y-182084D01*
X46120Y-181458D01*
X47360Y-181250D01*
X48910Y-181667D01*
X49995Y-182708D01*
X50305Y-183958D01*
X50150Y-185209D01*
X49530Y-186250D01*
X46430Y-188333D01*
X45035Y-189792D01*
X44105Y-191875D01*
X43795Y-193750D01*
X50305D01*
G01X59140D02*
X59450Y-191042D01*
X59915Y-188750D01*
X60535Y-186667D01*
X61310Y-184375D01*
X62550Y-181250D01*
X56350D01*
G01X71850Y-194167D02*
X71540Y-193958D01*
Y-193542D01*
X71850Y-193333D01*
X72160Y-193542D01*
Y-193958D01*
X71850Y-194167D01*
G01X80840Y-191875D02*
X81770Y-192917D01*
X82855Y-193542D01*
X84250Y-193750D01*
X85645Y-193333D01*
X86730Y-192500D01*
X87505Y-191042D01*
X87660Y-189375D01*
X87350Y-187708D01*
X86575Y-186667D01*
X85490Y-185833D01*
X84405Y-185625D01*
X83320Y-185833D01*
X81925Y-186667D01*
X82390Y-181250D01*
X86575D01*
G01X93705Y-188542D02*
X94790Y-187083D01*
X95720Y-186250D01*
X96960Y-185833D01*
X98045Y-186250D01*
X98820Y-187083D01*
X99440Y-188333D01*
X99595Y-189792D01*
X99440Y-191042D01*
X98820Y-192292D01*
X97890Y-193333D01*
X96805Y-193750D01*
X95565Y-193333D01*
X94480Y-192084D01*
X93860Y-190208D01*
X93705Y-188125D01*
X94015Y-185417D01*
X94480Y-183958D01*
X95255Y-182500D01*
X96340Y-181458D01*
X97425Y-181250D01*
X98510Y-181667D01*
X99285Y-182708D01*
G01X-27350Y-168750D02*
Y-156250D01*
X-29210Y-158750D01*
G01Y-168750D02*
X-25490D01*
G01X-17585Y-167292D02*
X-16500Y-168333D01*
X-15260Y-168750D01*
X-14020Y-168333D01*
X-12935Y-167084D01*
X-12160Y-165208D01*
X-11850Y-163333D01*
Y-161042D01*
X-12160Y-159167D01*
X-12935Y-157500D01*
X-13865Y-156667D01*
X-14950Y-156250D01*
X-16190Y-156667D01*
X-17120Y-157500D01*
X-17740Y-158750D01*
X-18050Y-160417D01*
X-17740Y-161875D01*
X-16965Y-163333D01*
X-16035Y-164167D01*
X-14950Y-164375D01*
X-13710Y-163959D01*
X-12780Y-162917D01*
X-11850Y-161042D01*
G01X-2550Y-169167D02*
X-2860Y-168958D01*
Y-168542D01*
X-2550Y-168333D01*
X-2240Y-168542D01*
Y-168958D01*
X-2550Y-169167D01*
G01X6905Y-163542D02*
X7990Y-162083D01*
X8920Y-161250D01*
X10160Y-160833D01*
X11245Y-161250D01*
X12020Y-162083D01*
X12640Y-163333D01*
X12795Y-164792D01*
X12640Y-166042D01*
X12020Y-167292D01*
X11090Y-168333D01*
X10005Y-168750D01*
X8765Y-168333D01*
X7680Y-167084D01*
X7060Y-165208D01*
X6905Y-163125D01*
X7215Y-160417D01*
X7680Y-158958D01*
X8455Y-157500D01*
X9540Y-156458D01*
X10625Y-156250D01*
X11710Y-156667D01*
X12485Y-157708D01*
G01X19615Y-167292D02*
X20700Y-168333D01*
X21940Y-168750D01*
X23180Y-168333D01*
X24265Y-167084D01*
X25040Y-165208D01*
X25350Y-163333D01*
Y-161042D01*
X25040Y-159167D01*
X24265Y-157500D01*
X23335Y-156667D01*
X22250Y-156250D01*
X21010Y-156667D01*
X20080Y-157500D01*
X19460Y-158750D01*
X19150Y-160417D01*
X19460Y-161875D01*
X20235Y-163333D01*
X21165Y-164167D01*
X22250Y-164375D01*
X23490Y-163959D01*
X24420Y-162917D01*
X25350Y-161042D01*
G01X32325Y-160417D02*
X36975Y-168750D01*
G01Y-160417D02*
X32325Y-168750D01*
G01X47050D02*
Y-156250D01*
X45190Y-158750D01*
G01Y-168750D02*
X48910D01*
G01X56815Y-167292D02*
X57900Y-168333D01*
X59140Y-168750D01*
X60380Y-168333D01*
X61465Y-167084D01*
X62240Y-165208D01*
X62550Y-163333D01*
Y-161042D01*
X62240Y-159167D01*
X61465Y-157500D01*
X60535Y-156667D01*
X59450Y-156250D01*
X58210Y-156667D01*
X57280Y-157500D01*
X56660Y-158750D01*
X56350Y-160417D01*
X56660Y-161875D01*
X57435Y-163333D01*
X58365Y-164167D01*
X59450Y-164375D01*
X60690Y-163959D01*
X61620Y-162917D01*
X62550Y-161042D01*
G01X71850Y-169167D02*
X71540Y-168958D01*
Y-168542D01*
X71850Y-168333D01*
X72160Y-168542D01*
Y-168958D01*
X71850Y-169167D01*
G01X81305Y-163542D02*
X82390Y-162083D01*
X83320Y-161250D01*
X84560Y-160833D01*
X85645Y-161250D01*
X86420Y-162083D01*
X87040Y-163333D01*
X87195Y-164792D01*
X87040Y-166042D01*
X86420Y-167292D01*
X85490Y-168333D01*
X84405Y-168750D01*
X83165Y-168333D01*
X82080Y-167084D01*
X81460Y-165208D01*
X81305Y-163125D01*
X81615Y-160417D01*
X82080Y-158958D01*
X82855Y-157500D01*
X83940Y-156458D01*
X85025Y-156250D01*
X86110Y-156667D01*
X86885Y-157708D01*
G01X94015Y-167292D02*
X95100Y-168333D01*
X96340Y-168750D01*
X97580Y-168333D01*
X98665Y-167084D01*
X99440Y-165208D01*
X99750Y-163333D01*
Y-161042D01*
X99440Y-159167D01*
X98665Y-157500D01*
X97735Y-156667D01*
X96650Y-156250D01*
X95410Y-156667D01*
X94480Y-157500D01*
X93860Y-158750D01*
X93550Y-160417D01*
X93860Y-161875D01*
X94635Y-163333D01*
X95565Y-164167D01*
X96650Y-164375D01*
X97890Y-163959D01*
X98820Y-162917D01*
X99750Y-161042D01*
G01X-42695Y-93750D02*
Y-81250D01*
X-36805D01*
G01X-38975Y-87292D02*
X-42695D01*
G01X-29210Y-81250D02*
X-25490D01*
G01X-27350D02*
Y-93750D01*
G01X-29210D02*
X-25490D01*
G01X-18515D02*
Y-81250D01*
X-11385Y-93750D01*
Y-81250D01*
G01X-4410D02*
X-690D01*
G01X-2550D02*
Y-93750D01*
G01X-4410D02*
X-690D01*
G01X6595Y-92084D02*
X7835Y-93125D01*
X9230Y-93750D01*
X10470D01*
X11710Y-93125D01*
X12640Y-92084D01*
X13105Y-90625D01*
X12795Y-89167D01*
X12020Y-87917D01*
X10625Y-87083D01*
X8765Y-86667D01*
X7680Y-85833D01*
X7215Y-84375D01*
X7525Y-82917D01*
X8300Y-81875D01*
X9385Y-81250D01*
X10470D01*
X11555Y-81667D01*
X12485Y-82708D01*
G01X18995Y-93750D02*
Y-81250D01*
G01X25505D02*
Y-93750D01*
G01Y-87500D02*
X18995D01*
G01X37750Y-93750D02*
X31550D01*
Y-81250D01*
X37750D01*
G01X35270Y-87292D02*
X31550D01*
G01X43640Y-93750D02*
Y-81250D01*
X46740D01*
X47980Y-81875D01*
X48910Y-82708D01*
X49685Y-83958D01*
X50305Y-85417D01*
X50460Y-87500D01*
X50305Y-89583D01*
X49685Y-91042D01*
X48910Y-92292D01*
X47980Y-93125D01*
X46740Y-93750D01*
X43640D01*
G01X54800Y-97917D02*
X64100D01*
G01X68595Y-92084D02*
X69835Y-93125D01*
X71230Y-93750D01*
X72470D01*
X73710Y-93125D01*
X74640Y-92084D01*
X75105Y-90625D01*
X74795Y-89167D01*
X74020Y-87917D01*
X72625Y-87083D01*
X70765Y-86667D01*
X69680Y-85833D01*
X69215Y-84375D01*
X69525Y-82917D01*
X70300Y-81875D01*
X71385Y-81250D01*
X72470D01*
X73555Y-81667D01*
X74485Y-82708D01*
G01X82390Y-81250D02*
X86110D01*
G01X84250D02*
Y-93750D01*
G01X82390D02*
X86110D01*
G01X93705Y-81250D02*
X99595D01*
X93705Y-93750D01*
X99595D01*
G01X112150D02*
X105950D01*
Y-81250D01*
X112150D01*
G01X109670Y-87292D02*
X105950D01*
G01X3650Y-143750D02*
Y-131250D01*
X1790Y-133750D01*
G01Y-143750D02*
X5510D01*
G01X13105Y-138542D02*
X14190Y-137083D01*
X15120Y-136250D01*
X16360Y-135833D01*
X17445Y-136250D01*
X18220Y-137083D01*
X18840Y-138333D01*
X18995Y-139792D01*
X18840Y-141042D01*
X18220Y-142292D01*
X17290Y-143333D01*
X16205Y-143750D01*
X14965Y-143333D01*
X13880Y-142084D01*
X13260Y-140208D01*
X13105Y-138125D01*
X13415Y-135417D01*
X13880Y-133958D01*
X14655Y-132500D01*
X15740Y-131458D01*
X16825Y-131250D01*
X17910Y-131667D01*
X18685Y-132708D01*
G01X28450Y-143750D02*
Y-131250D01*
X26590Y-133750D01*
G01Y-143750D02*
X30310D01*
G01X40850Y-144167D02*
X40540Y-143958D01*
Y-143542D01*
X40850Y-143333D01*
X41160Y-143542D01*
Y-143958D01*
X40850Y-144167D01*
G01X55110Y-143750D02*
Y-131250D01*
X49375Y-140208D01*
X57125D01*
G01X62705Y-133333D02*
X63635Y-132084D01*
X64720Y-131458D01*
X65960Y-131250D01*
X67510Y-131667D01*
X68595Y-132708D01*
X68905Y-133958D01*
X68750Y-135209D01*
X68130Y-136250D01*
X65030Y-138333D01*
X63635Y-139792D01*
X62705Y-141875D01*
X62395Y-143750D01*
X68905D01*
G01X-2860Y-43750D02*
Y-31250D01*
X240D01*
X1480Y-31875D01*
X2410Y-32708D01*
X3185Y-33958D01*
X3805Y-35417D01*
X3960Y-37500D01*
X3805Y-39583D01*
X3185Y-41042D01*
X2410Y-42292D01*
X1480Y-43125D01*
X240Y-43750D01*
X-2860D01*
G01X9850D02*
Y-31250D01*
X13725D01*
X14965Y-31875D01*
X15740Y-32708D01*
X16050Y-34375D01*
X15740Y-36042D01*
X14810Y-37083D01*
X13725Y-37708D01*
X9850D01*
G01X13725D02*
X16050Y-43750D01*
G01X23490Y-31250D02*
X27210D01*
G01X25350D02*
Y-43750D01*
G01X23490D02*
X27210D01*
G01X34650Y-31250D02*
Y-43750D01*
X40850D01*
G01X47050Y-31250D02*
Y-43750D01*
X53250D01*
G01X78360Y-32292D02*
X77430Y-31667D01*
X76345Y-31250D01*
X75105D01*
X73710Y-31875D01*
X72625Y-32917D01*
X71850Y-34167D01*
X71230Y-36250D01*
X71075Y-38125D01*
X71385Y-40000D01*
X71850Y-41250D01*
X72780Y-42500D01*
X73865Y-43333D01*
X74950Y-43750D01*
X76035D01*
X77120Y-43333D01*
X78050Y-42709D01*
X78825Y-41875D01*
G01X84095Y-43750D02*
Y-31250D01*
G01X90605D02*
Y-43750D01*
G01Y-37500D02*
X84095D01*
G01X95875Y-43750D02*
X99750Y-31250D01*
X103625Y-43750D01*
G01X102230Y-39375D02*
X97270D01*
G01X109050Y-43750D02*
Y-31250D01*
X112925D01*
X114165Y-31875D01*
X114940Y-32708D01*
X115250Y-34375D01*
X114940Y-36042D01*
X114010Y-37083D01*
X112925Y-37708D01*
X109050D01*
G01X112925D02*
X115250Y-43750D01*
G01X124550Y-31250D02*
Y-43750D01*
G01X120985Y-31250D02*
X128115D01*
G01X136950Y-44167D02*
X136640Y-43958D01*
Y-43542D01*
X136950Y-43333D01*
X137260Y-43542D01*
Y-43958D01*
X136950Y-44167D01*
G01Y-38542D02*
X136640Y-38333D01*
Y-37917D01*
X136950Y-37708D01*
X137260Y-37917D01*
Y-38333D01*
X136950Y-38542D01*
G01X161750Y-31250D02*
Y-43750D01*
G01X158185Y-31250D02*
X165315D01*
G01X174150Y-43750D02*
X172910Y-43542D01*
X171825Y-42709D01*
X170895Y-41458D01*
X170275Y-40000D01*
X169965Y-38333D01*
Y-36667D01*
X170275Y-35000D01*
X170895Y-33542D01*
X171825Y-32292D01*
X172910Y-31458D01*
X174150Y-31250D01*
X175390Y-31458D01*
X176475Y-32292D01*
X177405Y-33542D01*
X178025Y-35000D01*
X178335Y-36667D01*
Y-38333D01*
X178025Y-40000D01*
X177405Y-41458D01*
X176475Y-42709D01*
X175390Y-43542D01*
X174150Y-43750D01*
G01X183450D02*
Y-31250D01*
X187170D01*
X188410Y-31875D01*
X189340Y-33333D01*
X189650Y-35000D01*
X189340Y-36667D01*
X188565Y-37917D01*
X187170Y-38542D01*
X183450D01*
G01X211350Y-31250D02*
Y-43750D01*
G01X209180Y-35417D02*
X213520D01*
G01X223750Y-43750D02*
X222820Y-43542D01*
X221890Y-42709D01*
X221270Y-41250D01*
X220960Y-39583D01*
X221270Y-37917D01*
X221890Y-36458D01*
X222820Y-35625D01*
X223750Y-35417D01*
X224680Y-35625D01*
X225610Y-36458D01*
X226230Y-37917D01*
X226385Y-39583D01*
X226230Y-41250D01*
X225610Y-42709D01*
X224680Y-43542D01*
X223750Y-43750D01*
G01X249790Y-37083D02*
X250410Y-36458D01*
X250875Y-35417D01*
X251185Y-33958D01*
X250875Y-32708D01*
X250255Y-31875D01*
X249170Y-31250D01*
X244985D01*
Y-43750D01*
X250100D01*
X251185Y-42917D01*
X251805Y-41667D01*
X252115Y-40208D01*
X251805Y-38750D01*
X250875Y-37500D01*
X249790Y-37083D01*
X244985D01*
G01X260950Y-43750D02*
X259710Y-43542D01*
X258625Y-42709D01*
X257695Y-41458D01*
X257075Y-40000D01*
X256765Y-38333D01*
Y-36667D01*
X257075Y-35000D01*
X257695Y-33542D01*
X258625Y-32292D01*
X259710Y-31458D01*
X260950Y-31250D01*
X262190Y-31458D01*
X263275Y-32292D01*
X264205Y-33542D01*
X264825Y-35000D01*
X265135Y-36667D01*
Y-38333D01*
X264825Y-40000D01*
X264205Y-41458D01*
X263275Y-42709D01*
X262190Y-43542D01*
X260950Y-43750D01*
G01X273350Y-31250D02*
Y-43750D01*
G01X269785Y-31250D02*
X276915D01*
G01X285750D02*
Y-43750D01*
G01X282185Y-31250D02*
X289315D01*
G01X298150Y-43750D02*
X296910Y-43542D01*
X295825Y-42709D01*
X294895Y-41458D01*
X294275Y-40000D01*
X293965Y-38333D01*
Y-36667D01*
X294275Y-35000D01*
X294895Y-33542D01*
X295825Y-32292D01*
X296910Y-31458D01*
X298150Y-31250D01*
X299390Y-31458D01*
X300475Y-32292D01*
X301405Y-33542D01*
X302025Y-35000D01*
X302335Y-36667D01*
Y-38333D01*
X302025Y-40000D01*
X301405Y-41458D01*
X300475Y-42709D01*
X299390Y-43542D01*
X298150Y-43750D01*
G01X306520D02*
Y-31250D01*
X310550Y-41667D01*
X314580Y-31250D01*
Y-43750D01*
G01X7874Y393701D02*
X307087D01*
G02X314961Y385827I0J-7874D01*
G01Y7874D01*
G02X307087Y0I-7874J0D01*
G01X7874D01*
G02X0Y7874I0J7874D01*
G01Y385827D01*
G02X7874Y393701I7874J0D01*
G01X16050Y-118750D02*
Y-106250D01*
X14190Y-108750D01*
G01Y-118750D02*
X17910D01*
G01X25040Y-116250D02*
X25970Y-117709D01*
X27210Y-118542D01*
X28605Y-118750D01*
X29845Y-118542D01*
X31085Y-117500D01*
X31860Y-116250D01*
X32015Y-115000D01*
X31705Y-113542D01*
X30620Y-112500D01*
X29535Y-112083D01*
X28140D01*
G01X29535D02*
X30465Y-111458D01*
X31240Y-110417D01*
X31550Y-109167D01*
X31240Y-107917D01*
X30465Y-106875D01*
X29070Y-106250D01*
X27675Y-106458D01*
X26280Y-107292D01*
G01X40850Y-119167D02*
X40540Y-118958D01*
Y-118542D01*
X40850Y-118333D01*
X41160Y-118542D01*
Y-118958D01*
X40850Y-119167D01*
G01X53250Y-106250D02*
X52010Y-106667D01*
X51080Y-107708D01*
X50460Y-108958D01*
X49995Y-110625D01*
X49840Y-112500D01*
X49995Y-114375D01*
X50460Y-116042D01*
X51080Y-117292D01*
X52010Y-118333D01*
X53250Y-118750D01*
X54490Y-118333D01*
X55420Y-117292D01*
X56040Y-116042D01*
X56505Y-114375D01*
X56660Y-112500D01*
X56505Y-110625D01*
X56040Y-108958D01*
X55420Y-107708D01*
X54490Y-106667D01*
X53250Y-106250D01*
G01X27675Y-68750D02*
X31550Y-56250D01*
X35425Y-68750D01*
G01X34030Y-64375D02*
X29070D01*
G01X40850Y-56250D02*
Y-68750D01*
X47050D01*
G01X53250Y-56250D02*
Y-68750D01*
X59450D01*
G01X77740Y-56250D02*
Y-65208D01*
X78360Y-67084D01*
X79600Y-68333D01*
X81150Y-68750D01*
X82700Y-68333D01*
X83940Y-67084D01*
X84560Y-65208D01*
Y-56250D01*
G01X89985Y-68750D02*
Y-56250D01*
X97115Y-68750D01*
Y-56250D01*
G01X104090D02*
X107810D01*
G01X105950D02*
Y-68750D01*
G01X104090D02*
X107810D01*
G01X118350Y-56250D02*
Y-68750D01*
G01X114785Y-56250D02*
X121915D01*
G01X127495Y-67084D02*
X128735Y-68125D01*
X130130Y-68750D01*
X131370D01*
X132610Y-68125D01*
X133540Y-67084D01*
X134005Y-65625D01*
X133695Y-64167D01*
X132920Y-62917D01*
X131525Y-62083D01*
X129665Y-61667D01*
X128580Y-60833D01*
X128115Y-59375D01*
X128425Y-57917D01*
X129200Y-56875D01*
X130285Y-56250D01*
X131370D01*
X132455Y-56667D01*
X133385Y-57708D01*
G01X151675Y-68750D02*
X155550Y-56250D01*
X159425Y-68750D01*
G01X158030Y-64375D02*
X153070D01*
G01X164850Y-68750D02*
Y-56250D01*
X168725D01*
X169965Y-56875D01*
X170740Y-57708D01*
X171050Y-59375D01*
X170740Y-61042D01*
X169810Y-62083D01*
X168725Y-62708D01*
X164850D01*
G01X168725D02*
X171050Y-68750D01*
G01X183450D02*
X177250D01*
Y-56250D01*
X183450D01*
G01X180970Y-62292D02*
X177250D01*
G01X203290Y-56250D02*
X207010D01*
G01X205150D02*
Y-68750D01*
G01X203290D02*
X207010D01*
G01X213985D02*
Y-56250D01*
X221115Y-68750D01*
Y-56250D01*
G01X238320Y-68750D02*
Y-56250D01*
X242350Y-66667D01*
X246380Y-56250D01*
Y-68750D01*
G01X252890Y-56250D02*
X256610D01*
G01X254750D02*
Y-68750D01*
G01X252890D02*
X256610D01*
G01X264050Y-56250D02*
Y-68750D01*
X270250D01*
G01X276295Y-67084D02*
X277535Y-68125D01*
X278930Y-68750D01*
X280170D01*
X281410Y-68125D01*
X282340Y-67084D01*
X282805Y-65625D01*
X282495Y-64167D01*
X281720Y-62917D01*
X280325Y-62083D01*
X278465Y-61667D01*
X277380Y-60833D01*
X276915Y-59375D01*
X277225Y-57917D01*
X278000Y-56875D01*
X279085Y-56250D01*
X280170D01*
X281255Y-56667D01*
X282185Y-57708D01*
G01X135400Y-75000D02*
Y-450000D01*
G01X174150Y-431250D02*
X172910Y-431667D01*
X171980Y-432708D01*
X171360Y-433958D01*
X170895Y-435625D01*
X170740Y-437500D01*
X170895Y-439375D01*
X171360Y-441042D01*
X171980Y-442292D01*
X172910Y-443333D01*
X174150Y-443750D01*
X175390Y-443333D01*
X176320Y-442292D01*
X176940Y-441042D01*
X177405Y-439375D01*
X177560Y-437500D01*
X177405Y-435625D01*
X176940Y-433958D01*
X176320Y-432708D01*
X175390Y-431667D01*
X174150Y-431250D01*
G01X186550Y-444167D02*
X186240Y-443958D01*
Y-443542D01*
X186550Y-443333D01*
X186860Y-443542D01*
Y-443958D01*
X186550Y-444167D01*
G01X198950Y-431250D02*
X197710Y-431667D01*
X196780Y-432708D01*
X196160Y-433958D01*
X195695Y-435625D01*
X195540Y-437500D01*
X195695Y-439375D01*
X196160Y-441042D01*
X196780Y-442292D01*
X197710Y-443333D01*
X198950Y-443750D01*
X200190Y-443333D01*
X201120Y-442292D01*
X201740Y-441042D01*
X202205Y-439375D01*
X202360Y-437500D01*
X202205Y-435625D01*
X201740Y-433958D01*
X201120Y-432708D01*
X200190Y-431667D01*
X198950Y-431250D01*
G01X211350D02*
X210110Y-431667D01*
X209180Y-432708D01*
X208560Y-433958D01*
X208095Y-435625D01*
X207940Y-437500D01*
X208095Y-439375D01*
X208560Y-441042D01*
X209180Y-442292D01*
X210110Y-443333D01*
X211350Y-443750D01*
X212590Y-443333D01*
X213520Y-442292D01*
X214140Y-441042D01*
X214605Y-439375D01*
X214760Y-437500D01*
X214605Y-435625D01*
X214140Y-433958D01*
X213520Y-432708D01*
X212590Y-431667D01*
X211350Y-431250D01*
G01X223750D02*
X222510Y-431667D01*
X221580Y-432708D01*
X220960Y-433958D01*
X220495Y-435625D01*
X220340Y-437500D01*
X220495Y-439375D01*
X220960Y-441042D01*
X221580Y-442292D01*
X222510Y-443333D01*
X223750Y-443750D01*
X224990Y-443333D01*
X225920Y-442292D01*
X226540Y-441042D01*
X227005Y-439375D01*
X227160Y-437500D01*
X227005Y-435625D01*
X226540Y-433958D01*
X225920Y-432708D01*
X224990Y-431667D01*
X223750Y-431250D01*
G01X165315Y-392292D02*
X166400Y-393333D01*
X167640Y-393750D01*
X168880Y-393333D01*
X169965Y-392084D01*
X170740Y-390208D01*
X171050Y-388333D01*
Y-386042D01*
X170740Y-384167D01*
X169965Y-382500D01*
X169035Y-381667D01*
X167950Y-381250D01*
X166710Y-381667D01*
X165780Y-382500D01*
X165160Y-383750D01*
X164850Y-385417D01*
X165160Y-386875D01*
X165935Y-388333D01*
X166865Y-389167D01*
X167950Y-389375D01*
X169190Y-388959D01*
X170120Y-387917D01*
X171050Y-386042D01*
G01X180350Y-381250D02*
X179110Y-381667D01*
X178180Y-382708D01*
X177560Y-383958D01*
X177095Y-385625D01*
X176940Y-387500D01*
X177095Y-389375D01*
X177560Y-391042D01*
X178180Y-392292D01*
X179110Y-393333D01*
X180350Y-393750D01*
X181590Y-393333D01*
X182520Y-392292D01*
X183140Y-391042D01*
X183605Y-389375D01*
X183760Y-387500D01*
X183605Y-385625D01*
X183140Y-383958D01*
X182520Y-382708D01*
X181590Y-381667D01*
X180350Y-381250D01*
G01X192750Y-394167D02*
X192440Y-393958D01*
Y-393542D01*
X192750Y-393333D01*
X193060Y-393542D01*
Y-393958D01*
X192750Y-394167D01*
G01X205150Y-381250D02*
X203910Y-381667D01*
X202980Y-382708D01*
X202360Y-383958D01*
X201895Y-385625D01*
X201740Y-387500D01*
X201895Y-389375D01*
X202360Y-391042D01*
X202980Y-392292D01*
X203910Y-393333D01*
X205150Y-393750D01*
X206390Y-393333D01*
X207320Y-392292D01*
X207940Y-391042D01*
X208405Y-389375D01*
X208560Y-387500D01*
X208405Y-385625D01*
X207940Y-383958D01*
X207320Y-382708D01*
X206390Y-381667D01*
X205150Y-381250D01*
G01X217550D02*
X216310Y-381667D01*
X215380Y-382708D01*
X214760Y-383958D01*
X214295Y-385625D01*
X214140Y-387500D01*
X214295Y-389375D01*
X214760Y-391042D01*
X215380Y-392292D01*
X216310Y-393333D01*
X217550Y-393750D01*
X218790Y-393333D01*
X219720Y-392292D01*
X220340Y-391042D01*
X220805Y-389375D01*
X220960Y-387500D01*
X220805Y-385625D01*
X220340Y-383958D01*
X219720Y-382708D01*
X218790Y-381667D01*
X217550Y-381250D01*
G01X229950D02*
X228710Y-381667D01*
X227780Y-382708D01*
X227160Y-383958D01*
X226695Y-385625D01*
X226540Y-387500D01*
X226695Y-389375D01*
X227160Y-391042D01*
X227780Y-392292D01*
X228710Y-393333D01*
X229950Y-393750D01*
X231190Y-393333D01*
X232120Y-392292D01*
X232740Y-391042D01*
X233205Y-389375D01*
X233360Y-387500D01*
X233205Y-385625D01*
X232740Y-383958D01*
X232120Y-382708D01*
X231190Y-381667D01*
X229950Y-381250D01*
G01X165315Y-417292D02*
X166400Y-418333D01*
X167640Y-418750D01*
X168880Y-418333D01*
X169965Y-417084D01*
X170740Y-415208D01*
X171050Y-413333D01*
Y-411042D01*
X170740Y-409167D01*
X169965Y-407500D01*
X169035Y-406667D01*
X167950Y-406250D01*
X166710Y-406667D01*
X165780Y-407500D01*
X165160Y-408750D01*
X164850Y-410417D01*
X165160Y-411875D01*
X165935Y-413333D01*
X166865Y-414167D01*
X167950Y-414375D01*
X169190Y-413959D01*
X170120Y-412917D01*
X171050Y-411042D01*
G01X180350Y-406250D02*
X179110Y-406667D01*
X178180Y-407708D01*
X177560Y-408958D01*
X177095Y-410625D01*
X176940Y-412500D01*
X177095Y-414375D01*
X177560Y-416042D01*
X178180Y-417292D01*
X179110Y-418333D01*
X180350Y-418750D01*
X181590Y-418333D01*
X182520Y-417292D01*
X183140Y-416042D01*
X183605Y-414375D01*
X183760Y-412500D01*
X183605Y-410625D01*
X183140Y-408958D01*
X182520Y-407708D01*
X181590Y-406667D01*
X180350Y-406250D01*
G01X192750Y-419167D02*
X192440Y-418958D01*
Y-418542D01*
X192750Y-418333D01*
X193060Y-418542D01*
Y-418958D01*
X192750Y-419167D01*
G01X205150Y-406250D02*
X203910Y-406667D01*
X202980Y-407708D01*
X202360Y-408958D01*
X201895Y-410625D01*
X201740Y-412500D01*
X201895Y-414375D01*
X202360Y-416042D01*
X202980Y-417292D01*
X203910Y-418333D01*
X205150Y-418750D01*
X206390Y-418333D01*
X207320Y-417292D01*
X207940Y-416042D01*
X208405Y-414375D01*
X208560Y-412500D01*
X208405Y-410625D01*
X207940Y-408958D01*
X207320Y-407708D01*
X206390Y-406667D01*
X205150Y-406250D01*
G01X217550D02*
X216310Y-406667D01*
X215380Y-407708D01*
X214760Y-408958D01*
X214295Y-410625D01*
X214140Y-412500D01*
X214295Y-414375D01*
X214760Y-416042D01*
X215380Y-417292D01*
X216310Y-418333D01*
X217550Y-418750D01*
X218790Y-418333D01*
X219720Y-417292D01*
X220340Y-416042D01*
X220805Y-414375D01*
X220960Y-412500D01*
X220805Y-410625D01*
X220340Y-408958D01*
X219720Y-407708D01*
X218790Y-406667D01*
X217550Y-406250D01*
G01X229950D02*
X228710Y-406667D01*
X227780Y-407708D01*
X227160Y-408958D01*
X226695Y-410625D01*
X226540Y-412500D01*
X226695Y-414375D01*
X227160Y-416042D01*
X227780Y-417292D01*
X228710Y-418333D01*
X229950Y-418750D01*
X231190Y-418333D01*
X232120Y-417292D01*
X232740Y-416042D01*
X233205Y-414375D01*
X233360Y-412500D01*
X233205Y-410625D01*
X232740Y-408958D01*
X232120Y-407708D01*
X231190Y-406667D01*
X229950Y-406250D01*
G01X174150Y-356250D02*
X172910Y-356667D01*
X171980Y-357708D01*
X171360Y-358958D01*
X170895Y-360625D01*
X170740Y-362500D01*
X170895Y-364375D01*
X171360Y-366042D01*
X171980Y-367292D01*
X172910Y-368333D01*
X174150Y-368750D01*
X175390Y-368333D01*
X176320Y-367292D01*
X176940Y-366042D01*
X177405Y-364375D01*
X177560Y-362500D01*
X177405Y-360625D01*
X176940Y-358958D01*
X176320Y-357708D01*
X175390Y-356667D01*
X174150Y-356250D01*
G01X186550Y-369167D02*
X186240Y-368958D01*
Y-368542D01*
X186550Y-368333D01*
X186860Y-368542D01*
Y-368958D01*
X186550Y-369167D01*
G01X198950Y-356250D02*
X197710Y-356667D01*
X196780Y-357708D01*
X196160Y-358958D01*
X195695Y-360625D01*
X195540Y-362500D01*
X195695Y-364375D01*
X196160Y-366042D01*
X196780Y-367292D01*
X197710Y-368333D01*
X198950Y-368750D01*
X200190Y-368333D01*
X201120Y-367292D01*
X201740Y-366042D01*
X202205Y-364375D01*
X202360Y-362500D01*
X202205Y-360625D01*
X201740Y-358958D01*
X201120Y-357708D01*
X200190Y-356667D01*
X198950Y-356250D01*
G01X211350D02*
X210110Y-356667D01*
X209180Y-357708D01*
X208560Y-358958D01*
X208095Y-360625D01*
X207940Y-362500D01*
X208095Y-364375D01*
X208560Y-366042D01*
X209180Y-367292D01*
X210110Y-368333D01*
X211350Y-368750D01*
X212590Y-368333D01*
X213520Y-367292D01*
X214140Y-366042D01*
X214605Y-364375D01*
X214760Y-362500D01*
X214605Y-360625D01*
X214140Y-358958D01*
X213520Y-357708D01*
X212590Y-356667D01*
X211350Y-356250D01*
G01X223750D02*
X222510Y-356667D01*
X221580Y-357708D01*
X220960Y-358958D01*
X220495Y-360625D01*
X220340Y-362500D01*
X220495Y-364375D01*
X220960Y-366042D01*
X221580Y-367292D01*
X222510Y-368333D01*
X223750Y-368750D01*
X224990Y-368333D01*
X225920Y-367292D01*
X226540Y-366042D01*
X227005Y-364375D01*
X227160Y-362500D01*
X227005Y-360625D01*
X226540Y-358958D01*
X225920Y-357708D01*
X224990Y-356667D01*
X223750Y-356250D01*
G01X174150Y-331250D02*
X172910Y-331667D01*
X171980Y-332708D01*
X171360Y-333958D01*
X170895Y-335625D01*
X170740Y-337500D01*
X170895Y-339375D01*
X171360Y-341042D01*
X171980Y-342292D01*
X172910Y-343333D01*
X174150Y-343750D01*
X175390Y-343333D01*
X176320Y-342292D01*
X176940Y-341042D01*
X177405Y-339375D01*
X177560Y-337500D01*
X177405Y-335625D01*
X176940Y-333958D01*
X176320Y-332708D01*
X175390Y-331667D01*
X174150Y-331250D01*
G01X186550Y-344167D02*
X186240Y-343958D01*
Y-343542D01*
X186550Y-343333D01*
X186860Y-343542D01*
Y-343958D01*
X186550Y-344167D01*
G01X198950Y-331250D02*
X197710Y-331667D01*
X196780Y-332708D01*
X196160Y-333958D01*
X195695Y-335625D01*
X195540Y-337500D01*
X195695Y-339375D01*
X196160Y-341042D01*
X196780Y-342292D01*
X197710Y-343333D01*
X198950Y-343750D01*
X200190Y-343333D01*
X201120Y-342292D01*
X201740Y-341042D01*
X202205Y-339375D01*
X202360Y-337500D01*
X202205Y-335625D01*
X201740Y-333958D01*
X201120Y-332708D01*
X200190Y-331667D01*
X198950Y-331250D01*
G01X211350D02*
X210110Y-331667D01*
X209180Y-332708D01*
X208560Y-333958D01*
X208095Y-335625D01*
X207940Y-337500D01*
X208095Y-339375D01*
X208560Y-341042D01*
X209180Y-342292D01*
X210110Y-343333D01*
X211350Y-343750D01*
X212590Y-343333D01*
X213520Y-342292D01*
X214140Y-341042D01*
X214605Y-339375D01*
X214760Y-337500D01*
X214605Y-335625D01*
X214140Y-333958D01*
X213520Y-332708D01*
X212590Y-331667D01*
X211350Y-331250D01*
G01X223750D02*
X222510Y-331667D01*
X221580Y-332708D01*
X220960Y-333958D01*
X220495Y-335625D01*
X220340Y-337500D01*
X220495Y-339375D01*
X220960Y-341042D01*
X221580Y-342292D01*
X222510Y-343333D01*
X223750Y-343750D01*
X224990Y-343333D01*
X225920Y-342292D01*
X226540Y-341042D01*
X227005Y-339375D01*
X227160Y-337500D01*
X227005Y-335625D01*
X226540Y-333958D01*
X225920Y-332708D01*
X224990Y-331667D01*
X223750Y-331250D01*
G01X165315Y-317292D02*
X166400Y-318333D01*
X167640Y-318750D01*
X168880Y-318333D01*
X169965Y-317084D01*
X170740Y-315208D01*
X171050Y-313333D01*
Y-311042D01*
X170740Y-309167D01*
X169965Y-307500D01*
X169035Y-306667D01*
X167950Y-306250D01*
X166710Y-306667D01*
X165780Y-307500D01*
X165160Y-308750D01*
X164850Y-310417D01*
X165160Y-311875D01*
X165935Y-313333D01*
X166865Y-314167D01*
X167950Y-314375D01*
X169190Y-313959D01*
X170120Y-312917D01*
X171050Y-311042D01*
G01X180350Y-306250D02*
X179110Y-306667D01*
X178180Y-307708D01*
X177560Y-308958D01*
X177095Y-310625D01*
X176940Y-312500D01*
X177095Y-314375D01*
X177560Y-316042D01*
X178180Y-317292D01*
X179110Y-318333D01*
X180350Y-318750D01*
X181590Y-318333D01*
X182520Y-317292D01*
X183140Y-316042D01*
X183605Y-314375D01*
X183760Y-312500D01*
X183605Y-310625D01*
X183140Y-308958D01*
X182520Y-307708D01*
X181590Y-306667D01*
X180350Y-306250D01*
G01X192750Y-319167D02*
X192440Y-318958D01*
Y-318542D01*
X192750Y-318333D01*
X193060Y-318542D01*
Y-318958D01*
X192750Y-319167D01*
G01X205150Y-306250D02*
X203910Y-306667D01*
X202980Y-307708D01*
X202360Y-308958D01*
X201895Y-310625D01*
X201740Y-312500D01*
X201895Y-314375D01*
X202360Y-316042D01*
X202980Y-317292D01*
X203910Y-318333D01*
X205150Y-318750D01*
X206390Y-318333D01*
X207320Y-317292D01*
X207940Y-316042D01*
X208405Y-314375D01*
X208560Y-312500D01*
X208405Y-310625D01*
X207940Y-308958D01*
X207320Y-307708D01*
X206390Y-306667D01*
X205150Y-306250D01*
G01X217550D02*
X216310Y-306667D01*
X215380Y-307708D01*
X214760Y-308958D01*
X214295Y-310625D01*
X214140Y-312500D01*
X214295Y-314375D01*
X214760Y-316042D01*
X215380Y-317292D01*
X216310Y-318333D01*
X217550Y-318750D01*
X218790Y-318333D01*
X219720Y-317292D01*
X220340Y-316042D01*
X220805Y-314375D01*
X220960Y-312500D01*
X220805Y-310625D01*
X220340Y-308958D01*
X219720Y-307708D01*
X218790Y-306667D01*
X217550Y-306250D01*
G01X229950D02*
X228710Y-306667D01*
X227780Y-307708D01*
X227160Y-308958D01*
X226695Y-310625D01*
X226540Y-312500D01*
X226695Y-314375D01*
X227160Y-316042D01*
X227780Y-317292D01*
X228710Y-318333D01*
X229950Y-318750D01*
X231190Y-318333D01*
X232120Y-317292D01*
X232740Y-316042D01*
X233205Y-314375D01*
X233360Y-312500D01*
X233205Y-310625D01*
X232740Y-308958D01*
X232120Y-307708D01*
X231190Y-306667D01*
X229950Y-306250D01*
G01X165315Y-292292D02*
X166400Y-293333D01*
X167640Y-293750D01*
X168880Y-293333D01*
X169965Y-292084D01*
X170740Y-290208D01*
X171050Y-288333D01*
Y-286042D01*
X170740Y-284167D01*
X169965Y-282500D01*
X169035Y-281667D01*
X167950Y-281250D01*
X166710Y-281667D01*
X165780Y-282500D01*
X165160Y-283750D01*
X164850Y-285417D01*
X165160Y-286875D01*
X165935Y-288333D01*
X166865Y-289167D01*
X167950Y-289375D01*
X169190Y-288959D01*
X170120Y-287917D01*
X171050Y-286042D01*
G01X180350Y-281250D02*
X179110Y-281667D01*
X178180Y-282708D01*
X177560Y-283958D01*
X177095Y-285625D01*
X176940Y-287500D01*
X177095Y-289375D01*
X177560Y-291042D01*
X178180Y-292292D01*
X179110Y-293333D01*
X180350Y-293750D01*
X181590Y-293333D01*
X182520Y-292292D01*
X183140Y-291042D01*
X183605Y-289375D01*
X183760Y-287500D01*
X183605Y-285625D01*
X183140Y-283958D01*
X182520Y-282708D01*
X181590Y-281667D01*
X180350Y-281250D01*
G01X192750Y-294167D02*
X192440Y-293958D01*
Y-293542D01*
X192750Y-293333D01*
X193060Y-293542D01*
Y-293958D01*
X192750Y-294167D01*
G01X205150Y-281250D02*
X203910Y-281667D01*
X202980Y-282708D01*
X202360Y-283958D01*
X201895Y-285625D01*
X201740Y-287500D01*
X201895Y-289375D01*
X202360Y-291042D01*
X202980Y-292292D01*
X203910Y-293333D01*
X205150Y-293750D01*
X206390Y-293333D01*
X207320Y-292292D01*
X207940Y-291042D01*
X208405Y-289375D01*
X208560Y-287500D01*
X208405Y-285625D01*
X207940Y-283958D01*
X207320Y-282708D01*
X206390Y-281667D01*
X205150Y-281250D01*
G01X217550D02*
X216310Y-281667D01*
X215380Y-282708D01*
X214760Y-283958D01*
X214295Y-285625D01*
X214140Y-287500D01*
X214295Y-289375D01*
X214760Y-291042D01*
X215380Y-292292D01*
X216310Y-293333D01*
X217550Y-293750D01*
X218790Y-293333D01*
X219720Y-292292D01*
X220340Y-291042D01*
X220805Y-289375D01*
X220960Y-287500D01*
X220805Y-285625D01*
X220340Y-283958D01*
X219720Y-282708D01*
X218790Y-281667D01*
X217550Y-281250D01*
G01X229950D02*
X228710Y-281667D01*
X227780Y-282708D01*
X227160Y-283958D01*
X226695Y-285625D01*
X226540Y-287500D01*
X226695Y-289375D01*
X227160Y-291042D01*
X227780Y-292292D01*
X228710Y-293333D01*
X229950Y-293750D01*
X231190Y-293333D01*
X232120Y-292292D01*
X232740Y-291042D01*
X233205Y-289375D01*
X233360Y-287500D01*
X233205Y-285625D01*
X232740Y-283958D01*
X232120Y-282708D01*
X231190Y-281667D01*
X229950Y-281250D01*
G01X174150Y-256250D02*
X172910Y-256667D01*
X171980Y-257708D01*
X171360Y-258958D01*
X170895Y-260625D01*
X170740Y-262500D01*
X170895Y-264375D01*
X171360Y-266042D01*
X171980Y-267292D01*
X172910Y-268333D01*
X174150Y-268750D01*
X175390Y-268333D01*
X176320Y-267292D01*
X176940Y-266042D01*
X177405Y-264375D01*
X177560Y-262500D01*
X177405Y-260625D01*
X176940Y-258958D01*
X176320Y-257708D01*
X175390Y-256667D01*
X174150Y-256250D01*
G01X186550Y-269167D02*
X186240Y-268958D01*
Y-268542D01*
X186550Y-268333D01*
X186860Y-268542D01*
Y-268958D01*
X186550Y-269167D01*
G01X198950Y-256250D02*
X197710Y-256667D01*
X196780Y-257708D01*
X196160Y-258958D01*
X195695Y-260625D01*
X195540Y-262500D01*
X195695Y-264375D01*
X196160Y-266042D01*
X196780Y-267292D01*
X197710Y-268333D01*
X198950Y-268750D01*
X200190Y-268333D01*
X201120Y-267292D01*
X201740Y-266042D01*
X202205Y-264375D01*
X202360Y-262500D01*
X202205Y-260625D01*
X201740Y-258958D01*
X201120Y-257708D01*
X200190Y-256667D01*
X198950Y-256250D01*
G01X211350D02*
X210110Y-256667D01*
X209180Y-257708D01*
X208560Y-258958D01*
X208095Y-260625D01*
X207940Y-262500D01*
X208095Y-264375D01*
X208560Y-266042D01*
X209180Y-267292D01*
X210110Y-268333D01*
X211350Y-268750D01*
X212590Y-268333D01*
X213520Y-267292D01*
X214140Y-266042D01*
X214605Y-264375D01*
X214760Y-262500D01*
X214605Y-260625D01*
X214140Y-258958D01*
X213520Y-257708D01*
X212590Y-256667D01*
X211350Y-256250D01*
G01X223750D02*
X222510Y-256667D01*
X221580Y-257708D01*
X220960Y-258958D01*
X220495Y-260625D01*
X220340Y-262500D01*
X220495Y-264375D01*
X220960Y-266042D01*
X221580Y-267292D01*
X222510Y-268333D01*
X223750Y-268750D01*
X224990Y-268333D01*
X225920Y-267292D01*
X226540Y-266042D01*
X227005Y-264375D01*
X227160Y-262500D01*
X227005Y-260625D01*
X226540Y-258958D01*
X225920Y-257708D01*
X224990Y-256667D01*
X223750Y-256250D01*
G01X174150Y-231250D02*
X172910Y-231667D01*
X171980Y-232708D01*
X171360Y-233958D01*
X170895Y-235625D01*
X170740Y-237500D01*
X170895Y-239375D01*
X171360Y-241042D01*
X171980Y-242292D01*
X172910Y-243333D01*
X174150Y-243750D01*
X175390Y-243333D01*
X176320Y-242292D01*
X176940Y-241042D01*
X177405Y-239375D01*
X177560Y-237500D01*
X177405Y-235625D01*
X176940Y-233958D01*
X176320Y-232708D01*
X175390Y-231667D01*
X174150Y-231250D01*
G01X186550Y-244167D02*
X186240Y-243958D01*
Y-243542D01*
X186550Y-243333D01*
X186860Y-243542D01*
Y-243958D01*
X186550Y-244167D01*
G01X198950Y-231250D02*
X197710Y-231667D01*
X196780Y-232708D01*
X196160Y-233958D01*
X195695Y-235625D01*
X195540Y-237500D01*
X195695Y-239375D01*
X196160Y-241042D01*
X196780Y-242292D01*
X197710Y-243333D01*
X198950Y-243750D01*
X200190Y-243333D01*
X201120Y-242292D01*
X201740Y-241042D01*
X202205Y-239375D01*
X202360Y-237500D01*
X202205Y-235625D01*
X201740Y-233958D01*
X201120Y-232708D01*
X200190Y-231667D01*
X198950Y-231250D01*
G01X211350D02*
X210110Y-231667D01*
X209180Y-232708D01*
X208560Y-233958D01*
X208095Y-235625D01*
X207940Y-237500D01*
X208095Y-239375D01*
X208560Y-241042D01*
X209180Y-242292D01*
X210110Y-243333D01*
X211350Y-243750D01*
X212590Y-243333D01*
X213520Y-242292D01*
X214140Y-241042D01*
X214605Y-239375D01*
X214760Y-237500D01*
X214605Y-235625D01*
X214140Y-233958D01*
X213520Y-232708D01*
X212590Y-231667D01*
X211350Y-231250D01*
G01X223750D02*
X222510Y-231667D01*
X221580Y-232708D01*
X220960Y-233958D01*
X220495Y-235625D01*
X220340Y-237500D01*
X220495Y-239375D01*
X220960Y-241042D01*
X221580Y-242292D01*
X222510Y-243333D01*
X223750Y-243750D01*
X224990Y-243333D01*
X225920Y-242292D01*
X226540Y-241042D01*
X227005Y-239375D01*
X227160Y-237500D01*
X227005Y-235625D01*
X226540Y-233958D01*
X225920Y-232708D01*
X224990Y-231667D01*
X223750Y-231250D01*
G01X174150Y-206250D02*
X172910Y-206667D01*
X171980Y-207708D01*
X171360Y-208958D01*
X170895Y-210625D01*
X170740Y-212500D01*
X170895Y-214375D01*
X171360Y-216042D01*
X171980Y-217292D01*
X172910Y-218333D01*
X174150Y-218750D01*
X175390Y-218333D01*
X176320Y-217292D01*
X176940Y-216042D01*
X177405Y-214375D01*
X177560Y-212500D01*
X177405Y-210625D01*
X176940Y-208958D01*
X176320Y-207708D01*
X175390Y-206667D01*
X174150Y-206250D01*
G01X186550Y-219167D02*
X186240Y-218958D01*
Y-218542D01*
X186550Y-218333D01*
X186860Y-218542D01*
Y-218958D01*
X186550Y-219167D01*
G01X198950Y-206250D02*
X197710Y-206667D01*
X196780Y-207708D01*
X196160Y-208958D01*
X195695Y-210625D01*
X195540Y-212500D01*
X195695Y-214375D01*
X196160Y-216042D01*
X196780Y-217292D01*
X197710Y-218333D01*
X198950Y-218750D01*
X200190Y-218333D01*
X201120Y-217292D01*
X201740Y-216042D01*
X202205Y-214375D01*
X202360Y-212500D01*
X202205Y-210625D01*
X201740Y-208958D01*
X201120Y-207708D01*
X200190Y-206667D01*
X198950Y-206250D01*
G01X211350D02*
X210110Y-206667D01*
X209180Y-207708D01*
X208560Y-208958D01*
X208095Y-210625D01*
X207940Y-212500D01*
X208095Y-214375D01*
X208560Y-216042D01*
X209180Y-217292D01*
X210110Y-218333D01*
X211350Y-218750D01*
X212590Y-218333D01*
X213520Y-217292D01*
X214140Y-216042D01*
X214605Y-214375D01*
X214760Y-212500D01*
X214605Y-210625D01*
X214140Y-208958D01*
X213520Y-207708D01*
X212590Y-206667D01*
X211350Y-206250D01*
G01X223750D02*
X222510Y-206667D01*
X221580Y-207708D01*
X220960Y-208958D01*
X220495Y-210625D01*
X220340Y-212500D01*
X220495Y-214375D01*
X220960Y-216042D01*
X221580Y-217292D01*
X222510Y-218333D01*
X223750Y-218750D01*
X224990Y-218333D01*
X225920Y-217292D01*
X226540Y-216042D01*
X227005Y-214375D01*
X227160Y-212500D01*
X227005Y-210625D01*
X226540Y-208958D01*
X225920Y-207708D01*
X224990Y-206667D01*
X223750Y-206250D01*
G01X165315Y-192292D02*
X166400Y-193333D01*
X167640Y-193750D01*
X168880Y-193333D01*
X169965Y-192084D01*
X170740Y-190208D01*
X171050Y-188333D01*
Y-186042D01*
X170740Y-184167D01*
X169965Y-182500D01*
X169035Y-181667D01*
X167950Y-181250D01*
X166710Y-181667D01*
X165780Y-182500D01*
X165160Y-183750D01*
X164850Y-185417D01*
X165160Y-186875D01*
X165935Y-188333D01*
X166865Y-189167D01*
X167950Y-189375D01*
X169190Y-188959D01*
X170120Y-187917D01*
X171050Y-186042D01*
G01X180350Y-181250D02*
X179110Y-181667D01*
X178180Y-182708D01*
X177560Y-183958D01*
X177095Y-185625D01*
X176940Y-187500D01*
X177095Y-189375D01*
X177560Y-191042D01*
X178180Y-192292D01*
X179110Y-193333D01*
X180350Y-193750D01*
X181590Y-193333D01*
X182520Y-192292D01*
X183140Y-191042D01*
X183605Y-189375D01*
X183760Y-187500D01*
X183605Y-185625D01*
X183140Y-183958D01*
X182520Y-182708D01*
X181590Y-181667D01*
X180350Y-181250D01*
G01X192750Y-194167D02*
X192440Y-193958D01*
Y-193542D01*
X192750Y-193333D01*
X193060Y-193542D01*
Y-193958D01*
X192750Y-194167D01*
G01X205150Y-181250D02*
X203910Y-181667D01*
X202980Y-182708D01*
X202360Y-183958D01*
X201895Y-185625D01*
X201740Y-187500D01*
X201895Y-189375D01*
X202360Y-191042D01*
X202980Y-192292D01*
X203910Y-193333D01*
X205150Y-193750D01*
X206390Y-193333D01*
X207320Y-192292D01*
X207940Y-191042D01*
X208405Y-189375D01*
X208560Y-187500D01*
X208405Y-185625D01*
X207940Y-183958D01*
X207320Y-182708D01*
X206390Y-181667D01*
X205150Y-181250D01*
G01X217550D02*
X216310Y-181667D01*
X215380Y-182708D01*
X214760Y-183958D01*
X214295Y-185625D01*
X214140Y-187500D01*
X214295Y-189375D01*
X214760Y-191042D01*
X215380Y-192292D01*
X216310Y-193333D01*
X217550Y-193750D01*
X218790Y-193333D01*
X219720Y-192292D01*
X220340Y-191042D01*
X220805Y-189375D01*
X220960Y-187500D01*
X220805Y-185625D01*
X220340Y-183958D01*
X219720Y-182708D01*
X218790Y-181667D01*
X217550Y-181250D01*
G01X229950D02*
X228710Y-181667D01*
X227780Y-182708D01*
X227160Y-183958D01*
X226695Y-185625D01*
X226540Y-187500D01*
X226695Y-189375D01*
X227160Y-191042D01*
X227780Y-192292D01*
X228710Y-193333D01*
X229950Y-193750D01*
X231190Y-193333D01*
X232120Y-192292D01*
X232740Y-191042D01*
X233205Y-189375D01*
X233360Y-187500D01*
X233205Y-185625D01*
X232740Y-183958D01*
X232120Y-182708D01*
X231190Y-181667D01*
X229950Y-181250D01*
G01X165315Y-167292D02*
X166400Y-168333D01*
X167640Y-168750D01*
X168880Y-168333D01*
X169965Y-167084D01*
X170740Y-165208D01*
X171050Y-163333D01*
Y-161042D01*
X170740Y-159167D01*
X169965Y-157500D01*
X169035Y-156667D01*
X167950Y-156250D01*
X166710Y-156667D01*
X165780Y-157500D01*
X165160Y-158750D01*
X164850Y-160417D01*
X165160Y-161875D01*
X165935Y-163333D01*
X166865Y-164167D01*
X167950Y-164375D01*
X169190Y-163959D01*
X170120Y-162917D01*
X171050Y-161042D01*
G01X180350Y-156250D02*
X179110Y-156667D01*
X178180Y-157708D01*
X177560Y-158958D01*
X177095Y-160625D01*
X176940Y-162500D01*
X177095Y-164375D01*
X177560Y-166042D01*
X178180Y-167292D01*
X179110Y-168333D01*
X180350Y-168750D01*
X181590Y-168333D01*
X182520Y-167292D01*
X183140Y-166042D01*
X183605Y-164375D01*
X183760Y-162500D01*
X183605Y-160625D01*
X183140Y-158958D01*
X182520Y-157708D01*
X181590Y-156667D01*
X180350Y-156250D01*
G01X192750Y-169167D02*
X192440Y-168958D01*
Y-168542D01*
X192750Y-168333D01*
X193060Y-168542D01*
Y-168958D01*
X192750Y-169167D01*
G01X205150Y-156250D02*
X203910Y-156667D01*
X202980Y-157708D01*
X202360Y-158958D01*
X201895Y-160625D01*
X201740Y-162500D01*
X201895Y-164375D01*
X202360Y-166042D01*
X202980Y-167292D01*
X203910Y-168333D01*
X205150Y-168750D01*
X206390Y-168333D01*
X207320Y-167292D01*
X207940Y-166042D01*
X208405Y-164375D01*
X208560Y-162500D01*
X208405Y-160625D01*
X207940Y-158958D01*
X207320Y-157708D01*
X206390Y-156667D01*
X205150Y-156250D01*
G01X217550D02*
X216310Y-156667D01*
X215380Y-157708D01*
X214760Y-158958D01*
X214295Y-160625D01*
X214140Y-162500D01*
X214295Y-164375D01*
X214760Y-166042D01*
X215380Y-167292D01*
X216310Y-168333D01*
X217550Y-168750D01*
X218790Y-168333D01*
X219720Y-167292D01*
X220340Y-166042D01*
X220805Y-164375D01*
X220960Y-162500D01*
X220805Y-160625D01*
X220340Y-158958D01*
X219720Y-157708D01*
X218790Y-156667D01*
X217550Y-156250D01*
G01X229950D02*
X228710Y-156667D01*
X227780Y-157708D01*
X227160Y-158958D01*
X226695Y-160625D01*
X226540Y-162500D01*
X226695Y-164375D01*
X227160Y-166042D01*
X227780Y-167292D01*
X228710Y-168333D01*
X229950Y-168750D01*
X231190Y-168333D01*
X232120Y-167292D01*
X232740Y-166042D01*
X233205Y-164375D01*
X233360Y-162500D01*
X233205Y-160625D01*
X232740Y-158958D01*
X232120Y-157708D01*
X231190Y-156667D01*
X229950Y-156250D01*
G01X152450Y-93750D02*
Y-81250D01*
X156325D01*
X157565Y-81875D01*
X158340Y-82708D01*
X158650Y-84375D01*
X158340Y-86042D01*
X157410Y-87083D01*
X156325Y-87708D01*
X152450D01*
G01X156325D02*
X158650Y-93750D01*
G01X167950D02*
X166710Y-93542D01*
X165625Y-92709D01*
X164695Y-91458D01*
X164075Y-90000D01*
X163765Y-88333D01*
Y-86667D01*
X164075Y-85000D01*
X164695Y-83542D01*
X165625Y-82292D01*
X166710Y-81458D01*
X167950Y-81250D01*
X169190Y-81458D01*
X170275Y-82292D01*
X171205Y-83542D01*
X171825Y-85000D01*
X172135Y-86667D01*
Y-88333D01*
X171825Y-90000D01*
X171205Y-91458D01*
X170275Y-92709D01*
X169190Y-93542D01*
X167950Y-93750D01*
G01X180350Y-81250D02*
Y-93750D01*
G01X176785Y-81250D02*
X183915D01*
G01X188875Y-93750D02*
X192750Y-81250D01*
X196625Y-93750D01*
G01X195230Y-89375D02*
X190270D01*
G01X205150Y-81250D02*
Y-93750D01*
G01X201585Y-81250D02*
X208715D01*
G01X215690D02*
X219410D01*
G01X217550D02*
Y-93750D01*
G01X215690D02*
X219410D01*
G01X229950D02*
X228710Y-93542D01*
X227625Y-92709D01*
X226695Y-91458D01*
X226075Y-90000D01*
X225765Y-88333D01*
Y-86667D01*
X226075Y-85000D01*
X226695Y-83542D01*
X227625Y-82292D01*
X228710Y-81458D01*
X229950Y-81250D01*
X231190Y-81458D01*
X232275Y-82292D01*
X233205Y-83542D01*
X233825Y-85000D01*
X234135Y-86667D01*
Y-88333D01*
X233825Y-90000D01*
X233205Y-91458D01*
X232275Y-92709D01*
X231190Y-93542D01*
X229950Y-93750D01*
G01X238785D02*
Y-81250D01*
X245915Y-93750D01*
Y-81250D01*
G01X196935Y-114583D02*
X200965D01*
G01X196935Y-139583D02*
X200965D01*
G01X262500Y-75000D02*
Y-450000D01*
G01X266685Y-143750D02*
Y-131250D01*
X273815Y-143750D01*
Y-131250D01*
G01X282650Y-143750D02*
X281410Y-143542D01*
X280325Y-142709D01*
X279395Y-141458D01*
X278775Y-140000D01*
X278465Y-138333D01*
Y-136667D01*
X278775Y-135000D01*
X279395Y-133542D01*
X280325Y-132292D01*
X281410Y-131458D01*
X282650Y-131250D01*
X283890Y-131458D01*
X284975Y-132292D01*
X285905Y-133542D01*
X286525Y-135000D01*
X286835Y-136667D01*
Y-138333D01*
X286525Y-140000D01*
X285905Y-141458D01*
X284975Y-142709D01*
X283890Y-143542D01*
X282650Y-143750D01*
G01X291485D02*
Y-131250D01*
X298615Y-143750D01*
Y-131250D01*
G01X305435Y-139583D02*
X309465D01*
G01X316750Y-143750D02*
Y-131250D01*
X320470D01*
X321710Y-131875D01*
X322640Y-133333D01*
X322950Y-135000D01*
X322640Y-136667D01*
X321865Y-137917D01*
X320470Y-138542D01*
X316750D01*
G01X329150Y-131250D02*
Y-143750D01*
X335350D01*
G01X340775D02*
X344650Y-131250D01*
X348525Y-143750D01*
G01X347130Y-139375D02*
X342170D01*
G01X357050Y-131250D02*
Y-143750D01*
G01X353485Y-131250D02*
X360615D01*
G01X372550Y-143750D02*
X366350D01*
Y-131250D01*
X372550D01*
G01X370070Y-137292D02*
X366350D01*
G01X378440Y-143750D02*
Y-131250D01*
X381540D01*
X382780Y-131875D01*
X383710Y-132708D01*
X384485Y-133958D01*
X385105Y-135417D01*
X385260Y-137500D01*
X385105Y-139583D01*
X384485Y-141042D01*
X383710Y-142292D01*
X382780Y-143125D01*
X381540Y-143750D01*
X378440D01*
G01X291950Y-443750D02*
Y-431250D01*
X295670D01*
X296910Y-431875D01*
X297840Y-433333D01*
X298150Y-435000D01*
X297840Y-436667D01*
X297065Y-437917D01*
X295670Y-438542D01*
X291950D01*
G01X304350Y-431250D02*
Y-443750D01*
X310550D01*
G01X315975D02*
X319850Y-431250D01*
X323725Y-443750D01*
G01X322330Y-439375D02*
X317370D01*
G01X332250Y-431250D02*
Y-443750D01*
G01X328685Y-431250D02*
X335815D01*
G01X347750Y-443750D02*
X341550D01*
Y-431250D01*
X347750D01*
G01X345270Y-437292D02*
X341550D01*
G01X353640Y-443750D02*
Y-431250D01*
X356740D01*
X357980Y-431875D01*
X358910Y-432708D01*
X359685Y-433958D01*
X360305Y-435417D01*
X360460Y-437500D01*
X360305Y-439583D01*
X359685Y-441042D01*
X358910Y-442292D01*
X357980Y-443125D01*
X356740Y-443750D01*
X353640D01*
G01X291950Y-393750D02*
Y-381250D01*
X295670D01*
X296910Y-381875D01*
X297840Y-383333D01*
X298150Y-385000D01*
X297840Y-386667D01*
X297065Y-387917D01*
X295670Y-388542D01*
X291950D01*
G01X304350Y-381250D02*
Y-393750D01*
X310550D01*
G01X315975D02*
X319850Y-381250D01*
X323725Y-393750D01*
G01X322330Y-389375D02*
X317370D01*
G01X332250Y-381250D02*
Y-393750D01*
G01X328685Y-381250D02*
X335815D01*
G01X347750Y-393750D02*
X341550D01*
Y-381250D01*
X347750D01*
G01X345270Y-387292D02*
X341550D01*
G01X353640Y-393750D02*
Y-381250D01*
X356740D01*
X357980Y-381875D01*
X358910Y-382708D01*
X359685Y-383958D01*
X360305Y-385417D01*
X360460Y-387500D01*
X360305Y-389583D01*
X359685Y-391042D01*
X358910Y-392292D01*
X357980Y-393125D01*
X356740Y-393750D01*
X353640D01*
G01X291950Y-418750D02*
Y-406250D01*
X295670D01*
X296910Y-406875D01*
X297840Y-408333D01*
X298150Y-410000D01*
X297840Y-411667D01*
X297065Y-412917D01*
X295670Y-413542D01*
X291950D01*
G01X304350Y-406250D02*
Y-418750D01*
X310550D01*
G01X315975D02*
X319850Y-406250D01*
X323725Y-418750D01*
G01X322330Y-414375D02*
X317370D01*
G01X332250Y-406250D02*
Y-418750D01*
G01X328685Y-406250D02*
X335815D01*
G01X347750Y-418750D02*
X341550D01*
Y-406250D01*
X347750D01*
G01X345270Y-412292D02*
X341550D01*
G01X353640Y-418750D02*
Y-406250D01*
X356740D01*
X357980Y-406875D01*
X358910Y-407708D01*
X359685Y-408958D01*
X360305Y-410417D01*
X360460Y-412500D01*
X360305Y-414583D01*
X359685Y-416042D01*
X358910Y-417292D01*
X357980Y-418125D01*
X356740Y-418750D01*
X353640D01*
G01X291950Y-368750D02*
Y-356250D01*
X295670D01*
X296910Y-356875D01*
X297840Y-358333D01*
X298150Y-360000D01*
X297840Y-361667D01*
X297065Y-362917D01*
X295670Y-363542D01*
X291950D01*
G01X304350Y-356250D02*
Y-368750D01*
X310550D01*
G01X315975D02*
X319850Y-356250D01*
X323725Y-368750D01*
G01X322330Y-364375D02*
X317370D01*
G01X332250Y-356250D02*
Y-368750D01*
G01X328685Y-356250D02*
X335815D01*
G01X347750Y-368750D02*
X341550D01*
Y-356250D01*
X347750D01*
G01X345270Y-362292D02*
X341550D01*
G01X353640Y-368750D02*
Y-356250D01*
X356740D01*
X357980Y-356875D01*
X358910Y-357708D01*
X359685Y-358958D01*
X360305Y-360417D01*
X360460Y-362500D01*
X360305Y-364583D01*
X359685Y-366042D01*
X358910Y-367292D01*
X357980Y-368125D01*
X356740Y-368750D01*
X353640D01*
G01X291950Y-343750D02*
Y-331250D01*
X295670D01*
X296910Y-331875D01*
X297840Y-333333D01*
X298150Y-335000D01*
X297840Y-336667D01*
X297065Y-337917D01*
X295670Y-338542D01*
X291950D01*
G01X304350Y-331250D02*
Y-343750D01*
X310550D01*
G01X315975D02*
X319850Y-331250D01*
X323725Y-343750D01*
G01X322330Y-339375D02*
X317370D01*
G01X332250Y-331250D02*
Y-343750D01*
G01X328685Y-331250D02*
X335815D01*
G01X347750Y-343750D02*
X341550D01*
Y-331250D01*
X347750D01*
G01X345270Y-337292D02*
X341550D01*
G01X353640Y-343750D02*
Y-331250D01*
X356740D01*
X357980Y-331875D01*
X358910Y-332708D01*
X359685Y-333958D01*
X360305Y-335417D01*
X360460Y-337500D01*
X360305Y-339583D01*
X359685Y-341042D01*
X358910Y-342292D01*
X357980Y-343125D01*
X356740Y-343750D01*
X353640D01*
G01X291950Y-318750D02*
Y-306250D01*
X295670D01*
X296910Y-306875D01*
X297840Y-308333D01*
X298150Y-310000D01*
X297840Y-311667D01*
X297065Y-312917D01*
X295670Y-313542D01*
X291950D01*
G01X304350Y-306250D02*
Y-318750D01*
X310550D01*
G01X315975D02*
X319850Y-306250D01*
X323725Y-318750D01*
G01X322330Y-314375D02*
X317370D01*
G01X332250Y-306250D02*
Y-318750D01*
G01X328685Y-306250D02*
X335815D01*
G01X347750Y-318750D02*
X341550D01*
Y-306250D01*
X347750D01*
G01X345270Y-312292D02*
X341550D01*
G01X353640Y-318750D02*
Y-306250D01*
X356740D01*
X357980Y-306875D01*
X358910Y-307708D01*
X359685Y-308958D01*
X360305Y-310417D01*
X360460Y-312500D01*
X360305Y-314583D01*
X359685Y-316042D01*
X358910Y-317292D01*
X357980Y-318125D01*
X356740Y-318750D01*
X353640D01*
G01X291950Y-293750D02*
Y-281250D01*
X295670D01*
X296910Y-281875D01*
X297840Y-283333D01*
X298150Y-285000D01*
X297840Y-286667D01*
X297065Y-287917D01*
X295670Y-288542D01*
X291950D01*
G01X304350Y-281250D02*
Y-293750D01*
X310550D01*
G01X315975D02*
X319850Y-281250D01*
X323725Y-293750D01*
G01X322330Y-289375D02*
X317370D01*
G01X332250Y-281250D02*
Y-293750D01*
G01X328685Y-281250D02*
X335815D01*
G01X347750Y-293750D02*
X341550D01*
Y-281250D01*
X347750D01*
G01X345270Y-287292D02*
X341550D01*
G01X353640Y-293750D02*
Y-281250D01*
X356740D01*
X357980Y-281875D01*
X358910Y-282708D01*
X359685Y-283958D01*
X360305Y-285417D01*
X360460Y-287500D01*
X360305Y-289583D01*
X359685Y-291042D01*
X358910Y-292292D01*
X357980Y-293125D01*
X356740Y-293750D01*
X353640D01*
G01X291950Y-268750D02*
Y-256250D01*
X295670D01*
X296910Y-256875D01*
X297840Y-258333D01*
X298150Y-260000D01*
X297840Y-261667D01*
X297065Y-262917D01*
X295670Y-263542D01*
X291950D01*
G01X304350Y-256250D02*
Y-268750D01*
X310550D01*
G01X315975D02*
X319850Y-256250D01*
X323725Y-268750D01*
G01X322330Y-264375D02*
X317370D01*
G01X332250Y-256250D02*
Y-268750D01*
G01X328685Y-256250D02*
X335815D01*
G01X347750Y-268750D02*
X341550D01*
Y-256250D01*
X347750D01*
G01X345270Y-262292D02*
X341550D01*
G01X353640Y-268750D02*
Y-256250D01*
X356740D01*
X357980Y-256875D01*
X358910Y-257708D01*
X359685Y-258958D01*
X360305Y-260417D01*
X360460Y-262500D01*
X360305Y-264583D01*
X359685Y-266042D01*
X358910Y-267292D01*
X357980Y-268125D01*
X356740Y-268750D01*
X353640D01*
G01X291950Y-243750D02*
Y-231250D01*
X295670D01*
X296910Y-231875D01*
X297840Y-233333D01*
X298150Y-235000D01*
X297840Y-236667D01*
X297065Y-237917D01*
X295670Y-238542D01*
X291950D01*
G01X304350Y-231250D02*
Y-243750D01*
X310550D01*
G01X315975D02*
X319850Y-231250D01*
X323725Y-243750D01*
G01X322330Y-239375D02*
X317370D01*
G01X332250Y-231250D02*
Y-243750D01*
G01X328685Y-231250D02*
X335815D01*
G01X347750Y-243750D02*
X341550D01*
Y-231250D01*
X347750D01*
G01X345270Y-237292D02*
X341550D01*
G01X353640Y-243750D02*
Y-231250D01*
X356740D01*
X357980Y-231875D01*
X358910Y-232708D01*
X359685Y-233958D01*
X360305Y-235417D01*
X360460Y-237500D01*
X360305Y-239583D01*
X359685Y-241042D01*
X358910Y-242292D01*
X357980Y-243125D01*
X356740Y-243750D01*
X353640D01*
G01X291950Y-218750D02*
Y-206250D01*
X295670D01*
X296910Y-206875D01*
X297840Y-208333D01*
X298150Y-210000D01*
X297840Y-211667D01*
X297065Y-212917D01*
X295670Y-213542D01*
X291950D01*
G01X304350Y-206250D02*
Y-218750D01*
X310550D01*
G01X315975D02*
X319850Y-206250D01*
X323725Y-218750D01*
G01X322330Y-214375D02*
X317370D01*
G01X332250Y-206250D02*
Y-218750D01*
G01X328685Y-206250D02*
X335815D01*
G01X347750Y-218750D02*
X341550D01*
Y-206250D01*
X347750D01*
G01X345270Y-212292D02*
X341550D01*
G01X353640Y-218750D02*
Y-206250D01*
X356740D01*
X357980Y-206875D01*
X358910Y-207708D01*
X359685Y-208958D01*
X360305Y-210417D01*
X360460Y-212500D01*
X360305Y-214583D01*
X359685Y-216042D01*
X358910Y-217292D01*
X357980Y-218125D01*
X356740Y-218750D01*
X353640D01*
G01X291950Y-193750D02*
Y-181250D01*
X295670D01*
X296910Y-181875D01*
X297840Y-183333D01*
X298150Y-185000D01*
X297840Y-186667D01*
X297065Y-187917D01*
X295670Y-188542D01*
X291950D01*
G01X304350Y-181250D02*
Y-193750D01*
X310550D01*
G01X315975D02*
X319850Y-181250D01*
X323725Y-193750D01*
G01X322330Y-189375D02*
X317370D01*
G01X332250Y-181250D02*
Y-193750D01*
G01X328685Y-181250D02*
X335815D01*
G01X347750Y-193750D02*
X341550D01*
Y-181250D01*
X347750D01*
G01X345270Y-187292D02*
X341550D01*
G01X353640Y-193750D02*
Y-181250D01*
X356740D01*
X357980Y-181875D01*
X358910Y-182708D01*
X359685Y-183958D01*
X360305Y-185417D01*
X360460Y-187500D01*
X360305Y-189583D01*
X359685Y-191042D01*
X358910Y-192292D01*
X357980Y-193125D01*
X356740Y-193750D01*
X353640D01*
G01X291950Y-168750D02*
Y-156250D01*
X295670D01*
X296910Y-156875D01*
X297840Y-158333D01*
X298150Y-160000D01*
X297840Y-161667D01*
X297065Y-162917D01*
X295670Y-163542D01*
X291950D01*
G01X304350Y-156250D02*
Y-168750D01*
X310550D01*
G01X315975D02*
X319850Y-156250D01*
X323725Y-168750D01*
G01X322330Y-164375D02*
X317370D01*
G01X332250Y-156250D02*
Y-168750D01*
G01X328685Y-156250D02*
X335815D01*
G01X347750Y-168750D02*
X341550D01*
Y-156250D01*
X347750D01*
G01X345270Y-162292D02*
X341550D01*
G01X353640Y-168750D02*
Y-156250D01*
X356740D01*
X357980Y-156875D01*
X358910Y-157708D01*
X359685Y-158958D01*
X360305Y-160417D01*
X360460Y-162500D01*
X360305Y-164583D01*
X359685Y-166042D01*
X358910Y-167292D01*
X357980Y-168125D01*
X356740Y-168750D01*
X353640D01*
G01X291950Y-118750D02*
Y-106250D01*
X295670D01*
X296910Y-106875D01*
X297840Y-108333D01*
X298150Y-110000D01*
X297840Y-111667D01*
X297065Y-112917D01*
X295670Y-113542D01*
X291950D01*
G01X304350Y-106250D02*
Y-118750D01*
X310550D01*
G01X315975D02*
X319850Y-106250D01*
X323725Y-118750D01*
G01X322330Y-114375D02*
X317370D01*
G01X332250Y-106250D02*
Y-118750D01*
G01X328685Y-106250D02*
X335815D01*
G01X347750Y-118750D02*
X341550D01*
Y-106250D01*
X347750D01*
G01X345270Y-112292D02*
X341550D01*
G01X353640Y-118750D02*
Y-106250D01*
X356740D01*
X357980Y-106875D01*
X358910Y-107708D01*
X359685Y-108958D01*
X360305Y-110417D01*
X360460Y-112500D01*
X360305Y-114583D01*
X359685Y-116042D01*
X358910Y-117292D01*
X357980Y-118125D01*
X356740Y-118750D01*
X353640D01*
G01X291950Y-93750D02*
Y-81250D01*
X295670D01*
X296910Y-81875D01*
X297840Y-83333D01*
X298150Y-85000D01*
X297840Y-86667D01*
X297065Y-87917D01*
X295670Y-88542D01*
X291950D01*
G01X304350Y-81250D02*
Y-93750D01*
X310550D01*
G01X315975D02*
X319850Y-81250D01*
X323725Y-93750D01*
G01X322330Y-89375D02*
X317370D01*
G01X332250Y-81250D02*
Y-93750D01*
G01X328685Y-81250D02*
X335815D01*
G01X347750Y-93750D02*
X341550D01*
Y-81250D01*
X347750D01*
G01X345270Y-87292D02*
X341550D01*
G01X353640Y-93750D02*
Y-81250D01*
X356740D01*
X357980Y-81875D01*
X358910Y-82708D01*
X359685Y-83958D01*
X360305Y-85417D01*
X360460Y-87500D01*
X360305Y-89583D01*
X359685Y-91042D01*
X358910Y-92292D01*
X357980Y-93125D01*
X356740Y-93750D01*
X353640D01*
G01X389600Y-75000D02*
Y-450000D01*
G01X422150Y-368750D02*
Y-356250D01*
X420290Y-358750D01*
G01Y-368750D02*
X424010D01*
G01X434550Y-356250D02*
X433310Y-356667D01*
X432380Y-357708D01*
X431760Y-358958D01*
X431295Y-360625D01*
X431140Y-362500D01*
X431295Y-364375D01*
X431760Y-366042D01*
X432380Y-367292D01*
X433310Y-368333D01*
X434550Y-368750D01*
X435790Y-368333D01*
X436720Y-367292D01*
X437340Y-366042D01*
X437805Y-364375D01*
X437960Y-362500D01*
X437805Y-360625D01*
X437340Y-358958D01*
X436720Y-357708D01*
X435790Y-356667D01*
X434550Y-356250D01*
G01X422150Y-318750D02*
Y-306250D01*
X420290Y-308750D01*
G01Y-318750D02*
X424010D01*
G01X431140Y-316250D02*
X432070Y-317709D01*
X433310Y-318542D01*
X434705Y-318750D01*
X435945Y-318542D01*
X437185Y-317500D01*
X437960Y-316250D01*
X438115Y-315000D01*
X437805Y-313542D01*
X436720Y-312500D01*
X435635Y-312083D01*
X434240D01*
G01X435635D02*
X436565Y-311458D01*
X437340Y-310417D01*
X437650Y-309167D01*
X437340Y-307917D01*
X436565Y-306875D01*
X435170Y-306250D01*
X433775Y-306458D01*
X432380Y-307292D01*
G01X422150Y-243750D02*
Y-231250D01*
X420290Y-233750D01*
G01Y-243750D02*
X424010D01*
G01X434550Y-231250D02*
X433310Y-231667D01*
X432380Y-232708D01*
X431760Y-233958D01*
X431295Y-235625D01*
X431140Y-237500D01*
X431295Y-239375D01*
X431760Y-241042D01*
X432380Y-242292D01*
X433310Y-243333D01*
X434550Y-243750D01*
X435790Y-243333D01*
X436720Y-242292D01*
X437340Y-241042D01*
X437805Y-239375D01*
X437960Y-237500D01*
X437805Y-235625D01*
X437340Y-233958D01*
X436720Y-232708D01*
X435790Y-231667D01*
X434550Y-231250D01*
G01X415950Y-118750D02*
Y-106250D01*
X414090Y-108750D01*
G01Y-118750D02*
X417810D01*
G01X428350Y-106250D02*
X427110Y-106667D01*
X426180Y-107708D01*
X425560Y-108958D01*
X425095Y-110625D01*
X424940Y-112500D01*
X425095Y-114375D01*
X425560Y-116042D01*
X426180Y-117292D01*
X427110Y-118333D01*
X428350Y-118750D01*
X429590Y-118333D01*
X430520Y-117292D01*
X431140Y-116042D01*
X431605Y-114375D01*
X431760Y-112500D01*
X431605Y-110625D01*
X431140Y-108958D01*
X430520Y-107708D01*
X429590Y-106667D01*
X428350Y-106250D01*
G01X437805Y-113542D02*
X438890Y-112083D01*
X439820Y-111250D01*
X441060Y-110833D01*
X442145Y-111250D01*
X442920Y-112083D01*
X443540Y-113333D01*
X443695Y-114792D01*
X443540Y-116042D01*
X442920Y-117292D01*
X441990Y-118333D01*
X440905Y-118750D01*
X439665Y-118333D01*
X438580Y-117084D01*
X437960Y-115208D01*
X437805Y-113125D01*
X438115Y-110417D01*
X438580Y-108958D01*
X439355Y-107500D01*
X440440Y-106458D01*
X441525Y-106250D01*
X442610Y-106667D01*
X443385Y-107708D01*
G01X415950Y-93750D02*
X414710Y-93542D01*
X413625Y-92709D01*
X412695Y-91458D01*
X412075Y-90000D01*
X411765Y-88333D01*
Y-86667D01*
X412075Y-85000D01*
X412695Y-83542D01*
X413625Y-82292D01*
X414710Y-81458D01*
X415950Y-81250D01*
X417190Y-81458D01*
X418275Y-82292D01*
X419205Y-83542D01*
X419825Y-85000D01*
X420135Y-86667D01*
Y-88333D01*
X419825Y-90000D01*
X419205Y-91458D01*
X418275Y-92709D01*
X417190Y-93542D01*
X415950Y-93750D01*
G01X417190Y-90417D02*
X419050Y-93750D01*
G01X428350Y-81250D02*
Y-93750D01*
G01X424785Y-81250D02*
X431915D01*
G01X440750Y-93750D02*
Y-88125D01*
X437650Y-81250D01*
G01X443850D02*
X440750Y-88125D01*
G01X430210Y-443750D02*
Y-431250D01*
X424475Y-440208D01*
X432225D01*
G01X428350Y-393750D02*
X429435Y-393542D01*
X430675Y-392917D01*
X431450Y-391875D01*
X431760Y-390417D01*
X431450Y-388959D01*
X430520Y-387708D01*
X429125Y-387083D01*
X427575D01*
X426645Y-386667D01*
X425870Y-385625D01*
X425560Y-384167D01*
X426025Y-382708D01*
X427110Y-381667D01*
X428350Y-381250D01*
X429590Y-381667D01*
X430675Y-382708D01*
X431140Y-384167D01*
X430830Y-385625D01*
X430055Y-386667D01*
X429125Y-387083D01*
X427575D01*
X426180Y-387708D01*
X425250Y-388959D01*
X424940Y-390417D01*
X425250Y-391875D01*
X426025Y-392917D01*
X427265Y-393542D01*
X428350Y-393750D01*
G01X425405Y-408333D02*
X426335Y-407084D01*
X427420Y-406458D01*
X428660Y-406250D01*
X430210Y-406667D01*
X431295Y-407708D01*
X431605Y-408958D01*
X431450Y-410209D01*
X430830Y-411250D01*
X427730Y-413333D01*
X426335Y-414792D01*
X425405Y-416875D01*
X425095Y-418750D01*
X431605D01*
G01X430210Y-343750D02*
Y-331250D01*
X424475Y-340208D01*
X432225D01*
G01X430210Y-293750D02*
Y-281250D01*
X424475Y-290208D01*
X432225D01*
G01X428350Y-268750D02*
X429435Y-268542D01*
X430675Y-267917D01*
X431450Y-266875D01*
X431760Y-265417D01*
X431450Y-263959D01*
X430520Y-262708D01*
X429125Y-262083D01*
X427575D01*
X426645Y-261667D01*
X425870Y-260625D01*
X425560Y-259167D01*
X426025Y-257708D01*
X427110Y-256667D01*
X428350Y-256250D01*
X429590Y-256667D01*
X430675Y-257708D01*
X431140Y-259167D01*
X430830Y-260625D01*
X430055Y-261667D01*
X429125Y-262083D01*
X427575D01*
X426180Y-262708D01*
X425250Y-263959D01*
X424940Y-265417D01*
X425250Y-266875D01*
X426025Y-267917D01*
X427265Y-268542D01*
X428350Y-268750D01*
G01X424940Y-216250D02*
X425870Y-217709D01*
X427110Y-218542D01*
X428505Y-218750D01*
X429745Y-218542D01*
X430985Y-217500D01*
X431760Y-216250D01*
X431915Y-215000D01*
X431605Y-213542D01*
X430520Y-212500D01*
X429435Y-212083D01*
X428040D01*
G01X429435D02*
X430365Y-211458D01*
X431140Y-210417D01*
X431450Y-209167D01*
X431140Y-207917D01*
X430365Y-206875D01*
X428970Y-206250D01*
X427575Y-206458D01*
X426180Y-207292D01*
G01X425405Y-183333D02*
X426335Y-182084D01*
X427420Y-181458D01*
X428660Y-181250D01*
X430210Y-181667D01*
X431295Y-182708D01*
X431605Y-183958D01*
X431450Y-185209D01*
X430830Y-186250D01*
X427730Y-188333D01*
X426335Y-189792D01*
X425405Y-191875D01*
X425095Y-193750D01*
X431605D01*
G01X425405Y-158333D02*
X426335Y-157084D01*
X427420Y-156458D01*
X428660Y-156250D01*
X430210Y-156667D01*
X431295Y-157708D01*
X431605Y-158958D01*
X431450Y-160209D01*
X430830Y-161250D01*
X427730Y-163333D01*
X426335Y-164792D01*
X425405Y-166875D01*
X425095Y-168750D01*
X431605D01*
G01X430210Y-143750D02*
Y-131250D01*
X424475Y-140208D01*
X432225D01*
G54D15*
X-111050Y-287500D03*
X57756Y169408D03*
X47756D03*
X57756Y179408D03*
X47756D03*
G54D16*
X-111050Y-312500D03*
X38189Y246063D03*
Y255906D03*
Y265748D03*
X227165Y236969D03*
Y246969D03*
Y256969D03*
Y266969D03*
X276772Y183071D03*
Y173228D03*
Y163386D03*
Y234252D03*
Y224409D03*
Y214567D03*
G54D17*
X-111050Y-262500D03*
X127874Y212500D03*
X162127D03*
X185374D03*
X204134Y296063D03*
X230512Y187402D03*
X219627Y212500D03*
X238387Y296063D03*
X264765Y187402D03*
G54D18*
X-111050Y-237500D03*
X101299Y45276D03*
X111299D03*
X113110Y29528D03*
X123110D03*
X124921Y45276D03*
X134921D03*
X126890Y190945D03*
X136890D03*
X178071D03*
X188071D03*
G54D19*
X-111050Y-212500D03*
X186850Y22638D03*
X196850D03*
X206850D03*
M02*
