M48
INCH,LZ
T01C.01969
T02C.02756
T03C.03543
T04C.036
T05C.03937
T06C.04016
T07C.04331
T08C.04724
T09C.06299
;EXTENTS: -4.581  -5.081  12.419  5.919   
;LEADER: 12 
;HEADER: 
;CODE  : ASCII 
;FILE  : D:/PKU/SmartPublicBathroom/Project/1_ShowerTerminal/Hardware/2_PCB/gerber/SHOWERTERMINAL_1-2.rou for board D:/PKU/SmartPublicBathroom/Project/1_ShowerTerminal/Hardware/2_PCB/#Taaaaaz23352.tmp, layers TOP to BOTTOM
%
G90
F1
M16
T05
M16
G00X00162127Y002125
G40
M15
G01
M16
G00X00127874
G40
M15
G01
M16
G00X00219627
G40
M15
G01
M16
G00X00185374
G40
M15
G01
M16
G00X00264765Y00187402
G40
M15
G01
M16
G00X00230511
G40
M15
G01
M16
G00X00238386Y00296063
G40
M15
G01
M16
G00X00204134
G40
M15
G01
M16
T08
M16
G00X00249723Y00070866
G40
M15
G01
M16
G00X00259723
G40
M15
G01
M16
T01
M16
G00X00083465Y00157283
G40
M15
G01
M16
G00Y00161614
G40
M15
G01
M16
T02
M16
G00X00083071Y00104921
G40
M15
G01
M16
G00Y00085631
G40
M15
G01
M16
T04
M16
G00X00134921Y00045276
G40
M15
G01
M16
G00X00124921
G40
M15
G01
M16
G00X00123109Y00029527
G40
M15
G01
M16
G00X00113109
G40
M15
G01
M16
G00X00111299Y00045276
G40
M15
G01
M16
G00X00101299
G40
M15
G01
M16
T09
M16
G00X00290945Y00265749
G40
M15
G01
M16
G00Y00285434
G40
M15
G01
M16
T04
M16
G00X0013689Y00190945
G40
M15
G01
M16
G00X0012689
G40
M15
G01
M16
G00X00188071
G40
M15
G01
M16
G00X00178071
G40
M15
G01
M16
T03
M16
G00X0020685Y00022638
G40
M15
G01
M16
G00X0019685
G40
M15
G01
M16
G00X0018685
G40
M15
G01
M16
T07
M16
G00X00276772Y00163386
G40
M15
G01
M16
G00Y00173228
G40
M15
G01
M16
G00Y00183071
G40
M15
G01
M16
G00Y00214567
G40
M15
G01
M16
G00Y00224409
G40
M15
G01
M16
G00Y00234252
G40
M15
G01
M16
G00X00038189Y00265748
G40
M15
G01
M16
G00Y00255906
G40
M15
G01
M16
G00Y00246063
G40
M15
G01
M16
T06
M16
G00X00047756Y00179408
G40
M15
G01
M16
G00X00057755
G40
M15
G01
M16
G00X00047756Y00169408
G40
M15
G01
M16
G00X00057755
G40
M15
G01
M16
T09
M16
G00X00210236Y00344094
G40
M15
G01
M16
G00X0021811Y00367716
G40
M15
G01
M16
G00X00266141Y00320472
G40
M15
G01
M16
G00X0021811
G40
M15
G01
M16
T08
M16
G00X00063976Y00119094
G40
M15
G01
M16
G00X00038385
G40
M15
G01
M16
G00X00063976Y00136811
G40
M15
G01
M16
G00X00038385
G40
M15
G01
M16
G00X00276575Y00119094
G40
M15
G01
M16
G00X00250984
G40
M15
G01
M16
G00X00276575Y00136811
G40
M15
G01
M16
G00X00250984
G40
M15
G01
M16
T07
M16
G00X00236181Y00047244
G40
M15
G01
M16
G00X00246181
G40
M15
G01
M16
G00X00256181
G40
M15
G01
M16
G00X00266181
G40
M15
G01
M16
G00X00227165Y00266969
G40
M15
G01
M16
G00Y00256969
G40
M15
G01
M16
G00Y00246969
G40
M15
G01
M16
G00Y00236969
G40
M15
G01
M16
T08
M16
G00X00225984Y00085079
G40
M15
G01
M16
G00Y00095079
G40
M15
G01
M16
G00Y00105079
G40
M15
G01
M16
G00Y00115079
G40
M15
G01
M16
G00Y00125079
G40
M15
G01
M16
G00Y00135079
G40
M15
G01
M16
G00Y00145079
G40
M15
G01
M16
G00Y00155079
G40
M15
G01
M16
G40
M30
