M48
INCH,LZ
T01C.013
T02C.16142
;LEADER: 12 
;HEADER: 
;CODE  : ASCII 
;FILE  : SHOWERTERMINAL-1-2.drl for board D:/PKU/SmartPublicBathroom/Project/1_ShowerTerminal/Hardware/2_PCB/#Taaaaat23352.tmp ... layers TOP and BOTTOM
;T01 Holesize 1. = 13.000000 Tolerance = +0.000000/-0.000000 PLATED MILS Quantity = 106
;T02 Holesize 2. = 161.420000 Tolerance = +0.000000/-0.000000 NON_PLATED MILS Quantity = 4
%
G90
T01
X00028532Y00189752
X00031032Y0019685
X00043146Y00204724
X00028532Y00214173
X00031032Y00226005
X00047469Y00261834
X00027145Y00308201
X00086303Y00358819
X00089997Y00292657
X00071018Y00261834
X00095555Y00259843
X00080169Y00245
X00077736Y00237
X00082569Y0022613
X00086311Y002204
X0009769Y00218
X00088011Y002155
X00062812Y00213386
X00093511Y00213
X00072412
X000923Y00193
X00075434Y00149731
X000915Y00131496
X00057756Y00127284
X00094302Y00116595
X00063976Y00076022
X00104699Y00037647
X00127318Y00074016
X00129718Y00082512
X00116018Y00100531
X0013567
X00143642Y00110846
X001035Y00122676
X00124918Y00125076
X00137618
X00149419Y00133896
X00145219Y00136296
X00142819Y00139146
X00140319Y00141646
X00145219Y00147422
X00125146Y00151457
X00132118Y00153957
X00116018Y00158157
X00122518Y00162257
X00141142
X00135018Y00199871
X00108902Y00208
X00135018Y00229947
X00105279Y0024252
X00105631Y00277455
X00128466Y00313819
X00135728Y00332283
X0013737Y00336141
X00146882Y00340639
X00112466Y00353819
X00149282Y00373819
X00153382Y00368819
X00154877Y00355713
Y00335039
X00165824Y00326576
X00154877Y00318819
X00191556Y00275506
X00156477Y00270706
X00190118Y00264337
X00185035Y00261837
X00168604Y00246969
X00171803Y00236969
X00185035Y00228
X00197871Y00205545
X00152953Y00164947
X00183694Y00160623
X00178579Y00158223
X00181294Y00147559
X0017327Y00147423
X00156447Y00147422
X00168701Y00144923
X00166564Y00131496
X00162796Y00127479
X00152953Y00125079
X00155353Y00122676
X00173596Y00120276
X00170397Y00116595
X0017067Y00113246
X00179096Y00110846
X00158859
X0017327Y00105446
X0017539Y00098031
X00152532Y00094066
X00160827Y00090335
X0018945Y00044044
X00225984Y00077935
X00207775Y00085935
X00200575Y00087935
X00207775Y00101246
X00215961Y00112423
X00218461Y00133896
X00241732Y00136811
X00243228Y00140011
X00216761Y00147617
X00238928Y00164947
X00207861Y00182658
X00200371Y00217344
X00225171Y00224409
X00247084Y0028234
X00256628Y00098957
X00259028Y00088957
T02
X00023622Y00023622
X00291339
Y00370079
X00023622
M30
