M48
INCH,LZ
T01C.013
T02C.16142
;LEADER: 12 
;HEADER: 
;CODE  : ASCII 
;FILE  : SHOWERTERMINAL-1-2.drl for board D:/PKU/SmartPublicBathroom/Project/1_ShowerTerminal/Hardware/2_PCB/#Taaaaax19624.tmp ... layers TOP and BOTTOM
;T01 Holesize 1. = 13.000000 Tolerance = +0.000000/-0.000000 PLATED MILS Quantity = 101
;T02 Holesize 2. = 161.420000 Tolerance = +0.000000/-0.000000 NON_PLATED MILS Quantity = 4
%
G90
T01
X00028732Y0019685
X00035845Y002004
X00028732Y00227805
X00027145Y00299673
X00069518Y00260905
X00047469
X00057714Y00227805
X00061913Y00213386
X00068878Y00206123
X00075787Y00205825
X00043146Y00204724
X00075087Y00197371
Y00182
X00075334Y00138511
X00057756Y00127284
X00063976Y00076022
X00104699Y00037647
X00116018Y00100531
X00095496Y00117346
X001051Y00125897
X000947Y00132223
X00116018Y00150257
X00117618Y00179134
X00090312Y00198
X00096712Y002004
X00117902Y002015
X00109814Y002028
X00090511Y00213
X0009769Y00218
X00112429Y00233858
X00082436Y00234
X00100832
X00112429Y00248924
X00100832Y00265601
X00105631Y00277455
X00090432Y00295145
X00112466Y00353819
X00086303Y00358819
X00155Y00369883
X00146882Y00338839
X0013737Y00335583
X00133329Y00323228
X00154877Y00318819
X00135746Y00313819
X00156477Y00274955
X00129293Y00229947
X00151438Y00169247
X00152953Y00164947
X00141142Y00157722
X00125718
X00142942Y00147422
X00136918Y00147057
X00156447Y00145022
X00140319Y00141646
X00146439Y00135079
X00149319Y00129823
X00137618Y00128297
X00141618Y00125897
X00152953Y0012496
X00145079Y00110846
X0013567Y00100531
X00158859Y00093373
X00143111Y00079535
X00128118Y00074016
X00197518Y00057744
X0018295Y00058444
X00188409Y00087535
X00176Y00103
X0016817Y00110846
X0017067Y00113346
X00165196Y00117346
X00174194Y00120276
X00162796Y00121925
X0016029Y00132223
X00172594Y00143898
X0017327Y00151693
X00174272Y00160236
X00183694Y00160623
X00173771Y00169247
X00194918Y00202856
X00197418Y00207656
X00185035Y00228
X00171871Y00236969
X00168672Y00246969
X00185035Y00257537
X00190118Y00263943
X00191556Y00274955
X00166371Y00326576
X00170124Y00355313
X0021879Y00280669
X00203672Y00224409
X00200556Y00178714
X00237128Y00164947
X00212561Y00147659
X00210061Y00122559
X00212561Y00118123
X00219962Y00089823
Y00076335
X00232528Y00065729
X00260008Y00098957
X00276575Y00088957
T02
X00023622Y00023622
X00291339
Y00370079
X00023622
M30
