G04 ================== begin FILE IDENTIFICATION RECORD ==================*
G04 Layout Name:  SHOWERTERMINAL.brd*
G04 Film Name:    Silkscreen_Bottom*
G04 File Format:  Gerber RS274X*
G04 File Origin:  Cadence Allegro 17.2-S079*
G04 Origin Date:  Thu May 05 21:00:59 2022*
G04 *
G04 Layer:  REF DES/SILKSCREEN_BOTTOM*
G04 Layer:  PACKAGE GEOMETRY/SILKSCREEN_BOTTOM*
G04 Layer:  BOARD GEOMETRY/SILKSCREEN_BOTTOM*
G04 *
G04 Offset:    (0.00 0.00)*
G04 Mirror:    No*
G04 Mode:      Positive*
G04 Rotation:  0*
G04 FullContactRelief:  No*
G04 UndefLineWidth:     6.00*
G04 ================== end FILE IDENTIFICATION RECORD ====================*
%FSLAX25Y25*MOIN*%
%IR0*IPPOS*OFA0.00000B0.00000*MIA0B0*SFA1.00000B1.00000*%
%ADD10C,.01*%
%ADD11C,.01181*%
%ADD12C,.006*%
G75*
%LPD*%
G75*
G36*
G01X145829Y103146D02*
Y102146D01*
X144329D01*
Y103146D01*
X145829D01*
G37*
G36*
G01X128918Y128900D02*
Y127400D01*
X129918D01*
Y128900D01*
X128918D01*
G37*
G36*
G01X143860Y155122D02*
Y156122D01*
X142360D01*
Y155122D01*
X143860D01*
G37*
G36*
G01X165514Y103146D02*
Y102146D01*
X164014D01*
Y103146D01*
X165514D01*
G37*
G36*
G01X163545Y155122D02*
Y156122D01*
X162045D01*
Y155122D01*
X163545D01*
G37*
G36*
G01X182893Y126931D02*
Y125431D01*
X181893D01*
Y126931D01*
X182893D01*
G37*
G54D10*
G01X90071Y83277D02*
G02X76067I-7002J-550D01*
G01X92325Y82878D02*
G02X73817I-9254J-363D01*
G01X92324Y82877D02*
Y107677D01*
G01X73820Y82877D02*
Y107677D01*
G01X76072Y83277D02*
Y107277D01*
G01X90072Y83277D02*
Y107277D01*
G01X76067D02*
G02X90071I7002J501D01*
G01X73820Y107677D02*
G02X92328I9254J388D01*
G01X89370Y159449D02*
G03I-5905J0D01*
G01X90237Y295905D02*
Y303386D01*
G01X95511Y295905D02*
X90237D01*
G01X96063Y303346D02*
X90237Y303386D01*
G01X90630Y370315D02*
Y377796D01*
G01X95905Y370315D02*
X90630D01*
G01X96457Y377756D02*
X90630Y377796D01*
G01X98820Y299586D02*
X96850D01*
G01Y297638D02*
Y301575D01*
G01X106300Y297244D02*
Y301968D01*
G01X104922Y295866D02*
X100000D01*
G01X104922Y303346D02*
X100000D01*
G01X106300Y301968D02*
X104922Y303346D01*
G01X106300Y297244D02*
X104922Y295866D01*
G01X120552Y295905D02*
Y303386D01*
G01X125826Y295905D02*
X120552D01*
G01X126378Y303346D02*
X120552Y303386D01*
G01X99213Y373996D02*
X97244D01*
G01Y372048D02*
Y375985D01*
G01X106693Y371654D02*
Y376378D01*
G01X105315Y370276D02*
X100394D01*
G01X106693Y371654D02*
X105315Y370276D01*
G01X117402Y370315D02*
Y377796D01*
G01X122677Y370315D02*
X117402D01*
G01X105315Y377756D02*
X100394D01*
G01X106693Y376378D02*
X105315Y377756D01*
G01X123229D02*
X117402Y377796D01*
G01X129135Y299586D02*
X127165D01*
G01Y297638D02*
Y301575D01*
G01X136615Y297244D02*
Y301968D01*
G01X135237Y295866D02*
X130315D01*
G01X135237Y303346D02*
X130315D01*
G01X136615Y301968D02*
X135237Y303346D01*
G01X136615Y297244D02*
X135237Y295866D01*
G01X125985Y373996D02*
X124016D01*
G01Y372048D02*
Y375985D01*
G01X133465Y371654D02*
Y376378D01*
G01X132087Y370276D02*
X127166D01*
G01X133465Y371654D02*
X132087Y370276D01*
G01Y377756D02*
X127166D01*
G01X133465Y376378D02*
X132087Y377756D01*
G01X179036Y275591D02*
G03I-5020J0D01*
G01Y285631D02*
X168996D01*
G01X179036Y265550D02*
X168996D01*
G01D02*
X165473Y269074D01*
G01X163976Y270991D02*
Y280191D01*
G01X168996Y285631D02*
X165473Y282107D01*
G01X177556Y268111D02*
X170866D01*
G01D02*
X166926Y272050D01*
G01D02*
Y279131D01*
G01X170476Y282681D02*
X166926Y279131D01*
G01X177956Y282681D02*
X170476D01*
G01X179036Y319291D02*
G03I-5020J0D01*
G01Y309251D02*
X168996D01*
G01D02*
X165473Y312775D01*
G01X163976Y314691D02*
Y323891D01*
G01X177556Y311811D02*
X170866D01*
G01D02*
X166926Y315751D01*
G01D02*
Y322831D01*
G01X179036Y329331D02*
X168996D01*
G01D02*
X165473Y325807D01*
G01X170476Y326381D02*
X166926Y322831D01*
G01X177956Y326381D02*
X170476D01*
G01X179036Y362598D02*
G03I-5020J0D01*
G01Y372639D02*
X168996D01*
G01X179036Y352558D02*
X168996D01*
G01D02*
X165473Y356082D01*
G01X163976Y357998D02*
Y367198D01*
G01X168996Y372639D02*
X165473Y369115D01*
G01X177556Y355119D02*
X170866D01*
G01D02*
X166926Y359058D01*
G01D02*
Y366139D01*
G01X170476Y369689D02*
X166926Y366139D01*
G01X177956Y369689D02*
X170476D01*
G01X182560Y282107D02*
X179036Y285631D01*
G01X182560Y269074D02*
X179036Y265550D01*
G01X184056Y270991D02*
Y280191D01*
G01X181106Y279531D02*
X177956Y282681D01*
G01X181106Y271661D02*
Y279531D01*
G01Y271661D02*
X177556Y268111D01*
G01X182560Y312775D02*
X179036Y309251D01*
G01X184056Y314691D02*
Y323891D01*
G01X181106Y315361D02*
Y323231D01*
G01Y315361D02*
X177556Y311811D01*
G01X182560Y325807D02*
X179036Y329331D01*
G01X181106Y323231D02*
X177956Y326381D01*
G01X182560Y369115D02*
X179036Y372639D01*
G01X182560Y356082D02*
X179036Y352558D01*
G01X184056Y357998D02*
Y367198D01*
G01X181106Y366539D02*
X177956Y369689D01*
G01X181106Y358669D02*
Y366539D01*
G01Y358669D02*
X177556Y355119D01*
G01X272008Y42244D02*
X230354D01*
G01D02*
Y52244D01*
G01X272008D02*
X230354D01*
G01X266063Y65394D02*
X243386D01*
G01D02*
Y76378D01*
G01X266063D02*
X243386D01*
G01X272008Y42244D02*
Y52244D01*
G01X261089Y42244D02*
Y52244D01*
G01X266063Y65394D02*
Y76378D01*
G01X281181Y85669D02*
Y93150D01*
G01X286456Y85669D02*
X281181D01*
G01X287008Y93110D02*
X281181Y93150D01*
G01X289765Y89350D02*
X287795D01*
G01Y87402D02*
Y91339D01*
G01X297244Y87008D02*
Y91732D01*
G01X295867Y85630D02*
X290945D01*
G01X295867Y93110D02*
X290945D01*
G01X297244Y91732D02*
X295867Y93110D01*
G01X297244Y87008D02*
X295867Y85630D01*
G54D11*
G01X245148Y85936D02*
G03I-591J0D01*
G01X252681Y88957D02*
G03I-591J0D01*
G54D12*
G01X69557Y69086D02*
X69917Y69311D01*
X70337Y69461D01*
X70817D01*
X71357Y69236D01*
X71777Y68861D01*
X72077Y68411D01*
X72317Y67661D01*
X72377Y66986D01*
X72257Y66311D01*
X72077Y65861D01*
X71717Y65411D01*
X71297Y65111D01*
X70877Y64961D01*
X70457D01*
X70037Y65111D01*
X69677Y65336D01*
X69377Y65636D01*
G01X67877Y65861D02*
X67517Y65336D01*
X67037Y65036D01*
X66497Y64961D01*
X66017Y65036D01*
X65537Y65411D01*
X65237Y65861D01*
X65177Y66311D01*
X65297Y66836D01*
X65717Y67211D01*
X66137Y67361D01*
X66677D01*
G01X66137D02*
X65777Y67586D01*
X65477Y67961D01*
X65357Y68411D01*
X65477Y68861D01*
X65777Y69236D01*
X66317Y69461D01*
X66857Y69386D01*
X67397Y69086D01*
G01X62237Y69461D02*
X62717Y69311D01*
X63077Y68936D01*
X63317Y68486D01*
X63497Y67886D01*
X63557Y67211D01*
X63497Y66536D01*
X63317Y65936D01*
X63077Y65486D01*
X62717Y65111D01*
X62237Y64961D01*
X61757Y65111D01*
X61397Y65486D01*
X61157Y65936D01*
X60977Y66536D01*
X60917Y67211D01*
X60977Y67886D01*
X61157Y68486D01*
X61397Y68936D01*
X61757Y69311D01*
X62237Y69461D01*
G01X72077Y56693D02*
Y61193D01*
X70577D01*
X70097Y60968D01*
X69797Y60668D01*
X69677Y60068D01*
X69797Y59468D01*
X70157Y59093D01*
X70577Y58868D01*
X72077D01*
G01X70577D02*
X69677Y56693D01*
G01X67877Y57593D02*
X67517Y57068D01*
X67037Y56768D01*
X66497Y56693D01*
X66017Y56768D01*
X65537Y57143D01*
X65237Y57593D01*
X65177Y58043D01*
X65297Y58568D01*
X65717Y58943D01*
X66137Y59093D01*
X66677D01*
G01X66137D02*
X65777Y59318D01*
X65477Y59693D01*
X65357Y60143D01*
X65477Y60593D01*
X65777Y60968D01*
X66317Y61193D01*
X66857Y61118D01*
X67397Y60818D01*
G01X63257Y57218D02*
X62837Y56843D01*
X62357Y56693D01*
X61877Y56843D01*
X61457Y57293D01*
X61157Y57968D01*
X61037Y58643D01*
Y59468D01*
X61157Y60143D01*
X61457Y60743D01*
X61817Y61043D01*
X62237Y61193D01*
X62717Y61043D01*
X63077Y60743D01*
X63317Y60293D01*
X63437Y59693D01*
X63317Y59168D01*
X63017Y58643D01*
X62657Y58343D01*
X62237Y58268D01*
X61757Y58418D01*
X61397Y58793D01*
X61037Y59468D01*
G01X70345Y152156D02*
X70705Y152381D01*
X71125Y152531D01*
X71605D01*
X72145Y152306D01*
X72565Y151931D01*
X72865Y151481D01*
X73105Y150731D01*
X73165Y150056D01*
X73045Y149381D01*
X72865Y148931D01*
X72505Y148481D01*
X72085Y148181D01*
X71665Y148031D01*
X71245D01*
X70825Y148181D01*
X70465Y148406D01*
X70165Y148706D01*
G01X68665Y148931D02*
X68305Y148406D01*
X67825Y148106D01*
X67285Y148031D01*
X66805Y148106D01*
X66325Y148481D01*
X66025Y148931D01*
X65965Y149381D01*
X66085Y149906D01*
X66505Y150281D01*
X66925Y150431D01*
X67465D01*
G01X66925D02*
X66565Y150656D01*
X66265Y151031D01*
X66145Y151481D01*
X66265Y151931D01*
X66565Y152306D01*
X67105Y152531D01*
X67645Y152456D01*
X68185Y152156D01*
G01X64345Y148931D02*
X63985Y148406D01*
X63505Y148106D01*
X62965Y148031D01*
X62485Y148106D01*
X62005Y148481D01*
X61705Y148931D01*
X61645Y149381D01*
X61765Y149906D01*
X62185Y150281D01*
X62605Y150431D01*
X63145D01*
G01X62605D02*
X62245Y150656D01*
X61945Y151031D01*
X61825Y151481D01*
X61945Y151931D01*
X62245Y152306D01*
X62785Y152531D01*
X63325Y152456D01*
X63865Y152156D01*
G01X69854Y158661D02*
Y160686D01*
X71054Y163161D01*
G01X68654D02*
X69854Y160686D01*
G01X66674Y162411D02*
X66314Y162861D01*
X65894Y163086D01*
X65414Y163161D01*
X64814Y163011D01*
X64394Y162636D01*
X64274Y162186D01*
X64334Y161736D01*
X64574Y161361D01*
X65774Y160611D01*
X66314Y160086D01*
X66674Y159336D01*
X66794Y158661D01*
X64274D01*
G01X104450Y364800D02*
X102550D01*
X104450Y360000D01*
X102550D01*
G01X99300Y363200D02*
Y360000D01*
G01Y364480D02*
X99400Y364560D01*
Y364720D01*
X99300Y364800D01*
X99200Y364720D01*
Y364560D01*
X99300Y364480D01*
G01X95800Y358800D02*
X95450Y358480D01*
X95050Y358400D01*
X94700Y358480D01*
X94400Y358880D01*
X94200Y359440D01*
Y363200D01*
G01Y362560D02*
X94400Y362880D01*
X94700Y363120D01*
X95050Y363200D01*
X95450Y363040D01*
X95700Y362720D01*
X95900Y362160D01*
X96000Y361600D01*
X95950Y361120D01*
X95750Y360560D01*
X95450Y360160D01*
X95050Y360000D01*
X94750Y360080D01*
X94400Y360400D01*
X94200Y360720D01*
G01X90500Y362560D02*
X90300Y362800D01*
X90150Y363200D01*
X90050Y363760D01*
X90150Y364240D01*
X90350Y364560D01*
X90700Y364800D01*
X92050D01*
Y360000D01*
X90400D01*
X90050Y360320D01*
X89850Y360800D01*
X89750Y361360D01*
X89850Y361920D01*
X90150Y362400D01*
X90500Y362560D01*
X92050D01*
G01X87450Y362160D02*
X85850D01*
X86000Y362720D01*
X86250Y363040D01*
X86600Y363200D01*
X86950Y363120D01*
X87250Y362880D01*
X87450Y362320D01*
X87550Y361840D01*
Y361360D01*
X87450Y360880D01*
X87200Y360400D01*
X86900Y360080D01*
X86550Y360000D01*
X86200Y360160D01*
X85850Y360640D01*
G01X83250Y362160D02*
X81650D01*
X81800Y362720D01*
X82050Y363040D01*
X82400Y363200D01*
X82750Y363120D01*
X83050Y362880D01*
X83250Y362320D01*
X83350Y361840D01*
Y361360D01*
X83250Y360880D01*
X83000Y360400D01*
X82700Y360080D01*
X82350Y360000D01*
X82000Y360160D01*
X81650Y360640D01*
G01X79800Y358400D02*
X76800D01*
G01X75100Y364800D02*
Y360000D01*
X73100D01*
G01X70500Y364800D02*
X69300D01*
G01X69900D02*
Y360000D01*
G01X70500D02*
X69300D01*
G01X66850D02*
Y364800D01*
X64550Y360000D01*
Y364800D01*
G01X62600Y360000D02*
Y364800D01*
G01X60700D02*
X62600Y361840D01*
G01X60400Y360000D02*
X61750Y363200D01*
G01X90202Y70880D02*
G02X90802Y70280I0J-600D01*
G01Y64365D02*
G02X90202Y63765I-600J0D01*
G01X75341Y70280D02*
G02X75941Y70880I600J0D01*
G01Y63765D02*
G02X75341Y64365I0J600D01*
G01X90802D02*
Y70280D01*
G01X90202Y63765D02*
X84651D01*
G01X75341Y64365D02*
Y70280D01*
G01X81492Y63765D02*
X75941D01*
G01X90005Y62665D02*
X84946D01*
G01X90005Y55444D02*
Y62665D01*
G01Y55444D02*
X84946D01*
G01X81197Y62665D02*
X76138D01*
G01Y55444D02*
Y62665D01*
G01X81197Y55444D02*
X76138D01*
G01X90202Y70880D02*
X84651D01*
G01X81492D02*
X75941D01*
G01X91196Y120270D02*
G02X90596Y119670I-600J0D01*
G01X76335D02*
G02X75735Y120270I0J600D01*
G01X91196D02*
Y126185D01*
G01X90596Y119670D02*
X85044D01*
G01X75735Y120270D02*
Y126185D01*
G01X81885Y119670D02*
X76335D01*
G01X90596Y126785D02*
G02X91196Y126185I0J-600D01*
G01X75735D02*
G02X76335Y126785I600J0D01*
G01X90596D02*
X85044D01*
G01X81885D02*
X76335D01*
G01X90596Y151589D02*
G02X91196Y150989I0J-600D01*
G01Y145074D02*
G02X90596Y144474I-600J0D01*
G01X75735Y150989D02*
G02X76335Y151589I600J0D01*
G01Y144474D02*
G02X75735Y145074I0J600D01*
G01X91196D02*
Y150989D01*
G01X90596Y144474D02*
X85044D01*
G01X90596Y151589D02*
X85044D01*
G01X75735Y145074D02*
Y150989D01*
G01X81885Y144474D02*
X76335D01*
G01X81885Y151589D02*
X76335D01*
G01X104912Y128740D02*
Y133240D01*
X103412D01*
X102932Y133015D01*
X102632Y132715D01*
X102512Y132115D01*
X102632Y131515D01*
X102992Y131140D01*
X103412Y130915D01*
X104912D01*
G01X103412D02*
X102512Y128740D01*
G01X100712Y129640D02*
X100352Y129115D01*
X99872Y128815D01*
X99332Y128740D01*
X98852Y128815D01*
X98372Y129190D01*
X98072Y129640D01*
X98012Y130090D01*
X98132Y130615D01*
X98552Y130990D01*
X98972Y131140D01*
X99512D01*
G01X98972D02*
X98612Y131365D01*
X98312Y131740D01*
X98192Y132190D01*
X98312Y132640D01*
X98612Y133015D01*
X99152Y133240D01*
X99692Y133165D01*
X100232Y132865D01*
G01X95072Y128740D02*
X94652Y128815D01*
X94172Y129040D01*
X93872Y129415D01*
X93752Y129940D01*
X93872Y130465D01*
X94232Y130915D01*
X94772Y131140D01*
X95372D01*
X95732Y131290D01*
X96032Y131665D01*
X96152Y132190D01*
X95972Y132715D01*
X95552Y133090D01*
X95072Y133240D01*
X94592Y133090D01*
X94172Y132715D01*
X93992Y132190D01*
X94112Y131665D01*
X94412Y131290D01*
X94772Y131140D01*
X95372D01*
X95912Y130915D01*
X96272Y130465D01*
X96392Y129940D01*
X96272Y129415D01*
X95972Y129040D01*
X95492Y128815D01*
X95072Y128740D01*
G01X90398Y135106D02*
X85339D01*
G01X90398Y127885D02*
Y135106D01*
G01Y127885D02*
X85339D01*
G01X81591Y135106D02*
X76531D01*
G01Y127885D02*
Y135106D01*
G01X81591Y127885D02*
X76531D01*
G01X104518Y137795D02*
Y142295D01*
X103018D01*
X102538Y142070D01*
X102238Y141770D01*
X102118Y141170D01*
X102238Y140570D01*
X102598Y140195D01*
X103018Y139970D01*
X104518D01*
G01X103018D02*
X102118Y137795D01*
G01X98278D02*
Y142295D01*
X100498Y139070D01*
X97498D01*
G01X94678Y137795D02*
Y142295D01*
X95398Y141395D01*
G01Y137795D02*
X93958D01*
G01X90398Y143374D02*
X85339D01*
G01X90398Y136153D02*
Y143374D01*
G01Y136153D02*
X85339D01*
G01X81591Y143374D02*
X76531D01*
G01Y136153D02*
Y143374D01*
G01X81591Y136153D02*
X76531D01*
G01X90596Y174423D02*
G02X91196Y173823I0J-600D01*
G01Y167908D02*
G02X90596Y167308I-600J0D01*
G01X75735Y173823D02*
G02X76335Y174423I600J0D01*
G01Y167308D02*
G02X75735Y167908I0J600D01*
G01X91196D02*
Y173823D01*
G01X90596Y167308D02*
X85044D01*
G01X90596Y174423D02*
X85044D01*
G01X75735Y167908D02*
Y173823D01*
G01X81885Y167308D02*
X76335D01*
G01X81885Y174423D02*
X76335D01*
G01X104912Y176772D02*
Y181272D01*
X103412D01*
X102932Y181047D01*
X102632Y180747D01*
X102512Y180147D01*
X102632Y179547D01*
X102992Y179172D01*
X103412Y178947D01*
X104912D01*
G01X103412D02*
X102512Y176772D01*
G01X98672D02*
Y181272D01*
X100892Y178047D01*
X97892D01*
G01X95072Y181272D02*
X95552Y181122D01*
X95912Y180747D01*
X96152Y180297D01*
X96332Y179697D01*
X96392Y179022D01*
X96332Y178347D01*
X96152Y177747D01*
X95912Y177297D01*
X95552Y176922D01*
X95072Y176772D01*
X94592Y176922D01*
X94232Y177297D01*
X93992Y177747D01*
X93812Y178347D01*
X93752Y179022D01*
X93812Y179697D01*
X93992Y180297D01*
X94232Y180747D01*
X94592Y181122D01*
X95072Y181272D01*
G01X90398Y175523D02*
Y182744D01*
G01Y175523D02*
X85339D01*
G01X76531D02*
Y182744D01*
G01X81591Y175523D02*
X76531D01*
G01X90398Y182744D02*
X85339D01*
G01X81591D02*
X76531D01*
G01X87431Y290157D02*
Y294657D01*
X85931D01*
X85451Y294432D01*
X85151Y294132D01*
X85031Y293532D01*
X85151Y292932D01*
X85511Y292557D01*
X85931Y292332D01*
X87431D01*
G01X85931D02*
X85031Y290157D01*
G01X83051Y293907D02*
X82691Y294357D01*
X82271Y294582D01*
X81791Y294657D01*
X81191Y294507D01*
X80771Y294132D01*
X80651Y293682D01*
X80711Y293232D01*
X80951Y292857D01*
X82151Y292107D01*
X82691Y291582D01*
X83051Y290832D01*
X83171Y290157D01*
X80651D01*
G01X91098Y286546D02*
Y293767D01*
G01X96157Y286546D02*
X91098D01*
G01X111050Y311600D02*
X109850D01*
G01X110500Y312640D02*
Y310560D01*
G01X107400Y310720D02*
X107100Y310320D01*
X106750Y310080D01*
X106300Y310000D01*
X105850Y310160D01*
X105500Y310480D01*
X105250Y311040D01*
X105200Y311680D01*
X105300Y312320D01*
X105550Y312720D01*
X105900Y313040D01*
X106250Y313120D01*
X106600Y313040D01*
X107050Y312720D01*
X106900Y314800D01*
X105550D01*
G01X103350D02*
X102100Y310000D01*
X100850Y314800D01*
G01X99400Y308400D02*
X96400D01*
G01X93700Y310000D02*
X94100Y310080D01*
X94450Y310400D01*
X94750Y310880D01*
X94950Y311440D01*
X95050Y312080D01*
Y312720D01*
X94950Y313360D01*
X94750Y313920D01*
X94450Y314400D01*
X94100Y314720D01*
X93700Y314800D01*
X93300Y314720D01*
X92950Y314400D01*
X92650Y313920D01*
X92450Y313360D01*
X92350Y312720D01*
Y312080D01*
X92450Y311440D01*
X92650Y310880D01*
X92950Y310400D01*
X93300Y310080D01*
X93700Y310000D01*
G01X90650D02*
Y314800D01*
X88350Y310000D01*
Y314800D01*
G01X96157Y293767D02*
X91098D01*
G01X87551Y299606D02*
Y304106D01*
X86351D01*
X85871Y303881D01*
X85511Y303581D01*
X85211Y303131D01*
X84971Y302606D01*
X84911Y301856D01*
X84971Y301106D01*
X85211Y300581D01*
X85511Y300131D01*
X85871Y299831D01*
X86351Y299606D01*
X87551D01*
G01X81911D02*
Y304106D01*
X82631Y303206D01*
G01Y299606D02*
X81191D01*
G01X96157Y354397D02*
X91098D01*
G01Y347176D02*
Y354397D01*
G01X96157Y347176D02*
X91098D01*
G01X103851Y379921D02*
Y384421D01*
X102651D01*
X102171Y384196D01*
X101811Y383896D01*
X101511Y383446D01*
X101271Y382921D01*
X101211Y382171D01*
X101271Y381421D01*
X101511Y380896D01*
X101811Y380446D01*
X102171Y380146D01*
X102651Y379921D01*
X103851D01*
G01X98211D02*
Y384421D01*
X98931Y383521D01*
G01Y379921D02*
X97491D01*
G01X93891Y384421D02*
X94371Y384271D01*
X94731Y383896D01*
X94971Y383446D01*
X95151Y382846D01*
X95211Y382171D01*
X95151Y381496D01*
X94971Y380896D01*
X94731Y380446D01*
X94371Y380071D01*
X93891Y379921D01*
X93411Y380071D01*
X93051Y380446D01*
X92811Y380896D01*
X92631Y381496D01*
X92571Y382171D01*
X92631Y382846D01*
X92811Y383446D01*
X93051Y383896D01*
X93411Y384271D01*
X93891Y384421D01*
G01X99775Y94488D02*
Y96513D01*
X100975Y98988D01*
G01X98575D02*
X99775Y96513D01*
G01X95455Y94488D02*
Y98988D01*
X96175Y98088D01*
G01Y94488D02*
X94735D01*
G01X102786Y125385D02*
X103146Y125610D01*
X103566Y125760D01*
X104046D01*
X104586Y125535D01*
X105006Y125160D01*
X105306Y124710D01*
X105546Y123960D01*
X105606Y123285D01*
X105486Y122610D01*
X105306Y122160D01*
X104946Y121710D01*
X104526Y121410D01*
X104106Y121260D01*
X103686D01*
X103266Y121410D01*
X102906Y121635D01*
X102606Y121935D01*
G01X100926Y125010D02*
X100566Y125460D01*
X100146Y125685D01*
X99666Y125760D01*
X99066Y125610D01*
X98646Y125235D01*
X98526Y124785D01*
X98586Y124335D01*
X98826Y123960D01*
X100026Y123210D01*
X100566Y122685D01*
X100926Y121935D01*
X101046Y121260D01*
X98526D01*
G01X96486Y121785D02*
X96066Y121410D01*
X95586Y121260D01*
X95106Y121410D01*
X94686Y121860D01*
X94386Y122535D01*
X94266Y123210D01*
Y124035D01*
X94386Y124710D01*
X94686Y125310D01*
X95046Y125610D01*
X95466Y125760D01*
X95946Y125610D01*
X96306Y125310D01*
X96546Y124860D01*
X96666Y124260D01*
X96546Y123735D01*
X96246Y123210D01*
X95886Y122910D01*
X95466Y122835D01*
X94986Y122985D01*
X94626Y123360D01*
X94266Y124035D01*
G01X102786Y172629D02*
X103146Y172854D01*
X103566Y173004D01*
X104046D01*
X104586Y172779D01*
X105006Y172404D01*
X105306Y171954D01*
X105546Y171204D01*
X105606Y170529D01*
X105486Y169854D01*
X105306Y169404D01*
X104946Y168954D01*
X104526Y168654D01*
X104106Y168504D01*
X103686D01*
X103266Y168654D01*
X102906Y168879D01*
X102606Y169179D01*
G01X101106Y169404D02*
X100746Y168879D01*
X100266Y168579D01*
X99726Y168504D01*
X99246Y168579D01*
X98766Y168954D01*
X98466Y169404D01*
X98406Y169854D01*
X98526Y170379D01*
X98946Y170754D01*
X99366Y170904D01*
X99906D01*
G01X99366D02*
X99006Y171129D01*
X98706Y171504D01*
X98586Y171954D01*
X98706Y172404D01*
X99006Y172779D01*
X99546Y173004D01*
X100086Y172929D01*
X100626Y172629D01*
G01X96606Y172254D02*
X96246Y172704D01*
X95826Y172929D01*
X95346Y173004D01*
X94746Y172854D01*
X94326Y172479D01*
X94206Y172029D01*
X94266Y171579D01*
X94506Y171204D01*
X95706Y170454D01*
X96246Y169929D01*
X96606Y169179D01*
X96726Y168504D01*
X94206D01*
G01X104965Y286546D02*
Y293767D01*
G01Y286546D02*
X99906D01*
G01X118140Y290551D02*
Y295051D01*
X116640D01*
X116160Y294826D01*
X115860Y294526D01*
X115740Y293926D01*
X115860Y293326D01*
X116220Y292951D01*
X116640Y292726D01*
X118140D01*
G01X116640D02*
X115740Y290551D01*
G01X113940Y291451D02*
X113580Y290926D01*
X113100Y290626D01*
X112560Y290551D01*
X112080Y290626D01*
X111600Y291001D01*
X111300Y291451D01*
X111240Y291901D01*
X111360Y292426D01*
X111780Y292801D01*
X112200Y292951D01*
X112740D01*
G01X112200D02*
X111840Y293176D01*
X111540Y293551D01*
X111420Y294001D01*
X111540Y294451D01*
X111840Y294826D01*
X112380Y295051D01*
X112920Y294976D01*
X113460Y294676D01*
G01X141150Y311600D02*
X139850D01*
G01X137400Y310720D02*
X137100Y310320D01*
X136750Y310080D01*
X136300Y310000D01*
X135850Y310160D01*
X135500Y310480D01*
X135250Y311040D01*
X135200Y311680D01*
X135300Y312320D01*
X135550Y312720D01*
X135900Y313040D01*
X136250Y313120D01*
X136600Y313040D01*
X137050Y312720D01*
X136900Y314800D01*
X135550D01*
G01X133350D02*
X132100Y310000D01*
X130850Y314800D01*
G01X129400Y308400D02*
X126400D01*
G01X123700Y310000D02*
X124100Y310080D01*
X124450Y310400D01*
X124750Y310880D01*
X124950Y311440D01*
X125050Y312080D01*
Y312720D01*
X124950Y313360D01*
X124750Y313920D01*
X124450Y314400D01*
X124100Y314720D01*
X123700Y314800D01*
X123300Y314720D01*
X122950Y314400D01*
X122650Y313920D01*
X122450Y313360D01*
X122350Y312720D01*
Y312080D01*
X122450Y311440D01*
X122650Y310880D01*
X122950Y310400D01*
X123300Y310080D01*
X123700Y310000D01*
G01X120650D02*
Y314800D01*
X118350Y310000D01*
Y314800D01*
G01X104965Y293767D02*
X99906D01*
G01X117866Y299606D02*
Y304106D01*
X116666D01*
X116186Y303881D01*
X115826Y303581D01*
X115526Y303131D01*
X115286Y302606D01*
X115226Y301856D01*
X115286Y301106D01*
X115526Y300581D01*
X115826Y300131D01*
X116186Y299831D01*
X116666Y299606D01*
X117866D01*
G01X113366Y303356D02*
X113006Y303806D01*
X112586Y304031D01*
X112106Y304106D01*
X111506Y303956D01*
X111086Y303581D01*
X110966Y303131D01*
X111026Y302681D01*
X111266Y302306D01*
X112466Y301556D01*
X113006Y301031D01*
X113366Y300281D01*
X113486Y299606D01*
X110966D01*
G01X111683Y334046D02*
X112043Y334271D01*
X112463Y334421D01*
X112943D01*
X113483Y334196D01*
X113903Y333821D01*
X114203Y333371D01*
X114443Y332621D01*
X114503Y331946D01*
X114383Y331271D01*
X114203Y330821D01*
X113843Y330371D01*
X113423Y330071D01*
X113003Y329921D01*
X112583D01*
X112163Y330071D01*
X111803Y330296D01*
X111503Y330596D01*
G01X108683Y329921D02*
Y334421D01*
X109403Y333521D01*
G01Y329921D02*
X107963D01*
G01X104363D02*
X103943Y329996D01*
X103463Y330221D01*
X103163Y330596D01*
X103043Y331121D01*
X103163Y331646D01*
X103523Y332096D01*
X104063Y332321D01*
X104663D01*
X105023Y332471D01*
X105323Y332846D01*
X105443Y333371D01*
X105263Y333896D01*
X104843Y334271D01*
X104363Y334421D01*
X103883Y334271D01*
X103463Y333896D01*
X103283Y333371D01*
X103403Y332846D01*
X103703Y332471D01*
X104063Y332321D01*
X104663D01*
X105203Y332096D01*
X105563Y331646D01*
X105683Y331121D01*
X105563Y330596D01*
X105263Y330221D01*
X104783Y329996D01*
X104363Y329921D01*
G01X117467Y335241D02*
G02X118067Y335841I600J0D01*
G01Y328726D02*
G02X117467Y329326I0J600D01*
G01D02*
Y335241D01*
G01X123618Y328726D02*
X118067D01*
G01X123618Y335841D02*
X118067D01*
G01X111683Y324991D02*
X112043Y325216D01*
X112463Y325366D01*
X112943D01*
X113483Y325141D01*
X113903Y324766D01*
X114203Y324316D01*
X114443Y323566D01*
X114503Y322891D01*
X114383Y322216D01*
X114203Y321766D01*
X113843Y321316D01*
X113423Y321016D01*
X113003Y320866D01*
X112583D01*
X112163Y321016D01*
X111803Y321241D01*
X111503Y321541D01*
G01X108683Y320866D02*
Y325366D01*
X109403Y324466D01*
G01Y320866D02*
X107963D01*
G01X105383Y321391D02*
X104963Y321016D01*
X104483Y320866D01*
X104003Y321016D01*
X103583Y321466D01*
X103283Y322141D01*
X103163Y322816D01*
Y323641D01*
X103283Y324316D01*
X103583Y324916D01*
X103943Y325216D01*
X104363Y325366D01*
X104843Y325216D01*
X105203Y324916D01*
X105443Y324466D01*
X105563Y323866D01*
X105443Y323341D01*
X105143Y322816D01*
X104783Y322516D01*
X104363Y322441D01*
X103883Y322591D01*
X103523Y322966D01*
X103163Y323641D01*
G01X117467Y326185D02*
G02X118067Y326785I600J0D01*
G01Y319670D02*
G02X117467Y320270I0J600D01*
G01D02*
Y326185D01*
G01X123618Y319670D02*
X118067D01*
G01X123618Y326785D02*
X118067D01*
G01X114203Y338976D02*
Y343476D01*
X112703D01*
X112223Y343251D01*
X111923Y342951D01*
X111803Y342351D01*
X111923Y341751D01*
X112283Y341376D01*
X112703Y341151D01*
X114203D01*
G01X112703D02*
X111803Y338976D01*
G01X110003Y339876D02*
X109643Y339351D01*
X109163Y339051D01*
X108623Y338976D01*
X108143Y339051D01*
X107663Y339426D01*
X107363Y339876D01*
X107303Y340326D01*
X107423Y340851D01*
X107843Y341226D01*
X108263Y341376D01*
X108803D01*
G01X108263D02*
X107903Y341601D01*
X107603Y341976D01*
X107483Y342426D01*
X107603Y342876D01*
X107903Y343251D01*
X108443Y343476D01*
X108983Y343401D01*
X109523Y343101D01*
G01X105503Y342726D02*
X105143Y343176D01*
X104723Y343401D01*
X104243Y343476D01*
X103643Y343326D01*
X103223Y342951D01*
X103103Y342501D01*
X103163Y342051D01*
X103403Y341676D01*
X104603Y340926D01*
X105143Y340401D01*
X105503Y339651D01*
X105623Y338976D01*
X103103D01*
G01X123323Y344948D02*
X118264D01*
G01Y337728D02*
Y344948D01*
G01X123323Y337728D02*
X118264D01*
G01X149450Y364800D02*
X147550D01*
X149450Y360000D01*
X147550D01*
G01X144300Y363200D02*
Y360000D01*
G01Y364480D02*
X144400Y364560D01*
Y364720D01*
X144300Y364800D01*
X144200Y364720D01*
Y364560D01*
X144300Y364480D01*
G01X140800Y358800D02*
X140450Y358480D01*
X140050Y358400D01*
X139700Y358480D01*
X139400Y358880D01*
X139200Y359440D01*
Y363200D01*
G01Y362560D02*
X139400Y362880D01*
X139700Y363120D01*
X140050Y363200D01*
X140450Y363040D01*
X140700Y362720D01*
X140900Y362160D01*
X141000Y361600D01*
X140950Y361120D01*
X140750Y360560D01*
X140450Y360160D01*
X140050Y360000D01*
X139750Y360080D01*
X139400Y360400D01*
X139200Y360720D01*
G01X135500Y362560D02*
X135300Y362800D01*
X135150Y363200D01*
X135050Y363760D01*
X135150Y364240D01*
X135350Y364560D01*
X135700Y364800D01*
X137050D01*
Y360000D01*
X135400D01*
X135050Y360320D01*
X134850Y360800D01*
X134750Y361360D01*
X134850Y361920D01*
X135150Y362400D01*
X135500Y362560D01*
X137050D01*
G01X132450Y362160D02*
X130850D01*
X131000Y362720D01*
X131250Y363040D01*
X131600Y363200D01*
X131950Y363120D01*
X132250Y362880D01*
X132450Y362320D01*
X132550Y361840D01*
Y361360D01*
X132450Y360880D01*
X132200Y360400D01*
X131900Y360080D01*
X131550Y360000D01*
X131200Y360160D01*
X130850Y360640D01*
G01X128250Y362160D02*
X126650D01*
X126800Y362720D01*
X127050Y363040D01*
X127400Y363200D01*
X127750Y363120D01*
X128050Y362880D01*
X128250Y362320D01*
X128350Y361840D01*
Y361360D01*
X128250Y360880D01*
X128000Y360400D01*
X127700Y360080D01*
X127350Y360000D01*
X127000Y360160D01*
X126650Y360640D01*
G01X124800Y358400D02*
X121800D01*
G01X118000Y364400D02*
X118300Y364640D01*
X118650Y364800D01*
X119050D01*
X119500Y364560D01*
X119850Y364160D01*
X120100Y363680D01*
X120300Y362880D01*
X120350Y362160D01*
X120250Y361440D01*
X120100Y360960D01*
X119800Y360480D01*
X119450Y360160D01*
X119100Y360000D01*
X118750D01*
X118400Y360160D01*
X118100Y360400D01*
X117850Y360720D01*
G01X116200Y360000D02*
Y364800D01*
X114900Y360800D01*
X113600Y364800D01*
Y360000D01*
G01X111800D02*
Y364800D01*
X110800D01*
X110400Y364560D01*
X110100Y364240D01*
X109850Y363760D01*
X109650Y363200D01*
X109600Y362400D01*
X109650Y361600D01*
X109850Y361040D01*
X110100Y360560D01*
X110400Y360240D01*
X110800Y360000D01*
X111800D01*
G01X119479Y348425D02*
Y352925D01*
X117979D01*
X117499Y352700D01*
X117199Y352400D01*
X117079Y351800D01*
X117199Y351200D01*
X117559Y350825D01*
X117979Y350600D01*
X119479D01*
G01X117979D02*
X117079Y348425D01*
G01X115279Y349325D02*
X114919Y348800D01*
X114439Y348500D01*
X113899Y348425D01*
X113419Y348500D01*
X112939Y348875D01*
X112639Y349325D01*
X112579Y349775D01*
X112699Y350300D01*
X113119Y350675D01*
X113539Y350825D01*
X114079D01*
G01X113539D02*
X113179Y351050D01*
X112879Y351425D01*
X112759Y351875D01*
X112879Y352325D01*
X113179Y352700D01*
X113719Y352925D01*
X114259Y352850D01*
X114799Y352550D01*
G01X110959Y349325D02*
X110599Y348800D01*
X110119Y348500D01*
X109579Y348425D01*
X109099Y348500D01*
X108619Y348875D01*
X108319Y349325D01*
X108259Y349775D01*
X108379Y350300D01*
X108799Y350675D01*
X109219Y350825D01*
X109759D01*
G01X109219D02*
X108859Y351050D01*
X108559Y351425D01*
X108439Y351875D01*
X108559Y352325D01*
X108859Y352700D01*
X109399Y352925D01*
X109939Y352850D01*
X110479Y352550D01*
G01X104965Y354397D02*
X99906D01*
G01X104965Y347176D02*
Y354397D01*
G01Y347176D02*
X99906D01*
G01X130229Y379921D02*
Y384421D01*
X129029D01*
X128549Y384196D01*
X128189Y383896D01*
X127889Y383446D01*
X127649Y382921D01*
X127589Y382171D01*
X127649Y381421D01*
X127889Y380896D01*
X128189Y380446D01*
X128549Y380146D01*
X129029Y379921D01*
X130229D01*
G01X124589D02*
Y384421D01*
X125309Y383521D01*
G01Y379921D02*
X123869D01*
G01X120269D02*
Y384421D01*
X120989Y383521D01*
G01Y379921D02*
X119549D01*
G01X139235Y108934D02*
X135706D01*
G01D02*
Y112463D01*
G01X134976Y158437D02*
Y155212D01*
X134736Y154537D01*
X134256Y154087D01*
X133656Y153937D01*
X133056Y154087D01*
X132576Y154537D01*
X132336Y155212D01*
Y158437D01*
G01X130656Y154612D02*
X130296Y154237D01*
X129876Y154012D01*
X129336Y153937D01*
X128796Y154087D01*
X128376Y154387D01*
X128076Y154912D01*
X128016Y155512D01*
X128136Y156112D01*
X128436Y156487D01*
X128856Y156787D01*
X129276Y156862D01*
X129696Y156787D01*
X130236Y156487D01*
X130056Y158437D01*
X128436D01*
G01X135706Y145805D02*
Y149334D01*
G01D02*
X139235D01*
G01X151998Y293889D02*
X152358Y294114D01*
X152778Y294264D01*
X153258D01*
X153798Y294039D01*
X154218Y293664D01*
X154518Y293214D01*
X154758Y292464D01*
X154818Y291789D01*
X154698Y291114D01*
X154518Y290664D01*
X154158Y290214D01*
X153738Y289914D01*
X153318Y289764D01*
X152898D01*
X152478Y289914D01*
X152118Y290139D01*
X151818Y290439D01*
G01X150318Y290664D02*
X149958Y290139D01*
X149478Y289839D01*
X148938Y289764D01*
X148458Y289839D01*
X147978Y290214D01*
X147678Y290664D01*
X147618Y291114D01*
X147738Y291639D01*
X148158Y292014D01*
X148578Y292164D01*
X149118D01*
G01X148578D02*
X148218Y292389D01*
X147918Y292764D01*
X147798Y293214D01*
X147918Y293664D01*
X148218Y294039D01*
X148758Y294264D01*
X149298Y294189D01*
X149838Y293889D01*
G01X144678Y289764D02*
Y294264D01*
X145398Y293364D01*
G01Y289764D02*
X143958D01*
G01X135674Y286940D02*
Y294161D01*
G01Y286940D02*
X130615D01*
G01X121807D02*
Y294161D01*
G01X126866Y286940D02*
X121807D01*
G01X155366Y282096D02*
X154886Y281721D01*
X154346Y281496D01*
X153866D01*
X153386Y281721D01*
X153026Y282096D01*
X152846Y282621D01*
X152966Y283146D01*
X153266Y283596D01*
X153806Y283896D01*
X154526Y284046D01*
X154946Y284346D01*
X155126Y284871D01*
X155006Y285396D01*
X154706Y285771D01*
X154286Y285996D01*
X153866D01*
X153446Y285846D01*
X153086Y285471D01*
G01X151586Y285996D02*
X150746Y281496D01*
X149786Y285996D01*
X148826Y281496D01*
X147986Y285996D01*
G01X146786Y282171D02*
X146426Y281796D01*
X146006Y281571D01*
X145466Y281496D01*
X144926Y281646D01*
X144506Y281946D01*
X144206Y282471D01*
X144146Y283071D01*
X144266Y283671D01*
X144566Y284046D01*
X144986Y284346D01*
X145406Y284421D01*
X145826Y284346D01*
X146366Y284046D01*
X146186Y285996D01*
X144566D01*
G01X135674Y294161D02*
X130615D01*
G01X126866D02*
X121807D01*
G01X132328Y335841D02*
G02X132928Y335241I0J-600D01*
G01Y329326D02*
G02X132328Y328726I-600J0D01*
G01X132928Y329326D02*
Y335241D01*
G01X132328Y328726D02*
X126777D01*
G01X132328Y335841D02*
X126777D01*
G01X132328Y326785D02*
G02X132928Y326185I0J-600D01*
G01Y320270D02*
G02X132328Y319670I-600J0D01*
G01X132928Y320270D02*
Y326185D01*
G01X132328Y319670D02*
X126777D01*
G01X132328Y326785D02*
X126777D01*
G01X150817Y337196D02*
X151177Y337421D01*
X151597Y337571D01*
X152077D01*
X152617Y337346D01*
X153037Y336971D01*
X153337Y336521D01*
X153577Y335771D01*
X153637Y335096D01*
X153517Y334421D01*
X153337Y333971D01*
X152977Y333521D01*
X152557Y333221D01*
X152137Y333071D01*
X151717D01*
X151297Y333221D01*
X150937Y333446D01*
X150637Y333746D01*
G01X147817Y333071D02*
Y337571D01*
X148537Y336671D01*
G01Y333071D02*
X147097D01*
G01X143617D02*
X143497Y334046D01*
X143317Y334871D01*
X143077Y335621D01*
X142777Y336446D01*
X142297Y337571D01*
X144697D01*
G01X132131Y344948D02*
X127072D01*
G01X132131Y337728D02*
Y344948D01*
G01Y337728D02*
X127072D01*
G01X154184Y325403D02*
X153704Y325028D01*
X153164Y324803D01*
X152684D01*
X152204Y325028D01*
X151844Y325403D01*
X151664Y325928D01*
X151784Y326453D01*
X152084Y326903D01*
X152624Y327203D01*
X153344Y327353D01*
X153764Y327653D01*
X153944Y328178D01*
X153824Y328703D01*
X153524Y329078D01*
X153104Y329303D01*
X152684D01*
X152264Y329153D01*
X151904Y328778D01*
G01X150404Y329303D02*
X149564Y324803D01*
X148604Y329303D01*
X147644Y324803D01*
X146804Y329303D01*
G01X143564Y324803D02*
Y329303D01*
X145784Y326078D01*
X142784D01*
G01X152610Y368710D02*
X152130Y368335D01*
X151590Y368110D01*
X151110D01*
X150630Y368335D01*
X150270Y368710D01*
X150090Y369235D01*
X150210Y369760D01*
X150510Y370210D01*
X151050Y370510D01*
X151770Y370660D01*
X152190Y370960D01*
X152370Y371485D01*
X152250Y372010D01*
X151950Y372385D01*
X151530Y372610D01*
X151110D01*
X150690Y372460D01*
X150330Y372085D01*
G01X148830Y372610D02*
X147990Y368110D01*
X147030Y372610D01*
X146070Y368110D01*
X145230Y372610D01*
G01X144030Y369010D02*
X143670Y368485D01*
X143190Y368185D01*
X142650Y368110D01*
X142170Y368185D01*
X141690Y368560D01*
X141390Y369010D01*
X141330Y369460D01*
X141450Y369985D01*
X141870Y370360D01*
X142290Y370510D01*
X142830D01*
G01X142290D02*
X141930Y370735D01*
X141630Y371110D01*
X141510Y371560D01*
X141630Y372010D01*
X141930Y372385D01*
X142470Y372610D01*
X143010Y372535D01*
X143550Y372235D01*
G01X150030Y380897D02*
X150390Y381122D01*
X150810Y381272D01*
X151290D01*
X151830Y381047D01*
X152250Y380672D01*
X152550Y380222D01*
X152790Y379472D01*
X152850Y378797D01*
X152730Y378122D01*
X152550Y377672D01*
X152190Y377222D01*
X151770Y376922D01*
X151350Y376772D01*
X150930D01*
X150510Y376922D01*
X150150Y377147D01*
X149850Y377447D01*
G01X147030Y376772D02*
Y381272D01*
X147750Y380372D01*
G01Y376772D02*
X146310D01*
G01X143850Y378647D02*
X143430Y379172D01*
X143070Y379472D01*
X142590Y379622D01*
X142170Y379472D01*
X141870Y379172D01*
X141630Y378722D01*
X141570Y378197D01*
X141630Y377747D01*
X141870Y377297D01*
X142230Y376922D01*
X142650Y376772D01*
X143130Y376922D01*
X143550Y377372D01*
X143790Y378047D01*
X143850Y378797D01*
X143730Y379772D01*
X143550Y380297D01*
X143250Y380822D01*
X142830Y381197D01*
X142410Y381272D01*
X141990Y381122D01*
X141690Y380747D01*
G01X176106Y108934D02*
X172576D01*
G01Y149334D02*
X176106D01*
G01X189800Y258000D02*
Y262800D01*
X188500Y258800D01*
X187200Y262800D01*
Y258000D01*
G01X183200Y262400D02*
X183500Y262640D01*
X183850Y262800D01*
X184250D01*
X184700Y262560D01*
X185050Y262160D01*
X185300Y261680D01*
X185500Y260880D01*
X185550Y260160D01*
X185450Y259440D01*
X185300Y258960D01*
X185000Y258480D01*
X184650Y258160D01*
X184300Y258000D01*
X183950D01*
X183600Y258160D01*
X183300Y258400D01*
X183050Y258720D01*
G01X181200Y262800D02*
Y259360D01*
X181000Y258640D01*
X180600Y258160D01*
X180100Y258000D01*
X179600Y258160D01*
X179200Y258640D01*
X179000Y259360D01*
Y262800D01*
G01X177400Y256400D02*
X174400D01*
G01X172850Y258000D02*
Y262800D01*
X170550Y258000D01*
Y262800D01*
G01X168500Y258000D02*
Y262800D01*
X167250D01*
X166850Y262560D01*
X166600Y262240D01*
X166500Y261600D01*
X166600Y260960D01*
X166900Y260560D01*
X167250Y260320D01*
X168500D01*
G01X167250D02*
X166500Y258000D01*
G01X164350Y258640D02*
X163950Y258240D01*
X163500Y258000D01*
X163100D01*
X162700Y258240D01*
X162400Y258640D01*
X162250Y259200D01*
X162350Y259760D01*
X162600Y260240D01*
X163050Y260560D01*
X163650Y260720D01*
X164000Y261040D01*
X164150Y261600D01*
X164050Y262160D01*
X163800Y262560D01*
X163450Y262800D01*
X163100D01*
X162750Y262640D01*
X162450Y262240D01*
G01X159100Y262800D02*
Y258000D01*
G01X160250Y262800D02*
X157950D01*
G01X173085Y288381D02*
G02X172485Y287781I-600J0D01*
G01X158224D02*
G02X157624Y288381I0J600D01*
G01X173085D02*
Y294296D01*
G01X172485Y287781D02*
X166934D01*
G01X157624Y288381D02*
Y294296D01*
G01X163775Y287781D02*
X158224D01*
G01X191450Y306800D02*
X189550D01*
X191450Y302000D01*
X189550D01*
G01X186300Y305200D02*
Y302000D01*
G01Y306480D02*
X186400Y306560D01*
Y306720D01*
X186300Y306800D01*
X186200Y306720D01*
Y306560D01*
X186300Y306480D01*
G01X182800Y300800D02*
X182450Y300480D01*
X182050Y300400D01*
X181700Y300480D01*
X181400Y300880D01*
X181200Y301440D01*
Y305200D01*
G01Y304560D02*
X181400Y304880D01*
X181700Y305120D01*
X182050Y305200D01*
X182450Y305040D01*
X182700Y304720D01*
X182900Y304160D01*
X183000Y303600D01*
X182950Y303120D01*
X182750Y302560D01*
X182450Y302160D01*
X182050Y302000D01*
X181750Y302080D01*
X181400Y302400D01*
X181200Y302720D01*
G01X177500Y304560D02*
X177300Y304800D01*
X177150Y305200D01*
X177050Y305760D01*
X177150Y306240D01*
X177350Y306560D01*
X177700Y306800D01*
X179050D01*
Y302000D01*
X177400D01*
X177050Y302320D01*
X176850Y302800D01*
X176750Y303360D01*
X176850Y303920D01*
X177150Y304400D01*
X177500Y304560D01*
X179050D01*
G01X174450Y304160D02*
X172850D01*
X173000Y304720D01*
X173250Y305040D01*
X173600Y305200D01*
X173950Y305120D01*
X174250Y304880D01*
X174450Y304320D01*
X174550Y303840D01*
Y303360D01*
X174450Y302880D01*
X174200Y302400D01*
X173900Y302080D01*
X173550Y302000D01*
X173200Y302160D01*
X172850Y302640D01*
G01X170250Y304160D02*
X168650D01*
X168800Y304720D01*
X169050Y305040D01*
X169400Y305200D01*
X169750Y305120D01*
X170050Y304880D01*
X170250Y304320D01*
X170350Y303840D01*
Y303360D01*
X170250Y302880D01*
X170000Y302400D01*
X169700Y302080D01*
X169350Y302000D01*
X169000Y302160D01*
X168650Y302640D01*
G01X166800Y300400D02*
X163800D01*
G01X162600Y306800D02*
X161900Y302000D01*
X161100Y306800D01*
X160300Y302000D01*
X159600Y306800D01*
G01X158000Y302000D02*
Y306800D01*
G01X156100D02*
X158000Y303840D01*
G01X155800Y302000D02*
X157150Y305200D01*
G01X172485Y294896D02*
G02X173085Y294296I0J-600D01*
G01X157624D02*
G02X158224Y294896I600J0D01*
G01X172485D02*
X166934D01*
G01X163775D02*
X158224D01*
G01X191450Y349800D02*
X189550D01*
X191450Y345000D01*
X189550D01*
G01X186300Y348200D02*
Y345000D01*
G01Y349480D02*
X186400Y349560D01*
Y349720D01*
X186300Y349800D01*
X186200Y349720D01*
Y349560D01*
X186300Y349480D01*
G01X182800Y343800D02*
X182450Y343480D01*
X182050Y343400D01*
X181700Y343480D01*
X181400Y343880D01*
X181200Y344440D01*
Y348200D01*
G01Y347560D02*
X181400Y347880D01*
X181700Y348120D01*
X182050Y348200D01*
X182450Y348040D01*
X182700Y347720D01*
X182900Y347160D01*
X183000Y346600D01*
X182950Y346120D01*
X182750Y345560D01*
X182450Y345160D01*
X182050Y345000D01*
X181750Y345080D01*
X181400Y345400D01*
X181200Y345720D01*
G01X177500Y347560D02*
X177300Y347800D01*
X177150Y348200D01*
X177050Y348760D01*
X177150Y349240D01*
X177350Y349560D01*
X177700Y349800D01*
X179050D01*
Y345000D01*
X177400D01*
X177050Y345320D01*
X176850Y345800D01*
X176750Y346360D01*
X176850Y346920D01*
X177150Y347400D01*
X177500Y347560D01*
X179050D01*
G01X174450Y347160D02*
X172850D01*
X173000Y347720D01*
X173250Y348040D01*
X173600Y348200D01*
X173950Y348120D01*
X174250Y347880D01*
X174450Y347320D01*
X174550Y346840D01*
Y346360D01*
X174450Y345880D01*
X174200Y345400D01*
X173900Y345080D01*
X173550Y345000D01*
X173200Y345160D01*
X172850Y345640D01*
G01X170250Y347160D02*
X168650D01*
X168800Y347720D01*
X169050Y348040D01*
X169400Y348200D01*
X169750Y348120D01*
X170050Y347880D01*
X170250Y347320D01*
X170350Y346840D01*
Y346360D01*
X170250Y345880D01*
X170000Y345400D01*
X169700Y345080D01*
X169350Y345000D01*
X169000Y345160D01*
X168650Y345640D01*
G01X166800Y343400D02*
X163800D01*
G01X162100Y345000D02*
Y349800D01*
X160850D01*
X160450Y349560D01*
X160200Y349240D01*
X160100Y348600D01*
X160200Y347960D01*
X160500Y347560D01*
X160850Y347320D01*
X162100D01*
G01X160850D02*
X160100Y345000D01*
G01X157950Y345640D02*
X157550Y345240D01*
X157100Y345000D01*
X156700D01*
X156300Y345240D01*
X156000Y345640D01*
X155850Y346200D01*
X155950Y346760D01*
X156200Y347240D01*
X156650Y347560D01*
X157250Y347720D01*
X157600Y348040D01*
X157750Y348600D01*
X157650Y349160D01*
X157400Y349560D01*
X157050Y349800D01*
X156700D01*
X156350Y349640D01*
X156050Y349240D01*
G01X152700Y349800D02*
Y345000D01*
G01X153850Y349800D02*
X151550D01*
G01X172485Y338596D02*
G02X173085Y337996I0J-600D01*
G01Y332081D02*
G02X172485Y331481I-600J0D01*
G01X157624Y337996D02*
G02X158224Y338596I600J0D01*
G01Y331481D02*
G02X157624Y332081I0J600D01*
G01X173085D02*
Y337996D01*
G01X172485Y331481D02*
X166934D01*
G01X172485Y338596D02*
X166934D01*
G01X157624Y332081D02*
Y337996D01*
G01X163775Y331481D02*
X158224D01*
G01X163775Y338596D02*
X158224D01*
G01X172485Y381904D02*
G02X173085Y381304I0J-600D01*
G01Y375389D02*
G02X172485Y374789I-600J0D01*
G01X157624Y381304D02*
G02X158224Y381904I600J0D01*
G01Y374789D02*
G02X157624Y375389I0J600D01*
G01X173085D02*
Y381304D01*
G01X172485Y374789D02*
X166934D01*
G01X172485Y381904D02*
X166934D01*
G01X157624Y375389D02*
Y381304D01*
G01X163775Y374789D02*
X158224D01*
G01X163775Y381904D02*
X158224D01*
G01X176106Y112463D02*
Y108934D01*
G01Y149334D02*
Y145805D01*
G01X183178Y143898D02*
G02I-300J0D01*
G01X204912Y284646D02*
Y289146D01*
X203412D01*
X202932Y288921D01*
X202632Y288621D01*
X202512Y288021D01*
X202632Y287421D01*
X202992Y287046D01*
X203412Y286821D01*
X204912D01*
G01X203412D02*
X202512Y284646D01*
G01X200712Y285546D02*
X200352Y285021D01*
X199872Y284721D01*
X199332Y284646D01*
X198852Y284721D01*
X198372Y285096D01*
X198072Y285546D01*
X198012Y285996D01*
X198132Y286521D01*
X198552Y286896D01*
X198972Y287046D01*
X199512D01*
G01X198972D02*
X198612Y287271D01*
X198312Y287646D01*
X198192Y288096D01*
X198312Y288546D01*
X198612Y288921D01*
X199152Y289146D01*
X199692Y289071D01*
X200232Y288771D01*
G01X195192Y284646D02*
X195072Y285621D01*
X194892Y286446D01*
X194652Y287196D01*
X194352Y288021D01*
X193872Y289146D01*
X196272D01*
G01X190398Y287728D02*
Y294948D01*
G01Y287728D02*
X185339D01*
G01X176531D02*
Y294948D01*
G01X181591Y287728D02*
X176531D01*
G01X190398Y294948D02*
X185339D01*
G01X181591D02*
X176531D01*
G01X204912Y333071D02*
Y337571D01*
X203412D01*
X202932Y337346D01*
X202632Y337046D01*
X202512Y336446D01*
X202632Y335846D01*
X202992Y335471D01*
X203412Y335246D01*
X204912D01*
G01X203412D02*
X202512Y333071D01*
G01X200712Y333971D02*
X200352Y333446D01*
X199872Y333146D01*
X199332Y333071D01*
X198852Y333146D01*
X198372Y333521D01*
X198072Y333971D01*
X198012Y334421D01*
X198132Y334946D01*
X198552Y335321D01*
X198972Y335471D01*
X199512D01*
G01X198972D02*
X198612Y335696D01*
X198312Y336071D01*
X198192Y336521D01*
X198312Y336971D01*
X198612Y337346D01*
X199152Y337571D01*
X199692Y337496D01*
X200232Y337196D01*
G01X194352Y333071D02*
Y337571D01*
X196572Y334346D01*
X193572D01*
G01X190398Y338649D02*
X185339D01*
G01X190398Y331428D02*
Y338649D01*
G01Y331428D02*
X185339D01*
G01X181591Y338649D02*
X176531D01*
G01Y331428D02*
Y338649D01*
G01X181591Y331428D02*
X176531D01*
G01X204912Y375984D02*
Y380484D01*
X203412D01*
X202932Y380259D01*
X202632Y379959D01*
X202512Y379359D01*
X202632Y378759D01*
X202992Y378384D01*
X203412Y378159D01*
X204912D01*
G01X203412D02*
X202512Y375984D01*
G01X200712Y376884D02*
X200352Y376359D01*
X199872Y376059D01*
X199332Y375984D01*
X198852Y376059D01*
X198372Y376434D01*
X198072Y376884D01*
X198012Y377334D01*
X198132Y377859D01*
X198552Y378234D01*
X198972Y378384D01*
X199512D01*
G01X198972D02*
X198612Y378609D01*
X198312Y378984D01*
X198192Y379434D01*
X198312Y379884D01*
X198612Y380259D01*
X199152Y380484D01*
X199692Y380409D01*
X200232Y380109D01*
G01X195072Y375984D02*
Y380484D01*
X195792Y379584D01*
G01Y375984D02*
X194352D01*
G01X190398Y381956D02*
X185339D01*
G01X190398Y374735D02*
Y381956D01*
G01Y374735D02*
X185339D01*
G01X181591Y381956D02*
X176531D01*
G01Y374735D02*
Y381956D01*
G01X181591Y374735D02*
X176531D01*
G01X236400Y28800D02*
Y29800D01*
X234960D01*
X234480Y29500D01*
X234160Y29150D01*
X234000Y28650D01*
X234160Y28150D01*
X234480Y27800D01*
X234960Y27500D01*
X235520Y27300D01*
X236160Y27200D01*
X236720D01*
X237200Y27300D01*
X237760Y27500D01*
X238240Y27800D01*
X238560Y28100D01*
X238800Y28500D01*
Y28850D01*
X238640Y29250D01*
X238320Y29550D01*
G01X234000Y31550D02*
X238800D01*
X234000Y33850D01*
X238800D01*
G01X234000Y35800D02*
X238800D01*
Y36800D01*
X238560Y37200D01*
X238240Y37500D01*
X237760Y37750D01*
X237200Y37950D01*
X236400Y38000D01*
X235600Y37950D01*
X235040Y37750D01*
X234560Y37500D01*
X234240Y37200D01*
X234000Y36800D01*
Y35800D01*
G01X244640Y19450D02*
X244240Y19850D01*
X244000Y20300D01*
Y20700D01*
X244240Y21100D01*
X244640Y21400D01*
X245200Y21550D01*
X245760Y21450D01*
X246240Y21200D01*
X246560Y20750D01*
X246720Y20150D01*
X247040Y19800D01*
X247600Y19650D01*
X248160Y19750D01*
X248560Y20000D01*
X248800Y20350D01*
Y20700D01*
X248640Y21050D01*
X248240Y21350D01*
G01X248800Y23200D02*
X244000Y23900D01*
X248800Y24700D01*
X244000Y25500D01*
X248800Y26200D01*
G01X244000Y27800D02*
X248800D01*
Y28800D01*
X248560Y29200D01*
X248240Y29500D01*
X247760Y29750D01*
X247200Y29950D01*
X246400Y30000D01*
X245600Y29950D01*
X245040Y29750D01*
X244560Y29500D01*
X244240Y29200D01*
X244000Y28800D01*
Y27800D01*
G01X248800Y32500D02*
Y33700D01*
G01Y33100D02*
X244000D01*
G01Y32500D02*
Y33700D01*
G01Y37300D02*
X244080Y36900D01*
X244400Y36550D01*
X244880Y36250D01*
X245440Y36050D01*
X246080Y35950D01*
X246720D01*
X247360Y36050D01*
X247920Y36250D01*
X248400Y36550D01*
X248720Y36900D01*
X248800Y37300D01*
X248720Y37700D01*
X248400Y38050D01*
X247920Y38350D01*
X247360Y38550D01*
X246720Y38650D01*
X246080D01*
X245440Y38550D01*
X244880Y38350D01*
X244400Y38050D01*
X244080Y37700D01*
X244000Y37300D01*
G01X254640Y19450D02*
X254240Y19850D01*
X254000Y20300D01*
Y20700D01*
X254240Y21100D01*
X254640Y21400D01*
X255200Y21550D01*
X255760Y21450D01*
X256240Y21200D01*
X256560Y20750D01*
X256720Y20150D01*
X257040Y19800D01*
X257600Y19650D01*
X258160Y19750D01*
X258560Y20000D01*
X258800Y20350D01*
Y20700D01*
X258640Y21050D01*
X258240Y21350D01*
G01X258800Y23200D02*
X254000Y23900D01*
X258800Y24700D01*
X254000Y25500D01*
X258800Y26200D01*
G01X258400Y30000D02*
X258640Y29700D01*
X258800Y29350D01*
Y28950D01*
X258560Y28500D01*
X258160Y28150D01*
X257680Y27900D01*
X256880Y27700D01*
X256160Y27650D01*
X255440Y27750D01*
X254960Y27900D01*
X254480Y28200D01*
X254160Y28550D01*
X254000Y28900D01*
Y29250D01*
X254160Y29600D01*
X254400Y29900D01*
X254720Y30150D01*
G01X258800Y32100D02*
X254000D01*
Y34100D01*
G01Y36200D02*
X258800D01*
G01Y38100D02*
X255840Y36200D01*
G01X254000Y38400D02*
X257200Y37050D01*
G01X254518Y55624D02*
X254218Y55174D01*
X253858Y54874D01*
X253438Y54724D01*
X252958Y54874D01*
X252598Y55174D01*
X252238Y55624D01*
X252118Y56224D01*
Y59224D01*
G01X250018Y55249D02*
X249598Y54874D01*
X249118Y54724D01*
X248638Y54874D01*
X248218Y55324D01*
X247918Y55999D01*
X247798Y56674D01*
Y57499D01*
X247918Y58174D01*
X248218Y58774D01*
X248578Y59074D01*
X248998Y59224D01*
X249478Y59074D01*
X249838Y58774D01*
X250078Y58324D01*
X250198Y57724D01*
X250078Y57199D01*
X249778Y56674D01*
X249418Y56374D01*
X248998Y56299D01*
X248518Y56449D01*
X248158Y56824D01*
X247798Y57499D01*
G01X238770Y69798D02*
X238470Y69348D01*
X238110Y69048D01*
X237690Y68898D01*
X237210Y69048D01*
X236850Y69348D01*
X236490Y69798D01*
X236370Y70398D01*
Y73398D01*
G01X233250Y68898D02*
X232830Y68973D01*
X232350Y69198D01*
X232050Y69573D01*
X231930Y70098D01*
X232050Y70623D01*
X232410Y71073D01*
X232950Y71298D01*
X233550D01*
X233910Y71448D01*
X234210Y71823D01*
X234330Y72348D01*
X234150Y72873D01*
X233730Y73248D01*
X233250Y73398D01*
X232770Y73248D01*
X232350Y72873D01*
X232170Y72348D01*
X232290Y71823D01*
X232590Y71448D01*
X232950Y71298D01*
X233550D01*
X234090Y71073D01*
X234450Y70623D01*
X234570Y70098D01*
X234450Y69573D01*
X234150Y69198D01*
X233670Y68973D01*
X233250Y68898D01*
G01X249128Y86315D02*
Y106599D01*
G01Y86315D02*
X261108D01*
G01X244796Y114343D02*
Y111118D01*
X244556Y110443D01*
X244076Y109993D01*
X243476Y109843D01*
X242876Y109993D01*
X242396Y110443D01*
X242156Y111118D01*
Y114343D01*
G01X240476Y110743D02*
X240116Y110218D01*
X239636Y109918D01*
X239096Y109843D01*
X238616Y109918D01*
X238136Y110293D01*
X237836Y110743D01*
X237776Y111193D01*
X237896Y111718D01*
X238316Y112093D01*
X238736Y112243D01*
X239276D01*
G01X238736D02*
X238376Y112468D01*
X238076Y112843D01*
X237956Y113293D01*
X238076Y113743D01*
X238376Y114118D01*
X238916Y114343D01*
X239456Y114268D01*
X239996Y113968D01*
G01X249128Y106599D02*
X261108D01*
G01X264000Y23350D02*
X268800D01*
X264000Y25650D01*
X268800D01*
G01X264000Y27700D02*
X268800D01*
Y28950D01*
X268560Y29350D01*
X268240Y29600D01*
X267600Y29700D01*
X266960Y29600D01*
X266560Y29300D01*
X266320Y28950D01*
Y27700D01*
G01Y28950D02*
X264000Y29700D01*
G01X264640Y31850D02*
X264240Y32250D01*
X264000Y32700D01*
Y33100D01*
X264240Y33500D01*
X264640Y33800D01*
X265200Y33950D01*
X265760Y33850D01*
X266240Y33600D01*
X266560Y33150D01*
X266720Y32550D01*
X267040Y32200D01*
X267600Y32050D01*
X268160Y32150D01*
X268560Y32400D01*
X268800Y32750D01*
Y33100D01*
X268640Y33450D01*
X268240Y33750D01*
G01X268800Y37100D02*
X264000D01*
G01X268800Y35950D02*
Y38250D01*
G01X310550Y76640D02*
X310150Y76240D01*
X309700Y76000D01*
X309300D01*
X308900Y76240D01*
X308600Y76640D01*
X308450Y77200D01*
X308550Y77760D01*
X308800Y78240D01*
X309250Y78560D01*
X309850Y78720D01*
X310200Y79040D01*
X310350Y79600D01*
X310250Y80160D01*
X310000Y80560D01*
X309650Y80800D01*
X309300D01*
X308950Y80640D01*
X308650Y80240D01*
G01X306300Y76000D02*
Y80800D01*
X305100D01*
X304700Y80560D01*
X304400Y80000D01*
X304300Y79360D01*
X304400Y78720D01*
X304650Y78240D01*
X305100Y78000D01*
X306300D01*
G01X300100Y76000D02*
X302100D01*
Y80800D01*
X300100D01*
G01X300900Y78480D02*
X302100D01*
G01X298150Y76000D02*
X296900Y80800D01*
X295650Y76000D01*
G01X296100Y77680D02*
X297700D01*
G01X293800Y76000D02*
Y80800D01*
G01X291900D02*
X293800Y77840D01*
G01X291600Y76000D02*
X292950Y79200D01*
G01X287500Y76000D02*
X289500D01*
Y80800D01*
X287500D01*
G01X288300Y78480D02*
X289500D01*
G01X285300Y76000D02*
Y80800D01*
X284050D01*
X283650Y80560D01*
X283400Y80240D01*
X283300Y79600D01*
X283400Y78960D01*
X283700Y78560D01*
X284050Y78320D01*
X285300D01*
G01X284050D02*
X283300Y76000D01*
G01X281600Y74400D02*
X278600D01*
G01X275900Y76000D02*
X276300Y76080D01*
X276650Y76400D01*
X276950Y76880D01*
X277150Y77440D01*
X277250Y78080D01*
Y78720D01*
X277150Y79360D01*
X276950Y79920D01*
X276650Y80400D01*
X276300Y80720D01*
X275900Y80800D01*
X275500Y80720D01*
X275150Y80400D01*
X274850Y79920D01*
X274650Y79360D01*
X274550Y78720D01*
Y78080D01*
X274650Y77440D01*
X274850Y76880D01*
X275150Y76400D01*
X275500Y76080D01*
X275900Y76000D01*
G01X272850D02*
Y80800D01*
X270550Y76000D01*
Y80800D01*
G01X279048Y87795D02*
Y92295D01*
X277848D01*
X277368Y92070D01*
X277008Y91770D01*
X276708Y91320D01*
X276468Y90795D01*
X276408Y90045D01*
X276468Y89295D01*
X276708Y88770D01*
X277008Y88320D01*
X277368Y88020D01*
X277848Y87795D01*
X279048D01*
G01X274428Y88320D02*
X274008Y87945D01*
X273528Y87795D01*
X273048Y87945D01*
X272628Y88395D01*
X272328Y89070D01*
X272208Y89745D01*
Y90570D01*
X272328Y91245D01*
X272628Y91845D01*
X272988Y92145D01*
X273408Y92295D01*
X273888Y92145D01*
X274248Y91845D01*
X274488Y91395D01*
X274608Y90795D01*
X274488Y90270D01*
X274188Y89745D01*
X273828Y89445D01*
X273408Y89370D01*
X272928Y89520D01*
X272568Y89895D01*
X272208Y90570D01*
G01X261108Y86315D02*
Y106599D01*
G01X297431Y110231D02*
X297393Y114731D01*
X295893Y114718D01*
X295415Y114489D01*
X295118Y114187D01*
X295003Y113586D01*
X295128Y112987D01*
X295491Y112615D01*
X295913Y112393D01*
X297413Y112406D01*
G01X295913Y112393D02*
X295031Y110211D01*
G01X293223Y111096D02*
X292868Y110568D01*
X292390Y110264D01*
X291851Y110184D01*
X291370Y110255D01*
X290887Y110626D01*
X290584Y111074D01*
X290520Y111523D01*
X290635Y112049D01*
X291052Y112428D01*
X291471Y112581D01*
X292011Y112586D01*
G01X291471Y112581D02*
X291109Y112803D01*
X290806Y113176D01*
X290682Y113625D01*
X290798Y114076D01*
X291095Y114453D01*
X291633Y114683D01*
X292174Y114612D01*
X292716Y114317D01*
G01X287553Y114649D02*
X288035Y114503D01*
X288398Y114131D01*
X288642Y113683D01*
X288827Y113084D01*
X288892Y112410D01*
X288838Y111734D01*
X288663Y111133D01*
X288427Y110681D01*
X288070Y110303D01*
X287591Y110149D01*
X287110Y110295D01*
X286747Y110667D01*
X286503Y111115D01*
X286318Y111713D01*
X286252Y112388D01*
X286307Y113063D01*
X286482Y113665D01*
X286718Y114117D01*
X287075Y114495D01*
X287553Y114649D01*
G01X281255Y99540D02*
X286314D01*
G01X281255Y106761D02*
Y99540D01*
G01Y106761D02*
X286314D01*
G01X290063Y99540D02*
X295122D01*
G01Y106761D02*
Y99540D01*
G01X290063Y106761D02*
X295122D01*
M02*
