G04 ================== begin FILE IDENTIFICATION RECORD ==================*
G04 Layout Name:  SHOWERTERMINAL.brd*
G04 Film Name:    Silkscreen_Top*
G04 File Format:  Gerber RS274X*
G04 File Origin:  Cadence Allegro 17.2-S079*
G04 Origin Date:  Thu May 05 21:00:59 2022*
G04 *
G04 Layer:  REF DES/SILKSCREEN_TOP*
G04 Layer:  PACKAGE GEOMETRY/SILKSCREEN_TOP*
G04 Layer:  BOARD GEOMETRY/SILKSCREEN_TOP*
G04 *
G04 Offset:    (0.00 0.00)*
G04 Mirror:    No*
G04 Mode:      Positive*
G04 Rotation:  0*
G04 FullContactRelief:  No*
G04 UndefLineWidth:     6.00*
G04 ================== end FILE IDENTIFICATION RECORD ====================*
%FSLAX25Y25*MOIN*%
%IR0*IPPOS*OFA0.00000B0.00000*MIA0B0*SFA1.00000B1.00000*%
%ADD10C,.01*%
%ADD11C,.01181*%
%ADD12C,.02362*%
%ADD13C,.006*%
%ADD14C,.00591*%
%ADD15C,.00394*%
%ADD16C,.00598*%
%ADD17C,.00787*%
G75*
%LPD*%
G75*
G36*
G01X35008Y307315D02*
Y312512D01*
X35788D01*
Y307315D01*
X35008D01*
G37*
G36*
G01X33839Y309524D02*
Y310303D01*
X36957D01*
Y309524D01*
X33839D01*
G37*
G36*
G01X12532D02*
Y310303D01*
X15650D01*
Y309524D01*
X12532D01*
G37*
G36*
G01X35008Y339205D02*
Y344402D01*
X35788D01*
Y339205D01*
X35008D01*
G37*
G36*
G01X33839Y341414D02*
Y342193D01*
X36957D01*
Y341414D01*
X33839D01*
G37*
G36*
G01X12532D02*
Y342193D01*
X15650D01*
Y341414D01*
X12532D01*
G37*
G54D10*
G01X7874Y275591D02*
Y236220D01*
G01X38189D02*
X7874D01*
G01Y257381D02*
X25886D01*
G01X7874Y254420D02*
X25886D01*
G01X7874Y247048D02*
X25886D01*
G01X7874Y275591D02*
X38189D01*
G01X7874Y264774D02*
X25886D01*
G01X38189Y241609D02*
Y236220D01*
G01Y261294D02*
Y260359D01*
G01Y251452D02*
Y250517D01*
G01X25886Y264774D02*
Y257381D01*
G01Y254420D02*
Y247048D01*
G01X38189Y275591D02*
Y270202D01*
G01X60029Y120866D02*
G03I-1761J0D01*
G01X45855D02*
G03I-1761J0D01*
G01X58268Y127953D02*
G03I-7087J0D01*
G01X39370Y123437D02*
Y132468D01*
G01X41716Y116142D02*
X60646D01*
G01X62992Y123437D02*
Y132468D01*
G01X45855Y135040D02*
G03I-1761J0D01*
G01X60029Y135039D02*
G03I-1761J0D01*
G01X41716Y139764D02*
X60646D01*
G01X58913Y252024D02*
Y279977D01*
G01Y252024D02*
X73086D01*
G01X58913Y279977D02*
X73086D01*
G01Y252024D02*
Y279977D01*
G01X141733Y310079D02*
X78741D01*
G01X141733Y387441D02*
X78741D01*
G01X116142Y45276D02*
G03I-9843J0D01*
G01X120079Y35433D02*
X124016D01*
G01X114173Y37402D02*
Y33465D01*
G01X112205Y35433D02*
X116142D01*
G01X127953Y29528D02*
G03I-9843J0D01*
G01X139764Y45276D02*
G03I-9843J0D01*
G01X108268Y51181D02*
X112205D01*
G01X102362Y53150D02*
Y49213D01*
G01X100394Y51181D02*
X104331D01*
G01X131890D02*
X135827D01*
G01X125984Y53150D02*
Y49213D01*
G01X124016Y51181D02*
X127953D01*
G01X123890Y188445D02*
G03X138998Y186503I8000J2500D01*
G01X139096Y195452D02*
G03X123764Y193437I-7206J-4507D01*
G01X127271Y187260D02*
G03X136412Y187142I4619J3685D01*
G01X136626Y194469D02*
G03X127378Y194752I-4736J-3524D01*
G01X139097Y194170D02*
Y195452D01*
G01X138998Y186503D02*
X139013Y187663D01*
G01X138541Y206989D02*
Y218012D01*
G01X134764Y206989D02*
Y218012D01*
G01Y206989D02*
X155237D01*
G01X134001Y207000D02*
X134764D01*
G01X134001D02*
Y218012D01*
G01X133501Y207000D02*
X134500D01*
G01X133501D02*
Y218012D01*
G01X134764D02*
X155237D01*
G01X134001D02*
X134764D01*
G01X133501D02*
X134001D01*
G01X175071Y188445D02*
G03X190179Y186503I8000J2500D01*
G01X190277Y195452D02*
G03X174945Y193437I-7206J-4507D01*
G01X155237Y206989D02*
Y218012D01*
G01X190780Y17448D02*
G03X202960Y17418I6103J5292D01*
G01X178452Y187260D02*
G03X187593Y187142I4619J3685D01*
G01X187807Y194469D02*
G03X178559Y194752I-4736J-3524D01*
G01X190278Y194170D02*
Y195452D01*
G01X190179Y186503D02*
X190194Y187663D01*
G01X196041Y206989D02*
Y218012D01*
G01X192264Y206989D02*
Y218012D01*
G01Y206989D02*
X212737D01*
G01X191501Y207000D02*
X192264D01*
G01X191501D02*
Y218012D01*
G01X191001Y207000D02*
X192000D01*
G01X191001D02*
Y218012D01*
G01X192264D02*
X212737D01*
G01X191501D02*
X192264D01*
G01X191001D02*
X191501D01*
G01X200787Y314174D02*
Y374017D01*
G01Y314174D02*
X275590D01*
G01X201689Y332594D02*
X204189D01*
G01X201689D02*
Y355594D01*
G01D02*
X204189D01*
G01X200787Y374017D02*
X275590D01*
G01X221181Y161063D02*
Y79095D01*
G01X230787D02*
X221181D01*
G01X230787Y161063D02*
Y79095D01*
G01Y161063D02*
X221181D01*
G01X212737Y206989D02*
Y218012D01*
G01X232165Y231141D02*
X222165D01*
G01D02*
Y272796D01*
G01X232165Y242061D02*
X222165D01*
G01X232165Y272796D02*
X222165D01*
G01X214801Y290551D02*
Y301575D01*
G01X211024Y290551D02*
Y301575D01*
G01Y290551D02*
X231497D01*
G01X210261Y290563D02*
X211024D01*
G01X210261D02*
Y301575D01*
G01X209761Y290563D02*
X210760D01*
G01X209761D02*
Y301575D01*
G01X211024D02*
X231497D01*
G01X210261D02*
X211024D01*
G01X209761D02*
X210261D01*
G01X205689Y332594D02*
Y340450D01*
G01X204189Y332594D02*
X205689D01*
G01X204189Y320094D02*
Y332094D01*
G01Y320094D02*
X212189D01*
G01X216189Y344094D02*
X250189D01*
G01X204189Y355594D02*
X205689D01*
G01Y347739D02*
Y355594D01*
G01X204189Y356094D02*
Y367594D01*
G01D02*
X212189D01*
G01X258454Y120866D02*
G03I-1761J0D01*
G01X270867Y127953D02*
G03I-7087J0D01*
G01X251969Y123437D02*
Y132468D01*
G01X254315Y116142D02*
X273244D01*
G01X258454Y135040D02*
G03I-1761J0D01*
G01X254315Y139764D02*
X273244D01*
G01X241179Y181890D02*
Y192913D01*
G01X237402Y181890D02*
Y192913D01*
G01Y181890D02*
X257875D01*
G01D02*
Y192913D01*
G01X237402D02*
X257875D01*
G01X236639Y181902D02*
X237402D01*
G01X236639D02*
Y192913D01*
G01D02*
X237402D01*
G01X236139Y181902D02*
X237138D01*
G01X236139D02*
Y192913D01*
G01D02*
X236639D01*
G01X232165Y231141D02*
Y272796D01*
G01X231497Y290551D02*
Y301575D01*
G01X254189Y344094D02*
X269189Y350594D01*
G01X250189Y344094D02*
X254189D01*
G01X272628Y120866D02*
G03I-1761J0D01*
G01X275591Y123437D02*
Y132468D01*
G01X272628Y135039D02*
G03I-1761J0D01*
G01X307087Y153543D02*
X276772D01*
G01D02*
Y158932D01*
G01Y167839D02*
Y168775D01*
G01Y177681D02*
Y178617D01*
G01X307087Y204724D02*
X276772D01*
G01D02*
Y210113D01*
G01Y192913D02*
X307087D01*
G01X276772Y187524D02*
Y192913D01*
G01Y219020D02*
Y219956D01*
G01Y228863D02*
Y229798D01*
G01Y244094D02*
X307087D01*
G01X276772Y238706D02*
Y244094D01*
G01X277099Y295276D02*
Y255906D01*
G01X283099Y295276D02*
Y255906D01*
G01X274803Y295276D02*
Y255906D01*
G01D02*
X307086D01*
G01X275590Y314174D02*
Y374017D01*
G01X274803Y295276D02*
X307086D01*
G01X277071Y297776D02*
Y295276D01*
G01Y297776D02*
X280445D01*
G01D02*
Y295276D01*
G01X266190Y327594D02*
Y337094D01*
G01X307087Y153543D02*
Y192913D01*
G01Y164360D02*
X289075D01*
G01D02*
Y171752D01*
G01X307087D02*
X289075D01*
G01X307087Y174713D02*
X289075D01*
G01D02*
Y182086D01*
G01X307087Y204724D02*
Y244094D01*
G01Y182086D02*
X289075D01*
G01X307087Y215541D02*
X289075D01*
G01D02*
Y222933D01*
G01X307087D02*
X289075D01*
G01X307087Y225894D02*
X289075D01*
G01D02*
Y233267D01*
G01X307087D02*
X289075D01*
G01X298699Y295276D02*
Y255906D01*
G01X307086Y295276D02*
Y255906D01*
G01X298945Y297776D02*
Y295276D01*
G01Y297776D02*
X302318D01*
G01D02*
Y295276D01*
G54D11*
G01X103495Y190089D02*
G03I-592J0D01*
G01X95621Y193000D02*
G03I-592J0D01*
G54D12*
G01X141900Y309378D02*
G03X141926I13J-1181D01*
G54D13*
G01X10450Y53640D02*
X10850Y53240D01*
X11300Y53000D01*
X11700D01*
X12100Y53240D01*
X12400Y53640D01*
X12550Y54200D01*
X12450Y54760D01*
X12200Y55240D01*
X11750Y55560D01*
X11150Y55720D01*
X10800Y56040D01*
X10650Y56600D01*
X10750Y57160D01*
X11000Y57560D01*
X11350Y57800D01*
X11700D01*
X12050Y57640D01*
X12350Y57240D01*
G01X14650Y53000D02*
Y57800D01*
G01X16750D02*
Y53000D01*
G01Y55400D02*
X14650D01*
G01X19900Y53000D02*
X19500Y53080D01*
X19150Y53400D01*
X18850Y53880D01*
X18650Y54440D01*
X18550Y55080D01*
Y55720D01*
X18650Y56360D01*
X18850Y56920D01*
X19150Y57400D01*
X19500Y57720D01*
X19900Y57800D01*
X20300Y57720D01*
X20650Y57400D01*
X20950Y56920D01*
X21150Y56360D01*
X21250Y55720D01*
Y55080D01*
X21150Y54440D01*
X20950Y53880D01*
X20650Y53400D01*
X20300Y53080D01*
X19900Y53000D01*
G01X22600Y57800D02*
X23300Y53000D01*
X24100Y57800D01*
X24900Y53000D01*
X25600Y57800D01*
G01X29300Y53000D02*
X27300D01*
Y57800D01*
X29300D01*
G01X28500Y55480D02*
X27300D01*
G01X31500Y53000D02*
Y57800D01*
X32750D01*
X33150Y57560D01*
X33400Y57240D01*
X33500Y56600D01*
X33400Y55960D01*
X33100Y55560D01*
X32750Y55320D01*
X31500D01*
G01X32750D02*
X33500Y53000D01*
G01X36700Y57800D02*
Y53000D01*
G01X35550Y57800D02*
X37850D01*
G01X41900Y53000D02*
X39900D01*
Y57800D01*
X41900D01*
G01X41100Y55480D02*
X39900D01*
G01X44100Y53000D02*
Y57800D01*
X45350D01*
X45750Y57560D01*
X46000Y57240D01*
X46100Y56600D01*
X46000Y55960D01*
X45700Y55560D01*
X45350Y55320D01*
X44100D01*
G01X45350D02*
X46100Y53000D01*
G01X48000D02*
Y57800D01*
X49300Y53800D01*
X50600Y57800D01*
Y53000D01*
G01X52900Y57800D02*
X54100D01*
G01X53500D02*
Y53000D01*
G01X52900D02*
X54100D01*
G01X56550D02*
Y57800D01*
X58850Y53000D01*
Y57800D01*
G01X60650Y53000D02*
X61900Y57800D01*
X63150Y53000D01*
G01X62700Y54680D02*
X61100D01*
G01X65100Y57800D02*
Y53000D01*
X67100D01*
G01X73250Y57800D02*
X74500Y53000D01*
X75750Y57800D01*
G01X78700Y53000D02*
Y57800D01*
X78100Y56840D01*
G01Y53000D02*
X79300D01*
G01X10550Y49900D02*
X10850Y50380D01*
X11200Y50620D01*
X11600Y50700D01*
X12100Y50540D01*
X12450Y50140D01*
X12550Y49660D01*
X12500Y49180D01*
X12300Y48780D01*
X11300Y47980D01*
X10850Y47420D01*
X10550Y46620D01*
X10450Y45900D01*
X12550D01*
G01X15700Y50700D02*
X15300Y50540D01*
X15000Y50140D01*
X14800Y49660D01*
X14650Y49020D01*
X14600Y48300D01*
X14650Y47580D01*
X14800Y46940D01*
X15000Y46460D01*
X15300Y46060D01*
X15700Y45900D01*
X16100Y46060D01*
X16400Y46460D01*
X16600Y46940D01*
X16750Y47580D01*
X16800Y48300D01*
X16750Y49020D01*
X16600Y49660D01*
X16400Y50140D01*
X16100Y50540D01*
X15700Y50700D01*
G01X18950Y49900D02*
X19250Y50380D01*
X19600Y50620D01*
X20000Y50700D01*
X20500Y50540D01*
X20850Y50140D01*
X20950Y49660D01*
X20900Y49180D01*
X20700Y48780D01*
X19700Y47980D01*
X19250Y47420D01*
X18950Y46620D01*
X18850Y45900D01*
X20950D01*
G01X23150Y49900D02*
X23450Y50380D01*
X23800Y50620D01*
X24200Y50700D01*
X24700Y50540D01*
X25050Y50140D01*
X25150Y49660D01*
X25100Y49180D01*
X24900Y48780D01*
X23900Y47980D01*
X23450Y47420D01*
X23150Y46620D01*
X23050Y45900D01*
X25150D01*
G01X28300Y50700D02*
X27900Y50540D01*
X27600Y50140D01*
X27400Y49660D01*
X27250Y49020D01*
X27200Y48300D01*
X27250Y47580D01*
X27400Y46940D01*
X27600Y46460D01*
X27900Y46060D01*
X28300Y45900D01*
X28700Y46060D01*
X29000Y46460D01*
X29200Y46940D01*
X29350Y47580D01*
X29400Y48300D01*
X29350Y49020D01*
X29200Y49660D01*
X29000Y50140D01*
X28700Y50540D01*
X28300Y50700D01*
G01X31400Y46620D02*
X31700Y46220D01*
X32050Y45980D01*
X32500Y45900D01*
X32950Y46060D01*
X33300Y46380D01*
X33550Y46940D01*
X33600Y47580D01*
X33500Y48220D01*
X33250Y48620D01*
X32900Y48940D01*
X32550Y49020D01*
X32200Y48940D01*
X31750Y48620D01*
X31900Y50700D01*
X33250D01*
G01X36700D02*
X36300Y50540D01*
X36000Y50140D01*
X35800Y49660D01*
X35650Y49020D01*
X35600Y48300D01*
X35650Y47580D01*
X35800Y46940D01*
X36000Y46460D01*
X36300Y46060D01*
X36700Y45900D01*
X37100Y46060D01*
X37400Y46460D01*
X37600Y46940D01*
X37750Y47580D01*
X37800Y48300D01*
X37750Y49020D01*
X37600Y49660D01*
X37400Y50140D01*
X37100Y50540D01*
X36700Y50700D01*
G01X41500Y45900D02*
Y50700D01*
X39650Y47260D01*
X42150D01*
G01X47800Y50700D02*
X48500Y45900D01*
X49300Y50700D01*
X50100Y45900D01*
X50800Y50700D01*
G01X52750Y48060D02*
X54350D01*
X54200Y48620D01*
X53950Y48940D01*
X53600Y49100D01*
X53250Y49020D01*
X52950Y48780D01*
X52750Y48220D01*
X52650Y47740D01*
Y47260D01*
X52750Y46780D01*
X53000Y46300D01*
X53300Y45980D01*
X53650Y45900D01*
X54000Y46060D01*
X54350Y46540D01*
G01X56950Y46460D02*
X57200Y46140D01*
X57550Y45900D01*
X57850D01*
X58150Y46060D01*
X58350Y46300D01*
X58450Y46620D01*
X58400Y47100D01*
X58200Y47340D01*
X57300Y47820D01*
X57100Y48380D01*
X57200Y48780D01*
X57400Y49020D01*
X57700Y49100D01*
X58000Y49020D01*
X58300Y48780D01*
G01X61900Y45740D02*
X61800Y45820D01*
Y45980D01*
X61900Y46060D01*
X62000Y45980D01*
Y45820D01*
X61900Y45740D01*
G01X35009Y98031D02*
Y102531D01*
X36509D01*
X36989Y102306D01*
X37289Y102006D01*
X37409Y101406D01*
X37289Y100806D01*
X36929Y100431D01*
X36509Y100206D01*
X35009D01*
G01X36509D02*
X37409Y98031D01*
G01X40409D02*
X40529Y99006D01*
X40709Y99831D01*
X40949Y100581D01*
X41249Y101406D01*
X41729Y102531D01*
X39329D01*
G01X17476Y94420D02*
Y101641D01*
G01Y94420D02*
X22535D01*
G01X31343D02*
Y101641D01*
G01X26283Y94420D02*
X31343D01*
G01X36209Y80315D02*
X35729Y80390D01*
X35309Y80690D01*
X34949Y81140D01*
X34709Y81665D01*
X34589Y82265D01*
Y82865D01*
X34709Y83465D01*
X34949Y83990D01*
X35309Y84440D01*
X35729Y84740D01*
X36209Y84815D01*
X36689Y84740D01*
X37109Y84440D01*
X37469Y83990D01*
X37709Y83465D01*
X37829Y82865D01*
Y82265D01*
X37709Y81665D01*
X37469Y81140D01*
X37109Y80690D01*
X36689Y80390D01*
X36209Y80315D01*
G01X36689Y81515D02*
X37409Y80315D01*
G01X40529D02*
Y84815D01*
X39809Y83915D01*
G01Y80315D02*
X41249D01*
G01X27858Y78522D02*
Y82108D01*
G01X20959Y74267D02*
Y78368D01*
G01Y74267D02*
X27858D01*
G01X20959Y82262D02*
Y86363D01*
G01D02*
X27858D01*
G01X17476Y101641D02*
X22535D01*
G01X26283D02*
X31343D01*
G01X31702Y188302D02*
X32002Y187852D01*
X32362Y187552D01*
X32782Y187402D01*
X33262Y187552D01*
X33622Y187852D01*
X33982Y188302D01*
X34102Y188902D01*
Y191902D01*
G01X37942Y187402D02*
Y191902D01*
X35722Y188677D01*
X38722D01*
G01X29498Y205512D02*
Y210012D01*
X30998D01*
X31478Y209787D01*
X31778Y209487D01*
X31898Y208887D01*
X31778Y208287D01*
X31418Y207912D01*
X30998Y207687D01*
X29498D01*
G01X30998D02*
X31898Y205512D01*
G01X33878Y209262D02*
X34238Y209712D01*
X34658Y209937D01*
X35138Y210012D01*
X35738Y209862D01*
X36158Y209487D01*
X36278Y209037D01*
X36218Y208587D01*
X35978Y208212D01*
X34778Y207462D01*
X34238Y206937D01*
X33878Y206187D01*
X33758Y205512D01*
X36278D01*
G01X39338Y210012D02*
X38858Y209862D01*
X38498Y209487D01*
X38258Y209037D01*
X38078Y208437D01*
X38018Y207762D01*
X38078Y207087D01*
X38258Y206487D01*
X38498Y206037D01*
X38858Y205662D01*
X39338Y205512D01*
X39818Y205662D01*
X40178Y206037D01*
X40418Y206487D01*
X40598Y207087D01*
X40658Y207762D01*
X40598Y208437D01*
X40418Y209037D01*
X40178Y209487D01*
X39818Y209862D01*
X39338Y210012D01*
G01X11964Y201901D02*
Y209122D01*
G01Y201901D02*
X17023D01*
G01X25831D02*
Y209122D01*
G01X20772Y201901D02*
X25831D01*
G01X29498Y196850D02*
Y201350D01*
X30998D01*
X31478Y201125D01*
X31778Y200825D01*
X31898Y200225D01*
X31778Y199625D01*
X31418Y199250D01*
X30998Y199025D01*
X29498D01*
G01X30998D02*
X31898Y196850D01*
G01X33878Y200600D02*
X34238Y201050D01*
X34658Y201275D01*
X35138Y201350D01*
X35738Y201200D01*
X36158Y200825D01*
X36278Y200375D01*
X36218Y199925D01*
X35978Y199550D01*
X34778Y198800D01*
X34238Y198275D01*
X33878Y197525D01*
X33758Y196850D01*
X36278D01*
G01X38198Y200600D02*
X38558Y201050D01*
X38978Y201275D01*
X39458Y201350D01*
X40058Y201200D01*
X40478Y200825D01*
X40598Y200375D01*
X40538Y199925D01*
X40298Y199550D01*
X39098Y198800D01*
X38558Y198275D01*
X38198Y197525D01*
X38078Y196850D01*
X40598D01*
G01X11964Y200460D02*
X17023D01*
G01X11964Y193239D02*
Y200460D01*
G01Y193239D02*
X17023D01*
G01X20772Y200460D02*
X25831D01*
G01Y193239D02*
Y200460D01*
G01X20772Y193239D02*
X25831D01*
G01X16348Y230034D02*
X16648Y229584D01*
X17008Y229284D01*
X17428Y229134D01*
X17908Y229284D01*
X18268Y229584D01*
X18628Y230034D01*
X18748Y230634D01*
Y233634D01*
G01X21868Y229134D02*
Y233634D01*
X21148Y232734D01*
G01Y229134D02*
X22588D01*
G01X29498Y214173D02*
Y218673D01*
X30998D01*
X31478Y218448D01*
X31778Y218148D01*
X31898Y217548D01*
X31778Y216948D01*
X31418Y216573D01*
X30998Y216348D01*
X29498D01*
G01X30998D02*
X31898Y214173D01*
G01X35018D02*
Y218673D01*
X34298Y217773D01*
G01Y214173D02*
X35738D01*
G01X38198Y216048D02*
X38618Y216573D01*
X38978Y216873D01*
X39458Y217023D01*
X39878Y216873D01*
X40178Y216573D01*
X40418Y216123D01*
X40478Y215598D01*
X40418Y215148D01*
X40178Y214698D01*
X39818Y214323D01*
X39398Y214173D01*
X38918Y214323D01*
X38498Y214773D01*
X38258Y215448D01*
X38198Y216198D01*
X38318Y217173D01*
X38498Y217698D01*
X38798Y218223D01*
X39218Y218598D01*
X39638Y218673D01*
X40058Y218523D01*
X40358Y218148D01*
G01X11964Y217783D02*
X17023D01*
G01X11964Y210562D02*
Y217783D01*
G01Y210562D02*
X17023D01*
G01X20772Y217783D02*
X25831D01*
G01Y210562D02*
Y217783D01*
G01X20772Y210562D02*
X25831D01*
G01X11964Y209122D02*
X17023D01*
G01X20772D02*
X25831D01*
G01X32540Y290645D02*
X38036Y296142D01*
G01X11452Y290645D02*
X32540D01*
G01X11452D02*
Y301546D01*
G01X38377Y278782D02*
X38484Y275558D01*
X38747Y274892D01*
X39241Y274458D01*
X39846Y274328D01*
X40441Y274498D01*
X40905Y274964D01*
X41123Y275646D01*
X41015Y278870D01*
G01X44164Y274472D02*
X44014Y278970D01*
X43324Y278046D01*
G01X43444Y274448D02*
X44883Y274496D01*
G01X38036Y296142D02*
Y301546D01*
G01Y306328D02*
Y311732D01*
G01X32540Y317229D02*
X38036Y311732D01*
G01X11452Y317229D02*
X32540D01*
G01X11452Y306328D02*
Y317229D01*
G01X38036Y328032D02*
Y333436D01*
G01X32540Y322535D02*
X38036Y328032D01*
G01X11452Y322535D02*
X32540D01*
G01X11452D02*
Y333436D01*
G01X38036Y338218D02*
Y343622D01*
G01X32540Y349119D02*
X38036Y343622D01*
G01X11452Y338218D02*
Y349119D01*
G01D02*
X32540D01*
G01X49813Y62992D02*
Y67492D01*
X51313D01*
X51793Y67267D01*
X52093Y66967D01*
X52213Y66367D01*
X52093Y65767D01*
X51733Y65392D01*
X51313Y65167D01*
X49813D01*
G01X51313D02*
X52213Y62992D01*
G01X55333D02*
Y67492D01*
X54613Y66592D01*
G01Y62992D02*
X56053D01*
G01X58513Y66742D02*
X58873Y67192D01*
X59293Y67417D01*
X59773Y67492D01*
X60373Y67342D01*
X60793Y66967D01*
X60913Y66517D01*
X60853Y66067D01*
X60613Y65692D01*
X59413Y64942D01*
X58873Y64417D01*
X58513Y63667D01*
X58393Y62992D01*
X60913D01*
G01X48972Y70011D02*
Y77232D01*
G01Y70011D02*
X54031D01*
G01X62839D02*
Y77232D01*
G01X57780Y70011D02*
X62839D01*
G01X68081Y100582D02*
X67721Y100807D01*
X67301Y100957D01*
X66821D01*
X66281Y100732D01*
X65861Y100357D01*
X65561Y99907D01*
X65321Y99157D01*
X65261Y98482D01*
X65381Y97807D01*
X65561Y97357D01*
X65921Y96907D01*
X66341Y96607D01*
X66761Y96457D01*
X67181D01*
X67601Y96607D01*
X67961Y96832D01*
X68261Y97132D01*
G01X71081Y96457D02*
X71501Y96532D01*
X71981Y96757D01*
X72281Y97132D01*
X72401Y97657D01*
X72281Y98182D01*
X71921Y98632D01*
X71381Y98857D01*
X70781D01*
X70421Y99007D01*
X70121Y99382D01*
X70001Y99907D01*
X70181Y100432D01*
X70601Y100807D01*
X71081Y100957D01*
X71561Y100807D01*
X71981Y100432D01*
X72161Y99907D01*
X72041Y99382D01*
X71741Y99007D01*
X71381Y98857D01*
X70781D01*
X70241Y98632D01*
X69881Y98182D01*
X69761Y97657D01*
X69881Y97132D01*
X70181Y96757D01*
X70661Y96532D01*
X71081Y96457D01*
G01X48174Y95861D02*
G03X48774Y95261I600J0D01*
G01X63035D02*
G03X63635Y95861I0J600D01*
G01X48174D02*
Y101776D01*
G01X48774Y95261D02*
X54326D01*
G01X63635Y95861D02*
Y101776D01*
G01X57485Y95261D02*
X63035D01*
G01X65167Y83465D02*
Y87965D01*
X66667D01*
X67147Y87740D01*
X67447Y87440D01*
X67567Y86840D01*
X67447Y86240D01*
X67087Y85865D01*
X66667Y85640D01*
X65167D01*
G01X66667D02*
X67567Y83465D01*
G01X70687D02*
X71107Y83540D01*
X71587Y83765D01*
X71887Y84140D01*
X72007Y84665D01*
X71887Y85190D01*
X71527Y85640D01*
X70987Y85865D01*
X70387D01*
X70027Y86015D01*
X69727Y86390D01*
X69607Y86915D01*
X69787Y87440D01*
X70207Y87815D01*
X70687Y87965D01*
X71167Y87815D01*
X71587Y87440D01*
X71767Y86915D01*
X71647Y86390D01*
X71347Y86015D01*
X70987Y85865D01*
X70387D01*
X69847Y85640D01*
X69487Y85190D01*
X69367Y84665D01*
X69487Y84140D01*
X69787Y83765D01*
X70267Y83540D01*
X70687Y83465D01*
G01X48972Y89830D02*
X54031D01*
G01X48972Y82609D02*
Y89830D01*
G01Y82609D02*
X54031D01*
G01X57780Y89830D02*
X62839D01*
G01Y82609D02*
Y89830D01*
G01X57780Y82609D02*
X62839D01*
G01X48972Y77232D02*
X54031D01*
G01X57780D02*
X62839D01*
G01X39500Y107000D02*
Y111800D01*
X40750D01*
X41150Y111560D01*
X41400Y111240D01*
X41500Y110600D01*
X41400Y109960D01*
X41100Y109560D01*
X40750Y109320D01*
X39500D01*
G01X40750D02*
X41500Y107000D01*
G01X45700D02*
X43700D01*
Y111800D01*
X45700D01*
G01X44900Y109480D02*
X43700D01*
G01X47900Y107000D02*
Y111800D01*
X49100D01*
X49500Y111560D01*
X49800Y111000D01*
X49900Y110360D01*
X49800Y109720D01*
X49550Y109240D01*
X49100Y109000D01*
X47900D01*
G01X51850Y107000D02*
X53100Y111800D01*
X54350Y107000D01*
G01X53900Y108680D02*
X52300D01*
G01X56700Y111800D02*
X57900D01*
G01X57300D02*
Y107000D01*
G01X56700D02*
X57900D01*
G01X60500D02*
Y111800D01*
X61750D01*
X62150Y111560D01*
X62400Y111240D01*
X62500Y110600D01*
X62400Y109960D01*
X62100Y109560D01*
X61750Y109320D01*
X60500D01*
G01X61750D02*
X62500Y107000D01*
G01X48774Y102376D02*
G03X48174Y101776I0J-600D01*
G01X63635D02*
G03X63035Y102376I-600J0D01*
G01X48774D02*
X54326D01*
G01X57485D02*
X63035D01*
G01X45816Y143120D02*
X46296Y142745D01*
X46836Y142520D01*
X47316D01*
X47796Y142745D01*
X48156Y143120D01*
X48336Y143645D01*
X48216Y144170D01*
X47916Y144620D01*
X47376Y144920D01*
X46656Y145070D01*
X46236Y145370D01*
X46056Y145895D01*
X46176Y146420D01*
X46476Y146795D01*
X46896Y147020D01*
X47316D01*
X47736Y146870D01*
X48096Y146495D01*
G01X49596Y147020D02*
X50436Y142520D01*
X51396Y147020D01*
X52356Y142520D01*
X53196Y147020D01*
G01X55716Y142520D02*
Y147020D01*
X54996Y146120D01*
G01Y142520D02*
X56436D01*
G01X62756Y161209D02*
X58256D01*
X59156Y160489D01*
G01X62756D02*
Y161929D01*
G01X61856Y184889D02*
X62381Y185249D01*
X62681Y185729D01*
X62756Y186269D01*
X62681Y186749D01*
X62306Y187229D01*
X61856Y187529D01*
X61406Y187589D01*
X60881Y187469D01*
X60506Y187049D01*
X60356Y186629D01*
Y186089D01*
G01Y186629D02*
X60131Y186989D01*
X59756Y187289D01*
X59306Y187409D01*
X58856Y187289D01*
X58481Y186989D01*
X58256Y186449D01*
X58331Y185909D01*
X58631Y185369D01*
G01X61781Y204724D02*
Y209224D01*
X63281D01*
X63761Y208999D01*
X64061Y208699D01*
X64181Y208099D01*
X64061Y207499D01*
X63701Y207124D01*
X63281Y206899D01*
X61781D01*
G01X63281D02*
X64181Y204724D01*
G01X67301D02*
Y209224D01*
X66581Y208324D01*
G01Y204724D02*
X68021D01*
G01X71621D02*
X72041Y204799D01*
X72521Y205024D01*
X72821Y205399D01*
X72941Y205924D01*
X72821Y206449D01*
X72461Y206899D01*
X71921Y207124D01*
X71321D01*
X70961Y207274D01*
X70661Y207649D01*
X70541Y208174D01*
X70721Y208699D01*
X71141Y209074D01*
X71621Y209224D01*
X72101Y209074D01*
X72521Y208699D01*
X72701Y208174D01*
X72581Y207649D01*
X72281Y207274D01*
X71921Y207124D01*
X71321D01*
X70781Y206899D01*
X70421Y206449D01*
X70301Y205924D01*
X70421Y205399D01*
X70721Y205024D01*
X71201Y204799D01*
X71621Y204724D01*
G01X44247Y208334D02*
X49306D01*
G01X44247Y201113D02*
Y208334D01*
G01Y201113D02*
X49306D01*
G01X53055Y208334D02*
X58114D01*
G01Y201113D02*
Y208334D01*
G01X53055Y201113D02*
X58114D01*
G01X61781Y196063D02*
Y200563D01*
X63281D01*
X63761Y200338D01*
X64061Y200038D01*
X64181Y199438D01*
X64061Y198838D01*
X63701Y198463D01*
X63281Y198238D01*
X61781D01*
G01X63281D02*
X64181Y196063D01*
G01X66161Y199813D02*
X66521Y200263D01*
X66941Y200488D01*
X67421Y200563D01*
X68021Y200413D01*
X68441Y200038D01*
X68561Y199588D01*
X68501Y199138D01*
X68261Y198763D01*
X67061Y198013D01*
X66521Y197488D01*
X66161Y196738D01*
X66041Y196063D01*
X68561D01*
G01X71621D02*
Y200563D01*
X70901Y199663D01*
G01Y196063D02*
X72341D01*
G01X44247Y199673D02*
X49306D01*
G01X44247Y192452D02*
Y199673D01*
G01Y192452D02*
X49306D01*
G01X53055Y199673D02*
X58114D01*
G01Y192452D02*
Y199673D01*
G01X53055Y192452D02*
X58114D01*
G01X64301Y226172D02*
X63941Y226397D01*
X63521Y226547D01*
X63041D01*
X62501Y226322D01*
X62081Y225947D01*
X61781Y225497D01*
X61541Y224747D01*
X61481Y224072D01*
X61601Y223397D01*
X61781Y222947D01*
X62141Y222497D01*
X62561Y222197D01*
X62981Y222047D01*
X63401D01*
X63821Y222197D01*
X64181Y222422D01*
X64481Y222722D01*
G01X67301Y222047D02*
Y226547D01*
X66581Y225647D01*
G01Y222047D02*
X68021D01*
G01X71621D02*
Y226547D01*
X70901Y225647D01*
G01Y222047D02*
X72341D01*
G01X44050Y225604D02*
G03X43450Y225004I0J-600D01*
G01Y219089D02*
G03X44050Y218489I600J0D01*
G01X58911Y225004D02*
G03X58311Y225604I-600J0D01*
G01Y218489D02*
G03X58911Y219089I0J600D01*
G01X43450D02*
Y225004D01*
G01X44050Y218489D02*
X49601D01*
G01X44050Y225604D02*
X49601D01*
G01X58911Y219089D02*
Y225004D01*
G01X52760Y218489D02*
X58311D01*
G01X52760Y225604D02*
X58311D01*
G01X64301Y217511D02*
X63941Y217736D01*
X63521Y217886D01*
X63041D01*
X62501Y217661D01*
X62081Y217286D01*
X61781Y216836D01*
X61541Y216086D01*
X61481Y215411D01*
X61601Y214736D01*
X61781Y214286D01*
X62141Y213836D01*
X62561Y213536D01*
X62981Y213386D01*
X63401D01*
X63821Y213536D01*
X64181Y213761D01*
X64481Y214061D01*
G01X67301Y213386D02*
Y217886D01*
X66581Y216986D01*
G01Y213386D02*
X68021D01*
G01X70481Y217136D02*
X70841Y217586D01*
X71261Y217811D01*
X71741Y217886D01*
X72341Y217736D01*
X72761Y217361D01*
X72881Y216911D01*
X72821Y216461D01*
X72581Y216086D01*
X71381Y215336D01*
X70841Y214811D01*
X70481Y214061D01*
X70361Y213386D01*
X72881D01*
G01X44050Y216943D02*
G03X43450Y216343I0J-600D01*
G01Y210428D02*
G03X44050Y209828I600J0D01*
G01X58911Y216343D02*
G03X58311Y216943I-600J0D01*
G01Y209828D02*
G03X58911Y210428I0J600D01*
G01X43450D02*
Y216343D01*
G01X44050Y209828D02*
X49601D01*
G01X44050Y216943D02*
X49601D01*
G01X58911Y210428D02*
Y216343D01*
G01X52760Y209828D02*
X58311D01*
G01X52760Y216943D02*
X58311D01*
G01X49356Y287200D02*
G03X49956Y286600I600J0D01*
G01X64217D02*
G03X64817Y287200I0J600D01*
G01X49356D02*
Y293115D01*
G01X49956Y286600D02*
X55507D01*
G01X64817Y287200D02*
Y293115D01*
G01X58666Y286600D02*
X64217D01*
G01X48962Y318696D02*
G03X49562Y318096I600J0D01*
G01X63823D02*
G03X64423Y318696I0J600D01*
G01X48962D02*
Y324611D01*
G01X49562Y318096D02*
X55113D01*
G01X64423Y318696D02*
Y324611D01*
G01X58272Y318096D02*
X63823D01*
G01X49956Y302376D02*
G03X49356Y301776I0J-600D01*
G01Y295861D02*
G03X49956Y295261I600J0D01*
G01X64817Y301776D02*
G03X64217Y302376I-600J0D01*
G01Y295261D02*
G03X64817Y295861I0J600D01*
G01X49356D02*
Y301776D01*
G01X49956Y295261D02*
X55507D01*
G01X49956Y302376D02*
X55507D01*
G01X64817Y295861D02*
Y301776D01*
G01X58666Y295261D02*
X64217D01*
G01X58666Y302376D02*
X64217D01*
G01X49956Y293715D02*
G03X49356Y293115I0J-600D01*
G01X64817D02*
G03X64217Y293715I-600J0D01*
G01X49956D02*
X55507D01*
G01X58666D02*
X64217D01*
G01X45608Y314385D02*
X45246Y314607D01*
X44825Y314754D01*
X44345Y314750D01*
X43807Y314521D01*
X43390Y314143D01*
X43093Y313691D01*
X42859Y312939D01*
X42804Y312263D01*
X42929Y311589D01*
X43113Y311141D01*
X43476Y310693D01*
X43899Y310397D01*
X44320Y310250D01*
X44740Y310253D01*
X45159Y310407D01*
X45517Y310634D01*
X45815Y310937D01*
G01X47471Y314025D02*
X47827Y314478D01*
X48245Y314706D01*
X48725Y314785D01*
X49326Y314640D01*
X49749Y314268D01*
X49872Y313819D01*
X49816Y313368D01*
X49579Y312991D01*
X48385Y312232D01*
X47849Y311703D01*
X47495Y310950D01*
X47380Y310274D01*
X49900Y310294D01*
G01X49562Y325211D02*
G03X48962Y324611I0J-600D01*
G01X64423D02*
G03X63823Y325211I-600J0D01*
G01X49562D02*
X55113D01*
G01X58272D02*
X63823D01*
G01X49562Y333872D02*
G03X48962Y333272I0J-600D01*
G01Y327357D02*
G03X49562Y326757I600J0D01*
G01X64423Y333272D02*
G03X63823Y333872I-600J0D01*
G01Y326757D02*
G03X64423Y327357I0J600D01*
G01X48962D02*
Y333272D01*
G01X49562Y326757D02*
X55113D01*
G01X49562Y333872D02*
X55113D01*
G01X64423Y327357D02*
Y333272D01*
G01X58272Y326757D02*
X63823D01*
G01X58272Y333872D02*
X63823D01*
G01X45700Y354079D02*
X45343Y354309D01*
X44926Y354465D01*
X44446Y354472D01*
X43902Y354255D01*
X43477Y353886D01*
X43170Y353441D01*
X42919Y352694D01*
X42850Y352020D01*
X42960Y351344D01*
X43133Y350891D01*
X43486Y350436D01*
X43902Y350130D01*
X44320Y349974D01*
X44740Y349968D01*
X45162Y350111D01*
X45525Y350331D01*
X45830Y350627D01*
G01X47527Y351802D02*
X47955Y352321D01*
X48319Y352616D01*
X48802Y352759D01*
X49219Y352602D01*
X49515Y352298D01*
X49748Y351845D01*
X49801Y351319D01*
X49734Y350870D01*
X49487Y350423D01*
X49122Y350054D01*
X48700Y349910D01*
X48222Y350067D01*
X47809Y350523D01*
X47579Y351201D01*
X47530Y351952D01*
X47664Y352925D01*
X47851Y353448D01*
X48159Y353968D01*
X48585Y354337D01*
X49006Y354406D01*
X49423Y354250D01*
X49718Y353870D01*
G01X86154Y37948D02*
Y43007D01*
G01X93375Y37948D02*
X86154D01*
G01X86427Y53937D02*
Y58437D01*
X87927D01*
X88407Y58212D01*
X88707Y57912D01*
X88827Y57312D01*
X88707Y56712D01*
X88347Y56337D01*
X87927Y56112D01*
X86427D01*
G01X87927D02*
X88827Y53937D01*
G01X90927Y54462D02*
X91347Y54087D01*
X91827Y53937D01*
X92307Y54087D01*
X92727Y54537D01*
X93027Y55212D01*
X93147Y55887D01*
Y56712D01*
X93027Y57387D01*
X92727Y57987D01*
X92367Y58287D01*
X91947Y58437D01*
X91467Y58287D01*
X91107Y57987D01*
X90867Y57537D01*
X90747Y56937D01*
X90867Y56412D01*
X91167Y55887D01*
X91527Y55587D01*
X91947Y55512D01*
X92427Y55662D01*
X92787Y56037D01*
X93147Y56712D01*
G01X86154Y46756D02*
Y51815D01*
G01X93375D02*
X86154D01*
G01X69619Y120625D02*
Y125684D01*
G01X76839Y120625D02*
X69619D01*
G01X76839D02*
Y125684D01*
G01X71466Y136614D02*
Y141114D01*
X72966D01*
X73446Y140889D01*
X73746Y140589D01*
X73866Y139989D01*
X73746Y139389D01*
X73386Y139014D01*
X72966Y138789D01*
X71466D01*
G01X72966D02*
X73866Y136614D01*
G01X75846Y140364D02*
X76206Y140814D01*
X76626Y141039D01*
X77106Y141114D01*
X77706Y140964D01*
X78126Y140589D01*
X78246Y140139D01*
X78186Y139689D01*
X77946Y139314D01*
X76746Y138564D01*
X76206Y138039D01*
X75846Y137289D01*
X75726Y136614D01*
X78246D01*
G01X81306D02*
X81726Y136689D01*
X82206Y136914D01*
X82506Y137289D01*
X82626Y137814D01*
X82506Y138339D01*
X82146Y138789D01*
X81606Y139014D01*
X81006D01*
X80646Y139164D01*
X80346Y139539D01*
X80226Y140064D01*
X80406Y140589D01*
X80826Y140964D01*
X81306Y141114D01*
X81786Y140964D01*
X82206Y140589D01*
X82386Y140064D01*
X82266Y139539D01*
X81966Y139164D01*
X81606Y139014D01*
X81006D01*
X80466Y138789D01*
X80106Y138339D01*
X79986Y137814D01*
X80106Y137289D01*
X80406Y136914D01*
X80886Y136689D01*
X81306Y136614D01*
G01X69619Y129433D02*
Y134492D01*
G01X76839D02*
X69619D01*
G01X76839Y129433D02*
Y134492D01*
G01X86012Y190672D02*
Y225328D01*
G01X97991Y190672D02*
X86012D01*
G01X81268Y234043D02*
G03X81868Y233443I600J0D01*
G01X81268Y234043D02*
Y239958D01*
G01X81868Y233443D02*
X87420D01*
G01X90579D02*
X96129D01*
G01X97991Y225328D02*
X86012D01*
G01X81868Y248557D02*
G03X81268Y247957I0J-600D01*
G01Y242042D02*
G03X81868Y241442I600J0D01*
G01X81268Y242042D02*
Y247957D01*
G01X81868Y241442D02*
X87420D01*
G01X81868Y248557D02*
X87420D01*
G01X90579Y241442D02*
X96129D01*
G01X90579Y248557D02*
X96129D01*
G01X81868Y240558D02*
G03X81268Y239958I0J-600D01*
G01X81868Y240558D02*
X87420D01*
G01X90579D02*
X96129D01*
G01X70443Y292708D02*
X70083Y292933D01*
X69663Y293083D01*
X69183D01*
X68643Y292858D01*
X68223Y292483D01*
X67923Y292033D01*
X67683Y291283D01*
X67623Y290608D01*
X67743Y289933D01*
X67923Y289483D01*
X68283Y289033D01*
X68703Y288733D01*
X69123Y288583D01*
X69543D01*
X69963Y288733D01*
X70323Y288958D01*
X70623Y289258D01*
G01X74163Y288583D02*
Y293083D01*
X71943Y289858D01*
X74943D01*
G01X70207Y302944D02*
X69847Y303169D01*
X69427Y303319D01*
X68947D01*
X68407Y303094D01*
X67987Y302719D01*
X67687Y302269D01*
X67447Y301519D01*
X67387Y300844D01*
X67507Y300169D01*
X67687Y299719D01*
X68047Y299269D01*
X68467Y298969D01*
X68887Y298819D01*
X69307D01*
X69727Y298969D01*
X70087Y299194D01*
X70387Y299494D01*
G01X71887Y299719D02*
X72247Y299194D01*
X72727Y298894D01*
X73267Y298819D01*
X73747Y298894D01*
X74227Y299269D01*
X74527Y299719D01*
X74587Y300169D01*
X74467Y300694D01*
X74047Y301069D01*
X73627Y301219D01*
X73087D01*
G01X73627D02*
X73987Y301444D01*
X74287Y301819D01*
X74407Y302269D01*
X74287Y302719D01*
X73987Y303094D01*
X73447Y303319D01*
X72907Y303244D01*
X72367Y302944D01*
G01X69813Y325779D02*
X69453Y326004D01*
X69033Y326154D01*
X68553D01*
X68013Y325929D01*
X67593Y325554D01*
X67293Y325104D01*
X67053Y324354D01*
X66993Y323679D01*
X67113Y323004D01*
X67293Y322554D01*
X67653Y322104D01*
X68073Y321804D01*
X68493Y321654D01*
X68913D01*
X69333Y321804D01*
X69693Y322029D01*
X69993Y322329D01*
G01X72813Y321654D02*
Y326154D01*
X72093Y325254D01*
G01Y321654D02*
X73533D01*
G01X69813Y334440D02*
X69453Y334665D01*
X69033Y334815D01*
X68553D01*
X68013Y334590D01*
X67593Y334215D01*
X67293Y333765D01*
X67053Y333015D01*
X66993Y332340D01*
X67113Y331665D01*
X67293Y331215D01*
X67653Y330765D01*
X68073Y330465D01*
X68493Y330315D01*
X68913D01*
X69333Y330465D01*
X69693Y330690D01*
X69993Y330990D01*
G01X71493D02*
X71853Y330615D01*
X72273Y330390D01*
X72813Y330315D01*
X73353Y330465D01*
X73773Y330765D01*
X74073Y331290D01*
X74133Y331890D01*
X74013Y332490D01*
X73713Y332865D01*
X73293Y333165D01*
X72873Y333240D01*
X72453Y333165D01*
X71913Y332865D01*
X72093Y334815D01*
X73713D01*
G01X96269Y10236D02*
Y14736D01*
X97769D01*
X98249Y14511D01*
X98549Y14211D01*
X98669Y13611D01*
X98549Y13011D01*
X98189Y12636D01*
X97769Y12411D01*
X96269D01*
G01X97769D02*
X98669Y10236D01*
G01X101789D02*
Y14736D01*
X101069Y13836D01*
G01Y10236D02*
X102509D01*
G01X106109Y14736D02*
X105629Y14586D01*
X105269Y14211D01*
X105029Y13761D01*
X104849Y13161D01*
X104789Y12486D01*
X104849Y11811D01*
X105029Y11211D01*
X105269Y10761D01*
X105629Y10386D01*
X106109Y10236D01*
X106589Y10386D01*
X106949Y10761D01*
X107189Y11211D01*
X107369Y11811D01*
X107429Y12486D01*
X107369Y13161D01*
X107189Y13761D01*
X106949Y14211D01*
X106589Y14586D01*
X106109Y14736D01*
G01X125044Y9382D02*
X119985D01*
G01X116236D02*
X111177D01*
G01Y16603D02*
Y9382D01*
G01X93375Y37948D02*
Y43007D01*
G01X125044Y16603D02*
X119985D01*
G01X116236D02*
X111177D01*
G01X93375Y46756D02*
Y51815D01*
G01X101080Y61980D02*
X102520D01*
G01X101800D02*
Y57480D01*
G01X101080D02*
X102520D01*
G01X104920D02*
Y61980D01*
X106420D01*
X106900Y61755D01*
X107200Y61455D01*
X107320Y60855D01*
X107200Y60255D01*
X106840Y59880D01*
X106420Y59655D01*
X104920D01*
G01X106420D02*
X107320Y57480D01*
G01X109300Y61230D02*
X109660Y61680D01*
X110080Y61905D01*
X110560Y61980D01*
X111160Y61830D01*
X111580Y61455D01*
X111700Y61005D01*
X111640Y60555D01*
X111400Y60180D01*
X110200Y59430D01*
X109660Y58905D01*
X109300Y58155D01*
X109180Y57480D01*
X111700D01*
G01X120772Y69073D02*
Y72659D01*
G01X113873Y64818D02*
Y68919D01*
G01Y64818D02*
X120772D01*
G01X113873Y72813D02*
Y76914D01*
G01D02*
X120772D01*
G01X120400Y175960D02*
X120700Y175400D01*
X121100Y175080D01*
X121550Y175000D01*
X121950Y175080D01*
X122350Y175480D01*
X122600Y175960D01*
X122650Y176440D01*
X122550Y177000D01*
X122200Y177400D01*
X121850Y177560D01*
X121400D01*
G01X121850D02*
X122150Y177800D01*
X122400Y178200D01*
X122500Y178680D01*
X122400Y179160D01*
X122150Y179560D01*
X121700Y179800D01*
X121250Y179720D01*
X120800Y179400D01*
G01X124450Y179800D02*
X125700Y175000D01*
X126950Y179800D01*
G01X128800Y175960D02*
X129100Y175400D01*
X129500Y175080D01*
X129950Y175000D01*
X130350Y175080D01*
X130750Y175480D01*
X131000Y175960D01*
X131050Y176440D01*
X130950Y177000D01*
X130600Y177400D01*
X130250Y177560D01*
X129800D01*
G01X130250D02*
X130550Y177800D01*
X130800Y178200D01*
X130900Y178680D01*
X130800Y179160D01*
X130550Y179560D01*
X130100Y179800D01*
X129650Y179720D01*
X129200Y179400D01*
G01X132600Y173400D02*
X135600D01*
G01X138300Y175000D02*
X137900Y175080D01*
X137550Y175400D01*
X137250Y175880D01*
X137050Y176440D01*
X136950Y177080D01*
Y177720D01*
X137050Y178360D01*
X137250Y178920D01*
X137550Y179400D01*
X137900Y179720D01*
X138300Y179800D01*
X138700Y179720D01*
X139050Y179400D01*
X139350Y178920D01*
X139550Y178360D01*
X139650Y177720D01*
Y177080D01*
X139550Y176440D01*
X139350Y175880D01*
X139050Y175400D01*
X138700Y175080D01*
X138300Y175000D01*
G01X141350D02*
Y179800D01*
X143650Y175000D01*
Y179800D01*
G01X113472Y187795D02*
Y192295D01*
X114672D01*
X115152Y192070D01*
X115512Y191770D01*
X115812Y191320D01*
X116052Y190795D01*
X116112Y190045D01*
X116052Y189295D01*
X115812Y188770D01*
X115512Y188320D01*
X115152Y188020D01*
X114672Y187795D01*
X113472D01*
G01X117792Y188695D02*
X118152Y188170D01*
X118632Y187870D01*
X119172Y187795D01*
X119652Y187870D01*
X120132Y188245D01*
X120432Y188695D01*
X120492Y189145D01*
X120372Y189670D01*
X119952Y190045D01*
X119532Y190195D01*
X118992D01*
G01X119532D02*
X119892Y190420D01*
X120192Y190795D01*
X120312Y191245D01*
X120192Y191695D01*
X119892Y192070D01*
X119352Y192295D01*
X118812Y192220D01*
X118272Y191920D01*
G01X97991Y190672D02*
Y225328D01*
G01X102120Y241125D02*
X101760Y241350D01*
X101340Y241500D01*
X100860D01*
X100320Y241275D01*
X99900Y240900D01*
X99600Y240450D01*
X99360Y239700D01*
X99300Y239025D01*
X99420Y238350D01*
X99600Y237900D01*
X99960Y237450D01*
X100380Y237150D01*
X100800Y237000D01*
X101220D01*
X101640Y237150D01*
X102000Y237375D01*
X102300Y237675D01*
G01X105120Y237000D02*
Y241500D01*
X104400Y240600D01*
G01Y237000D02*
X105840D01*
G01X108120Y237675D02*
X108480Y237300D01*
X108900Y237075D01*
X109440Y237000D01*
X109980Y237150D01*
X110400Y237450D01*
X110700Y237975D01*
X110760Y238575D01*
X110640Y239175D01*
X110340Y239550D01*
X109920Y239850D01*
X109500Y239925D01*
X109080Y239850D01*
X108540Y239550D01*
X108720Y241500D01*
X110340D01*
G01X96129Y233443D02*
G03X96729Y234043I0J600D01*
G01D02*
Y239958D01*
G01X114326Y230247D02*
Y237468D01*
G01Y230247D02*
X119385D01*
G01X101499Y231498D02*
X101485Y228273D01*
X101722Y227597D01*
X102201Y227145D01*
X102800Y226993D01*
X103401Y227140D01*
X103883Y227588D01*
X104125Y228262D01*
X104139Y231487D01*
G01X105996Y230729D02*
X106357Y231178D01*
X106778Y231401D01*
X107259Y231474D01*
X107858Y231322D01*
X108277Y230945D01*
X108395Y230494D01*
X108333Y230044D01*
X108091Y229670D01*
X106888Y228925D01*
X106346Y228403D01*
X105983Y227654D01*
X105860Y226980D01*
X108380Y226969D01*
G01X102120Y249125D02*
X101760Y249350D01*
X101340Y249500D01*
X100860D01*
X100320Y249275D01*
X99900Y248900D01*
X99600Y248450D01*
X99360Y247700D01*
X99300Y247025D01*
X99420Y246350D01*
X99600Y245900D01*
X99960Y245450D01*
X100380Y245150D01*
X100800Y245000D01*
X101220D01*
X101640Y245150D01*
X102000Y245375D01*
X102300Y245675D01*
G01X105120Y245000D02*
Y249500D01*
X104400Y248600D01*
G01Y245000D02*
X105840D01*
G01X110160D02*
Y249500D01*
X107940Y246275D01*
X110940D01*
G01X96729Y247957D02*
G03X96129Y248557I-600J0D01*
G01Y241442D02*
G03X96729Y242042I0J600D01*
G01D02*
Y247957D01*
G01Y239958D02*
G03X96129Y240558I-600J0D01*
G01X114129Y263400D02*
G03X113529Y262800I0J-600D01*
G01Y256885D02*
G03X114129Y256285I600J0D01*
G01X113529Y256885D02*
Y262800D01*
G01X114129Y256285D02*
X119680D01*
G01X114129Y263400D02*
X119680D01*
G01X114129Y254738D02*
G03X113529Y254138I0J-600D01*
G01Y248223D02*
G03X114129Y247623I600J0D01*
G01X113529Y248223D02*
Y254138D01*
G01X114129Y247623D02*
X119680D01*
G01X114129Y254738D02*
X119680D01*
G01X114326Y246130D02*
X119385D01*
G01X114326Y238909D02*
Y246130D01*
G01Y238909D02*
X119385D01*
G01X114326Y237468D02*
X119385D01*
G01X125044Y16603D02*
Y9382D01*
G01X146663Y31890D02*
Y36390D01*
X148163D01*
X148643Y36165D01*
X148943Y35865D01*
X149063Y35265D01*
X148943Y34665D01*
X148583Y34290D01*
X148163Y34065D01*
X146663D01*
G01X148163D02*
X149063Y31890D01*
G01X152183D02*
Y36390D01*
X151463Y35490D01*
G01Y31890D02*
X152903D01*
G01X156503D02*
Y36390D01*
X155783Y35490D01*
G01Y31890D02*
X157223D01*
G01X146784Y38735D02*
Y43794D01*
G01X154005Y38735D02*
X146784D01*
G01X131395Y31665D02*
X132835D01*
G01X132115D02*
Y27165D01*
G01X131395D02*
X132835D01*
G01X135235D02*
Y31665D01*
X136735D01*
X137215Y31440D01*
X137515Y31140D01*
X137635Y30540D01*
X137515Y29940D01*
X137155Y29565D01*
X136735Y29340D01*
X135235D01*
G01X136735D02*
X137635Y27165D01*
G01X139435Y28065D02*
X139795Y27540D01*
X140275Y27240D01*
X140815Y27165D01*
X141295Y27240D01*
X141775Y27615D01*
X142075Y28065D01*
X142135Y28515D01*
X142015Y29040D01*
X141595Y29415D01*
X141175Y29565D01*
X140635D01*
G01X141175D02*
X141535Y29790D01*
X141835Y30165D01*
X141955Y30615D01*
X141835Y31065D01*
X141535Y31440D01*
X140995Y31665D01*
X140455Y31590D01*
X139915Y31290D01*
G01X146784Y47543D02*
Y52602D01*
G01X154005D02*
X146784D01*
G01X125489Y61980D02*
X126929D01*
G01X126209D02*
Y57480D01*
G01X125489D02*
X126929D01*
G01X129329D02*
Y61980D01*
X130829D01*
X131309Y61755D01*
X131609Y61455D01*
X131729Y60855D01*
X131609Y60255D01*
X131249Y59880D01*
X130829Y59655D01*
X129329D01*
G01X130829D02*
X131729Y57480D01*
G01X135569D02*
Y61980D01*
X133349Y58755D01*
X136349D01*
G01X129123Y70866D02*
X128643Y70941D01*
X128223Y71241D01*
X127863Y71691D01*
X127623Y72216D01*
X127503Y72816D01*
Y73416D01*
X127623Y74016D01*
X127863Y74541D01*
X128223Y74991D01*
X128643Y75291D01*
X129123Y75366D01*
X129603Y75291D01*
X130023Y74991D01*
X130383Y74541D01*
X130623Y74016D01*
X130743Y73416D01*
Y72816D01*
X130623Y72216D01*
X130383Y71691D01*
X130023Y71241D01*
X129603Y70941D01*
X129123Y70866D01*
G01X129603Y72066D02*
X130323Y70866D01*
G01X132303Y74616D02*
X132663Y75066D01*
X133083Y75291D01*
X133563Y75366D01*
X134163Y75216D01*
X134583Y74841D01*
X134703Y74391D01*
X134643Y73941D01*
X134403Y73566D01*
X133203Y72816D01*
X132663Y72291D01*
X132303Y71541D01*
X132183Y70866D01*
X134703D01*
G01X124774Y99794D02*
X124414Y100019D01*
X123994Y100169D01*
X123514D01*
X122974Y99944D01*
X122554Y99569D01*
X122254Y99119D01*
X122014Y98369D01*
X121954Y97694D01*
X122074Y97019D01*
X122254Y96569D01*
X122614Y96119D01*
X123034Y95819D01*
X123454Y95669D01*
X123874D01*
X124294Y95819D01*
X124654Y96044D01*
X124954Y96344D01*
G01X126634Y99419D02*
X126994Y99869D01*
X127414Y100094D01*
X127894Y100169D01*
X128494Y100019D01*
X128914Y99644D01*
X129034Y99194D01*
X128974Y98744D01*
X128734Y98369D01*
X127534Y97619D01*
X126994Y97094D01*
X126634Y96344D01*
X126514Y95669D01*
X129034D01*
G01X130774Y96344D02*
X131134Y95969D01*
X131554Y95744D01*
X132094Y95669D01*
X132634Y95819D01*
X133054Y96119D01*
X133354Y96644D01*
X133414Y97244D01*
X133294Y97844D01*
X132994Y98219D01*
X132574Y98519D01*
X132154Y98594D01*
X131734Y98519D01*
X131194Y98219D01*
X131374Y100169D01*
X132994D01*
G01X135970Y95074D02*
G03X136570Y94474I600J0D01*
G01X135970Y95074D02*
Y100989D01*
G01X136570Y94474D02*
X142121D01*
G01X145280D02*
X150831D01*
G01X124774Y91133D02*
X124414Y91358D01*
X123994Y91508D01*
X123514D01*
X122974Y91283D01*
X122554Y90908D01*
X122254Y90458D01*
X122014Y89708D01*
X121954Y89033D01*
X122074Y88358D01*
X122254Y87908D01*
X122614Y87458D01*
X123034Y87158D01*
X123454Y87008D01*
X123874D01*
X124294Y87158D01*
X124654Y87383D01*
X124954Y87683D01*
G01X126634Y90758D02*
X126994Y91208D01*
X127414Y91433D01*
X127894Y91508D01*
X128494Y91358D01*
X128914Y90983D01*
X129034Y90533D01*
X128974Y90083D01*
X128734Y89708D01*
X127534Y88958D01*
X126994Y88433D01*
X126634Y87683D01*
X126514Y87008D01*
X129034D01*
G01X130954Y90758D02*
X131314Y91208D01*
X131734Y91433D01*
X132214Y91508D01*
X132814Y91358D01*
X133234Y90983D01*
X133354Y90533D01*
X133294Y90083D01*
X133054Y89708D01*
X131854Y88958D01*
X131314Y88433D01*
X130954Y87683D01*
X130834Y87008D01*
X133354D01*
G01X135971Y86413D02*
G03X136571Y85813I600J0D01*
G01Y92928D02*
G03X135971Y92328I0J-600D01*
G01X150832Y92928D02*
X145281D01*
G01X150832Y85813D02*
X145281D01*
G01X135971Y92328D02*
Y86413D01*
G01X142122Y92928D02*
X136571D01*
G01X142122Y85813D02*
X136571D01*
G01X136570Y101589D02*
G03X135970Y100989I0J-600D01*
G01X136570Y101589D02*
X142121D01*
G01X145280D02*
X150831D01*
G01X133829Y144282D02*
X133469Y144507D01*
X133049Y144657D01*
X132569D01*
X132029Y144432D01*
X131609Y144057D01*
X131309Y143607D01*
X131069Y142857D01*
X131009Y142182D01*
X131129Y141507D01*
X131309Y141057D01*
X131669Y140607D01*
X132089Y140307D01*
X132509Y140157D01*
X132929D01*
X133349Y140307D01*
X133709Y140532D01*
X134009Y140832D01*
G01X135689Y143907D02*
X136049Y144357D01*
X136469Y144582D01*
X136949Y144657D01*
X137549Y144507D01*
X137969Y144132D01*
X138089Y143682D01*
X138029Y143232D01*
X137789Y142857D01*
X136589Y142107D01*
X136049Y141582D01*
X135689Y140832D01*
X135569Y140157D01*
X138089D01*
G01X141029D02*
X141149Y141132D01*
X141329Y141957D01*
X141569Y142707D01*
X141869Y143532D01*
X142349Y144657D01*
X139949D01*
G01X128360Y149257D02*
G03X127760Y149857I-600J0D01*
G01X121845D02*
G03X121245Y149257I0J-600D01*
G01X127760Y134396D02*
G03X128360Y134996I0J600D01*
G01X121245D02*
G03X121845Y134396I600J0D01*
G01Y149857D02*
X127760D01*
G01X121245Y149257D02*
Y143706D01*
G01X128360Y149257D02*
Y143706D01*
G01X121845Y134396D02*
X127760D01*
G01X121245Y140547D02*
Y134996D01*
G01X128360Y140547D02*
Y134996D01*
G01X143907Y165748D02*
Y170248D01*
X145407D01*
X145887Y170023D01*
X146187Y169723D01*
X146307Y169123D01*
X146187Y168523D01*
X145827Y168148D01*
X145407Y167923D01*
X143907D01*
G01X145407D02*
X146307Y165748D01*
G01X148107Y166648D02*
X148467Y166123D01*
X148947Y165823D01*
X149487Y165748D01*
X149967Y165823D01*
X150447Y166198D01*
X150747Y166648D01*
X150807Y167098D01*
X150687Y167623D01*
X150267Y167998D01*
X149847Y168148D01*
X149307D01*
G01X149847D02*
X150207Y168373D01*
X150507Y168748D01*
X150627Y169198D01*
X150507Y169648D01*
X150207Y170023D01*
X149667Y170248D01*
X149127Y170173D01*
X148587Y169873D01*
G01X152607Y167623D02*
X153027Y168148D01*
X153387Y168448D01*
X153867Y168598D01*
X154287Y168448D01*
X154587Y168148D01*
X154827Y167698D01*
X154887Y167173D01*
X154827Y166723D01*
X154587Y166273D01*
X154227Y165898D01*
X153807Y165748D01*
X153327Y165898D01*
X152907Y166348D01*
X152667Y167023D01*
X152607Y167773D01*
X152727Y168748D01*
X152907Y169273D01*
X153207Y169798D01*
X153627Y170173D01*
X154047Y170248D01*
X154467Y170098D01*
X154767Y169723D01*
G01X142279Y163846D02*
X147338D01*
G01X142279Y156625D02*
Y163846D01*
G01Y156625D02*
X147338D01*
G01X141885Y194161D02*
X146944D01*
G01X141885Y186940D02*
Y194161D01*
G01Y186940D02*
X146944D01*
G01X131859Y233858D02*
Y238358D01*
X133359D01*
X133839Y238133D01*
X134139Y237833D01*
X134259Y237233D01*
X134139Y236633D01*
X133779Y236258D01*
X133359Y236033D01*
X131859D01*
G01X133359D02*
X134259Y233858D01*
G01X137379D02*
Y238358D01*
X136659Y237458D01*
G01Y233858D02*
X138099D01*
G01X140679Y234383D02*
X141099Y234008D01*
X141579Y233858D01*
X142059Y234008D01*
X142479Y234458D01*
X142779Y235133D01*
X142899Y235808D01*
Y236633D01*
X142779Y237308D01*
X142479Y237908D01*
X142119Y238208D01*
X141699Y238358D01*
X141219Y238208D01*
X140859Y237908D01*
X140619Y237458D01*
X140499Y236858D01*
X140619Y236333D01*
X140919Y235808D01*
X141279Y235508D01*
X141699Y235433D01*
X142179Y235583D01*
X142539Y235958D01*
X142899Y236633D01*
G01X128193Y230247D02*
Y237468D01*
G01X123133Y230247D02*
X128193D01*
G01X134380Y263968D02*
X134020Y264193D01*
X133600Y264343D01*
X133120D01*
X132580Y264118D01*
X132160Y263743D01*
X131860Y263293D01*
X131620Y262543D01*
X131560Y261868D01*
X131680Y261193D01*
X131860Y260743D01*
X132220Y260293D01*
X132640Y259993D01*
X133060Y259843D01*
X133480D01*
X133900Y259993D01*
X134260Y260218D01*
X134560Y260518D01*
G01X137380Y259843D02*
Y264343D01*
X136660Y263443D01*
G01Y259843D02*
X138100D01*
G01X141700Y264343D02*
X141220Y264193D01*
X140860Y263818D01*
X140620Y263368D01*
X140440Y262768D01*
X140380Y262093D01*
X140440Y261418D01*
X140620Y260818D01*
X140860Y260368D01*
X141220Y259993D01*
X141700Y259843D01*
X142180Y259993D01*
X142540Y260368D01*
X142780Y260818D01*
X142960Y261418D01*
X143020Y262093D01*
X142960Y262768D01*
X142780Y263368D01*
X142540Y263818D01*
X142180Y264193D01*
X141700Y264343D01*
G01X128990Y262800D02*
G03X128390Y263400I-600J0D01*
G01Y256285D02*
G03X128990Y256885I0J600D01*
G01D02*
Y262800D01*
G01X122839Y256285D02*
X128390D01*
G01X122839Y263400D02*
X128390D01*
G01X134380Y255306D02*
X134020Y255531D01*
X133600Y255681D01*
X133120D01*
X132580Y255456D01*
X132160Y255081D01*
X131860Y254631D01*
X131620Y253881D01*
X131560Y253206D01*
X131680Y252531D01*
X131860Y252081D01*
X132220Y251631D01*
X132640Y251331D01*
X133060Y251181D01*
X133480D01*
X133900Y251331D01*
X134260Y251556D01*
X134560Y251856D01*
G01X137380Y251181D02*
Y255681D01*
X136660Y254781D01*
G01Y251181D02*
X138100D01*
G01X140380Y252081D02*
X140740Y251556D01*
X141220Y251256D01*
X141760Y251181D01*
X142240Y251256D01*
X142720Y251631D01*
X143020Y252081D01*
X143080Y252531D01*
X142960Y253056D01*
X142540Y253431D01*
X142120Y253581D01*
X141580D01*
G01X142120D02*
X142480Y253806D01*
X142780Y254181D01*
X142900Y254631D01*
X142780Y255081D01*
X142480Y255456D01*
X141940Y255681D01*
X141400Y255606D01*
X140860Y255306D01*
G01X128990Y254138D02*
G03X128390Y254738I-600J0D01*
G01Y247623D02*
G03X128990Y248223I0J600D01*
G01D02*
Y254138D01*
G01X122839Y247623D02*
X128390D01*
G01X122839Y254738D02*
X128390D01*
G01X131859Y242520D02*
Y247020D01*
X133359D01*
X133839Y246795D01*
X134139Y246495D01*
X134259Y245895D01*
X134139Y245295D01*
X133779Y244920D01*
X133359Y244695D01*
X131859D01*
G01X133359D02*
X134259Y242520D01*
G01X137379D02*
Y247020D01*
X136659Y246120D01*
G01Y242520D02*
X138099D01*
G01X141579D02*
X141699Y243495D01*
X141879Y244320D01*
X142119Y245070D01*
X142419Y245895D01*
X142899Y247020D01*
X140499D01*
G01X123133Y246130D02*
X128193D01*
G01Y238909D02*
Y246130D01*
G01X123133Y238909D02*
X128193D01*
G01X123133Y237468D02*
X128193D01*
G01X154005Y38735D02*
Y43794D01*
G01X160192Y68911D02*
G03X159592Y68311I0J-600D01*
G01Y62396D02*
G03X160192Y61796I600J0D01*
G01X175053Y68311D02*
G03X174453Y68911I-600J0D01*
G01Y61796D02*
G03X175053Y62396I0J600D01*
G01X159592D02*
Y68311D01*
G01X160192Y61796D02*
X165743D01*
G01X160192Y68911D02*
X165743D01*
G01X175053Y62396D02*
Y68311D01*
G01X168902Y61796D02*
X174453D01*
G01X168902Y68911D02*
X174453D01*
G01X154005Y47543D02*
Y52602D01*
G01X160389Y70405D02*
Y77626D01*
G01Y70405D02*
X165448D01*
G01X174256D02*
Y77626D01*
G01X169197Y70405D02*
X174256D01*
G01X160389Y60303D02*
X165448D01*
G01X160389Y53082D02*
Y60303D01*
G01Y53082D02*
X165448D01*
G01X169197Y60303D02*
X174256D01*
G01Y53082D02*
Y60303D01*
G01X169197Y53082D02*
X174256D01*
G01X173667Y94474D02*
G03X174267Y95074I0J600D01*
G01X158806D02*
G03X159406Y94474I600J0D01*
G01X174267Y100989D02*
Y95074D01*
G01X173667Y94474D02*
X168115D01*
G01X158806Y100989D02*
Y95074D01*
G01X164956Y94474D02*
X159406D01*
G01X150831D02*
G03X151431Y95074I0J600D01*
G01D02*
Y100989D01*
G01X150832Y85813D02*
G03X151432Y86413I0J600D01*
G01Y92328D02*
G03X150832Y92928I-600J0D01*
G01X151432Y92328D02*
Y86413D01*
G01X160389Y77626D02*
X165448D01*
G01X169197D02*
X174256D01*
G01X172018Y118692D02*
X171658Y118917D01*
X171238Y119067D01*
X170758D01*
X170218Y118842D01*
X169798Y118467D01*
X169498Y118017D01*
X169258Y117267D01*
X169198Y116592D01*
X169318Y115917D01*
X169498Y115467D01*
X169858Y115017D01*
X170278Y114717D01*
X170698Y114567D01*
X171118D01*
X171538Y114717D01*
X171898Y114942D01*
X172198Y115242D01*
G01X173878Y118317D02*
X174238Y118767D01*
X174658Y118992D01*
X175138Y119067D01*
X175738Y118917D01*
X176158Y118542D01*
X176278Y118092D01*
X176218Y117642D01*
X175978Y117267D01*
X174778Y116517D01*
X174238Y115992D01*
X173878Y115242D01*
X173758Y114567D01*
X176278D01*
G01X179338Y119067D02*
X178858Y118917D01*
X178498Y118542D01*
X178258Y118092D01*
X178078Y117492D01*
X178018Y116817D01*
X178078Y116142D01*
X178258Y115542D01*
X178498Y115092D01*
X178858Y114717D01*
X179338Y114567D01*
X179818Y114717D01*
X180178Y115092D01*
X180418Y115542D01*
X180598Y116142D01*
X180658Y116817D01*
X180598Y117492D01*
X180418Y118092D01*
X180178Y118542D01*
X179818Y118917D01*
X179338Y119067D01*
G01X174267Y100989D02*
G03X173667Y101589I-600J0D01*
G01X159406D02*
G03X158806Y100989I0J-600D01*
G01X173667Y101589D02*
X168115D01*
G01X164956D02*
X159406D01*
G01X151431Y100989D02*
G03X150831Y101589I-600J0D01*
G01X171624Y149401D02*
X171264Y149626D01*
X170844Y149776D01*
X170364D01*
X169824Y149551D01*
X169404Y149176D01*
X169104Y148726D01*
X168864Y147976D01*
X168804Y147301D01*
X168924Y146626D01*
X169104Y146176D01*
X169464Y145726D01*
X169884Y145426D01*
X170304Y145276D01*
X170724D01*
X171144Y145426D01*
X171504Y145651D01*
X171804Y145951D01*
G01X173484Y149026D02*
X173844Y149476D01*
X174264Y149701D01*
X174744Y149776D01*
X175344Y149626D01*
X175764Y149251D01*
X175884Y148801D01*
X175824Y148351D01*
X175584Y147976D01*
X174384Y147226D01*
X173844Y146701D01*
X173484Y145951D01*
X173364Y145276D01*
X175884D01*
G01X177624Y146176D02*
X177984Y145651D01*
X178464Y145351D01*
X179004Y145276D01*
X179484Y145351D01*
X179964Y145726D01*
X180264Y146176D01*
X180324Y146626D01*
X180204Y147151D01*
X179784Y147526D01*
X179364Y147676D01*
X178824D01*
G01X179364D02*
X179724Y147901D01*
X180024Y148276D01*
X180144Y148726D01*
X180024Y149176D01*
X179724Y149551D01*
X179184Y149776D01*
X178644Y149701D01*
X178104Y149401D01*
G01X168250Y179800D02*
X169500Y175000D01*
X170750Y179800D01*
G01X172450Y175000D02*
X173700Y179800D01*
X174950Y175000D01*
G01X174500Y176680D02*
X172900D01*
G01X176900Y179800D02*
Y175000D01*
X178900D01*
G01X180850Y179800D02*
X182100Y175000D01*
X183350Y179800D01*
G01X187300Y175000D02*
X185300D01*
Y179800D01*
X187300D01*
G01X186500Y177480D02*
X185300D01*
G01X189000Y173400D02*
X192000D01*
G01X194700Y175000D02*
X194300Y175080D01*
X193950Y175400D01*
X193650Y175880D01*
X193450Y176440D01*
X193350Y177080D01*
Y177720D01*
X193450Y178360D01*
X193650Y178920D01*
X193950Y179400D01*
X194300Y179720D01*
X194700Y179800D01*
X195100Y179720D01*
X195450Y179400D01*
X195750Y178920D01*
X195950Y178360D01*
X196050Y177720D01*
Y177080D01*
X195950Y176440D01*
X195750Y175880D01*
X195450Y175400D01*
X195100Y175080D01*
X194700Y175000D01*
G01X197750D02*
Y179800D01*
X200050Y175000D01*
Y179800D01*
G01X162175Y170267D02*
X161815Y170492D01*
X161395Y170642D01*
X160915D01*
X160375Y170417D01*
X159955Y170042D01*
X159655Y169592D01*
X159415Y168842D01*
X159355Y168167D01*
X159475Y167492D01*
X159655Y167042D01*
X160015Y166592D01*
X160435Y166292D01*
X160855Y166142D01*
X161275D01*
X161695Y166292D01*
X162055Y166517D01*
X162355Y166817D01*
G01X164035Y169892D02*
X164395Y170342D01*
X164815Y170567D01*
X165295Y170642D01*
X165895Y170492D01*
X166315Y170117D01*
X166435Y169667D01*
X166375Y169217D01*
X166135Y168842D01*
X164935Y168092D01*
X164395Y167567D01*
X164035Y166817D01*
X163915Y166142D01*
X166435D01*
G01X169495D02*
X169915Y166217D01*
X170395Y166442D01*
X170695Y166817D01*
X170815Y167342D01*
X170695Y167867D01*
X170335Y168317D01*
X169795Y168542D01*
X169195D01*
X168835Y168692D01*
X168535Y169067D01*
X168415Y169592D01*
X168595Y170117D01*
X169015Y170492D01*
X169495Y170642D01*
X169975Y170492D01*
X170395Y170117D01*
X170575Y169592D01*
X170455Y169067D01*
X170155Y168692D01*
X169795Y168542D01*
X169195D01*
X168655Y168317D01*
X168295Y167867D01*
X168175Y167342D01*
X168295Y166817D01*
X168595Y166442D01*
X169075Y166217D01*
X169495Y166142D01*
G01X172879Y156679D02*
G03X173479Y157279I0J600D01*
G01Y163194D02*
G03X172879Y163794I-600J0D01*
G01X158018Y157279D02*
G03X158618Y156679I600J0D01*
G01Y163794D02*
G03X158018Y163194I0J-600D01*
G01X173479D02*
Y157279D01*
G01X172879Y163794D02*
X167328D01*
G01X172879Y156679D02*
X167328D01*
G01X158018Y163194D02*
Y157279D01*
G01X164169Y163794D02*
X158618D01*
G01X164169Y156679D02*
X158618D01*
G01X151087Y163846D02*
X156146D01*
G01Y156625D02*
Y163846D01*
G01X151087Y156625D02*
X156146D01*
G01X159655Y188189D02*
Y192689D01*
X161155D01*
X161635Y192464D01*
X161935Y192164D01*
X162055Y191564D01*
X161935Y190964D01*
X161575Y190589D01*
X161155Y190364D01*
X159655D01*
G01X161155D02*
X162055Y188189D01*
G01X165895D02*
Y192689D01*
X163675Y189464D01*
X166675D01*
G01X150693Y194161D02*
X155752D01*
G01Y186940D02*
Y194161D01*
G01X150693Y186940D02*
X155752D01*
G01X160047Y199902D02*
Y204402D01*
X161247D01*
X161727Y204177D01*
X162087Y203877D01*
X162387Y203427D01*
X162627Y202902D01*
X162687Y202152D01*
X162627Y201402D01*
X162387Y200877D01*
X162087Y200427D01*
X161727Y200127D01*
X161247Y199902D01*
X160047D01*
G01X164547Y201777D02*
X164967Y202302D01*
X165327Y202602D01*
X165807Y202752D01*
X166227Y202602D01*
X166527Y202302D01*
X166767Y201852D01*
X166827Y201327D01*
X166767Y200877D01*
X166527Y200427D01*
X166167Y200052D01*
X165747Y199902D01*
X165267Y200052D01*
X164847Y200502D01*
X164607Y201177D01*
X164547Y201927D01*
X164667Y202902D01*
X164847Y203427D01*
X165147Y203952D01*
X165567Y204327D01*
X165987Y204402D01*
X166407Y204252D01*
X166707Y203877D01*
G01X175126Y224390D02*
X170067D01*
G01Y231611D02*
Y224390D01*
G01X175126Y231611D02*
X170067D01*
G01X168868Y235039D02*
Y239539D01*
X170368D01*
X170848Y239314D01*
X171148Y239014D01*
X171268Y238414D01*
X171148Y237814D01*
X170788Y237439D01*
X170368Y237214D01*
X168868D01*
G01X170368D02*
X171268Y235039D01*
G01X174388D02*
Y239539D01*
X173668Y238639D01*
G01Y235039D02*
X175108D01*
G01X177388Y235714D02*
X177748Y235339D01*
X178168Y235114D01*
X178708Y235039D01*
X179248Y235189D01*
X179668Y235489D01*
X179968Y236014D01*
X180028Y236614D01*
X179908Y237214D01*
X179608Y237589D01*
X179188Y237889D01*
X178768Y237964D01*
X178348Y237889D01*
X177808Y237589D01*
X177988Y239539D01*
X179608D01*
G01X151334Y231428D02*
Y238649D01*
G01Y231428D02*
X156393D01*
G01X165201D02*
Y238649D01*
G01X160142Y231428D02*
X165201D01*
G01X168868Y252362D02*
Y256862D01*
X170368D01*
X170848Y256637D01*
X171148Y256337D01*
X171268Y255737D01*
X171148Y255137D01*
X170788Y254762D01*
X170368Y254537D01*
X168868D01*
G01X170368D02*
X171268Y252362D01*
G01X173248Y256112D02*
X173608Y256562D01*
X174028Y256787D01*
X174508Y256862D01*
X175108Y256712D01*
X175528Y256337D01*
X175648Y255887D01*
X175588Y255437D01*
X175348Y255062D01*
X174148Y254312D01*
X173608Y253787D01*
X173248Y253037D01*
X173128Y252362D01*
X175648D01*
G01X177388Y253262D02*
X177748Y252737D01*
X178228Y252437D01*
X178768Y252362D01*
X179248Y252437D01*
X179728Y252812D01*
X180028Y253262D01*
X180088Y253712D01*
X179968Y254237D01*
X179548Y254612D01*
X179128Y254762D01*
X178588D01*
G01X179128D02*
X179488Y254987D01*
X179788Y255362D01*
X179908Y255812D01*
X179788Y256262D01*
X179488Y256637D01*
X178948Y256862D01*
X178408Y256787D01*
X177868Y256487D01*
G01X151334Y255972D02*
X156393D01*
G01X151334Y248751D02*
Y255972D01*
G01Y248751D02*
X156393D01*
G01X160142Y255972D02*
X165201D01*
G01Y248751D02*
Y255972D01*
G01X160142Y248751D02*
X165201D01*
G01X168868Y243701D02*
Y248201D01*
X170368D01*
X170848Y247976D01*
X171148Y247676D01*
X171268Y247076D01*
X171148Y246476D01*
X170788Y246101D01*
X170368Y245876D01*
X168868D01*
G01X170368D02*
X171268Y243701D01*
G01X173248Y247451D02*
X173608Y247901D01*
X174028Y248126D01*
X174508Y248201D01*
X175108Y248051D01*
X175528Y247676D01*
X175648Y247226D01*
X175588Y246776D01*
X175348Y246401D01*
X174148Y245651D01*
X173608Y245126D01*
X173248Y244376D01*
X173128Y243701D01*
X175648D01*
G01X179428D02*
Y248201D01*
X177208Y244976D01*
X180208D01*
G01X151334Y247311D02*
X156393D01*
G01X151334Y240090D02*
Y247311D01*
G01Y240090D02*
X156393D01*
G01X160142Y247311D02*
X165201D01*
G01Y240090D02*
Y247311D01*
G01X160142Y240090D02*
X165201D01*
G01X151334Y238649D02*
X156393D01*
G01X160142D02*
X165201D01*
G01X150323Y382467D02*
X150435Y379244D01*
X150699Y378578D01*
X151194Y378145D01*
X151799Y378016D01*
X152393Y378187D01*
X152857Y378653D01*
X153074Y379336D01*
X152961Y382559D01*
G01X156835Y378192D02*
X156678Y382689D01*
X154572Y379389D01*
X157571Y379493D01*
G01X189513Y69483D02*
G03X190113Y68883I600J0D01*
G01X189513Y69483D02*
Y75398D01*
G01X190113Y68883D02*
X195664D01*
G01X198823D02*
X204374D01*
G01X180679Y66330D02*
X180319Y66555D01*
X179899Y66705D01*
X179419D01*
X178879Y66480D01*
X178459Y66105D01*
X178159Y65655D01*
X177919Y64905D01*
X177859Y64230D01*
X177979Y63555D01*
X178159Y63105D01*
X178519Y62655D01*
X178939Y62355D01*
X179359Y62205D01*
X179779D01*
X180199Y62355D01*
X180559Y62580D01*
X180859Y62880D01*
G01X182659Y62730D02*
X183079Y62355D01*
X183559Y62205D01*
X184039Y62355D01*
X184459Y62805D01*
X184759Y63480D01*
X184879Y64155D01*
Y64980D01*
X184759Y65655D01*
X184459Y66255D01*
X184099Y66555D01*
X183679Y66705D01*
X183199Y66555D01*
X182839Y66255D01*
X182599Y65805D01*
X182479Y65205D01*
X182599Y64680D01*
X182899Y64155D01*
X183259Y63855D01*
X183679Y63780D01*
X184159Y63930D01*
X184519Y64305D01*
X184879Y64980D01*
G01X190310Y65815D02*
X195369D01*
G01X190310Y58594D02*
Y65815D01*
G01Y58594D02*
X195369D01*
G01X199118Y65815D02*
X204177D01*
G01X199118Y58594D02*
X204177D01*
G01X176584Y71654D02*
Y76154D01*
X178084D01*
X178564Y75929D01*
X178864Y75629D01*
X178984Y75029D01*
X178864Y74429D01*
X178504Y74054D01*
X178084Y73829D01*
X176584D01*
G01X178084D02*
X178984Y71654D01*
G01X182104D02*
Y76154D01*
X181384Y75254D01*
G01Y71654D02*
X182824D01*
G01X185104Y72554D02*
X185464Y72029D01*
X185944Y71729D01*
X186484Y71654D01*
X186964Y71729D01*
X187444Y72104D01*
X187744Y72554D01*
X187804Y73004D01*
X187684Y73529D01*
X187264Y73904D01*
X186844Y74054D01*
X186304D01*
G01X186844D02*
X187204Y74279D01*
X187504Y74654D01*
X187624Y75104D01*
X187504Y75554D01*
X187204Y75929D01*
X186664Y76154D01*
X186124Y76079D01*
X185584Y75779D01*
G01X176978Y53543D02*
Y58043D01*
X178478D01*
X178958Y57818D01*
X179258Y57518D01*
X179378Y56918D01*
X179258Y56318D01*
X178898Y55943D01*
X178478Y55718D01*
X176978D01*
G01X178478D02*
X179378Y53543D01*
G01X182498D02*
Y58043D01*
X181778Y57143D01*
G01Y53543D02*
X183218D01*
G01X187538D02*
Y58043D01*
X185318Y54818D01*
X188318D01*
G01X179892Y98613D02*
X179532Y98838D01*
X179112Y98988D01*
X178632D01*
X178092Y98763D01*
X177672Y98388D01*
X177372Y97938D01*
X177132Y97188D01*
X177072Y96513D01*
X177192Y95838D01*
X177372Y95388D01*
X177732Y94938D01*
X178152Y94638D01*
X178572Y94488D01*
X178992D01*
X179412Y94638D01*
X179772Y94863D01*
X180072Y95163D01*
G01X181752Y98238D02*
X182112Y98688D01*
X182532Y98913D01*
X183012Y98988D01*
X183612Y98838D01*
X184032Y98463D01*
X184152Y98013D01*
X184092Y97563D01*
X183852Y97188D01*
X182652Y96438D01*
X182112Y95913D01*
X181752Y95163D01*
X181632Y94488D01*
X184152D01*
G01X186072Y96363D02*
X186492Y96888D01*
X186852Y97188D01*
X187332Y97338D01*
X187752Y97188D01*
X188052Y96888D01*
X188292Y96438D01*
X188352Y95913D01*
X188292Y95463D01*
X188052Y95013D01*
X187692Y94638D01*
X187272Y94488D01*
X186792Y94638D01*
X186372Y95088D01*
X186132Y95763D01*
X186072Y96513D01*
X186192Y97488D01*
X186372Y98013D01*
X186672Y98538D01*
X187092Y98913D01*
X187512Y98988D01*
X187932Y98838D01*
X188232Y98463D01*
G01X190113Y75998D02*
G03X189513Y75398I0J-600D01*
G01X190113Y75998D02*
X195664D01*
G01X198823D02*
X204374D01*
G01X183057Y109798D02*
G03X183657Y109198I600J0D01*
G01X189572D02*
G03X190172Y109798I0J600D01*
G01X183657Y124659D02*
G03X183057Y124059I0J-600D01*
G01X190172D02*
G03X189572Y124659I-600J0D01*
G01Y109198D02*
X183657D01*
G01X190172Y109798D02*
Y115349D01*
G01X183057Y109798D02*
Y115349D01*
G01X189572Y124659D02*
X183657D01*
G01X190172Y118508D02*
Y124059D01*
G01X183057Y118508D02*
Y124059D01*
G01X192096Y106881D02*
X191736Y107106D01*
X191316Y107256D01*
X190836D01*
X190296Y107031D01*
X189876Y106656D01*
X189576Y106206D01*
X189336Y105456D01*
X189276Y104781D01*
X189396Y104106D01*
X189576Y103656D01*
X189936Y103206D01*
X190356Y102906D01*
X190776Y102756D01*
X191196D01*
X191616Y102906D01*
X191976Y103131D01*
X192276Y103431D01*
G01X193956Y106506D02*
X194316Y106956D01*
X194736Y107181D01*
X195216Y107256D01*
X195816Y107106D01*
X196236Y106731D01*
X196356Y106281D01*
X196296Y105831D01*
X196056Y105456D01*
X194856Y104706D01*
X194316Y104181D01*
X193956Y103431D01*
X193836Y102756D01*
X196356D01*
G01X199416D02*
Y107256D01*
X198696Y106356D01*
G01Y102756D02*
X200136D01*
G01X191325Y109798D02*
G03X191925Y109198I600J0D01*
G01X197840D02*
G03X198440Y109798I0J600D01*
G01X191925Y124659D02*
G03X191325Y124059I0J-600D01*
G01X198440D02*
G03X197840Y124659I-600J0D01*
G01Y109198D02*
X191925D01*
G01X198440Y109798D02*
Y115349D01*
G01X191325Y109798D02*
Y115349D01*
G01X197840Y124659D02*
X191925D01*
G01X198440Y118508D02*
Y124059D01*
G01X191325Y118508D02*
Y124059D01*
G01X201387Y129303D02*
Y124803D01*
X203787D01*
G01X206907D02*
Y129303D01*
X206187Y128403D01*
G01Y124803D02*
X207627D01*
G01X201111Y111322D02*
X200511Y111922D01*
G01X205114Y111322D02*
X201111D01*
G01X205114Y122482D02*
X201111D01*
G01X200511Y121883D02*
X201111Y122482D01*
G01X183057Y140507D02*
G03X183657Y139907I600J0D01*
G01X189572D02*
G03X190172Y140507I0J600D01*
G01X189572Y139907D02*
X183657D01*
G01X190172Y140507D02*
Y146058D01*
G01X183057Y140507D02*
Y146058D01*
G01X190172Y149217D02*
Y154768D01*
G01X183057Y149217D02*
Y154768D01*
G01X192490Y137590D02*
X192130Y137815D01*
X191710Y137965D01*
X191230D01*
X190690Y137740D01*
X190270Y137365D01*
X189970Y136915D01*
X189730Y136165D01*
X189670Y135490D01*
X189790Y134815D01*
X189970Y134365D01*
X190330Y133915D01*
X190750Y133615D01*
X191170Y133465D01*
X191590D01*
X192010Y133615D01*
X192370Y133840D01*
X192670Y134140D01*
G01X194350Y137215D02*
X194710Y137665D01*
X195130Y137890D01*
X195610Y137965D01*
X196210Y137815D01*
X196630Y137440D01*
X196750Y136990D01*
X196690Y136540D01*
X196450Y136165D01*
X195250Y135415D01*
X194710Y134890D01*
X194350Y134140D01*
X194230Y133465D01*
X196750D01*
G01X200530D02*
Y137965D01*
X198310Y134740D01*
X201310D01*
G01X191325Y140507D02*
G03X191925Y139907I600J0D01*
G01X197840D02*
G03X198440Y140507I0J600D01*
G01X197840Y139907D02*
X191925D01*
G01X198440Y140507D02*
Y146058D01*
G01X191325Y140507D02*
Y146058D01*
G01X198440Y149217D02*
Y154768D01*
G01X191325Y149217D02*
Y154768D01*
G01X199540Y140704D02*
Y145763D01*
G01X206761Y140704D02*
X199540D01*
G01Y149512D02*
Y154571D01*
G01X183657Y155368D02*
G03X183057Y154768I0J-600D01*
G01X190172D02*
G03X189572Y155368I-600J0D01*
G01D02*
X183657D01*
G01X191925D02*
G03X191325Y154768I0J-600D01*
G01X198440D02*
G03X197840Y155368I-600J0D01*
G01D02*
X191925D01*
G01X197450Y157480D02*
Y161980D01*
X198950D01*
X199430Y161755D01*
X199730Y161455D01*
X199850Y160855D01*
X199730Y160255D01*
X199370Y159880D01*
X198950Y159655D01*
X197450D01*
G01X198950D02*
X199850Y157480D01*
G01X201650Y158380D02*
X202010Y157855D01*
X202490Y157555D01*
X203030Y157480D01*
X203510Y157555D01*
X203990Y157930D01*
X204290Y158380D01*
X204350Y158830D01*
X204230Y159355D01*
X203810Y159730D01*
X203390Y159880D01*
X202850D01*
G01X203390D02*
X203750Y160105D01*
X204050Y160480D01*
X204170Y160930D01*
X204050Y161380D01*
X203750Y161755D01*
X203210Y161980D01*
X202670Y161905D01*
X202130Y161605D01*
G01X205970Y158155D02*
X206330Y157780D01*
X206750Y157555D01*
X207290Y157480D01*
X207830Y157630D01*
X208250Y157930D01*
X208550Y158455D01*
X208610Y159055D01*
X208490Y159655D01*
X208190Y160030D01*
X207770Y160330D01*
X207350Y160405D01*
X206930Y160330D01*
X206390Y160030D01*
X206570Y161980D01*
X208190D01*
G01X206761Y154571D02*
X199540D01*
G01X194574Y194488D02*
Y198988D01*
X195774D01*
X196254Y198763D01*
X196614Y198463D01*
X196914Y198013D01*
X197154Y197488D01*
X197214Y196738D01*
X197154Y195988D01*
X196914Y195463D01*
X196614Y195013D01*
X196254Y194713D01*
X195774Y194488D01*
X194574D01*
G01X200094D02*
X200214Y195463D01*
X200394Y196288D01*
X200634Y197038D01*
X200934Y197863D01*
X201414Y198988D01*
X199014D01*
G01X188263Y226031D02*
Y231031D01*
X189847D01*
X190353Y230781D01*
X190670Y230448D01*
X190797Y229781D01*
X190670Y229114D01*
X190290Y228698D01*
X189847Y228448D01*
X188263D01*
G01X189847D02*
X190797Y226031D01*
G01X194630D02*
Y231031D01*
X193870Y230031D01*
G01Y226031D02*
X195390D01*
G01X183934Y224390D02*
X178875D01*
G01X183934Y231611D02*
Y224390D01*
G01Y231611D02*
X178875D01*
G01X217930Y27138D02*
X219370D01*
G01X218650D02*
Y22638D01*
G01X217930D02*
X219370D01*
G01X221770D02*
Y27138D01*
X223270D01*
X223750Y26913D01*
X224050Y26613D01*
X224170Y26013D01*
X224050Y25413D01*
X223690Y25038D01*
X223270Y24813D01*
X221770D01*
G01X223270D02*
X224170Y22638D01*
G01X227290D02*
Y27138D01*
X226570Y26238D01*
G01Y22638D02*
X228010D01*
G01X210207Y74597D02*
X209847Y74822D01*
X209427Y74972D01*
X208947D01*
X208407Y74747D01*
X207987Y74372D01*
X207687Y73922D01*
X207447Y73172D01*
X207387Y72497D01*
X207507Y71822D01*
X207687Y71372D01*
X208047Y70922D01*
X208467Y70622D01*
X208887Y70472D01*
X209307D01*
X209727Y70622D01*
X210087Y70847D01*
X210387Y71147D01*
G01X213087Y70472D02*
X213207Y71447D01*
X213387Y72272D01*
X213627Y73022D01*
X213927Y73847D01*
X214407Y74972D01*
X212007D01*
G01X204374Y68883D02*
G03X204974Y69483I0J600D01*
G01D02*
Y75398D01*
G01X207293Y59843D02*
Y64343D01*
X208793D01*
X209273Y64118D01*
X209573Y63818D01*
X209693Y63218D01*
X209573Y62618D01*
X209213Y62243D01*
X208793Y62018D01*
X207293D01*
G01X208793D02*
X209693Y59843D01*
G01X211673Y61718D02*
X212093Y62243D01*
X212453Y62543D01*
X212933Y62693D01*
X213353Y62543D01*
X213653Y62243D01*
X213893Y61793D01*
X213953Y61268D01*
X213893Y60818D01*
X213653Y60368D01*
X213293Y59993D01*
X212873Y59843D01*
X212393Y59993D01*
X211973Y60443D01*
X211733Y61118D01*
X211673Y61868D01*
X211793Y62843D01*
X211973Y63368D01*
X212273Y63893D01*
X212693Y64268D01*
X213113Y64343D01*
X213533Y64193D01*
X213833Y63818D01*
G01X204177Y58594D02*
Y65815D01*
G01X221860Y73341D02*
X222160Y72891D01*
X222520Y72591D01*
X222940Y72441D01*
X223420Y72591D01*
X223780Y72891D01*
X224140Y73341D01*
X224260Y73941D01*
Y76941D01*
G01X226240Y74316D02*
X226660Y74841D01*
X227020Y75141D01*
X227500Y75291D01*
X227920Y75141D01*
X228220Y74841D01*
X228460Y74391D01*
X228520Y73866D01*
X228460Y73416D01*
X228220Y72966D01*
X227860Y72591D01*
X227440Y72441D01*
X226960Y72591D01*
X226540Y73041D01*
X226300Y73716D01*
X226240Y74466D01*
X226360Y75441D01*
X226540Y75966D01*
X226840Y76491D01*
X227260Y76866D01*
X227680Y76941D01*
X228100Y76791D01*
X228400Y76416D01*
G01X204974Y75398D02*
G03X204374Y75998I-600J0D01*
G01X205114Y111322D02*
X205714Y111922D01*
G01Y121883D02*
X205114Y122482D01*
G01X206761Y140704D02*
Y145763D01*
G01Y149512D02*
Y154571D01*
G01X215579Y200296D02*
Y204796D01*
X216779D01*
X217259Y204571D01*
X217619Y204271D01*
X217919Y203821D01*
X218159Y203296D01*
X218219Y202546D01*
X218159Y201796D01*
X217919Y201271D01*
X217619Y200821D01*
X217259Y200521D01*
X216779Y200296D01*
X215579D01*
G01X219899Y200971D02*
X220259Y200596D01*
X220679Y200371D01*
X221219Y200296D01*
X221759Y200446D01*
X222179Y200746D01*
X222479Y201271D01*
X222539Y201871D01*
X222419Y202471D01*
X222119Y202846D01*
X221699Y203146D01*
X221279Y203221D01*
X220859Y203146D01*
X220319Y202846D01*
X220499Y204796D01*
X222119D01*
G01X223435Y278065D02*
X223735Y277615D01*
X224095Y277315D01*
X224515Y277165D01*
X224995Y277315D01*
X225355Y277615D01*
X225715Y278065D01*
X225835Y278665D01*
Y281665D01*
G01X228835Y277165D02*
X228955Y278140D01*
X229135Y278965D01*
X229375Y279715D01*
X229675Y280540D01*
X230155Y281665D01*
X227755D01*
G01X256450Y106000D02*
Y110800D01*
G01X258550D02*
Y106000D01*
G01Y108400D02*
X256450D01*
G01X262700Y106000D02*
X260700D01*
Y110800D01*
X262700D01*
G01X261900Y108480D02*
X260700D01*
G01X264900Y110800D02*
Y106000D01*
X266900D01*
G01X269100D02*
Y110800D01*
X270300D01*
X270700Y110560D01*
X271000Y110000D01*
X271100Y109360D01*
X271000Y108720D01*
X270750Y108240D01*
X270300Y108000D01*
X269100D01*
G01X238122Y121413D02*
Y126472D01*
G01X245343Y121413D02*
X238122D01*
G01X245343D02*
Y126472D01*
G01X257627Y142726D02*
X258107Y142351D01*
X258647Y142126D01*
X259127D01*
X259607Y142351D01*
X259967Y142726D01*
X260147Y143251D01*
X260027Y143776D01*
X259727Y144226D01*
X259187Y144526D01*
X258467Y144676D01*
X258047Y144976D01*
X257867Y145501D01*
X257987Y146026D01*
X258287Y146401D01*
X258707Y146626D01*
X259127D01*
X259547Y146476D01*
X259907Y146101D01*
G01X261407Y146626D02*
X262247Y142126D01*
X263207Y146626D01*
X264167Y142126D01*
X265007Y146626D01*
G01X266387Y145876D02*
X266747Y146326D01*
X267167Y146551D01*
X267647Y146626D01*
X268247Y146476D01*
X268667Y146101D01*
X268787Y145651D01*
X268727Y145201D01*
X268487Y144826D01*
X267287Y144076D01*
X266747Y143551D01*
X266387Y142801D01*
X266267Y142126D01*
X268787D01*
G01X234065Y137795D02*
Y142295D01*
X235565D01*
X236045Y142070D01*
X236345Y141770D01*
X236465Y141170D01*
X236345Y140570D01*
X235985Y140195D01*
X235565Y139970D01*
X234065D01*
G01X235565D02*
X236465Y137795D01*
G01X238445Y141545D02*
X238805Y141995D01*
X239225Y142220D01*
X239705Y142295D01*
X240305Y142145D01*
X240725Y141770D01*
X240845Y141320D01*
X240785Y140870D01*
X240545Y140495D01*
X239345Y139745D01*
X238805Y139220D01*
X238445Y138470D01*
X238325Y137795D01*
X240845D01*
G01X242885Y138320D02*
X243305Y137945D01*
X243785Y137795D01*
X244265Y137945D01*
X244685Y138395D01*
X244985Y139070D01*
X245105Y139745D01*
Y140570D01*
X244985Y141245D01*
X244685Y141845D01*
X244325Y142145D01*
X243905Y142295D01*
X243425Y142145D01*
X243065Y141845D01*
X242825Y141395D01*
X242705Y140795D01*
X242825Y140270D01*
X243125Y139745D01*
X243485Y139445D01*
X243905Y139370D01*
X244385Y139520D01*
X244745Y139895D01*
X245105Y140570D01*
G01X238122Y130220D02*
Y135280D01*
G01X245343D02*
X238122D01*
G01X245343Y130220D02*
Y135280D01*
G01X259025Y174803D02*
Y179303D01*
X260525D01*
X261005Y179078D01*
X261305Y178778D01*
X261425Y178178D01*
X261305Y177578D01*
X260945Y177203D01*
X260525Y176978D01*
X259025D01*
G01X260525D02*
X261425Y174803D01*
G01X263225Y175478D02*
X263585Y175103D01*
X264005Y174878D01*
X264545Y174803D01*
X265085Y174953D01*
X265505Y175253D01*
X265805Y175778D01*
X265865Y176378D01*
X265745Y176978D01*
X265445Y177353D01*
X265025Y177653D01*
X264605Y177728D01*
X264185Y177653D01*
X263645Y177353D01*
X263825Y179303D01*
X265445D01*
G01X241491Y178413D02*
X246550D01*
G01X241491Y171192D02*
Y178413D01*
G01Y171192D02*
X246550D01*
G01X250299Y178413D02*
X255358D01*
G01Y171192D02*
Y178413D01*
G01X250299Y171192D02*
X255358D01*
G01X258118Y197402D02*
Y201902D01*
X259318D01*
X259798Y201677D01*
X260158Y201377D01*
X260458Y200927D01*
X260698Y200402D01*
X260758Y199652D01*
X260698Y198902D01*
X260458Y198377D01*
X260158Y197927D01*
X259798Y197627D01*
X259318Y197402D01*
X258118D01*
G01X264478D02*
Y201902D01*
X262258Y198677D01*
X265258D01*
G01X248184Y286153D02*
Y293374D01*
G01Y286153D02*
X253243D01*
G01X256992D02*
X262051D01*
G01X258567Y275766D02*
Y279352D01*
G01X251668Y271511D02*
Y275612D01*
G01Y271511D02*
X258567D01*
G01X251668Y279506D02*
Y283607D01*
G01D02*
X258567D01*
G01X248184Y310696D02*
X253243D01*
G01X248184Y303476D02*
Y310696D01*
G01Y303476D02*
X253243D01*
G01X256992Y310696D02*
X262051D01*
G01X256992Y303476D02*
X262051D01*
G01X248184Y302035D02*
X253243D01*
G01X248184Y294814D02*
Y302035D01*
G01Y294814D02*
X253243D01*
G01X256992Y302035D02*
X262051D01*
G01X256992Y294814D02*
X262051D01*
G01X248184Y293374D02*
X253243D01*
G01X256992D02*
X262051D01*
G01X231740Y306063D02*
Y310563D01*
X232940D01*
X233420Y310338D01*
X233780Y310038D01*
X234080Y309588D01*
X234320Y309063D01*
X234380Y308313D01*
X234320Y307563D01*
X234080Y307038D01*
X233780Y306588D01*
X233420Y306288D01*
X232940Y306063D01*
X231740D01*
G01X237380D02*
X237800Y306138D01*
X238280Y306363D01*
X238580Y306738D01*
X238700Y307263D01*
X238580Y307788D01*
X238220Y308238D01*
X237680Y308463D01*
X237080D01*
X236720Y308613D01*
X236420Y308988D01*
X236300Y309513D01*
X236480Y310038D01*
X236900Y310413D01*
X237380Y310563D01*
X237860Y310413D01*
X238280Y310038D01*
X238460Y309513D01*
X238340Y308988D01*
X238040Y308613D01*
X237680Y308463D01*
X237080D01*
X236540Y308238D01*
X236180Y307788D01*
X236060Y307263D01*
X236180Y306738D01*
X236480Y306363D01*
X236960Y306138D01*
X237380Y306063D01*
G01X232096Y377559D02*
Y382059D01*
X233596D01*
X234076Y381834D01*
X234376Y381534D01*
X234496Y380934D01*
X234376Y380334D01*
X234016Y379959D01*
X233596Y379734D01*
X232096D01*
G01X233596D02*
X234496Y377559D01*
G01X236416Y382059D02*
Y377559D01*
X238816D01*
G01X241936D02*
Y382059D01*
X241216Y381159D01*
G01Y377559D02*
X242656D01*
G01X265718Y289764D02*
Y294264D01*
X267218D01*
X267698Y294039D01*
X267998Y293739D01*
X268118Y293139D01*
X267998Y292539D01*
X267638Y292164D01*
X267218Y291939D01*
X265718D01*
G01X267218D02*
X268118Y289764D01*
G01X270098Y293514D02*
X270458Y293964D01*
X270878Y294189D01*
X271358Y294264D01*
X271958Y294114D01*
X272378Y293739D01*
X272498Y293289D01*
X272438Y292839D01*
X272198Y292464D01*
X270998Y291714D01*
X270458Y291189D01*
X270098Y290439D01*
X269978Y289764D01*
X272498D01*
G01X275438D02*
X275558Y290739D01*
X275738Y291564D01*
X275978Y292314D01*
X276278Y293139D01*
X276758Y294264D01*
X274358D01*
G01X262051Y286153D02*
Y293374D01*
G01X266918Y277559D02*
X266438Y277634D01*
X266018Y277934D01*
X265658Y278384D01*
X265418Y278909D01*
X265298Y279509D01*
Y280109D01*
X265418Y280709D01*
X265658Y281234D01*
X266018Y281684D01*
X266438Y281984D01*
X266918Y282059D01*
X267398Y281984D01*
X267818Y281684D01*
X268178Y281234D01*
X268418Y280709D01*
X268538Y280109D01*
Y279509D01*
X268418Y278909D01*
X268178Y278384D01*
X267818Y277934D01*
X267398Y277634D01*
X266918Y277559D01*
G01X267398Y278759D02*
X268118Y277559D01*
G01X269918Y278459D02*
X270278Y277934D01*
X270758Y277634D01*
X271298Y277559D01*
X271778Y277634D01*
X272258Y278009D01*
X272558Y278459D01*
X272618Y278909D01*
X272498Y279434D01*
X272078Y279809D01*
X271658Y279959D01*
X271118D01*
G01X271658D02*
X272018Y280184D01*
X272318Y280559D01*
X272438Y281009D01*
X272318Y281459D01*
X272018Y281834D01*
X271478Y282059D01*
X270938Y281984D01*
X270398Y281684D01*
G01X265718Y307087D02*
Y311587D01*
X267218D01*
X267698Y311362D01*
X267998Y311062D01*
X268118Y310462D01*
X267998Y309862D01*
X267638Y309487D01*
X267218Y309262D01*
X265718D01*
G01X267218D02*
X268118Y307087D01*
G01X270098Y310837D02*
X270458Y311287D01*
X270878Y311512D01*
X271358Y311587D01*
X271958Y311437D01*
X272378Y311062D01*
X272498Y310612D01*
X272438Y310162D01*
X272198Y309787D01*
X270998Y309037D01*
X270458Y308512D01*
X270098Y307762D01*
X269978Y307087D01*
X272498D01*
G01X274238Y307762D02*
X274598Y307387D01*
X275018Y307162D01*
X275558Y307087D01*
X276098Y307237D01*
X276518Y307537D01*
X276818Y308062D01*
X276878Y308662D01*
X276758Y309262D01*
X276458Y309637D01*
X276038Y309937D01*
X275618Y310012D01*
X275198Y309937D01*
X274658Y309637D01*
X274838Y311587D01*
X276458D01*
G01X262051Y303476D02*
Y310696D01*
G01X265718Y298425D02*
Y302925D01*
X267218D01*
X267698Y302700D01*
X267998Y302400D01*
X268118Y301800D01*
X267998Y301200D01*
X267638Y300825D01*
X267218Y300600D01*
X265718D01*
G01X267218D02*
X268118Y298425D01*
G01X270098Y302175D02*
X270458Y302625D01*
X270878Y302850D01*
X271358Y302925D01*
X271958Y302775D01*
X272378Y302400D01*
X272498Y301950D01*
X272438Y301500D01*
X272198Y301125D01*
X270998Y300375D01*
X270458Y299850D01*
X270098Y299100D01*
X269978Y298425D01*
X272498D01*
G01X274418Y300300D02*
X274838Y300825D01*
X275198Y301125D01*
X275678Y301275D01*
X276098Y301125D01*
X276398Y300825D01*
X276638Y300375D01*
X276698Y299850D01*
X276638Y299400D01*
X276398Y298950D01*
X276038Y298575D01*
X275618Y298425D01*
X275138Y298575D01*
X274718Y299025D01*
X274478Y299700D01*
X274418Y300450D01*
X274538Y301425D01*
X274718Y301950D01*
X275018Y302475D01*
X275438Y302850D01*
X275858Y302925D01*
X276278Y302775D01*
X276578Y302400D01*
G01X262051Y294814D02*
Y302035D01*
G01X286820Y197357D02*
X287120Y196907D01*
X287480Y196607D01*
X287900Y196457D01*
X288380Y196607D01*
X288740Y196907D01*
X289100Y197357D01*
X289220Y197957D01*
Y200957D01*
G01X291200Y200207D02*
X291560Y200657D01*
X291980Y200882D01*
X292460Y200957D01*
X293060Y200807D01*
X293480Y200432D01*
X293600Y199982D01*
X293540Y199532D01*
X293300Y199157D01*
X292100Y198407D01*
X291560Y197882D01*
X291200Y197132D01*
X291080Y196457D01*
X293600D01*
G01X287608Y247357D02*
X287908Y246907D01*
X288268Y246607D01*
X288688Y246457D01*
X289168Y246607D01*
X289528Y246907D01*
X289888Y247357D01*
X290008Y247957D01*
Y250957D01*
G01X291808Y247357D02*
X292168Y246832D01*
X292648Y246532D01*
X293188Y246457D01*
X293668Y246532D01*
X294148Y246907D01*
X294448Y247357D01*
X294508Y247807D01*
X294388Y248332D01*
X293968Y248707D01*
X293548Y248857D01*
X293008D01*
G01X293548D02*
X293908Y249082D01*
X294208Y249457D01*
X294328Y249907D01*
X294208Y250357D01*
X293908Y250732D01*
X293368Y250957D01*
X292828Y250882D01*
X292288Y250582D01*
G01X293120Y302869D02*
X293420Y302419D01*
X293780Y302119D01*
X294200Y301969D01*
X294680Y302119D01*
X295040Y302419D01*
X295400Y302869D01*
X295520Y303469D01*
Y306469D01*
G01X297320Y302644D02*
X297680Y302269D01*
X298100Y302044D01*
X298640Y301969D01*
X299180Y302119D01*
X299600Y302419D01*
X299900Y302944D01*
X299960Y303544D01*
X299840Y304144D01*
X299540Y304519D01*
X299120Y304819D01*
X298700Y304894D01*
X298280Y304819D01*
X297740Y304519D01*
X297920Y306469D01*
X299540D01*
G54D14*
G01X41220Y163620D02*
X7756D01*
G01D02*
Y185196D01*
G01X41220D02*
X7756D01*
G01X41220Y163620D02*
Y185196D01*
G54D15*
G01X39855Y23622D02*
G03I-16233J0D01*
G01Y370079D02*
G03I-16233J0D01*
G01X307572Y23622D02*
G03I-16233J0D01*
G01Y370079D02*
G03I-16233J0D01*
G54D16*
G01X200511Y111922D02*
Y114922D01*
G01Y118883D02*
Y121883D01*
G01X205714Y118883D02*
Y121883D01*
G01Y111922D02*
Y114922D01*
G54D17*
G01X181850Y17638D02*
Y27638D01*
G01Y17638D02*
X211850D01*
G01X181850Y27638D02*
X211850D01*
G01Y17638D02*
Y27638D01*
M02*
