G04 ================== begin FILE IDENTIFICATION RECORD ==================*
G04 Layout Name:  SHOWERTERMINAL.brd*
G04 Film Name:    Soldermask_Top*
G04 File Format:  Gerber RS274X*
G04 File Origin:  Cadence Allegro 17.2-S079*
G04 Origin Date:  Thu May 05 21:00:59 2022*
G04 *
G04 Layer:  PIN/SOLDERMASK_TOP*
G04 Layer:  PACKAGE GEOMETRY/SOLDERMASK_TOP*
G04 Layer:  BOARD GEOMETRY/SOLDERMASK_TOP*
G04 *
G04 Offset:    (0.00 0.00)*
G04 Mirror:    No*
G04 Mode:      Positive*
G04 Rotation:  0*
G04 FullContactRelief:  No*
G04 UndefLineWidth:     6.00*
G04 ================== end FILE IDENTIFICATION RECORD ====================*
%FSLAX25Y25*MOIN*%
%IR0*IPPOS*OFA0.00000B0.00000*MIA0B0*SFA1.00000B1.00000*%
%ADD19C,.06312*%
%ADD25C,.068*%
%ADD20C,.0395*%
%ADD28C,.06706*%
%ADD24R,.068X.068*%
%ADD31C,.07493*%
%ADD10R,.13635X.05328*%
%ADD34C,.08674*%
%ADD17R,.09461X.1458*%
%ADD27R,.06706X.06706*%
%ADD30R,.07493X.07493*%
%ADD14C,.07887*%
%ADD33R,.08674X.08674*%
%ADD16R,.07887X.07887*%
%ADD32C,.10642*%
%ADD13R,.05013X.03162*%
%ADD35C,.10249*%
%ADD29R,.04202X.0395*%
%ADD26R,.06115X.06351*%
%ADD21O,.08824X.0306*%
%ADD23O,.06312X.03556*%
%ADD15R,.06351X.06115*%
%ADD11C,.16535*%
%ADD22R,.09461X.05131*%
%ADD18R,.06221X.05259*%
%ADD12R,.05259X.06221*%
%LPD*%
G75*
G54D10*
X14744Y303937D03*
Y335827D03*
X34863Y303937D03*
Y335827D03*
G54D11*
X23622Y23622D03*
Y370079D03*
X291339Y23622D03*
Y370079D03*
G54D20*
X83465Y161614D03*
Y157283D03*
G54D12*
X20604Y98031D03*
X28213D03*
X15093Y205512D03*
X22702D03*
X15093Y196850D03*
X22702D03*
X15093Y214173D03*
X22702D03*
X52101Y73622D03*
X59710D03*
X52101Y86220D03*
X59710D03*
X47376Y204724D03*
X54985D03*
X47376Y196063D03*
X54985D03*
X121915Y12992D03*
X114306D03*
X117454Y233858D03*
Y242520D03*
X145408Y160236D03*
X145014Y190551D03*
X125063Y233858D03*
Y242520D03*
X163518Y56693D03*
X171127D03*
X163518Y74016D03*
X171127D03*
X153017Y160236D03*
X152623Y190551D03*
X173196Y228000D03*
X154463Y235039D03*
X162072D03*
X154463Y252362D03*
X162072D03*
X154463Y243701D03*
X162072D03*
X193439Y62205D03*
X201048D03*
X180805Y228000D03*
X244620Y174803D03*
X252229D03*
X251313Y289764D03*
X258922D03*
X251313Y307087D03*
X258922D03*
X251313Y298425D03*
X258922D03*
G54D21*
X81099Y208000D03*
Y203000D03*
Y198000D03*
Y193000D03*
Y213000D03*
Y223000D03*
Y218000D03*
X102902Y193000D03*
Y198000D03*
Y203000D03*
Y208000D03*
Y213000D03*
Y218000D03*
Y223000D03*
G54D30*
X227165Y236969D03*
X266181Y47244D03*
G54D22*
X78200Y256945D03*
Y266000D03*
Y275055D03*
G54D13*
X29271Y76575D03*
Y84055D03*
X19546Y80315D03*
X122185Y67126D03*
X112460Y70866D03*
X122185Y74606D03*
X259980Y273819D03*
Y281299D03*
X250255Y277559D03*
G54D31*
X227165Y246969D03*
Y256969D03*
Y266969D03*
X256181Y47244D03*
X246181D03*
X236181D03*
G54D23*
X78347Y318819D03*
Y313819D03*
Y343819D03*
Y338819D03*
Y333819D03*
Y328819D03*
Y323819D03*
Y373819D03*
Y368819D03*
Y363819D03*
Y358819D03*
Y353819D03*
Y348819D03*
Y383819D03*
Y378819D03*
X142126Y313819D03*
Y318819D03*
Y323819D03*
Y328819D03*
Y333819D03*
Y338819D03*
Y343819D03*
Y358819D03*
Y363819D03*
Y368819D03*
Y373819D03*
Y348819D03*
Y353819D03*
Y378819D03*
Y383819D03*
G54D32*
X218110Y320472D03*
X210236Y344094D03*
X218110Y367716D03*
X266141Y320472D03*
G54D14*
X38385Y119094D03*
Y136811D03*
X38189Y246063D03*
Y255906D03*
Y265748D03*
X63976Y119094D03*
Y136811D03*
X47756Y169408D03*
X57756Y179408D03*
X47756D03*
X127874Y212500D03*
X162127D03*
X185374D03*
X204134Y296063D03*
X225984Y95079D03*
Y85079D03*
Y125079D03*
Y115079D03*
Y105079D03*
Y145079D03*
Y135079D03*
X230512Y187402D03*
X219627Y212500D03*
X250984Y119094D03*
Y136811D03*
X238387Y296063D03*
X276575Y119094D03*
Y136811D03*
X276772Y183071D03*
Y173228D03*
Y163386D03*
X264765Y187402D03*
X276772Y234252D03*
Y224409D03*
Y214567D03*
G54D15*
X51851Y98819D03*
X59961D03*
X47126Y222047D03*
X55236D03*
X47126Y213386D03*
X55236D03*
X53032Y290157D03*
X61142D03*
X53032Y298819D03*
X61142D03*
X52638Y321654D03*
X60748D03*
X52638Y330315D03*
X60748D03*
X84945Y237000D03*
X93055D03*
X84945Y245000D03*
X93055D03*
X117205Y259843D03*
Y251181D03*
X139646Y98031D03*
X147756D03*
Y89370D03*
X139646D03*
X125315Y259843D03*
Y251181D03*
X163268Y65354D03*
X171378D03*
X170590Y98031D03*
X162480D03*
X169803Y160236D03*
X161693D03*
X193189Y72441D03*
X201299D03*
G54D33*
X259724Y70866D03*
G54D24*
X101299Y45276D03*
X113110Y29528D03*
X124921Y45276D03*
G54D16*
X57756Y169408D03*
X225984Y155079D03*
G54D34*
X249724Y70866D03*
G54D25*
X111299Y45276D03*
X123110Y29528D03*
X134921Y45276D03*
X126890Y190945D03*
X136890D03*
X178071D03*
X188071D03*
G54D26*
X124803Y146181D03*
Y138071D03*
X186614Y112874D03*
Y120984D03*
X194882Y112874D03*
Y120984D03*
X186614Y143583D03*
Y151693D03*
X194882Y143583D03*
Y151693D03*
G54D35*
X290945Y265749D03*
Y285434D03*
G54D17*
X53800Y266000D03*
G54D18*
X89764Y41077D03*
Y48686D03*
X73228Y123754D03*
Y131363D03*
X150394Y41864D03*
Y49473D03*
X203150Y143833D03*
Y151442D03*
X241732Y124541D03*
Y132150D03*
G54D27*
X186850Y22638D03*
G54D28*
X196850D03*
X206850D03*
G54D19*
X83071Y85631D03*
Y104921D03*
G54D29*
X203149Y114173D03*
Y119684D03*
M02*
