G04 ================== begin FILE IDENTIFICATION RECORD ==================*
G04 Layout Name:  SHOWERTERMINAL.brd*
G04 Film Name:    Soldermask_Bottom*
G04 File Format:  Gerber RS274X*
G04 File Origin:  Cadence Allegro 17.2-S079*
G04 Origin Date:  Tue May 17 01:09:55 2022*
G04 *
G04 Layer:  PIN/SOLDERMASK_BOTTOM*
G04 Layer:  PACKAGE GEOMETRY/SOLDERMASK_BOTTOM*
G04 Layer:  BOARD GEOMETRY/SOLDERMASK_BOTTOM*
G04 *
G04 Offset:    (0.00 0.00)*
G04 Mirror:    No*
G04 Mode:      Positive*
G04 Rotation:  0*
G04 FullContactRelief:  No*
G04 UndefLineWidth:     6.00*
G04 ================== end FILE IDENTIFICATION RECORD ====================*
%FSLAX25Y25*MOIN*%
%IR0*IPPOS*OFA0.00000B0.00000*MIA0B0*SFA1.00000B1.00000*%
%ADD15C,.06312*%
%ADD19C,.068*%
%ADD16C,.0395*%
%ADD24C,.06706*%
%ADD18R,.068X.068*%
%ADD26C,.07493*%
%ADD29C,.08674*%
%ADD23R,.06706X.06706*%
%ADD25R,.07493X.07493*%
%ADD11C,.07887*%
%ADD28R,.08674X.08674*%
%ADD12R,.07887X.07887*%
%ADD21R,.012X.047*%
%ADD20R,.047X.012*%
%ADD27C,.10642*%
%ADD31C,.10249*%
%ADD30O,.08142X.0328*%
%ADD13R,.06351X.06115*%
%ADD10C,.16535*%
%ADD14R,.05259X.06221*%
%ADD17R,.04737X.05721*%
%ADD22R,.07493X.04737*%
%LPD*%
G75*
G54D10*
X23622Y23622D03*
Y370079D03*
X291339Y23622D03*
Y370079D03*
G54D20*
X133268Y126181D03*
Y124213D03*
Y122244D03*
Y120276D03*
Y118307D03*
Y116339D03*
Y114370D03*
Y143898D03*
Y141929D03*
Y139961D03*
Y137992D03*
Y136024D03*
Y134055D03*
Y132087D03*
Y130118D03*
Y128150D03*
X178544Y114370D03*
Y116339D03*
Y118307D03*
Y120276D03*
Y122244D03*
Y124213D03*
Y126181D03*
Y128150D03*
Y130118D03*
Y132087D03*
Y134055D03*
Y136024D03*
Y137992D03*
Y139961D03*
Y141929D03*
Y143898D03*
G54D11*
X38385Y119094D03*
Y136811D03*
X38189Y246063D03*
Y255906D03*
Y265748D03*
X63976Y119094D03*
Y136811D03*
X47756Y169408D03*
X57756Y179408D03*
X47756D03*
X127874Y212500D03*
X162127D03*
X185374D03*
X204134Y296063D03*
X225984Y95079D03*
Y105079D03*
Y115079D03*
Y125079D03*
Y135079D03*
Y145079D03*
Y155079D03*
X230512Y187402D03*
X219627Y212500D03*
X250984Y119094D03*
Y136811D03*
X238387Y296063D03*
X276575Y119094D03*
Y136811D03*
X276772Y183071D03*
Y173228D03*
Y163386D03*
X264765Y187402D03*
X276772Y234252D03*
Y224409D03*
Y214567D03*
G54D30*
X244557Y88957D03*
Y93957D03*
Y98957D03*
Y103957D03*
X265679Y98957D03*
Y93957D03*
Y88957D03*
Y103957D03*
G54D21*
X141142Y106496D03*
X143111D03*
X145079D03*
X147048D03*
Y151772D03*
X145079D03*
X143111D03*
X141142D03*
X149016Y106496D03*
X150985D03*
X152953D03*
X154922D03*
X156890D03*
X158859D03*
X160827D03*
X162796D03*
X164764D03*
X166733D03*
X168701D03*
X170670D03*
Y151772D03*
X168701D03*
X166733D03*
X164764D03*
X162796D03*
X160827D03*
X158859D03*
X156890D03*
X154922D03*
X152953D03*
X150985D03*
X149016D03*
G54D12*
X57756Y169408D03*
X225984Y85079D03*
G54D22*
X161024Y282876D03*
Y268306D03*
Y312006D03*
Y326576D03*
Y369883D03*
Y355313D03*
X187009Y282871D03*
Y268306D03*
Y312006D03*
Y326571D03*
Y369878D03*
Y355313D03*
G54D13*
X87126Y67323D03*
X79016D03*
X87520Y123228D03*
X79410D03*
X87520Y148031D03*
X79410D03*
X87520Y170866D03*
X79410D03*
X121142Y332283D03*
Y323228D03*
X129252Y332283D03*
Y323228D03*
X169409Y291339D03*
X161299D03*
X169409Y335039D03*
X161299D03*
X169409Y378346D03*
X161299D03*
G54D31*
X290945Y265749D03*
Y285434D03*
G54D14*
X86876Y59055D03*
X79267D03*
X87270Y131496D03*
X79661D03*
X87270Y139764D03*
X79661D03*
X87270Y179134D03*
X79661D03*
X94227Y290157D03*
Y350787D03*
X101836Y290157D03*
X121393Y341339D03*
X101836Y350787D03*
X132545Y290551D03*
X124936D03*
X129002Y341339D03*
X187270Y291339D03*
X179661D03*
X187270Y335039D03*
X179661D03*
X187270Y378346D03*
X179661D03*
X284384Y103150D03*
X291993D03*
G54D23*
X186850Y22638D03*
G54D24*
X196850D03*
X206850D03*
G54D15*
X83071Y85631D03*
Y104921D03*
G54D25*
X227165Y236969D03*
X266181Y47244D03*
G54D16*
X83465Y161614D03*
Y157283D03*
G54D17*
X93701Y299606D03*
X94095Y374016D03*
X102362Y299606D03*
X102756Y374016D03*
X120867D03*
X132677Y299606D03*
X124016D03*
X129528Y374016D03*
X284646Y89370D03*
X293307D03*
G54D26*
X227165Y246969D03*
Y256969D03*
Y266969D03*
X256181Y47244D03*
X246181D03*
X236181D03*
G54D27*
X218110Y320472D03*
X210236Y344094D03*
X218110Y367716D03*
X266141Y320472D03*
G54D18*
X101299Y45276D03*
X113110Y29528D03*
X124921Y45276D03*
G54D28*
X259724Y70866D03*
G54D19*
X111299Y45276D03*
X123110Y29528D03*
X134921Y45276D03*
X126890Y190945D03*
X136890D03*
X178071D03*
X188071D03*
G54D29*
X249724Y70866D03*
M02*
