G04 ================== begin FILE IDENTIFICATION RECORD ==================*
G04 Layout Name:  SHOWERTERMINAL.brd*
G04 Film Name:    TOP*
G04 File Format:  Gerber RS274X*
G04 File Origin:  Cadence Allegro 17.2-S079*
G04 Origin Date:  Tue May 17 01:09:55 2022*
G04 *
G04 Layer:  ETCH/TOP*
G04 Layer:  PIN/TOP*
G04 Layer:  VIA CLASS/TOP*
G04 *
G04 Offset:    (0.00 0.00)*
G04 Mirror:    No*
G04 Mode:      Positive*
G04 Rotation:  0*
G04 FullContactRelief:  No*
G04 UndefLineWidth:     6.00*
G04 ================== end FILE IDENTIFICATION RECORD ====================*
%FSLAX25Y25*MOIN*%
%IR0*IPPOS*OFA0.00000B0.00000*MIA0B0*SFA1.00000B1.00000*%
%ADD26C,.06*%
%ADD15C,.024*%
%ADD21C,.0315*%
%ADD25R,.06X.06*%
%ADD20C,.05512*%
%ADD29C,.05906*%
%ADD14C,.07087*%
%ADD33C,.09842*%
%ADD32C,.06693*%
%ADD10R,.12835X.04528*%
%ADD36C,.09449*%
%ADD35C,.07874*%
%ADD28R,.05906X.05906*%
%ADD18R,.08661X.1378*%
%ADD17R,.07087X.07087*%
%ADD31R,.06693X.06693*%
%ADD34R,.07874X.07874*%
%ADD30R,.03402X.0315*%
%ADD22O,.08024X.0226*%
%ADD13R,.04213X.02362*%
%ADD11C,.14173*%
%ADD27R,.05315X.05551*%
%ADD24O,.05512X.02756*%
%ADD16R,.05551X.05315*%
%ADD23R,.08661X.04331*%
%ADD19R,.05421X.04459*%
%ADD12R,.04459X.05421*%
%ADD37C,.01*%
%ADD38C,.008*%
%ADD39C,.09516*%
%ADD40C,.1109*%
%ADD41C,.13846*%
G75*
%LPD*%
G75*
G36*
G01X147234Y384827D02*
X282920D01*
G02X283123Y384082I1J-400D01*
G03X275104Y370079I8217J-14003D01*
G03X291339Y353844I16235J0D01*
G03X305342Y361863I0J16236D01*
G02X306087Y361660I345J-202D01*
G01Y32041D01*
G02X305342Y31838I-400J-1D01*
G03X291339Y39858I-14003J-8215D01*
G03X275104Y23622I0J-16235D01*
G03X283123Y9619I16236J0D01*
G02X282920Y8874I-202J-345D01*
G01X126325D01*
G02X125962Y9442I0J400D01*
G03X126146Y10282I-1818J838D01*
G01Y14308D01*
X127779Y15941D01*
G03X128482Y17639I-1699J1698D01*
G01Y26557D01*
G03X127908Y28115I-2401J0D01*
G03X128112Y29528I-4798J1414D01*
G03X123110Y34530I-5002J0D01*
G03X118852Y32153I0J-5002D01*
G02X118112Y32363I-340J210D01*
G01Y32528D01*
G03X116110Y34530I-2002J0D01*
G01X110110D01*
G03X109935Y34522I4J-2002D01*
G02X109500Y34920I-35J399D01*
G01Y40058D01*
G02X110004Y40445I400J0D01*
G03X111299Y40274I1297J4831D01*
G03Y50278I0J5002D01*
G03X109263Y49845I0J-5003D01*
G02X108700Y50210I-163J365D01*
G01Y51316D01*
G03X108660Y51757I-2401J4D01*
G01X108640Y51861D01*
X112081Y55302D01*
X144598D01*
X146242Y53657D01*
G02X146247Y53096I-282J-283D01*
G03X145682Y51702I1436J-1394D01*
G01Y47244D01*
G03X146173Y45931I2001J0D01*
G02Y45406I-302J-262D01*
G03X145711Y44432I1510J-1313D01*
G01X145682Y44266D01*
X140288D01*
G02X139891Y44711I0J400D01*
G03X139923Y45276I-4970J565D01*
G03X134921Y50278I-5002J0D01*
G03X130663Y47901I0J-5002D01*
G02X129922Y48111I-341J209D01*
G01Y48276D01*
G03X127921Y50278I-2002J0D01*
G01X121921D01*
G03X119920Y48276I0J-2001D01*
G01Y42276D01*
G03X121921Y40274I2002J0D01*
G01X127921D01*
G03X129922Y42276I0J2001D01*
G01Y42441D01*
G02X130663Y42651I400J1D01*
G03X134921Y40274I4258J2625D01*
G03X136215Y40444I1J5002D01*
G01X136327Y40474D01*
X136635Y40166D01*
G03X138333Y39462I1699J1698D01*
G01X145682D01*
X145711Y39296D01*
G03X147684Y37633I1973J338D01*
G01X153104D01*
G03X155106Y39634I1J2002D01*
G01Y44094D01*
G03X154615Y45406I-2001J-1D01*
G02Y45931I302J262D01*
G03X155106Y47244I-1510J1313D01*
G01Y51702D01*
G03X153104Y53704I-2001J0D01*
G01X152658D01*
G03X152092Y54600I-2263J-803D01*
G01X148754Y57939D01*
G02X149036Y58622I283J283D01*
G01X159286D01*
Y53982D01*
G03X161288Y51980I2003J1D01*
G01X173356D01*
G03X175358Y53982I0J2002D01*
G01Y59404D01*
G03X175068Y60442I-2002J0D01*
G02X175201Y60990I342J207D01*
G03X176156Y62696I-1047J1707D01*
G01Y66617D01*
X177052Y67514D01*
G03X177756Y69212I-1698J1699D01*
G01Y69308D01*
G03X177052Y71006I-2402J-1D01*
G01X175358Y72700D01*
Y76726D01*
G03X173356Y78728I-2001J0D01*
G01X161288D01*
G03X159286Y76726I0J-2002D01*
G01Y76418D01*
X130236D01*
G03X128118Y77218I-2117J-2402D01*
G03X126493Y76775I0J-3202D01*
G02X125957Y76897I-204J344D01*
G03X124292Y77788I-1665J-1110D01*
G01X120078D01*
G03X118077Y75787I0J-2001D01*
G01Y73425D01*
G03X120078Y71424I2001J0D01*
G01X124292D01*
G03X125518Y71843I1J2001D01*
G02X125786Y71822I122J-158D01*
G03X128118Y70814I2332J2194D01*
G03X130236Y71614I1J3202D01*
G01X156890D01*
Y69212D01*
G03X157594Y67514I2402J1D01*
G01X158490Y66617D01*
Y63424D01*
X132590D01*
X127190Y68824D01*
G03X125905Y69492I-1699J-1698D01*
G03X124292Y70308I-1613J-1185D01*
G01X120078D01*
G03X118532Y69578I0J-2001D01*
G02X117872Y69639I-309J254D01*
G03X117465Y70182I-2106J-1154D01*
G01X116568Y71079D01*
Y72047D01*
G03X114566Y74048I-2001J0D01*
G01X110354D01*
G03X108352Y72047I-1J-2001D01*
G01Y69685D01*
G03X110354Y67684I2001J0D01*
G01X113171D01*
X113366Y67489D01*
Y60104D01*
X111086D01*
G03X109388Y59401I0J-2402D01*
G01X104504Y54518D01*
X93675D01*
G03X91977Y53814I1J-2402D01*
G01X91080Y52917D01*
X87054D01*
G03X85052Y50916I-1J-2001D01*
G01Y46456D01*
G03X85543Y45144I2001J1D01*
G02Y44619I-302J-262D01*
G03X85052Y43306I1510J-1313D01*
G01Y38848D01*
G03X87054Y36846I2001J-1D01*
G01X91080D01*
X91977Y35949D01*
G03X93675Y35246I1698J1699D01*
G01X102581D01*
G03X104698Y34445I2118J2401D01*
G01Y16770D01*
G03X105401Y15072I2402J0D01*
G01X109179Y11294D01*
G03X110074Y10729I1698J1698D01*
G01Y10282D01*
G03X110259Y9442I2002J1D01*
G02X109896Y8874I-363J-168D01*
G01X32041D01*
G02X31838Y9619I-1J400D01*
G03X39858Y23622I-8215J14003D01*
G03X23622Y39858I-16236J0D01*
G03X9619Y31838I0J-16235D01*
G02X8874Y32041I-345J202D01*
G01Y180729D01*
G02X9612Y180942I400J0D01*
G03X24000Y172998I14388J9058D01*
G01X39765D01*
G02X40047Y172316I-1J-400D01*
G01X18906Y151174D01*
G03X18202Y149476I1698J-1699D01*
G01Y102743D01*
X18036Y102715D01*
G03X16372Y100742I338J-1973D01*
G01Y95320D01*
G03X18374Y93318I2003J1D01*
G01X25812D01*
Y89052D01*
X20257Y83498D01*
X17440D01*
G03X15438Y81496I0J-2002D01*
G01Y79134D01*
G03X17440Y77132I2002J0D01*
G01X21652D01*
G03X23654Y79134I0J2002D01*
G01Y80102D01*
X25099Y81547D01*
G02X25679Y81532I283J-283D01*
G03X27164Y80872I1486J1342D01*
G01X31378D01*
G03X33379Y82874I-1J2002D01*
G01Y85236D01*
G03X31378Y87238I-2002J0D01*
G01X30983D01*
G02X30587Y87697I0J400D01*
G03X30614Y88057I-2374J359D01*
G01Y93319D01*
X30781Y93347D01*
G03X32444Y95320I-339J1973D01*
G01Y100742D01*
G03X30442Y102744I-2002J0D01*
G01X23006D01*
Y148481D01*
X41969Y167445D01*
G02X42622Y167313I283J-283D01*
G03X47756Y163863I5134J2095D01*
G03X51636Y165447I0J5544D01*
G02X52299Y165278I280J-286D01*
G03X54212Y163863I1914J586D01*
G01X61300D01*
G03X63301Y165864I0J2001D01*
G01Y166906D01*
X109416D01*
Y154357D01*
G03X110149Y152588I2501J0D01*
G01X112835Y149902D01*
X112844Y149835D01*
G03X116018Y147055I3174J422D01*
G03X118017Y147756I0J3201D01*
G01X120144D01*
Y143406D01*
G03X120606Y142126I2002J-1D01*
G03X120144Y140846I1540J-1279D01*
G01Y135296D01*
G03X120157Y135070I2001J2D01*
G02X119759Y134624I-398J-46D01*
G01X96818D01*
G03X94700Y135425I-2118J-2400D01*
G03Y129021I0J-3202D01*
G03X96818Y129822I0J3201D01*
G01X134196D01*
G02X134576Y129297I0J-400D01*
G03X134422Y128487I3042J-998D01*
G01X134410Y128298D01*
X107218D01*
G03X105100Y129099I-2118J-2400D01*
G03X101898Y125897I0J-3202D01*
G03X102072Y124856I3201J0D01*
G02X101694Y124326I-379J-130D01*
G01X91002D01*
X78837Y136491D01*
G03X77139Y137194I-1698J-1699D01*
G01X74223D01*
X72908Y138509D01*
G03X71210Y139212I-1698J-1699D01*
G01X68974D01*
G03X58978I-4998J-2401D01*
G01X43383D01*
G03X38385Y142356I-4998J-2401D01*
G03Y131266I0J-5545D01*
G03X43383Y134410I0J5545D01*
G01X58978D01*
G03X63976Y131266I4998J2401D01*
G03X67837Y132832I-1J5545D01*
G02X68516Y132545I279J-287D01*
G01Y129786D01*
X59755D01*
G03X57756Y130486I-1998J-2502D01*
G03Y124082I0J-3202D01*
G03X59755Y124782I1J3202D01*
G01X61260D01*
G02X61443Y124027I0J-400D01*
G03X58431Y119094I2534J-4933D01*
G03X60213Y115022I5545J1D01*
G02X60224Y114445I-272J-294D01*
G01X50153Y104374D01*
G03X49588Y103478I1699J-1697D01*
G01X49076D01*
G03X47074Y101476I0J-2002D01*
G01Y96162D01*
G03X49076Y94160I2002J-1D01*
G01X53232D01*
X53426Y93966D01*
Y91422D01*
X52936Y90932D01*
X49872D01*
G03X47870Y88930I-1J-2002D01*
G01Y83510D01*
G03X49872Y81508I2001J-1D01*
G01X51117D01*
G02X51399Y80825I-1J-400D01*
G01X50403Y79828D01*
G03X49708Y78328I1698J-1698D01*
G03X47870Y76332I164J-1995D01*
G01Y76024D01*
X43050D01*
X40800Y78273D01*
G03X39102Y78976I-1698J-1699D01*
G01X32964D01*
G03X31378Y79758I-1587J-1220D01*
G01X27164D01*
G03X25163Y77756I1J-2002D01*
G01Y75394D01*
G03X27164Y73392I2002J0D01*
G01X31378D01*
G03X32964Y74174I-1J2002D01*
G01X38107D01*
X40357Y71924D01*
G03X42055Y71220I1699J1698D01*
G01X47870D01*
Y70912D01*
G03X49872Y68910I2001J0D01*
G01X61940D01*
G03X63942Y70912I0J2002D01*
G01Y76332D01*
G03X61940Y78334I-2002J0D01*
G01X56667D01*
G02X56385Y79017I1J400D01*
G01X58875Y81508D01*
X61940D01*
G03X63942Y83510I0J2002D01*
G01Y88930D01*
G03X62506Y90851I-2002J0D01*
G01X62362Y90893D01*
Y94160D01*
X62736D01*
G03X64738Y96162I1J2002D01*
G01Y101476D01*
G03X62736Y103478I-2001J0D01*
G01X57015D01*
G02X56733Y104161I1J400D01*
G01X63516Y110944D01*
X141873D01*
X141878Y110750D01*
G03X142294Y109265I3201J96D01*
G01X142370Y109133D01*
X141924Y108687D01*
G03X141220Y106989I1698J-1699D01*
G01Y102690D01*
X138409D01*
G03X137761Y102956I-1265J-2158D01*
G03X135670Y103733I-2091J-2425D01*
G03X133671Y103032I0J-3201D01*
G01X118017D01*
G03X116018Y103733I-1999J-2500D01*
G03Y97329I0J-3202D01*
G03X118017Y98030I0J3201D01*
G01X133671D01*
G03X134727Y97471I2000J2501D01*
G01X134868Y97427D01*
Y95374D01*
G03X135434Y93979I2002J0D01*
G02Y93422I-287J-279D01*
G03X134868Y92028I1436J-1395D01*
G01Y86712D01*
G03X136870Y84710I2002J1D01*
G01X150532D01*
G03X152534Y86712I0J2002D01*
G01Y92028D01*
G03X151968Y93422I-2002J-1D01*
G02Y93979I287J278D01*
G03X152534Y95374I-1436J1395D01*
G01Y100688D01*
G03X150532Y102690I-2002J0D01*
G01X146024D01*
Y105994D01*
X146777Y106748D01*
G03X147480Y108446I-1699J1698D01*
G01Y108727D01*
X147528Y108783D01*
G03X148280Y110750I-2449J2063D01*
G01X148285Y110944D01*
X168552D01*
G03X170670Y110144I2117J2402D01*
G03Y116548I0J3202D01*
G03X168607Y115795I0J-3203D01*
G01X168551Y115748D01*
X168297D01*
G02X168115Y116030I0J200D01*
G03X168398Y117346I-2918J1316D01*
G03X166104Y120416I-3201J0D01*
G02X165838Y120925I114J384D01*
G03X165998Y121925I-3042J1000D01*
G03X165991Y122133I-3202J-4D01*
G02X166390Y122558I399J25D01*
G01X171123D01*
G02X171464Y121949I0J-400D01*
G03X170992Y120276I2729J-1673D01*
G03X173922Y117086I3202J0D01*
G01X173994Y117079D01*
X175764Y115310D01*
G03X177462Y114606I1699J1698D01*
G01X181955D01*
Y110098D01*
G03X183956Y108097I2002J0D01*
G01X189272D01*
G03X190614Y108614I0J2002D01*
G02X190882I134J-148D01*
G03X192224Y108097I1342J1485D01*
G01X197540D01*
G03X199541Y110098I-1J2001D01*
G01Y110728D01*
G02X200192Y111039I400J0D01*
G03X201448Y110596I1256J1559D01*
G01X204850D01*
G03X206852Y112598I0J2002D01*
G01Y120058D01*
X208061D01*
X208115Y120016D01*
G03X212007I1946J2544D01*
G01X212061Y120058D01*
X212405D01*
X213498Y118964D01*
Y115037D01*
X203963Y105502D01*
X177999D01*
G03X176000Y106202I-1998J-2502D01*
G03X172799Y103080I0J-3202D01*
G02X172399Y102690I-400J10D01*
G01X159704D01*
G03X157702Y100688I0J-2002D01*
G01Y96359D01*
G03X155657Y93373I1157J-2986D01*
G03X158859Y90171I3202J0D01*
G03X160977Y90972I0J3201D01*
G01X186472D01*
G02X186687Y90234I0J-400D01*
G03X185207Y87535I1721J-2699D01*
G03X186008Y85417I3201J0D01*
G01Y42591D01*
G03X186711Y40893I2402J0D01*
G01X199598Y28005D01*
Y27450D01*
G02X199023Y27091I-400J0D01*
G03X196850Y27593I-2173J-4452D01*
G03X192551Y25103I0J-4956D01*
G02X191804Y25302I-347J199D01*
G01Y25591D01*
G03X189803Y27592I-2001J0D01*
G01X183897D01*
G03X181896Y25591I0J-2001D01*
G01Y19685D01*
G03X183897Y17684I2001J0D01*
G01X188408D01*
X190905Y15187D01*
G03X192603Y14484I1698J1699D01*
G01X198885D01*
G03X200583Y15187I0J2402D01*
G01X203698Y18302D01*
G03X203960Y18613I-1699J1697D01*
G03X206850Y17683I2890J4025D01*
G03X211805Y22638I0J4955D01*
G03X209252Y26972I-4955J0D01*
G01Y35371D01*
G03X208548Y37069I-2402J-1D01*
G01X192410Y53207D01*
Y57492D01*
X203278D01*
G03X205280Y59494I0J2003D01*
G01Y59704D01*
X209484D01*
G03X211253Y60436I1J2501D01*
G01X227044Y76227D01*
G02X227726Y75944I282J-283D01*
G01Y63297D01*
G03X228430Y61599I2402J1D01*
G01X236762Y53267D01*
G02X236458Y52585I-283J-283D01*
G03X236181Y52592I-274J-5341D01*
G03Y41896I0J-5348D01*
G03X240833Y44606I0J5348D01*
G02X241529I348J-197D01*
G03X250833I4652J2638D01*
G02X251529I348J-197D01*
G03X256181Y41896I4652J2638D01*
G03X260473Y44053I0J5349D01*
G01X260533Y44133D01*
X260833D01*
Y43898D01*
G03X262834Y41896I2001J0D01*
G01X269528D01*
G03X271529Y43898I-1J2002D01*
G01Y50590D01*
G03X269528Y52592I-2001J0D01*
G01X268582D01*
Y96219D01*
G03X267879Y97917I-2402J0D01*
G01X252614Y113182D01*
G02X252768Y113844I283J283D01*
G03X256529Y119094I-1784J5250D01*
G03X250984Y124639I-5545J0D01*
G03X248615Y124108I-1J-5545D01*
G02X248044Y124469I-171J362D01*
G01Y127405D01*
G03X247341Y129103I-2402J0D01*
G01X246444Y130000D01*
Y132545D01*
G02X247123Y132832I400J0D01*
G03X250984Y131266I3862J3979D01*
G03Y142356I0J5545D01*
G03X245986Y139212I0J-5545D01*
G01X242964D01*
G03X241266Y138509I0J-2402D01*
G01X240812Y138056D01*
G02X240130Y138338I-282J283D01*
G01Y150123D01*
G03X239426Y151821I-2402J-1D01*
G01X229385Y161863D01*
G02X229667Y162546I283J283D01*
G01X235010D01*
G03X237128Y161745I2118J2400D01*
G03Y168149I0J3202D01*
G03X235010Y167348I0J-3201D01*
G01X177046D01*
G02X176683Y167915I1J400D01*
G03X176973Y169247I-2912J1332D01*
G03X173771Y172449I-3202J0D01*
G03X171772Y171748I0J-3201D01*
G01X153437D01*
G03X151438Y172449I-1999J-2500D01*
G03X148236Y169247I0J-3202D01*
G03X150075Y166350I3201J0D01*
G03X149757Y165137I2878J-1403D01*
G01X149745Y164948D01*
X143178D01*
G03X141176Y162946I0J-2002D01*
G01Y160924D01*
X141142D01*
G03X139024Y160124I-1J-3202D01*
G01X127836D01*
G03X125718Y160924I-2117J-2402D01*
G03X123508Y160039I0J-3202D01*
G01X123367Y159904D01*
X120020Y163252D01*
Y177016D01*
G03X120820Y179134I-2402J2117D01*
G03X120159Y181083I-3202J1D01*
G01X120052Y181222D01*
X125102Y186272D01*
X125221Y186230D01*
G03X126890Y185943I1670J4715D01*
G03X131520Y189052I0J5002D01*
G02X132260I370J-152D01*
G03X136890Y185943I4630J1893D01*
G03X138184Y186113I1J5002D01*
G01X138296Y186143D01*
X139497Y184942D01*
G03X141195Y184238I1699J1698D01*
G01X141584D01*
G03X143282Y184942I-1J2402D01*
G01X144179Y185838D01*
X154852D01*
G03X156854Y187840I0J2002D01*
G01Y193262D01*
G03X154852Y195264I-2002J0D01*
G01X142784D01*
G03X141150Y194417I1J-2002D01*
G02X140532Y194374I-327J231D01*
G03X136890Y195947I-3642J-3430D01*
G03X135679Y195798I1J-5002D01*
G02X135300Y196469I-96J388D01*
G01X137829Y198998D01*
X166480D01*
X173238Y192240D01*
X173212Y192131D01*
G03X173069Y190945I4859J-1187D01*
G03X178071Y185943I5002J0D01*
G03X179257Y186086I-1J5002D01*
G01X179366Y186112D01*
X192444Y173034D01*
G03X194213Y172302I1768J1769D01*
G01X240388D01*
Y172092D01*
G03X242390Y170090I2003J1D01*
G01X249966D01*
G03X250531Y169195I2263J803D01*
G01X258038Y161688D01*
G03X259736Y160984I1699J1698D01*
G01X271774D01*
G03X276772Y157841I4998J2402D01*
G03X282317Y163386I0J5545D01*
G03X279883Y167976I-5545J0D01*
G02Y168638I225J331D01*
G03Y177818I-3111J4590D01*
G02Y178481I224J331D01*
G03X282317Y183071I-3111J4590D01*
G03X271227I-5545J0D01*
G03X273661Y178481I5545J0D01*
G02Y177818I-224J-332D01*
G03X271774Y175630I3111J-4590D01*
G01X269646D01*
X266563Y178712D01*
X266670Y178851D01*
G03X267166Y180314I-1905J1462D01*
G01Y182404D01*
G03X270310Y187402I-2401J4998D01*
G03X259220I-5545J0D01*
G03X262364Y182404I5545J0D01*
G01Y181309D01*
X262170Y181116D01*
X202674D01*
G03X200556Y181916I-2117J-2402D01*
G03X197354Y178714I0J-3202D01*
G03X197482Y177817I3202J-1D01*
G02X197098Y177304I-384J-113D01*
G01X195249D01*
X187268Y185285D01*
G02X187590Y185966I283J283D01*
G03X188071Y185943I479J4979D01*
G03Y195947I0J5002D01*
G03X183441Y192838I0J-5002D01*
G02X182701I-370J152D01*
G03X178071Y195947I-4630J-1893D01*
G03X176885Y195804I1J-5002D01*
G01X176776Y195778D01*
X172201Y200352D01*
G02X172223Y200938I283J283D01*
G03X173844Y202854I-5223J6062D01*
G01X191523D01*
X191721Y202656D01*
X191728Y202584D01*
G03X194918Y199654I3190J272D01*
G03X197036Y200454I1J3202D01*
G01X209983D01*
G03X211681Y201158I-1J2402D01*
G01X217790Y207267D01*
X217907Y207229D01*
G03X219627Y206955I1721J5271D01*
G03X214082Y212500I0J5545D01*
G03X214395Y210664I5545J1D01*
G01X208988Y205258D01*
X200415D01*
G02X200082Y205879I0J400D01*
G03X200620Y207656I-2664J1777D01*
G03X197418Y210858I-3202J0D01*
G03X195419Y210158I-1J-3202D01*
G01X190993D01*
G02X190615Y210688I0J400D01*
G03X190919Y212500I-5241J1811D01*
G03X179829I-5545J0D01*
G03X180133Y210688I5545J-1D01*
G02X179755Y210158I-378J-130D01*
G01X175002D01*
Y223288D01*
X183034D01*
G03X185036Y225290I1J2001D01*
G01Y230710D01*
G03X183034Y232712I-2001J0D01*
G01X175002D01*
Y234568D01*
X221817D01*
Y233622D01*
G03X223818Y231621I2001J0D01*
G01X230512D01*
G03X232513Y233622I-1J2001D01*
G01Y240316D01*
G03X230512Y242317I-2002J0D01*
G01X230276D01*
Y242617D01*
X230356Y242677D01*
G03X232513Y246969I-3192J4292D01*
G03X229803Y251621I-5348J0D01*
G02Y252317I197J348D01*
G03Y261621I-2638J4652D01*
G02Y262317I197J348D01*
G03X232513Y266969I-2638J4652D01*
G03X221817I-5348J0D01*
G03X224527Y262317I5348J0D01*
G02Y261621I-197J-348D01*
G03Y252317I2638J-4652D01*
G02Y251621I-197J-348D01*
G03X222387Y249370I2639J-4651D01*
G01X175002D01*
Y256000D01*
G03X168243Y271865I-22002J-1D01*
G02X168521Y272554I277J289D01*
G01X189438D01*
G03X191556Y271753I2118J2400D01*
G03Y278157I0J3202D01*
G03X189438Y277356I0J-3201D01*
G01X158595D01*
G03X156477Y278157I-2118J-2400D01*
G03X155200Y277891I1J-3202D01*
G03X153000Y278002I-2207J-21891D01*
G01X114905D01*
X114811Y277993D01*
G02X114059Y277968I-580J6115D01*
G03X110515Y277787I-633J-22393D01*
G02X110180Y278466I-52J396D01*
G01X125275Y293562D01*
X199185D01*
G03X204134Y290518I4949J2501D01*
G03X209679Y296063I0J5545D01*
G03X206636Y301012I-5546J0D01*
G01Y305460D01*
X215314Y314139D01*
G03X218110Y313549I2797J6333D01*
G03X211187Y320472I0J6923D01*
G03X211724Y317799I6923J0D01*
G01X211776Y317675D01*
X202365Y308265D01*
G03X201632Y306496I1768J-1769D01*
G01Y301012D01*
G03X199185Y298564I2502J-4948D01*
G01X124239D01*
G03X122470Y297832I-1J-2501D01*
G01X105276Y280638D01*
X105209Y280629D01*
G03X102457Y277877I422J-3174D01*
G01X102448Y277810D01*
X102195Y277556D01*
X84510D01*
X84472Y277708D01*
G03X82530Y279222I-1941J-488D01*
G01X73870D01*
G03X71868Y277220I0J-2001D01*
G01Y272890D01*
G03X73870Y270888I2002J-1D01*
G01X82530D01*
G03X84472Y272402I1J2002D01*
G01X84510Y272554D01*
X97771D01*
G02X98045Y271863I-1J-400D01*
G03X97585Y271415I15398J-16271D01*
G01X91979Y265809D01*
X91893Y265129D01*
G02X89585Y260415I-8035J1012D01*
G01X85215Y256045D01*
G02X84532Y256328I-283J283D01*
G01Y259110D01*
G03X82530Y261112I-2002J1D01*
G01X80875D01*
G02X80507Y261667I1J400D01*
G03X80523Y261707I-2315J949D01*
G01X80573Y261833D01*
X82530D01*
G03X84532Y263834I1J2001D01*
G01Y268166D01*
G03X82530Y270167I-2002J0D01*
G01X73870D01*
G03X71868Y268166I0J-2001D01*
G01Y263834D01*
G03X71879Y263627I2001J3D01*
G01X71880Y263617D01*
Y263406D01*
X71518D01*
X71464Y263448D01*
G03X69518Y264107I-1946J-2544D01*
G03Y257703I0J-3202D01*
G03X71464Y258362I0J3203D01*
G01X71518Y258404D01*
X71868D01*
Y254780D01*
G03X73870Y252778I2002J0D01*
G01X80982D01*
G02X81265Y252095I0J-400D01*
G01X65171Y236002D01*
X22000D01*
G03X9604Y229450I0J-15002D01*
G02X8874Y229675I-330J225D01*
G01Y299672D01*
X21162D01*
G03X23163Y301673I0J2001D01*
G01Y306201D01*
G03X21162Y308202I-2001J0D01*
G01X8874D01*
Y331562D01*
X21162D01*
G03X22405Y331995I0J2001D01*
G01X22545Y332106D01*
X24644Y330007D01*
Y301672D01*
G03Y297674I2500J-1999D01*
G01Y257107D01*
G03X25376Y255338I2501J-1D01*
G01X32920Y247794D01*
X32885Y247680D01*
G03X32644Y246063I5304J-1617D01*
G03X43734I5545J0D01*
G03X41300Y250653I-5545J0D01*
G02Y251316I224J331D01*
G03Y260496I-3111J4590D01*
G02Y261158I225J331D01*
G03X43734Y265748I-3111J4590D01*
G03X40690Y270697I-5545J0D01*
G01Y291439D01*
X45569Y296318D01*
X48251D01*
X48255Y296122D01*
G03X48820Y294767I2002J39D01*
G02Y294209I-287J-279D01*
G03X48254Y292814I1436J-1395D01*
G01Y292530D01*
X48129Y292480D01*
G03X47288Y291926I927J-2323D01*
G01X45700Y290338D01*
G03X44968Y288569I1769J-1768D01*
G01Y262904D01*
G03X44267Y260905I2500J-1999D01*
G03X47469Y257703I3202J0D01*
G03X48003Y257748I-1J3202D01*
G03X49470Y257108I1467J1362D01*
G01X58130D01*
G03X60132Y259110I0J2002D01*
G01Y272890D01*
G03X58130Y274892I-2002J0D01*
G01X49970D01*
Y285299D01*
G02X50178Y285499I200J0D01*
G03X50256Y285498I65J2001D01*
G01X63918D01*
G03X65920Y287500I0J2002D01*
G01Y292814D01*
G03X65354Y294209I-2002J0D01*
G02Y294767I287J279D01*
G03X65920Y296162I-1436J1395D01*
G01Y301476D01*
G03X63918Y303478I-2002J0D01*
G01X50256D01*
G03X48255Y301516I0J-2002D01*
G01X48251Y301320D01*
X47034D01*
Y302901D01*
X54407Y310273D01*
G03X55140Y312042I-1768J1769D01*
G01Y316994D01*
X63524D01*
G03X65526Y318996I-1J2003D01*
G01Y324312D01*
G03X64960Y325706I-2002J-1D01*
G02Y326263I287J278D01*
G03X65526Y327658I-1436J1395D01*
G01Y332972D01*
G03X63524Y334974I-2002J0D01*
G01X49862D01*
G03X47860Y332972I0J-2002D01*
G01Y328858D01*
X29646D01*
Y331043D01*
G03X29644Y331145I-2501J2D01*
G02X30044Y331562I400J17D01*
G01X41280D01*
G03X43282Y333563I1J2001D01*
G01Y338091D01*
G03X41280Y340092I-2001J0D01*
G01X28446D01*
G03X26444Y338091I-1J-2001D01*
G01Y336247D01*
G02X25761Y335964I-400J0D01*
G01X24130Y337596D01*
G03X23160Y338197I-1768J-1770D01*
G03X21162Y340092I-1998J-106D01*
G01X8874D01*
Y361660D01*
G02X9619Y361863I400J1D01*
G03X23622Y353844I14003J8217D01*
G03X39858Y370079I0J16236D01*
G03X31838Y384082I-16235J0D01*
G02X32041Y384827I202J345D01*
G01X73239D01*
G02X73634Y384363I0J-400D01*
G03X73590Y383819I3335J-544D01*
G03X74550Y381459I3379J-1D01*
G02Y381179I-143J-140D01*
G03X73590Y378819I2419J-2359D01*
G03X74550Y376459I3379J-1D01*
G02Y376179I-143J-140D01*
G03X73590Y373819I2419J-2359D01*
G03X74550Y371459I3379J-1D01*
G02Y371179I-143J-140D01*
G03X73590Y368819I2419J-2359D01*
G03X74550Y366459I3379J-1D01*
G02Y366179I-143J-140D01*
G03X73590Y363819I2419J-2359D01*
G03X74550Y361459I3379J-1D01*
G02Y361179I-143J-140D01*
G03X73590Y358819I2419J-2359D01*
G03X74550Y356459I3379J-1D01*
G02Y356179I-143J-140D01*
G03X73590Y353819I2419J-2359D01*
G03X74550Y351459I3379J-1D01*
G02Y351179I-143J-140D01*
G03X73590Y348819I2419J-2359D01*
G03X74550Y346459I3379J-1D01*
G02Y346179I-143J-140D01*
G03X73590Y343819I2419J-2359D01*
G03X74550Y341459I3379J-1D01*
G02Y341179I-143J-140D01*
G03X73590Y338819I2419J-2359D01*
G03X74550Y336459I3379J-1D01*
G02Y336179I-143J-140D01*
G03X73590Y333819I2419J-2359D01*
G03X74550Y331459I3379J-1D01*
G02Y331179I-143J-140D01*
G03X73590Y328819I2419J-2359D01*
G03X74550Y326459I3379J-1D01*
G02Y326179I-143J-140D01*
G03X73590Y323819I2419J-2359D01*
G03X74550Y321459I3379J-1D01*
G02Y321179I-143J-140D01*
G03X73590Y318819I2419J-2359D01*
G03X74550Y316459I3379J-1D01*
G02Y316179I-143J-140D01*
G03X73590Y313819I2419J-2359D01*
G03X76969Y310440I3379J0D01*
G01X79725D01*
G03X83104Y313819I0J3379D01*
G03X82144Y316179I-3379J1D01*
G02Y316459I143J140D01*
G03X83104Y318819I-2419J2359D01*
G03X82144Y321179I-3379J1D01*
G02Y321459I143J140D01*
G03X83104Y323819I-2419J2359D01*
G03X82144Y326179I-3379J1D01*
G02Y326459I143J140D01*
G03X83104Y328819I-2419J2359D01*
G03X82144Y331179I-3379J1D01*
G02Y331459I143J140D01*
G03X83104Y333819I-2419J2359D01*
G03X82144Y336179I-3379J1D01*
G02Y336459I143J140D01*
G03X83104Y338819I-2419J2359D01*
G03X82144Y341179I-3379J1D01*
G02Y341459I143J140D01*
G03X83104Y343819I-2419J2359D01*
G03X82144Y346179I-3379J1D01*
G02Y346459I143J140D01*
G03X83104Y348819I-2419J2359D01*
G03X82474Y350785I-3379J1D01*
G02X82799Y351418I325J233D01*
G01X110348D01*
G03X112466Y350617I2118J2400D01*
G03Y357021I0J3202D01*
G03X110348Y356220I0J-3201D01*
G01X89156D01*
G02X88839Y356865I0J400D01*
G03X89505Y358819I-2536J1955D01*
G03X86303Y362021I-3202J0D01*
G03X84185Y361220I0J-3201D01*
G01X82799D01*
G02X82474Y361853I0J400D01*
G03X83104Y363819I-2749J1965D01*
G03X82144Y366179I-3379J1D01*
G02Y366459I143J140D01*
G03X83104Y368819I-2419J2359D01*
G03X82144Y371179I-3379J1D01*
G02Y371459I143J140D01*
G03X83104Y373819I-2419J2359D01*
G03X82144Y376179I-3379J1D01*
G02Y376459I143J140D01*
G03X83104Y378819I-2419J2359D01*
G03X82144Y381179I-3379J1D01*
G02Y381459I143J140D01*
G03X83104Y383819I-2419J2359D01*
G03X83060Y384363I-3379J0D01*
G02X83455Y384827I395J64D01*
G01X137018D01*
G02X137413Y384363I0J-400D01*
G03X137368Y383819I3335J-550D01*
G03X138329Y381459I3380J1D01*
G02Y381179I-143J-140D01*
G03X137368Y378819I2419J-2361D01*
G03X138329Y376459I3380J1D01*
G02Y376179I-143J-140D01*
G03X137368Y373819I2419J-2361D01*
G03X138329Y371459I3380J1D01*
G02Y371179I-143J-140D01*
G03X137368Y368819I2419J-2361D01*
G03X138329Y366459I3380J1D01*
G02Y366179I-143J-140D01*
G03X137368Y363819I2419J-2361D01*
G03X138329Y361459I3380J1D01*
G02Y361179I-143J-140D01*
G03X137368Y358819I2419J-2361D01*
G03X138023Y356820I3380J1D01*
G02X137765Y356189I-323J-236D01*
G03X136454Y355517I387J-2370D01*
G01X135672Y354735D01*
G03X134968Y353037I1698J-1699D01*
G01Y337701D01*
G03X134168Y335583I2402J-2117D01*
G03X137370Y332381I3202J0D01*
G03X137683Y332396I3J3202D01*
G03X138329Y331459I3066J1422D01*
G02Y331179I-143J-140D01*
G03X137368Y328819I2419J-2361D01*
G03X138329Y326459I3380J1D01*
G02Y326179I-143J-140D01*
G03X137368Y323819I2419J-2361D01*
G03X138329Y321459I3380J1D01*
G02Y321179I-143J-140D01*
G03X137368Y318819I2419J-2361D01*
G03X138157Y316649I3379J0D01*
G01X138204Y316593D01*
Y316320D01*
X137746D01*
X137692Y316362D01*
G03X135746Y317021I-1946J-2544D01*
G03Y310617I0J-3202D01*
G03X137692Y311276I0J3203D01*
G01X137746Y311318D01*
X138474D01*
X138531Y311268D01*
G03X140748Y310440I2216J2551D01*
G01X143504D01*
G03X146884Y313819I0J3380D01*
G03X145923Y316179I-3380J-1D01*
G02Y316459I143J140D01*
G03X146884Y318819I-2419J2361D01*
G03X145923Y321179I-3380J-1D01*
G02Y321459I143J140D01*
G03X146884Y323819I-2419J2361D01*
G03X145923Y326179I-3380J-1D01*
G02Y326459I143J140D01*
G03X146884Y328819I-2419J2361D01*
G03X145923Y331179I-3380J-1D01*
G02Y331459I143J140D01*
G03X146884Y333819I-2419J2361D01*
G03X146636Y335089I-3380J-1D01*
G02X146993Y335639I371J150D01*
G03X150084Y338839I-111J3200D01*
G03X149284Y340957I-3202J1D01*
G01Y348037D01*
G03X148580Y349735I-2402J-1D01*
G01X147798Y350517D01*
G03X146487Y351189I-1698J-1698D01*
G02X146229Y351820I65J395D01*
G03X146884Y353819I-2725J2000D01*
G03X146882Y353933I-3380J-2D01*
G02X147564Y354230I400J14D01*
G01X163970Y337824D01*
Y328694D01*
G03X163169Y326576I2400J-2118D01*
G03X169573I3202J0D01*
G03X168772Y328694I-3201J0D01*
G01Y338819D01*
G03X168069Y340517I-2402J0D01*
G01X148069Y360517D01*
G03X146371Y361220I-1698J-1699D01*
G01X145961D01*
Y361497D01*
X146013Y361554D01*
G03X146879Y363649I-2509J2264D01*
G01X146889Y363838D01*
X151357D01*
G03X153055Y364542I-1J2402D01*
G01X155200Y366686D01*
X155272Y366693D01*
G03X158202Y369883I-272J3190D01*
G03X155000Y373085I-3202J0D01*
G03X151810Y370155I0J-3202D01*
G01X151803Y370083D01*
X150362Y368642D01*
X147078D01*
X146884Y368835D01*
X146882Y368914D01*
G03X145923Y371179I-3378J-95D01*
G02Y371459I143J140D01*
G03X146884Y373819I-2419J2361D01*
G03X145923Y376179I-3380J-1D01*
G02Y376459I143J140D01*
G03X146884Y378819I-2419J2361D01*
G03X145923Y381179I-3380J-1D01*
G02Y381459I143J140D01*
G03X146884Y383819I-2419J2361D01*
G03X146839Y384363I-3380J-6D01*
G02X147234Y384827I395J64D01*
G37*
G36*
G01X115000Y276000D02*
X153000D01*
G02X153183Y275999I-18J-20000D01*
G02X153375Y275750I-2J-200D01*
G03X153275Y274955I3102J-794D01*
G03X156477Y271753I3202J0D01*
G03X158595Y272554I0J3201D01*
G01X164224D01*
G02X173000Y256000I-11225J-16554D01*
G01Y249370D01*
X170790D01*
G03X168672Y250171I-2118J-2400D01*
G03X166630Y249435I0J-3201D01*
G02X166303Y249595I-127J154D01*
G03X166304Y249652I-2001J64D01*
G01Y255072D01*
G03X164302Y257074I-2002J0D01*
G01X152234D01*
G03X150232Y255072I-1J-2001D01*
G01Y249652D01*
G03X150755Y248301I2002J-2D01*
G02Y247762I-295J-270D01*
G03X150232Y246412I1479J-1349D01*
G01Y240990D01*
G03X150756Y239640I2002J0D01*
G02Y239100I-295J-270D01*
G03X150232Y237750I1478J-1350D01*
G01Y233723D01*
X148857Y232348D01*
X131411D01*
G03X129294Y233149I-2118J-2401D01*
G01Y235174D01*
X131063Y236943D01*
G03X131766Y238641I-1699J1698D01*
G01Y254399D01*
G03X131063Y256097I-2402J0D01*
G01X130091Y257069D01*
X130092Y257154D01*
Y262500D01*
G03X128090Y264502I-2002J1D01*
G01X114430D01*
G03X112428Y262500I0J-2001D01*
G01Y257914D01*
X97674D01*
G03X95976Y257210I1J-2402D01*
G01X74188Y235422D01*
G03X73484Y233724I1698J-1699D01*
G01Y215331D01*
G03X74188Y213633I2402J1D01*
G01X74408Y213413D01*
G02X74266Y213072I-142J-141D01*
G01X65514D01*
G02X65114Y213462I0J400D01*
G03X61913Y216588I-3201J-76D01*
G03X60516Y216267I0J-3202D01*
G02X59954Y216530I-174J360D01*
G03X59448Y217438I-1942J-487D01*
G02Y217995I287J278D01*
G03X60014Y219390I-1436J1395D01*
G01Y224704D01*
G03X58012Y226706I-2002J0D01*
G01X44350D01*
G03X42348Y224704I0J-2002D01*
G01Y219390D01*
G03X42914Y217995I2002J0D01*
G02Y217438I-287J-278D01*
G03X42348Y216044I1436J-1395D01*
G01Y215649D01*
G03X41453Y215084I803J-2263D01*
G01X35848Y209479D01*
G03X35164Y208088I1698J-1699D01*
G01X35142Y207914D01*
X26934D01*
Y208222D01*
G03X26410Y209573I-2002J0D01*
G02Y210112I295J270D01*
G03X26934Y211462I-1478J1351D01*
G01Y216884D01*
G03X24932Y218886I-2002J-1D01*
G01X12864D01*
G03X10862Y216884I0J-2002D01*
G01Y212857D01*
X9965Y211960D01*
G03X9723Y211678I1696J-1700D01*
G02X9000Y211913I-323J236D01*
G01Y221000D01*
G02X22000Y234000I13000J0D01*
G01X66000D01*
X91000Y259000D01*
G03X93870Y264812I-7142J7141D01*
G01X93879Y264879D01*
X99000Y270000D01*
G02X102116Y272554I14427J-14424D01*
G01X103231D01*
G03X105000Y273286I1J2501D01*
G01X105986Y274272D01*
X106053Y274281D01*
G03X107923Y275219I-422J3174D01*
G02X114002Y275967I5503J-19644D01*
G03X114991Y275999I232J8141D01*
G01X115000Y276000D01*
G37*
G36*
G01X33083Y198780D02*
G03X35845Y197198I2762J1620D01*
G03X38989Y199791I0J3203D01*
G02X39664Y199998I393J-76D01*
G01X43144Y196517D01*
Y193352D01*
G03X43146Y193279I2002J18D01*
G01Y193072D01*
X27239D01*
G02X26855Y193583I0J400D01*
G03X26934Y194140I-1923J557D01*
G01Y198780D01*
X33083D01*
G37*
G36*
G01X108624Y205498D02*
X110366D01*
X114719Y201145D01*
X114728Y201078D01*
G03X117902Y198298I3174J422D01*
G03X119901Y198998I1J3202D01*
G01X134033D01*
G02X134316Y198316I0J-400D01*
G01X130457Y194457D01*
X130316Y194590D01*
G03X126890Y195947I-3426J-3646D01*
G03X122615Y193543I0J-5003D01*
G01X122557Y193446D01*
X121918D01*
G03X120149Y192714I-1J-2501D01*
G01X110149Y182714D01*
G03X109416Y180945I1768J-1769D01*
G01Y175000D01*
X62147D01*
G02X61851Y175670I-1J400D01*
G03X63301Y179408I-4095J3739D01*
G03X61907Y183084I-5544J0D01*
G02X62207Y183750I299J266D01*
G01X71747D01*
G02X72118Y183200I0J-400D01*
G03X71885Y182000I2969J-1199D01*
G03X75087Y178798I3202J0D01*
G03X77086Y179498I1J3202D01*
G01X83164D01*
X83168Y179303D01*
G03X85170Y177340I2002J39D01*
G01X98830D01*
G03X100832Y179342I0J2002D01*
G01Y184658D01*
G03X98830Y186660I-2002J0D01*
G01X93041D01*
G02X92759Y187342I1J400D01*
G01X96776Y191359D01*
G02X97394Y191294I283J-283D01*
G03X100020Y189868I2626J1705D01*
G01X105784D01*
G03X107740Y190555I-1J3132D01*
G01X107795Y190598D01*
X108114D01*
G03X110516Y193000I0J2402D01*
G01Y199400D01*
G03X109812Y201098I-2402J-1D01*
G01X108791Y202119D01*
X108819Y202229D01*
G03X108916Y203000I-3035J773D01*
G03X108303Y204861I-3131J0D01*
G02X108624Y205498I322J237D01*
G37*
G36*
G01X88382Y240118D02*
X113222D01*
Y239810D01*
G03X113747Y238459I2002J0D01*
G02Y237919I-295J-270D01*
G03X113304Y237134I1477J-1351D01*
G02X113072Y236995I-192J57D01*
G03X112429Y237060I-642J-3137D01*
G03X109239Y234130I0J-3202D01*
G01X109232Y234058D01*
X107524Y232350D01*
X100832D01*
Y236658D01*
G03X98830Y238660I-2002J0D01*
G01X87888D01*
G02X87606Y239342I1J400D01*
G01X88382Y240118D01*
G37*
G36*
G01X155418Y155524D02*
X155585Y155552D01*
G03X156795Y156257I-339J1973D01*
G02X157406Y156265I309J-254D01*
G03X158918Y155576I1511J1313D01*
G01X172578D01*
G03X174094Y156270I0J2002D01*
G02X174679Y156291I302J-262D01*
G01X176970Y154000D01*
G03X178739Y153268I1768J1769D01*
G01X181955D01*
Y148918D01*
G03X182417Y147638I2002J-1D01*
G03X181955Y146358I1540J-1279D01*
G01Y142008D01*
X177880D01*
X175791Y144098D01*
X175784Y144170D01*
G03X172594Y147100I-3190J-272D01*
G03X169392Y143898I0J-3202D01*
G03X172322Y140708I3202J0D01*
G01X172394Y140701D01*
X175187Y137909D01*
G03X175271Y137829I1698J1698D01*
G02X175137Y137480I-134J-149D01*
G01X148557D01*
G03X146439Y138281I-2118J-2400D01*
G03X143237Y135079I0J-3202D01*
G01Y135031D01*
G02X142837Y134624I-400J-7D01*
G01X129847D01*
G02X129449Y135070I0J400D01*
G03X129462Y135296I-1988J228D01*
G01Y140846D01*
G03X129000Y142126I-2002J1D01*
G03X129462Y143406I-1540J1279D01*
G01Y147756D01*
X132682D01*
X133735Y146702D01*
X133744Y146635D01*
G03X136918Y143855I3174J422D01*
G03X139701Y145474I0J3201D01*
G02X140370Y145514I348J-198D01*
G03X142942Y144220I2572J1909D01*
G03X146144Y147422I0J3202D01*
G03X143214Y150612I-3202J0D01*
G01X143142Y150619D01*
X138781Y154979D01*
G02X138923Y155320I142J141D01*
G01X139023D01*
X139079Y155273D01*
G03X141142Y154520I2063J2450D01*
G03X143470Y155524I0J3201D01*
G01X150616D01*
Y148452D01*
G03X151319Y146754I2402J0D01*
G01X153250Y144822D01*
X153257Y144750D01*
G03X156447Y141820I3190J272D01*
G03X159649Y145022I0J3202D01*
G03X156719Y148212I-3202J0D01*
G01X156647Y148219D01*
X155418Y149447D01*
Y155524D01*
G37*
G36*
G01X166304Y240990D02*
Y243953D01*
G02X166922Y244287I400J-1D01*
G03X168672Y243767I1749J2682D01*
G03X170790Y244568I0J3201D01*
G01X173000D01*
Y240496D01*
G02X172519Y240105I-400J1D01*
G03X171871Y240171I-647J-3136D01*
G03Y233767I0J-3202D01*
G03X172519Y233833I1J3202D01*
G02X173000Y233442I81J-392D01*
G01Y232712D01*
X170966D01*
G03X168965Y230710I0J-2001D01*
G01Y225290D01*
G03X170966Y223288I2001J-1D01*
G01X173000D01*
Y207658D01*
X166078D01*
G02X165812Y208356I0J400D01*
G03X167672Y212500I-3686J4144D01*
G03X162127Y218045I-5545J0D01*
G03X158823Y216953I0J-5544D01*
G02X158184Y217274I-239J321D01*
G01Y223844D01*
X163770Y229430D01*
G03X164336Y230327I-1698J1698D01*
G03X166304Y232328I-34J2002D01*
G01Y237750D01*
G03X165779Y239100I-2002J-1D01*
G02Y239640I295J270D01*
G03X166304Y240990I-1477J1351D01*
G37*
G36*
G01X190346Y90972D02*
X216439D01*
G02X216830Y90488I0J-400D01*
G03X216760Y89823I3132J-666D01*
G03X217560Y87705I3202J-1D01*
G01Y78453D01*
G03X216760Y76335I2402J-2117D01*
G03X217620Y74152I3201J0D01*
G02X217615Y73874I-146J-136D01*
G01X208448Y64706D01*
X205280D01*
Y64916D01*
G03X203278Y66918I-2003J0D01*
G01X195688D01*
G02X195331Y67498I0J400D01*
G03X195452Y67782I-2144J1081D01*
G01X204074D01*
G03X206076Y69784I0J2002D01*
G01Y75098D01*
G03X204074Y77100I-2002J1D01*
G01X190810D01*
Y85417D01*
G03X191611Y87535I-2400J2118D01*
G03X190131Y90234I-3201J0D01*
G02X190346Y90972I215J338D01*
G37*
G36*
G01X207862Y152470D02*
X215101D01*
X219417Y148154D01*
G03X220512Y147514I1769J1769D01*
G02X220779Y146991I-108J-385D01*
G03X220439Y145079I5206J-1912D01*
G03X222984Y140415I5546J0D01*
G02Y139743I-216J-336D01*
G03X220986Y137480I3001J-4663D01*
G01X204101D01*
G02X203967Y137829I0J200D01*
G03X204051Y137909I-1614J1778D01*
G01X204848Y138706D01*
G03X205414Y139602I-1697J1699D01*
G01X205860D01*
G03X207862Y141604I1J2002D01*
G01Y146062D01*
G03X207371Y147375I-2001J0D01*
G02Y147900I302J262D01*
G03X207862Y149212I-1510J1313D01*
G01Y152470D01*
G37*
%LPC*%
G75*
G36*
G01X86312Y159448D02*
G02X87042Y157283I-2847J-2165D01*
G02X79888I-3577J0D01*
G02X80618Y159448I3577J0D01*
G02X79888Y161614I2848J2166D01*
G02X87042I3577J0D01*
G02X86312Y159448I-3578J0D01*
G37*
G36*
G01X273661Y228999D02*
G03Y229662I-224J331D01*
G02X271227Y234252I3111J4590D01*
G02X282317I5545J0D01*
G02X279883Y229662I-5545J0D01*
G03Y228999I224J-332D01*
G02Y219819I-3111J-4590D01*
G03Y219157I225J-331D01*
G02X282317Y214567I-3111J-4590D01*
G02X276772Y209022I-5545J0D01*
G02X271823Y212066I0J5545D01*
G01X258713D01*
X235780Y189132D01*
G02X236057Y187402I-5268J-1731D01*
G02X230512Y192947I-5545J0D01*
G02X232129Y192706I0J-5545D01*
G01X232243Y192671D01*
X255908Y216336D01*
G02X257677Y217068I1768J-1769D01*
G01X271823D01*
G02X273661Y219157I4949J-2501D01*
G03Y219819I-225J331D01*
G02X271774Y222008I3111J4590D01*
G01X205790D01*
G02X203672Y221207I-2118J2400D01*
G02Y227611I0J3202D01*
G02X205790Y226810I0J-3201D01*
G01X271774D01*
G02X273661Y228999I4998J-2401D01*
G37*
G36*
G01X263640Y297106D02*
Y314017D01*
G02X259218Y320472I2500J6455D01*
G02X273064I6923J0D01*
G02X268642Y314017I-6922J0D01*
G01Y291589D01*
X288298Y271934D01*
X288421Y271983D01*
G02X290945Y272475I2525J-6234D01*
G02X284219Y265749I0J-6726D01*
G02X284711Y268273I6726J-1D01*
G01X284760Y268396D01*
X266371Y286785D01*
G03X265688Y286502I-283J-283D01*
G01Y276201D01*
G02X264985Y274503I-2402J0D01*
G01X264088Y273606D01*
Y272638D01*
G02X262086Y270636I-2002J0D01*
G01X257874D01*
G02X255872Y272638I0J2002D01*
G01Y275000D01*
G02X257874Y277002I2002J0D01*
G01X260691D01*
X260886Y277196D01*
Y278116D01*
X257874D01*
G02X255872Y280118I0J2002D01*
G01Y282480D01*
G02X257874Y284482I2002J0D01*
G01X260886D01*
Y285052D01*
X249350D01*
Y280936D01*
X249544Y280742D01*
X252362D01*
G02X254363Y278740I-1J-2002D01*
G01Y276378D01*
G02X252362Y274376I-2002J0D01*
G01X248148D01*
G02X246147Y276378I1J2002D01*
G01Y277346D01*
X245250Y278243D01*
G02X244546Y279941I1698J1699D01*
G01Y293519D01*
X244404Y293662D01*
X243385D01*
G02X238387Y290518I-4998J2401D01*
G02X233360Y293722I0J5546D01*
G03X232715Y293836I-362J-169D01*
G01X221404Y282525D01*
X221490Y282390D01*
G02X221992Y280669I-2699J-1721D01*
G02X215588I-3202J0D01*
G02X216341Y282732I3203J0D01*
G01X216388Y282788D01*
Y283307D01*
G02X217092Y285005I2402J-1D01*
G01X234592Y302505D01*
G02X236290Y303208I1698J-1699D01*
G01X244567D01*
G02X246265Y302505I0J-2402D01*
G01X246719Y302051D01*
G03X247349Y302134I283J283D01*
G02X247606Y302486I1736J-997D01*
G03Y303026I-295J270D01*
G02X247082Y304376I1478J1350D01*
G01Y304686D01*
X234257D01*
X193315Y263743D01*
X193308Y263671D01*
G02X190118Y260741I-3190J272D01*
G02X186916Y263943I0J3202D01*
G02X189846Y267133I3202J0D01*
G01X189918Y267140D01*
X231564Y308785D01*
G02X233262Y309488I1698J-1699D01*
G01X247082D01*
Y309798D01*
G02X249084Y311800I2002J0D01*
G01X261152D01*
G02X263154Y309798I-1J-2002D01*
G01Y304376D01*
G02X262629Y303026I-2002J1D01*
G03Y302486I295J-270D01*
G02X263154Y301136I-1477J-1351D01*
G01Y297109D01*
X263298Y296964D01*
G03X263640Y297106I142J141D01*
G37*
G36*
G01X259461Y341592D02*
X216691D01*
G02X210236Y337171I-6455J2502D01*
G02Y351017I0J6923D01*
G02X216691Y346596I0J-6923D01*
G01X259461D01*
G02X293446Y312610I-1J-33986D01*
G01Y291678D01*
G02X297671Y285434I-2501J-6244D01*
G02X284219I-6726J0D01*
G02X288444Y291678I6726J0D01*
G01Y312610D01*
G03X259461Y341592I-28982J0D01*
G37*
G54D39*
X83071Y104921D03*
Y85631D03*
G54D40*
X276575Y119094D03*
Y136811D03*
X38385Y119094D03*
G54D41*
X218110Y367716D03*
%LPD*%
G75*
G54D10*
X14744Y303937D03*
Y335827D03*
X34863Y303937D03*
Y335827D03*
G54D11*
X23622Y23622D03*
Y370079D03*
X291339Y23622D03*
Y370079D03*
G54D20*
X83071Y85631D03*
Y104921D03*
G54D12*
X20604Y98031D03*
X28213D03*
X15093Y205512D03*
X22702D03*
X15093Y196850D03*
X22702D03*
X15093Y214173D03*
X22702D03*
X52101Y73622D03*
X59710D03*
X52101Y86220D03*
X59710D03*
X47376Y204724D03*
X54985D03*
X47376Y196063D03*
X54985D03*
X121915Y12992D03*
X114306D03*
X117454Y233858D03*
Y242520D03*
X145408Y160236D03*
X145014Y190551D03*
X125063Y233858D03*
Y242520D03*
X163518Y56693D03*
X171127D03*
X163518Y74016D03*
X171127D03*
X153017Y160236D03*
X152623Y190551D03*
X173196Y228000D03*
X154463Y235039D03*
X162072D03*
X154463Y252362D03*
X162072D03*
X154463Y243701D03*
X162072D03*
X193439Y62205D03*
X201048D03*
X180805Y228000D03*
X244620Y174803D03*
X252229D03*
X251313Y289764D03*
X258922D03*
X251313Y307087D03*
X258922D03*
X251313Y298425D03*
X258922D03*
G54D30*
X203149Y114173D03*
Y119684D03*
G54D21*
X83465Y161614D03*
Y157283D03*
G54D13*
X29271Y76575D03*
Y84055D03*
X19546Y80315D03*
X122185Y67126D03*
X112460Y70866D03*
X122185Y74606D03*
X259980Y273819D03*
Y281299D03*
X250255Y277559D03*
G54D22*
X81099Y208000D03*
Y203000D03*
Y198000D03*
Y193000D03*
Y213000D03*
Y223000D03*
Y218000D03*
X102902Y193000D03*
Y198000D03*
Y203000D03*
Y208000D03*
Y213000D03*
Y218000D03*
Y223000D03*
G54D31*
X227165Y236969D03*
X266181Y47244D03*
G54D23*
X78200Y256945D03*
Y266000D03*
Y275055D03*
G54D32*
X227165Y246969D03*
Y256969D03*
Y266969D03*
X256181Y47244D03*
X246181D03*
X236181D03*
G54D14*
X38385Y119094D03*
Y136811D03*
X38189Y246063D03*
Y255906D03*
Y265748D03*
X63976Y119094D03*
Y136811D03*
X47756Y169408D03*
X57756Y179408D03*
X47756D03*
X127874Y212500D03*
X162127D03*
X185374D03*
X204134Y296063D03*
X225984Y95079D03*
Y105079D03*
Y115079D03*
Y125079D03*
Y135079D03*
Y145079D03*
Y155079D03*
X230512Y187402D03*
X219627Y212500D03*
X250984Y119094D03*
Y136811D03*
X238387Y296063D03*
X276575Y119094D03*
Y136811D03*
X276772Y183071D03*
Y173228D03*
Y163386D03*
X264765Y187402D03*
X276772Y234252D03*
Y224409D03*
Y214567D03*
G54D24*
X78347Y318819D03*
Y313819D03*
Y343819D03*
Y338819D03*
Y333819D03*
Y328819D03*
Y323819D03*
Y373819D03*
Y368819D03*
Y363819D03*
Y358819D03*
Y353819D03*
Y348819D03*
Y383819D03*
Y378819D03*
X142126Y313819D03*
Y318819D03*
Y323819D03*
Y328819D03*
Y333819D03*
Y338819D03*
Y343819D03*
Y358819D03*
Y363819D03*
Y368819D03*
Y373819D03*
Y348819D03*
Y353819D03*
Y378819D03*
Y383819D03*
G54D33*
X218110Y320472D03*
X210236Y344094D03*
X218110Y367716D03*
X266141Y320472D03*
G54D15*
X28732Y196850D03*
X35845Y200400D03*
X28732Y227805D03*
X27145Y299673D03*
X63976Y76022D03*
X57756Y127284D03*
X43146Y204724D03*
X57714Y227805D03*
X61913Y213386D03*
X47469Y260905D03*
X75334Y138511D03*
X94700Y132223D03*
X75087Y182000D03*
Y197371D03*
X75787Y205825D03*
X68878Y206123D03*
X90312Y198000D03*
X82436Y234000D03*
X90511Y213000D03*
X69518Y260905D03*
X90432Y295145D03*
X86303Y358819D03*
X104699Y37647D03*
X116018Y100531D03*
X105100Y125897D03*
X95496Y117346D03*
X116018Y150257D03*
X117618Y179134D03*
X117902Y201500D03*
X109814Y202800D03*
X96712Y200400D03*
X112429Y233858D03*
X100832Y234000D03*
X97690Y218000D03*
X112429Y248924D03*
X100832Y265601D03*
X105631Y277455D03*
X112466Y353819D03*
X143111Y79535D03*
X128118Y74016D03*
X135670Y100531D03*
X141618Y125897D03*
X145079Y110846D03*
X140319Y141646D03*
X136918Y147057D03*
X146439Y135079D03*
X149319Y129823D03*
X137618Y128297D03*
X142942Y147422D03*
X141142Y157722D03*
X125718D03*
X129293Y229947D03*
X135746Y313819D03*
X133329Y323228D03*
X137370Y335583D03*
X146882Y338839D03*
X158859Y93373D03*
X168170Y110846D03*
X176000Y103000D03*
X170670Y113346D03*
X162796Y121925D03*
X152953Y124960D03*
X174194Y120276D03*
X165196Y117346D03*
X173270Y151693D03*
X160290Y132223D03*
X172594Y143898D03*
X156447Y145022D03*
X151438Y169247D03*
X173771D03*
X174272Y160236D03*
X152953Y164947D03*
X171871Y236969D03*
X168672Y246969D03*
X156477Y274955D03*
X154877Y318819D03*
X166371Y326576D03*
X170124Y355313D03*
X155000Y369883D03*
X182950Y58444D03*
X197518Y57744D03*
X188409Y87535D03*
X200556Y178714D03*
X183694Y160623D03*
X194918Y202856D03*
X197418Y207656D03*
X185035Y228000D03*
X203672Y224409D03*
X185035Y257537D03*
X190118Y263943D03*
X191556Y274955D03*
X232528Y65729D03*
X219962Y76335D03*
Y89823D03*
X212561Y118123D03*
X210061Y122559D03*
X212561Y147659D03*
X218790Y280669D03*
X260008Y98957D03*
X237128Y164947D03*
X276575Y88957D03*
G54D16*
X51851Y98819D03*
X59961D03*
X47126Y222047D03*
X55236D03*
X47126Y213386D03*
X55236D03*
X53032Y290157D03*
X61142D03*
X53032Y298819D03*
X61142D03*
X52638Y321654D03*
X60748D03*
X52638Y330315D03*
X60748D03*
X87945Y182000D03*
X96055D03*
X87945Y234000D03*
X96055D03*
X117205Y259843D03*
Y251181D03*
X139646Y98031D03*
X147756D03*
Y89370D03*
X139646D03*
X125315Y259843D03*
Y251181D03*
X163268Y65354D03*
X171378D03*
X170590Y98031D03*
X162480D03*
X169803Y160236D03*
X161693D03*
X193189Y72441D03*
X201299D03*
G54D34*
X259724Y70866D03*
G54D25*
X101299Y45276D03*
X113110Y29528D03*
X124921Y45276D03*
G54D17*
X57756Y169408D03*
X225984Y85079D03*
G54D35*
X249724Y70866D03*
G54D26*
X111299Y45276D03*
X123110Y29528D03*
X134921Y45276D03*
X126890Y190945D03*
X136890D03*
X178071D03*
X188071D03*
G54D27*
X124803Y146181D03*
Y138071D03*
X186614Y112874D03*
Y120984D03*
X194882Y112874D03*
Y120984D03*
X186614Y143583D03*
Y151693D03*
X194882Y143583D03*
Y151693D03*
G54D18*
X53800Y266000D03*
G54D36*
X290945Y265749D03*
Y285434D03*
G54D37*
G01X29271Y84055D02*
X32577D01*
X38385Y89863D01*
G01D02*
Y119094D01*
G01X63976D02*
X38385D01*
G01D02*
Y124840D01*
G01X32639Y119094D02*
X38385D01*
G01X22702Y196850D02*
X28732D01*
G01Y227805D02*
X57714D01*
G01X14744Y303937D02*
Y261605D01*
G01X43872Y255906D02*
X38189D01*
G01X14744Y261605D02*
X36930Y239419D01*
X41508D01*
X44633Y242544D01*
Y255145D01*
G01X38189Y246063D02*
X27145Y257107D01*
Y299673D01*
G01X44533Y298819D02*
X38189Y292475D01*
Y265748D01*
G01X14744Y303937D02*
Y308403D01*
G01Y303937D02*
X23364D01*
G01X34863D02*
X44533D01*
G01X27145Y299673D02*
Y326357D01*
G01X48608Y335827D02*
X34863D01*
G01Y331361D02*
Y335827D01*
G01D02*
Y340293D01*
G01X14744Y335827D02*
X22361D01*
X27145Y331043D01*
Y326357D01*
G01D02*
X60647D01*
X60748Y326458D01*
Y330315D01*
G01X59710Y68709D02*
Y73622D01*
G01X125005Y78522D02*
X66476D01*
X63976Y76022D01*
G01X59710Y73622D02*
X63976D01*
G01D02*
Y76022D01*
G01X59710Y73622D02*
Y78535D01*
G01X73228Y123754D02*
Y127183D01*
X73127Y127284D01*
X57756D01*
G01X111918Y169408D02*
X57756D01*
G01D02*
X47756D01*
G01X57714Y227805D02*
X59412Y226107D01*
Y226105D01*
X55354Y222047D01*
X55236D01*
G01X44633Y255145D02*
X43872Y255906D01*
G01X66818Y256945D02*
X61142Y262621D01*
G01X44633Y255145D02*
X65018D01*
X66818Y256945D01*
G01X61142Y262621D02*
Y290157D01*
G01X47469Y260905D02*
Y266000D01*
G01X61142Y290157D02*
X65117D01*
X65218Y290258D01*
Y298819D01*
G01X47469Y266000D02*
Y288569D01*
X49057Y290157D01*
X53032D01*
G01X53800Y266000D02*
X47469D01*
G01X61142Y298819D02*
X65218D01*
G01X60748Y321654D02*
Y317797D01*
X70803Y307742D01*
G01X71723Y305324D02*
X65218Y298819D01*
G01X53032D02*
X44533D01*
G01D02*
Y303937D01*
G01D02*
X52638Y312042D01*
Y321654D01*
G01Y330315D02*
X52566Y330387D01*
Y334273D01*
G01D02*
X64258D01*
X64824Y333707D01*
Y321755D01*
X64723Y321654D01*
X60748D01*
G01X52566Y334273D02*
X50162D01*
X48608Y335827D01*
G01X52638Y330315D02*
Y335175D01*
G01X47660Y330315D02*
X52638D01*
G01X75334Y138511D02*
X102142D01*
G01X87945Y182000D02*
X75087D01*
G01X81099Y208000D02*
X77962D01*
X75787Y205825D01*
G01D02*
X73389Y203427D01*
Y199069D01*
X75087Y197371D01*
G01X87945Y234000D02*
X82436D01*
G01X78200Y256945D02*
X66818D01*
G01X78200Y252577D02*
Y256945D01*
G01D02*
X84733D01*
G01X78200Y266000D02*
Y262635D01*
X76470Y260905D01*
X69518D01*
G01X78200Y275055D02*
X103231D01*
X105631Y277455D01*
G01X88832Y309342D02*
X73323D01*
X71723Y307742D01*
G01X133329Y323228D02*
X102718D01*
X88832Y309342D01*
G01D02*
X90432Y307742D01*
Y295145D01*
G01X71723Y307742D02*
Y305324D01*
G01X70803Y307742D02*
X71723D01*
G01X117876Y74606D02*
X122185D01*
G01X135670Y100531D02*
X116018D01*
G01X102142Y138511D02*
X106658Y133995D01*
X124803D01*
G01X119943Y138071D02*
X124803D01*
G01X111918Y169408D02*
Y154357D01*
X116018Y150257D01*
G01D02*
X124803D01*
G01X126890Y190945D02*
X121918D01*
X111918Y180945D01*
Y169408D01*
G01X96055Y177140D02*
Y182000D01*
G01X102902Y208000D02*
X111402D01*
X117902Y201500D01*
G01D02*
X167516D01*
X178071Y190945D01*
G01X109814Y202800D02*
Y191000D01*
G01D02*
X100814Y182000D01*
X96055D01*
G01D02*
Y186860D01*
G01Y234000D02*
X100832D01*
G01X105631Y277455D02*
X124239Y296063D01*
X204134D01*
G01X100832Y265601D02*
X123414D01*
G01X147756Y98031D02*
X151832D01*
G01X150881Y82035D02*
X148381Y79535D01*
X143111D01*
G01X147756Y89370D02*
X151731D01*
X151832Y89471D01*
Y98031D01*
G01X147756Y89370D02*
Y85160D01*
X150881Y82035D01*
G01X143111Y79535D02*
X125005D01*
Y78522D01*
G01D02*
Y77426D01*
X122185Y74606D01*
G01Y71223D02*
Y74606D01*
G01D02*
Y77989D01*
G01X139646Y98031D02*
X137146Y100531D01*
X135670D01*
G01X124803Y133995D02*
X132668D01*
X140319Y141646D01*
G01X124803Y138071D02*
Y133995D01*
G01X140319Y141646D02*
X148938D01*
G01X124803Y138071D02*
X129663D01*
G01X124803Y150257D02*
X133718D01*
X136918Y147057D01*
G01X124803Y146181D02*
Y150257D01*
G01X145408Y160236D02*
X148938D01*
G01X145408Y155323D02*
Y160236D01*
G01D02*
Y165149D01*
G01X125315Y259843D02*
X158501D01*
G01X123414Y265601D02*
X125315Y263700D01*
Y259843D01*
G01X142126Y318819D02*
X154877D01*
G01X142126D02*
X137738D01*
X133329Y323228D01*
G01X142126Y313819D02*
X135746D01*
G01X147782Y373820D02*
X159181D01*
X170124Y362877D01*
Y355313D01*
G01X142126Y373819D02*
X147781D01*
G01X147782Y373820D02*
Y382819D01*
G01X147781Y373819D02*
X147782Y373820D01*
G01Y382819D02*
X146782Y383819D01*
X142126D01*
G01X171127Y56693D02*
X174657D01*
X175406Y55944D01*
G01D02*
X182950D01*
G01X162480Y98031D02*
X158404D01*
G01X151832D02*
X158404D01*
G01X168170Y108346D02*
X158404Y98580D01*
Y98031D01*
G01X150881Y82035D02*
X169950D01*
X182950Y69035D01*
Y58444D01*
G01X176000Y103000D02*
Y99466D01*
X174565Y98031D01*
X170590D01*
G01X168170Y110846D02*
Y108346D01*
G01D02*
X186162D01*
X186614Y108798D01*
G01X176000Y103000D02*
X204999D01*
X216000Y114001D01*
Y120000D01*
X213441Y122559D01*
X210061D01*
G01X148938Y160236D02*
Y141646D01*
G01X186614Y151693D02*
X173270D01*
G01D02*
X163293D01*
G01D02*
X161693Y153293D01*
G01X148938Y141646D02*
X156793D01*
X163293Y148146D01*
Y151693D01*
G01X161693Y153293D02*
Y160236D01*
G01X148938D02*
Y190295D01*
X149194Y190551D01*
X152623D01*
G01X151438Y169247D02*
X173771D01*
G01X169803Y160236D02*
X174272D01*
G01D02*
X178739Y155769D01*
X190924D01*
G01X152623Y185638D02*
Y190551D01*
G01D02*
Y195464D01*
G01Y190551D02*
X157055D01*
G01X197418Y207656D02*
X166971D01*
X162127Y212500D01*
G01X165602Y243701D02*
Y228000D01*
G01D02*
X162127Y224525D01*
G01X165602Y228000D02*
X173196D01*
G01X162127Y224525D02*
Y212500D01*
G01X165602Y243701D02*
Y252261D01*
X165501Y252362D01*
X162072D01*
G01Y243701D02*
X165602D01*
G01X158501Y259843D02*
X162072Y256272D01*
Y252362D01*
G01X154877Y318819D02*
X164820D01*
X170124Y324123D01*
Y355313D01*
G01X182950Y55944D02*
Y36538D01*
G01D02*
X196850Y22638D01*
G01X201299Y67581D02*
Y72441D01*
G01D02*
X201181D01*
X197243Y68503D01*
Y58019D01*
X197518Y57744D01*
G01D02*
X208018Y47244D01*
G01X182950Y55944D02*
Y58444D01*
G01X201048Y62205D02*
X209484D01*
X225984Y78705D01*
Y85079D01*
G01X201299Y72441D02*
Y77301D01*
G01Y72441D02*
X206277D01*
G01X194882Y112874D02*
Y108798D01*
G01X186614D02*
X194882D01*
G01X186614Y112874D02*
Y108798D01*
G01X194882D02*
X203236D01*
G01D02*
X212561Y118123D01*
G01X203149Y119684D02*
Y122459D01*
X203249Y122559D01*
X210061D01*
G01X194882Y151693D02*
Y147718D01*
X194941Y147659D01*
X212561D01*
G01X203150Y151442D02*
Y154972D01*
G01X190924Y155769D02*
Y143684D01*
X191025Y143583D01*
X194882D01*
G01X244620Y174803D02*
X194213D01*
X178071Y190945D01*
G01X203150Y154972D02*
X202353Y155769D01*
X190924D01*
G01X241732Y124541D02*
X237822D01*
X236028Y126335D01*
Y141923D01*
X228028Y149923D01*
X221186D01*
X216137Y154972D01*
X203150D01*
G01X180805Y228000D02*
X185035D01*
G01X180805Y223087D02*
Y228000D01*
G01D02*
Y232913D01*
G01X185035Y257537D02*
X217733D01*
G01X208018Y47244D02*
X236181D01*
G01X276772Y214567D02*
X257677D01*
X230512Y187402D01*
G01X217733Y257537D02*
X227165Y266969D01*
G01D02*
X253343D01*
G01X227165D02*
Y272518D01*
G01X221616Y266969D02*
X227165D01*
G01X218110Y320472D02*
X204134Y306496D01*
Y296063D01*
G01X210236Y344094D02*
X259461D01*
G02X290945Y312610I0J-31484D01*
G01Y285434D01*
G01X236181Y41695D02*
Y47244D01*
G01D02*
Y52793D01*
G01X250984Y119094D02*
X276575D01*
G01X260008Y98957D02*
X241732Y117233D01*
Y124541D01*
G01X276772Y234252D02*
X253343Y257681D01*
G01D02*
Y266969D01*
G01X259980Y281299D02*
X254943D01*
G01D02*
X251313Y284929D01*
G01X253343Y266969D02*
X254943Y268569D01*
Y281299D01*
G01X251313Y284929D02*
Y289764D01*
G01X276575Y88957D02*
Y119094D01*
G01D02*
Y124840D01*
G01Y119094D02*
X282321D01*
G01X276772Y183071D02*
Y188817D01*
G01X271026Y183071D02*
X276772D01*
G01D02*
X282518D01*
G01X276772Y234252D02*
Y239998D01*
G01X271026Y234252D02*
X276772D01*
G01D02*
X282518D01*
G01X259980Y277916D02*
Y281299D01*
G01D02*
Y284682D01*
G01X290945Y265749D02*
X266141Y290553D01*
Y320472D01*
G54D19*
X89764Y41077D03*
Y48686D03*
X73228Y123754D03*
Y131363D03*
X150394Y41864D03*
Y49473D03*
X203150Y143833D03*
Y151442D03*
X241732Y124541D03*
Y132150D03*
G54D28*
X186850Y22638D03*
G54D38*
G01X28213Y98031D02*
Y88057D01*
X20471Y80315D01*
X19546D01*
G01X29271Y76575D02*
X39102D01*
X42055Y73622D01*
X52101D01*
G01X57756Y179408D02*
X52756Y174408D01*
X45536D01*
X20604Y149476D01*
Y98031D01*
G01X15093Y214173D02*
Y213692D01*
X11663Y210262D01*
Y192908D01*
X25163Y179408D01*
X47756D01*
G01X22702Y205512D02*
X37546D01*
G01D02*
X46995Y196063D01*
X47376D01*
G01X47126Y213386D02*
X43151D01*
X37546Y207781D01*
Y205512D01*
G01X15093Y196850D02*
Y196369D01*
X20792Y190670D01*
X88812D01*
X94312Y196170D01*
Y201437D01*
X95875Y203000D01*
X102902D01*
G01X35845Y200400D02*
X35064Y201181D01*
X15514D01*
X15093Y201602D01*
Y205512D01*
G01X22702Y214173D02*
X15093Y206564D01*
Y205512D01*
G01X59961Y98819D02*
Y86471D01*
X59710Y86220D01*
G01X52101Y73622D02*
Y78130D01*
X59710Y85739D01*
Y86220D01*
G01X51851Y98819D02*
X51969D01*
X55827Y94961D01*
Y90427D01*
X52101Y86701D01*
Y86220D01*
G01X170670Y113346D02*
X62521D01*
X51851Y102676D01*
Y98819D01*
G01X38385Y136811D02*
X63976D01*
G01X73228Y134793D02*
X71210Y136811D01*
X63976D01*
G01X102902Y198000D02*
X100020D01*
X88171Y186151D01*
X54499D01*
X47756Y179408D01*
G01X54985Y204724D02*
X58913D01*
X64859Y210670D01*
X85311D01*
X86311Y211670D01*
Y216948D01*
X99311Y229948D01*
X108519D01*
X112429Y233858D01*
G01X47376Y204724D02*
X43146D01*
G01X68878Y206123D02*
X58818Y196063D01*
X54985D01*
G01X47126Y222047D02*
X47244D01*
X51102Y218189D01*
Y196517D01*
X51556Y196063D01*
X54985D01*
G01X55236Y213386D02*
X61913D01*
G01X89764Y41077D02*
X90245D01*
X93675Y37647D01*
X104699D01*
G01X89764Y48686D02*
X90245D01*
X93675Y52116D01*
X105499D01*
G01X162796Y121925D02*
X90007D01*
X77139Y134793D01*
X73228D01*
G01Y131363D02*
Y134793D01*
G01X81099Y193000D02*
X88712D01*
X92712Y197000D01*
Y204080D01*
X98962Y210330D01*
X120961D01*
X123131Y212500D01*
X127874D01*
G01X81099Y198000D02*
X90312D01*
G01X81099Y203000D02*
X86348D01*
X87911Y204563D01*
Y215930D01*
X98911Y226930D01*
X153393D01*
X158267Y231804D01*
Y243327D01*
X157893Y243701D01*
G01X102902Y213000D02*
X90511D01*
G01X81099D02*
X78217D01*
X75886Y215331D01*
Y233724D01*
X97674Y255512D01*
X120453D01*
X120926Y255039D01*
X121181D01*
Y255512D01*
G01X117454Y242520D02*
X87387D01*
X79287Y234420D01*
Y223000D01*
X80887D01*
G01D02*
Y218212D01*
X81099Y218000D01*
G01Y223000D02*
X80887D01*
G01X78347Y353819D02*
X112466D01*
G01X78347Y358819D02*
X86303D01*
G01X114306Y12992D02*
X110877D01*
X107099Y16770D01*
Y40676D01*
X106299Y41476D01*
Y51316D01*
X105499Y52116D01*
G01X115767Y57703D02*
X111086D01*
X105499Y52116D01*
G01X150394Y49473D02*
Y52902D01*
X145593Y57703D01*
X115767D01*
G01X112460Y70866D02*
X113385D01*
X115767Y68484D01*
Y57703D01*
G01X141618Y125897D02*
X105100D01*
G01X165196Y117346D02*
X95496D01*
G01X160290Y132223D02*
X94700D01*
G01X142942Y147422D02*
X136107Y154257D01*
X125618D01*
X117618Y162257D01*
Y179134D01*
G01X102902Y193000D02*
X108114D01*
Y199400D01*
X107114Y200400D01*
X96712D01*
G01X117454Y233858D02*
X112429D01*
G01X102902Y218000D02*
X97690D01*
G01D02*
Y223000D01*
X102902D01*
G01X117205Y251181D02*
X114948Y248924D01*
X112429D01*
G01X121181Y255512D02*
Y255867D01*
X117205Y259843D01*
G01X125315Y251181D02*
X121340D01*
X121181Y251022D01*
Y242818D01*
X120883Y242520D01*
X117454D01*
G01X123110Y29528D02*
X126081Y26557D01*
Y17639D01*
X121915Y13473D01*
Y12992D01*
G01X134921Y45276D02*
X138333Y41864D01*
X150394D01*
G01X122185Y67126D02*
X125492D01*
X131595Y61023D01*
X166475D01*
X166948Y61496D01*
G01X128118Y74016D02*
X159292D01*
G01X139646Y89370D02*
X139764D01*
X143622Y93228D01*
Y106989D01*
X145079Y108446D01*
Y110846D01*
G01X225984Y135079D02*
X146439D01*
G01X246181Y47244D02*
X230128Y63297D01*
Y77635D01*
X230728Y78235D01*
Y117323D01*
X228228Y119823D01*
X223498D01*
X215961Y127360D01*
X146907D01*
X145970Y128297D01*
X137618D01*
G01X141142Y157722D02*
X125718D01*
G01X136890Y190945D02*
X141195Y186640D01*
X141584D01*
X145014Y190070D01*
Y190551D01*
G01X127874Y212500D02*
X155783D01*
G01X125063Y233858D02*
Y234339D01*
X129365Y238641D01*
Y254399D01*
X128252Y255512D01*
X121181D01*
G01X129293Y229947D02*
X122199D01*
X121258Y230888D01*
Y238234D01*
X125063Y242039D01*
Y242520D01*
G01X154463Y235039D02*
Y234558D01*
X149852Y229947D01*
X129293D01*
G01X142126Y353819D02*
X138152D01*
X137370Y353037D01*
Y335583D01*
G01X142126Y348819D02*
X146100D01*
X146882Y348037D01*
Y338839D01*
G01X142126Y368819D02*
X143504D01*
X146083Y366240D01*
X151357D01*
X155000Y369883D01*
G01X142126Y358819D02*
X146371D01*
X166371Y338819D01*
Y326576D01*
G01X163518Y56693D02*
X166948Y60123D01*
Y61496D01*
G01D02*
X167520D01*
X171378Y65354D01*
G01D02*
X171496D01*
X175354Y69212D01*
Y69308D01*
X171127Y73535D01*
Y74016D01*
G01X159292D02*
Y69212D01*
X163150Y65354D01*
X163268D01*
G01X163518Y74016D02*
X159292D01*
G01X225984Y95079D02*
X224278Y93373D01*
X158859D01*
G01X152953Y124960D02*
X215041D01*
X224922Y115079D01*
X225984D01*
G01X174194Y120276D02*
X177462Y117008D01*
X186614D01*
G01X225984Y125079D02*
X221240Y129823D01*
X149319D01*
G01X172594Y143898D02*
X176885Y139607D01*
X186614D01*
G01X153017Y160236D02*
Y148452D01*
X156447Y145022D01*
G01X152953Y164947D02*
X237128D01*
G01X155783Y212500D02*
Y210756D01*
X161283Y205256D01*
X192518D01*
X194918Y202856D01*
G01X162072Y235039D02*
Y231128D01*
X155783Y224839D01*
Y212500D01*
G01X227165Y236969D02*
X171871D01*
G01X227165Y246969D02*
X168672D01*
G01X157893Y243701D02*
Y248451D01*
X154463Y251881D01*
Y252362D01*
G01Y243701D02*
X157893D01*
G01X191556Y274955D02*
X156477D01*
G01X190009Y62205D02*
Y52212D01*
X206850Y35371D01*
Y22638D01*
G01X188409Y87535D02*
Y42591D01*
X202000Y29000D01*
Y20000D01*
X198885Y16885D01*
X192603D01*
X186850Y22638D01*
G01X193439Y62205D02*
X190009D01*
G01X193189Y72441D02*
Y68584D01*
X190009Y65404D01*
Y62205D01*
G01X186614Y117008D02*
X191024D01*
X194882Y120866D01*
Y120984D01*
G01X186614D02*
Y117008D01*
G01X203149Y114173D02*
X196338Y120984D01*
X194882D01*
G01X186614Y139607D02*
X202353D01*
X203150Y140404D01*
Y143833D01*
G01X186614Y143583D02*
Y139607D01*
G01X200556Y178714D02*
X263165D01*
G01X266181Y47244D02*
Y96219D01*
X245643Y116757D01*
Y127405D01*
X244703Y128345D01*
X238854D01*
X237728Y129471D01*
Y150123D01*
X227228Y160623D01*
X183694D01*
G01X194918Y202856D02*
X209983D01*
X219627Y212500D01*
G01X251313Y307087D02*
X233262D01*
X190118Y263943D01*
G01X219962Y76335D02*
Y89823D01*
G01X225984Y145079D02*
X232528Y138535D01*
Y65729D01*
G01X276772Y224409D02*
X203672D01*
G01X251313Y298425D02*
X246949D01*
X244567Y300807D01*
X236290D01*
X218790Y283307D01*
Y280669D01*
G01X241732Y132150D02*
Y135579D01*
X242964Y136811D01*
X250984D01*
G01X276772Y163386D02*
X259736D01*
X252229Y170893D01*
Y174803D01*
G01X250255Y277559D02*
X249330D01*
X246948Y279941D01*
Y294514D01*
G01D02*
X245399Y296063D01*
X238387D01*
G01X258922Y307087D02*
X255493D01*
X255117Y306711D01*
Y295454D01*
X253757Y294094D01*
X247368D01*
X246948Y294514D01*
G01X264765Y187402D02*
Y180314D01*
X263165Y178714D01*
G01D02*
X268651Y173228D01*
X276772D01*
G01X262352Y289764D02*
X263287Y288829D01*
Y276201D01*
X260905Y273819D01*
X259980D01*
G01X258922Y289764D02*
X262352D01*
G01X258922Y298425D02*
Y297944D01*
X262352Y294514D01*
Y289764D01*
G54D29*
X196850Y22638D03*
X206850D03*
M02*
